<svg xmlns="http://www.w3.org/2000/svg" id="Layer_1" data-name="Layer 1" viewBox="0 0 547.36 648"><defs><style>.cls-1{fill:#e24163}.cls-2{font-size:7px;font-family:Roboto-Medium,Roboto;font-weight:500}.cls-11,.cls-15,.cls-17,.cls-2,.cls-20,.cls-23,.cls-24,.cls-26,.cls-5,.cls-6,.cls-8{fill:#1f6f8b}.cls-3{fill:#f5c14b}.cls-5{font-size:9px}.cls-11,.cls-15,.cls-17,.cls-20,.cls-23,.cls-24,.cls-26,.cls-5,.cls-6,.cls-8{font-family:Roboto-Regular,Roboto}.cls-6{font-size:6px}.cls-11,.cls-15,.cls-17,.cls-20,.cls-24,.cls-8{font-size:7.35px}.cls-20{letter-spacing:-.01em}.cls-21{letter-spacing:0}.cls-23,.cls-26{font-size:7.35px}.cls-34{letter-spacing:-.02em}</style></defs><path d="M142.01 456.73v9.16h-9.16v-9.16z" class="cls-1"/><text class="cls-2" transform="translate(146.45 463.22)">Domfellelser</text><path d="M142 469.99v9.16h-9.16v-9.16z" class="cls-3"/><text class="cls-2" transform="translate(146.45 476.48)"><tspan style="letter-spacing:-.01em">F</tspan><tspan x="3.76" y="0">rifinnelser</tspan></text><text class="cls-5" transform="translate(239.81 332.58)">500</text><text class="cls-6" transform="rotate(31 -548.56 556.177)">Antall <tspan x="-7.17" y="7.2">dommer</tspan></text><text class="cls-6" transform="rotate(31 -589.012 545.086)">Andel <tspan x="-17.93" y="7.2">domfellelser</tspan></text><text class="cls-5" transform="translate(273.94 281.08)">1000</text><text class="cls-5" transform="translate(315.98 228.59)">1500</text><text class="cls-5" transform="translate(354.75 177.14)">2000</text><text class="cls-5" transform="translate(395.38 124.94)">2500</text><text class="cls-5" transform="translate(435.41 72.84)">3000</text><path d="m200.91 374.02 12.93 7.77" style="fill:none;stroke:#1f6f8b;stroke-miterlimit:10"/><path d="m310.506 519.449 2.666-8.208 5.27 1.712-2.667 8.208z" class="cls-3"/><path d="m252.487 501.438 2.675-8.198 57.732 18.838-2.676 8.199z" class="cls-1"/><text class="cls-8" transform="rotate(18 -1482.742 1266.308)">Mold<tspan x="16.54" y="0" style="letter-spacing:-.01em">ov</tspan><tspan x="24.18" y="0" style="letter-spacing:0">a</tspan></text><path d="m286.906 529.871 3.647-7.821 17.201 8.021-3.647 7.822z" class="cls-3"/><path d="m247.823 511.66 3.647-7.822 39.071 18.219-3.647 7.821z" class="cls-1"/><text class="cls-11" transform="rotate(25 -1058.167 961.653)">S<tspan x="4.36" y="0" style="letter-spacing:-.01em">t</tspan><tspan x="6.69" y="0" style="letter-spacing:0">orbritannia</tspan></text><path d="m284.112 548.514 4.573-7.319 6.708 4.192-4.573 7.319z" class="cls-3"/><path d="m241.631 521.967 4.573-7.319 42.48 26.544-4.574 7.318z" class="cls-1"/><text class="cls-11" transform="rotate(32 -816.316 788.99)">K<tspan x="4.61" y="0" style="letter-spacing:-.01em">r</tspan><tspan x="7.02" y="0">oatia</tspan></text><path d="m271.728 561.801 5.431-6.706 1.33 1.076-5.432 6.707z" class="cls-3"/><path d="m234.234 531.443 5.43-6.707 37.498 30.365-5.43 6.706z" class="cls-1"/><text class="cls-15" transform="rotate(39 -656.797 671.534)">Sl<tspan x="6.14" y="0" style="letter-spacing:-.01em">ov</tspan><tspan x="13.79" y="0">akia</tspan></text><path d="m251.74 566.874 6.208-5.995 7.231 7.488-6.208 5.995z" class="cls-3"/><path d="m225.735 539.95 6.208-5.994 26.008 26.932-6.208 5.995z" class="cls-1"/><text class="cls-17" transform="rotate(46 -545.876 595.725)">Østerrike</text><path d="m241.97 581.461 6.892-5.193 1.902 2.523-6.892 5.194z" class="cls-3"/><path d="m216.251 547.344 6.893-5.193 25.703 34.11-6.892 5.193z" class="cls-1"/><text style="font-size:7.35px;font-family:Roboto-Regular,Roboto;fill:#1f6f8b" transform="rotate(53 -462.572 539.156)">Sl<tspan x="6.14" y="0" style="letter-spacing:-.01em">o</tspan><tspan x="10.28" y="0">venia</tspan></text><path d="m219.2 576.492 7.475-4.315 8.57 14.844-7.474 4.315z" class="cls-3"/><path d="m205.952 553.546 7.474-4.315 13.25 22.95-7.474 4.315z" class="cls-1"/><text class="cls-15" transform="rotate(60 -397.722 495.864)">Tyskland</text><path d="m209.296 592.173 7.944-3.372 1.083 2.55-7.944 3.372z" class="cls-3"/><path d="m194.972 558.44 7.944-3.371 14.32 33.736-7.944 3.372z" class="cls-1"/><text class="cls-20" transform="rotate(67 -343 458.64)">P<tspan x="4.59" y="0" class="cls-21">o</tspan><tspan x="8.78" y="0" style="letter-spacing:.02em">r</tspan><tspan x="11.45" y="0" class="cls-21">tugal</tspan></text><path d="m190.66 587.047 8.295-2.38 1.927 6.72-8.296 2.379z" class="cls-3"/><path d="m183.468 561.96 8.296-2.379 7.194 25.089-8.295 2.379z" class="cls-1"/><text class="cls-23" transform="rotate(74 -297.49 427.085)">Belgia</text><path d="m176.606 595.426 8.523-1.35.041.257-8.524 1.35z" class="cls-3"/><path d="m171.628 564.047 8.524-1.35 4.97 31.38-8.524 1.35z" class="cls-1"/><text class="cls-17" transform="rotate(81 -260.896 404.078)">Aserbajdsjan</text><path d="m160.576 591.954 8.624-.3.083 2.368-8.625.3z" class="cls-3"/><path d="m159.614 564.679 8.625-.301.952 27.273-8.625.301z" class="cls-1"/><text class="cls-23" transform="rotate(88 -227.558 382.51)">Serbia</text><path d="m145.13 592.336.61-6.964 8.596.752-.609 6.964z" class="cls-3"/><path d="m145.735 585.38 1.884-21.537 8.598.752-1.885 21.538z" class="cls-1"/><text class="cls-24" transform="rotate(-85 412.498 228.496)">Litauen</text><path d="m129.951 589.136.63-2.964 8.441 1.795-.63 2.964z" class="cls-3"/><path d="m130.59 586.171 5.235-24.63 8.442 1.795-5.236 24.63z" class="cls-1"/><text class="cls-11" transform="rotate(-77.9 447.863 228.461)"><tspan style="letter-spacing:-.06em">T</tspan><tspan x="3.97" y="0">sjekkia</tspan></text><path d="m115.46 583.762 3.604-10.466 8.16 2.81-3.604 10.466z" class="cls-3"/><path d="m119.063 573.29 5.323-15.46 8.16 2.81-5.324 15.46z" class="cls-1"/><text class="cls-11" transform="rotate(-71 483.101 224.32)">Sveits</text><path d="m102.738 574.796 3.002-6.157 7.757 3.783-3.003 6.157z" class="cls-3"/><path d="m105.74 568.632 7.741-15.873 7.757 3.783-7.742 15.873z" class="cls-1"/><text class="cls-24" transform="rotate(-64 528.24 221.413)">Spania</text><path d="m90.514 566.059 2.587-3.984 7.238 4.7-2.587 3.984z" class="cls-3"/><path d="m93.094 562.083 10.196-15.7 7.238 4.7-10.196 15.7z" class="cls-1"/><text class="cls-23" transform="rotate(-57 585.298 220.59)">Finland </text><path d="m78.942 556.696 1.099-1.31 6.61 5.547-1.098 1.31z" class="cls-3"/><path d="m80.048 555.376 13.897-16.562 6.611 5.548-13.897 16.562z" class="cls-1"/><text class="cls-26" transform="rotate(-50 671.682 252.04)">Nord-Makedonia</text><path d="m71.03 543.746 2.508-2.34 5.886 6.312-2.509 2.34z" class="cls-3"/><path d="M73.527 541.408 85.58 530.17l5.885 6.312-12.052 11.239z" class="cls-1"/><text class="cls-26" transform="rotate(-43 745.826 209.859)">Latvia </text><path d="m62.57 532.042 5.332-3.874 5.072 6.982-5.331 3.874z" class="cls-3"/><path d="m67.893 528.158 10.453-7.594 5.072 6.982-10.452 7.594z" class="cls-1"/><text class="cls-8" transform="rotate(-36 878.27 223.61)">Nederland</text><path d="m55.262 519.618.691-.383 4.184 7.548-.69.383z" class="cls-3"/><path d="m55.963 519.23 16.373-9.076 4.184 7.548-16.373 9.076z" class="cls-1"/><text class="cls-17" transform="rotate(-29 1060.664 213.19)">Armenia </text><path d="m51.993 505.413 2.568-1.037 3.233 8.001-2.569 1.038z" class="cls-3"/><path d="m54.562 504.378 13.083-5.286 3.233 8.002-13.083 5.286z" class="cls-1"/><text class="cls-26" transform="rotate(-22 1356.943 193.503)">Georgia </text><path d="m48.913 491.661 7.515-2.013 2.234 8.336-7.515 2.013z" class="cls-3"/><path d="m56.422 489.64 7.891-2.114 2.234 8.336-7.892 2.115z" class="cls-1"/><text class="cls-8" transform="matrix(.97 -.26 .26 .97 23.66 504.95)">Sverige</text><path d="m47.678 477.725 2.347-.33 1.201 8.546-2.347.33z" class="cls-3"/><path d="m50.031 477.395 12.398-1.743 1.201 8.547-12.398 1.742z" class="cls-1"/><text class="cls-17" transform="rotate(-8 3496.236 62.477)">Malta</text><path d="m48.178 463.877.92-.016.15 8.629-.92.016z" class="cls-3"/><path d="m49.096 463.861 12.918-.225.15 8.628-12.917.226z" class="cls-1"/><text class="cls-11" transform="rotate(-1 27047.321 60.131)">Bosnia-He<tspan x="33.56" y="0" style="letter-spacing:-.01em">r</tspan><tspan x="35.98" y="0">c.</tspan></text><path d="m51.665 459.145.902-8.582.915.096-.902 8.582z" class="cls-3"/><path d="m52.585 459.237.902-8.583 9.567 1.006-.902 8.582z" class="cls-1"/><text class="cls-26" transform="rotate(6 -4318.806 482.25)">Kyp<tspan x="12.21" y="0" style="letter-spacing:-.01em">r</tspan><tspan x="14.63" y="0">os</tspan></text><path d="m53.725 446.02 1.941-8.41.77.178-1.941 8.41z" class="cls-3"/><path d="m54.497 446.2 1.941-8.41 9.12 2.106-1.941 8.41z" class="cls-1"/><text class="cls-23" transform="rotate(13 -1905.12 330.908)">Albania </text><path d="m58.211 433.622 2.952-8.11 2.847 1.036-2.951 8.11z" class="cls-3"/><path d="m61.063 434.656 2.952-8.11 5.45 1.985-2.952 8.11z" class="cls-1"/><text style="font-size:10px;font-family:Roboto-Bold,Roboto;font-weight:700;fill:#1f6f8b" transform="rotate(20 -1177.155 297.296)">Norge</text><path d="m63.07 421.46 3.917-7.689.472.24-3.918 7.69z" class="cls-3"/><path d="m63.538 421.702 3.918-7.689 7.28 3.71-3.919 7.689z" class="cls-1"/><text class="cls-15" transform="rotate(27 -819.994 254.882)">Monteneg<tspan x="33.03" y="0" style="letter-spacing:-.01em">r</tspan><tspan x="35.45" y="0" style="letter-spacing:0">o</tspan></text><path d="m69.575 410.138 4.826-7.155 1.749 1.18-4.826 7.155z" class="cls-3"/><path d="m71.32 411.322 4.826-7.154 5.14 3.467-4.825 7.154z" class="cls-1"/><text class="cls-17" transform="rotate(34 -618.213 274.97)">Estland</text><path d="m78.477 400.693 5.662-6.514 2.785 2.421-5.662 6.513z" class="cls-3"/><path d="m81.259 403.121 5.661-6.513 2.09 1.817-5.66 6.514z" class="cls-1"/><text class="cls-17" transform="rotate(41 -477.31 263.467)">Danmark</text><path d="m87.158 391.295 6.413-5.774 1.058 1.174-6.414 5.775z" class="cls-3"/><path d="m88.219 392.47 6.413-5.775 3.178 3.53-6.413 5.774z" class="cls-1"/><text style="letter-spacing:-.02em;font-size:7.35px;font-family:Roboto-Regular,Roboto;fill:#1f6f8b" transform="rotate(48 -371.273 245.717)">L<tspan x="3.8" y="0" style="letter-spacing:0">uxembourg</tspan></text><path d="m97.817 384.309 7.07-4.95.757 1.081-7.07 4.95z" class="cls-3"/><path d="m98.575 385.389 7.07-4.95 1.892 2.703-7.07 4.95z" class="cls-1"/><text class="cls-17" transform="rotate(55 -307.236 266.864)">Irland</text><path d="m108.453 377.645 7.62-4.052.37.698-7.62 4.051z" class="cls-3"/><path d="m108.825 378.346 7.62-4.052 1.61 3.028-7.62 4.052z" class="cls-1"/><text class="cls-17" transform="rotate(62 -246.508 261.09)">Island</text><path d="m120.337 373.81 8.057-3.092.237.616-8.057 3.093z" class="cls-3"/><path d="m120.572 374.428 8.057-3.092.566 1.475-8.057 3.092z" class="cls-1"/><text class="cls-17" transform="matrix(.36 .93 -.93 .36 107.7 334.12)">San Marino</text><path d="m132.119 370.507 8.374-2.088.062.252-8.373 2.088z" class="cls-3"/><path d="m132.182 370.761 8.374-2.088.254 1.02-8.374 2.087z" class="cls-1"/><text class="cls-15" transform="rotate(76.1 -144.409 239.465)">Liechtenstein </text><path d="m144.04 368.157 8.565-1.052.049.397-8.566 1.052z" class="cls-3"/><path d="m144.086 368.547 8.566-1.052.065.526-8.566 1.052z" class="cls-1"/><text class="cls-15" transform="rotate(83 -118.722 248.667)">Andor<tspan x="19.67" y="0" class="cls-34">r</tspan><tspan x="22.02" y="0">a </tspan></text><path d="M156.11 367.28h8.63v.13h-8.63z" class="cls-3"/><path d="M156.11 367.41h8.63v.4h-8.63z" class="cls-1"/><text class="cls-23" transform="rotate(90 -88.77 247.29)">Monaco</text><text class="cls-8" transform="rotate(-45 394.142 -569.799)">Russland</text><path d="m431.652 248.814 8.204-6.41 5.313 6.801-8.203 6.41z" class="cls-3"/><text class="cls-26" transform="rotate(-38 580.645 -523.615)">Italia</text><path d="m430.02 299.163 2.486-1.494 4.445 7.397-2.486 1.494z" class="cls-3"/><text class="cls-15" transform="rotate(-31 763.972 -638.613)">Uk<tspan x="8.49" y="0" class="cls-34">r</tspan><tspan x="10.84" y="0">aina</tspan></text><text class="cls-8" transform="rotate(-24 1029.31 -865.404)">Romania</text><path d="m382.747 393.695 16.764-5.125 2.523 8.253-16.764 5.125z" class="cls-3"/><text class="cls-20" transform="matrix(.96 -.29 .29 .96 403.67 394.21)">P<tspan x="4.59" y="0" class="cls-21">olen</tspan></text><path d="m379.678 423.128 5.712-1.007 1.498 8.499-5.711 1.007z" class="cls-3"/><text class="cls-11" transform="rotate(-10 2642.452 -2009.38)">Hellas</text><path d="m359.328 451.425 25.535-1.338.451 8.618-25.535 1.339z" class="cls-3"/><text class="cls-17" transform="rotate(-3 8912.943 -7178.146)"><tspan style="letter-spacing:-.01em">F</tspan><tspan x="3.97" y="0" style="letter-spacing:-.02em">r</tspan><tspan x="6.31" y="0">ankrike</tspan></text><path d="m351.347 483.017.604-8.63 6.59.46-.604 8.63z" class="cls-3"/><text style="font-size:7.35px;font-family:Roboto-Regular,Roboto;fill:#1f6f8b" transform="translate(358.7 482.38)">Bulgaria </text><path d="m330.895 503.686 1.646-8.471 2.72.528-1.647 8.472z" class="cls-3"/><text class="cls-15" transform="rotate(11 -2442.819 1996.874)">Ungarn</text><path d="m492.337 34.358 7.708-9.866 6.8 5.313-7.707 9.866z" class="cls-3"/><text class="cls-26" transform="rotate(-52 279.705 -507.237)">Tyrkia</text><path d="M432.57 349.73c-1.13-2.65-2.31-5.27-3.52-7.88l-3.57 1.59 3.51 7.88ZM433.32 349.4l6-2.69-3.51-7.88-6 2.69c1.19 2.61 2.37 5.23 3.51 7.88Z" class="cls-3"/><path d="m382.44 402.81 2.83-.87-2.52-8.25-2.82.86c.89 2.74 1.72 5.45 2.51 8.26Z" class="cls-1"/><path d="m512.68 120-3-3c-1-1-2.07-2-3.1-3.06l-5.29 5.29 6.1 6.11ZM510.25 116.41l3 3 4.85-4.84-6.1-6.07-4.85 4.85c1.04 1.02 2.08 2.03 3.1 3.06Z" class="cls-3"/><path d="m468.4 79 30.73-39.33-6.8-5.31-30.72 39.32Q465 76.31 468.4 79ZM427.78 131l40.12-51.35q-3.37-2.7-6.79-5.33L421 125.68q3.41 2.63 6.78 5.32ZM387.14 183l40.13-51.37q-3.36-2.7-6.79-5.33l-40.14 51.4q3.44 2.61 6.8 5.3ZM346.51 235l40.12-51.36q-3.36-2.7-6.79-5.32l-40.12 51.38q3.44 2.61 6.79 5.3ZM305.89 287 346 235.66q-3.36-2.72-6.79-5.32l-40.11 51.35q3.43 2.6 6.79 5.31ZM265.2 339.08l40.19-51.43q-3.36-2.73-6.8-5.32l-40.18 51.44c2.31 1.72 4.59 3.48 6.79 5.31ZM257.9 334.42 217.61 386l6.8 5.31 40.29-51.57q-3.31-2.74-6.8-5.32ZM463.6 163.06q1.51 1.51 3 3.05l40.78-40.78-6.1-6.11L460.5 160q1.56 1.53 3.1 3.06ZM416.94 209.72c1 1 2 2 3 3.06l46.1-46.1-3-3-3.09-3.06-46.1 46.1c1.02.97 2.07 1.97 3.09 3ZM370.29 256.37c1 1 2 2 3 3.06l46.08-46.07c-1-1-2-2.05-3-3.06s-2.08-2-3.12-3l-46.07 46.07q1.56 1.48 3.11 3ZM323.63 303c1 1 2 2 3 3.06L372.7 260c-1-1-2-2.05-3-3.06s-2.07-2-3.11-3L320.52 300c1.04 1 2.09 2 3.11 3ZM279.91 352.8l46.14-46.13c-1-1-2-2.05-3-3.06s-2.07-2-3.12-3l-46.12 46.09q3.12 2.97 6.1 6.1ZM273.23 347.28 227 393.55l6.1 6.1 46.27-46.27q-3.01-3.12-6.14-6.1ZM396.92 286.89l40-31.29-5.31-6.79-40 31.29q2.71 3.36 5.31 6.79ZM344.93 327.51l51.35-40.12q-2.61-3.39-5.28-6.79l-51.34 40.12q2.68 3.34 5.27 6.79ZM292.85 368.2l51.43-40.2q-2.59-3.43-5.32-6.79l-51.43 40.19q2.75 3.33 5.32 6.8ZM286.89 361.9l-51.57 40.29 5.31 6.8 51.57-40.29q-2.56-3.46-5.31-6.8ZM417 317l17.42-10.47-4.42-7.37-17.43 10.47c1.54 2.44 3.02 4.91 4.43 7.37ZM360.5 351l55.84-33.55c-1.45-2.48-2.93-4.95-4.45-7.39l-55.84 33.54c1.54 2.4 3.01 4.91 4.45 7.4ZM303.83 385.05l56-33.64c-1.44-2.48-2.91-5-4.45-7.39l-56 33.64c1.54 2.42 3.03 4.88 4.45 7.39ZM298.68 378.08l-56.12 33.71 4.44 7.4 56.13-33.72c-1.42-2.47-2.91-4.97-4.45-7.39ZM373.08 376.22l55.92-24.9-3.51-7.88-55.91 24.9q1.82 3.9 3.5 7.88ZM308.41 395.57l-59.83 26.64 3.51 7.88 59.84-26.65c-1.11-2.66-2.28-5.29-3.52-7.87ZM312.68 403.11l59.65-26.56q-1.68-4-3.51-7.88l-59.66 26.56q1.84 3.89 3.52 7.88ZM319.25 422.13l62.41-19.08c-.79-2.77-1.62-5.52-2.51-8.26l-62.43 19.09q1.38 4.12 2.53 8.25ZM315.94 414.12l-62.66 19.15 2.53 8.25 62.66-19.15c-.78-2.78-1.62-5.54-2.53-8.25ZM323.43 441.81l57.74-10.18-1.5-8.5-57.73 10.18q.85 4.22 1.49 8.5ZM321.14 433.45l-64.54 11.38 1.5 8.5L322.63 442c-.43-2.91-.92-5.74-1.49-8.55ZM257.88 480.7l-1.65 8.47 64.32 12.5c.62-2.79 1.16-5.62 1.64-8.47ZM323 493.36q-.71 4.27-1.64 8.47l9.54 1.86 1.65-8.47ZM258.92 468.72l-.6 8.61 65.35 4.57q.4-4.27.59-8.61ZM325.08 473.35c-.13 2.89-.32 5.76-.6 8.61l25.62 1.79.61-8.61ZM325.18 461.85l34.6-1.81-.45-8.62-34.6 1.81q.34 4.29.45 8.62ZM258.49 456.71l.45 8.61 65.43-3.43q-.12-4.33-.45-8.61Z" class="cls-1"/><text class="cls-23" transform="rotate(-52 520.349 -14.962)">97 %</text><text class="cls-23" transform="rotate(-45 605.715 -58.846)">96 %</text><text class="cls-23" transform="rotate(-38 720.403 -117.763)">96 %</text><text class="cls-17" transform="rotate(-31 884.873 -202.356)">99 %</text><text class="cls-17" transform="rotate(-24 1142.322 -334.79)">94 %</text><text class="cls-23" transform="matrix(.96 -.29 .29 .96 237.94 444.91)">89 %</text><text class="cls-23" transform="rotate(-10 2717.852 -1144.67)">96 %</text><text class="cls-23" transform="rotate(-3 8985.705 -4367.464)">80 %</text><text class="cls-23" transform="translate(240.39 474.16)">93 %</text><text class="cls-23" transform="rotate(11 -2393.121 1482.678)">96 %</text><text class="cls-23" transform="rotate(18 -1439.245 992.346)">92 %</text><text class="cls-23" transform="rotate(25 -1016.74 775.169)">69 %</text><text class="cls-23" transform="rotate(32 -776.946 651.926)">86 %</text><text class="cls-23" transform="rotate(39 -621.457 572.052)">97 %</text><text class="cls-23" transform="rotate(46 -511.838 515.633)">78 %</text><text class="cls-23" transform="rotate(53 -429.938 473.439)">93 %</text><text class="cls-23" transform="rotate(60 -365.757 440.55)">61 %</text><text class="cls-23" transform="rotate(67 -313.94 413.918)">93 %</text><text class="cls-23" transform="rotate(74 -270.804 391.705)">79 %</text><text class="cls-23" transform="rotate(81 -234.303 372.931)">99 %</text><text class="cls-23" transform="rotate(88 -202.54 356.609)">92 %</text><text class="cls-23" transform="rotate(-85 383.551 196.932)">76 %</text><text class="cls-23" transform="rotate(-77.9 417.597 191.247)">89 %</text><text class="cls-23" transform="rotate(-71 456.334 186.835)">60 %</text><text class="cls-23" transform="rotate(-64 502.686 180.456)">72 %</text><text class="cls-23" transform="rotate(-57 559.254 172.633)">80 %</text><text class="cls-23" transform="rotate(-50 630.122 162.924)">93 %</text><text class="cls-23" transform="rotate(-43 722.29 150.045)">83 %</text><text class="cls-23" transform="rotate(-36 848.602 132.546)">66 %</text><text class="cls-23" transform="rotate(-29 1033.236 107.17)">96 %</text><text class="cls-23" transform="rotate(-22 1332.135 65.831)">84 %</text><text class="cls-23" transform="matrix(.97 -.26 .26 .97 68.45 492.91)">51 %</text><text class="cls-23" transform="rotate(-8 3475.867 -229.88)">84 %</text><text class="cls-23" transform="rotate(-1 26952.657 -3471.44)">93 %</text><text class="cls-23" transform="rotate(6 -4338.27 848.338)">91 %</text><text class="cls-23" transform="rotate(13 -1926.159 515.745)">92 %</text><text class="cls-23" transform="rotate(20 -1199.301 415.288)">66 %</text><text class="cls-23" transform="rotate(27 -846.772 366.842)">94 %</text><text class="cls-23" transform="rotate(34 -637.36 337.87)">75 %</text><text class="cls-23" transform="rotate(41 -497.908 318.572)">43 %</text><text class="cls-23" transform="rotate(48 -397.516 304.646)">75 %</text><text class="cls-23" transform="rotate(55 -321.426 294.223)">71 %</text><text class="cls-23" transform="rotate(62 -261.447 285.934)">81 %</text><text class="cls-23" transform="matrix(.36 .93 -.93 .36 124.33 377.4)">71 %</text><text class="cls-23" transform="rotate(76.1 -170.97 273.564)">80 %</text><text class="cls-23" transform="rotate(83 -136.412 268.7)">57 %</text><text class="cls-23" transform="rotate(90 -105.92 264.44)">75 %</text></svg>