<svg xmlns="http://www.w3.org/2000/svg" xml:space="preserve" width="1541" height="754" style="enable-background:new 0 0 1541 754"><defs xmlns:dbi="http://www.datylon.com/dbi" dbi:type="fonts" id="datylon_font_defs"><style>@font-face{font-family:&quot;PTSans-Bold&quot;;src:url(https://s3-eu-west-1.amazonaws.com/fonts.insights.datylon.com/PTSans-Bold.ttf)format(&quot;truetype&quot;)}@font-face{font-family:&quot;PTSans-Regular&quot;;src:url(https://s3-eu-west-1.amazonaws.com/fonts.insights.datylon.com/PTSans-Regular.ttf)format(&quot;truetype&quot;)}</style></defs><g id="Embellishments"><path d="M109.011 81h1121.423v59.054H109.011z" style="fill:none"/><text style="fill:#4c4c4c;font-family:&quot;PTSans-Bold&quot;;font-size:36px" transform="translate(109.01 106.2)">Top 15 World Tallest Buildings</text><path d="M109.011 686H515v30H109.011z" style="fill:none"/><text style="fill:#4c4c4c;font-family:&quot;PTSans-Regular&quot;;font-size:14px" transform="translate(109.01 695.8)">Source: https://en.wikipedia.org/wiki/List_of_tallest_buildings</text></g><g id="Charts"><g id="Legend"><defs><clipPath id="clipin7ee54m8d"><path d="M0 0h130.5v43H0z"/></clipPath></defs><g xmlns:ns1="http://www.datylon.com/dbi" ns1:type="visualization" clip-path="url(#clipin7ee54m8d)" transform="translate(105.5 125)"><defs class="viz_defs"><clipPath id="stroke_ew4416of1e6"><path d="M0 0h19.75v18H0V0z"/></clipPath><clipPath id="stroke_o46wipfcvkh"><path d="M49.375 0h19.75v18h-19.75V0z"/></clipPath><clipPath id="stroke_clb3xo07y6o"><path d="M98.75 0h19.75v18H98.75V0z"/></clipPath></defs><g class="chart-group"><g class="data-group"><g class="bar-group"><g class="id_10t7m6jq90kq"><g class="bar_0"><path fill="#88CFE3" d="M0 0h19.75v18H0V0z" transform="translate(6)"/><path fill="none" stroke="gray" stroke-width="0" d="M0 0h19.75v18H0V0z" clip-path="url(#stroke_ew4416of1e6)" transform="translate(6)"/></g></g><g class="id_0q9l3pvif9zd"><g class="bar_0"><path fill="#E75622" d="M49.375 0h19.75v18h-19.75V0z" transform="translate(6)"/><path fill="none" stroke="gray" stroke-width="0" d="M49.375 0h19.75v18h-19.75V0z" clip-path="url(#stroke_o46wipfcvkh)" transform="translate(6)"/></g></g><g class="id_j9n4842mki"><g class="bar_0"><path fill="#F8AD00" d="M98.75 0h19.75v18H98.75V0z" transform="translate(6)"/><path fill="none" stroke="gray" stroke-width="0" d="M98.75 0h19.75v18H98.75V0z" clip-path="url(#stroke_clb3xo07y6o)" transform="translate(6)"/></g></g></g></g><g class="categorical-labels"><g class="categoricallabel_hr3karoqc4" transform="translate(15.875 18)"><text id="gtext" fill="#333" dx="-9.859" dy="11" font-size="11" letter-spacing="0" opacity="1" style="font-family:PTSans-Bold;font-style:normal;font-weight:400;font-stretch:normal"><tspan x="0" y="0" dx="-9.859" dy="1em">Asia</tspan></text></g><g class="categoricallabel_hr3karoqc4"><text fill="#333" class="wrapped" dx="-34.047" dy="11" font-size="11" letter-spacing="0" style="font-family:PTSans-Bold;font-style:normal;font-weight:400;font-stretch:normal" transform="translate(65.25 18)"><tspan x="5.489" y="0" dx="-19.07" dy="1em">North</tspan><tspan x="0" y="0" dx="-19.07" dy="2.1em">America</tspan></text></g><text fill="#333" class="categoricallabel_hr3karoqc4" dx="-16.484" dy="11" font-size="11" letter-spacing="0" style="font-family:PTSans-Bold;font-style:normal;font-weight:400;font-stretch:normal" transform="translate(114.625 18)"><tspan x="0" y="0" dx="-16.484" dy="1em">Europe</tspan></text></g><g class="data-labels"><text fill="#333" class="datalabel_loavc5kxhxh" dx="-10.977" dy="-4" font-size="16" letter-spacing="0" style="font-family:PTSans-Bold;font-style:normal;font-weight:400;font-stretch:normal" transform="translate(15.875)">1m</text><text fill="#333" class="datalabel_loavc5kxhxh" dx="-10.977" dy="-4" font-size="16" letter-spacing="0" style="font-family:PTSans-Bold;font-style:normal;font-weight:400;font-stretch:normal" transform="translate(65.25)">1m</text><text fill="#333" class="datalabel_loavc5kxhxh" dx="-10.977" dy="-4" font-size="16" letter-spacing="0" style="font-family:PTSans-Bold;font-style:normal;font-weight:400;font-stretch:normal" transform="translate(114.625)">1m</text></g></g></g></g><g id="Top_15_World_Tallest_Buildings"><defs><clipPath id="clipjdwljskh2ls"><path d="M0 0h1366v524.5H0z"/></clipPath></defs><g xmlns:ns2="http://www.datylon.com/dbi" ns2:type="visualization" clip-path="url(#clipjdwljskh2ls)" transform="translate(61.5 188)"><defs class="viz_defs"><clipPath id="stroke_2qbzgon713"><path d="M0 0h35.167v374.5H0V0z"/></clipPath><clipPath id="stroke_q27t0cqvqr"><path d="M87.917 88.65h35.166V374.5H87.917V88.65z"/></clipPath><clipPath id="stroke_wmrifrks5qi"><path d="M175.833 102.67H211V374.5h-35.167V102.67z"/></clipPath><clipPath id="stroke_fwf5jrqytmu"><path d="M263.75 103.575h35.167V374.5H263.75V103.575z"/></clipPath><clipPath id="stroke_0is56adxxkio"><path d="M351.667 123.703h35.166V374.5h-35.166V123.703z"/></clipPath><clipPath id="stroke_s2gm5tv242s"><path d="M439.583 129.673h35.167V374.5h-35.167V129.673z"/></clipPath><clipPath id="stroke_bxxqyqibrh"><path d="M527.5 134.784h35.167V374.5H527.5V134.784z"/></clipPath><clipPath id="stroke_heiv6u0mmwt"><path d="M615.417 134.784h35.166V374.5h-35.166V134.784z"/></clipPath><clipPath id="stroke_1hy1he4lfzkj"><path d="M703.333 135.688H738.5V374.5h-35.167V135.688z"/></clipPath><clipPath id="stroke_ioyyhql6mgh"><path d="M791.25 144.734h35.167V374.5H791.25V144.734z"/></clipPath><clipPath id="stroke_6c4lzljqucq"><path d="M879.167 151.971h35.166V374.5h-35.166V151.971z"/></clipPath><clipPath id="stroke_ju685lv6vqa"><path d="M967.083 155.59h35.167V374.5h-35.167V155.59z"/></clipPath><clipPath id="stroke_7toqgv8u6kv"><path d="M1055 161.017h35.167V374.5H1055V161.017z"/></clipPath><clipPath id="stroke_l1yokn4cew"><path d="M1142.917 165.54h35.166V374.5h-35.166V165.54z"/></clipPath><clipPath id="stroke_2o05vci9pjf"><path d="M1230.833 165.902H1266V374.5h-35.167V165.902z"/></clipPath></defs><g class="chart-group"><g class="data-group"><g class="bar-group"><g class="id_np3gus2oqwm"><g class="bar_0"><path fill="#88CFE3" d="M0 0h35.167v374.5H0V0z" transform="translate(50 50)"/><path fill="none" stroke="gray" stroke-width="0" d="M0 0h35.167v374.5H0V0z" clip-path="url(#stroke_2qbzgon713)" transform="translate(50 50)"/></g></g><g class="id_wfxikae4eo"><g class="bar_0"><path fill="#88CFE3" d="M87.917 88.65h35.166V374.5H87.917V88.65z" transform="translate(50 50)"/><path fill="none" stroke="gray" stroke-width="0" d="M87.917 88.65h35.166V374.5H87.917V88.65z" clip-path="url(#stroke_q27t0cqvqr)" transform="translate(50 50)"/></g></g><g class="id_os0xapuzd"><g class="bar_0"><path fill="#88CFE3" d="M175.833 102.67H211V374.5h-35.167V102.67z" transform="translate(50 50)"/><path fill="none" stroke="gray" stroke-width="0" d="M175.833 102.67H211V374.5h-35.167V102.67z" clip-path="url(#stroke_wmrifrks5qi)" transform="translate(50 50)"/></g></g><g class="id_hk6hwqf0pk5"><g class="bar_0"><path fill="#88CFE3" d="M263.75 103.575h35.167V374.5H263.75V103.575z" transform="translate(50 50)"/><path fill="none" stroke="gray" stroke-width="0" d="M263.75 103.575h35.167V374.5H263.75V103.575z" clip-path="url(#stroke_fwf5jrqytmu)" transform="translate(50 50)"/></g></g><g class="id_0bjsfze238k"><g class="bar_0"><path fill="#88CFE3" d="M351.667 123.703h35.166V374.5h-35.166V123.703z" transform="translate(50 50)"/><path fill="none" stroke="gray" stroke-width="0" d="M351.667 123.703h35.166V374.5h-35.166V123.703z" clip-path="url(#stroke_0is56adxxkio)" transform="translate(50 50)"/></g></g><g class="id_oyj3rq5v4u"><g class="bar_0"><path fill="#E75622" d="M439.583 129.673h35.167V374.5h-35.167V129.673z" transform="translate(50 50)"/><path fill="none" stroke="gray" stroke-width="0" d="M439.583 129.673h35.167V374.5h-35.167V129.673z" clip-path="url(#stroke_s2gm5tv242s)" transform="translate(50 50)"/></g></g><g class="id_mpqgbjrqake"><g class="bar_0"><path fill="#88CFE3" d="M527.5 134.784h35.167V374.5H527.5V134.784z" transform="translate(50 50)"/><path fill="none" stroke="gray" stroke-width="0" d="M527.5 134.784h35.167V374.5H527.5V134.784z" clip-path="url(#stroke_bxxqyqibrh)" transform="translate(50 50)"/></g></g><g class="id_eiabxo6kws9"><g class="bar_0"><path fill="#88CFE3" d="M615.417 134.784h35.166V374.5h-35.166V134.784z" transform="translate(50 50)"/><path fill="none" stroke="gray" stroke-width="0" d="M615.417 134.784h35.166V374.5h-35.166V134.784z" clip-path="url(#stroke_heiv6u0mmwt)" transform="translate(50 50)"/></g></g><g class="id_pyeec5hr64o"><g class="bar_0"><path fill="#88CFE3" d="M703.333 135.688H738.5V374.5h-35.167V135.688z" transform="translate(50 50)"/><path fill="none" stroke="gray" stroke-width="0" d="M703.333 135.688H738.5V374.5h-35.167V135.688z" clip-path="url(#stroke_1hy1he4lfzkj)" transform="translate(50 50)"/></g></g><g class="id_dm1zvlbe22"><g class="bar_0"><path fill="#88CFE3" d="M791.25 144.734h35.167V374.5H791.25V144.734z" transform="translate(50 50)"/><path fill="none" stroke="gray" stroke-width="0" d="M791.25 144.734h35.167V374.5H791.25V144.734z" clip-path="url(#stroke_ioyyhql6mgh)" transform="translate(50 50)"/></g></g><g class="id_fmhfxxu8nfk"><g class="bar_0"><path fill="#88CFE3" d="M879.167 151.971h35.166V374.5h-35.166V151.971z" transform="translate(50 50)"/><path fill="none" stroke="gray" stroke-width="0" d="M879.167 151.971h35.166V374.5h-35.166V151.971z" clip-path="url(#stroke_6c4lzljqucq)" transform="translate(50 50)"/></g></g><g class="id_bvgv448di6n"><g class="bar_0"><path fill="#88CFE3" d="M967.083 155.59h35.167V374.5h-35.167V155.59z" transform="translate(50 50)"/><path fill="none" stroke="gray" stroke-width="0" d="M967.083 155.59h35.167V374.5h-35.167V155.59z" clip-path="url(#stroke_ju685lv6vqa)" transform="translate(50 50)"/></g></g><g class="id_15h5gtrlzt1"><g class="bar_0"><path fill="#E75622" d="M1055 161.017h35.167V374.5H1055V161.017z" transform="translate(50 50)"/><path fill="none" stroke="gray" stroke-width="0" d="M1055 161.017h35.167V374.5H1055V161.017z" clip-path="url(#stroke_7toqgv8u6kv)" transform="translate(50 50)"/></g></g><g class="id_xmin6sapmcr"><g class="bar_0"><path fill="#F8AD00" d="M1142.917 165.54h35.166V374.5h-35.166V165.54z" transform="translate(50 50)"/><path fill="none" stroke="gray" stroke-width="0" d="M1142.917 165.54h35.166V374.5h-35.166V165.54z" clip-path="url(#stroke_l1yokn4cew)" transform="translate(50 50)"/></g></g><g class="id_df434hm9i3"><g class="bar_0"><path fill="#88CFE3" d="M1230.833 165.902H1266V374.5h-35.167V165.902z" transform="translate(50 50)"/><path fill="none" stroke="gray" stroke-width="0" d="M1230.833 165.902H1266V374.5h-35.167V165.902z" clip-path="url(#stroke_2o05vci9pjf)" transform="translate(50 50)"/></g></g></g></g><g class="categorical-labels"><text fill="#333" class="categoricallabel_4426cew4vur" dx="-34.789" dy="12" font-size="12" letter-spacing="0" style="font-family:PTSans-Bold;font-style:normal;font-weight:400;font-stretch:normal" transform="translate(67.583 424.5)"><tspan x="0" y="0" dx="-34.789" dy="1em">*Burj Khalifa*</tspan></text><g class="categoricallabel_4426cew4vur"><text fill="#333" class="wrapped" dx="-40.531" dy="12" font-size="12" letter-spacing="0" style="font-family:PTSans-Bold;font-style:normal;font-weight:400;font-stretch:normal" transform="translate(155.5 424.5)"><tspan x="0" y="0" dx="-23.773" dy="1em">Shanghai</tspan><tspan x="8.538" y="0" dx="-23.773" dy="2.1em">Tower</tspan></text></g><g class="categoricallabel_4426cew4vur"><text fill="#333" class="wrapped" dx="-64.992" dy="12" font-size="12" letter-spacing="0" style="font-family:PTSans-Bold;font-style:normal;font-weight:400;font-stretch:normal" transform="translate(243.417 424.5)"><tspan x="0" y="0" dx="-32.844" dy="1em">Abraj Al-Bait</tspan><tspan x="2.202" y="0" dx="-32.844" dy="2.1em">Clock Tower</tspan></text></g><g class="categoricallabel_4426cew4vur"><text fill="#333" class="wrapped" dx="-59.383" dy="12" font-size="12" letter-spacing="0" style="font-family:PTSans-Bold;font-style:normal;font-weight:400;font-stretch:normal" transform="translate(331.333 424.5)"><tspan x="17.964" y="0" dx="-37.914" dy="1em">Ping An</tspan><tspan x="0" y="0" dx="-37.914" dy="2.1em">Finance Center</tspan></text></g><g class="categoricallabel_4426cew4vur"><text fill="#333" class="wrapped" dx="-46.711" dy="12" font-size="12" letter-spacing="0" style="font-family:PTSans-Bold;font-style:normal;font-weight:400;font-stretch:normal" transform="translate(419.25 424.5)"><tspan x="0" y="0" dx="-29.961" dy="1em">Lotte World</tspan><tspan x="14.724" y="0" dx="-29.961" dy="2.1em">Tower</tspan></text></g><g class="categoricallabel_4426cew4vur"><text fill="#333" class="wrapped" dx="-60.891" dy="12" font-size="12" letter-spacing="0" style="font-family:PTSans-Bold;font-style:normal;font-weight:400;font-stretch:normal" transform="translate(507.167 424.5)"><tspan x="5.298" y="0" dx="-32.336" dy="1em">One World</tspan><tspan x="0" y="0" dx="-32.336" dy="2.1em">Trade Center</tspan></text></g><g class="categoricallabel_4426cew4vur"><text fill="#333" class="wrapped" dx="-79.313" dy="12" font-size="12" letter-spacing="0" style="font-family:PTSans-Bold;font-style:normal;font-weight:400;font-stretch:normal" transform="translate(595.083 424.5)"><tspan x="0" y="0" dx="-39.883" dy="1em">Guangzhou CTF</tspan><tspan x="1.962" y="0" dx="-39.883" dy="2.1em">Finance Center</tspan></text></g><g class="categoricallabel_4426cew4vur"><text fill="#333" class="wrapped" dx="-68.258" dy="12" font-size="12" letter-spacing="0" style="font-family:PTSans-Bold;font-style:normal;font-weight:400;font-stretch:normal" transform="translate(683 424.5)"><tspan x="9.09" y="0" dx="-37.914" dy="1em">Tianjin CTF</tspan><tspan x="0" y="0" dx="-37.914" dy="2.1em">Finance Center</tspan></text></g><text fill="#333" class="categoricallabel_4426cew4vur" dx="-25.672" dy="12" font-size="12" letter-spacing="0" style="font-family:PTSans-Bold;font-style:normal;font-weight:400;font-stretch:normal" transform="translate(770.917 424.5)"><tspan x="0" y="0" dx="-25.672" dy="1em">China Zun</tspan></text><text fill="#333" class="categoricallabel_4426cew4vur" dx="-31.633" dy="12" font-size="12" letter-spacing="0" style="font-family:PTSans-Bold;font-style:normal;font-weight:400;font-stretch:normal" transform="translate(858.833 424.5)"><tspan x="0" y="0" dx="-31.633" dy="1em">*Taipei 101*</tspan></text><g class="categoricallabel_4426cew4vur"><text fill="#333" class="wrapped" dx="-83.313" dy="12" font-size="12" letter-spacing="0" style="font-family:PTSans-Bold;font-style:normal;font-weight:400;font-stretch:normal" transform="translate(946.75 424.5)"><tspan x="16.056" y="0" dx="-39.836" dy="1em">Shanghai</tspan><tspan x="0" y="0" dx="-39.836" dy="2.1em">World Financial</tspan><tspan x="23.154" y="0" dx="-39.836" dy="3.2em">Center</tspan></text></g><g class="categoricallabel_4426cew4vur"><text fill="#333" class="wrapped" dx="-79.844" dy="12" font-size="12" letter-spacing="0" style="font-family:PTSans-Bold;font-style:normal;font-weight:400;font-stretch:normal" transform="translate(1034.667 424.5)"><tspan x="0" y="0" dx="-33.391" dy="1em">International</tspan><tspan x="6.666" y="0" dx="-33.391" dy="2.1em">Commerce</tspan><tspan x="16.68" y="0" dx="-33.391" dy="3.2em">Centre</tspan></text></g><g class="categoricallabel_4426cew4vur"><text fill="#333" class="wrapped" dx="-47.953" dy="12" font-size="12" letter-spacing="0" style="font-family:PTSans-Bold;font-style:normal;font-weight:400;font-stretch:normal" transform="translate(1122.583 424.5)"><tspan x="0" y="0" dx="-31.219" dy="1em">Central Park</tspan><tspan x="15.966" y="0" dx="-31.219" dy="2.1em">Tower</tspan></text></g><text fill="#333" class="categoricallabel_4426cew4vur" dx="-35.539" dy="12" font-size="12" letter-spacing="0" style="font-family:PTSans-Bold;font-style:normal;font-weight:400;font-stretch:normal" transform="translate(1210.5 424.5)"><tspan x="0" y="0" dx="-35.539" dy="1em">Lakhta Center</tspan></text><text fill="#333" class="categoricallabel_4426cew4vur" dx="-33.75" dy="12" font-size="12" letter-spacing="0" style="font-family:PTSans-Bold;font-style:normal;font-weight:400;font-stretch:normal" transform="translate(1298.417 424.5)"><tspan x="0" y="0" dx="-33.75" dy="1em">Landmark 81</tspan></text></g><g class="data-labels"><text fill="#333" class="datalabel_zcfjxvph38" dx="-20.055" dy="-4" font-size="16" letter-spacing="0" style="font-family:PTSans-Bold;font-style:normal;font-weight:400;font-stretch:normal" transform="translate(67.583 50)">828m</text><text fill="#333" class="datalabel_zcfjxvph38" dx="-20.055" dy="-4" font-size="16" letter-spacing="0" style="font-family:PTSans-Bold;font-style:normal;font-weight:400;font-stretch:normal" transform="translate(155.5 138.65)">632m</text><text fill="#333" class="datalabel_zcfjxvph38" dx="-20.055" dy="-4" font-size="16" letter-spacing="0" style="font-family:PTSans-Bold;font-style:normal;font-weight:400;font-stretch:normal" transform="translate(243.417 152.67)">601m</text><text fill="#333" class="datalabel_zcfjxvph38" dx="-20.055" dy="-4" font-size="16" letter-spacing="0" style="font-family:PTSans-Bold;font-style:normal;font-weight:400;font-stretch:normal" transform="translate(331.333 153.575)">599m</text><text fill="#333" class="datalabel_zcfjxvph38" dx="-20.055" dy="-4" font-size="16" letter-spacing="0" style="font-family:PTSans-Bold;font-style:normal;font-weight:400;font-stretch:normal" transform="translate(419.25 173.703)">555m</text><text fill="#333" class="datalabel_zcfjxvph38" dx="-20.055" dy="-4" font-size="16" letter-spacing="0" style="font-family:PTSans-Bold;font-style:normal;font-weight:400;font-stretch:normal" transform="translate(507.167 179.673)">541m</text><text fill="#333" class="datalabel_zcfjxvph38" dx="-20.055" dy="-4" font-size="16" letter-spacing="0" style="font-family:PTSans-Bold;font-style:normal;font-weight:400;font-stretch:normal" transform="translate(595.083 184.784)">530m</text><text fill="#333" class="datalabel_zcfjxvph38" dx="-20.055" dy="-4" font-size="16" letter-spacing="0" style="font-family:PTSans-Bold;font-style:normal;font-weight:400;font-stretch:normal" transform="translate(683 184.784)">530m</text><text fill="#333" class="datalabel_zcfjxvph38" dx="-20.055" dy="-4" font-size="16" letter-spacing="0" style="font-family:PTSans-Bold;font-style:normal;font-weight:400;font-stretch:normal" transform="translate(770.917 185.688)">528m</text><text fill="#333" class="datalabel_zcfjxvph38" dx="-20.055" dy="-4" font-size="16" letter-spacing="0" style="font-family:PTSans-Bold;font-style:normal;font-weight:400;font-stretch:normal" transform="translate(858.833 194.734)">508m</text><text fill="#333" class="datalabel_zcfjxvph38" dx="-20.055" dy="-4" font-size="16" letter-spacing="0" style="font-family:PTSans-Bold;font-style:normal;font-weight:400;font-stretch:normal" transform="translate(946.75 201.971)">492m</text><text fill="#333" class="datalabel_zcfjxvph38" dx="-20.055" dy="-4" font-size="16" letter-spacing="0" style="font-family:PTSans-Bold;font-style:normal;font-weight:400;font-stretch:normal" transform="translate(1034.667 205.59)">484m</text><text fill="#333" class="datalabel_zcfjxvph38" dx="-20.055" dy="-4" font-size="16" letter-spacing="0" style="font-family:PTSans-Bold;font-style:normal;font-weight:400;font-stretch:normal" transform="translate(1122.583 211.017)">472m</text><text fill="#333" class="datalabel_zcfjxvph38" dx="-20.055" dy="-4" font-size="16" letter-spacing="0" style="font-family:PTSans-Bold;font-style:normal;font-weight:400;font-stretch:normal" transform="translate(1210.5 215.54)">462m</text><text fill="#333" class="datalabel_zcfjxvph38" dx="-20.055" dy="-4" font-size="16" letter-spacing="0" style="font-family:PTSans-Bold;font-style:normal;font-weight:400;font-stretch:normal" transform="translate(1298.417 215.902)">461m</text></g></g></g></g></g></svg>