<svg width="1152" height="894" xmlns="http://www.w3.org/2000/svg" xmlns:xlink="http://www.w3.org/1999/xlink"><rect class="background" fill="none" pointer-events="all" width="1152" height="894" cursor="pointer"/><g class="x-axis" transform="translate(0,30)" fill="none" font-size="10" font-family="sans-serif" text-anchor="middle"><g class="tick" opacity="1" transform="translate(100.5,0)"><line stroke="currentColor" y2="-6"/><text fill="currentColor" y="-9" dy="0em">0k</text></g><g class="tick" opacity="1" transform="translate(147.7460174560547, 0)"><line stroke="currentColor" y2="-6"/><text fill="currentColor" y="-9" dy="0em">20k</text></g><g class="tick" opacity="1" transform="translate(194.99205017089844, 0)"><line stroke="currentColor" y2="-6"/><text fill="currentColor" y="-9" dy="0em">40k</text></g><g class="tick" opacity="1" transform="translate(242.23806762695312, 0)"><line stroke="currentColor" y2="-6"/><text fill="currentColor" y="-9" dy="0em">60k</text></g><g class="tick" opacity="1" transform="translate(289.4841003417969, 0)"><line stroke="currentColor" y2="-6"/><text fill="currentColor" y="-9" dy="0em">80k</text></g><g class="tick" opacity="1" transform="translate(336.7301330566406, 0)"><line stroke="currentColor" y2="-6"/><text fill="currentColor" y="-9" dy="0em">100k</text></g><g class="tick" opacity="1" transform="translate(383.97613525390625, 0)"><line stroke="currentColor" y2="-6"/><text fill="currentColor" y="-9" dy="0em">120k</text></g><g class="tick" opacity="1" transform="translate(431.22216796875, 0)"><line stroke="currentColor" y2="-6"/><text fill="currentColor" y="-9" dy="0em">140k</text></g><g class="tick" opacity="1" transform="translate(478.46820068359375, 0)"><line stroke="currentColor" y2="-6"/><text fill="currentColor" y="-9" dy="0em">160k</text></g><g class="tick" opacity="1" transform="translate(525.7142333984375, 0)"><line stroke="currentColor" y2="-6"/><text fill="currentColor" y="-9" dy="0em">180k</text></g><g class="tick" opacity="1" transform="translate(572.9602661132812, 0)"><line stroke="currentColor" y2="-6"/><text fill="currentColor" y="-9" dy="0em">200k</text></g><g class="tick" opacity="1" transform="translate(620.2062377929688, 0)"><line stroke="currentColor" y2="-6"/><text fill="currentColor" y="-9" dy="0em">220k</text></g><g class="tick" opacity="1" transform="translate(667.4522705078125, 0)"><line stroke="currentColor" y2="-6"/><text fill="currentColor" y="-9" dy="0em">240k</text></g><g class="tick" opacity="1" transform="translate(714.6983032226562, 0)"><line stroke="currentColor" y2="-6"/><text fill="currentColor" y="-9" dy="0em">260k</text></g><g class="tick" opacity="1" transform="translate(761.9443359375, 0)"><line stroke="currentColor" y2="-6"/><text fill="currentColor" y="-9" dy="0em">280k</text></g><g class="tick" opacity="1" transform="translate(809.1903686523438, 0)"><line stroke="currentColor" y2="-6"/><text fill="currentColor" y="-9" dy="0em">300k</text></g><g class="tick" opacity="1" transform="translate(856.4364013671875, 0)"><line stroke="currentColor" y2="-6"/><text fill="currentColor" y="-9" dy="0em">320k</text></g><g class="tick" opacity="1" transform="translate(903.682373046875, 0)"><line stroke="currentColor" y2="-6"/><text fill="currentColor" y="-9" dy="0em">340k</text></g><g class="tick" opacity="1" transform="translate(950.9284057617188, 0)"><line stroke="currentColor" y2="-6"/><text fill="currentColor" y="-9" dy="0em">360k</text></g><g class="tick" opacity="1" transform="translate(998.1744384765625, 0)"><line stroke="currentColor" y2="-6"/><text fill="currentColor" y="-9" dy="0em">380k</text></g><g class="tick" opacity="1" transform="translate(1045.4205322265625, 0)"><line stroke="currentColor" y2="-6"/><text fill="currentColor" y="-9" dy="0em">400k</text></g><g class="tick" opacity="1" transform="translate(1092.66650390625, 0)"><line stroke="currentColor" y2="-6"/><text fill="currentColor" y="-9" dy="0em">420k</text></g></g><g class="enter" transform="translate(0,33)" text-anchor="end" fill-opacity="1" style="font: 10px sans-serif;"><g cursor="pointer" transform="translate(0,0)"><text x="94" y="12" dy=".35em">vis</text><rect x="100" width="1022" height="24" fill="steelblue" fill-opacity="1"/></g><g cursor="pointer" transform="translate(0, 27)"><text x="94" y="12" dy=".35em">util</text><rect x="100" width="390.15057705331816" height="24" fill="steelblue" fill-opacity="1"/></g><g cursor="pointer" transform="translate(0, 54)"><text x="94" y="12" dy=".35em">animate</text><rect x="100" width="236.2868138751678" height="24" fill="steelblue" fill-opacity="1"/></g><g cursor="pointer" transform="translate(0, 81)"><text x="94" y="12" dy=".35em">query</text><rect x="100" width="211.94802475099914" height="24" fill="steelblue" fill-opacity="1"/></g><g cursor="pointer" transform="translate(0, 108)"><text x="94" y="12" dy=".35em">analytics</text><rect x="100" width="115.0818645999228" height="24" fill="steelblue" fill-opacity="1"/></g><g cursor="pointer" transform="translate(0, 135)"><text x="94" y="12" dy=".35em">scale</text><rect x="100" width="73.92585332929599" height="24" fill="steelblue" fill-opacity="1"/></g><g cursor="pointer" transform="translate(0, 162)"><text x="94" y="12" dy=".35em">data</text><rect x="100" width="71.5399291309644" height="24" fill="steelblue" fill-opacity="1"/></g><g cursor="pointer" transform="translate(0, 189)"><text x="94" y="12" dy=".35em">physics</text><rect x="100" width="70.71312371570099" height="24" fill="steelblue" fill-opacity="1"/></g><g cursor="pointer" transform="translate(0, 216)"><text x="94" y="12" dy=".35em">display</text><rect x="100" width="57.29525297656883" height="24" fill="steelblue" fill-opacity="1"/></g><g cursor="pointer" transform="translate(0, 243)"><text x="94" y="12" dy=".35em">flex</text><rect x="100" width="9.723231683497872" height="24" fill="steelblue" fill-opacity="1"/></g></g><g class="y-axis" transform="translate(100.5,0)"><line stroke="currentColor" y1="30" y2="894"/></g></svg>