<svg version="1.1" xmlns="http://www.w3.org/2000/svg" xmlns:xlink="http://www.w3.org/1999/xlink" width="2900" height="2450"><defs/><g fill="none" fill-rule="nonzero" stroke="none" stroke-width="none" stroke-linecap="butt" stroke-linejoin="miter" stroke-miterlimit="10" stroke-dasharray="" stroke-dashoffset="0" font-family="sans-serif" font-weight="normal" font-size="11px" text-anchor="start" style="mix-blend-mode: normal"><g fill="#ffffff" stroke="none" stroke-width="1"/><g><rect x="0" y="0" width="2900" height="2450" fill="#ffffff" stroke="none" stroke-width="1"/><g><g><g><g><line x1="359.25" y1="466.39078" x2="369.25" y2="466.39078" fill="none" stroke="#1fc3aa" stroke-width="1.5"/><circle cx="359.25" cy="466.39078" r="0.25" data-paper-data="{&quot;type&quot;:&quot;Ellipse&quot;}" fill="#bbbbbb" stroke="none" stroke-width="1"/><circle cx="369.25" cy="466.39078" r="0.25" data-paper-data="{&quot;type&quot;:&quot;Ellipse&quot;}" fill="#bbbbbb" stroke="none" stroke-width="1"/></g><g><line x1="359.25" y1="497.44903" x2="369.25" y2="497.44903" fill="none" stroke="#1fc3aa" stroke-width="1.5"/><circle cx="359.25" cy="497.44903" r="0.25" data-paper-data="{&quot;type&quot;:&quot;Ellipse&quot;}" fill="#bbbbbb" stroke="none" stroke-width="1"/><circle cx="369.25" cy="497.44903" r="0.25" data-paper-data="{&quot;type&quot;:&quot;Ellipse&quot;}" fill="#bbbbbb" stroke="none" stroke-width="1"/></g><g><line x1="364.25" y1="466.39078" x2="364.25" y2="497.44903" fill="none" stroke="#1fc3aa" stroke-width="1.5"/><circle cx="364.25" cy="466.39078" r="0.25" data-paper-data="{&quot;type&quot;:&quot;Ellipse&quot;}" fill="#bbbbbb" stroke="none" stroke-width="1"/><circle cx="364.25" cy="497.44903" r="0.25" data-paper-data="{&quot;type&quot;:&quot;Ellipse&quot;}" fill="#bbbbbb" stroke="none" stroke-width="1"/></g><rect x="356.25" y="470.82767" width="16" height="22.18447" fill="#1fc3aa" stroke="#ffffff" stroke-width="1"/><g><line x1="356.25" y1="479.70146" x2="372.25" y2="479.70146" fill="none" stroke="#ffffff" stroke-width="1.5"/><circle cx="356.25" cy="479.70146" r="0.25" data-paper-data="{&quot;type&quot;:&quot;Ellipse&quot;}" fill="#bbbbbb" stroke="none" stroke-width="1"/><circle cx="372.25" cy="479.70146" r="0.25" data-paper-data="{&quot;type&quot;:&quot;Ellipse&quot;}" fill="#bbbbbb" stroke="none" stroke-width="1"/></g></g><g><g><line x1="390.75" y1="488.57524" x2="400.75" y2="488.57524" fill="none" stroke="#8624f5" stroke-width="1.5"/><circle cx="390.75" cy="488.57524" r="0.25" data-paper-data="{&quot;type&quot;:&quot;Ellipse&quot;}" fill="#bbbbbb" stroke="none" stroke-width="1"/><circle cx="400.75" cy="488.57524" r="0.25" data-paper-data="{&quot;type&quot;:&quot;Ellipse&quot;}" fill="#bbbbbb" stroke="none" stroke-width="1"/></g><g><line x1="390.75" y1="512.97816" x2="400.75" y2="512.97816" fill="none" stroke="#8624f5" stroke-width="1.5"/><circle cx="390.75" cy="512.97816" r="0.25" data-paper-data="{&quot;type&quot;:&quot;Ellipse&quot;}" fill="#bbbbbb" stroke="none" stroke-width="1"/><circle cx="400.75" cy="512.97816" r="0.25" data-paper-data="{&quot;type&quot;:&quot;Ellipse&quot;}" fill="#bbbbbb" stroke="none" stroke-width="1"/></g><g><line x1="395.75" y1="488.57524" x2="395.75" y2="512.97816" fill="none" stroke="#8624f5" stroke-width="1.5"/><circle cx="395.75" cy="488.57524" r="0.25" data-paper-data="{&quot;type&quot;:&quot;Ellipse&quot;}" fill="#bbbbbb" stroke="none" stroke-width="1"/><circle cx="395.75" cy="512.97816" r="0.25" data-paper-data="{&quot;type&quot;:&quot;Ellipse&quot;}" fill="#bbbbbb" stroke="none" stroke-width="1"/></g><rect x="387.75" y="493.01214" width="16" height="17.74757" fill="#8624f5" stroke="#ffffff" stroke-width="1"/><g><line x1="387.75" y1="504.10437" x2="403.75" y2="504.10437" fill="none" stroke="#ffffff" stroke-width="1.5"/><circle cx="387.75" cy="504.10437" r="0.25" data-paper-data="{&quot;type&quot;:&quot;Ellipse&quot;}" fill="#bbbbbb" stroke="none" stroke-width="1"/><circle cx="403.75" cy="504.10437" r="0.25" data-paper-data="{&quot;type&quot;:&quot;Ellipse&quot;}" fill="#bbbbbb" stroke="none" stroke-width="1"/></g></g></g><g><g><g><line x1="427.25" y1="426.45874" x2="437.25" y2="426.45874" fill="none" stroke="#1fc3aa" stroke-width="1.5"/><circle cx="427.25" cy="426.45874" r="0.25" data-paper-data="{&quot;type&quot;:&quot;Ellipse&quot;}" fill="#bbbbbb" stroke="none" stroke-width="1"/><circle cx="437.25" cy="426.45874" r="0.25" data-paper-data="{&quot;type&quot;:&quot;Ellipse&quot;}" fill="#bbbbbb" stroke="none" stroke-width="1"/></g><g><line x1="427.25" y1="475.26456" x2="437.25" y2="475.26456" fill="none" stroke="#1fc3aa" stroke-width="1.5"/><circle cx="427.25" cy="475.26456" r="0.25" data-paper-data="{&quot;type&quot;:&quot;Ellipse&quot;}" fill="#bbbbbb" stroke="none" stroke-width="1"/><circle cx="437.25" cy="475.26456" r="0.25" data-paper-data="{&quot;type&quot;:&quot;Ellipse&quot;}" fill="#bbbbbb" stroke="none" stroke-width="1"/></g><g><line x1="432.25" y1="426.45874" x2="432.25" y2="475.26456" fill="none" stroke="#1fc3aa" stroke-width="1.5"/><circle cx="432.25" cy="426.45874" r="0.25" data-paper-data="{&quot;type&quot;:&quot;Ellipse&quot;}" fill="#bbbbbb" stroke="none" stroke-width="1"/><circle cx="432.25" cy="475.26456" r="0.25" data-paper-data="{&quot;type&quot;:&quot;Ellipse&quot;}" fill="#bbbbbb" stroke="none" stroke-width="1"/></g><rect x="424.25" y="446.42476" width="16" height="24.40291" fill="#1fc3aa" stroke="#ffffff" stroke-width="1"/><g><line x1="424.25" y1="450.86165" x2="440.25" y2="450.86165" fill="none" stroke="#ffffff" stroke-width="1.5"/><circle cx="424.25" cy="450.86165" r="0.25" data-paper-data="{&quot;type&quot;:&quot;Ellipse&quot;}" fill="#bbbbbb" stroke="none" stroke-width="1"/><circle cx="440.25" cy="450.86165" r="0.25" data-paper-data="{&quot;type&quot;:&quot;Ellipse&quot;}" fill="#bbbbbb" stroke="none" stroke-width="1"/></g></g><g><g><line x1="458.75" y1="426.45874" x2="468.75" y2="426.45874" fill="none" stroke="#8624f5" stroke-width="1.5"/><circle cx="458.75" cy="426.45874" r="0.25" data-paper-data="{&quot;type&quot;:&quot;Ellipse&quot;}" fill="#bbbbbb" stroke="none" stroke-width="1"/><circle cx="468.75" cy="426.45874" r="0.25" data-paper-data="{&quot;type&quot;:&quot;Ellipse&quot;}" fill="#bbbbbb" stroke="none" stroke-width="1"/></g><g><line x1="458.75" y1="470.82767" x2="468.75" y2="470.82767" fill="none" stroke="#8624f5" stroke-width="1.5"/><circle cx="458.75" cy="470.82767" r="0.25" data-paper-data="{&quot;type&quot;:&quot;Ellipse&quot;}" fill="#bbbbbb" stroke="none" stroke-width="1"/><circle cx="468.75" cy="470.82767" r="0.25" data-paper-data="{&quot;type&quot;:&quot;Ellipse&quot;}" fill="#bbbbbb" stroke="none" stroke-width="1"/></g><g><line x1="463.75" y1="426.45874" x2="463.75" y2="470.82767" fill="none" stroke="#8624f5" stroke-width="1.5"/><circle cx="463.75" cy="426.45874" r="0.25" data-paper-data="{&quot;type&quot;:&quot;Ellipse&quot;}" fill="#bbbbbb" stroke="none" stroke-width="1"/><circle cx="463.75" cy="470.82767" r="0.25" data-paper-data="{&quot;type&quot;:&quot;Ellipse&quot;}" fill="#bbbbbb" stroke="none" stroke-width="1"/></g><rect x="455.75" y="448.6432" width="16" height="17.74757" fill="#8624f5" stroke="#ffffff" stroke-width="1"/><g><line x1="455.75" y1="461.95388" x2="471.75" y2="461.95388" fill="none" stroke="#ffffff" stroke-width="1.5"/><circle cx="455.75" cy="461.95388" r="0.25" data-paper-data="{&quot;type&quot;:&quot;Ellipse&quot;}" fill="#bbbbbb" stroke="none" stroke-width="1"/><circle cx="471.75" cy="461.95388" r="0.25" data-paper-data="{&quot;type&quot;:&quot;Ellipse&quot;}" fill="#bbbbbb" stroke="none" stroke-width="1"/></g></g></g><g><g><g><line x1="495.25" y1="364.34223" x2="505.25" y2="364.34223" fill="none" stroke="#1fc3aa" stroke-width="1.5"/><circle cx="495.25" cy="364.34223" r="0.25" data-paper-data="{&quot;type&quot;:&quot;Ellipse&quot;}" fill="#bbbbbb" stroke="none" stroke-width="1"/><circle cx="505.25" cy="364.34223" r="0.25" data-paper-data="{&quot;type&quot;:&quot;Ellipse&quot;}" fill="#bbbbbb" stroke="none" stroke-width="1"/></g><g><line x1="495.25" y1="422.02184" x2="505.25" y2="422.02184" fill="none" stroke="#1fc3aa" stroke-width="1.5"/><circle cx="495.25" cy="422.02184" r="0.25" data-paper-data="{&quot;type&quot;:&quot;Ellipse&quot;}" fill="#bbbbbb" stroke="none" stroke-width="1"/><circle cx="505.25" cy="422.02184" r="0.25" data-paper-data="{&quot;type&quot;:&quot;Ellipse&quot;}" fill="#bbbbbb" stroke="none" stroke-width="1"/></g><g><line x1="500.25" y1="364.34223" x2="500.25" y2="422.02184" fill="none" stroke="#1fc3aa" stroke-width="1.5"/><circle cx="500.25" cy="364.34223" r="0.25" data-paper-data="{&quot;type&quot;:&quot;Ellipse&quot;}" fill="#bbbbbb" stroke="none" stroke-width="1"/><circle cx="500.25" cy="422.02184" r="0.25" data-paper-data="{&quot;type&quot;:&quot;Ellipse&quot;}" fill="#bbbbbb" stroke="none" stroke-width="1"/></g><rect x="492.25" y="373.21602" width="16" height="31.05825" fill="#1fc3aa" stroke="#ffffff" stroke-width="1"/><g><line x1="492.25" y1="386.5267" x2="508.25" y2="386.5267" fill="none" stroke="#ffffff" stroke-width="1.5"/><circle cx="492.25" cy="386.5267" r="0.25" data-paper-data="{&quot;type&quot;:&quot;Ellipse&quot;}" fill="#bbbbbb" stroke="none" stroke-width="1"/><circle cx="508.25" cy="386.5267" r="0.25" data-paper-data="{&quot;type&quot;:&quot;Ellipse&quot;}" fill="#bbbbbb" stroke="none" stroke-width="1"/></g></g><g><g><line x1="526.75" y1="368.77913" x2="536.75" y2="368.77913" fill="none" stroke="#8624f5" stroke-width="1.5"/><circle cx="526.75" cy="368.77913" r="0.25" data-paper-data="{&quot;type&quot;:&quot;Ellipse&quot;}" fill="#bbbbbb" stroke="none" stroke-width="1"/><circle cx="536.75" cy="368.77913" r="0.25" data-paper-data="{&quot;type&quot;:&quot;Ellipse&quot;}" fill="#bbbbbb" stroke="none" stroke-width="1"/></g><g><line x1="526.75" y1="426.45874" x2="536.75" y2="426.45874" fill="none" stroke="#8624f5" stroke-width="1.5"/><circle cx="526.75" cy="426.45874" r="0.25" data-paper-data="{&quot;type&quot;:&quot;Ellipse&quot;}" fill="#bbbbbb" stroke="none" stroke-width="1"/><circle cx="536.75" cy="426.45874" r="0.25" data-paper-data="{&quot;type&quot;:&quot;Ellipse&quot;}" fill="#bbbbbb" stroke="none" stroke-width="1"/></g><g><line x1="531.75" y1="368.77913" x2="531.75" y2="426.45874" fill="none" stroke="#8624f5" stroke-width="1.5"/><circle cx="531.75" cy="368.77913" r="0.25" data-paper-data="{&quot;type&quot;:&quot;Ellipse&quot;}" fill="#bbbbbb" stroke="none" stroke-width="1"/><circle cx="531.75" cy="426.45874" r="0.25" data-paper-data="{&quot;type&quot;:&quot;Ellipse&quot;}" fill="#bbbbbb" stroke="none" stroke-width="1"/></g><rect x="523.75" y="399.83738" width="16" height="22.18447" fill="#8624f5" stroke="#ffffff" stroke-width="1"/><g><line x1="523.75" y1="413.14806" x2="539.75" y2="413.14806" fill="none" stroke="#ffffff" stroke-width="1.5"/><circle cx="523.75" cy="413.14806" r="0.25" data-paper-data="{&quot;type&quot;:&quot;Ellipse&quot;}" fill="#bbbbbb" stroke="none" stroke-width="1"/><circle cx="539.75" cy="413.14806" r="0.25" data-paper-data="{&quot;type&quot;:&quot;Ellipse&quot;}" fill="#bbbbbb" stroke="none" stroke-width="1"/></g></g></g><g><g><g><line x1="563.25" y1="271.16748" x2="573.25" y2="271.16748" fill="none" stroke="#1fc3aa" stroke-width="1.5"/><circle cx="563.25" cy="271.16748" r="0.25" data-paper-data="{&quot;type&quot;:&quot;Ellipse&quot;}" fill="#bbbbbb" stroke="none" stroke-width="1"/><circle cx="573.25" cy="271.16748" r="0.25" data-paper-data="{&quot;type&quot;:&quot;Ellipse&quot;}" fill="#bbbbbb" stroke="none" stroke-width="1"/></g><g><line x1="563.25" y1="342.15777" x2="573.25" y2="342.15777" fill="none" stroke="#1fc3aa" stroke-width="1.5"/><circle cx="563.25" cy="342.15777" r="0.25" data-paper-data="{&quot;type&quot;:&quot;Ellipse&quot;}" fill="#bbbbbb" stroke="none" stroke-width="1"/><circle cx="573.25" cy="342.15777" r="0.25" data-paper-data="{&quot;type&quot;:&quot;Ellipse&quot;}" fill="#bbbbbb" stroke="none" stroke-width="1"/></g><g><line x1="568.25" y1="271.16748" x2="568.25" y2="342.15777" fill="none" stroke="#1fc3aa" stroke-width="1.5"/><circle cx="568.25" cy="271.16748" r="0.25" data-paper-data="{&quot;type&quot;:&quot;Ellipse&quot;}" fill="#bbbbbb" stroke="none" stroke-width="1"/><circle cx="568.25" cy="342.15777" r="0.25" data-paper-data="{&quot;type&quot;:&quot;Ellipse&quot;}" fill="#bbbbbb" stroke="none" stroke-width="1"/></g><rect x="560.25" y="280.04126" width="16" height="22.18447" fill="#1fc3aa" stroke="#ffffff" stroke-width="1"/><g><line x1="560.25" y1="293.35194" x2="576.25" y2="293.35194" fill="none" stroke="#ffffff" stroke-width="1.5"/><circle cx="560.25" cy="293.35194" r="0.25" data-paper-data="{&quot;type&quot;:&quot;Ellipse&quot;}" fill="#bbbbbb" stroke="none" stroke-width="1"/><circle cx="576.25" cy="293.35194" r="0.25" data-paper-data="{&quot;type&quot;:&quot;Ellipse&quot;}" fill="#bbbbbb" stroke="none" stroke-width="1"/></g></g><g><g><line x1="594.75" y1="306.66262" x2="604.75" y2="306.66262" fill="none" stroke="#8624f5" stroke-width="1.5"/><circle cx="594.75" cy="306.66262" r="0.25" data-paper-data="{&quot;type&quot;:&quot;Ellipse&quot;}" fill="#bbbbbb" stroke="none" stroke-width="1"/><circle cx="604.75" cy="306.66262" r="0.25" data-paper-data="{&quot;type&quot;:&quot;Ellipse&quot;}" fill="#bbbbbb" stroke="none" stroke-width="1"/></g><g><line x1="594.75" y1="368.77913" x2="604.75" y2="368.77913" fill="none" stroke="#8624f5" stroke-width="1.5"/><circle cx="594.75" cy="368.77913" r="0.25" data-paper-data="{&quot;type&quot;:&quot;Ellipse&quot;}" fill="#bbbbbb" stroke="none" stroke-width="1"/><circle cx="604.75" cy="368.77913" r="0.25" data-paper-data="{&quot;type&quot;:&quot;Ellipse&quot;}" fill="#bbbbbb" stroke="none" stroke-width="1"/></g><g><line x1="599.75" y1="306.66262" x2="599.75" y2="368.77913" fill="none" stroke="#8624f5" stroke-width="1.5"/><circle cx="599.75" cy="306.66262" r="0.25" data-paper-data="{&quot;type&quot;:&quot;Ellipse&quot;}" fill="#bbbbbb" stroke="none" stroke-width="1"/><circle cx="599.75" cy="368.77913" r="0.25" data-paper-data="{&quot;type&quot;:&quot;Ellipse&quot;}" fill="#bbbbbb" stroke="none" stroke-width="1"/></g><rect x="591.75" y="315.53641" width="16" height="39.93204" fill="#8624f5" stroke="#ffffff" stroke-width="1"/><g><line x1="591.75" y1="342.15777" x2="607.75" y2="342.15777" fill="none" stroke="#ffffff" stroke-width="1.5"/><circle cx="591.75" cy="342.15777" r="0.25" data-paper-data="{&quot;type&quot;:&quot;Ellipse&quot;}" fill="#bbbbbb" stroke="none" stroke-width="1"/><circle cx="607.75" cy="342.15777" r="0.25" data-paper-data="{&quot;type&quot;:&quot;Ellipse&quot;}" fill="#bbbbbb" stroke="none" stroke-width="1"/></g></g></g><g><g><g><line x1="631.25" y1="124.75" x2="641.25" y2="124.75" fill="none" stroke="#1fc3aa" stroke-width="1.5"/><circle cx="631.25" cy="124.75" r="0.25" data-paper-data="{&quot;type&quot;:&quot;Ellipse&quot;}" fill="#bbbbbb" stroke="none" stroke-width="1"/><circle cx="641.25" cy="124.75" r="0.25" data-paper-data="{&quot;type&quot;:&quot;Ellipse&quot;}" fill="#bbbbbb" stroke="none" stroke-width="1"/></g><g><line x1="631.25" y1="204.61408" x2="641.25" y2="204.61408" fill="none" stroke="#1fc3aa" stroke-width="1.5"/><circle cx="631.25" cy="204.61408" r="0.25" data-paper-data="{&quot;type&quot;:&quot;Ellipse&quot;}" fill="#bbbbbb" stroke="none" stroke-width="1"/><circle cx="641.25" cy="204.61408" r="0.25" data-paper-data="{&quot;type&quot;:&quot;Ellipse&quot;}" fill="#bbbbbb" stroke="none" stroke-width="1"/></g><g><line x1="636.25" y1="124.75" x2="636.25" y2="204.61408" fill="none" stroke="#1fc3aa" stroke-width="1.5"/><circle cx="636.25" cy="124.75" r="0.25" data-paper-data="{&quot;type&quot;:&quot;Ellipse&quot;}" fill="#bbbbbb" stroke="none" stroke-width="1"/><circle cx="636.25" cy="204.61408" r="0.25" data-paper-data="{&quot;type&quot;:&quot;Ellipse&quot;}" fill="#bbbbbb" stroke="none" stroke-width="1"/></g><rect x="628.25" y="151.37136" width="16" height="22.18447" fill="#1fc3aa" stroke="#ffffff" stroke-width="1"/><g><line x1="628.25" y1="164.68204" x2="644.25" y2="164.68204" fill="none" stroke="#ffffff" stroke-width="1.5"/><circle cx="628.25" cy="164.68204" r="0.25" data-paper-data="{&quot;type&quot;:&quot;Ellipse&quot;}" fill="#bbbbbb" stroke="none" stroke-width="1"/><circle cx="644.25" cy="164.68204" r="0.25" data-paper-data="{&quot;type&quot;:&quot;Ellipse&quot;}" fill="#bbbbbb" stroke="none" stroke-width="1"/></g></g><g><g><line x1="662.75" y1="160.24515" x2="672.75" y2="160.24515" fill="none" stroke="#8624f5" stroke-width="1.5"/><circle cx="662.75" cy="160.24515" r="0.25" data-paper-data="{&quot;type&quot;:&quot;Ellipse&quot;}" fill="#bbbbbb" stroke="none" stroke-width="1"/><circle cx="672.75" cy="160.24515" r="0.25" data-paper-data="{&quot;type&quot;:&quot;Ellipse&quot;}" fill="#bbbbbb" stroke="none" stroke-width="1"/></g><g><line x1="662.75" y1="271.16748" x2="672.75" y2="271.16748" fill="none" stroke="#8624f5" stroke-width="1.5"/><circle cx="662.75" cy="271.16748" r="0.25" data-paper-data="{&quot;type&quot;:&quot;Ellipse&quot;}" fill="#bbbbbb" stroke="none" stroke-width="1"/><circle cx="672.75" cy="271.16748" r="0.25" data-paper-data="{&quot;type&quot;:&quot;Ellipse&quot;}" fill="#bbbbbb" stroke="none" stroke-width="1"/></g><g><line x1="667.75" y1="160.24515" x2="667.75" y2="271.16748" fill="none" stroke="#8624f5" stroke-width="1.5"/><circle cx="667.75" cy="160.24515" r="0.25" data-paper-data="{&quot;type&quot;:&quot;Ellipse&quot;}" fill="#bbbbbb" stroke="none" stroke-width="1"/><circle cx="667.75" cy="271.16748" r="0.25" data-paper-data="{&quot;type&quot;:&quot;Ellipse&quot;}" fill="#bbbbbb" stroke="none" stroke-width="1"/></g><rect x="659.75" y="200.17718" width="16" height="17.74757" fill="#8624f5" stroke="#ffffff" stroke-width="1"/><g><line x1="659.75" y1="213.48786" x2="675.75" y2="213.48786" fill="none" stroke="#ffffff" stroke-width="1.5"/><circle cx="659.75" cy="213.48786" r="0.25" data-paper-data="{&quot;type&quot;:&quot;Ellipse&quot;}" fill="#bbbbbb" stroke="none" stroke-width="1"/><circle cx="675.75" cy="213.48786" r="0.25" data-paper-data="{&quot;type&quot;:&quot;Ellipse&quot;}" fill="#bbbbbb" stroke="none" stroke-width="1"/></g></g></g></g></g><g transform="translate(716.25,136.75)"><g class="color-scale-palette" transform="translate(0,0)"><rect height="14" width="14" fill="#1fc3aa" style="stroke-width: 1px; stroke: rgb(231, 231, 231);"/><text dy="0.3em" x="18" y="7" title="Male" fill="#444" style="font-size: 10px;">Male</text></g><g class="color-scale-palette" transform="translate(0,26)"><rect height="14" width="14" fill="#8624f5" style="stroke-width: 1px; stroke: rgb(231, 231, 231);"/><text dy="0.3em" x="18" y="7" title="Female" fill="#444" style="font-size: 10px;">Female</text></g><text class="color-scale-label" y="-14" dy="0.3em" fill="#444" style="font-size: 10px;">Gender</text></g><g class="domain" transform="translate(334.25,124.75)" fill="none" font-size="10" font-family="sans-serif" text-anchor="end" style="pointer-events: none;"><path class="domain" stroke="#444" d="M-6,0.5H0.5V457.5H-6"/><g class="tick" opacity="1" transform="translate(0,13.310679611650471)"><line stroke="#444" x2="-6" y1="0.5" y2="0.5"/><text fill="#444" x="-9" y="0.5" dy="0.32em">100,000</text></g><g class="tick" opacity="1" transform="translate(0,57.67961165048547)"><line stroke="#444" x2="-6" y1="0.5" y2="0.5"/><text fill="#444" x="-9" y="0.5" dy="0.32em">90,000</text></g><g class="tick" opacity="1" transform="translate(0,102.04854368932041)"><line stroke="#444" x2="-6" y1="0.5" y2="0.5"/><text fill="#444" x="-9" y="0.5" dy="0.32em">80,000</text></g><g class="tick" opacity="1" transform="translate(0,146.41747572815535)"><line stroke="#444" x2="-6" y1="0.5" y2="0.5"/><text fill="#444" x="-9" y="0.5" dy="0.32em">70,000</text></g><g class="tick" opacity="1" transform="translate(0,190.7864077669903)"><line stroke="#444" x2="-6" y1="0.5" y2="0.5"/><text fill="#444" x="-9" y="0.5" dy="0.32em">60,000</text></g><g class="tick" opacity="1" transform="translate(0,235.15533980582524)"><line stroke="#444" x2="-6" y1="0.5" y2="0.5"/><text fill="#444" x="-9" y="0.5" dy="0.32em">50,000</text></g><g class="tick" opacity="1" transform="translate(0,279.52427184466023)"><line stroke="#444" x2="-6" y1="0.5" y2="0.5"/><text fill="#444" x="-9" y="0.5" dy="0.32em">40,000</text></g><g class="tick" opacity="1" transform="translate(0,323.8932038834952)"><line stroke="#444" x2="-6" y1="0.5" y2="0.5"/><text fill="#444" x="-9" y="0.5" dy="0.32em">30,000</text></g><g class="tick" opacity="1" transform="translate(0,368.2621359223301)"><line stroke="#444" x2="-6" y1="0.5" y2="0.5"/><text fill="#444" x="-9" y="0.5" dy="0.32em">20,000</text></g><g class="tick" opacity="1" transform="translate(0,412.63106796116506)"><line stroke="#444" x2="-6" y1="0.5" y2="0.5"/><text fill="#444" x="-9" y="0.5" dy="0.32em">10,000</text></g><g class="tick" opacity="1" transform="translate(0,457)"><line stroke="#444" x2="-6" y1="0.5" y2="0.5"/><text fill="#444" x="-9" y="0.5" dy="0.32em">0</text></g><g class="axis-label" transform="rotate(90) translate(455,5)"><text class="attribute" dy="0.3em" style="text-anchor: end;" fill="#444">Max</text></g></g><g class="domain" transform="translate(334.25,124.75)" fill="none" font-size="10" font-family="sans-serif" text-anchor="end" style="pointer-events: none;"><path class="domain" stroke="#444" d="M-6,0.5H0.5V457.5H-6"/><g class="tick" opacity="1" transform="translate(0,13.310679611650471)"><line stroke="#444" x2="-6" y1="0.5" y2="0.5"/><text fill="#444" x="-9" y="0.5" dy="0.32em">100,000</text></g><g class="tick" opacity="1" transform="translate(0,57.67961165048547)"><line stroke="#444" x2="-6" y1="0.5" y2="0.5"/><text fill="#444" x="-9" y="0.5" dy="0.32em">90,000</text></g><g class="tick" opacity="1" transform="translate(0,102.04854368932041)"><line stroke="#444" x2="-6" y1="0.5" y2="0.5"/><text fill="#444" x="-9" y="0.5" dy="0.32em">80,000</text></g><g class="tick" opacity="1" transform="translate(0,146.41747572815535)"><line stroke="#444" x2="-6" y1="0.5" y2="0.5"/><text fill="#444" x="-9" y="0.5" dy="0.32em">70,000</text></g><g class="tick" opacity="1" transform="translate(0,190.7864077669903)"><line stroke="#444" x2="-6" y1="0.5" y2="0.5"/><text fill="#444" x="-9" y="0.5" dy="0.32em">60,000</text></g><g class="tick" opacity="1" transform="translate(0,235.15533980582524)"><line stroke="#444" x2="-6" y1="0.5" y2="0.5"/><text fill="#444" x="-9" y="0.5" dy="0.32em">50,000</text></g><g class="tick" opacity="1" transform="translate(0,279.52427184466023)"><line stroke="#444" x2="-6" y1="0.5" y2="0.5"/><text fill="#444" x="-9" y="0.5" dy="0.32em">40,000</text></g><g class="tick" opacity="1" transform="translate(0,323.8932038834952)"><line stroke="#444" x2="-6" y1="0.5" y2="0.5"/><text fill="#444" x="-9" y="0.5" dy="0.32em">30,000</text></g><g class="tick" opacity="1" transform="translate(0,368.2621359223301)"><line stroke="#444" x2="-6" y1="0.5" y2="0.5"/><text fill="#444" x="-9" y="0.5" dy="0.32em">20,000</text></g><g class="tick" opacity="1" transform="translate(0,412.63106796116506)"><line stroke="#444" x2="-6" y1="0.5" y2="0.5"/><text fill="#444" x="-9" y="0.5" dy="0.32em">10,000</text></g><g class="tick" opacity="1" transform="translate(0,457)"><line stroke="#444" x2="-6" y1="0.5" y2="0.5"/><text fill="#444" x="-9" y="0.5" dy="0.32em">0</text></g><g class="axis-label" transform="rotate(90) translate(455,5)"><text class="attribute" dy="0.3em" style="text-anchor: end;" fill="#444">Max</text></g></g><g class="domain" transform="translate(21.525561306212126,124.75)" fill="none" font-size="10" font-family="sans-serif" text-anchor="end" style="pointer-events: none;"><path class="domain" stroke="#444" d="M-6,0.5H0.5V457.5H-6"/><g class="tick" opacity="1" transform="translate(0,13.310679611650471)"><line stroke="#444" x2="-6" y1="0.5" y2="0.5"/><text fill="#444" x="-9" y="0.5" dy="0.32em">100,000</text></g><g class="tick" opacity="1" transform="translate(0,57.67961165048547)"><line stroke="#444" x2="-6" y1="0.5" y2="0.5"/><text fill="#444" x="-9" y="0.5" dy="0.32em">90,000</text></g><g class="tick" opacity="1" transform="translate(0,102.04854368932041)"><line stroke="#444" x2="-6" y1="0.5" y2="0.5"/><text fill="#444" x="-9" y="0.5" dy="0.32em">80,000</text></g><g class="tick" opacity="1" transform="translate(0,146.41747572815535)"><line stroke="#444" x2="-6" y1="0.5" y2="0.5"/><text fill="#444" x="-9" y="0.5" dy="0.32em">70,000</text></g><g class="tick" opacity="1" transform="translate(0,190.7864077669903)"><line stroke="#444" x2="-6" y1="0.5" y2="0.5"/><text fill="#444" x="-9" y="0.5" dy="0.32em">60,000</text></g><g class="tick" opacity="1" transform="translate(0,235.15533980582524)"><line stroke="#444" x2="-6" y1="0.5" y2="0.5"/><text fill="#444" x="-9" y="0.5" dy="0.32em">50,000</text></g><g class="tick" opacity="1" transform="translate(0,279.52427184466023)"><line stroke="#444" x2="-6" y1="0.5" y2="0.5"/><text fill="#444" x="-9" y="0.5" dy="0.32em">40,000</text></g><g class="tick" opacity="1" transform="translate(0,323.8932038834952)"><line stroke="#444" x2="-6" y1="0.5" y2="0.5"/><text fill="#444" x="-9" y="0.5" dy="0.32em">30,000</text></g><g class="tick" opacity="1" transform="translate(0,368.2621359223301)"><line stroke="#444" x2="-6" y1="0.5" y2="0.5"/><text fill="#444" x="-9" y="0.5" dy="0.32em">20,000</text></g><g class="tick" opacity="1" transform="translate(0,412.63106796116506)"><line stroke="#444" x2="-6" y1="0.5" y2="0.5"/><text fill="#444" x="-9" y="0.5" dy="0.32em">10,000</text></g><g class="tick" opacity="1" transform="translate(0,457)"><line stroke="#444" x2="-6" y1="0.5" y2="0.5"/><text fill="#444" x="-9" y="0.5" dy="0.32em">0</text></g><g class="axis-label" transform="rotate(90) translate(455,5)"><text class="attribute" dy="0.3em" style="text-anchor: end;" fill="#444">75-Percentile</text></g></g><g class="domain" transform="translate(79.77815282760403,124.75)" fill="none" font-size="10" font-family="sans-serif" text-anchor="end" style="pointer-events: none;"><path class="domain" stroke="#444" d="M-6,0.5H0.5V457.5H-6"/><g class="tick" opacity="1" transform="translate(0,13.310679611650471)"><line stroke="#444" x2="-6" y1="0.5" y2="0.5"/><text fill="#444" x="-9" y="0.5" dy="0.32em">100,000</text></g><g class="tick" opacity="1" transform="translate(0,57.67961165048547)"><line stroke="#444" x2="-6" y1="0.5" y2="0.5"/><text fill="#444" x="-9" y="0.5" dy="0.32em">90,000</text></g><g class="tick" opacity="1" transform="translate(0,102.04854368932041)"><line stroke="#444" x2="-6" y1="0.5" y2="0.5"/><text fill="#444" x="-9" y="0.5" dy="0.32em">80,000</text></g><g class="tick" opacity="1" transform="translate(0,146.41747572815535)"><line stroke="#444" x2="-6" y1="0.5" y2="0.5"/><text fill="#444" x="-9" y="0.5" dy="0.32em">70,000</text></g><g class="tick" opacity="1" transform="translate(0,190.7864077669903)"><line stroke="#444" x2="-6" y1="0.5" y2="0.5"/><text fill="#444" x="-9" y="0.5" dy="0.32em">60,000</text></g><g class="tick" opacity="1" transform="translate(0,235.15533980582524)"><line stroke="#444" x2="-6" y1="0.5" y2="0.5"/><text fill="#444" x="-9" y="0.5" dy="0.32em">50,000</text></g><g class="tick" opacity="1" transform="translate(0,279.52427184466023)"><line stroke="#444" x2="-6" y1="0.5" y2="0.5"/><text fill="#444" x="-9" y="0.5" dy="0.32em">40,000</text></g><g class="tick" opacity="1" transform="translate(0,323.8932038834952)"><line stroke="#444" x2="-6" y1="0.5" y2="0.5"/><text fill="#444" x="-9" y="0.5" dy="0.32em">30,000</text></g><g class="tick" opacity="1" transform="translate(0,368.2621359223301)"><line stroke="#444" x2="-6" y1="0.5" y2="0.5"/><text fill="#444" x="-9" y="0.5" dy="0.32em">20,000</text></g><g class="tick" opacity="1" transform="translate(0,412.63106796116506)"><line stroke="#444" x2="-6" y1="0.5" y2="0.5"/><text fill="#444" x="-9" y="0.5" dy="0.32em">10,000</text></g><g class="tick" opacity="1" transform="translate(0,457)"><line stroke="#444" x2="-6" y1="0.5" y2="0.5"/><text fill="#444" x="-9" y="0.5" dy="0.32em">0</text></g><g class="axis-label" transform="rotate(90) translate(455,5)"><text class="attribute" dy="0.3em" style="text-anchor: end;" fill="#444">Median</text></g></g><g class="domain" transform="translate(65.47049876971835,124.75)" fill="none" font-size="10" font-family="sans-serif" text-anchor="end" style="pointer-events: none;"><path class="domain" stroke="#444" d="M-6,0.5H0.5V457.5H-6"/><g class="tick" opacity="1" transform="translate(0,13.310679611650471)"><line stroke="#444" x2="-6" y1="0.5" y2="0.5"/><text fill="#444" x="-9" y="0.5" dy="0.32em">100,000</text></g><g class="tick" opacity="1" transform="translate(0,57.67961165048547)"><line stroke="#444" x2="-6" y1="0.5" y2="0.5"/><text fill="#444" x="-9" y="0.5" dy="0.32em">90,000</text></g><g class="tick" opacity="1" transform="translate(0,102.04854368932041)"><line stroke="#444" x2="-6" y1="0.5" y2="0.5"/><text fill="#444" x="-9" y="0.5" dy="0.32em">80,000</text></g><g class="tick" opacity="1" transform="translate(0,146.41747572815535)"><line stroke="#444" x2="-6" y1="0.5" y2="0.5"/><text fill="#444" x="-9" y="0.5" dy="0.32em">70,000</text></g><g class="tick" opacity="1" transform="translate(0,190.7864077669903)"><line stroke="#444" x2="-6" y1="0.5" y2="0.5"/><text fill="#444" x="-9" y="0.5" dy="0.32em">60,000</text></g><g class="tick" opacity="1" transform="translate(0,235.15533980582524)"><line stroke="#444" x2="-6" y1="0.5" y2="0.5"/><text fill="#444" x="-9" y="0.5" dy="0.32em">50,000</text></g><g class="tick" opacity="1" transform="translate(0,279.52427184466023)"><line stroke="#444" x2="-6" y1="0.5" y2="0.5"/><text fill="#444" x="-9" y="0.5" dy="0.32em">40,000</text></g><g class="tick" opacity="1" transform="translate(0,323.8932038834952)"><line stroke="#444" x2="-6" y1="0.5" y2="0.5"/><text fill="#444" x="-9" y="0.5" dy="0.32em">30,000</text></g><g class="tick" opacity="1" transform="translate(0,368.2621359223301)"><line stroke="#444" x2="-6" y1="0.5" y2="0.5"/><text fill="#444" x="-9" y="0.5" dy="0.32em">20,000</text></g><g class="tick" opacity="1" transform="translate(0,412.63106796116506)"><line stroke="#444" x2="-6" y1="0.5" y2="0.5"/><text fill="#444" x="-9" y="0.5" dy="0.32em">10,000</text></g><g class="tick" opacity="1" transform="translate(0,457)"><line stroke="#444" x2="-6" y1="0.5" y2="0.5"/><text fill="#444" x="-9" y="0.5" dy="0.32em">0</text></g><g class="axis-label" transform="rotate(90) translate(455,5)"><text class="attribute" dy="0.3em" style="text-anchor: end;" fill="#444">Min</text></g></g><g class="domain" transform="translate(35.833215364097896,124.75)" fill="none" font-size="10" font-family="sans-serif" text-anchor="end" style="pointer-events: none;"><path class="domain" stroke="#444" d="M-6,0.5H0.5V457.5H-6"/><g class="tick" opacity="1" transform="translate(0,13.310679611650471)"><line stroke="#444" x2="-6" y1="0.5" y2="0.5"/><text fill="#444" x="-9" y="0.5" dy="0.32em">100,000</text></g><g class="tick" opacity="1" transform="translate(0,57.67961165048547)"><line stroke="#444" x2="-6" y1="0.5" y2="0.5"/><text fill="#444" x="-9" y="0.5" dy="0.32em">90,000</text></g><g class="tick" opacity="1" transform="translate(0,102.04854368932041)"><line stroke="#444" x2="-6" y1="0.5" y2="0.5"/><text fill="#444" x="-9" y="0.5" dy="0.32em">80,000</text></g><g class="tick" opacity="1" transform="translate(0,146.41747572815535)"><line stroke="#444" x2="-6" y1="0.5" y2="0.5"/><text fill="#444" x="-9" y="0.5" dy="0.32em">70,000</text></g><g class="tick" opacity="1" transform="translate(0,190.7864077669903)"><line stroke="#444" x2="-6" y1="0.5" y2="0.5"/><text fill="#444" x="-9" y="0.5" dy="0.32em">60,000</text></g><g class="tick" opacity="1" transform="translate(0,235.15533980582524)"><line stroke="#444" x2="-6" y1="0.5" y2="0.5"/><text fill="#444" x="-9" y="0.5" dy="0.32em">50,000</text></g><g class="tick" opacity="1" transform="translate(0,279.52427184466023)"><line stroke="#444" x2="-6" y1="0.5" y2="0.5"/><text fill="#444" x="-9" y="0.5" dy="0.32em">40,000</text></g><g class="tick" opacity="1" transform="translate(0,323.8932038834952)"><line stroke="#444" x2="-6" y1="0.5" y2="0.5"/><text fill="#444" x="-9" y="0.5" dy="0.32em">30,000</text></g><g class="tick" opacity="1" transform="translate(0,368.2621359223301)"><line stroke="#444" x2="-6" y1="0.5" y2="0.5"/><text fill="#444" x="-9" y="0.5" dy="0.32em">20,000</text></g><g class="tick" opacity="1" transform="translate(0,412.63106796116506)"><line stroke="#444" x2="-6" y1="0.5" y2="0.5"/><text fill="#444" x="-9" y="0.5" dy="0.32em">10,000</text></g><g class="tick" opacity="1" transform="translate(0,457)"><line stroke="#444" x2="-6" y1="0.5" y2="0.5"/><text fill="#444" x="-9" y="0.5" dy="0.32em">0</text></g><g class="axis-label" transform="rotate(90) translate(455,5)"><text class="attribute" dy="0.3em" style="text-anchor: end;" fill="#444">Min</text></g></g></g></svg>