<svg xmlns="http://www.w3.org/2000/svg" width="600" height="100" style="overflow:hidden;-webkit-tap-highlight-color:transparent;user-select:none;cursor:default;vertical-align:middle;position:relative;top:-.398438px;background-color:#fff"><defs><clipPath id="a"><path d="M207.025 10H556v22.2H207.025z"/></clipPath><clipPath id="b"><path d="M207.025 10H556v22.2H207.025z"/></clipPath></defs><g class="raphael-group-4-parentgroup"><g class="raphael-group-5-background"><rect width="600" height="100" fill="#fff" rx="0" ry="0"/><rect width="600" height="100" fill="none" rx="0" ry="0"/></g><g class="raphael-group-27-canvas"><rect width="174.487" height="22.2" x="207.025" y="10" fill="#f27370" rx="0" ry="0"/><rect width="87.244" height="22.2" x="381.513" y="10" fill="#ffc535" rx="0" ry="0"/><rect width="87.244" height="22.2" x="468.756" y="10" fill="#63b590" rx="0" ry="0"/></g><g class="raphael-group-8-plots"><rect width="314" height="9" x="207" y="17" fill="#5d5d5d" class="raphael-group-69-bar" rx="0" ry="0"/><path fill="none" stroke="#545454" stroke-linecap="round" stroke-width="3" d="M538.551 14.44v13.32" class="raphael-group-71-target" shape-rendering="crispEdges" style="shape-rendering:crispedges"/></g><g class="raphael-group-10-axistop"><g class="raphael-group-47-axis-Line-group"><g fill="none" stroke="#333" stroke-linecap="round" class="raphael-group-51-axis-line-tick"><path d="M207.025 35.2v6M294.269 35.2v6M381.513 35.2v6M468.756 35.2v6M556 35.2v6"/></g></g><g class="raphael-group-49-dataset-Label-group"><g fill="#5a5a5a" class="raphael-group-50-dataset-top-label" font-family="Source Sans Pro" font-size="14" style="font-family:&quot;Source Sans Pro&quot;;font-size:14px;font-weight:400;font-style:normal" text-anchor="middle"><text x="207.025" y="59" style="font-size:14px;text-anchor:middle">0K</text><text x="294.269" y="59" style="font-size:14px;text-anchor:middle">25K</text><text x="381.513" y="59" style="font-size:14px;text-anchor:middle">50K</text><text x="468.756" y="59" style="font-size:14px;text-anchor:middle">75K</text><text x="556" y="59" style="font-size:14px;text-anchor:middle">100K</text></g></g></g><g class="raphael-group-12-datalabel" font-family="Source Sans Pro" font-size="14" font-weight="bold" style="font-family:&quot;Source Sans Pro&quot;;font-size:14px;font-weight:700;font-style:normal"><text x="560" y="25" class="raphael-group-70-datalabel" style="text-anchor:start">90K</text></g><g class="raphael-group-14-caption" font-family="Source Sans Pro" text-anchor="end"><text x="192.025" y="26" fill="#5a5a5a" font-size="18" font-weight="bold" style="text-anchor:end;font-family:&quot;Source Sans Pro&quot;;font-size:18px;font-weight:700"><tspan x="192.025">Website downloads for</tspan><tspan x="192.025" dy="21.6">2017</tspan></text><text x="192.025" y="68" fill="#999" font-size="13" style="text-anchor:end;font-family:&quot;Source Sans Pro&quot;;font-size:13px;font-weight:400">Actual vs Target</text></g></g><g class="raphael-group-epioxiKD" cursor="pointer" pointer-events="bounding-box" style="transition:.5s"><path d="M41 84.14v-9.59h5.8v1.44h-4.1v2.69h3.48v1.46h-3.47v4Zm7-2.68v-4.52h1.69v4.3c0 1.19.34 1.63 1.12 1.63.63 0 1-.3 1.59-1v-4.93h1.69v7.2h-1.42l-.13-1.05h0a3 3 0 0 1-2.32 1.23c-1.58 0-2.22-1.04-2.22-2.86Zm7.51 1.86.8-1.08a3.23 3.23 0 0 0 2 .8c.78 0 1.14-.36 1.14-.86s-.77-.87-1.54-1.16c-1-.35-2-.9-2-2.1s1-2.15 2.63-2.15a3.94 3.94 0 0 1 2.32.91l-.78 1a2.66 2.66 0 0 0-1.58-.62c-.72 0-1.06.34-1.06.79s.72.8 1.5 1.07c1 .37 2.06.84 2.06 2.19s-1 2.23-2.8 2.23a4.6 4.6 0 0 1-2.73-1.02Zm7.85-7.64a1 1 0 1 1 1-1 1 1 0 0 1-1 1Zm-.85 8.46v-7.2h1.69v7.2Zm3.38-3.59a3.44 3.44 0 1 1 6.85 0 3.44 3.44 0 1 1-6.85 0Zm1.73 0c0 1.44.63 2.39 1.69 2.39S71 81.99 71 80.55s-.65-2.41-1.7-2.41-1.68.96-1.68 2.41Zm6.79 3.59v-7.2h1.39l.12 1H76a3.34 3.34 0 0 1 2.36-1.14c1.54 0 2.21 1 2.21 2.86v4.51h-1.7v-4.32c0-1.19-.34-1.63-1.13-1.63a2.29 2.29 0 0 0-1.64.89v5Zm7.83-4.76c0-3.14 2-5 4.43-5a3.79 3.79 0 0 1 2.73 1.21l-.94 1.09a2.42 2.42 0 0 0-1.77-.79c-1.57-.03-2.69 1.29-2.69 3.44s1 3.51 2.64 3.51a2.57 2.57 0 0 0 2-1l.94 1.05a3.84 3.84 0 0 1-3 1.39c-2.42.04-4.34-1.72-4.34-4.9ZM91 84.14V73.79h1.68v4.06A3.3 3.3 0 0 1 95 76.77c1.54 0 2.21 1 2.21 2.86v4.51h-1.72v-4.29c0-1.19-.34-1.63-1.13-1.63a2.33 2.33 0 0 0-1.65.89v5Zm7.9-1.93c0-1.54 1.29-2.35 4.24-2.67 0-.77-.33-1.41-1.3-1.41a4 4 0 0 0-2 .7l-.64-1.15a5.64 5.64 0 0 1 3-.93c1.8 0 2.68 1.1 2.68 3.1v4.27h-1.43l-.13-.79h0a3.49 3.49 0 0 1-2.22 1 2 2 0 0 1-2.2-2.12Zm1.65-.14c0 .65.42.93 1 .93a2.25 2.25 0 0 0 1.57-.79v-1.62c-1.93.25-2.57.77-2.57 1.48Zm6.33 2.07v-7.2h1.4l.11 1.28h.06a2.45 2.45 0 0 1 2-1.45 1.86 1.86 0 0 1 .82.14l-.27 1.47a2.46 2.46 0 0 0-.75-.12c-.57 0-1.26.4-1.7 1.48v4.4Zm5.72-2.46v-3.4h-1v-1.27l1.11-.07.21-2h1.4v2h1.84v1.34h-1.86v3.4c0 .85.33 1.26 1 1.26a2 2 0 0 0 .74-.16l.3 1.24a4.43 4.43 0 0 1-1.47.27c-1.65.03-2.27-1.03-2.27-2.61Zm4.33 1.61.79-1.08a3.26 3.26 0 0 0 2 .8c.77 0 1.14-.36 1.14-.86s-.78-.87-1.54-1.16c-.95-.35-2-.9-2-2.1s1-2.15 2.62-2.15a3.89 3.89 0 0 1 2.39.86l-.77 1a2.69 2.69 0 0 0-1.56-.56c-.72 0-1 .34-1 .79s.71.8 1.49 1.07c1 .37 2.07.84 2.07 2.19s-1 2.23-2.8 2.23a4.58 4.58 0 0 1-2.83-1ZM18 74.31h3.33v9.76H18zM22.8 79.11h3.41v4.96H22.8zM27.76 72.68h3.17v11.39M27.76 85.54h3.17v3.33h-3.17v-3.33M129.54 77.27h-2.39V76h6.28v1.27H131v7h-1.5ZM134.11 78.06h1.24l.11 1.11h0a2.15 2.15 0 0 1 1.77-1.27 1.7 1.7 0 0 1 .71.13l-.3 1.28a2.1 2.1 0 0 0-.6-.07c-.49 0-1.09.33-1.46 1.28v3.78h-1.51ZM138.75 76.14a.9.9 0 0 1 1.8 0 .9.9 0 0 1-1.8 0Zm.13 1.92h1.51v6.24h-1.51ZM141.89 82.62c0-1.37 1.09-2 3.65-2.33 0-.64-.27-1.17-1.11-1.17a3.6 3.6 0 0 0-1.75.58l-.53-1a4.78 4.78 0 0 1 2.56-.82c1.55 0 2.33 1 2.33 2.71v3.69h-1.22l-.12-.69h0a2.93 2.93 0 0 1-1.91.84 1.75 1.75 0 0 1-1.9-1.81Zm3.65 0V81.3c-1.69.21-2.2.59-2.2 1.22s.35.74.86.74a1.85 1.85 0 0 0 1.34-.64ZM148.77 82.68v-7.34h1.51v7.4c0 .36.16.49.31.49a1 1 0 0 0 .23 0l.18 1.1a1.77 1.77 0 0 1-.79.14c-1.05-.02-1.44-.71-1.44-1.79Z"/></g></svg>