<svg class="bullet" width="960" height="50" xmlns="http://www.w3.org/2000/svg" xmlns:xlink="http://www.w3.org/1999/xlink"><g transform="translate(120,5)"><rect class="range s0" width="800" height="25" x="0"/><rect class="range s1" width="512" height="25" x="0"/><rect class="range s2" width="424" height="25" x="0"/><rect class="measure s0" width="512" height="8.333333333333334" x="0" y="8.333333333333334"/><rect class="measure s1" width="507.2" height="8.333333333333334" x="0" y="8.333333333333334"/><line class="marker" x1="336.00000000000006" x2="336.00000000000006" y1="4.166666666666667" y2="20.833333333333332" style="stroke: tomato;"/><line class="marker" x1="731.2" x2="731.2" y1="4.166666666666667" y2="20.833333333333332" style="stroke: limegreen;"/><g class="tick" transform="translate(0,0)" style="opacity: 1;"><line y1="25" y2="29.166666666666668"/><text text-anchor="middle" dy="1em" y="29.166666666666668">0.0</text></g><g class="tick" transform="translate(80, 0)" style="opacity: 1;"><line y1="25" y2="29.166666666666668"/><text text-anchor="middle" dy="1em" y="29.166666666666668">0.5</text></g><g class="tick" transform="translate(160, 0)" style="opacity: 1;"><line y1="25" y2="29.166666666666668"/><text text-anchor="middle" dy="1em" y="29.166666666666668">1.0</text></g><g class="tick" transform="translate(240, 0)" style="opacity: 1;"><line y1="25" y2="29.166666666666668"/><text text-anchor="middle" dy="1em" y="29.166666666666668">1.5</text></g><g class="tick" transform="translate(320, 0)" style="opacity: 1;"><line y1="25" y2="29.166666666666668"/><text text-anchor="middle" dy="1em" y="29.166666666666668">2.0</text></g><g class="tick" transform="translate(400, 0)" style="opacity: 1;"><line y1="25" y2="29.166666666666668"/><text text-anchor="middle" dy="1em" y="29.166666666666668">2.5</text></g><g class="tick" transform="translate(480, 0)" style="opacity: 1;"><line y1="25" y2="29.166666666666668"/><text text-anchor="middle" dy="1em" y="29.166666666666668">3.0</text></g><g class="tick" transform="translate(560, 0)" style="opacity: 1;"><line y1="25" y2="29.166666666666668"/><text text-anchor="middle" dy="1em" y="29.166666666666668">3.5</text></g><g class="tick" transform="translate(640, 0)" style="opacity: 1;"><line y1="25" y2="29.166666666666668"/><text text-anchor="middle" dy="1em" y="29.166666666666668">4.0</text></g><g class="tick" transform="translate(720, 0)" style="opacity: 1;"><line y1="25" y2="29.166666666666668"/><text text-anchor="middle" dy="1em" y="29.166666666666668">4.5</text></g><g class="tick" transform="translate(800, 0)" style="opacity: 1;"><line y1="25" y2="29.166666666666668"/><text text-anchor="middle" dy="1em" y="29.166666666666668">5.0</text></g><g transform="translate(-6,12.5)" style="text-anchor: end;"><text class="title">AIG BCS</text><text class="subtitle" dy="1em">Jan 2016 50/55</text></g></g></svg>