<svg xmlns="http://www.w3.org/2000/svg" xml:space="preserve" width="1017" height="604" style="enable-background:new 0 0 1017 604"><defs xmlns:dbi="http://www.datylon.com/dbi" dbi:type="fonts" id="datylon_font_defs"><style>@font-face{font-family:&quot;PTSans-BoldItalic&quot;;src:url(https://s3-eu-west-1.amazonaws.com/fonts.insights.datylon.com/PTSans-BoldItalic.ttf)format(&quot;truetype&quot;)}@font-face{font-family:&quot;PTSans-Bold&quot;;src:url(https://s3-eu-west-1.amazonaws.com/fonts.insights.datylon.com/PTSans-Bold.ttf)format(&quot;truetype&quot;)}@font-face{font-family:&quot;PTSans-Regular&quot;;src:url(https://s3-eu-west-1.amazonaws.com/fonts.insights.datylon.com/PTSans-Regular.ttf)format(&quot;truetype&quot;)}</style></defs><g id="Charts"><g id="_x32_019_Runkeeper_results"><defs><clipPath id="clipp2cqyeg72pj"><path d="M0 0h285v42H0z"/></clipPath></defs><g xmlns:ns9605567="http://www.datylon.com/dbi" ns9605567:type="visualization" clip-path="url(#clipp2cqyeg72pj)" transform="translate(366 42)"><path fill-opacity="0" d="M0 0h285v42H0z" class="background"/><path fill="none" stroke="#000" stroke-width="0" d="M0 0h285v42H0z"/><text x="137.5" y="20" data-lastline="true" font-family="PTSans-BoldItalic" style="white-space:pre" text-anchor="middle" transform="translate(5 5)"><tspan fill="#333" font-size="20" letter-spacing="0">Some</tspan><tspan fill="#333" dx="5.047" font-size="20" letter-spacing="0">2019</tspan><tspan fill="#333" dx="5.047" font-size="20" letter-spacing="0">Runkeeper</tspan><tspan fill="#333" dx="5.047" font-size="20" letter-spacing="0">Results</tspan></text></g></g><g id="TOTAL_RUNNING_DISTANCE"><defs><clipPath id="clip2i2fjg30k6j"><path d="M0 0h188v27H0z"/></clipPath></defs><g xmlns:ns9605567="http://www.datylon.com/dbi" ns9605567:type="visualization" clip-path="url(#clip2i2fjg30k6j)" transform="translate(51 106)"><path fill-opacity="0" d="M0 0h188v27H0z" class="background"/><path fill="none" stroke="#000" stroke-width="0" d="M0 0h188v27H0z"/><text y="11" data-lastline="true" font-family="PTSans-Bold" style="white-space:pre" transform="translate(5 5)"><tspan font-size="11" letter-spacing="1.2">TOTAL</tspan><tspan dx="3.969" font-size="11" letter-spacing="1.2">RUNNING</tspan><tspan dx="3.969" font-size="11" letter-spacing="1.2">DISTANCE</tspan></text></g></g><g id="AVERAGE_DISTANCE_x2F_RUN"><defs><clipPath id="clipsmj11f6vmha"><path d="M0 0h188v27H0z"/></clipPath></defs><g xmlns:ns9605567="http://www.datylon.com/dbi" ns9605567:type="visualization" clip-path="url(#clipsmj11f6vmha)" transform="translate(51 442)"><path fill-opacity="0" d="M0 0h188v27H0z" class="background"/><path fill="none" stroke="#000" stroke-width="0" d="M0 0h188v27H0z"/><text y="11" data-lastline="true" font-family="PTSans-Bold" style="white-space:pre" transform="translate(5 5)"><tspan font-size="11" letter-spacing="1.2">AVERAGE</tspan><tspan dx="3.969" font-size="11" letter-spacing="1.2">SPEED/RUN</tspan></text></g></g><g id="AVERAGE_SPEED_x2F_RUN"><defs><clipPath id="clipbcab1zfa19o"><path d="M0 0h188v27H0z"/></clipPath></defs><g xmlns:ns9605567="http://www.datylon.com/dbi" ns9605567:type="visualization" clip-path="url(#clipbcab1zfa19o)" transform="translate(51 274)"><path fill-opacity="0" d="M0 0h188v27H0z" class="background"/><path fill="none" stroke="#000" stroke-width="0" d="M0 0h188v27H0z"/><text y="11" data-lastline="true" font-family="PTSans-Bold" style="white-space:pre" transform="translate(5 5)"><tspan font-size="11" letter-spacing="1.2">AVERAGE</tspan><tspan dx="3.969" font-size="11" letter-spacing="1.2">DISTANCE/RUN</tspan></text></g></g><g id="DISTANCE_VS_SPEED"><defs><clipPath id="clipv7ghfbw5yv"><path d="M0 0h188v27H0z"/></clipPath></defs><g xmlns:ns9605567="http://www.datylon.com/dbi" ns9605567:type="visualization" clip-path="url(#clipv7ghfbw5yv)" transform="translate(553.135 104.693)"><path fill-opacity="0" d="M0 0h188v27H0z" class="background"/><path fill="none" stroke="#000" stroke-width="0" d="M0 0h188v27H0z"/><text y="11" data-lastline="true" font-family="PTSans-Bold" style="white-space:pre" transform="translate(5 5)"><tspan font-size="11" letter-spacing="1.2">DISTANCE</tspan><tspan dx="3.969" font-size="11" letter-spacing="1.2">VS</tspan><tspan dx="3.969" font-size="11" letter-spacing="1.2">SPEED</tspan></text></g></g><g id="Scatter_Distance_vs_Speed"><defs><clipPath id="clipzjc1hkqhmvp"><path d="M0 0h498v475H0z"/></clipPath></defs><g xmlns:ns9605567="http://www.datylon.com/dbi" ns9605567:type="visualization" clip-path="url(#clipzjc1hkqhmvp)" transform="translate(519 117)"><g class="chart-group"><g fill="none" class="y-axis-grid" font-family="sans-serif" font-size="10" text-anchor="end"><path stroke="#878787" stroke-dasharray="2 3" d="M0 0h358" class="tick" style="stroke-width:.7" transform="translate(90 425)"/><path stroke="#878787" stroke-dasharray="2 3" d="M0 0h358" class="tick" style="stroke-width:.7" transform="translate(90 328.75)"/><path stroke="#878787" stroke-dasharray="2 3" d="M0 0h358" class="tick" style="stroke-width:.7" transform="translate(90 232.5)"/><path stroke="#878787" stroke-dasharray="2 3" d="M0 0h358" class="tick" style="stroke-width:.7" transform="translate(90 136.25)"/><path stroke="#878787" stroke-dasharray="2 3" d="M0 0h358" class="tick" style="stroke-width:.7" transform="translate(90 40)"/></g><g fill="none" class="x-axis-grid" font-family="sans-serif" font-size="10" text-anchor="middle"><path stroke="#878787" stroke-dasharray="2 3" d="M0 0v385" class="tick" style="stroke-width:.7" transform="translate(90 40)"/><path stroke="#878787" stroke-dasharray="2 3" d="M0 0v385" class="tick" style="stroke-width:.7" transform="translate(155.09 40)"/><path stroke="#878787" stroke-dasharray="2 3" d="M0 0v385" class="tick" style="stroke-width:.7" transform="translate(220.182 40)"/><path stroke="#878787" stroke-dasharray="2 3" d="M0 0v385" class="tick" style="stroke-width:.7" transform="translate(285.273 40)"/><path stroke="#878787" stroke-dasharray="2 3" d="M0 0v385" class="tick" style="stroke-width:.7" transform="translate(350.364 40)"/><path stroke="#878787" stroke-dasharray="2 3" d="M0 0v385" class="tick" style="stroke-width:.7" transform="translate(415.455 40)"/></g><g class="datamarks"><g class="datamark-group-0"><circle cx="32" cy="32" r="32" fill="#A10DFF" stroke="#000" stroke-width="0" class="datamark" style="fill-opacity:.44" transform="matrix(.125 0 0 .125 198.607 263.15)"/></g><g class="datamark-group-1"><circle cx="32" cy="32" r="32" fill="#A10DFF" stroke="#000" stroke-width="0" class="datamark" style="fill-opacity:.44" transform="matrix(.125 0 0 .125 184.613 324.75)"/></g><g class="datamark-group-2"><circle cx="32" cy="32" r="32" fill="#A10DFF" stroke="#000" stroke-width="5.333" class="datamark" style="fill-opacity:.44" transform="translate(182.287 116.775) scale(.1875)"/></g><g class="datamark-group-3"><circle cx="32" cy="32" r="32" fill="#A10DFF" stroke="#000" stroke-width="0" class="datamark" style="fill-opacity:.44" transform="matrix(.125 0 0 .125 238.313 205.4)"/></g><g class="datamark-group-4"><circle cx="32" cy="32" r="32" fill="#A10DFF" stroke="#000" stroke-width="0" class="datamark" style="fill-opacity:.44" transform="matrix(.125 0 0 .125 184.938 189.037)"/></g><g class="datamark-group-5"><circle cx="32" cy="32" r="32" fill="#A10DFF" stroke="#000" stroke-width="0" class="datamark" style="fill-opacity:.44" transform="matrix(.125 0 0 .125 198.607 272.775)"/></g><g class="datamark-group-6"><circle cx="32" cy="32" r="32" fill="#A10DFF" stroke="#000" stroke-width="0" class="datamark" style="fill-opacity:.44" transform="matrix(.125 0 0 .125 292.338 236.2)"/></g><g class="datamark-group-7"><circle cx="32" cy="32" r="32" fill="#A10DFF" stroke="#000" stroke-width="0" class="datamark" style="fill-opacity:.44" transform="matrix(.125 0 0 .125 156.95 184.225)"/></g><g class="datamark-group-8"><circle cx="32" cy="32" r="32" fill="#A10DFF" stroke="#000" stroke-width="0" class="datamark" style="fill-opacity:.44" transform="matrix(.125 0 0 .125 297.545 258.338)"/></g><g class="datamark-group-9"><circle cx="32" cy="32" r="32" fill="#A10DFF" stroke="#000" stroke-width="0" class="datamark" style="fill-opacity:.44" transform="matrix(.125 0 0 .125 151.09 239.087)"/></g><g class="datamark-group-10"><circle cx="32" cy="32" r="32" fill="#A10DFF" stroke="#000" stroke-width="0" class="datamark" style="fill-opacity:.44" transform="matrix(.125 0 0 .125 188.193 252.563)"/></g><g class="datamark-group-11"><circle cx="32" cy="32" r="32" fill="#A10DFF" stroke="#000" stroke-width="0" class="datamark" style="fill-opacity:.44" transform="matrix(.125 0 0 .125 157.925 215.025)"/></g><g class="datamark-group-12"><circle cx="32" cy="32" r="32" fill="#A10DFF" stroke="#000" stroke-width="0" class="datamark" style="fill-opacity:.44" transform="matrix(.125 0 0 .125 281.598 283.363)"/></g><g class="datamark-group-13"><circle cx="32" cy="32" r="32" fill="#A10DFF" stroke="#000" stroke-width="0" class="datamark" style="fill-opacity:.44" transform="matrix(.125 0 0 .125 170.293 142.837)"/></g><g class="datamark-group-14"><circle cx="32" cy="32" r="32" fill="#A10DFF" stroke="#000" stroke-width="0" class="datamark" style="fill-opacity:.44" transform="matrix(.125 0 0 .125 216.182 282.4)"/></g><g class="datamark-group-15"><circle cx="32" cy="32" r="32" fill="#A10DFF" stroke="#000" stroke-width="0" class="datamark" style="fill-opacity:.44" transform="matrix(.125 0 0 .125 183.962 150.537)"/></g><g class="datamark-group-16"><circle cx="32" cy="32" r="32" fill="#A10DFF" stroke="#000" stroke-width="5.333" class="datamark" style="fill-opacity:.44" transform="translate(206.37 254.412) scale(.1875)"/></g><g class="datamark-group-17"><circle cx="32" cy="32" r="32" fill="#A10DFF" stroke="#000" stroke-width="5.333" class="datamark" style="fill-opacity:.44" transform="translate(405.224 397.825) scale(.1875)"/></g><g class="datamark-group-18"><circle cx="32" cy="32" r="32" fill="#A10DFF" stroke="#000" stroke-width="0" class="datamark" style="fill-opacity:.44" transform="matrix(.125 0 0 .125 225.295 277.587)"/></g><g class="datamark-group-19"><circle cx="32" cy="32" r="32" fill="#A10DFF" stroke="#000" stroke-width="0" class="datamark" style="fill-opacity:.44" transform="matrix(.125 0 0 .125 318.7 281.438)"/></g><g class="datamark-group-20"><circle cx="32" cy="32" r="32" fill="#A10DFF" stroke="#000" stroke-width="0" class="datamark" style="fill-opacity:.44" transform="matrix(.125 0 0 .125 177.453 277.587)"/></g><g class="datamark-group-21"><circle cx="32" cy="32" r="32" fill="#A10DFF" stroke="#000" stroke-width="0" class="datamark" style="fill-opacity:.44" transform="matrix(.125 0 0 .125 170.944 158.237)"/></g><g class="datamark-group-22"><circle cx="32" cy="32" r="32" fill="#A10DFF" stroke="#000" stroke-width="0" class="datamark" style="fill-opacity:.44" transform="matrix(.125 0 0 .125 183.962 184.225)"/></g><g class="datamark-group-23"><circle cx="32" cy="32" r="32" fill="#A10DFF" stroke="#000" stroke-width="0" class="datamark" style="fill-opacity:.44" transform="matrix(.125 0 0 .125 171.27 259.3)"/></g><g class="datamark-group-24"><circle cx="32" cy="32" r="32" fill="#A10DFF" stroke="#000" stroke-width="0" class="datamark" style="fill-opacity:.44" transform="matrix(.125 0 0 .125 231.153 281.438)"/></g><g class="datamark-group-25"><circle cx="32" cy="32" r="32" fill="#A10DFF" stroke="#000" stroke-width="0" class="datamark" style="fill-opacity:.44" transform="matrix(.125 0 0 .125 183.636 256.412)"/></g><g class="datamark-group-26"><circle cx="32" cy="32" r="32" fill="#A10DFF" stroke="#000" stroke-width="0" class="datamark" style="fill-opacity:.44" transform="matrix(.125 0 0 .125 223.342 298.763)"/></g><g class="datamark-group-27"><circle cx="32" cy="32" r="32" fill="#A10DFF" stroke="#000" stroke-width="5.333" class="datamark" style="fill-opacity:.44" transform="translate(111.338 237.087) scale(.1875)"/></g><g class="datamark-group-28"><circle cx="32" cy="32" r="32" fill="#A10DFF" stroke="#000" stroke-width="0" class="datamark" style="fill-opacity:.44" transform="matrix(.125 0 0 .125 183.962 251.6)"/></g><g class="datamark-group-29"><circle cx="32" cy="32" r="32" fill="#A10DFF" stroke="#000" stroke-width="0" class="datamark" style="fill-opacity:.44" transform="matrix(.125 0 0 .125 183.636 216.95)"/></g><g class="datamark-group-30"><circle cx="32" cy="32" r="32" fill="#A10DFF" stroke="#000" stroke-width="0" class="datamark" style="fill-opacity:.44" transform="matrix(.125 0 0 .125 200.885 260.263)"/></g><g class="datamark-group-31"><circle cx="32" cy="32" r="32" fill="#A10DFF" stroke="#000" stroke-width="0" class="datamark" style="fill-opacity:.44" transform="matrix(.125 0 0 .125 292.664 313.2)"/></g><g class="datamark-group-32"><circle cx="32" cy="32" r="32" fill="#A10DFF" stroke="#000" stroke-width="0" class="datamark" style="fill-opacity:.44" transform="matrix(.125 0 0 .125 195.678 255.45)"/></g><g class="datamark-group-33"><circle cx="32" cy="32" r="32" fill="#A10DFF" stroke="#000" stroke-width="0" class="datamark" style="fill-opacity:.44" transform="matrix(.125 0 0 .125 183.636 228.5)"/></g><g class="datamark-group-34"><circle cx="32" cy="32" r="32" fill="#A10DFF" stroke="#000" stroke-width="0" class="datamark" style="fill-opacity:.44" transform="matrix(.125 0 0 .125 188.518 255.45)"/></g><g class="datamark-group-35"><circle cx="32" cy="32" r="32" fill="#A10DFF" stroke="#000" stroke-width="0" class="datamark" style="fill-opacity:.44" transform="matrix(.125 0 0 .125 167.69 226.575)"/></g><g class="datamark-group-36"><circle cx="32" cy="32" r="32" fill="#A10DFF" stroke="#000" stroke-width="0" class="datamark" style="fill-opacity:.44" transform="matrix(.125 0 0 .125 183.636 217.913)"/></g><g class="datamark-group-37"><circle cx="32" cy="32" r="32" fill="#A10DFF" stroke="#000" stroke-width="0" class="datamark" style="fill-opacity:.44" transform="matrix(.125 0 0 .125 183.962 242.938)"/></g><g class="datamark-group-38"><circle cx="32" cy="32" r="32" fill="#A10DFF" stroke="#000" stroke-width="0" class="datamark" style="fill-opacity:.44" transform="matrix(.125 0 0 .125 183.636 267.962)"/></g><g class="datamark-group-39"><circle cx="32" cy="32" r="32" fill="#A10DFF" stroke="#000" stroke-width="0" class="datamark" style="fill-opacity:.44" transform="matrix(.125 0 0 .125 168.99 282.4)"/></g><g class="datamark-group-40"><circle cx="32" cy="32" r="32" fill="#A10DFF" stroke="#000" stroke-width="0" class="datamark" style="fill-opacity:.44" transform="matrix(.125 0 0 .125 185.264 321.863)"/></g><g class="datamark-group-41"><circle cx="32" cy="32" r="32" fill="#A10DFF" stroke="#000" stroke-width="0" class="datamark" style="fill-opacity:.44" transform="matrix(.125 0 0 .125 137.096 281.438)"/></g><g class="datamark-group-42"><circle cx="32" cy="32" r="32" fill="#A10DFF" stroke="#000" stroke-width="0" class="datamark" style="fill-opacity:.44" transform="matrix(.125 0 0 .125 346.69 366.137)"/></g><g class="datamark-group-43"><circle cx="32" cy="32" r="32" fill="#A10DFF" stroke="#000" stroke-width="0" class="datamark" style="fill-opacity:.44" transform="matrix(.125 0 0 .125 184.287 186.15)"/></g></g><g fill="none" class="x-axis" font-family="sans-serif" font-size="10" text-anchor="middle"><g class="tick" transform="translate(90 435.5)"><path stroke="#646464" stroke-width=".4" d="M0 0v7" transform="translate(0 -10.5)"/><text id="gtext" y="7" fill="#000" dy=".32em" letter-spacing="0" opacity="1" style="font-size:10px;font-family:PTSans-Regular;font-style:normal;font-weight:400;font-stretch:normal">2 km</text></g><g class="tick"><path stroke="#646464" stroke-width=".4" d="M0 0v7" transform="translate(155.09 425)"/><text y="7" fill="#000" dy=".32em" letter-spacing="0" style="font-size:10px;font-family:PTSans-Regular;font-style:normal;font-weight:400;font-stretch:normal" transform="translate(155.09 435.5)">4 km</text></g><g class="tick"><path stroke="#646464" stroke-width=".4" d="M0 0v7" transform="translate(220.182 425)"/><text y="7" fill="#000" dy=".32em" letter-spacing="0" style="font-size:10px;font-family:PTSans-Regular;font-style:normal;font-weight:400;font-stretch:normal" transform="translate(220.182 435.5)">6 km</text></g><g class="tick"><path stroke="#646464" stroke-width=".4" d="M0 0v7" transform="translate(285.273 425)"/><text y="7" fill="#000" dy=".32em" letter-spacing="0" style="font-size:10px;font-family:PTSans-Regular;font-style:normal;font-weight:400;font-stretch:normal" transform="translate(285.273 435.5)">8 km</text></g><g class="tick"><path stroke="#646464" stroke-width=".4" d="M0 0v7" transform="translate(350.364 425)"/><text y="7" fill="#000" dy=".32em" letter-spacing="0" style="font-size:10px;font-family:PTSans-Regular;font-style:normal;font-weight:400;font-stretch:normal" transform="translate(350.364 435.5)">10 km</text></g><g class="tick"><path stroke="#646464" stroke-width=".4" d="M0 0v7" transform="translate(415.455 425)"/><text y="7" fill="#000" dy=".32em" letter-spacing="0" style="font-size:10px;font-family:PTSans-Regular;font-style:normal;font-weight:400;font-stretch:normal" transform="translate(415.455 435.5)">12 km</text></g></g><g fill="none" class="y-axis" font-family="sans-serif" font-size="10" text-anchor="end"><g class="tick"><path stroke="#646464" stroke-width=".4" d="M0 0h-8" transform="translate(90 425)"/><text x="-8" fill="#000" dy=".32em" letter-spacing="0" style="font-size:10px;font-family:PTSans-Regular;font-style:normal;font-weight:400;font-stretch:normal" transform="translate(81.5 425)">8 km/h</text></g><g class="tick"><path stroke="#646464" stroke-width=".4" d="M0 0h-8" transform="translate(90 328.75)"/><text x="-8" fill="#000" dy=".32em" letter-spacing="0" style="font-size:10px;font-family:PTSans-Regular;font-style:normal;font-weight:400;font-stretch:normal" transform="translate(81.5 328.75)">9 km/h</text></g><g class="tick"><path stroke="#646464" stroke-width=".4" d="M0 0h-8" transform="translate(90 232.5)"/><text x="-8" fill="#000" dy=".32em" letter-spacing="0" style="font-size:10px;font-family:PTSans-Regular;font-style:normal;font-weight:400;font-stretch:normal" transform="translate(81.5 232.5)">10 km/h</text></g><g class="tick"><path stroke="#646464" stroke-width=".4" d="M0 0h-8" transform="translate(90 136.25)"/><text x="-8" fill="#000" dy=".32em" letter-spacing="0" style="font-size:10px;font-family:PTSans-Regular;font-style:normal;font-weight:400;font-stretch:normal" transform="translate(81.5 136.25)">11 km/h</text></g><g class="tick"><path stroke="#646464" stroke-width=".4" d="M0 0h-8" transform="translate(90 40)"/><text x="-8" fill="#000" dy=".32em" letter-spacing="0" style="font-size:10px;font-family:PTSans-Regular;font-style:normal;font-weight:400;font-stretch:normal" transform="translate(81.5 40)">12 km/h</text></g></g><g class="labels"><g class="label_jiul4depn2j0" transform="translate(188.287 110.775)"><path id="grect" fill="none" fill-opacity="0" stroke="#000" stroke-width="0" d="M0 0h26.438v21.406H0Z" class="filled-rect" transform="translate(-13 -18.89)"/><text class="wrapped" dy="0" letter-spacing="0" style="font-size:9px;font-family:PTSans-BoldItalic;font-style:normal;font-weight:400;font-stretch:normal" text-anchor="middle"><tspan x="0" y="-9.9" dy="0em">Fastest</tspan><tspan x="0" y="-9.9" dy="1.1em">run</tspan></text></g><g class="label_jiul4depn2j1"><path fill="none" fill-opacity="0" stroke="#000" stroke-width="0" d="M0 0h29.672v31.313H0Z" class="filled-rect" transform="translate(197.402 219.616)"/><text class="wrapped" dy="0" letter-spacing="0" style="font-size:9px;font-family:PTSans-BoldItalic;font-style:normal;font-weight:400;font-stretch:normal" text-anchor="middle" transform="translate(212.37 248.412)"><tspan x="0" y="-19.8" dy="0em">Most</tspan><tspan x="0" y="-19.8" dy="1.1em">Average</tspan><tspan x="0" y="-19.8" dy="2.2em">run</tspan></text></g><g class="label_jiul4depn2j2"><path fill="none" fill-opacity="0" stroke="#000" stroke-width="0" d="M0 0h29.016v21.406H0Z" class="filled-rect" transform="translate(396.942 372.934)"/><text class="wrapped" dy="0" letter-spacing="0" style="font-size:9px;font-family:PTSans-BoldItalic;font-style:normal;font-weight:400;font-stretch:normal" text-anchor="middle" transform="translate(411.224 391.825)"><tspan x="0" y="-9.9" dy="0em">Longest</tspan><tspan x="0" y="-9.9" dy="1.1em">run</tspan></text></g><g class="label_jiul4depn2j3"><path fill="none" fill-opacity="0" stroke="#000" stroke-width="0" d="M0 0h30.86v21.406H0Z" class="filled-rect" transform="translate(102.12 212.197)"/><text class="wrapped" dy="0" letter-spacing="0" style="font-size:9px;font-family:PTSans-BoldItalic;font-style:normal;font-weight:400;font-stretch:normal" text-anchor="middle" transform="translate(117.338 231.087)"><tspan x="0" y="-9.9" dy="0em">Shortest</tspan><tspan x="0" y="-9.9" dy="1.1em">run</tspan></text></g></g></g></g></g><g id="Bullet_Average_Speed"><defs><clipPath id="clip4t63ctnqy75"><path d="M0 0h473v117.198H0z"/></clipPath></defs><g xmlns:ns9605567="http://www.datylon.com/dbi" ns9605567:type="visualization" clip-path="url(#clip4t63ctnqy75)" transform="translate(24.275 458.384)"><defs class="viz_defs"><linearGradient id="linear_gradient_e1igo84jjnb" gradientTransform="rotate(360 0 1)"><stop id="linear_gradient_e1igo84jjnb-stop-1" offset="0" stop-color="#7B23FF" stop-opacity=".17"/><stop id="linear_gradient_e1igo84jjnb-stop-2" offset="1" stop-color="#A10DFF" stop-opacity="1"/></linearGradient></defs><g class="chart-group"><g class="benchmark" transform="translate(31 31)"><defs><clipPath id="ranges_rounding_1q73r159oifj"><path d="M0 0h411v55.198H0V0z"/></clipPath></defs><path fill="#FFF" d="M0 0h298.909v55.198H0z" class="percentile" clip-path="url(#ranges_rounding_1q73r159oifj)"/><path fill="#F2F2F2" d="M298.909 0h74.727v55.198h-74.727z" class="percentile" clip-path="url(#ranges_rounding_1q73r159oifj)"/><path fill="#E2E2E2" d="M373.636 0H411v55.198h-37.364z" class="percentile" clip-path="url(#ranges_rounding_1q73r159oifj)"/><path fill="none" stroke="#646464" stroke-width="0" d="M0 0h411v55.198H0V0z" clip-path="url(#ranges_rounding_1q73r159oifj)"/></g><g class="bencmark-bar-labels"><text class="label_tvwrim142o" dy="0" letter-spacing="0" style="font-size:9px;font-family:PTSans-BoldItalic;font-style:normal;font-weight:400;font-stretch:normal" transform="translate(31 26)">Bad</text><text class="label_zp2zbp1bf2" dy="0" letter-spacing="0" style="font-size:9px;font-family:PTSans-BoldItalic;font-style:normal;font-weight:400;font-stretch:normal" transform="translate(329.91 26)">Acceptable</text><text class="label_nbptj77sfls" dy="0" letter-spacing="0" style="font-size:9px;font-family:PTSans-BoldItalic;font-style:normal;font-weight:400;font-stretch:normal" transform="translate(404.636 26)">Good</text></g><g class="bar" transform="translate(31 31)"><defs><clipPath id="bars_rounding_seexislon1o"><path d="M0 16.283h353.79a12 11.316 0 0 1 12 11.316 12 11.316 0 0 1-12 11.315H0V27.6z"/></clipPath></defs><path fill="#7B23FF" d="M0 16.283h365.79v22.631H0z" class="bar" clip-path="url(#bars_rounding_seexislon1o)" style="fill:url(#linear_gradient_e1igo84jjnb)"/><path fill="none" stroke-opacity="0" stroke-width="0" d="M0 16.283h353.79a12 11.316 0 0 1 12 11.316 12 11.316 0 0 1-12 11.315H0V27.6z" clip-path="url(#bars_rounding_seexislon1o)"/></g><path stroke-opacity="0" stroke-width="8.533" d="M32 9A23 23 0 1 1 9 32 23 23 0 0 1 32 9m0-9a32 32 0 1 0 32 32A32 32 0 0 0 32 0Z" class="datamark" style="fill-opacity:1" transform="matrix(.23438 0 0 .23438 415.818 51.099)"/><g fill="none" class="x-axis" font-family="sans-serif" font-size="10" text-anchor="middle"><path stroke="#646464" stroke-width=".4" d="M.5.5h411" class="domain" transform="translate(30.5 85.698)"/><g class="tick"><path stroke="#646464" stroke-width=".4" d="M0 0v7" transform="translate(31 86.198)"/><text y="7" fill="#000" dy=".71em" letter-spacing="0" style="font-size:10px;font-family:PTSans-Regular;font-style:normal;font-weight:400;font-stretch:normal" transform="translate(31 90.698)">0 km/h</text></g><g class="tick"><path stroke="#646464" stroke-width=".4" d="M0 0v7" transform="translate(105.727 86.198)"/><text y="7" fill="#000" dy=".71em" letter-spacing="0" style="font-size:10px;font-family:PTSans-Regular;font-style:normal;font-weight:400;font-stretch:normal" transform="translate(105.727 90.698)">2 km/h</text></g><g class="tick"><path stroke="#646464" stroke-width=".4" d="M0 0v7" transform="translate(180.455 86.198)"/><text y="7" fill="#000" dy=".71em" letter-spacing="0" style="font-size:10px;font-family:PTSans-Regular;font-style:normal;font-weight:400;font-stretch:normal" transform="translate(180.455 90.698)">4 km/h</text></g><g class="tick"><path stroke="#646464" stroke-width=".4" d="M0 0v7" transform="translate(255.182 86.198)"/><text y="7" fill="#000" dy=".71em" letter-spacing="0" style="font-size:10px;font-family:PTSans-Regular;font-style:normal;font-weight:400;font-stretch:normal" transform="translate(255.182 90.698)">6 km/h</text></g><g class="tick"><path stroke="#646464" stroke-width=".4" d="M0 0v7" transform="translate(329.91 86.198)"/><text y="7" fill="#000" dy=".71em" letter-spacing="0" style="font-size:10px;font-family:PTSans-Regular;font-style:normal;font-weight:400;font-stretch:normal" transform="translate(329.91 90.698)">8 km/h</text></g><g class="tick"><path stroke="#646464" stroke-width=".4" d="M0 0v7" transform="translate(404.636 86.198)"/><text y="7" fill="#000" dy=".71em" letter-spacing="0" style="font-size:10px;font-family:PTSans-Regular;font-style:normal;font-weight:400;font-stretch:normal" transform="translate(404.636 90.698)">10 km/h</text></g></g></g></g></g><g id="Bullet_Average_Distance"><defs><clipPath id="clip0udwbdrsta4n"><path d="M0 0h473v117.198H0z"/></clipPath></defs><g xmlns:ns9605567="http://www.datylon.com/dbi" ns9605567:type="visualization" clip-path="url(#clip0udwbdrsta4n)" transform="translate(24.553 290.047)"><defs class="viz_defs"><linearGradient id="linear_gradient_8lcnjo1r0o7" gradientTransform="rotate(360 0 1)"><stop id="linear_gradient_8lcnjo1r0o7-stop-1" offset="0" stop-color="#7B23FF" stop-opacity=".17"/><stop id="linear_gradient_8lcnjo1r0o7-stop-2" offset="1" stop-color="#A10DFF" stop-opacity="1"/></linearGradient></defs><g class="chart-group"><g class="benchmark" transform="translate(31 31)"><defs><clipPath id="ranges_rounding_a7kpziga74"><path d="M0 0h411v55.198H0V0z"/></clipPath></defs><path fill="#FFF" fill-opacity=".81" d="M0 0h102.75v55.198H0z" class="percentile" clip-path="url(#ranges_rounding_a7kpziga74)"/><path fill="#F2F2F2" fill-opacity=".81" d="M102.75 0H137v55.198h-34.25z" class="percentile" clip-path="url(#ranges_rounding_a7kpziga74)"/><path fill="#E2E2E2" fill-opacity=".81" d="M137 0h68.5v55.198H137z" class="percentile" clip-path="url(#ranges_rounding_a7kpziga74)"/><path fill="#CECECE" fill-opacity=".81" d="M205.5 0H411v55.198H205.5z" class="percentile" clip-path="url(#ranges_rounding_a7kpziga74)"/><path fill="none" stroke="#646464" stroke-width="0" d="M0 0h411v55.198H0V0z" clip-path="url(#ranges_rounding_a7kpziga74)"/></g><g class="bencmark-bar-labels"><text class="label_igkrhh9wasd" dy="0" letter-spacing="0" style="font-size:9px;font-family:PTSans-BoldItalic;font-style:normal;font-weight:400;font-stretch:normal" transform="translate(31 26)">Bad</text><text class="label_sfgrpwh9im8" dy="0" letter-spacing="0" style="font-size:9px;font-family:PTSans-BoldItalic;font-style:normal;font-weight:400;font-stretch:normal" transform="translate(168 26)">Acceptable</text><text class="label_vy7zmy078pp" dy="0" letter-spacing="0" style="font-size:9px;font-family:PTSans-BoldItalic;font-style:normal;font-weight:400;font-stretch:normal" transform="translate(236.5 26)">Good</text></g><g class="bar" transform="translate(31 31)"><defs><clipPath id="bars_rounding_yibsdais9"><path d="M0 16.283h182.882a12 11.316 0 0 1 12 11.316 12 11.316 0 0 1-12 11.315H0V27.6z"/></clipPath></defs><path fill="#7B23FF" d="M0 16.283h194.882v22.631H0z" class="bar" clip-path="url(#bars_rounding_yibsdais9)" style="fill:url(#linear_gradient_8lcnjo1r0o7)"/><path fill="none" stroke-opacity="0" stroke-width="0" d="M0 16.283h182.882a12 11.316 0 0 1 12 11.316 12 11.316 0 0 1-12 11.315H0V27.6z" clip-path="url(#bars_rounding_yibsdais9)"/></g><path stroke-opacity="0" stroke-width="8.533" d="M32 9A23 23 0 1 1 9 32 23 23 0 0 1 32 9m0-9a32 32 0 1 0 32 32A32 32 0 0 0 32 0Z" class="datamark" style="fill-opacity:1" transform="matrix(.23438 0 0 .23438 280.375 51.099)"/><g fill="none" class="x-axis" font-family="sans-serif" font-size="10" text-anchor="middle"><path stroke="#646464" stroke-width=".4" d="M.5.5h411" class="domain" transform="translate(30.5 85.698)"/><g class="tick"><path stroke="#646464" stroke-width=".4" d="M0 0v7" transform="translate(31 86.198)"/><text y="7" fill="#000" dy=".71em" letter-spacing="0" style="font-size:10px;font-family:PTSans-Regular;font-style:normal;font-weight:400;font-stretch:normal" transform="translate(31 90.698)">0 km</text></g><g class="tick"><path stroke="#646464" stroke-width=".4" d="M0 0v7" transform="translate(99.5 86.198)"/><text y="7" fill="#000" dy=".71em" letter-spacing="0" style="font-size:10px;font-family:PTSans-Regular;font-style:normal;font-weight:400;font-stretch:normal" transform="translate(99.5 90.698)">2 km</text></g><g class="tick"><path stroke="#646464" stroke-width=".4" d="M0 0v7" transform="translate(168 86.198)"/><text y="7" fill="#000" dy=".71em" letter-spacing="0" style="font-size:10px;font-family:PTSans-Regular;font-style:normal;font-weight:400;font-stretch:normal" transform="translate(168 90.698)">4 km</text></g><g class="tick"><path stroke="#646464" stroke-width=".4" d="M0 0v7" transform="translate(236.5 86.198)"/><text y="7" fill="#000" dy=".71em" letter-spacing="0" style="font-size:10px;font-family:PTSans-Regular;font-style:normal;font-weight:400;font-stretch:normal" transform="translate(236.5 90.698)">6 km</text></g><g class="tick"><path stroke="#646464" stroke-width=".4" d="M0 0v7" transform="translate(305 86.198)"/><text y="7" fill="#000" dy=".71em" letter-spacing="0" style="font-size:10px;font-family:PTSans-Regular;font-style:normal;font-weight:400;font-stretch:normal" transform="translate(305 90.698)">8 km</text></g><g class="tick"><path stroke="#646464" stroke-width=".4" d="M0 0v7" transform="translate(373.5 86.198)"/><text y="7" fill="#000" dy=".71em" letter-spacing="0" style="font-size:10px;font-family:PTSans-Regular;font-style:normal;font-weight:400;font-stretch:normal" transform="translate(373.5 90.698)">10 km</text></g><g class="tick"><path stroke="#646464" stroke-width=".4" d="M0 0v7" transform="translate(442 86.198)"/><text y="7" fill="#000" dy=".71em" letter-spacing="0" style="font-size:10px;font-family:PTSans-Regular;font-style:normal;font-weight:400;font-stretch:normal" transform="translate(442 90.698)">12 km</text></g></g></g></g></g><g id="Bullet_Total_Distance"><defs><clipPath id="clip49vlo1mnmnu"><path d="M0 0h473v117.198H0z"/></clipPath></defs><g xmlns:ns9605567="http://www.datylon.com/dbi" ns9605567:type="visualization" clip-path="url(#clip49vlo1mnmnu)" transform="translate(24.553 121.71)"><defs class="viz_defs"><linearGradient id="linear_gradient_4l914x2seua" gradientTransform="rotate(360 0 1)"><stop id="linear_gradient_4l914x2seua-stop-1" offset="0" stop-color="#7B23FF" stop-opacity=".17"/><stop id="linear_gradient_4l914x2seua-stop-2" offset="1" stop-color="#A10DFF" stop-opacity="1"/></linearGradient></defs><g class="chart-group"><g class="benchmark" transform="translate(31 31)"><defs><clipPath id="ranges_rounding_zv1t7wsuq8"><path d="M0 0h411v55.198H0V0z"/></clipPath></defs><path fill="#FFF" d="M0 0h171.25v55.198H0z" class="percentile" clip-path="url(#ranges_rounding_zv1t7wsuq8)"/><path fill="#F2F2F2" d="M171.25 0H274v55.198H171.25z" class="percentile" clip-path="url(#ranges_rounding_zv1t7wsuq8)"/><path fill="#E2E2E2" d="M274 0h137v55.198H274z" class="percentile" clip-path="url(#ranges_rounding_zv1t7wsuq8)"/><path fill="none" stroke="#646464" stroke-width="0" d="M0 0h411v55.198H0V0z" clip-path="url(#ranges_rounding_zv1t7wsuq8)"/></g><g class="bencmark-bar-labels"><text class="label_js7il6hl5m" dy="0" letter-spacing="0" style="font-size:9px;font-family:PTSans-BoldItalic;font-style:normal;font-weight:400;font-stretch:normal" transform="translate(31 26)">Bad</text><text class="label_3aoaks7z57" dy="0" letter-spacing="0" style="font-size:9px;font-family:PTSans-BoldItalic;font-style:normal;font-weight:400;font-stretch:normal" transform="translate(202.25 26)">Acceptable</text><text class="label_hixq1poe1fc" dy="0" letter-spacing="0" style="font-size:9px;font-family:PTSans-BoldItalic;font-style:normal;font-weight:400;font-stretch:normal" transform="translate(305 26)">Good</text></g><g class="bar" transform="translate(31 31)"><defs><clipPath id="bars_rounding_op14o1xpj3i"><path d="M0 16.283h159.545a12 11.316 0 0 1 12 11.316 12 11.316 0 0 1-12 11.315H0V27.6z"/></clipPath></defs><path fill="#7B23FF" d="M0 16.283h171.545v22.631H0z" class="bar" clip-path="url(#bars_rounding_op14o1xpj3i)" style="fill:url(#linear_gradient_4l914x2seua)"/><path fill="none" stroke-opacity="0" stroke-width="0" d="M0 16.283h159.545a12 11.316 0 0 1 12 11.316 12 11.316 0 0 1-12 11.315H0V27.6z" clip-path="url(#bars_rounding_op14o1xpj3i)"/></g><path stroke-opacity="0" stroke-width="8.533" d="M32 9A23 23 0 1 1 9 32 23 23 0 0 1 32 9m0-9a32 32 0 1 0 32 32A32 32 0 0 0 32 0Z" class="datamark" style="fill-opacity:1" transform="matrix(.23438 0 0 .23438 379.7 51.099)"/><g fill="none" class="x-axis" font-family="sans-serif" font-size="10" text-anchor="middle"><path stroke="#646464" stroke-width=".4" d="M.5.5h411" class="domain" transform="translate(30.5 85.698)"/><g class="tick"><path stroke="#646464" stroke-width=".4" d="M0 0v7" transform="translate(31 86.198)"/><text y="7" fill="#000" dy=".71em" letter-spacing="0" style="font-size:10px;font-family:PTSans-Regular;font-style:normal;font-weight:400;font-stretch:normal" transform="translate(31 90.698)">0 km</text></g><g class="tick"><path stroke="#646464" stroke-width=".4" d="M0 0v7" transform="translate(99.5 86.198)"/><text y="7" fill="#000" dy=".71em" letter-spacing="0" style="font-size:10px;font-family:PTSans-Regular;font-style:normal;font-weight:400;font-stretch:normal" transform="translate(99.5 90.698)">100 km</text></g><g class="tick"><path stroke="#646464" stroke-width=".4" d="M0 0v7" transform="translate(168 86.198)"/><text y="7" fill="#000" dy=".71em" letter-spacing="0" style="font-size:10px;font-family:PTSans-Regular;font-style:normal;font-weight:400;font-stretch:normal" transform="translate(168 90.698)">200 km</text></g><g class="tick"><path stroke="#646464" stroke-width=".4" d="M0 0v7" transform="translate(236.5 86.198)"/><text y="7" fill="#000" dy=".71em" letter-spacing="0" style="font-size:10px;font-family:PTSans-Regular;font-style:normal;font-weight:400;font-stretch:normal" transform="translate(236.5 90.698)">300 km</text></g><g class="tick"><path stroke="#646464" stroke-width=".4" d="M0 0v7" transform="translate(305 86.198)"/><text y="7" fill="#000" dy=".71em" letter-spacing="0" style="font-size:10px;font-family:PTSans-Regular;font-style:normal;font-weight:400;font-stretch:normal" transform="translate(305 90.698)">400 km</text></g><g class="tick"><path stroke="#646464" stroke-width=".4" d="M0 0v7" transform="translate(373.5 86.198)"/><text y="7" fill="#000" dy=".71em" letter-spacing="0" style="font-size:10px;font-family:PTSans-Regular;font-style:normal;font-weight:400;font-stretch:normal" transform="translate(373.5 90.698)">500 km</text></g><g class="tick"><path stroke="#646464" stroke-width=".4" d="M0 0v7" transform="translate(442 86.198)"/><text y="7" fill="#000" dy=".71em" letter-spacing="0" style="font-size:10px;font-family:PTSans-Regular;font-style:normal;font-weight:400;font-stretch:normal" transform="translate(442 90.698)">600 km</text></g></g></g></g></g></g><g id="Embellishments"><path d="M55 129h411M55.135 296.693h411M55.203 464.385h411M557.135 127.693h411" style="fill:none;stroke:#000;stroke-miterlimit:10"/><circle cx="123.5" cy="79.932" r="6" style="fill:none;stroke:#000;stroke-width:1.6;stroke-miterlimit:10"/><linearGradient id="SVGID_60_" x1="118.133" x2="177.133" y1="56.125" y2="56.125" gradientUnits="userSpaceOnUse"><stop offset="0" style="stop-color:#7b23ff;stop-opacity:.17"/><stop offset="1" style="stop-color:#a10dff"/></linearGradient><path d="M171.62 62.625h-53.486v-13h53.486a5.514 5.514 0 0 1 5.514 5.514v1.973a5.515 5.515 0 0 1-5.514 5.513z" style="fill:url(#SVGID_60_)"/><text style="font-family:&quot;PTSans-BoldItalic&quot;;font-size:10px" transform="translate(60.05 59.01)">2019 result</text><text style="font-family:&quot;PTSans-BoldItalic&quot;;font-size:10px" transform="translate(65.74 82.817)">2020 goal</text></g></svg>