<svg xmlns="http://www.w3.org/2000/svg" xml:space="preserve" width="1472" height="656" style="enable-background:new 0 0 1472 656"><defs xmlns:dbi="http://www.datylon.com/dbi" dbi:type="fonts" id="datylon_font_defs"><style>@font-face{font-family:&quot;PTSans-Regular&quot;;src:url(https://s3-eu-west-1.amazonaws.com/fonts.insights.datylon.com/PTSans-Regular.ttf)format(&quot;truetype&quot;)}@font-face{font-family:&quot;PTSans-Bold&quot;;src:url(https://s3-eu-west-1.amazonaws.com/fonts.insights.datylon.com/PTSans-Bold.ttf)format(&quot;truetype&quot;)}</style></defs><g id="Labels"><path d="M0 0h1472v656H0z" style="fill:#d8d8d8"/><path d="M63 208h192v32H63z" style="fill:none"/><text transform="translate(212.484 220.6)"><tspan x="0" y="0" style="font-family:&quot;PTSans-Bold&quot;;font-size:18px">Profit</tspan><tspan x="34.786" y="12" style="font-family:&quot;PTSans-Regular&quot;;font-size:10px">%</tspan></text><path d="M912 104h80v32h-80z" style="fill:none"/><text transform="translate(930.742 116.6)"><tspan x="0" y="0" style="font-family:&quot;PTSans-Bold&quot;;font-size:18px">Profit</tspan><tspan x="17.393" y="12" style="font-family:&quot;PTSans-Regular&quot;;font-size:10px">%</tspan></text><path d="M63 304h192v32H63z" style="fill:none"/><text transform="translate(107.924 316.6)"><tspan x="0" y="0" style="font-family:&quot;PTSans-Bold&quot;;font-size:18px">Average Order Size</tspan><tspan x="122.847" y="12" style="font-family:&quot;PTSans-Regular&quot;;font-size:10px">U.S. $</tspan></text><path d="M1025 104h80v32h-80z" style="fill:none"/><text transform="translate(1026.39 116.6)"><tspan x="0" y="0" style="font-family:&quot;PTSans-Bold&quot;;font-size:18px">Avg Order</tspan><tspan x="26.495" y="12" style="font-family:&quot;PTSans-Regular&quot;;font-size:10px">U.S. $</tspan></text><path d="M63 400h192v32H63z" style="fill:none"/><text transform="translate(135.661 412.6)"><tspan x="0" y="0" style="font-family:&quot;PTSans-Bold&quot;;font-size:18px">New Customers</tspan><tspan x="94.019" y="12" style="font-family:&quot;PTSans-Regular&quot;;font-size:10px">Count</tspan></text><path d="M1136 104h80v32h-80z" style="fill:none"/><text transform="translate(1139.938 116.6)"><tspan x="0" y="0" style="font-family:&quot;PTSans-Bold&quot;;font-size:18px">New Cust</tspan><tspan x="23.403" y="12" style="font-family:&quot;PTSans-Regular&quot;;font-size:10px">Count</tspan></text><path d="M63 496h192v32H63z" style="fill:none"/><text transform="translate(86.918 508.6)"><tspan x="0" y="0" style="font-family:&quot;PTSans-Bold&quot;;font-size:18px">Customer Satisfaction</tspan><tspan x="101.933" y="12" style="font-family:&quot;PTSans-Regular&quot;;font-size:10px">Top Rating of 5</tspan></text><path d="M1248 104h80v32h-80z" style="fill:none"/><text transform="translate(1257.508 116.6)"><tspan x="0" y="0" style="font-family:&quot;PTSans-Bold&quot;;font-size:18px">Cust sat</tspan><tspan x="-2.583" y="12" style="font-family:&quot;PTSans-Regular&quot;;font-size:10px">Top Rating of 5</tspan></text><path d="M63 112h192v32H63z" style="fill:none"/><text transform="translate(188.653 124.6)"><tspan x="0" y="0" style="font-family:&quot;PTSans-Bold&quot;;font-size:18px">Revenue</tspan><tspan x="5.888" y="12" style="font-family:&quot;PTSans-Regular&quot;;font-size:10px">U.S. $ (1,000s)</tspan></text><path d="M800 104h80v32h-80z" style="fill:none"/><text transform="translate(806.826 116.6)"><tspan x="0" y="0" style="font-family:&quot;PTSans-Bold&quot;;font-size:18px">Revenue</tspan><tspan x="2.944" y="12" style="font-family:&quot;PTSans-Regular&quot;;font-size:10px">U.S. $ (1,000s)</tspan></text></g><g id="Charts"><g id="Revenue_hor"><defs><clipPath id="clipivu5y538cwn"><path d="M0 0h448v96H0z"/></clipPath></defs><g xmlns:ns9605567="http://www.datylon.com/dbi" ns9605567:type="visualization" clip-path="url(#clipivu5y538cwn)" transform="translate(256 80)"><g class="chart-group"><g class="benchmark" transform="translate(20 20)"><defs><clipPath id="ranges_rounding_kkuhk8c8ucq"><path d="M0 0h408v44.8H0z"/></clipPath></defs><path fill="#3A6665" fill-opacity=".7" d="M0 0h204v44.8H0z" class="percentile" clip-path="url(#ranges_rounding_kkuhk8c8ucq)"/><path fill="#66B892" fill-opacity=".7" d="M204 0h108.8v44.8H204z" class="percentile" clip-path="url(#ranges_rounding_kkuhk8c8ucq)"/><path fill="#EFFEE3" fill-opacity=".7" d="M312.8 0H408v44.8h-95.2z" class="percentile" clip-path="url(#ranges_rounding_kkuhk8c8ucq)"/></g><g class="bar" transform="translate(20 20)"><defs><clipPath id="bars_rounding_ly88xtgqwe7"><path d="M0 15.68v13.44h367.2V15.68z"/></clipPath></defs><path fill="#3F3F3F" d="M0 15.68h367.2v13.44H0z" class="bar" clip-path="url(#bars_rounding_ly88xtgqwe7)"/></g><path stroke="#3F3F3F" stroke-width="3" d="M360 24.48v35.84"/><g fill="none" class="x-axis" font-family="sans-serif" font-size="10" text-anchor="middle"><g class="tick" transform="translate(20 67.3)"><path stroke="#646464" d="M0 0v10" transform="translate(0 -2.5)"/><text id="gtext" y="10" fill="#000" dy=".71em" letter-spacing="0" opacity="1" style="font-size:12px;font-family:PTSans-Regular">0</text></g><g class="tick"><path stroke="#646464" d="M0 0v10" transform="translate(88 64.8)"/><text y="10" fill="#000" dy=".71em" letter-spacing="0" style="font-size:12px;font-family:PTSans-Regular" transform="translate(88 67.3)">50</text></g><g class="tick"><path stroke="#646464" d="M0 0v10" transform="translate(156 64.8)"/><text y="10" fill="#000" dy=".71em" letter-spacing="0" style="font-size:12px;font-family:PTSans-Regular" transform="translate(156 67.3)">100</text></g><g class="tick"><path stroke="#646464" d="M0 0v10" transform="translate(224 64.8)"/><text y="10" fill="#000" dy=".71em" letter-spacing="0" style="font-size:12px;font-family:PTSans-Regular" transform="translate(224 67.3)">150</text></g><g class="tick"><path stroke="#646464" d="M0 0v10" transform="translate(292 64.8)"/><text y="10" fill="#000" dy=".71em" letter-spacing="0" style="font-size:12px;font-family:PTSans-Regular" transform="translate(292 67.3)">200</text></g><g class="tick"><path stroke="#646464" d="M0 0v10" transform="translate(360 64.8)"/><text y="10" fill="#000" dy=".71em" letter-spacing="0" style="font-size:12px;font-family:PTSans-Regular" transform="translate(360 67.3)">250</text></g><g class="tick"><path stroke="#646464" d="M0 0v10" transform="translate(428 64.8)"/><text y="10" fill="#000" dy=".71em" letter-spacing="0" style="font-size:12px;font-family:PTSans-Regular" transform="translate(428 67.3)">300</text></g></g></g></g></g><g id="Revenue_ver"><defs><clipPath id="clipt4zgdc0oppk"><path d="M0 0h95.5v432.042H0z"/></clipPath></defs><g xmlns:ns9605567="http://www.datylon.com/dbi" ns9605567:type="visualization" clip-path="url(#clipt4zgdc0oppk)" transform="translate(768.5 128)"><g class="chart-group"><g class="benchmark" transform="translate(50 20)"><defs><clipPath id="ranges_rounding_djtb4w19vqf"><path d="M0 0h45.5v392.042H0V0z"/></clipPath></defs><path fill="#842418" fill-opacity=".7" d="M0 196.021h45.5v196.021H0z" class="percentile" clip-path="url(#ranges_rounding_djtb4w19vqf)"/><path fill="#C5895A" fill-opacity=".7" d="M0 91.477h45.5v104.545H0z" class="percentile" clip-path="url(#ranges_rounding_djtb4w19vqf)"/><path fill="#F4EDE0" fill-opacity=".7" d="M0 0h45.5v91.477H0z" class="percentile" clip-path="url(#ranges_rounding_djtb4w19vqf)"/></g><g class="bar" transform="translate(50 20)"><defs><clipPath id="bars_rounding_cej8w6w9jq"><path d="M15.925 39.204v352.838h13.65V39.204z"/></clipPath></defs><path fill="#3F3F3F" d="M15.925 39.204h13.65v352.838h-13.65z" class="bar" clip-path="url(#bars_rounding_cej8w6w9jq)"/></g><path stroke="#3F3F3F" stroke-width="3" d="M54.55 85.34h36.4"/><g fill="none" class="y-axis" font-family="sans-serif" font-size="10" text-anchor="end"><g class="tick"><path stroke="#646464" d="M0 0h-10" transform="translate(50 412.042)"/><text x="-10" fill="#000" dy=".32em" letter-spacing="0" style="font-size:12px;font-family:PTSans-Regular" transform="translate(47.5 412.042)">0</text></g><g class="tick"><path stroke="#646464" d="M0 0h-10" transform="translate(50 346.702)"/><text x="-10" fill="#000" dy=".32em" letter-spacing="0" style="font-size:12px;font-family:PTSans-Regular" transform="translate(47.5 346.702)">50</text></g><g class="tick"><path stroke="#646464" d="M0 0h-10" transform="translate(50 281.362)"/><text x="-10" fill="#000" dy=".32em" letter-spacing="0" style="font-size:12px;font-family:PTSans-Regular" transform="translate(47.5 281.362)">100</text></g><g class="tick"><path stroke="#646464" d="M0 0h-10" transform="translate(50 216.021)"/><text x="-10" fill="#000" dy=".32em" letter-spacing="0" style="font-size:12px;font-family:PTSans-Regular" transform="translate(47.5 216.021)">150</text></g><g class="tick"><path stroke="#646464" d="M0 0h-10" transform="translate(50 150.68)"/><text x="-10" fill="#000" dy=".32em" letter-spacing="0" style="font-size:12px;font-family:PTSans-Regular" transform="translate(47.5 150.68)">200</text></g><g class="tick"><path stroke="#646464" d="M0 0h-10" transform="translate(50 85.34)"/><text x="-10" fill="#000" dy=".32em" letter-spacing="0" style="font-size:12px;font-family:PTSans-Regular" transform="translate(47.5 85.34)">250</text></g><g class="tick"><path stroke="#646464" d="M0 0h-10" transform="translate(50 20)"/><text x="-10" fill="#000" dy=".32em" letter-spacing="0" style="font-size:12px;font-family:PTSans-Regular" transform="translate(47.5 20)">300</text></g></g></g></g></g><g id="Profit_hor"><defs><clipPath id="clipyzdyuvaww4"><path d="M0 0h448v96H0z"/></clipPath></defs><g xmlns:ns9605567="http://www.datylon.com/dbi" ns9605567:type="visualization" clip-path="url(#clipyzdyuvaww4)" transform="translate(256.5 176.5)"><g class="chart-group"><g class="benchmark" transform="translate(20 20)"><defs><clipPath id="ranges_rounding_ovd97an7ri"><path d="M0 0h408v44.8H0z"/></clipPath></defs><path fill="#3A6665" fill-opacity=".7" d="M0 0h272v44.8H0z" class="percentile" clip-path="url(#ranges_rounding_ovd97an7ri)"/><path fill="#66B892" fill-opacity=".7" d="M272 0h68v44.8h-68z" class="percentile" clip-path="url(#ranges_rounding_ovd97an7ri)"/><path fill="#EFFEE3" fill-opacity=".7" d="M340 0h68v44.8h-68z" class="percentile" clip-path="url(#ranges_rounding_ovd97an7ri)"/></g><g class="bar" transform="translate(20 20)"><defs><clipPath id="bars_rounding_wmok2ch05w"><path d="M0 15.68v13.44h312.8V15.68z"/></clipPath></defs><path fill="#3F3F3F" d="M0 15.68h312.8v13.44H0z" class="bar" clip-path="url(#bars_rounding_wmok2ch05w)"/></g><path stroke="#3F3F3F" stroke-width="3" d="M387.2 24.48v35.84"/><g fill="none" class="x-axis" font-family="sans-serif" font-size="10" text-anchor="middle"><g class="tick"><path stroke="#646464" d="M0 0v10" transform="translate(20 64.8)"/><text y="10" fill="#000" dy=".71em" letter-spacing="0" style="font-size:12px;font-family:PTSans-Regular" transform="translate(20 67.3)">0%</text></g><g class="tick"><path stroke="#646464" d="M0 0v10" transform="translate(88 64.8)"/><text y="10" fill="#000" dy=".71em" letter-spacing="0" style="font-size:12px;font-family:PTSans-Regular" transform="translate(88 67.3)">5%</text></g><g class="tick"><path stroke="#646464" d="M0 0v10" transform="translate(156 64.8)"/><text y="10" fill="#000" dy=".71em" letter-spacing="0" style="font-size:12px;font-family:PTSans-Regular" transform="translate(156 67.3)">10%</text></g><g class="tick"><path stroke="#646464" d="M0 0v10" transform="translate(224 64.8)"/><text y="10" fill="#000" dy=".71em" letter-spacing="0" style="font-size:12px;font-family:PTSans-Regular" transform="translate(224 67.3)">15%</text></g><g class="tick"><path stroke="#646464" d="M0 0v10" transform="translate(292 64.8)"/><text y="10" fill="#000" dy=".71em" letter-spacing="0" style="font-size:12px;font-family:PTSans-Regular" transform="translate(292 67.3)">20%</text></g><g class="tick"><path stroke="#646464" d="M0 0v10" transform="translate(360 64.8)"/><text y="10" fill="#000" dy=".71em" letter-spacing="0" style="font-size:12px;font-family:PTSans-Regular" transform="translate(360 67.3)">25%</text></g><g class="tick"><path stroke="#646464" d="M0 0v10" transform="translate(428 64.8)"/><text y="10" fill="#000" dy=".71em" letter-spacing="0" style="font-size:12px;font-family:PTSans-Regular" transform="translate(428 67.3)">30%</text></g></g></g></g></g><g id="Profit_ver"><defs><clipPath id="clipfhljyi7eb4c"><path d="M0 0h95.5v432.042H0z"/></clipPath></defs><g xmlns:ns9605567="http://www.datylon.com/dbi" ns9605567:type="visualization" clip-path="url(#clipfhljyi7eb4c)" transform="translate(879.5 128)"><g class="chart-group"><g class="benchmark" transform="translate(50 20)"><defs><clipPath id="ranges_rounding_ja1lmazmer"><path d="M0 0h45.5v392.042H0V0z"/></clipPath></defs><path fill="#842418" fill-opacity=".7" d="M0 130.681h45.5v261.362H0z" class="percentile" clip-path="url(#ranges_rounding_ja1lmazmer)"/><path fill="#C5895A" fill-opacity=".7" d="M0 65.34h45.5v65.34H0z" class="percentile" clip-path="url(#ranges_rounding_ja1lmazmer)"/><path fill="#F4EDE0" fill-opacity=".7" d="M0 0h45.5v65.34H0z" class="percentile" clip-path="url(#ranges_rounding_ja1lmazmer)"/></g><g class="bar" transform="translate(50 20)"><defs><clipPath id="bars_rounding_nk44m45466b"><path d="M15.925 91.477v300.565h13.65V91.477z"/></clipPath></defs><path fill="#3F3F3F" d="M15.925 91.477h13.65v300.566h-13.65z" class="bar" clip-path="url(#bars_rounding_nk44m45466b)"/></g><path stroke="#3F3F3F" stroke-width="3" d="M54.55 59.204h36.4"/><g fill="none" class="y-axis" font-family="sans-serif" font-size="10" text-anchor="end"><g class="tick"><path stroke="#646464" d="M0 0h-10" transform="translate(50 412.042)"/><text x="-10" fill="#000" dy=".32em" letter-spacing="0" style="font-size:12px;font-family:PTSans-Regular" transform="translate(47.5 412.042)">0%</text></g><g class="tick"><path stroke="#646464" d="M0 0h-10" transform="translate(50 346.702)"/><text x="-10" fill="#000" dy=".32em" letter-spacing="0" style="font-size:12px;font-family:PTSans-Regular" transform="translate(47.5 346.702)">5%</text></g><g class="tick"><path stroke="#646464" d="M0 0h-10" transform="translate(50 281.362)"/><text x="-10" fill="#000" dy=".32em" letter-spacing="0" style="font-size:12px;font-family:PTSans-Regular" transform="translate(47.5 281.362)">10%</text></g><g class="tick"><path stroke="#646464" d="M0 0h-10" transform="translate(50 216.021)"/><text x="-10" fill="#000" dy=".32em" letter-spacing="0" style="font-size:12px;font-family:PTSans-Regular" transform="translate(47.5 216.021)">15%</text></g><g class="tick"><path stroke="#646464" d="M0 0h-10" transform="translate(50 150.68)"/><text x="-10" fill="#000" dy=".32em" letter-spacing="0" style="font-size:12px;font-family:PTSans-Regular" transform="translate(47.5 150.68)">20%</text></g><g class="tick"><path stroke="#646464" d="M0 0h-10" transform="translate(50 85.34)"/><text x="-10" fill="#000" dy=".32em" letter-spacing="0" style="font-size:12px;font-family:PTSans-Regular" transform="translate(47.5 85.34)">25%</text></g><g class="tick"><path stroke="#646464" d="M0 0h-10" transform="translate(50 20)"/><text x="-10" fill="#000" dy=".32em" letter-spacing="0" style="font-size:12px;font-family:PTSans-Regular" transform="translate(47.5 20)">30%</text></g></g></g></g></g><g id="Order_size_hor"><defs><clipPath id="clip14gcbhp3oya"><path d="M0 0h448v96H0z"/></clipPath></defs><g xmlns:ns9605567="http://www.datylon.com/dbi" ns9605567:type="visualization" clip-path="url(#clip14gcbhp3oya)" transform="translate(255.5 271.5)"><g class="chart-group"><g class="benchmark" transform="translate(20 20)"><defs><clipPath id="ranges_rounding_usurozmsxd"><path d="M0 0h408v44.8H0z"/></clipPath></defs><path fill="#3A6665" fill-opacity=".7" d="M0 0h238v44.8H0z" class="percentile" clip-path="url(#ranges_rounding_usurozmsxd)"/><path fill="#66B892" fill-opacity=".7" d="M238 0h102v44.8H238z" class="percentile" clip-path="url(#ranges_rounding_usurozmsxd)"/><path fill="#EFFEE3" fill-opacity=".7" d="M340 0h68v44.8h-68z" class="percentile" clip-path="url(#ranges_rounding_usurozmsxd)"/></g><g class="bar" transform="translate(20 20)"><defs><clipPath id="bars_rounding_x9np58bgno"><path d="M0 15.68v13.44h224.4V15.68z"/></clipPath></defs><path fill="#3F3F3F" d="M0 15.68h224.4v13.44H0z" class="bar" clip-path="url(#bars_rounding_x9np58bgno)"/></g><path stroke="#3F3F3F" stroke-width="3" d="M394 24.48v35.84"/><g fill="none" class="x-axis" font-family="sans-serif" font-size="10" text-anchor="middle"><g class="tick"><path stroke="#646464" d="M0 0v10" transform="translate(20 64.8)"/><text y="10" fill="#000" dy=".71em" letter-spacing="0" style="font-size:12px;font-family:PTSans-Regular" transform="translate(20 67.3)">0</text></g><g class="tick"><path stroke="#646464" d="M0 0v10" transform="translate(88 64.8)"/><text y="10" fill="#000" dy=".71em" letter-spacing="0" style="font-size:12px;font-family:PTSans-Regular" transform="translate(88 67.3)">100</text></g><g class="tick"><path stroke="#646464" d="M0 0v10" transform="translate(156 64.8)"/><text y="10" fill="#000" dy=".71em" letter-spacing="0" style="font-size:12px;font-family:PTSans-Regular" transform="translate(156 67.3)">200</text></g><g class="tick"><path stroke="#646464" d="M0 0v10" transform="translate(224 64.8)"/><text y="10" fill="#000" dy=".71em" letter-spacing="0" style="font-size:12px;font-family:PTSans-Regular" transform="translate(224 67.3)">300</text></g><g class="tick"><path stroke="#646464" d="M0 0v10" transform="translate(292 64.8)"/><text y="10" fill="#000" dy=".71em" letter-spacing="0" style="font-size:12px;font-family:PTSans-Regular" transform="translate(292 67.3)">400</text></g><g class="tick"><path stroke="#646464" d="M0 0v10" transform="translate(360 64.8)"/><text y="10" fill="#000" dy=".71em" letter-spacing="0" style="font-size:12px;font-family:PTSans-Regular" transform="translate(360 67.3)">500</text></g><g class="tick"><path stroke="#646464" d="M0 0v10" transform="translate(428 64.8)"/><text y="10" fill="#000" dy=".71em" letter-spacing="0" style="font-size:12px;font-family:PTSans-Regular" transform="translate(428 67.3)">600</text></g></g></g></g></g><g id="Avg_Order_ver"><defs><clipPath id="clipdcy9jwk6lhf"><path d="M0 0h95.5v432.042H0z"/></clipPath></defs><g xmlns:ns9605567="http://www.datylon.com/dbi" ns9605567:type="visualization" clip-path="url(#clipdcy9jwk6lhf)" transform="translate(992.5 128)"><g class="chart-group"><g class="benchmark" transform="translate(50 20)"><defs><clipPath id="ranges_rounding_cjw6wqgwbj7"><path d="M0 0h45.5v392.042H0V0z"/></clipPath></defs><path fill="#842418" fill-opacity=".7" d="M0 163.351h45.5v228.691H0z" class="percentile" clip-path="url(#ranges_rounding_cjw6wqgwbj7)"/><path fill="#C5895A" fill-opacity=".7" d="M0 65.34h45.5v98.011H0z" class="percentile" clip-path="url(#ranges_rounding_cjw6wqgwbj7)"/><path fill="#F4EDE0" fill-opacity=".7" d="M0 0h45.5v65.34H0z" class="percentile" clip-path="url(#ranges_rounding_cjw6wqgwbj7)"/></g><g class="bar" transform="translate(50 20)"><defs><clipPath id="bars_rounding_on7rhuhsvdg"><path d="M15.925 176.419v215.623h13.65V176.42z"/></clipPath></defs><path fill="#3F3F3F" d="M15.925 176.419h13.65v215.623h-13.65z" class="bar" clip-path="url(#bars_rounding_on7rhuhsvdg)"/></g><path stroke="#3F3F3F" stroke-width="3" d="M54.55 52.67h36.4"/><g fill="none" class="y-axis" font-family="sans-serif" font-size="10" text-anchor="end"><g class="tick"><path stroke="#646464" d="M0 0h-10" transform="translate(50 412.042)"/><text x="-10" fill="#000" dy=".32em" letter-spacing="0" style="font-size:12px;font-family:PTSans-Regular" transform="translate(46.5 412.042)">0</text></g><g class="tick"><path stroke="#646464" d="M0 0h-10" transform="translate(50 346.702)"/><text x="-10" fill="#000" dy=".32em" letter-spacing="0" style="font-size:12px;font-family:PTSans-Regular" transform="translate(46.5 346.702)">100</text></g><g class="tick"><path stroke="#646464" d="M0 0h-10" transform="translate(50 281.362)"/><text x="-10" fill="#000" dy=".32em" letter-spacing="0" style="font-size:12px;font-family:PTSans-Regular" transform="translate(46.5 281.362)">200</text></g><g class="tick"><path stroke="#646464" d="M0 0h-10" transform="translate(50 216.021)"/><text x="-10" fill="#000" dy=".32em" letter-spacing="0" style="font-size:12px;font-family:PTSans-Regular" transform="translate(46.5 216.021)">300</text></g><g class="tick"><path stroke="#646464" d="M0 0h-10" transform="translate(50 150.68)"/><text x="-10" fill="#000" dy=".32em" letter-spacing="0" style="font-size:12px;font-family:PTSans-Regular" transform="translate(46.5 150.68)">400</text></g><g class="tick"><path stroke="#646464" d="M0 0h-10" transform="translate(50 85.34)"/><text x="-10" fill="#000" dy=".32em" letter-spacing="0" style="font-size:12px;font-family:PTSans-Regular" transform="translate(46.5 85.34)">500</text></g><g class="tick"><path stroke="#646464" d="M0 0h-10" transform="translate(50 20)"/><text x="-10" fill="#000" dy=".32em" letter-spacing="0" style="font-size:12px;font-family:PTSans-Regular" transform="translate(46.5 20)">600</text></g></g></g></g></g><g id="New_customers_hor"><defs><clipPath id="clip3hin8kqgrzu"><path d="M0 0h448v96H0z"/></clipPath></defs><g xmlns:ns9605567="http://www.datylon.com/dbi" ns9605567:type="visualization" clip-path="url(#clip3hin8kqgrzu)" transform="translate(256.5 368.5)"><g class="chart-group"><g class="benchmark" transform="translate(20 20)"><defs><clipPath id="ranges_rounding_y6u6sevn5w"><path d="M0 0h408v44.8H0z"/></clipPath></defs><path fill="#3A6665" fill-opacity=".7" d="M0 0h228.48v44.8H0z" class="percentile" clip-path="url(#ranges_rounding_y6u6sevn5w)"/><path fill="#66B892" fill-opacity=".7" d="M228.48 0h97.92v44.8h-97.92z" class="percentile" clip-path="url(#ranges_rounding_y6u6sevn5w)"/><path fill="#EFFEE3" fill-opacity=".7" d="M326.4 0H408v44.8h-81.6z" class="percentile" clip-path="url(#ranges_rounding_y6u6sevn5w)"/></g><g class="bar" transform="translate(20 20)"><defs><clipPath id="bars_rounding_hseuy2dvsr4"><path d="M0 15.68v13.44h277.44V15.68z"/></clipPath></defs><path fill="#3F3F3F" d="M0 15.68h277.44v13.44H0z" class="bar" clip-path="url(#bars_rounding_hseuy2dvsr4)"/></g><path stroke="#3F3F3F" stroke-width="3" d="M362.72 24.48v35.84"/><g fill="none" class="x-axis" font-family="sans-serif" font-size="10" text-anchor="middle"><g class="tick"><path stroke="#646464" d="M0 0v10" transform="translate(20 64.8)"/><text y="10" fill="#000" dy=".71em" letter-spacing="0" style="font-size:12px;font-family:PTSans-Regular" transform="translate(20 67.3)">0</text></g><g class="tick"><path stroke="#646464" d="M0 0v10" transform="translate(101.6 64.8)"/><text y="10" fill="#000" dy=".71em" letter-spacing="0" style="font-size:12px;font-family:PTSans-Regular" transform="translate(101.6 67.3)">500</text></g><g class="tick"><path stroke="#646464" d="M0 0v10" transform="translate(183.2 64.8)"/><text y="10" fill="#000" dy=".71em" letter-spacing="0" style="font-size:12px;font-family:PTSans-Regular" transform="translate(183.2 67.3)">1,000</text></g><g class="tick"><path stroke="#646464" d="M0 0v10" transform="translate(264.8 64.8)"/><text y="10" fill="#000" dy=".71em" letter-spacing="0" style="font-size:12px;font-family:PTSans-Regular" transform="translate(264.8 67.3)">1,500</text></g><g class="tick"><path stroke="#646464" d="M0 0v10" transform="translate(346.4 64.8)"/><text y="10" fill="#000" dy=".71em" letter-spacing="0" style="font-size:12px;font-family:PTSans-Regular" transform="translate(346.4 67.3)">2,000</text></g><g class="tick"><path stroke="#646464" d="M0 0v10" transform="translate(428 64.8)"/><text y="10" fill="#000" dy=".71em" letter-spacing="0" style="font-size:12px;font-family:PTSans-Regular" transform="translate(428 67.3)">2,500</text></g></g></g></g></g><g id="New_customers_ver"><defs><clipPath id="clip5x874u57bop"><path d="M0 0h96v432.5H0z"/></clipPath></defs><g xmlns:ns9605567="http://www.datylon.com/dbi" ns9605567:type="visualization" clip-path="url(#clip5x874u57bop)" transform="translate(1103.5 128)"><g class="chart-group"><g class="benchmark" transform="translate(50 20)"><defs><clipPath id="ranges_rounding_3app86ycfcg"><path d="M0 0h46v392.5H0V0z"/></clipPath></defs><path fill="#842418" fill-opacity=".7" d="M0 172.7h46v219.8H0z" class="percentile" clip-path="url(#ranges_rounding_3app86ycfcg)"/><path fill="#C5895A" fill-opacity=".7" d="M0 78.5h46v94.2H0z" class="percentile" clip-path="url(#ranges_rounding_3app86ycfcg)"/><path fill="#F4EDE0" fill-opacity=".7" d="M0 0h46v78.5H0z" class="percentile" clip-path="url(#ranges_rounding_3app86ycfcg)"/></g><g class="bar" transform="translate(50 20)"><defs><clipPath id="bars_rounding_wxyecsou8ub"><path d="M16.1 125.6v266.9h13.8V125.6z"/></clipPath></defs><path fill="#3F3F3F" d="M16.1 125.6h13.8v266.9H16.1z" class="bar" clip-path="url(#bars_rounding_wxyecsou8ub)"/></g><path stroke="#3F3F3F" stroke-width="3" d="M54.6 82.8h36.8"/><g fill="none" class="y-axis" font-family="sans-serif" font-size="10" text-anchor="end"><g class="tick"><path stroke="#646464" d="M0 0h-10" transform="translate(50 412.5)"/><text x="-10" fill="#000" dy=".32em" letter-spacing="0" style="font-size:12px;font-family:PTSans-Regular" transform="translate(46.5 412.5)">0</text></g><g class="tick"><path stroke="#646464" d="M0 0h-10" transform="translate(50 334)"/><text x="-10" fill="#000" dy=".32em" letter-spacing="0" style="font-size:12px;font-family:PTSans-Regular" transform="translate(46.5 334)">500</text></g><g class="tick"><path stroke="#646464" d="M0 0h-10" transform="translate(50 255.5)"/><text x="-10" fill="#000" dy=".32em" letter-spacing="0" style="font-size:12px;font-family:PTSans-Regular" transform="translate(46.5 255.5)">1,000</text></g><g class="tick"><path stroke="#646464" d="M0 0h-10" transform="translate(50 177)"/><text x="-10" fill="#000" dy=".32em" letter-spacing="0" style="font-size:12px;font-family:PTSans-Regular" transform="translate(46.5 177)">1,500</text></g><g class="tick"><path stroke="#646464" d="M0 0h-10" transform="translate(50 98.5)"/><text x="-10" fill="#000" dy=".32em" letter-spacing="0" style="font-size:12px;font-family:PTSans-Regular" transform="translate(46.5 98.5)">2,000</text></g><g class="tick"><path stroke="#646464" d="M0 0h-10" transform="translate(50 20)"/><text x="-10" fill="#000" dy=".32em" letter-spacing="0" style="font-size:12px;font-family:PTSans-Regular" transform="translate(46.5 20)">2,500</text></g></g></g></g></g><g id="Customer_Satisfaction_hor"><defs><clipPath id="cliph7equcmymrn"><path d="M0 0h448v96H0z"/></clipPath></defs><g xmlns:ns9605567="http://www.datylon.com/dbi" ns9605567:type="visualization" clip-path="url(#cliph7equcmymrn)" transform="translate(255.5 464.5)"><g class="chart-group"><g class="benchmark" transform="translate(20 20)"><defs><clipPath id="ranges_rounding_ggc7n97023a"><path d="M0 0h408v44.8H0z"/></clipPath></defs><path fill="#3A6665" fill-opacity=".7" d="M0 0h293.76v44.8H0z" class="percentile" clip-path="url(#ranges_rounding_ggc7n97023a)"/><path fill="#66B892" fill-opacity=".7" d="M293.76 0h65.28v44.8h-65.28z" class="percentile" clip-path="url(#ranges_rounding_ggc7n97023a)"/><path fill="#EFFEE3" fill-opacity=".7" d="M359.04 0H408v44.8h-48.96z" class="percentile" clip-path="url(#ranges_rounding_ggc7n97023a)"/></g><g class="bar" transform="translate(20 20)"><defs><clipPath id="bars_rounding_22o7llo3jd2"><path d="M0 15.68v13.44h383.52V15.68z"/></clipPath></defs><path fill="#3F3F3F" d="M0 15.68h383.52v13.44H0z" class="bar" clip-path="url(#bars_rounding_22o7llo3jd2)"/></g><path stroke="#3F3F3F" stroke-width="3" d="M387.2 24.48v35.84"/><g fill="none" class="x-axis" font-family="sans-serif" font-size="10" text-anchor="middle"><g class="tick"><path stroke="#646464" d="M0 0v10" transform="translate(20 64.8)"/><text y="10" fill="#000" dy=".71em" letter-spacing="0" style="font-size:12px;font-family:PTSans-Regular" transform="translate(20 67.3)">0</text></g><g class="tick"><path stroke="#646464" d="M0 0v10" transform="translate(101.6 64.8)"/><text y="10" fill="#000" dy=".71em" letter-spacing="0" style="font-size:12px;font-family:PTSans-Regular" transform="translate(101.6 67.3)">1</text></g><g class="tick"><path stroke="#646464" d="M0 0v10" transform="translate(183.2 64.8)"/><text y="10" fill="#000" dy=".71em" letter-spacing="0" style="font-size:12px;font-family:PTSans-Regular" transform="translate(183.2 67.3)">2</text></g><g class="tick"><path stroke="#646464" d="M0 0v10" transform="translate(264.8 64.8)"/><text y="10" fill="#000" dy=".71em" letter-spacing="0" style="font-size:12px;font-family:PTSans-Regular" transform="translate(264.8 67.3)">3</text></g><g class="tick"><path stroke="#646464" d="M0 0v10" transform="translate(346.4 64.8)"/><text y="10" fill="#000" dy=".71em" letter-spacing="0" style="font-size:12px;font-family:PTSans-Regular" transform="translate(346.4 67.3)">4</text></g><g class="tick"><path stroke="#646464" d="M0 0v10" transform="translate(428 64.8)"/><text y="10" fill="#000" dy=".71em" letter-spacing="0" style="font-size:12px;font-family:PTSans-Regular" transform="translate(428 67.3)">5</text></g></g></g></g></g><g id="Customer_satisfaction_ver"><defs><clipPath id="clipnmadkzp25fg"><path d="M0 0h95.5v432.042H0z"/></clipPath></defs><g xmlns:ns9605567="http://www.datylon.com/dbi" ns9605567:type="visualization" clip-path="url(#clipnmadkzp25fg)" transform="translate(1216.5 128)"><g class="chart-group"><g class="benchmark" transform="translate(50 20)"><defs><clipPath id="ranges_rounding_s50ik6ib3f"><path d="M0 0h45.5v392.042H0V0z"/></clipPath></defs><path fill="#842418" fill-opacity=".7" d="M0 109.772h45.5v282.27H0z" class="percentile" clip-path="url(#ranges_rounding_s50ik6ib3f)"/><path fill="#C5895A" fill-opacity=".7" d="M0 47.045h45.5v62.727H0z" class="percentile" clip-path="url(#ranges_rounding_s50ik6ib3f)"/><path fill="#F4EDE0" fill-opacity=".7" d="M0 0h45.5v47.045H0z" class="percentile" clip-path="url(#ranges_rounding_s50ik6ib3f)"/></g><g class="bar" transform="translate(50 20)"><defs><clipPath id="bars_rounding_j8ertfdr50a"><path d="M15.925 23.523v368.52h13.65V23.522z"/></clipPath></defs><path fill="#3F3F3F" d="M15.925 23.523h13.65v368.52h-13.65z" class="bar" clip-path="url(#bars_rounding_j8ertfdr50a)"/></g><path stroke="#3F3F3F" stroke-width="3" d="M54.55 59.204h36.4"/><g fill="none" class="y-axis" font-family="sans-serif" font-size="10" text-anchor="end"><g class="tick"><path stroke="#646464" d="M0 0h-10" transform="translate(50 412.042)"/><text x="-10" fill="#000" dy=".32em" letter-spacing="0" style="font-size:12px;font-family:PTSans-Regular" transform="translate(46.5 412.042)">0</text></g><g class="tick"><path stroke="#646464" d="M0 0h-10" transform="translate(50 333.634)"/><text x="-10" fill="#000" dy=".32em" letter-spacing="0" style="font-size:12px;font-family:PTSans-Regular" transform="translate(46.5 333.634)">1</text></g><g class="tick"><path stroke="#646464" d="M0 0h-10" transform="translate(50 255.225)"/><text x="-10" fill="#000" dy=".32em" letter-spacing="0" style="font-size:12px;font-family:PTSans-Regular" transform="translate(46.5 255.225)">2</text></g><g class="tick"><path stroke="#646464" d="M0 0h-10" transform="translate(50 176.817)"/><text x="-10" fill="#000" dy=".32em" letter-spacing="0" style="font-size:12px;font-family:PTSans-Regular" transform="translate(46.5 176.817)">3</text></g><g class="tick"><path stroke="#646464" d="M0 0h-10" transform="translate(50 98.408)"/><text x="-10" fill="#000" dy=".32em" letter-spacing="0" style="font-size:12px;font-family:PTSans-Regular" transform="translate(46.5 98.408)">4</text></g><g class="tick"><path stroke="#646464" d="M0 0h-10" transform="translate(50 20)"/><text x="-10" fill="#000" dy=".32em" letter-spacing="0" style="font-size:12px;font-family:PTSans-Regular" transform="translate(46.5 20)">5</text></g></g></g></g></g></g></svg>