<svg xmlns="http://www.w3.org/2000/svg" width="1400" height="500"><g class="focusWrapper" transform="translate(50 20)"><defs><clipPath id="a"><path d="M0 0h1320v450H0z"/></clipPath></defs><g class="x axis" style="font-size:13px"><g class="tick" style="opacity:1"><path d="M88 459"/><text y="3" dy=".71em" style="text-anchor:middle" transform="translate(88 459)">2000</text></g><g class="tick" style="opacity:1"><path d="M264 459"/><text y="3" dy=".71em" style="text-anchor:middle" transform="translate(264 459)">2002</text></g><g class="tick" style="opacity:1"><path d="M440 459"/><text y="3" dy=".71em" style="text-anchor:middle" transform="translate(440 459)">2004</text></g><g class="tick" style="opacity:1"><path d="M616 459"/><text y="3" dy=".71em" style="text-anchor:middle" transform="translate(616 459)">2006</text></g><g class="tick" style="opacity:1"><path d="M792 459"/><text y="3" dy=".71em" style="text-anchor:middle" transform="translate(792 459)">2008</text></g><g class="tick" style="opacity:1"><path d="M968 459"/><text y="3" dy=".71em" style="text-anchor:middle" transform="translate(968 459)">2010</text></g><g class="tick" style="opacity:1"><path d="M1144 459"/><text y="3" dy=".71em" style="text-anchor:middle" transform="translate(1144 459)">2012</text></g><g class="tick" style="opacity:1"><path d="M1320 459"/><text y="3" dy=".71em" style="text-anchor:middle" transform="translate(1320 459)">2014</text></g><path d="M0 459h1320" class="domain"/></g><g class="y axis"><g class="tick" style="opacity:1"><path d="M-10 22.5"/><text x="-3" dy=".32em" style="text-anchor:end" transform="translate(-10 22.5)">1</text></g><g class="tick" style="opacity:1"><path d="M-10 67.5"/><text x="-3" dy=".32em" style="text-anchor:end" transform="translate(-10 67.5)">2</text></g><g class="tick" style="opacity:1"><path d="M-10 112.5"/><text x="-3" dy=".32em" style="text-anchor:end" transform="translate(-10 112.5)">3</text></g><g class="tick" style="opacity:1"><path d="M-10 157.5"/><text x="-3" dy=".32em" style="text-anchor:end" transform="translate(-10 157.5)">4</text></g><g class="tick" style="opacity:1"><path d="M-10 202.5"/><text x="-3" dy=".32em" style="text-anchor:end" transform="translate(-10 202.5)">5</text></g><g class="tick" style="opacity:1"><path d="M-10 247.5"/><text x="-3" dy=".32em" style="text-anchor:end" transform="translate(-10 247.5)">6</text></g><g class="tick" style="opacity:1"><path d="M-10 292.5"/><text x="-3" dy=".32em" style="text-anchor:end" transform="translate(-10 292.5)">7</text></g><g class="tick" style="opacity:1"><path d="M-10 337.5"/><text x="-3" dy=".32em" style="text-anchor:end" transform="translate(-10 337.5)">8</text></g><g class="tick" style="opacity:1"><path d="M-10 382.5"/><text x="-3" dy=".32em" style="text-anchor:end" transform="translate(-10 382.5)">9</text></g><g class="tick" style="opacity:1"><path d="M-10 427.5"/><text x="-3" dy=".32em" style="text-anchor:end" transform="translate(-10 427.5)">10</text></g><path d="M-10 0v450" class="domain"/><text x="-225" y="-35" class="titles" dy=".71em" style="font-size:14px;text-anchor:middle" transform="rotate(-90 -5 5)">Position in Top 10</text></g><g class="voronoi"><path d="M132 315v45h88v-45ZM220 270v45h88v-45ZM308 225v45h88v-45ZM396 225v45h88v-45ZM484 135v45h88v-45ZM572 225v45h88v-45ZM660 315v45h88v-45ZM748 315v45h88v-45ZM836 315v45h88v-45ZM924 270v45h88v-45ZM1012 270v45h88v-45ZM1100 270v45h88v-45ZM1188 315v45h88v-45ZM-50 135h94V90h-94ZM44 225v45h88v-45ZM132 180v45h88v-45ZM220 180v45h88v-45ZM308 270v45h88v-45ZM-50 270h94v-45h-94ZM44 135v45h88v-45ZM132 135v45h88v-45ZM220 225v45h88v-45ZM308 315v45h88v-45ZM396 315v45h88v-45ZM484 405v75h88v-75ZM484 360v45h88v-45ZM572 180v45h88v-45ZM660 135v45h88v-45ZM748 180v45h88v-45ZM836 180v45h88v-45ZM924 180v45h88v-45ZM1012 180v45h88v-45ZM1100 180v45h88v-45ZM1188 180v45h88v-45ZM1276 135v45h74v-45ZM748 405v75h88v-75ZM836 360v45h88v-45ZM924 360v45h88v-45ZM1012 405v75h88v-75ZM44 480v-75h-94v75ZM44 405v75h88v-75ZM132 360v45h88v-45ZM308 360v45h88v-45ZM396 405v75h88v-75ZM660 405v75h88v-75ZM748 360v45h88v-45ZM1100 405v75h88v-75ZM1188 405v75h88v-75ZM-50 45h94v-65h-94ZM44-20v65h88v-65ZM132-20v65h88v-65ZM220-20v65h88v-65ZM308-20v65h88v-65ZM396-20v65h88v-65ZM484-20v65h88v-65ZM572-20v65h88v-65ZM660-20v65h88v-65ZM748 90v45h88V90ZM836 225v45h88v-45ZM924 225v45h88v-45ZM1012 225v45h88v-45ZM1100 225v45h88v-45ZM1188 270v45h88v-45ZM1276 360v45h74v-45ZM220 135v45h88v-45ZM308 45v45h88V45ZM396 45v45h88V45ZM484 45v45h88V45ZM572 45v45h88V45ZM660 90v45h88V90ZM748-20v65h88v-65ZM836 45v45h88V45ZM924 90v45h88V90ZM1012 90v45h88V90ZM1100 45v45h88V45ZM1188 45v45h88V45ZM1276 45v45h74V45ZM-50 90h94V45h-94ZM44 45v45h88V45ZM132 90v45h88V90ZM220 90v45h88V90ZM308 135v45h88v-45ZM396 180v45h88v-45ZM484 270v45h88v-45ZM572 315v45h88v-45ZM660 360v45h88v-45ZM396 270v45h88v-45ZM484 225v45h88v-45ZM572 135v45h88v-45ZM660 45v45h88V45ZM748 45v45h88V45ZM836-20v65h88v-65ZM924-20v65h88v-65ZM1012 45v45h88V45ZM1100 90v45h88V90ZM1188 135v45h88v-45ZM1276 180v45h74v-45ZM-50 405h94v-45h-94ZM44 315v45h88v-45ZM1276 315v45h74v-45ZM1276 405v75h74v-75ZM-50 315h94v-45h-94ZM44 90v45h88V90ZM132 45v45h88V45ZM220 45v45h88V45ZM308 90v45h88V90ZM396 90v45h88V90ZM484 90v45h88V90ZM572 90v45h88V90ZM660 180v45h88v-45ZM748 135v45h88v-45ZM836 270v45h88v-45ZM924 315v45h88v-45ZM1012 315v45h88v-45ZM1100 360v45h88v-45ZM1188 360v45h88v-45ZM836 405v75h88v-75ZM924 405v75h88v-75ZM1012 360v45h88v-45ZM1100 315v45h88v-45ZM1188 225v45h88v-45ZM1276 225v45h74v-45ZM132 405v75h88v-75ZM220 405v75h88v-75ZM308 180v45h88v-45ZM396 135v45h88v-45ZM484 180v45h88v-45ZM572 270v45h88v-45ZM660 270v45h88v-45ZM748 225v45h88v-45ZM836 90v45h88V90ZM924 135v45h88v-45ZM1012 135v45h88v-45ZM1100 135v45h88v-45ZM1188 90v45h88V90ZM1276 90v45h74V90ZM-50 225h94v-45h-94ZM44 270v45h88v-45ZM132 270v45h88v-45ZM220 360v45h88v-45ZM308 405v75h88v-75ZM396 360v45h88v-45ZM484 315v45h88v-45ZM572 405v75h88v-75ZM-50 180h94v-45h-94ZM44 180v45h88v-45ZM132 225v45h88v-45ZM220 315v45h88v-45ZM572 360v45h88v-45ZM660 225v45h88v-45ZM748 270v45h88v-45ZM836 135v45h88v-45ZM924 45v45h88V45ZM1012-20v65h88v-65ZM1100-20v65h88v-65ZM1188-20v65h88v-65ZM1276-20v65h74v-65ZM-50 360h94v-45h-94ZM44 360v45h88v-45ZM1276 270v45h74v-45Z" class="voronoiCells"/></g><g class="focus Abigail" style="opacity:.7"><path d="M-880 4207.5c2.83-5.787 64.747-168.11 88-180s73.663 104.663 88 90 87.3-265.52 88-270 87.77-852.413 88-855 87.54-1121.357 88-1125 84.108-260.05 88-270 84.708-170.74 88-180 85.876-307.399 88-315 58.667-315 88-315H0c29.333 0 84.108-170.05 88-180s78.764-256.376 88-270 63.091-34.502 88-45 58.667-45 88-45h88c29.333 0 58.667-90 88-90s73.663 75.337 88 90 58.667 90 88 90h176c29.333 0 58.667-45 88-45h176c29.333 0 79.253 31.58 88 45s87.173 356.617 88 360" class="line" clip-path="url(#a)" style="pointer-events:none;stroke-linejoin:round;opacity:.7;stroke-width:6;stroke:#ffc600"/></g><g class="focus Alexis" style="opacity:.7"><path d="M-1496 4162.5c.54-2.763 73.663-435.337 88-450s73.854 241.064 88 270 304.563 395.05 352 360 87.505-221.223 88-225 87.78-1167.47 88-1170 87.35-850.685 88-855 86.92-309.475 88-315 87.101-579.945 88-585 85.565-396.907 88-405 84.108-170.05 88-180 58.667-270 88-270h88c29.333 0 76.865-75.765 88-90s58.667-135 88-135 64.747 123.11 88 135 58.667-45 88-45h88c29.333 0 79.253 76.58 88 90s79.253 166.58 88 180 68.055 76.316 88 90 77.825 31.038 88 45 60.467 217.96 88 225 79.253-166.58 88-180 60.467-97.04 88-90 85.565 126.907 88 135 87.241 445.343 88 450 85.903 622.443 88 630 87.597 266.584 88 270 87.967 1844.302 88 1845" class="line" clip-path="url(#a)" style="pointer-events:none;stroke-linejoin:round;opacity:.7;stroke-width:8;stroke:#fec606"/></g><g class="focus Alice" style="opacity:.7"><path d="M-10472 337.5c7.169 7.331 58.667 90 88 90s60.467-97.04 88-90 58.667 135 88 135h264c29.333 0 64.747 123.11 88 135s64.747-33.11 88-45 60.467-52.04 88-45 73.663 75.337 88 90 58.667 90 88 90 69.532-75.834 88-90 69.532-59.166 88-45 58.667 180 88 180h88c29.333 0 60.467-217.96 88-225s60.467 187.04 88 180 73.663-210.337 88-225 69.532 30.834 88 45 58.667 90 88 90 73.663-75.337 88-90 58.667-90 88-90 69.532 75.834 88 90 64.747 56.89 88 45 76.865-120.765 88-135 60.467-82.96 88-90 58.667 45 88 45h88c29.333 0 58.667 45 88 45h88c29.333 0 58.667 45 88 45h176c29.333 0 64.747 33.11 88 45s58.667 45 88 45h352c29.333 0 58.667 90 88 90h440c29.333 0 58.667 90 88 90h88c29.333 0 73.663 75.337 88 90s60.467 82.96 88 90 58.667-45 88-45 58.667 45 88 45h88c29.333 0 73.663 30.337 88 45s58.667 135 88 135h88c29.333 0 69.532 75.834 88 90s64.747 33.11 88 45 69.532 30.834 88 45 69.532 75.834 88 90 69.532 30.834 88 45 81.021 77.51 88 90 73.663 210.337 88 225 58.667-45 88-45h88c29.333 0 79.253 121.58 88 135l88 135c8.747 13.42 76.865 120.765 88 135s79.253 76.58 88 90 82.341 168.426 88 180 83.34 169.278 88 180 85.183 216.358 88 225 84.708 305.74 88 315 85.183 171.358 88 180 85.876 352.399 88 360 86.525 263.59 88 270-659.882 198.623 88 495 4253.643-658.773 5104-675" class="line" clip-path="url(#a)" style="pointer-events:none;stroke-linejoin:round;opacity:.7;stroke-width:2;stroke:#fec60b"/></g><g class="focus Amanda" style="opacity:.7"><path d="M-10472 3982.5c7.169-7.331 64.747-101.89 88-90s81.021 167.51 88 180 60.467 127.96 88 135 73.663-75.337 88-90 60.42-83.044 88-90 79.084 31.508 88 45 79.084 211.508 88 225 58.667 45 88 45h88c1217.333 0 6066.652-305.468 7216-585s87.594-356.572 88-360 87.735-1122.227 88-1125 87.676-716.934 88-720 87.212-940.256 88-945 75.605-165.51 88-180 73.237-30.334 88-45 79.253-121.58 88-135 73.663-120.337 88-135 58.667-45 88-45 58.667 45 88 45h176c29.333 0 58.667 45 88 45h88c29.333 0 58.667-45 88-45h176c29.333 0 58.667 45 88 45h176c29.333 0 73.663-59.663 88-45s58.667 225 88 225h88c29.333 0 76.865 30.765 88 45s81.021 167.51 88 180 79.253 121.58 88 135l88 135c8.747 13.42 85.565 126.907 88 135s86.525 443.59 88 450 85.876 307.399 88 315 86.346 308.234 88 315 87.017 399.72 88 405 87.3 535.52 88 540 87.675 582.843 88 585" class="line" clip-path="url(#a)" style="pointer-events:none;stroke-linejoin:round;opacity:.7;stroke-width:8;stroke:#fdc710"/></g><g class="focus Amy" style="opacity:.7"><path d="M-3608 4342.5c.38-2.328 86.92-534.475 88-540s86.525-353.59 88-360 86.346-398.234 88-405 85.876-307.399 88-315 86.525-308.59 88-315 86.808-444.207 88-450 85.876-397.399 88-405 87.176-220.152 88-225 78.515-796.28 88-810 64.732 56.88 88 45 79.157-301.54 88-315 58.667-45 88-45h176c29.333 0 58.667-135 88-135h264c29.333 0 64.747 33.11 88 45l88 45c23.253 11.89 73.663 30.337 88 45s60.467 127.96 88 135 64.747-101.89 88-90 79.253 166.58 88 180 65.264 77.753 88 90 78.424 31.245 88 45 83.34 304.278 88 315 73.663 75.337 88 90 81.021 77.51 88 90 84.708 215.74 88 225 83.34 259.278 88 270 82.341 123.426 88 135 85.565 216.907 88 225 87.176 355.152 88 360 87.35 670.685 88 675 73.794 480.34 88 495 75.182-59.55 88-45 86.346 533.234 88 540 82.341 168.426 88 180l88 180" class="line" clip-path="url(#a)" style="pointer-events:none;stroke-linejoin:round;opacity:.7;stroke-width:8;stroke:#fdc716"/></g><g class="focus Angela" style="opacity:.7"><path d="m-3784 4162.5 88-225c3.892-9.95 86.92-219.475 88-225s87.594-671.572 88-675 87.51-806.24 88-810 84.377-530.349 88-540 79.157-76.54 88-90 85.876-262.399 88-270 86.92-354.475 88-360 78.93-526.444 88-540 61.786-35.957 88-45 58.667-90 88-90h176c29.333 0 58.667-45 88-45h176c29.333 0 60.467 52.04 88 45s58.667-90 88-90h176c29.333 0 64.747 33.11 88 45l88 45c23.253 11.89 76.865 30.765 88 45s81.021 167.51 88 180 69.426 120.863 88 135 77.426 30.916 88 45 84.108 260.05 88 270 83.34 169.278 88 180 81.021 212.51 88 225 73.663 75.337 88 90 76.865 75.765 88 90 85.183 126.358 88 135 85.876 397.399 88 405 85.183 216.358 88 225 86.525 308.59 88 315 85.876 442.399 88 450 85.183 171.358 88 180 85.183 351.358 88 360 83.34 169.278 88 180 82.341 213.426 88 225 84.108 125.05 88 135 69.532 329.166 88 315 87.017-444.72 88-450 84.944-486.04 88-495 71.83-104.59 88-90 86.592 265.679 88 270" class="line" clip-path="url(#a)" style="pointer-events:none;stroke-linejoin:round;opacity:.7;stroke-width:6;stroke:#fcc61b"/></g><g class="focus Anna" style="opacity:.7"><path d="M-10472 67.5h1672c29.333 0 58.667 45 88 45h352c29.333 0 58.667 45 88 45h176c29.333 0 64.747 33.11 88 45s58.667 45 88 45h176c29.333 0 58.667 45 88 45h88c29.333 0 58.667-45 88-45s58.667 45 88 45h176c29.333 0 58.667 135 88 135h176c29.333 0 64.747 33.11 88 45l88 45c23.253 11.89 58.667 45 88 45h176c29.333 0 69.532 75.834 88 90s58.667 45 88 45h88c29.333 0 81.021 167.51 88 180s76.865 120.765 88 135 60.467 82.96 88 90 73.663-59.663 88-45 81.021 212.51 88 225 76.865 75.765 88 90 76.865 120.765 88 135 76.865 75.765 88 90 73.663 120.337 88 135 73.663 30.337 88 45 84.708 125.74 88 135 85.565 351.907 88 360 82.341 213.426 88 225 82.341 123.426 88 135 86.133 217.838 88 225 58.667 450 88 450h88c29.333 0 86.678 578.914 88 585s64.747 213.11 88 225 60.467-127.96 88-135 73.663 75.337 88 90 69.532 75.834 88 90 60.298 23.752 88 45 65.279 152.942 176 180 411.326 36.227 528 45 132 45 176 45h88c44 0 144.763-115.033 176-135s64.747-33.11 88-45 76.865-30.765 88-45 73.663-194.663 88-180 78.444 346.252 88 360 42.305 69.347 88 45 229.973-556.045 264-585 76.844 59.24 88 45 83.34-259.278 88-270 72.71-120.347 88-135 75.954-30.57 88-45 85.183-171.358 88-180 86.133-352.838 88-360 84.708-305.74 88-315 76.865-165.765 88-180 60.467-52.04 88-45 60.467 82.96 88 90 60.467-52.04 88-45 60.467 97.04 88 90 79.253-121.58 88-135 64.747-123.11 88-135 69.532 30.834 88 45 60.467 97.04 88 90 83.34-124.278 88-135 75.954-255.57 88-270 72.71 30.347 88 45 60.467 127.96 88 135 82.341-78.426 88-90 86.346-263.234 88-270 82.341-438.426 88-450 58.667 90 88 90h88c29.333 0 73.663-75.337 88-90s83.34-79.278 88-90 84.108-305.05 88-315 64.747-123.11 88-135 64.747 33.11 88 45 58.667 45 88 45 60.467-52.04 88-45 58.667 90 88 90h88c29.333 0 73.663 120.337 88 135s69.532 30.834 88 45 59.335 85.624 88 90 79.192-58.446 88-45 82.341 483.426 88 495 58.667-135 88-135h88c29.333 0 80.831 82.669 88 90" class="line" clip-path="url(#a)" style="pointer-events:none;stroke-linejoin:round;opacity:.7;stroke-width:8;stroke:#fcc61f"/></g><g class="focus Annie" style="opacity:.7"><path d="M-10472 472.5c4.374-6.71 60.467-127.96 88-135s60.467 82.96 88 90 58.667-45 88-45 58.667 45 88 45h88c29.333 0 64.747 123.11 88 135s60.467-52.04 88-45 60.467 82.96 88 90 60.467-52.04 88-45 58.667 90 88 90 58.667-90 88-90 73.663 75.337 88 90 69.532 75.834 88 90 64.747 33.11 88 45 58.667 45 88 45h88c29.333 0 60.467 52.04 88 45s58.667-90 88-90h88c29.333 0 64.747-303.11 88-315s58.667 225 88 225h88c29.333 0 58.667 45 88 45h176c29.333 0 64.747 33.11 88 45s69.532 30.834 88 45 69.532 75.834 88 90 64.747 56.89 88 45 64.747-146.89 88-135 82.341 213.426 88 225 79.253 121.58 88 135l88 135 88 135c8.747 13.42 58.667 135 88 135h88c29.333 0 58.667-45 88-45s58.667 45 88 45 58.667-45 88-45h88c29.333 0 76.865 59.235 88 45s64.747-258.11 88-270 64.747 168.11 88 180 58.667-90 88-90h88c29.333 0 73.663 75.337 88 90s69.532 75.834 88 90 58.667 45 88 45h88c29.333 0 73.663 120.337 88 135s58.667 45 88 45h88c29.333 0 69.532-165.834 88-180s58.667 45 88 45h88c29.333 0 78.876 301.421 88 315s60.723 37.511 88 45 79.052 31.494 88 45 83.34 304.278 88 315 76.865 75.765 88 90 79.253 121.58 88 135 84.108 125.05 88 135 83.34 304.278 88 315 58.667 90 88 90 85.183-98.642 88-90 44 1260 88 1260h176" class="line" clip-path="url(#a)" style="pointer-events:none;stroke-linejoin:round;opacity:.7;stroke-width:2;stroke:#fcc523"/></g><g class="focus Ashley" style="opacity:.7"><path d="M-1848 3847.5c.154-1.494 87.79-852.524 88-855s87.494-1211.182 88-1215 86.978-264.62 88-270 87.51-761.24 88-765 79.128-571.527 88-585 59.985-38.922 88-45 58.667-45 88-45h440c29.333 0 58.667-45 88-45h88c29.333 0 58.667 45 88 45h176c29.333 0 58.667 45 88 45h88c29.333 0 69.532 30.834 88 45s58.667 90 88 90 58.667-90 88-90h88c29.333 0 73.663 75.337 88 90s58.667 90 88 90h88c29.333 0 73.663 75.337 88 90s68.055 76.316 88 90 77.825 31.038 88 45 80.1 211.988 88 225 84.19 80.14 88 90 87.101 399.945 88 405 87.017 579.72 88 585 87.3 355.52 88 360 87.808 763.335 88 765" class="line" clip-path="url(#a)" style="pointer-events:none;stroke-linejoin:round;opacity:.7;stroke-width:12;stroke:#fbc427"/></g><g class="focus Ava" style="opacity:.7"><path d="M264 3667.5c.03-.666 87.863-1932.997 88-1935s87.51-626.24 88-630 86.92-714.475 88-720 76.865-165.765 88-180 58.667-45 88-45 58.667 45 88 45h440c29.333 0 76.374-39.055 88-45" class="line" clip-path="url(#a)" style="pointer-events:none;stroke-linejoin:round;opacity:.7;stroke-width:6;stroke:#fbc22b"/></g><g class="focus Barbara" style="opacity:.7"><path d="M-7568 4207.5c.38-2.328 75.827-525.547 88-540s72.909 59.66 88 45 86.346-443.234 88-450 85.565-261.907 88-270 58.667-315 88-315h88c29.333 0 86.92-579.475 88-585s58.667-315 88-315h88c29.333 0 85.183-306.358 88-315s84.708-215.74 88-225 85.183-261.358 88-270l88-270c2.817-8.642 82.341-258.426 88-270s69.532-75.834 88-90 64.747-33.11 88-45 69.532-30.834 88-45 69.532-75.834 88-90 58.667-45 88-45h352c29.333 0 58.667-45 88-45h616c29.333 0 64.747 33.11 88 45s58.667 45 88 45h88c29.333 0 58.667-45 88-45s58.667 45 88 45h88c29.333 0 64.747 33.11 88 45s58.667 45 88 45h88c29.333 0 58.667 45 88 45h88c29.333 0 58.667 90 88 90h176c29.333 0 69.532 75.834 88 90s58.667 45 88 45h88c29.333 0 76.865 75.765 88 90s76.865 120.765 88 135 82.341 78.426 88 90 82.341 258.426 88 270 82.341 78.426 88 90 83.34 259.278 88 270 79.253 121.58 88 135 76.865 120.765 88 135 82.341 78.426 88 90 86.525 263.59 88 270 86.346 488.234 88 495 86.808 219.207 88 225 86.92 624.475 88 630 86.92 264.475 88 270 87.72 627.99 88 630" class="line" clip-path="url(#a)" style="pointer-events:none;stroke-linejoin:round;opacity:.7;stroke-width:8;stroke:#fbc02d"/></g><g class="focus Bertha" style="opacity:.7"><path d="M-10472 382.5h176c29.333 0 58.667-90 88-90s60.467 82.96 88 90 58.667-45 88-45h88c29.333 0 58.667-45 88-45h88c29.333 0 69.532 165.834 88 180s58.667-45 88-45h88c29.333 0 58.667 45 88 45s69.532-59.166 88-45 60.467 172.96 88 180 60.467-142.04 88-135 64.747 168.11 88 180 64.747-101.89 88-90 69.532 165.834 88 180 58.667-45 88-45h88c29.333 0 79.253 121.58 88 135s58.667 135 88 135h88c29.333 0 60.467-82.96 88-90s76.865 30.765 88 45 75.954 165.57 88 180 72.71 30.347 88 45 58.667 135 88 135h88c29.333 0 81.021 167.51 88 180s58.667 135 88 135h88c29.333 0 76.865 120.765 88 135s81.021 77.51 88 90 82.341 213.426 88 225 76.865 120.765 88 135 58.667 90 88 90h88c29.333 0 79.253 31.58 88 45s81.021 212.51 88 225 79.253 76.58 88 90 76.865 165.765 88 180 61.101 36.907 88 45 79.01 31.476 88 45 84.447 395.429 88 405 78.713 76.356 88 90 65.493 167.605 88 180 78.383 31.23 88 45 84.977 531.082 88 540 79.425 82.772 88 90" class="line" clip-path="url(#a)" style="pointer-events:none;stroke-linejoin:round;opacity:.7;stroke-width:4;stroke:#fbbd2f"/></g><g class="focus Bessie" style="opacity:.7"><path d="M-10472 1012.5c11.626-5.945 76.865-30.765 88-45s58.667-180 88-180h88c29.333 0 76.865-120.765 88-135s69.532-75.834 88-90 58.667-45 88-45 64.747 56.89 88 45 73.663-120.337 88-135 60.467-52.04 88-45 69.532 75.834 88 90 64.747 33.11 88 45 69.532 30.834 88 45 58.667 90 88 90 58.667-90 88-90 76.865 75.765 88 90 64.747 123.11 88 135 64.747-33.11 88-45 64.747-56.89 88-45 60.467 142.04 88 135 64.747-191.89 88-180 73.663 255.337 88 270 58.667-90 88-90 58.667 90 88 90h88c29.333 0 58.667-45 88-45s79.253 31.58 88 45 85.565 396.907 88 405 76.865 165.765 88 180 69.532 30.834 88 45 76.865 75.765 88 90 79.253 121.58 88 135 81.021 122.51 88 135 85.183 171.358 88 180 84.108 350.05 88 360 60.467 82.96 88 90 73.663-59.663 88-45 58.667 225 88 225h88c29.333 0 84.108-99.95 88-90s86.346 533.234 88 540 84.108 170.05 88 180 58.667 270 88 270h88c29.333 0 77.825 211.038 88 225s68.055 31.316 88 45 59.222 86.003 88 90 79.202-58.441 88-45 87.62 537.672 88 540" class="line" clip-path="url(#a)" style="pointer-events:none;stroke-linejoin:round;opacity:.7;stroke-width:2;stroke:#fbba31"/></g><g class="focus Betty" style="opacity:.7"><path d="M-8712 4477.5c42.69-7.48 234.889-60.668 264-90s85.565-306.907 88-315 84.108-260.05 88-270 82.341-168.426 88-180 83.34-169.278 88-180 58.667-225 88-225 69.532 239.166 88 225 58.667-360 88-360h88c29.333 0 64.747-123.11 88-135s73.663 59.663 88 45 85.876-217.399 88-225 86.678-398.914 88-405 86.808-399.207 88-405 87.176-445.152 88-450 86.808-579.207 88-585 84.108-260.05 88-270 81.021-167.51 88-180 76.865-120.765 88-135 69.532-75.834 88-90 64.747-33.11 88-45l88-45c23.253-11.89 58.667-45 88-45h176c29.333 0 58.667-45 88-45h528c29.333 0 58.667 90 88 90h88c29.333 0 58.667 45 88 45s58.667-45 88-45h88c29.333 0 69.532 30.834 88 45s73.663 75.337 88 90 69.532 75.834 88 90 58.667 45 88 45h88c29.333 0 73.663 30.337 88 45s79.253 121.58 88 135 72.71 120.347 88 135 75.954 30.57 88 45 82.341 168.426 88 180 81.021 167.51 88 180 79.253 121.58 88 135 73.663 120.337 88 135 73.663 30.337 88 45 58.667 135 88 135h88c29.333 0 85.876 352.399 88 360s84.108 260.05 88 270 83.34 169.278 88 180 85.876 217.399 88 225 87.439 400.981 88 405 87.476 851.115 88 855 87.46 447.237 88 450" class="line" clip-path="url(#a)" style="pointer-events:none;stroke-linejoin:round;opacity:.7;stroke-width:8;stroke:#fbb632"/></g><g class="focus Brittany" style="opacity:.7"><path d="M-1496 4207.5c.062-.952 87.841-1347.847 88-1350s87.798-1032.576 88-1035 87.594-1076.572 88-1080 79.01-391.476 88-405 61.101-36.907 88-45 73.663-30.337 88-45 58.667-135 88-135h176c29.333 0 69.532 30.834 88 45s69.532 75.834 88 90 63.091 34.502 88 45 78.764 31.376 88 45 85.183 261.358 88 270 84.708 260.74 88 270 86.133 217.838 88 225 87.658 446.85 88 450 87.917 1168.903 88 1170" class="line" clip-path="url(#a)" style="pointer-events:none;stroke-linejoin:round;opacity:.7;stroke-width:8;stroke:#fbb132"/></g><g class="focus Carol" style="opacity:.7"><path d="M-6248 3442.5c.28-2.01 87.176-625.152 88-630s86.525-398.59 88-405 87.101-354.945 88-360 87.35-625.685 88-630 86.678-533.914 88-540 83.34-259.278 88-270 72.71-120.347 88-135 75.954-30.57 88-45 58.667-180 88-180h264c29.333 0 60.467-82.96 88-90s58.667 45 88 45h352c29.333 0 69.532 30.834 88 45s58.667 90 88 90h88c29.333 0 69.532 30.834 88 45s69.532 75.834 88 90 76.865 30.765 88 45 69.532 165.834 88 180 58.667-45 88-45 58.667 45 88 45h88c29.333 0 73.663 75.337 88 90l88 90c14.337 14.663 69.532 75.834 88 90s64.747 33.11 88 45 76.865 30.765 88 45 83.34 169.278 88 180 82.341 213.426 88 225 83.34 124.278 88 135 85.183 261.358 88 270 76.865 255.765 88 270 58.667-45 88-45 79.253 31.58 88 45 87.176 355.152 88 360 87.638 671.763 88 675 87.861 898.58 88 900" class="line" clip-path="url(#a)" style="pointer-events:none;stroke-linejoin:round;opacity:.7;stroke-width:6;stroke:#fcac31"/></g><g class="focus Carolyn" style="opacity:.7"><path d="M-6336 4432.5c.827-3.383 87.101-354.945 88-360s86.808-624.207 88-630 86.525-218.59 88-225 87.35-535.685 88-540 86.92-624.475 88-630 85.565-261.907 88-270 85.183-306.358 88-315 84.108-215.05 88-225 82.341-213.426 88-225 82.341-123.426 88-135 79.253-211.58 88-225 58.667-45 88-45 69.532 59.166 88 45 76.865-165.765 88-180 58.667-45 88-45 58.667 45 88 45h88c29.333 0 58.667 45 88 45h88c29.333 0 64.747 123.11 88 135s64.747-56.89 88-45 79.253 121.58 88 135 76.865 120.765 88 135 73.663 75.337 88 90 69.532 75.834 88 90 69.532 30.834 88 45 76.865 75.765 88 90 79.253 121.58 88 135 58.667 135 88 135h88c29.333 0 83.34 169.278 88 180s79.253 211.58 88 225 58.667 45 88 45 69.532-59.166 88-45 85.876 172.399 88 180 58.667 450 88 450h88c29.333 0 73.663 75.337 88 90s58.667 90 88 90h88c29.333 0 79.253 31.58 88 45s87.176 445.152 88 450 87.675 582.843 88 585" class="line" clip-path="url(#a)" style="pointer-events:none;stroke-linejoin:round;opacity:.7;stroke-width:2;stroke:#fca730"/></g><g class="focus Chloe" style="opacity:.7"><path d="M-88 3892.5c.097-1.187 87.814-1077.673 88-1080s87.594-1121.572 88-1125 85.565-351.907 88-360 78.593-211.309 88-225 64.255-33.48 88-45 76.865-30.765 88-45 76.865-165.765 88-180 69.532-30.834 88-45 82.341-78.426 88-90 79.128-256.527 88-270 58.667-45 88-45h88c29.333 0 64.747 33.11 88 45s73.663 30.337 88 45 60.467 127.96 88 135 80.831-82.669 88-90" class="line" clip-path="url(#a)" style="pointer-events:none;stroke-linejoin:round;opacity:.7;stroke-width:2;stroke:#fda12f"/></g><g class="focus Clara" style="opacity:.7"><path d="M-10472 517.5c11.626-5.945 58.667-45 88-45h88c29.333 0 69.532-30.834 88-45s69.532-75.834 88-90 60.467-52.04 88-45 60.467 82.96 88 90 64.747-56.89 88-45 64.747 123.11 88 135 64.747-33.11 88-45 60.467-52.04 88-45 60.467 82.96 88 90 58.667-45 88-45 58.667 45 88 45h88c29.333 0 69.532 30.834 88 45s69.532 75.834 88 90 58.667 45 88 45 58.667-45 88-45h88c29.333 0 73.663 210.337 88 225s64.747-56.89 88-45 64.747 123.11 88 135 69.532-59.166 88-45 64.747 168.11 88 180 69.532-104.166 88-90 81.021 212.51 88 225 73.663 75.337 88 90 69.532 75.834 88 90 58.667 45 88 45h88c29.333 0 64.747 33.11 88 45s69.532 30.834 88 45 69.532 75.834 88 90 64.747 33.11 88 45l88 45c23.253 11.89 69.532 30.834 88 45s73.663 75.337 88 90 58.667 90 88 90h88c29.333 0 64.747 33.11 88 45s69.532 30.834 88 45 73.663 75.337 88 90 83.34 79.278 88 90 75.721 300.529 88 315 73.068-59.664 88-45 82.341 258.426 88 270 73.663 75.337 88 90 58.667 90 88 90h88c29.333 0 73.663-30.337 88-45s79.253-148.42 88-135 79.253 391.58 88 405 79.253-148.42 88-135 85.565 396.907 88 405 86.133 172.838 88 180 86.92 489.475 88 495 81.021 392.51 88 405-1040.873-67.215 88-90 5573.333 44.702 6688 45" class="line" clip-path="url(#a)" style="pointer-events:none;stroke-linejoin:round;opacity:.7;stroke-width:4;stroke:#fd9b2d"/></g><g class="focus Crystal" style="opacity:.7"><path d="M-2464 3532.5c.139-1.42 87.54-896.357 88-900s77.825-481.038 88-495 68.055 58.684 88 45 85.565-261.907 88-270 86.678-308.914 88-315 86.678-488.914 88-495 58.667-315 88-315h176c29.333 0 83.34-79.278 88-90s76.865-300.765 88-315 63.44 79.173 88 90 78.715 31.356 88 45 85.565 396.907 88 405 76.865 165.765 88 180 69.532 30.834 88 45 79.253 76.58 88 90 84.708 170.74 88 180 81.857 303.064 88 315 83.582 79.508 88 90 86.346 398.234 88 405 86.133 307.838 88 315 87.176 355.152 88 360 87.397 670.838 88 675 86.808 534.207 88 540 86.938 311.2 88 315" class="line" clip-path="url(#a)" style="pointer-events:none;stroke-linejoin:round;opacity:.7;stroke-width:2;stroke:#fe952c"/></g><g class="focus Cynthia" style="opacity:.7"><path d="M-4752 4027.5c.029-.65 87.863-1977.997 88-1980s86.808-579.207 88-585 58.667-270 88-270h88c29.333 0 81.021-167.51 88-180s76.865-120.765 88-135 82.341-78.426 88-90 82.341-258.426 88-270 60.467-82.96 88-90 64.747 56.89 88 45 73.663-120.337 88-135 58.667-45 88-45 58.667 45 88 45h88c29.333 0 58.667 45 88 45s58.667-45 88-45h88c29.333 0 60.467 82.96 88 90s58.667-45 88-45h88c29.333 0 83.34 79.278 88 90s77.105 300.827 88 315 70.34 30.642 88 45 81.021 167.51 88 180 60.467 127.96 88 135 60.467-82.96 88-90 62.234 35.413 88 45 78.876 31.421 88 45 85.876 307.399 88 315 84.708 305.74 88 315 82.341 168.426 88 180 79.253 166.58 88 180 81.021 77.51 88 90 85.565 216.907 88 225 73.663 345.337 88 360 60.467-187.04 88-180 69.532 210.834 88 225 58.667-90 88-90h88c29.333 0 86.808 174.207 88 180s86.662 668.88 88 675 64.688 146.848 88 135 58.667-225 88-225 83.34 214.278 88 225 83.34 169.278 88 180 73.663 210.337 88 225 64.747-56.89 88-45 83.626 128.29 88 135" class="line" clip-path="url(#a)" style="pointer-events:none;stroke-linejoin:round;opacity:.7;stroke-width:4;stroke:#fe8f2a"/></g><g class="focus Deborah" style="opacity:.7"><path d="M-4576 2767.5c.055-.893 87.798-1437.576 88-1440s87.176-670.152 88-675 84.708-350.74 88-360 58.667-135 88-135h88c29.333 0 58.667-45 88-45h88c29.333 0 60.467-52.04 88-45s73.663 75.337 88 90 69.532 75.834 88 90 69.532 30.834 88 45 69.532 75.834 88 90 58.667 45 88 45h88c29.333 0 69.532-59.166 88-45s69.532 165.834 88 180 58.667-45 88-45 61.591 36.211 88 45 78.954 31.453 88 45 85.565 351.907 88 360 58.667 225 88 225h88c29.333 0 58.667 270 88 270h88c29.333 0 87.176 445.152 88 450s87.3 580.52 88 585 87.51 536.24 88 540 87.397 805.838 88 810 87.339 401.957 88 405" class="line" clip-path="url(#a)" style="pointer-events:none;stroke-linejoin:round;opacity:.7;stroke-width:8;stroke:#ff8929"/></g><g class="focus Debra" style="opacity:.7"><path d="M-4312 2632.5c.033-.698 87.822-1842.72 88-1845s84.708-395.74 88-405 69.532-75.834 88-90 69.532-30.834 88-45 73.663-75.337 88-90 58.667-90 88-90 73.663 75.337 88 90 69.532 75.834 88 90 64.255 33.48 88 45 78.593 31.309 88 45 81.021 212.51 88 225 82.341 78.426 88 90 83.34 259.278 88 270 79.253 121.58 88 135 84.708 125.74 88 135 84.708 350.74 88 360 58.667 135 88 135h88c29.333 0 83.34 214.278 88 225s85.876 172.399 88 180 86.808 444.207 88 450 87.397 400.838 88 405 87.439 805.981 88 810 87.46 447.237 88 450" class="line" clip-path="url(#a)" style="pointer-events:none;stroke-linejoin:round;opacity:.7;stroke-width:8;stroke:#ff8428"/></g><g class="focus Donna" style="opacity:.7"><path d="M-6424 4027.5c.139-1.42 87.476-896.115 88-900s87.176-400.152 88-405 87.241-625.343 88-630 86.133-442.838 88-450 82.341-213.426 88-225 82.341-123.426 88-135 79.084-211.508 88-225 58.667-45 88-45h88c29.333 0 64.747-33.11 88-45l88-45c23.253-11.89 58.667-45 88-45h88c29.333 0 58.667 135 88 135s58.667-135 88-135h88c29.333 0 58.667-135 88-135h176c29.333 0 81.021-167.51 88-180s64.747-123.11 88-135 64.747 33.11 88 45l88 45c23.253 11.89 58.667 45 88 45s58.667-45 88-45 58.667 45 88 45h88c29.333 0 69.532-75.834 88-90s58.667-45 88-45h264c29.333 0 58.667-225 88-225h88c29.333 0 58.667 90 88 90h88c29.333 0 58.667-45 88-45s58.667 45 88 45h88c29.333 0 85.183 216.358 88 225s85.183 306.358 88 315 81.021 212.51 88 225 82.341 78.426 88 90 85.183 261.358 88 270 85.565 261.907 88 270 86.525 308.59 88 315 87.101 444.945 88 450 87.51 536.24 88 540 87.3 805.52 88 810 86.938 311.2 88 315" class="line" clip-path="url(#a)" style="pointer-events:none;stroke-linejoin:round;opacity:.7;stroke-width:6;stroke:#ff7e27"/></g><g class="focus Doris" style="opacity:.7"><path d="M-8536 4162.5c7.169 7.331 73.663 104.663 88 90s85.183-261.358 88-270 58.667-270 88-270h88c29.333 0 85.565-306.907 88-315s85.183-261.358 88-270 58.667-270 88-270h88c29.333 0 86.346-353.234 88-360s85.183-351.358 88-360 85.183-171.358 88-180 84.108-350.05 88-360 73.663-75.337 88-90 83.34-79.278 88-90 85.565-306.907 88-315 76.534-255.687 88-270 71.659-30.43 88-45 76.865-165.765 88-180 69.532-30.834 88-45 58.667-90 88-90h88c29.333 0 69.532-75.834 88-90s64.747-33.11 88-45 58.667-45 88-45h176c29.333 0 64.747-56.89 88-45s73.663 120.337 88 135 58.667 45 88 45h176c29.333 0 69.532 30.834 88 45s73.663 75.337 88 90 83.34 79.278 88 90 84.108 305.05 88 315 81.021 122.51 88 135 79.253 166.58 88 180 83.34 79.278 88 90 84.108 305.05 88 315 64.747 123.11 88 135 60.467-52.04 88-45 79.253 76.58 88 90 83.34 169.278 88 180 85.183 216.358 88 225 85.565 306.907 88 315 84.708 260.74 88 270 84.108 215.05 88 225 84.708 215.74 88 225 83.34 259.278 88 270 81.021 122.51 88 135 84.108 170.05 88 180 86.592 265.679 88 270" class="line" clip-path="url(#a)" style="pointer-events:none;stroke-linejoin:round;opacity:.7;stroke-width:4;stroke:#ff7927"/></g><g class="focus Dorothy" style="opacity:.7"><path d="M-9592 4162.5c.192-1.665 85.876-757.399 88-765s82.341 146.574 88 135 87.017-489.72 88-495 73.86-435.343 88-450 75.128-30.444 88-45 85.876-487.399 88-495 58.667-135 88-135h88c29.333 0 86.346-353.234 88-360s85.565-351.907 88-360 85.183-216.358 88-225 84.708-305.74 88-315 75.954-165.57 88-180 72.71-30.347 88-45 73.663-120.337 88-135 58.667-45 88-45h176c29.333 0 64.747-33.11 88-45s58.667-45 88-45h88c29.333 0 58.667-45 88-45h616c29.333 0 58.667-45 88-45h616c29.333 0 58.667 45 88 45h264c29.333 0 58.667 45 88 45h88c29.333 0 64.747 33.11 88 45s58.667 45 88 45h88c29.333 0 58.667 90 88 90h88c29.333 0 73.663 30.337 88 45s76.865 120.765 88 135 76.865 75.765 88 90 76.865 120.765 88 135 58.667 90 88 90h88c29.333 0 73.663 75.337 88 90s76.865 75.765 88 90 79.253 121.58 88 135l88 135 88 135c8.747 13.42 84.108 125.05 88 135s84.708 305.74 88 315 81.021 167.51 88 180 83.34 124.278 88 135 86.133 262.838 88 270 86.525 398.59 88 405 80.983 347.486 88 360 83.945 79.875 88 90 86.92 534.475 88 540 77.518 345.943 88 360 69.137 30.947 88 45 85.17 174.213 88 180" class="line" clip-path="url(#a)" style="pointer-events:none;stroke-linejoin:round;opacity:.7;stroke-width:8;stroke:#ff7527"/></g><g class="focus Elizabeth" style="opacity:.7"><path d="M-10472 157.5h528c29.333 0 58.667-45 88-45h264c29.333 0 58.667 45 88 45s60.467-52.04 88-45 58.667 90 88 90h176c29.333 0 60.467 82.96 88 90s58.667-45 88-45 58.667 45 88 45h88c29.333 0 58.667-45 88-45h440c29.333 0 58.667 45 88 45h440c29.333 0 58.667 45 88 45h440c29.333 0 58.667 45 88 45s58.667-45 88-45h88c29.333 0 60.467 82.96 88 90s58.667-45 88-45h88c29.333 0 60.467 82.96 88 90s58.667-45 88-45 69.532 30.834 88 45 69.532 75.834 88 90 64.747 33.11 88 45 58.667 45 88 45h88c29.333 0 64.747 33.11 88 45s58.667 45 88 45h88c29.333 0 58.667 45 88 45s58.667-45 88-45 58.667 45 88 45 58.667-45 88-45h88c29.333 0 69.532 30.834 88 45s69.532 75.834 88 90 64.747 33.11 88 45l88 45c23.253 11.89 58.667 45 88 45h88c29.333 0 64.747 123.11 88 135s58.667-45 88-45h88c29.333 0 58.667 45 88 45s64.747-33.11 88-45l88-45 88-45 88-45 88-45c23.253-11.89 58.667-45 88-45s64.747 33.11 88 45 58.667 45 88 45h176c29.333 0 73.663-30.337 88-45s64.747-123.11 88-135 64.747 33.11 88 45 58.667 45 88 45h88c29.333 0 73.663-120.337 88-135s58.667-45 88-45h88c29.333 0 60.467-142.04 88-135s69.532 165.834 88 180 60.467-52.04 88-45 69.532 75.834 88 90 69.532 59.166 88 45 79.253-166.58 88-180 69.532-75.834 88-90 64.747-56.89 88-45 73.663 120.337 88 135 64.747 56.89 88 45 64.747-123.11 88-135 64.747 56.89 88 45 76.865-120.765 88-135 58.667-90 88-90h88c29.333 0 60.467-52.04 88-45s58.667 90 88 90h88c29.333 0 58.667-45 88-45s58.667 45 88 45h264c29.333 0 58.667-45 88-45h352c29.333 0 58.667 45 88 45h88c29.333 0 58.667-45 88-45s58.667 45 88 45H88c29.333 0 60.467-52.04 88-45s58.667 90 88 90 60.467-82.96 88-90 64.747 33.11 88 45 58.667 45 88 45h88c29.333 0 64.747-33.11 88-45s60.467-52.04 88-45 69.532 75.834 88 90 58.667 45 88 45 64.747-33.11 88-45 58.667-45 88-45h88c29.333 0 87.952 1529.16 88 1530" class="line" clip-path="url(#a)" style="pointer-events:none;stroke-linejoin:round;opacity:.7;stroke-width:8;stroke:#ff7128"/></g><g class="focus Emily" style="opacity:.7"><path d="M-10472 4477.5c.54-2.763 76.865-435.765 88-450s83.34 235.722 88 225 58.667-630 88-630h88c29.333 0 85.183 261.358 88 270s84.708 260.74 88 270 69.532 239.166 88 225 76.865-345.765 88-360 73.663 149.663 88 135 64.747-326.89 88-315 79.253 391.58 88 405 58.667-45 88-45 60.467 52.04 88 45 79.253-76.58 88-90 69.532-194.166 88-180 60.467 322.04 88 315 64.747-348.11 88-360 82.341 258.426 88 270 63.567 68.135 88 90 132.708 140.535 176 135 32.933-75.92 88-90 190.667 135 264 135h176c117.333 0 431.633-20.36 528-45s58.667-45 88-45 64.747 33.11 88 45-762.666 44.251 88 45 4165.948-22.134 5016-45 87.828-1347.764 88-1350 84.356-935.325 88-945 79.278 103.408 88 90 86.525-578.59 88-585 69.532-165.834 88-180 64.747 56.89 88 45 76.865-120.765 88-135 81.021-77.51 88-90 73.663-210.337 88-225 58.667 45 88 45 58.667-45 88-45h176c29.333 0 74.524-210.382 88-225s74.524-30.382 88-45 77.825-211.038 88-225 68.055-31.316 88-45 76.865-75.765 88-90 76.865-120.765 88-135 73.663-75.337 88-90 58.667-90 88-90h88c29.333 0 58.667-90 88-90h968c29.333 0 76.865 75.765 88 90s58.667 135 88 135h264c29.333 0 69.532 30.834 88 45s80.831 82.669 88 90" class="line" clip-path="url(#a)" style="pointer-events:none;stroke-linejoin:round;opacity:.7;stroke-width:12;stroke:#fe6e29"/></g><g class="focus Emma" style="opacity:.7"><path d="M-10472 112.5h528c29.333 0 58.667 45 88 45h88c29.333 0 58.667 45 88 45h176c29.333 0 73.663 75.337 88 90s58.667 90 88 90h88c29.333 0 58.667 45 88 45h176c29.333 0 58.667 135 88 135h176c29.333 0 73.068 165.336 88 180s75.721 30.529 88 45 73.663 210.337 88 225 69.532-59.166 88-45 79.253 166.58 88 180 60.467 82.96 88 90 64.747-56.89 88-45 81.021 122.51 88 135 58.667 180 88 180h88c29.333 0 58.667 45 88 45h88c29.333 0 73.663 120.337 88 135s64.747 33.11 88 45 64.255 33.48 88 45 78.593 31.309 88 45 58.667 225 88 225h88c29.333 0 58.667-45 88-45s79.253 31.58 88 45 73.663 255.337 88 270 64.747-101.89 88-90 81.021 167.51 88 180 58.667 135 88 135h88c29.333 0 82.341 123.426 88 135s81.021 212.51 88 225 73.663 75.337 88 90 79.253 76.58 88 90 81.021 167.51 88 180 58.667 135 88 135h88c29.333 0 79.253-58.42 88-45s85.876 442.399 88 450 58.667 180 88 180 58.667-180 88-180 84.708 170.74 88 180 58.667 315 88 315 64.747-303.11 88-315 84.108 215.05 88 225-605.078-16.652 88 225 3906.132-541.695 4576-810 85.876-217.399 88-225 87.176-400.152 88-405 87.54-626.357 88-630 87.54-761.357 88-765 86.808-624.207 88-630 58.667-225 88-225h88c29.333 0 85.565-171.907 88-180s84.708-395.74 88-405 58.667-90 88-90h264c29.333 0 60.467 52.04 88 45s60.467-82.96 88-90 64.747 33.11 88 45 58.667 45 88 45h88c29.333 0 58.667-45 88-45h176" class="line" clip-path="url(#a)" style="pointer-events:none;stroke-linejoin:round;opacity:.7;stroke-width:12;stroke:#fe6a2b"/></g><g class="focus Ethel" style="opacity:.7"><path d="M-10472 1687.5c.325-2.157 78.498-571.273 88-585s64.834-33.047 88-45 79.253-166.58 88-180 76.865-75.765 88-90 58.667-135 88-135h88c29.333 0 79.253-166.58 88-180s69.532-75.834 88-90 64.747-33.11 88-45 58.667-45 88-45h88c29.333 0 58.667 45 88 45h88c29.333 0 58.667-45 88-45s60.467 52.04 88 45 58.667-90 88-90 58.667 90 88 90h88c29.333 0 58.667 45 88 45s58.667-45 88-45 58.667 45 88 45h176c29.333 0 69.532 75.834 88 90s58.667 45 88 45h264c29.333 0 58.667 45 88 45h88c29.333 0 76.865 75.765 88 90s76.865 120.765 88 135 69.532 75.834 88 90 69.532 30.834 88 45 73.663 75.337 88 90 60.467 82.96 88 90 69.532-59.166 88-45 58.667 180 88 180h88c29.333 0 73.663 75.337 88 90s58.667 90 88 90h88c29.333 0 76.534 255.687 88 270s71.659 30.43 88 45 64.747 168.11 88 180 73.663-104.663 88-90 85.876 262.399 88 270 73.713 345.338 88 360 75.248 30.459 88 45 84.708 395.74 88 405 58.667 90 88 90 73.663-104.663 88-90 85.565 261.907 88 270 84.708 305.74 88 315 85.183 171.358 88 180 79.253 346.58 88 360 73.663-104.663 88-90 85.183 261.358 88 270l88 270" class="line" clip-path="url(#a)" style="pointer-events:none;stroke-linejoin:round;opacity:.7;stroke-width:4;stroke:#fd682d"/></g><g class="focus Evelyn" style="opacity:.7"><path d="M-9240 4432.5c.38-2.328 86.133-532.838 88-540s81.021-122.51 88-135 82.341-168.426 88-180 79.253-166.58 88-180 79.253-76.58 88-90 85.183-171.358 88-180 84.708-350.74 88-360 82.341-123.426 88-135 83.34-214.278 88-225 82.341-168.426 88-180 86.678-173.914 88-180 87.439-625.981 88-630 85.183-621.358 88-630 58.667 90 88 90 69.532-75.834 88-90 64.747-33.11 88-45 73.663-30.337 88-45 73.663-120.337 88-135 64.747-33.11 88-45l88-45c23.253-11.89 58.667-45 88-45s58.667 45 88 45h264c29.333 0 58.667 45 88 45h88c29.333 0 58.667 45 88 45s58.667-45 88-45h176c29.333 0 69.532 30.834 88 45s73.663 75.337 88 90l88 90c14.337 14.663 58.667 90 88 90h88c29.333 0 70.987 210.522 88 225s76.844-59.24 88-45 79.084 301.508 88 315 60.42-51.956 88-45 76.865 75.765 88 90 76.865 120.765 88 135 73.663 75.337 88 90l88 90c14.337 14.663 84.108 80.05 88 90s84.108 350.05 88 360 76.865 75.765 88 90 58.667 135 88 135h88c29.333 0 58.667 180 88 180h88c29.333 0 86.133 352.838 88 360s83.313 304.252 88 315 82.31 78.401 88 90 85.183 261.358 88 270 82.341 258.426 88 270 73.663 75.337 88 90 79.253 76.58 88 90-643.671 145.13 88 180 3588.372 263.803 4312 180 85.876-442.399 88-450 86.525-173.59 88-180 86.808-579.207 88-585 86.346-263.234 88-270 71.29-435.476 88-450 76.71-30.727 88-45 58.667-675 88-675h88c29.333 0 85.183-666.358 88-675s73.663 149.663 88 135 60.467-322.04 88-315 87.173 356.617 88 360" class="line" clip-path="url(#a)" style="pointer-events:none;stroke-linejoin:round;opacity:.7;stroke-width:2;stroke:#fc652f"/></g><g class="focus Florence" style="opacity:.7"><path d="M-10472 607.5c7.169 7.331 60.467 97.04 88 90s64.747-123.11 88-135 60.467 52.04 88 45 58.667-90 88-90h88c29.333 0 69.532-75.834 88-90s64.747-33.11 88-45l88-45 88-45c23.253-11.89 58.667-45 88-45h176c29.333 0 64.747 33.11 88 45s58.667 45 88 45 58.667-45 88-45 58.667 45 88 45 64.747-33.11 88-45 58.667-45 88-45h88c29.333 0 64.747 33.11 88 45s58.667 45 88 45 58.667-45 88-45h88c29.333 0 73.663 30.337 88 45s64.747 123.11 88 135 58.667-45 88-45 58.667 45 88 45h176c29.333 0 58.667 45 88 45h176c29.333 0 58.667 45 88 45h88c29.333 0 58.667 45 88 45h352c29.333 0 69.532 75.834 88 90s64.747 33.11 88 45 58.667 45 88 45h88c29.333 0 79.253 76.58 88 90s79.253 166.58 88 180 73.663 75.337 88 90 79.253 76.58 88 90 81.021 167.51 88 180 79.253 121.58 88 135 82.341 123.426 88 135 83.34 214.278 88 225 76.08 165.593 88 180 84.724 80.76 88 90 87.3 535.52 88 540 86.808 579.207 88 585 71.464 255.453 88 270 76.628 30.708 88 45 85.876 397.399 88 405 84.108 215.05 88 225l88 225" class="line" clip-path="url(#a)" style="pointer-events:none;stroke-linejoin:round;opacity:.7;stroke-width:4;stroke:#fb6330"/></g><g class="focus Frances" style="opacity:.7"><path d="M-10472 1867.5c4.374 6.71 58.667 135 88 135h176c29.333 0 58.667 45 88 45h88c29.333 0 85.183-351.358 88-360s82.341-168.426 88-180 58.667-180 88-180 69.532 165.834 88 180 58.667-45 88-45 64.747 56.89 88 45 58.667-135 88-135 64.747 146.89 88 135 58.667-225 88-225h88c29.333 0 64.255-33.48 88-45s78.593-31.309 88-45 69.532-210.834 88-225 73.663 75.337 88 90 60.467 82.96 88 90 69.532-30.834 88-45 79.253-76.58 88-90 81.021-167.51 88-180 58.667-135 88-135h88c29.333 0 58.667-90 88-90s58.667 90 88 90 73.663-75.337 88-90 69.532-75.834 88-90 64.747-33.11 88-45l88-45c23.253-11.89 58.667-45 88-45h440c29.333 0 58.667-45 88-45s58.667 45 88 45h176c29.333 0 58.667 45 88 45h176c29.333 0 58.667 45 88 45s60.467-52.04 88-45 69.532 75.834 88 90 73.663 30.337 88 45 58.667 135 88 135h88c29.333 0 69.532 75.834 88 90s58.667 45 88 45 58.667-45 88-45 58.667 45 88 45h264c29.333 0 81.021 167.51 88 180s76.865 120.765 88 135 76.865 75.765 88 90 64.747 123.11 88 135 58.667-45 88-45 69.532 30.834 88 45 68.055 76.316 88 90 77.825 31.038 88 45 58.667 225 88 225h88c29.333 0 84.108 125.05 88 135s82.373 303.45 88 315 83.27 79.212 88 90 86.346 353.234 88 360 85.565 351.907 88 360 86.346 218.234 88 225 87.241 490.343 88 495 87.675 582.843 88 585" class="line" clip-path="url(#a)" style="pointer-events:none;stroke-linejoin:round;opacity:.7;stroke-width:2;stroke:#fa6032"/></g><g class="focus Hannah" style="opacity:.7"><path d="M-10472 4342.5c1554.644-5.917 7829.276-349.694 9328-675s86.215-712.987 88-720 86.737-174.045 88-180 87.568-896.468 88-900 78.688-526.346 88-540 63.627-34.004 88-45 82.341-123.426 88-135 84.108-215.05 88-225 85.876-217.399 88-225 58.667-405 88-405h88c29.333 0 76.865-75.765 88-90s58.667-135 88-135H88c29.333 0 58.667 45 88 45h88c29.333 0 64.747 33.11 88 45s69.532 30.834 88 45 69.532 75.834 88 90 61.591 36.211 88 45 78.954 31.453 88 45 85.876 352.399 88 360 73.663 255.337 88 270 64.747-101.89 88-90 60.467 172.96 88 180 64.747-123.11 88-135 73.663 30.337 88 45 83.626 128.29 88 135" class="line" clip-path="url(#a)" style="pointer-events:none;stroke-linejoin:round;opacity:.7;stroke-width:8;stroke:#f95e33"/></g><g class="focus Heather" style="opacity:.7"><path d="M-2816 3892.5c.09-1.14 87.841-1122.847 88-1125s87.76-1257.354 88-1260 87.101-669.945 88-675 84.108-305.05 88-315 72.71-120.347 88-135 75.954-30.57 88-45 76.865-165.765 88-180 58.667-45 88-45 64.747 33.11 88 45 58.667 45 88 45h88c29.333 0 60.467 82.96 88 90s69.532-59.166 88-45 79.253 166.58 88 180 60.467 97.04 88 90 58.667-135 88-135h88c29.333 0 58.667-45 88-45s58.667 45 88 45h88c29.333 0 75.721 210.529 88 225s73.068 30.336 88 45 82.341 168.426 88 180 85.183 171.358 88 180 85.876 352.399 88 360 85.565 261.907 88 270 86.525 308.59 88 315 87.397 445.838 88 450 87.658 761.85 88 765 87.439 850.981 88 855 87.339 401.957 88 405" class="line" clip-path="url(#a)" style="pointer-events:none;stroke-linejoin:round;opacity:.7;stroke-width:8;stroke:#f85c34"/></g><g class="focus Helen" style="opacity:.7"><path d="M-10472 1552.5c.827 3.383 73.663 374.663 88 360s82.341-528.426 88-540 64.747 168.11 88 180 81.021-77.51 88-90 82.341-213.426 88-225 81.021-122.51 88-135 83.34-169.278 88-180 73.663-210.337 88-225 73.663 59.663 88 45 82.341-213.426 88-225 58.667-135 88-135h88c29.333 0 76.865-120.765 88-135s69.532-75.834 88-90 58.667-45 88-45h352c29.333 0 58.667-45 88-45h1672c29.333 0 58.667 45 88 45h352c29.333 0 58.667 45 88 45h440c29.333 0 73.663 75.337 88 90s58.667 90 88 90h88c29.333 0 64.747 33.11 88 45l88 45 88 45 88 45c23.253 11.89 73.663 30.337 88 45s76.865 120.765 88 135 82.341 78.426 88 90 82.341 258.426 88 270 73.663 75.337 88 90 76.865 75.765 88 90 58.667 135 88 135h88c29.333 0 81.021 212.51 88 225s73.663 75.337 88 90 82.341 78.426 88 90 84.108 260.05 88 270 82.341 168.426 88 180 85.565 171.907 88 180 83.582 394.508 88 405 81.857 78.064 88 90 85.565 306.907 88 315 86.678 263.914 88 270 86.525 533.59 88 540 84.108 215.05 88 225l88 225" class="line" clip-path="url(#a)" style="pointer-events:none;stroke-linejoin:round;opacity:.7;stroke-width:8;stroke:#f65a34"/></g><g class="focus Ida" style="opacity:.7"><path d="M-10472 292.5h176c29.333 0 58.667 45 88 45s60.467-52.04 88-45 58.667 90 88 90 60.467-97.04 88-90 76.865 120.765 88 135 73.663 75.337 88 90l88 90c14.337 14.663 69.532 75.834 88 90s58.667 45 88 45h88c29.333 0 73.663 30.337 88 45s76.865 120.765 88 135 69.532 75.834 88 90 58.667 45 88 45h88c29.333 0 79.253 256.58 88 270s58.667 45 88 45 69.532-59.166 88-45 58.667 180 88 180h88c29.333 0 72.71 120.347 88 135s75.954 30.57 88 45 75.954 165.57 88 180 72.71 59.653 88 45 60.467-232.04 88-225 58.667 270 88 270h88c29.333 0 60.467 127.96 88 135s58.667-90 88-90h88c29.333 0 58.667 180 88 180h88c29.333 0 58.667 225 88 225h88c29.333 0 69.532 75.834 88 90s58.667 45 88 45h88c29.333 0 79.192 391.554 88 405s59.335 49.376 88 45 60.467-97.04 88-90 73.794 120.34 88 135 84.862 80.934 88 90 58.667 540 88 540h88c29.333 0 76.865 75.765 88 90s85.183 126.358 88 135 81.021 392.51 88 405 73.663-104.663 88-90 86.592 265.679 88 270" class="line" clip-path="url(#a)" style="pointer-events:none;stroke-linejoin:round;opacity:.7;stroke-width:4;stroke:#f55733"/></g><g class="focus Isabella" style="opacity:.7"><path d="M-88 3757.5c.097-1.187 87.708-1077.088 88-1080s87.568-671.468 88-675 87.54-761.357 88-765 86.465-623.468 88-630 80.794-122.373 88-135 76.865-165.765 88-180 69.532-30.834 88-45 73.663-75.337 88-90 58.667-90 88-90h88c29.333 0 58.667-45 88-45h88c29.333 0 64.747 33.11 88 45l88 45 88 45 88 45" class="line" clip-path="url(#a)" style="pointer-events:none;stroke-linejoin:round;opacity:.7;stroke-width:12;stroke:#f35432"/></g><g class="focus Jennifer" style="opacity:.7"><path d="M-3784 4342.5c.45-2.528 86.346-488.234 88-495s80.52-212.215 88-225 86.477-128.492 88-135 87.54-761.357 88-765 86.92-624.475 88-630 84.708-260.74 88-270 84.108-215.05 88-225 86.346-218.234 88-225 87.017-489.72 88-495 58.667-450 88-450h88c29.333 0 78.184-256.159 88-270s66.513-32.015 88-45 58.667-90 88-90h1232c29.333 0 69.532 75.834 88 90s58.667 45 88 45h88c29.333 0 69.532 30.834 88 45s69.532 75.834 88 90 58.667 45 88 45h88c29.333 0 81.021 122.51 88 135s79.253 166.58 88 180 69.532 75.834 88 90 64.747 33.11 88 45 58.667 45 88 45 60.467-52.04 88-45 68.055 76.316 88 90 77.825 31.038 88 45 58.667 225 88 225h88c29.333 0 76.865 75.765 88 90s84.108 125.05 88 135 84.708 305.74 88 315 85.565 171.907 88 180 87.101 399.945 88 405 87.594 581.572 88 585 87.861 898.58 88 900" class="line" clip-path="url(#a)" style="pointer-events:none;stroke-linejoin:round;opacity:.7;stroke-width:12;stroke:#f15230"/></g><g class="focus Jessica" style="opacity:.7"><path d="M-2552 4387.5c.048-.84 87.835-1527.806 88-1530s87.51-806.24 88-810 87.476-536.115 88-540 87.017-759.72 88-765 83.34-169.278 88-180 83.34-214.278 88-225 76.865-165.765 88-180 58.667-45 88-45 58.667 45 88 45 64.747-33.11 88-45 58.667-45 88-45h264c29.333 0 58.667-45 88-45h440c29.333 0 58.667 45 88 45h88c29.333 0 58.667-45 88-45h176c29.333 0 58.667 45 88 45h88c29.333 0 79.253 256.58 88 270s58.667 45 88 45 64.747-56.89 88-45 82.341 123.426 88 135 81.021 212.51 88 225 76.865 75.765 88 90 83.34 124.278 88 135 84.708 260.74 88 270 86.133 217.838 88 225 87.397 445.838 88 450 87.658 761.85 88 765 87.594 851.572 88 855 87.72 627.99 88 630" class="line" clip-path="url(#a)" style="pointer-events:none;stroke-linejoin:round;opacity:.7;stroke-width:12;stroke:#f04f2d"/></g><g class="focus Joan" style="opacity:.7"><path d="M-6600 4297.5c.062-.952 87.78-1347.47 88-1350s87.3-670.52 88-675 87.241-445.343 88-450 87.439-625.981 88-630 86.808-624.207 88-630 82.341-213.426 88-225 58.667-135 88-135h176c29.333 0 58.667 90 88 90h176c29.333 0 69.532 75.834 88 90s64.747 33.11 88 45 73.663 30.337 88 45 79.253 121.58 88 135 73.663 120.337 88 135 73.663 30.337 88 45 73.663 120.337 88 135 73.663 30.337 88 45 79.253 121.58 88 135 76.865 120.765 88 135 83.34 79.278 88 90 77.825 301.038 88 315 68.055-58.684 88-45 69.532 165.834 88 180 69.532-30.834 88-45 58.667-90 88-90h88c29.333 0 83.34 124.278 88 135s85.183 261.358 88 270 85.876 262.399 88 270 86.346 353.234 88 360l88 360c1.654 6.766 85.565 351.907 88 360s85.565 216.907 88 225 85.565 351.907 88 360 75.721 210.529 88 225 73.068 30.336 88 45 85.17 174.213 88 180" class="line" clip-path="url(#a)" style="pointer-events:none;stroke-linejoin:round;opacity:.7;stroke-width:6;stroke:#ee4b2a"/></g><g class="focus Judith" style="opacity:.7"><path d="M-5720 4207.5c.035-.715 87.828-1797.764 88-1800s86.92-489.475 88-495 87.54-401.357 88-405 87.171-985.14 88-990 81.109-167.564 88-180 64.747-168.11 88-180 69.532 75.834 88 90 58.667 45 88 45h88c29.333 0 64.747 33.11 88 45l88 45c23.253 11.89 69.532 30.834 88 45s76.865 75.765 88 90 70.987 120.522 88 135 76.844 30.76 88 45 83.34 214.278 88 225 58.667 180 88 180h88c29.333 0 58.667 225 88 225h88c29.333 0 79.253 31.58 88 45s87.101 624.945 88 630 86.525 353.59 88 360 86.525 398.59 88 405 85.183 351.358 88 360 85.183 171.358 88 180 85.183 351.358 88 360 83.34 169.278 88 180 85.183 216.358 88 225 86.938 311.2 88 315" class="line" clip-path="url(#a)" style="pointer-events:none;stroke-linejoin:round;opacity:.7;stroke-width:6;stroke:#ec4827"/></g><g class="focus Julie" style="opacity:.7"><path d="M-4224 4432.5c.28-2.01 87.3-625.52 88-630s86.133-487.838 88-495 78.047-166.111 88-180 86.55-128.642 88-135 87.708-852.088 88-855 87.3-895.52 88-900 64.747-213.11 88-225 76.865 120.765 88 135 69.532 104.166 88 90 79.084-211.508 88-225 58.667-45 88-45h88c29.333 0 82.341-258.426 88-270s69.532-75.834 88-90 64.747-56.89 88-45 58.667 135 88 135h88c29.333 0 76.865-165.765 88-180s64.747-33.11 88-45 60.467-52.04 88-45 58.667 90 88 90h88c29.333 0 79.253 76.58 88 90s81.021 167.51 88 180 76.865 120.765 88 135 76.865 75.765 88 90 79.253 121.58 88 135l88 135c8.747 13.42 82.341 123.426 88 135s83.34 214.278 88 225 83.34 169.278 88 180 84.708 215.74 88 225 83.34 259.278 88 270 79.253 121.58 88 135 84.108 125.05 88 135 85.565 306.907 88 315 85.565 261.907 88 270 87.101 309.945 88 315 86.92 669.475 88 675 86.054 220.025 88 225" class="line" clip-path="url(#a)" style="pointer-events:none;stroke-linejoin:round;opacity:.7;stroke-width:2;stroke:#ea4524"/></g><g class="focus Karen" style="opacity:.7"><path d="M-5368 2227.5c.45-2.528 86.346-488.234 88-495s86.92-219.475 88-225 86.615-668.78 88-675 73.31-120.333 88-135 58.667-45 88-45 58.667 45 88 45h88c29.333 0 69.532-30.834 88-45s69.532-75.834 88-90 64.747-33.11 88-45 58.667-45 88-45 69.532 59.166 88 45 58.667-180 88-180h88c29.333 0 58.667 45 88 45s58.667-45 88-45h88c29.333 0 69.532-30.834 88-45s69.532-75.834 88-90 58.667-45 88-45h176c29.333 0 58.667 45 88 45s58.667-45 88-45h176c29.333 0 60.467-52.04 88-45s69.532 75.834 88 90 73.663 30.337 88 45 81.021 122.51 88 135 69.532 165.834 88 180 64.747-56.89 88-45 83.34 124.278 88 135 82.341 258.426 88 270 76.865 75.765 88 90 72.71 120.347 88 135 75.954 30.57 88 45 70.34 165.642 88 180 77.105 30.827 88 45 85.876 307.399 88 315 86.133 307.838 88 315 86.678 353.914 88 360 86.133 442.838 88 450 85.565 216.907 88 225 85.565 351.907 88 360 84.108 215.05 88 225 86.678 218.914 88 225 87.675 582.843 88 585" class="line" clip-path="url(#a)" style="pointer-events:none;stroke-linejoin:round;opacity:.7;stroke-width:8;stroke:#e84221"/></g><g class="focus Kathleen" style="opacity:.7"><path d="M-7128 4432.5c5.659-11.574 171.775-347.036 176-360s84.708-350.74 88-360 85.565-126.907 88-135 73.663-435.337 88-450 84.708 260.74 88 270 81.021 212.51 88 225 58.667 90 88 90h176c29.333 0 60.467 262.96 88 270s64.747-213.11 88-225 60.467 142.04 88 135 84.108-170.05 88-180 83.34-259.278 88-270 79.253-121.58 88-135 81.021-122.51 88-135 84.108-170.05 88-180 83.34-259.278 88-270 85.565-126.907 88-135 86.678-443.914 88-450 85.183-351.358 88-360 86.346-173.234 88-180 84.977-531.082 88-540 70.85-75.545 88-90 69.532-75.834 88-90 73.663-30.337 88-45 82.341-123.426 88-135 78.593-211.309 88-225 64.255-33.48 88-45 58.667-45 88-45 58.667 45 88 45h88c29.333 0 73.663 30.337 88 45s58.667 135 88 135h88c29.333 0 58.667 135 88 135h88c29.333 0 58.667 180 88 180h88c29.333 0 79.253 76.58 88 90s79.253 166.58 88 180 58.667 90 88 90h88c29.333 0 60.467-52.04 88-45s79.253 76.58 88 90 81.021 167.51 88 180 79.253 121.58 88 135 58.667 135 88 135h88c29.333 0 76.865 75.765 88 90s84.708 125.74 88 135 85.183 351.358 88 360 86.133 172.838 88 180 86.808 489.207 88 495 85.183 351.358 88 360 79.253 166.58 88 180 60.467 97.04 88 90 58.667-135 88-135h88c29.333 0 69.532 210.834 88 225s58.667-90 88-90h88c29.333 0 83.34-214.278 88-225s79.253-166.58 88-180 76.865-75.765 88-90 58.667-135 88-135h88c29.333 0 80.245 167.064 88 180s86.488 128.514 88 135 85.043 666.169 88 675 78.182 83.1 88 90" class="line" clip-path="url(#a)" style="pointer-events:none;stroke-linejoin:round;opacity:.7;stroke-width:2;stroke:#e63e1f"/></g><g class="focus Kelly" style="opacity:.7"><path d="M-3520 3307.5c.115-1.293 87.476-986.115 88-990s85.876-307.399 88-315 85.565-306.907 88-315 69.532-255.834 88-270 64.747 146.89 88 135 83.34-214.278 88-225 81.021-167.51 88-180 85.876-127.399 88-135 82.341-483.426 88-495 82.341 123.426 88 135 81.021 212.51 88 225 69.532 75.834 88 90 73.663 59.663 88 45 81.021-212.51 88-225 58.667-90 88-90h88c29.333 0 79.253 148.42 88 135s81.021-392.51 88-405 79.253 76.58 88 90 81.021 167.51 88 180 81.021 122.51 88 135 79.253 166.58 88 180 69.532 75.834 88 90 64.747 33.11 88 45l88 45 88 45 88 45c23.253 11.89 69.532 30.834 88 45s81.021 77.51 88 90 83.34 214.278 88 225 73.068 165.336 88 180 75.721 30.529 88 45 83.34 214.278 88 225 86.133 172.838 88 180 75.128 480.444 88 495 73.86 30.343 88 45 86.92 444.475 88 450 86.346 443.234 88 450 85.183 261.358 88 270l88 270" class="line" clip-path="url(#a)" style="pointer-events:none;stroke-linejoin:round;opacity:.7;stroke-width:2;stroke:#e43b1d"/></g><g class="focus Kimberly" style="opacity:.7"><path d="M-3784 3262.5c.058-.922 86.59-1388.724 88-1395s75.71-120.527 88-135 85.565-261.907 88-270 84.708-305.74 88-315 84.108-170.05 88-180 84.708-260.74 88-270 84.108-215.05 88-225 81.021-212.51 88-225 73.663-75.337 88-90 58.667-90 88-90h88c29.333 0 64.747 33.11 88 45s58.667 45 88 45 58.667-45 88-45 58.667 45 88 45h176c29.333 0 69.532 75.834 88 90s58.667 45 88 45h88c29.333 0 79.253 31.58 88 45s73.663 210.337 88 225 64.747-33.11 88-45 60.467-52.04 88-45 69.532 75.834 88 90 62.234 35.413 88 45 78.876 31.421 88 45 73.663 300.337 88 315 73.663-120.337 88-135 64.747-56.89 88-45 81.021 122.51 88 135 81.021 167.51 88 180 79.253 121.58 88 135l88 135c8.747 13.42 72.71 120.347 88 135s75.954 30.57 88 45 69.532 194.166 88 180 64.747-303.11 88-315 83.34 214.278 88 225 85.183 171.358 88 180 85.183 351.358 88 360 64.747 168.11 88 180 76.865-104.235 88-90 84.108 305.05 88 315 76.865 120.765 88 135 69.532 75.834 88 90 64.747 56.89 88 45 60.467-127.96 88-135 69.532 104.166 88 90 83.34-214.278 88-225 60.467-172.96 88-180 85.183 126.358 88 135 85.183 396.358 88 405 59.41 130.39 88 135 85.176-98.652 88-90 87.874 943.646 88 945" class="line" clip-path="url(#a)" style="pointer-events:none;stroke-linejoin:round;opacity:.7;stroke-width:8;stroke:#e2381c"/></g><g class="focus Laura" style="opacity:.7"><path d="M-10472 742.5c7.169 7.331 58.667 90 88 90s58.667-90 88-90 73.663 75.337 88 90 58.667 90 88 90h88c29.333 0 58.667 45 88 45h88c29.333 0 58.667 135 88 135h88c29.333 0 76.865 75.765 88 90s64.747 123.11 88 135 60.467-52.04 88-45 69.532 75.834 88 90 76.865 30.765 88 45 76.865 165.765 88 180 69.532 30.834 88 45 60.467 82.96 88 90 73.663-59.663 88-45 81.021 212.51 88 225 60.467 82.96 88 90 64.747-33.11 88-45 58.667-45 88-45h88c29.333 0 79.253 166.58 88 180s76.865 75.765 88 90 64.747 123.11 88 135 58.667-45 88-45 73.663 30.337 88 45 60.467 127.96 88 135 64.747-101.89 88-90 58.667 180 88 180h88c29.333 0 64.747 213.11 88 225s60.467-127.96 88-135 76.865 75.765 88 90 58.667 135 88 135h176c29.333 0 60.467 322.04 88 315s58.667-360 88-360 76.865 345.765 88 360 60.467-142.04 88-135 58.667 180 88 180h88c29.333 0 83.34 124.278 88 135s79.128 256.527 88 270 58.667 45 88 45h88c29.333 0 79.128 346.527 88 360s58.667-45 88-45h88c29.333 0 64.747-56.89 88-45s82.341 123.426 88 135-15.518 138.379 88 225 896.482-768.557 968-855 58.667-135 88-135h88c29.333 0 79.253-31.58 88-45s84.108-305.05 88-315 79.253-121.58 88-135 84.108-125.05 88-135 83.313-304.252 88-315 82.31-78.401 88-90 84.108-260.05 88-270 84.708-170.74 88-180 84.108-305.05 88-315 76.865-120.765 88-135 60.467-82.96 88-90 76.865 59.235 88 45 83.34-259.278 88-270 58.667-135 88-135h88c29.333 0 81.021-212.51 88-225s60.467-97.04 88-90 79.253 121.58 88 135 64.747 146.89 88 135 83.34-214.278 88-225 76.865-165.765 88-180 64.747-56.89 88-45 79.253 121.58 88 135 73.663 120.337 88 135 69.532 30.834 88 45 73.663 75.337 88 90 60.467 82.96 88 90 58.667-45 88-45h176c29.333 0 58.667-45 88-45s64.747 33.11 88 45 58.667 45 88 45h88c29.333 0 64.747 33.11 88 45s69.532 59.166 88 45 83.34-169.278 88-180 60.467-232.04 88-225 82.341 258.426 88 270 69.532 75.834 88 90 69.532 30.834 88 45 79.253 76.58 88 90 84.108 170.05 88 180 83.34 259.278 88 270 82.341 123.426 88 135 82.341 213.426 88 225 85.565 126.907 88 135 86.92 444.475 88 450 58.667 450 88 450h88c29.333 0 86.133 352.838 88 360s84.708 305.74 88 315 76.865 165.765 88 180 76.374 39.055 88 45" class="line" clip-path="url(#a)" style="pointer-events:none;stroke-linejoin:round;opacity:.7;stroke-width:2;stroke:#e0351c"/></g><g class="focus Lauren" style="opacity:.7"><path d="M-1848 3577.5c.046-.817 87.734-1572.218 88-1575s83.918-304.848 88-315 85.183-126.358 88-135 84.667-395.691 88-405 76.77-75.742 88-90 83.34-124.278 88-135 79.128-256.527 88-270 59.985-51.078 88-45 69.532 104.166 88 90 81.021-212.51 88-225 60.467-82.96 88-90 73.663 30.337 88 45 64.747 123.11 88 135 58.667-45 88-45h88c29.333 0 69.532 75.834 88 90s64.747 33.11 88 45 60.467 52.04 88 45 58.667-90 88-90h88c29.333 0 69.532-75.834 88-90s69.532-59.166 88-45 64.747 168.11 88 180 58.667-90 88-90 68.055 76.316 88 90 77.825 31.038 88 45 82.341 213.426 88 225 81.021 122.51 88 135 73.64 165.337 88 180 84.87 80.943 88 90 87.439 670.981 88 675 86.525 578.59 88 585 85.876 172.399 88 180 87.476 446.115 88 450 85.091 846.233 88 855 76.969 83.667 88 90" class="line" clip-path="url(#a)" style="pointer-events:none;stroke-linejoin:round;opacity:.7;stroke-width:2;stroke:#dd321e"/></g><g class="focus Lillian" style="opacity:.7"><path d="M-10472 1417.5h176c29.333 0 58.667-270 88-270h88c29.333 0 64.747 56.89 88 45s60.467-127.96 88-135 60.467 97.04 88 90 58.667-135 88-135h88c29.333 0 69.532-165.834 88-180s58.667 45 88 45h176c29.333 0 58.667-180 88-180h88c29.333 0 58.667-225 88-225h88c29.333 0 58.667-45 88-45h264c29.333 0 69.532 30.834 88 45s60.467 82.96 88 90 58.667-45 88-45 58.667 45 88 45h264c29.333 0 58.667 45 88 45h88c29.333 0 58.667-45 88-45s69.532 30.834 88 45 58.667 90 88 90h88c29.333 0 58.667-45 88-45s58.667 45 88 45 58.667-45 88-45h88c29.333 0 69.532 75.834 88 90s64.747 33.11 88 45 58.667 45 88 45h88c29.333 0 73.663 30.337 88 45s76.865 120.765 88 135 76.865 75.765 88 90 81.021 122.51 88 135 81.021 167.51 88 180 82.341 123.426 88 135 82.341 213.426 88 225 81.021 122.51 88 135 75.954 165.57 88 180 72.71 30.347 88 45 62.63 124.972 88 135 78.825 31.4 88 45 87.397 625.838 88 630 86.678 578.914 88 585 83.34 214.278 88 225 86.133 172.838 88 180 83.34 484.278 88 495-835.994-87.709 88-90 4532.56-22.266 5456-45 87.54-896.357 88-900 87.35-490.685 88-495 87.397-670.838 88-675 86.525-533.59 88-540 83.34-214.278 88-225 79.253-166.58 88-180 81.021-77.51 88-90 58.667-225 88-225h88c29.333 0 62.234 125.413 88 135s78.876 31.421 88 45 87.755 673.12 88 675" class="line" clip-path="url(#a)" style="pointer-events:none;stroke-linejoin:round;opacity:.7;stroke-width:2;stroke:#db3020"/></g><g class="focus Lily" style="opacity:.7"><path d="M264 3532.5c.54-2.763 87.35-445.685 88-450s87.51-716.24 88-720 86.92-624.475 88-630 85.183-261.358 88-270 83.34-259.278 88-270 83.34-124.278 88-135 78.184-256.159 88-270 66.513-32.015 88-45 59.135-86.323 88-90 79.21 31.562 88 45 82.341 506.574 88 495 87.846-853.506 88-855" class="line" clip-path="url(#a)" style="pointer-events:none;stroke-linejoin:round;opacity:.7;stroke-width:2;stroke:#d92e25"/></g><g class="focus Linda" style="opacity:.7"><path d="M-5544 4342.5c.023-.584 87.897-2203.268 88-2205s87.594-761.572 88-765 87.176-715.152 88-720 84.108-305.05 88-315 73.663-120.337 88-135 58.667-45 88-45h88c29.333 0 64.747-33.11 88-45s58.667-45 88-45h88c29.333 0 58.667-45 88-45h440c29.333 0 58.667 45 88 45h88c29.333 0 58.667 45 88 45h440c29.333 0 64.747 33.11 88 45s58.667 45 88 45h88c29.333 0 58.667 135 88 135h88c29.333 0 86.678 443.914 88 450s83.992 349.925 88 360 80.838 77.399 88 90 84.108 215.05 88 225 83.34 214.278 88 225 85.565 171.907 88 180 86.808 399.207 88 405 87.241 445.343 88 450 86.92 624.475 88 630 86.133 262.838 88 270 86.678 398.914 88 405 79.01 391.476 88 405 74.55 40.954 88 45" class="line" clip-path="url(#a)" style="pointer-events:none;stroke-linejoin:round;opacity:.7;stroke-width:12;stroke:#d62c2b"/></g><g class="focus Lisa" style="opacity:.7"><path d="M-3960 3262.5c.09-1.14 87.748-1122.292 88-1125s87.101-759.945 88-765 85.183-216.358 88-225 86.346-308.234 88-315 85.565-396.907 88-405 82.341-168.426 88-180 76.865-165.765 88-180 58.667-45 88-45h616c29.333 0 64.747 33.11 88 45s58.667 45 88 45h88c29.333 0 76.865 75.765 88 90s58.667 135 88 135h88c29.333 0 73.663 30.337 88 45s64.747 123.11 88 135 60.467-52.04 88-45 76.865 75.765 88 90 76.865 120.765 88 135 81.021 77.51 88 90 83.34 214.278 88 225 79.253 166.58 88 180 83.34 79.278 88 90 84.708 305.74 88 315 58.667 180 88 180h88c29.333 0 86.133 127.838 88 135s87.017 534.72 88 540 87.439 400.981 88 405 87.241 850.343 88 855 86.525 218.59 88 225 87.62 537.672 88 540" class="line" clip-path="url(#a)" style="pointer-events:none;stroke-linejoin:round;opacity:.7;stroke-width:12;stroke:#d42a31"/></g><g class="focus Lori" style="opacity:.7"><path d="M-3872 3982.5c.105-1.238 87.77-1032.413 88-1035s87.658-941.85 88-945 86.293-668.133 88-675 83.107-124.065 88-135 85.565-306.907 88-315 83.34-259.278 88-270 79.253-121.58 88-135 73.663-149.663 88-135 84.708 305.74 88 315 79.253 166.58 88 180 76.865 75.765 88 90 60.467 127.96 88 135 73.663-75.337 88-90 60.467-97.04 88-90 76.865 120.765 88 135 76.865 75.765 88 90 58.667 135 88 135h88c29.333 0 84.708 80.74 88 90s86.525 398.59 88 405 86.678 353.914 88 360 85.565 441.907 88 450 85.183 126.358 88 135 86.346 398.234 88 405 87.101 309.945 88 315 87.101 669.945 88 675 86.938 311.2 88 315" class="line" clip-path="url(#a)" style="pointer-events:none;stroke-linejoin:round;opacity:.7;stroke-width:2;stroke:#d22939"/></g><g class="focus Madelyn" style="opacity:.7"><path d="M792 2812.5c2.83-5.787 85.565-188.093 88-180s86.424 758.386 88 765 81.577 147.13 88 135 60.952-532.138 88-540 79.027 58.517 88 45 87.983-2609.506 88-2610" class="line" clip-path="url(#a)" style="pointer-events:none;stroke-linejoin:round;opacity:.7;stroke-width:2;stroke:#cf2841"/></g><g class="focus Madison" style="opacity:.7"><path d="M-528 3487.5c.077-1.057 87.814-1212.673 88-1215s87.658-986.85 88-990 86.808-624.207 88-630 77.825-211.038 88-225 68.055-31.316 88-45 79.253-76.58 88-90 76.865-165.765 88-180 58.667-45 88-45h88c29.333 0 58.667 45 88 45h264c29.333 0 60.467 82.96 88 90s64.747-56.89 88-45 73.663 120.337 88 135 58.667 45 88 45h88c29.333 0 58.667 45 88 45h88c29.333 0 80.831 82.669 88 90" class="line" clip-path="url(#a)" style="pointer-events:none;stroke-linejoin:round;opacity:.7;stroke-width:8;stroke:#cd274a"/></g><g class="focus Margaret" style="opacity:.7"><path d="M-10472 247.5c11.626-5.945 58.667-45 88-45s58.667 45 88 45h176c29.333 0 58.667-45 88-45s58.667 45 88 45 58.667-45 88-45h88c29.333 0 58.667-45 88-45h88c29.333 0 58.667-45 88-45s58.667 45 88 45h88c29.333 0 58.667-45 88-45s58.667 45 88 45h792c29.333 0 58.667-45 88-45h528c29.333 0 58.667 45 88 45h968c29.333 0 58.667 45 88 45h528c29.333 0 58.667 90 88 90h176c29.333 0 58.667 45 88 45h88c29.333 0 64.747 33.11 88 45s58.667 45 88 45 58.667-45 88-45 64.747 33.11 88 45l88 45c23.253 11.89 69.532 30.834 88 45s58.667 90 88 90h88c29.333 0 58.667 45 88 45h88c29.333 0 60.467 82.96 88 90s73.663-30.337 88-45 64.747-123.11 88-135 64.747 33.11 88 45 69.532 30.834 88 45 79.253 76.58 88 90 69.532 165.834 88 180 58.667-45 88-45 73.663 30.337 88 45 72.71 120.347 88 135 75.954 30.57 88 45 79.253 166.58 88 180 81.021 77.51 88 90 58.667 225 88 225h88c29.333 0 81.021 167.51 88 180s79.253 121.58 88 135l88 135 88 135 88 135 88 135c8.747 13.42 82.341 123.426 88 135s86.133 217.838 88 225 86.525 443.59 88 450 85.565 306.907 88 315 86.133 262.838 88 270 79.253 391.58 88 405 58.667-45 88-45 73.663 30.337 88 45-28.02 122.652 88 135 502.82-23.317 616-45 58.667-225 88-225h88c29.333 0 60.467-82.96 88-90s58.667 45 88 45 64.747-56.89 88-45 81.021 122.51 88 135 85.17 174.213 88 180" class="line" clip-path="url(#a)" style="pointer-events:none;stroke-linejoin:round;opacity:.7;stroke-width:8;stroke:#cb2754"/></g><g class="focus Marie" style="opacity:.7"><path d="m-10472 2452.5 88-45c23.253-11.89 58.667-45 88-45h88c29.333 0 84.708-170.74 88-180s76.865-300.765 88-315 60.467 82.96 88 90 73.663-30.337 88-45 85.565-126.907 88-135 85.113-441.262 88-450 58.667-90 88-90h88c29.333 0 81.857-303.064 88-315s83.582-79.508 88-90 79.192-391.554 88-405 58.667-45 88-45h264c29.333 0 58.667-45 88-45s60.467 52.04 88 45 60.467-82.96 88-90 58.667 45 88 45h88c29.333 0 60.467-52.04 88-45s73.663 75.337 88 90 60.467 82.96 88 90 58.667-45 88-45h88c29.333 0 58.667-45 88-45h176c29.333 0 58.667 45 88 45h176c29.333 0 64.747 33.11 88 45s58.667 45 88 45h264c29.333 0 64.747 33.11 88 45s58.667 45 88 45h264c29.333 0 73.663 75.337 88 90l88 90c14.337 14.663 69.532 75.834 88 90s64.747 33.11 88 45 76.865 30.765 88 45 74.524 165.382 88 180 74.524 30.382 88 45 79.253 166.58 88 180 69.532 75.834 88 90 58.667 45 88 45 58.667-45 88-45h88c29.333 0 73.663 75.337 88 90s58.667 90 88 90h88c29.333 0 76.865 165.765 88 180s64.747 33.11 88 45 69.532 30.834 88 45 76.865 75.765 88 90 70.987 120.522 88 135 76.844 30.76 88 45 82.341 213.426 88 225 79.253 121.58 88 135 84.108 125.05 88 135 85.183 306.358 88 315 84.708 215.74 88 225 84.108 260.05 88 270 82.341 168.426 88 180 69.532 194.166 88 180 79.253-328.42 88-315 86.525 578.59 88 585 79.253 166.58 88 180 80.831 82.669 88 90" class="line" clip-path="url(#a)" style="pointer-events:none;stroke-linejoin:round;opacity:.7;stroke-width:4;stroke:#c8275d"/></g><g class="focus Mary" style="opacity:.7"><path d="M-10472 22.5h5808c29.333 0 58.667 45 88 45h440c29.333 0 58.667-45 88-45h704c29.333 0 58.667 45 88 45h264c29.333 0 64.747 33.11 88 45l88 45c23.253 11.89 73.663 30.337 88 45s73.663 120.337 88 135 58.667 45 88 45h88c29.333 0 76.865 165.765 88 180s58.667 45 88 45 76.865-59.235 88-45 83.34 259.278 88 270 64.747 123.11 88 135 64.747-56.89 88-45 58.667 135 88 135h88c29.333 0 69.532 75.834 88 90s73.663 30.337 88 45 76.865 120.765 88 135 69.532 75.834 88 90 69.532 30.834 88 45 73.663 75.337 88 90 58.667 90 88 90h88c29.333 0 60.467-142.04 88-135s60.467 172.96 88 180 58.667-135 88-135 64.747 123.11 88 135 58.667-45 88-45 58.667 45 88 45 64.747-56.89 88-45 81.021 122.51 88 135 79.253 166.58 88 180 60.467 82.96 88 90 58.667-45 88-45H0c29.333 0 73.663 75.337 88 90l88 90c14.337 14.663 84.108 80.05 88 90s84.708 350.74 88 360 85.565 126.907 88 135 86.808 444.207 88 450 87.017 399.72 88 405 86.346 533.234 88 540 85.17 174.213 88 180" class="line" clip-path="url(#a)" style="pointer-events:none;stroke-linejoin:round;opacity:.7;stroke-width:12;stroke:#c62866"/></g><g class="focus Megan" style="opacity:.7"><path d="M-2112 3082.5c1.062-3.8 86.133-307.838 88-315s87.017-354.72 88-360 87.176-580.152 88-585 79.052-436.494 88-450 60.721-52.486 88-45 64.255 123.48 88 135 78.593 58.691 88 45 87.176-580.152 88-585 79.253-436.58 88-450 58.667-45 88-45 64.747 33.11 88 45 58.667 45 88 45h88c29.333 0 58.667-45 88-45h176c29.333 0 58.667-45 88-45s58.667 45 88 45 64.747-56.89 88-45 64.747 123.11 88 135 64.747-33.11 88-45 60.467-52.04 88-45 73.663 75.337 88 90 76.865 75.765 88 90 76.865 120.765 88 135 73.663 75.337 88 90 84.108 80.05 88 90 85.876 352.399 88 360 84.708 260.74 88 270 87.241 220.343 88 225 87.676 851.934 88 855 87.722 807.159 88 810 87.885 988.707 88 990" class="line" clip-path="url(#a)" style="pointer-events:none;stroke-linejoin:round;opacity:.7;stroke-width:2;stroke:#c4296f"/></g><g class="focus Melissa" style="opacity:.7"><path d="M-3344 4252.5c.077-1.057 87.617-1211.67 88-1215s86.133-307.838 88-315 87.176-355.152 88-360 87.54-671.357 88-675 87.476-716.115 88-720 86.346-578.234 88-585 73.663-120.337 88-135 60.467-52.04 88-45 58.667 90 88 90h176c29.333 0 58.667-45 88-45s64.747 56.89 88 45 73.663-120.337 88-135 64.747-33.11 88-45 58.667-45 88-45h176c29.333 0 69.532 75.834 88 90s58.667 45 88 45h88c29.333 0 69.532 30.834 88 45s76.865 75.765 88 90 73.663 120.337 88 135 64.747 33.11 88 45 73.663 30.337 88 45 79.253 121.58 88 135 73.663 120.337 88 135 58.667 45 88 45h88c29.333 0 84.108 170.05 88 180s76.534 255.687 88 270 71.659 30.43 88 45 84.708 170.74 88 180 83.449 304.38 88 315 86.247 128.047 88 135 86.808 624.207 88 630 85.183 216.358 88 225 84.108 305.05 88 315 83.34 124.278 88 135 87.101 264.945 88 270 86.552 713.646 88 720 82.978 128.04 88 135" class="line" clip-path="url(#a)" style="pointer-events:none;stroke-linejoin:round;opacity:.7;stroke-width:8;stroke:#c22a77"/></g><g class="focus Mia" style="opacity:.7"><path d="M88 4162.5c.192-1.665 87.822-762.72 88-765s87.721-1482.155 88-1485 85.559-306.898 88-315 86.808-264.207 88-270 86.525-578.59 88-585 64.747-168.11 88-180 60.467 82.96 88 90 76.865-30.765 88-45 58.667-180 88-180h88c29.333 0 64.747-33.11 88-45s69.532-30.834 88-45 58.667-90 88-90h88" class="line" clip-path="url(#a)" style="pointer-events:none;stroke-linejoin:round;opacity:.7;stroke-width:4;stroke:#bf2c7f"/></g><g class="focus Michelle" style="opacity:.7"><path d="M-3960 4207.5c4.374 6.71 79.253 148.42 88 135s86.678-398.914 88-405 87.568-401.468 88-405 87.568-1031.468 88-1035 86.525-398.59 88-405 85.565-351.907 88-360 82.341-213.426 88-225 82.341-123.426 88-135 82.341-213.426 88-225 82.341-123.426 88-135 86.808-219.207 88-225 79.144-616.534 88-630 59.825-39.287 88-45 58.667-45 88-45h88c29.333 0 58.667 90 88 90s58.667-90 88-90h88c29.333 0 58.667 45 88 45h88c29.333 0 58.667 135 88 135h88c29.333 0 69.532 30.834 88 45s69.532 75.834 88 90 58.667 45 88 45h88c29.333 0 58.667 45 88 45h88c29.333 0 79.253 76.58 88 90s83.34 169.278 88 180 79.084 211.508 88 225 58.667 45 88 45h88c29.333 0 60.467-82.96 88-90s58.667 45 88 45h176c29.333 0 83.34 124.278 88 135s81.724 257.97 88 270 83.648 79.573 88 90 85.876 352.399 88 360 85.876 262.399 88 270 58.667 360 88 360h88c29.333 0 69.532 59.166 88 45s69.532-194.166 88-180 77.825 301.038 88 315 68.055-58.684 88-45 82.341 168.426 88 180 85.183 171.358 88 180 85.876 352.399 88 360 86.92 264.475 88 270 87.72 627.99 88 630" class="line" clip-path="url(#a)" style="pointer-events:none;stroke-linejoin:round;opacity:.7;stroke-width:8;stroke:#bd2e86"/></g><g class="focus Mildred" style="opacity:.7"><path d="M-9856 3982.5c1.408-4.321 86.92-264.475 88-270s84.748-620.79 88-630 75.74 104.468 88 90 83.34-304.278 88-315 72.89-75.34 88-90 84.903-80.986 88-90 87.017-444.72 88-450 58.667-495 88-495h88c29.333 0 84.708-260.74 88-270s86.346-218.234 88-225 82.341-483.426 88-495 69.532 149.166 88 135 58.667-270 88-270h88c29.333 0 76.865-165.765 88-180s64.747-33.11 88-45 58.667-45 88-45 58.667 45 88 45 58.667-45 88-45h352c29.333 0 58.667-90 88-90h88c29.333 0 58.667 45 88 45s58.667-45 88-45h440c29.333 0 64.747 33.11 88 45s58.667 45 88 45h176c29.333 0 58.667 45 88 45h88c29.333 0 79.253 76.58 88 90s81.021 167.51 88 180 79.253 121.58 88 135 82.341 123.426 88 135 58.667 225 88 225h88c29.333 0 83.34 259.278 88 270s58.667 135 88 135h88c29.333 0 82.341 213.426 88 225s85.183 126.358 88 135 85.183 396.358 88 405 79.253 121.58 88 135 83.34 124.278 88 135 85.565 261.907 88 270 85.183 306.358 88 315 84.108 215.05 88 225 86.346 218.234 88 225 87.55 492.472 88 495" class="line" clip-path="url(#a)" style="pointer-events:none;stroke-linejoin:round;opacity:.7;stroke-width:4;stroke:#bb308c"/></g><g class="focus Minnie" style="opacity:.7"><path d="M-10472 202.5c11.626 5.945 58.667 45 88 45s58.667-45 88-45h176c29.333 0 58.667 45 88 45s58.667-45 88-45 58.667 45 88 45h176c29.333 0 58.667 90 88 90h88c29.333 0 58.667 180 88 180h176c29.333 0 73.663 30.337 88 45s82.341 123.426 88 135 58.667 225 88 225h88c29.333 0 60.467 172.96 88 180s60.467-142.04 88-135 81.021 167.51 88 180 83.34 124.278 88 135 58.667 270 88 270h176c29.333 0 70.34 165.642 88 180s77.105 30.827 88 45 84.108 305.05 88 315 58.667 135 88 135h88c29.333 0 84.108 80.05 88 90s84.708 350.74 88 360 81.021 122.51 88 135 75.954 165.57 88 180 72.71 30.347 88 45 81.021 122.51 88 135 86.525 173.59 88 180 76.865 570.765 88 585 60.467-352.96 88-360 86.346 308.234 88 315 73.663 390.337 88 405 69.532-239.166 88-225 78.954 346.453 88 360 74.796 40.606 88 45" class="line" clip-path="url(#a)" style="pointer-events:none;stroke-linejoin:round;opacity:.7;stroke-width:6;stroke:#b93391"/></g><g class="focus Nancy" style="opacity:.7"><path d="M-10472 2767.5c4.374-6.71 76.865-149.235 88-135s85.183 351.358 88 360 60.467 172.96 88 180 73.663-120.337 88-135 73.663-59.663 88-45 73.663 210.337 88 225 73.663-59.663 88-45 86.133 217.838 88 225 82.341 438.426 88 450 69.532-75.834 88-90 69.532-30.834 88-45 76.865-104.235 88-90 86.525 308.59 88 315 76.865 435.765 88 450 58.667-225 88-225 69.532 210.834 88 225 32.933-75.92 88-90-28.144 116.358 264 135 1218.463-62.71 1496-45 154.494 111.994 176 90 85.565-216.907 88-225 86.525-353.59 88-360 85.183-396.358 88-405 83.34-124.278 88-135 86.133-262.838 88-270 85.183-396.358 88-405 63.091-124.502 88-135 78.764-31.376 88-45 87.241-580.343 88-585 86.808-489.207 88-495 86.133-352.838 88-360 84.708-305.74 88-315 79.253-166.58 88-180 69.532-75.834 88-90 64.747-33.11 88-45l88-45 88-45c23.253-11.89 58.667-45 88-45h264c29.333 0 58.667 45 88 45h88c29.333 0 60.467 52.04 88 45s58.667-90 88-90h440c29.333 0 58.667-45 88-45s58.667 45 88 45h88c29.333 0 64.747 33.11 88 45s58.667 45 88 45h88c29.333 0 58.667 90 88 90h88c29.333 0 69.532 30.834 88 45s69.532 75.834 88 90 64.747 33.11 88 45 73.663 30.337 88 45 81.021 122.51 88 135 81.021 167.51 88 180 83.34 124.278 88 135 76.534 255.687 88 270 71.659 30.43 88 45 79.253 166.58 88 180 82.341 78.426 88 90 84.708 260.74 88 270 79.347 211.623 88 225 84.344 80.311 88 90 87.3 445.52 88 450 78.67 661.339 88 675 63.745 33.901 88 45 83.34 169.278 88 180 80.838 212.399 88 225 83.992 79.925 88 90 87.173 356.617 88 360" class="line" clip-path="url(#a)" style="pointer-events:none;stroke-linejoin:round;opacity:.7;stroke-width:4;stroke:#b73596"/></g><g class="focus Nicole" style="opacity:.7"><path d="M-2640 2092.5c.192-1.665 85.47-756.764 88-765s85.47-126.764 88-135 79.229-751.57 88-765 58.667 45 88 45h88c29.333 0 64.747-56.89 88-45s76.865 120.765 88 135 69.532 104.166 88 90 77.825-211.038 88-225 68.055-31.316 88-45 58.667-90 88-90h88c29.333 0 58.667-45 88-45s58.667 45 88 45h264c29.333 0 64.747 33.11 88 45s73.663 30.337 88 45 73.663 120.337 88 135 69.532 30.834 88 45 60.467 82.96 88 90 64.747-33.11 88-45 69.532-30.834 88-45 79.253-103.42 88-90 84.708 350.74 88 360 64.747 123.11 88 135 64.747-56.89 88-45 69.426 120.863 88 135 77.426 30.916 88 45 84.708 260.74 88 270 76.844 210.76 88 225 70.987 30.522 88 45 79.253 121.58 88 135 86.346 128.234 88 135 87.54 581.357 88 585 87.54 806.357 88 810 48.678 535.092 88 585 442.01 211.85 528 225" class="line" clip-path="url(#a)" style="pointer-events:none;stroke-linejoin:round;opacity:.7;stroke-width:4;stroke:#b5389a"/></g><g class="focus Olivia" style="opacity:.7"><path d="M-792 3217.5c.45-2.528 85.876-487.399 88-495s84.708-125.74 88-135 58.667-360 88-360h88c29.333 0 86.346-488.234 88-495s85.183-216.358 88-225 85.565-306.907 88-315 76.534-255.687 88-270 71.659-30.43 88-45 84.108-170.05 88-180 58.667-270 88-270h88c29.333 0 79.253-211.58 88-225s58.667-45 88-45 69.532 30.834 88 45 58.667 90 88 90h88c29.333 0 73.663-30.337 88-45s64.747-123.11 88-135 58.667 45 88 45h176c29.333 0 58.667-45 88-45h88" class="line" clip-path="url(#a)" style="pointer-events:none;stroke-linejoin:round;opacity:.7;stroke-width:8;stroke:#b33b9d"/></g><g class="focus Pamela" style="opacity:.7"><path d="M-4928 2407.5c.54-2.763 83.525-439.453 88-450s81.962-78.14 88-90 85.876-352.399 88-360 85.183-261.358 88-270 76.534-255.687 88-270 71.659-30.43 88-45 76.865-165.765 88-180 58.667-45 88-45 79.253 58.42 88 45 76.865-300.765 88-315 58.667 90 88 90h264c29.333 0 58.667-45 88-45s69.532 30.834 88 45 69.532 75.834 88 90 64.747 56.89 88 45 60.467-127.96 88-135 60.467 97.04 88 90 64.747-123.11 88-135 73.663 30.337 88 45 76.865 120.765 88 135 76.865 75.765 88 90 81.021 122.51 88 135 75.954 165.57 88 180 72.71 30.347 88 45 83.34 124.278 88 135 86.808 264.207 88 270 86.92 579.475 88 585 87.176 310.152 88 315 87.51 716.24 88 720 82.287 612.607 88 630 212.755 289.502 264 270 85.876-172.399 88-180 73.663-435.337 88-450 86.133 262.838 88 270 87.339 401.957 88 405" class="line" clip-path="url(#a)" style="pointer-events:none;stroke-linejoin:round;opacity:.7;stroke-width:2;stroke:#b13ea0"/></g><g class="focus Patricia" style="opacity:.7"><path d="M-6864 3757.5c.245-1.88 87.439-670.981 88-675s87.617-581.67 88-585 87.439-940.981 88-945 85.183-306.358 88-315 84.108-215.05 88-225 85.183-216.358 88-225 77.825-301.038 88-315 68.055-31.316 88-45 64.747-123.11 88-135 60.467 52.04 88 45 58.667-90 88-90h176c29.333 0 58.667-45 88-45h88c29.333 0 58.667-90 88-90h528c29.333 0 58.667 45 88 45h88c29.333 0 58.667-45 88-45h88c29.333 0 58.667 45 88 45s58.667-45 88-45h264c29.333 0 58.667 45 88 45h88c29.333 0 58.667 90 88 90h88c29.333 0 60.467 97.04 88 90s64.747-123.11 88-135 64.747 33.11 88 45 58.667 45 88 45 58.667-45 88-45h88c29.333 0 60.467 52.04 88 45s60.467-82.96 88-90 64.747 33.11 88 45 76.865 30.765 88 45 82.341 168.426 88 180 81.021 167.51 88 180 83.34 124.278 88 135 82.341 258.426 88 270 69.532 75.834 88 90 58.667 45 88 45h88c29.333 0 83.34 79.278 88 90s85.565 306.907 88 315 84.108 260.05 88 270 79.253 166.58 88 180 64.747 101.89 88 90 69.532-194.166 88-180 83.313 304.252 88 315 82.31 78.401 88 90 74.524 255.382 88 270 74.524 30.382 88 45 73.663 255.337 88 270 58.667-90 88-90 85.183 81.358 88 90 73.2 435.334 88 450 75.63 30.514 88 45 86.92 534.475 88 540 87.173 356.617 88 360" class="line" clip-path="url(#a)" style="pointer-events:none;stroke-linejoin:round;opacity:.7;stroke-width:8;stroke:#ae41a2"/></g><g class="focus Rachel" style="opacity:.7"><path d="M-2728 4117.5c.105-1.238 87.617-1031.67 88-1035s86.133-487.838 88-495 86.678-173.914 88-180 84.903-620.986 88-630 72.89 104.66 88 90 86.346-263.234 88-270 85.565-441.907 88-450 58.667-135 88-135 64.747 123.11 88 135 60.467-52.04 88-45 64.747 101.89 88 90 76.865-165.765 88-180 64.747-33.11 88-45 64.255-33.48 88-45 78.593-31.309 88-45 81.021-212.51 88-225 58.667-90 88-90 73.663 75.337 88 90l88 90c14.337 14.663 60.467 82.96 88 90s69.532-30.834 88-45 73.663-75.337 88-90 58.667-90 88-90 58.667 90 88 90 69.532-75.834 88-90 64.747-33.11 88-45 73.663-30.337 88-45 60.467-142.04 88-135 79.253 166.58 88 180 79.253 76.58 88 90 79.253 166.58 88 180 76.865 75.765 88 90 58.667 135 88 135h88c29.333 0 84.108 170.05 88 180s84.108 260.05 88 270 85.876 172.399 88 180 87.017 444.72 88 450 87.397 490.838 88 495 87.51 716.24 88 720 87.241 625.343 88 630 87.46 447.237 88 450" class="line" clip-path="url(#a)" style="pointer-events:none;stroke-linejoin:round;opacity:.7;stroke-width:2;stroke:#ac43a3"/></g><g class="focus Rebecca" style="opacity:.7"><path d="M-10472 4117.5c2.83 5.787 81.021 167.51 88 180s29.333 135 88 135h264c58.667 0-718.577-171.51 88-180s3945.895 66.27 4752 45 79.202-436.559 88-450 59.222-48.997 88-45 60.467 97.04 88 90 59.692-129.613 88-135 79.157 58.46 88 45 87.594-761.572 88-765 84.098-710.038 88-720 80.472-77.188 88-90 85.876-442.399 88-450 82.341-168.426 88-180 79.253-166.58 88-180 82.341-78.426 88-90 73.663-255.337 88-270 69.532 75.834 88 90 58.667 45 88 45h88c29.333 0 85.876 307.399 88 315s73.663 300.337 88 315 58.667-135 88-135h88c29.333 0 83.34 259.278 88 270s58.667 135 88 135 60.467-127.96 88-135 69.532 104.166 88 90 78.593-211.309 88-225 62.736-34.86 88-45 78.811-31.395 88-45 84.708-260.74 88-270 72.71-210.347 88-225 75.954 59.43 88 45 86.133-262.838 88-270 85.565-396.907 88-405 58.667-180 88-180h88c29.333 0 64.255 33.48 88 45s78.593 31.309 88 45 58.667 225 88 225h264c29.333 0 64.747-213.11 88-225s81.021 122.51 88 135 82.341 168.426 88 180 79.253 166.58 88 180 69.532 75.834 88 90 58.667 45 88 45 58.667-45 88-45 60.467 52.04 88 45 76.865-75.765 88-90 58.667-135 88-135h88c29.333 0 60.467-52.04 88-45s73.663 75.337 88 90 79.253 76.58 88 90 58.667 180 88 180 64.747-168.11 88-180 79.253 76.58 88 90 85.183 171.358 88 180 75.327 345.47 88 360 73.612 30.336 88 45 86.133 307.838 88 315 86.525 353.59 88 360 86.346 398.234 88 405 86.678 308.914 88 315 87.35 490.685 88 495 87.755 673.12 88 675" class="line" clip-path="url(#a)" style="pointer-events:none;stroke-linejoin:round;opacity:.7;stroke-width:2;stroke:#a946a4"/></g><g class="focus Ruth" style="opacity:.7"><path d="M-10472 4162.5c.661-3.043 85.565-396.907 88-405s84.108-170.05 88-180 58.667-270 88-270h88c29.333 0 82.341-168.426 88-180l88-180c5.659-11.574 81.021-167.51 88-180s86.346-128.234 88-135 58.667-585 88-585h88c29.333 0 87.735-1212.227 88-1215s85.173-621.344 88-630 59.703-95.416 88-90 58.667 135 88 135h88c29.333 0 58.667-45 88-45h968c29.333 0 58.667-45 88-45h88c29.333 0 58.667 45 88 45h1056c29.333 0 58.667 45 88 45h440c29.333 0 73.663 75.337 88 90s69.532 75.834 88 90 58.667 45 88 45h88c29.333 0 58.667 90 88 90h88c29.333 0 69.532 75.834 88 90s58.667 45 88 45 76.865-59.235 88-45 78.184 256.159 88 270 66.513 32.015 88 45 79.253 76.58 88 90 83.34 169.278 88 180 58.667 225 88 225h88c29.333 0 58.667-45 88-45s79.253 31.58 88 45 84.708 215.74 88 225 78.184 256.159 88 270 66.513 32.015 88 45 73.663 75.337 88 90 79.253 76.58 88 90 83.34 169.278 88 180 83.34 214.278 88 225 82.341 168.426 88 180 81.021 167.51 88 180 85.183 126.358 88 135 86.133 397.838 88 405 85.183 261.358 88 270 85.565 261.907 88 270 58.667 315 88 315h88c29.333 0 76.374-39.055 88-45" class="line" clip-path="url(#a)" style="pointer-events:none;stroke-linejoin:round;opacity:.7;stroke-width:8;stroke:#a648a4"/></g><g class="focus Samantha" style="opacity:.7"><path d="M-2024 3802.5h88c29.333 0 86.808-489.207 88-495s86.346-353.234 88-360 86.133-352.838 88-360 85.876-307.399 88-315 84.708-305.74 88-315 67.092-166.727 88-180 78.058-31.115 88-45 86.678-443.914 88-450 86.678-353.914 88-360 85.565-441.907 88-450 76.865-120.765 88-135 69.532-75.834 88-90 58.667-45 88-45h88c29.333 0 60.467 52.04 88 45s58.667-90 88-90h176c29.333 0 64.747 33.11 88 45s64.747 56.89 88 45 60.467-127.96 88-135 73.663 75.337 88 90 58.667 90 88 90h88c29.333 0 69.532 75.834 88 90s58.667 45 88 45 64.747-33.11 88-45 60.467-52.04 88-45 73.663 75.337 88 90 60.467 82.96 88 90 64.747-56.89 88-45 73.663 120.337 88 135 69.532 30.834 88 45 84.708 80.74 88 90 76.107 390.598 88 405 86.584 128.712 88 135 87.967 1844.302 88 1845" class="line" clip-path="url(#a)" style="pointer-events:none;stroke-linejoin:round;opacity:.7;stroke-width:8;stroke:#a349a4"/></g><g class="focus Sandra" style="opacity:.7"><path d="M-5720 4162.5c.03-.666 87.852-1932.925 88-1935s87.241-535.343 88-540l88-540c.759-4.657 78.688-526.346 88-540s63.627-34.004 88-45 73.663-120.337 88-135 73.663-30.337 88-45 58.667-135 88-135h352c29.333 0 58.667-45 88-45s58.667 45 88 45h88c29.333 0 69.532 75.834 88 90s64.747 33.11 88 45l88 45c23.253 11.89 69.532 30.834 88 45s58.667 90 88 90h88c29.333 0 64.747 33.11 88 45s58.667 45 88 45h88c29.333 0 73.663-75.337 88-90l88-90c14.337-14.663 60.467-82.96 88-90s58.667 45 88 45 69.532-59.166 88-45 79.253 166.58 88 180 73.663 75.337 88 90 76.865 75.765 88 90 83.34 124.278 88 135 76.865 255.765 88 270 60.467-52.04 88-45 79.253 76.58 88 90 58.667 180 88 180h88c29.333 0 85.565 351.907 88 360s85.183 216.358 88 225 86.133 307.838 88 315 81.962 348.14 88 360 83.525 79.453 88 90 86.346 443.234 88 450 83.34 259.278 88 270 69.532 149.166 88 135 58.667-270 88-270 85.876 262.399 88 270 85.876 352.399 88 360 86.592 265.679 88 270" class="line" clip-path="url(#a)" style="pointer-events:none;stroke-linejoin:round;opacity:.7;stroke-width:6;stroke:#9f4aa3"/></g><g class="focus Sarah" style="opacity:.7"><path d="M-10472 427.5c7.169 7.331 58.667 90 88 90h176c29.333 0 79.253 76.58 88 90s64.747 168.11 88 180 64.747-101.89 88-90 58.667 180 88 180h176c29.333 0 73.663 30.337 88 45s81.021 122.51 88 135 83.34 169.278 88 180 79.253 211.58 88 225 58.667 45 88 45 60.467-52.04 88-45 60.467 82.96 88 90 64.747-56.89 88-45 73.663 120.337 88 135 58.667 45 88 45 64.747-56.89 88-45 64.747 123.11 88 135 60.467-52.04 88-45 73.663 75.337 88 90 58.667 90 88 90 60.467-97.04 88-90 81.021 122.51 88 135 58.667 180 88 180h88c29.333 0 79.253 58.42 88 45s81.021-392.51 88-405 60.467 82.96 88 90 60.467-52.04 88-45 79.253 76.58 88 90 82.341 168.426 88 180 76.865 165.765 88 180 58.667 45 88 45h176c29.333 0 64.747-258.11 88-270s82.341 168.426 88 180 60.467 172.96 88 180 60.467-127.96 88-135 69.532 75.834 88 90 76.865 30.765 88 45 83.34 169.278 88 180 69.532 210.834 88 225 60.467-97.04 88-90 81.021 122.51 88 135 79.253 166.58 88 180 69.532 75.834 88 90 69.532 59.166 88 45 85.565-171.907 88-180 58.667-405 88-405 69.532 390.834 88 405 73.663-255.337 88-270 73.663 75.337 88 90l88 90c14.337 14.663 66.513 77.015 88 90s78.184 58.841 88 45 58.667-360 88-360h88c29.333 0 84.708 305.74 88 315s58.667 180 88 180 76.865-194.235 88-180 87.3 400.52 88 405 78.262 706.186 88 720 66.129 57.775 88 45 78.593-346.309 88-360 64.255-56.52 88-45 81.021 167.51 88 180 79.253 121.58 88 135 64.747 123.11 88 135-56.943-29.192 88-45 706.454 297.31 792 225 79.253-166.58 88-180 58.667-90 88-90h88c29.333 0 83.34-304.278 88-315s81.021-77.51 88-90 84.708-215.74 88-225 85.565-261.907 88-270 85.876-307.399 88-315 86.133-307.838 88-315 87.176-355.152 88-360 87.51-671.24 88-675 86.58-668.705 88-675 76.347-120.646 88-135 79.253-76.58 88-90 81.021-167.51 88-180 76.865-120.765 88-135 69.532-75.834 88-90 64.747-33.11 88-45 58.667-45 88-45h88c29.333 0 58.667 45 88 45h352c29.333 0 58.667-45 88-45s64.747 33.11 88 45 58.667 45 88 45h88c29.333 0 69.532-30.834 88-45s58.667-90 88-90 58.667 90 88 90h88c29.333 0 58.667-45 88-45h88c29.333 0 58.667 45 88 45s58.667-45 88-45 64.747 33.11 88 45 69.532 30.834 88 45 79.253 76.58 88 90 58.667 180 88 180h88c29.333 0 58.667 135 88 135h88c29.333 0 76.865 120.765 88 135s65.264 77.753 88 90 78.424 31.245 88 45 86.678 308.914 88 315 86.133 487.838 88 495 83.34 169.278 88 180 60.467 232.04 88 225 86.592-265.679 88-270" class="line" clip-path="url(#a)" style="pointer-events:none;stroke-linejoin:round;opacity:.7;stroke-width:8;stroke:#9b4ba2"/></g><g class="focus Sharon" style="opacity:.7"><path d="M-5632 4297.5c.043-.794 87.852-1617.925 88-1620s87.51-851.24 88-855 86.678-488.914 88-495 85.565-306.907 88-315 82.341-258.426 88-270 79.253-76.58 88-90 81.021-167.51 88-180 64.747-123.11 88-135 58.667 45 88 45 58.667-45 88-45 58.667 45 88 45h176c29.333 0 64.747 33.11 88 45s69.532 30.834 88 45 69.532 75.834 88 90 64.747 33.11 88 45l88 45c23.253 11.89 58.667 45 88 45s69.532-30.834 88-45 60.467-82.96 88-90 73.663 30.337 88 45 58.667 135 88 135h88c29.333 0 58.667-45 88-45s58.667 45 88 45h88c29.333 0 69.532 75.834 88 90s69.532 30.834 88 45 82.341 78.426 88 90 82.341 258.426 88 270 73.663 75.337 88 90 79.253 76.58 88 90 75.954 165.57 88 180 72.71 30.347 88 45 85.183 126.358 88 135 86.525 398.59 88 405 87.017 354.72 88 360 86.678 578.914 88 585 84.708 215.74 88 225 86.92 264.475 88 270 87.72 627.99 88 630" class="line" clip-path="url(#a)" style="pointer-events:none;stroke-linejoin:round;opacity:.7;stroke-width:2;stroke:#974ba1"/></g><g class="focus Shirley" style="opacity:.7"><path d="M-7128 4387.5c.661-3.043 87.748-402.292 88-405s87.78-1482.47 88-1485 86.525-533.59 88-540 86.678-218.914 88-225 86.92-579.475 88-585 83.34-304.278 88-315 76.865-75.765 88-90 82.341-123.426 88-135 73.663-210.337 88-225 58.667 45 88 45 60.467-52.04 88-45 58.667 90 88 90 58.667-90 88-90h176c29.333 0 81.021-212.51 88-225s58.667-90 88-90h88c29.333 0 69.532 75.834 88 90s58.667 45 88 45h88c29.333 0 76.865 165.765 88 180s69.532 30.834 88 45 58.667 90 88 90h88c29.333 0 58.667 90 88 90h88c29.333 0 76.865 165.765 88 180s64.747 33.11 88 45 60.467 52.04 88 45 59.485-85.17 88-90 79.177 31.548 88 45 78.954 346.453 88 360 61.591 36.211 88 45 76.865 30.765 88 45 82.341 168.426 88 180l88 180c5.659 11.574 83.34 169.278 88 180s84.708 215.74 88 225 86.133 262.838 88 270 86.678 398.914 88 405 87.3 400.52 88 405 87.35 715.685 88 720 85.565 441.907 88 450 83.626 128.29 88 135" class="line" clip-path="url(#a)" style="pointer-events:none;stroke-linejoin:round;opacity:.7;stroke-width:8;stroke:#934b9f"/></g><g class="focus Sophia" style="opacity:.7"><path d="M-176 4207.5c.126-1.354 87.735-942.227 88-945s87.54-896.357 88-900 86.346-488.234 88-495 86.133-217.838 88-225 86.525-443.59 88-450 85.183-306.358 88-315 82.341-213.426 88-225 79.253-121.58 88-135l88-135c8.747-13.42 64.747-123.11 88-135s64.747 56.89 88 45 76.865-120.765 88-135 69.532-75.834 88-90 58.667-45 88-45h264" class="line" clip-path="url(#a)" style="pointer-events:none;stroke-linejoin:round;opacity:.7;stroke-width:12;stroke:#8e4a9d"/></g><g class="focus Stephanie" style="opacity:.7"><path d="M-3432 4072.5c.325-2.157 87.101-579.945 88-585s85.876-397.399 88-405 85.183-216.358 88-225 86.92-309.475 88-315 86.808-579.207 88-585 86.808-264.207 88-270 84.782-575.833 88-585 75.238-75.458 88-90 79.253-166.58 88-180 82.341-78.426 88-90 83.34-259.278 88-270 64.747-123.11 88-135 58.667 45 88 45h176c29.333 0 76.865 75.765 88 90s76.865 120.765 88 135 60.467 82.96 88 90 69.532-30.834 88-45 81.021-77.51 88-90 79.253-211.58 88-225 58.667-45 88-45 60.467 52.04 88 45 58.667-90 88-90h264c29.333 0 64.747 33.11 88 45s58.667 45 88 45 58.667-45 88-45h88c29.333 0 69.532 30.834 88 45s81.021 77.51 88 90 75.721 210.529 88 225 73.068 30.336 88 45 81.021 167.51 88 180 83.34 124.278 88 135 85.876 262.399 88 270 84.708 350.74 88 360 79.253 121.58 88 135 60.467 127.96 88 135 79.253-103.42 88-90 85.876 352.399 88 360 86.133 262.838 88 270 86.133 397.838 88 405 87.241 265.343 88 270 87.829 808.425 88 810" class="line" clip-path="url(#a)" style="pointer-events:none;stroke-linejoin:round;opacity:.7;stroke-width:4;stroke:#8a499a"/></g><g class="focus Susan" style="opacity:.7"><path d="M-10472 3577.5c11.626-5.945 58.667-45 88-45h88c29.333 0 86.133 262.838 88 270s86.133 397.838 88 405 60.2 248.778 88 270-586.666-44.452 176-45 3654.806-44.275 4400-90 87.841-1122.847 88-1125 87.658-1256.85 88-1260 86.525-353.59 88-360 86.133-397.838 88-405 83.34-259.278 88-270 82.341-123.426 88-135 82.341-213.426 88-225 76.865-120.765 88-135 58.667-90 88-90h88c29.333 0 58.667-135 88-135h176c29.333 0 58.667 45 88 45s58.667-45 88-45h352c29.333 0 58.667-135 88-135h264c29.333 0 58.667 45 88 45h264c29.333 0 69.532 75.834 88 90s58.667 45 88 45 73.663-59.663 88-45 75.721 210.529 88 225 73.068 30.336 88 45 79.253 166.58 88 180 83.34 79.278 88 90 78.424 301.245 88 315 65.264 32.753 88 45 81.021 77.51 88 90 85.565 216.907 88 225 85.565 351.907 88 360 83.34 214.278 88 225 75.238 165.458 88 180 84.782 80.833 88 90 86.92 579.475 88 585 85.183 306.358 88 315 86.133 217.838 88 225 85.876 442.399 88 450 85.17 174.213 88 180" class="line" clip-path="url(#a)" style="pointer-events:none;stroke-linejoin:round;opacity:.7;stroke-width:8;stroke:#854897"/></g><g class="focus Tammy" style="opacity:.7"><path d="M-3608 1957.5c.325-2.157 58.667-585 88-585h88c29.333 0 82.341-123.426 88-135s86.346-218.234 88-225 85.168-486.337 88-495 60.206-83.46 88-90 64.747 56.89 88 45 58.667-135 88-135h176c29.333 0 58.667 45 88 45s58.667-45 88-45h88c29.333 0 81.021 122.51 88 135s85.565 171.907 88 180 86.133 397.838 88 405 86.525 263.59 88 270 87.3 490.52 88 495 87.35 625.685 88 630 87.241 535.343 88 540 87.476 536.115 88 540 87.808 763.335 88 765" class="line" clip-path="url(#a)" style="pointer-events:none;stroke-linejoin:round;opacity:.7;stroke-width:2;stroke:#804795"/></g><g class="focus Taylor" style="opacity:.7"><path d="M-880 3352.5c.066-.985 87.76-1302.354 88-1305s87.476-626.115 88-630 87.3-670.52 88-675 79.202-436.559 88-450 58.667-45 88-45h176c29.333 0 58.667 45 88 45h88c29.333 0 64.747 33.11 88 45s73.663 30.337 88 45 83.34 124.278 88 135 77.426 255.916 88 270 69.426 30.863 88 45 76.865 120.765 88 135 60.467 82.96 88 90 58.667-45 88-45 60.467 52.04 88 45 58.667-90 88-90h88c29.333 0 87.101 624.945 88 630s80.472 347.188 88 360 84.098 80.038 88 90 87.675 582.843 88 585" class="line" clip-path="url(#a)" style="pointer-events:none;stroke-linejoin:round;opacity:.7;stroke-width:4;stroke:#7b4692"/></g><g class="focus Tracy" style="opacity:.7"><path d="M-3432 3757.5c.139-1.42 87.476-896.115 88-900s86.346-398.234 88-405 86.133-307.838 88-315 85.183-351.358 88-360 83.34-169.278 88-180 81.021-212.51 88-225 79.253-76.58 88-90 85.183-171.358 88-180 86.133-352.838 88-360 73.663-300.337 88-315 83.34 124.278 88 135 77.426 255.916 88 270 69.426 30.863 88 45 63.091 124.502 88 135 78.764 31.376 88 45 87.35 580.685 88 585 84.108 575.05 88 585 60.467-127.96 88-135 83.34 79.278 88 90 87.439 310.981 88 315 87.568 941.468 88 945 78.876 481.421 88 495 62.234 35.413 88 45 80.831 82.669 88 90" class="line" clip-path="url(#a)" style="pointer-events:none;stroke-linejoin:round;opacity:.7;stroke-width:2;stroke:#76448e"/></g><g class="focus Virginia" style="opacity:.7"><path d="M-10472 4432.5c11.135-14.235 104.432-190.707 176-225s287.235 51.208 352 90 117.333 180 176 180h176c44 0 44-135 88-135h176c44 0 83.34-259.278 88-270s64.747-123.11 88-135 73.663 59.663 88 45 84.108-215.05 88-225 83.34-214.278 88-225 76.865-165.765 88-180 60.467-52.04 88-45 81.021 102.49 88 90 85.565-396.907 88-405 82.341-168.426 88-180 84.108-170.05 88-180 80.472-257.188 88-270 84.098-80.038 88-90 86.346-443.234 88-450 84.708-260.74 88-270 76.844-210.76 88-225 70.987-30.522 88-45 83.34-124.278 88-135 84.708-260.74 88-270 77.825-211.038 88-225 68.055-31.316 88-45 73.663-75.337 88-90 58.667-90 88-90h88c29.333 0 58.667-135 88-135h176c29.333 0 58.667-45 88-45s58.667 45 88 45h264c29.333 0 58.667 45 88 45h88c29.333 0 69.532 30.834 88 45s69.532 75.834 88 90 58.667 45 88 45h88c29.333 0 69.532 75.834 88 90s58.667 45 88 45h88c29.333 0 60.467 52.04 88 45s58.667-90 88-90 82.341 78.426 88 90 76.865 255.765 88 270 58.667-45 88-45h88c29.333 0 58.667 90 88 90h88c29.333 0 69.532 75.834 88 90s69.532 30.834 88 45 76.865 75.765 88 90 79.253 121.58 88 135 76.865 120.765 88 135 76.865 75.765 88 90 81.021 122.51 88 135 82.341 168.426 88 180 79.253 166.58 88 180 79.253 76.58 88 90 85.183 171.358 88 180 85.565 351.907 88 360 85.876 217.399 88 225 58.667 405 88 405h88c29.333 0 86.678 443.914 88 450s87.173 356.617 88 360" class="line" clip-path="url(#a)" style="pointer-events:none;stroke-linejoin:round;opacity:.7;stroke-width:4;stroke:#71438b"/></g><g class="focus Zoe" style="opacity:.7"><path d="M88 3667.5c.192-1.665 87.101-759.945 88-765s82.341-213.426 88-225 79.253-121.58 88-135 60.467-142.04 88-135 58.667 180 88 180 64.747-168.11 88-180 73.663 75.337 88 90 83.34 100.722 88 90 87.397-490.838 88-495 58.667-720 88-720h88c29.333 0 58.667-45 88-45s79.253 58.42 88 45 87.903-1078.813 88-1080" class="line" clip-path="url(#a)" style="pointer-events:none;stroke-linejoin:round;opacity:.7;stroke-width:4;stroke:#6c4188"/></g><g class="popUpName" style="pointer-events:none" transform="translate(-100 -100)"><circle r="12" class="tooltipCircle" style="fill:#f35432"/><text y="-15" class="titles" style="font-size:12px">Isabella</text></g></g></svg>