<svg xmlns="http://www.w3.org/2000/svg" xml:space="preserve" id="Layer_1" x="0" y="0" style="enable-background:new 0 0 1050 798" version="1.1" viewBox="0 0 1050 798"><style>.st1{fill:#595959}.st2{fill:#e7e7e7}.st3{fill:#ac640c;fill-opacity:.45}.st4{fill:#333}.st5,.st7{fill:#00603c}.st7{fill-opacity:.25}.st10{fill:none;stroke:#01546f;stroke-miterlimit:10}.st14{fill:#01546f;fill-opacity:.35}.st16{fill:#bbd3ca}.st20{font-family:&quot;Rockwell-ExtraBold&quot;}.st21{font-size:25px}.st22{opacity:.5}</style><path d="M12 .5h1026c6.4 0 11.5 5.1 11.5 11.5v774c0 6.4-5.1 11.5-11.5 11.5H12C5.6 797.5.5 792.4.5 786V12C.5 5.6 5.6.5 12 .5z" style="fill:#f9f9f9"/><path d="M51.4 30.2c-1.7 0-3.1-.7-4.1-2.1l.9-1c.5.7 1 1.2 1.5 1.5.5.3 1.1.4 1.8.4.5 0 .9-.1 1.3-.2.4-.2.7-.4.9-.7.2-.3.3-.6.3-1 0-.6-.3-1.1-.8-1.4-.5-.3-1.2-.6-2.1-.8-1.1-.3-1.9-.6-2.5-1.1-.6-.5-.8-1.2-.8-2.1 0-.6.2-1.1.5-1.6s.8-.8 1.3-1.1c.6-.3 1.2-.4 1.9-.4.9 0 1.6.2 2.2.5.6.4 1.1.8 1.5 1.5l-.9.9c-.3-.5-.7-.9-1.2-1.2-.5-.3-1-.4-1.6-.4-.7 0-1.3.2-1.7.5-.4.3-.7.8-.7 1.3s.2.9.6 1.2c.4.3 1.1.5 2 .8 1.1.3 2 .6 2.6 1.1.7.5 1 1.2 1 2 0 .7-.2 1.2-.5 1.7s-.8.9-1.4 1.2c-.5.3-1.2.5-2 .5zm9 0c-1 0-1.7-.3-2.2-.9-.5-.6-.8-1.4-.8-2.5v-5.1h1.2v4.9c0 1.7.7 2.5 2.1 2.5.5 0 .9-.1 1.2-.3.4-.2.7-.5.9-.8.2-.4.3-.8.3-1.2v-5.1h1.2V30h-1.2v-1.4c-.3.5-.6.8-1.2 1.2-.4.2-.9.4-1.5.4zm6.3-.2v-8.4h1.2V23c.3-.4.7-.8 1.2-1.1.5-.3 1.1-.5 1.7-.5.9 0 1.6.3 2.1.9.5.6.7 1.4.7 2.6V30h-1.2v-5c0-1.6-.7-2.4-2-2.4-.5 0-.9.1-1.3.3-.4.2-.7.5-.9.8-.2.4-.3.7-.3 1.2V30h-1.2zm12.7.2c-.8 0-1.5-.2-2.1-.6-.6-.4-1.1-.9-1.4-1.5-.3-.7-.5-1.4-.5-2.3 0-.8.2-1.6.5-2.2.4-.7.8-1.2 1.4-1.6.6-.4 1.3-.6 2-.6.6 0 1.2.1 1.8.4.5.3 1 .6 1.3 1.1v-4.8h1.2V30h-1.2v-1.4c-.3.4-.7.8-1.2 1.1-.6.3-1.2.5-1.8.5zm.1-1.2c.6 0 1.1-.1 1.5-.4s.8-.7 1-1.1c.3-.5.4-1.1.4-1.7 0-.6-.1-1.2-.4-1.7-.2-.5-.6-.9-1-1.2s-.9-.4-1.5-.4-1.1.1-1.5.4c-.4.3-.8.7-1 1.2-.2.5-.4 1-.4 1.7 0 .6.1 1.2.4 1.7s.6.9 1 1.2c.5.2 1 .3 1.5.3zm9.7 1.2c-.7 0-1.4-.2-2-.6-.6-.4-1.1-.9-1.4-1.6-.3-.7-.5-1.4-.5-2.2 0-.8.2-1.6.5-2.2.4-.7.8-1.2 1.4-1.6.6-.4 1.3-.6 2-.6s1.3.2 1.8.5.9.7 1.2 1.2v-1.5h1.2V30h-1.2v-1.5c-.2.5-.6.9-1.2 1.2-.5.3-1.1.5-1.8.5zm.3-1.2c.6 0 1.1-.1 1.5-.4.4-.3.8-.7 1-1.1.3-.5.4-1 .4-1.7 0-.6-.1-1.2-.4-1.6-.2-.5-.6-.9-1-1.1-.4-.3-.9-.4-1.5-.4s-1.1.1-1.5.4c-.4.3-.8.6-1 1.1-.2.5-.4 1-.4 1.6 0 .6.1 1.2.4 1.7.2.5.6.9 1 1.1.4.3.9.4 1.5.4zm7.6 4.7 1.4-3.5-3.9-8.6H96l2.9 6.4c0 .1.1.2.1.3 0 .1.1.2.1.3 0-.1.1-.2.1-.3 0-.1.1-.2.1-.3l2.5-6.5h1.4L99.8 30l-1.4 3.7h-1.3z" class="st1"/><path d="M0 0v-.5h-.5V0H0zm150 0h.5v-.5h-.5V0zm0 48v.5h.5V48h-.5zM0 48h-.5v.5H0V48zM0 .5h150v-1H0v1zM149.5 0v48h1V0h-1zm.5 47.5H0v1h150v-1zM.5 48V0h-1v48h1z" class="st2"/><path d="M195.6 30V18.8h1.2l4 6.5 4.1-6.5h1.1V30h-1.3V22.8c0-.6.1-1.2.1-1.8l-3.7 5.8h-.9l-3.6-5.8c.1.6.1 1.2.1 1.8V30h-1.1zm17 .2c-.8 0-1.6-.2-2.2-.6-.6-.4-1.1-.9-1.5-1.6-.4-.7-.6-1.4-.6-2.3 0-.8.2-1.6.6-2.2.4-.7.9-1.2 1.5-1.6.7-.4 1.4-.6 2.2-.6.8 0 1.6.2 2.2.6.7.4 1.2.9 1.5 1.6.4.7.6 1.4.6 2.2a4.645 4.645 0 0 1-2.1 3.9c-.7.4-1.4.6-2.2.6zm0-1.2c.6 0 1.1-.1 1.6-.4.5-.3.8-.7 1.1-1.1.3-.5.4-1 .4-1.7s-.1-1.2-.4-1.6c-.3-.5-.6-.9-1.1-1.1-.4-.3-1-.4-1.6-.4-.6 0-1.1.1-1.6.4-.5.3-.8.7-1.1 1.1-.3.5-.4 1-.4 1.6 0 .6.1 1.2.4 1.7.3.5.6.9 1.1 1.1.5.3 1 .4 1.6.4zm6 1v-8.4h1.2V23c.3-.4.7-.8 1.2-1.1.5-.3 1.1-.5 1.7-.5.9 0 1.6.3 2.1.9.5.6.7 1.4.7 2.6V30h-1.2v-5c0-1.6-.7-2.4-2-2.4-.5 0-.9.1-1.3.3-.4.2-.7.5-.9.8-.2.4-.3.7-.3 1.2V30h-1.2zm12.7.2c-.8 0-1.5-.2-2.1-.6-.6-.4-1.1-.9-1.4-1.5-.3-.7-.5-1.4-.5-2.3 0-.8.2-1.6.5-2.2.4-.7.8-1.2 1.4-1.6.6-.4 1.3-.6 2-.6.6 0 1.2.1 1.8.4.5.3 1 .6 1.3 1.1v-4.8h1.2V30h-1.2v-1.4c-.3.4-.7.8-1.2 1.1-.6.3-1.2.5-1.8.5zm.1-1.2c.6 0 1.1-.1 1.5-.4.4-.3.8-.7 1-1.1.3-.5.4-1.1.4-1.7 0-.6-.1-1.2-.4-1.7-.2-.5-.6-.9-1-1.2-.4-.3-.9-.4-1.5-.4s-1.1.1-1.5.4c-.4.3-.8.7-1 1.2-.2.5-.4 1-.4 1.7 0 .6.1 1.2.4 1.7.2.5.6.9 1 1.2.5.2 1 .3 1.5.3zm9.7 1.2c-.7 0-1.4-.2-2-.6-.6-.4-1.1-.9-1.4-1.6-.3-.7-.5-1.4-.5-2.2 0-.8.2-1.6.5-2.2.4-.7.8-1.2 1.4-1.6.6-.4 1.3-.6 2-.6s1.3.2 1.8.5.9.7 1.2 1.2v-1.5h1.2V30h-1.2v-1.5c-.3.5-.7.9-1.3 1.2-.5.3-1.1.5-1.7.5zm.2-1.2c.6 0 1.1-.1 1.5-.4.4-.3.8-.7 1-1.1.3-.5.4-1 .4-1.7 0-.6-.1-1.2-.4-1.6-.2-.5-.6-.9-1-1.1-.4-.3-.9-.4-1.5-.4s-1.1.1-1.5.4c-.4.3-.8.6-1 1.1-.2.5-.4 1-.4 1.6 0 .6.1 1.2.4 1.7.2.5.6.9 1 1.1.5.3 1 .4 1.5.4zm7.7 4.7 1.4-3.5-3.9-8.6h1.4l2.9 6.4c0 .1.1.2.1.3 0 .1.1.2.1.3 0-.1.1-.2.1-.3 0-.1.1-.2.1-.3l2.5-6.5h1.4l-3.4 8.4-1.4 3.7H249z" class="st1"/><path d="M150 0v-.5h-.5V0h.5zm150 0h.5v-.5h-.5V0zm0 48v.5h.5V48h-.5zm-150 0h-.5v.5h.5V48zm0-47.5h150v-1H150v1zM299.5 0v48h1V0h-1zm.5 47.5H150v1h150v-1zm-149.5.5V0h-1v48h1z" class="st2"/><path d="M347.7 30V20h-3.2v-1.2h7.8V20H349v10h-1.3zm7.6.2c-1 0-1.7-.3-2.2-.9-.5-.6-.8-1.4-.8-2.5v-5.1h1.2v4.9c0 1.7.7 2.5 2.1 2.5.5 0 .9-.1 1.2-.3.4-.2.7-.5.9-.8.2-.4.3-.8.3-1.2v-5.1h1.2V30H358v-1.4c-.3.5-.6.8-1.2 1.2-.4.2-.9.4-1.5.4zm10 0c-.8 0-1.6-.2-2.2-.5-.6-.4-1.1-.9-1.5-1.5-.4-.7-.5-1.4-.5-2.2 0-.9.2-1.6.5-2.3.4-.7.8-1.2 1.5-1.6.6-.4 1.4-.6 2.2-.6.7 0 1.4.2 2 .5.6.3 1 .8 1.3 1.4.3.6.5 1.3.4 2.1v.6h-6.6c.1.9.4 1.6.9 2.2.6.5 1.3.8 2.3.8.4 0 .8-.1 1.2-.2.4-.1.8-.4 1.3-.8l.6.9c-.4.4-.8.7-1.4.9-.7.1-1.3.3-2 .3zm-.1-7.6c-.8 0-1.4.2-1.9.6-.5.4-.8 1-.9 1.8h5.4v-.1c0-.4-.1-.8-.3-1.1-.2-.4-.5-.7-.9-.9-.4-.2-.9-.3-1.4-.3zm8.2 7.6c-.7 0-1.4-.1-1.9-.4-.6-.3-1-.6-1.3-1.1l.8-.7c.6.8 1.4 1.1 2.5 1.1.5 0 .9-.1 1.2-.3.3-.2.5-.6.5-1 0-.3-.1-.6-.4-.8-.1-.1-.3-.2-.6-.3l-.9-.3c-.6-.2-1.1-.3-1.5-.5-.4-.2-.7-.4-.9-.6-.3-.4-.5-.8-.5-1.4 0-.5.1-.9.4-1.2.3-.4.6-.6 1-.8.4-.2.9-.3 1.5-.3s1.2.1 1.7.4c.6.2 1 .6 1.4 1l-.8.8c-.3-.3-.7-.6-1.1-.8-.4-.2-.8-.3-1.2-.3-.5 0-.9.1-1.3.4-.3.2-.5.5-.5.9 0 .3.1.6.4.8.1.1.4.2.6.3.3.1.6.2 1 .3.5.1.9.3 1.2.4.3.1.6.3.8.5.5.4.8 1 .8 1.7 0 .5-.1.9-.4 1.3-.3.4-.6.7-1.1.9-.3-.1-.8 0-1.4 0zm8.3 0c-.8 0-1.5-.2-2.1-.6-.6-.4-1.1-.9-1.4-1.5-.3-.7-.5-1.4-.5-2.3 0-.8.2-1.6.5-2.2.4-.7.8-1.2 1.4-1.6.6-.4 1.3-.6 2-.6.6 0 1.2.1 1.8.4.5.3 1 .6 1.3 1.1v-4.8h1.2V30h-1.2v-1.4c-.3.4-.7.8-1.2 1.1-.6.3-1.1.5-1.8.5zm.2-1.2c.6 0 1.1-.1 1.5-.4.4-.3.8-.7 1-1.1.3-.5.4-1.1.4-1.7 0-.6-.1-1.2-.4-1.7-.2-.5-.6-.9-1-1.2-.4-.3-.9-.4-1.5-.4s-1.1.1-1.5.4c-.4.3-.8.7-1 1.2-.2.5-.4 1-.4 1.7 0 .6.1 1.2.4 1.7.2.5.6.9 1 1.2.4.2.9.3 1.5.3zm9.6 1.2c-.7 0-1.4-.2-2-.6-.6-.4-1-.9-1.4-1.6-.3-.7-.5-1.4-.5-2.2 0-.8.2-1.6.5-2.2.4-.7.8-1.2 1.4-1.6.6-.4 1.3-.6 2-.6s1.3.2 1.8.5.9.7 1.2 1.2v-1.5h1.2V30h-1.2v-1.5c-.3.5-.7.9-1.3 1.2-.4.3-1 .5-1.7.5zm.3-1.2c.6 0 1.1-.1 1.5-.4.4-.3.8-.7 1-1.1.3-.5.4-1 .4-1.7 0-.6-.1-1.2-.4-1.6-.2-.5-.6-.9-1-1.1-.4-.3-.9-.4-1.5-.4s-1.1.1-1.5.4c-.4.3-.8.6-1 1.1-.2.5-.4 1-.4 1.6 0 .6.1 1.2.4 1.7.2.5.6.9 1 1.1.4.3.9.4 1.5.4zm7.6 4.7 1.4-3.5-3.9-8.6h1.4l2.9 6.4c0 .1.1.2.1.3 0 .1.1.2.1.3 0-.1.1-.2.1-.3 0-.1.1-.2.1-.3l2.5-6.5h1.4l-3.4 8.4-1.4 3.7h-1.3z" class="st1"/><path d="M300 0v-.5h-.5V0h.5zm150 0h.5v-.5h-.5V0zm0 48v.5h.5V48h-.5zm-150 0h-.5v.5h.5V48zm0-47.5h150v-1H300v1zM449.5 0v48h1V0h-1zm.5 47.5H300v1h150v-1zm-149.5.5V0h-1v48h1z" class="st2"/><path d="m484.3 30-3.4-11.2h1.4l2.2 7.4c.1.4.2.8.3 1.1.1.3.2.7.2 1 .1-.3.2-.6.3-.8.1-.2.1-.4.2-.6.1-.2.2-.4.3-.7l1.9-4.8h1.2l1.9 4.8c.1.4.3.7.4 1 .1.3.2.6.3 1 .1-.3.1-.5.1-.6 0-.2.1-.4.1-.6.1-.2.2-.5.3-.9l2.2-7.3h1.4L492 30h-1l-2.9-6.8-2.8 6.8h-1zm16 .2c-.8 0-1.6-.2-2.2-.5-.6-.4-1.1-.9-1.5-1.5-.4-.7-.5-1.4-.5-2.2 0-.9.2-1.6.5-2.3.4-.7.8-1.2 1.5-1.6.6-.4 1.4-.6 2.2-.6.7 0 1.4.2 2 .5.6.3 1 .8 1.3 1.4.3.6.5 1.3.4 2.1v.6h-6.6c.1.9.4 1.6.9 2.2.6.5 1.3.8 2.3.8.4 0 .8-.1 1.2-.2.4-.1.8-.4 1.3-.8l.6.9c-.4.4-.8.7-1.4.9-.8.1-1.4.3-2 .3zm-.2-7.6c-.8 0-1.4.2-1.9.6-.5.4-.8 1-.9 1.8h5.4v-.1c0-.4-.1-.8-.3-1.1-.2-.4-.5-.7-.9-.9-.4-.2-.9-.3-1.4-.3zm8.9 7.6c-.8 0-1.5-.2-2.1-.6-.6-.4-1.1-.9-1.4-1.5-.3-.7-.5-1.4-.5-2.3 0-.8.2-1.6.5-2.2.4-.7.8-1.2 1.4-1.6.6-.4 1.3-.6 2-.6.6 0 1.2.1 1.8.4.5.3 1 .6 1.3 1.1v-4.8h1.2V30H512v-1.4c-.3.4-.7.8-1.2 1.1-.6.3-1.2.5-1.8.5zm.2-1.2c.6 0 1.1-.1 1.5-.4.4-.3.8-.7 1-1.1.3-.5.4-1.1.4-1.7 0-.6-.1-1.2-.4-1.7-.2-.5-.6-.9-1-1.2-.4-.3-.9-.4-1.5-.4s-1.1.1-1.5.4c-.4.3-.8.7-1 1.2-.2.5-.4 1-.4 1.7 0 .6.1 1.2.4 1.7s.6.9 1 1.2c.4.2.9.3 1.5.3zm6.3 1v-8.4h1.2V23c.3-.4.7-.8 1.2-1.1.5-.3 1.1-.5 1.7-.5.9 0 1.6.3 2.1.9.5.6.7 1.4.7 2.6V30h-1.2v-5c0-1.6-.7-2.4-2-2.4-.5 0-.9.1-1.3.3-.4.2-.7.5-.9.8-.2.4-.3.7-.3 1.2V30h-1.2zm13 .2c-.8 0-1.6-.2-2.2-.5-.6-.4-1.1-.9-1.5-1.5-.4-.7-.5-1.4-.5-2.2 0-.9.2-1.6.5-2.3.4-.7.8-1.2 1.5-1.6.6-.4 1.3-.6 2.2-.6.7 0 1.4.2 2 .5.6.3 1 .8 1.3 1.4.3.6.5 1.3.4 2.1v.6h-6.6c.1.9.4 1.6.9 2.2.6.5 1.3.8 2.3.8.4 0 .8-.1 1.2-.2.4-.1.8-.4 1.3-.8l.6.9c-.4.4-.8.7-1.4.9-.8.1-1.4.3-2 .3zm-.2-7.6c-.8 0-1.4.2-1.9.6-.5.4-.8 1-.9 1.8h5.4v-.1c0-.4-.1-.8-.3-1.1-.2-.4-.5-.7-.9-.9-.4-.2-.9-.3-1.4-.3zm8.2 7.6c-.7 0-1.4-.1-1.9-.4-.6-.3-1-.6-1.3-1.1l.9-.8c.6.8 1.4 1.1 2.5 1.1.5 0 .9-.1 1.2-.3.3-.2.5-.6.5-1 0-.3-.1-.6-.4-.8-.1-.1-.3-.2-.6-.3l-.9-.3c-.6-.2-1.1-.3-1.5-.5-.4-.2-.7-.4-.9-.6-.3-.4-.5-.8-.5-1.4 0-.5.1-.9.4-1.2.3-.4.6-.6 1-.8.4-.2.9-.3 1.5-.3s1.2.1 1.7.4c.6.2 1 .6 1.4 1l-.8.8c-.3-.3-.7-.6-1.1-.8-.4-.2-.8-.3-1.2-.3-.5 0-.9.1-1.3.4-.3.2-.5.5-.5.9 0 .3.1.6.4.8.1.1.4.2.6.3.3.1.6.2 1 .3.5.1.9.3 1.2.4.3.1.6.3.8.5.5.4.8 1 .8 1.7 0 .5-.1.9-.4 1.3-.3.4-.6.7-1.1.9-.4 0-.9.1-1.5.1zm8.4 0c-.8 0-1.5-.2-2.1-.6-.6-.4-1.1-.9-1.4-1.5-.3-.7-.5-1.4-.5-2.3 0-.8.2-1.6.5-2.2.4-.7.8-1.2 1.4-1.6.6-.4 1.3-.6 2-.6.6 0 1.2.1 1.8.4.5.3 1 .6 1.3 1.1v-4.8h1.2V30h-1.2v-1.4c-.3.4-.7.8-1.2 1.1-.6.3-1.2.5-1.8.5zm.1-1.2c.6 0 1.1-.1 1.5-.4.4-.3.8-.7 1-1.1.3-.5.4-1.1.4-1.7 0-.6-.1-1.2-.4-1.7-.2-.5-.6-.9-1-1.2-.4-.3-.9-.4-1.5-.4s-1.1.1-1.5.4c-.4.3-.8.7-1 1.2-.2.5-.4 1-.4 1.7 0 .6.1 1.2.4 1.7.2.5.6.9 1 1.2.5.2 1 .3 1.5.3zm9.7 1.2c-.7 0-1.4-.2-2-.6-.6-.4-1-.9-1.4-1.6-.3-.7-.5-1.4-.5-2.2 0-.8.2-1.6.5-2.2.4-.7.8-1.2 1.4-1.6.6-.4 1.3-.6 2-.6s1.3.2 1.8.5.9.7 1.2 1.2v-1.5h1.2V30h-1.2v-1.5c-.3.5-.7.9-1.3 1.2-.5.3-1.1.5-1.7.5zm.2-1.2c.6 0 1.1-.1 1.5-.4.4-.3.8-.7 1-1.1.3-.5.4-1 .4-1.7 0-.6-.1-1.2-.4-1.6-.2-.5-.6-.9-1-1.1-.4-.3-.9-.4-1.5-.4s-1.1.1-1.5.4c-.4.3-.8.6-1 1.1-.2.5-.4 1-.4 1.6 0 .6.1 1.2.4 1.7.2.5.6.9 1 1.1.5.3 1 .4 1.5.4zm7.6 4.7 1.4-3.5-3.9-8.6h1.4l2.9 6.4c0 .1.1.2.1.3 0 .1.1.2.1.3 0-.1.1-.2.1-.3 0-.1.1-.2.1-.3l2.5-6.5h1.4l-3.4 8.4-1.4 3.7h-1.3z" class="st1"/><path d="M450 0v-.5h-.5V0h.5zm150 0h.5v-.5h-.5V0zm0 48v.5h.5V48h-.5zm-150 0h-.5v.5h.5V48zm0-47.5h150v-1H450v1zM599.5 0v48h1V0h-1zm.5 47.5H450v1h150v-1zm-149.5.5V0h-1v48h1z" class="st2"/><path d="M643.7 30V20h-3.2v-1.2h7.8V20H645v10h-1.3zm6.2 0V18.2h1.2v5c.3-.5.7-.9 1.2-1.2.5-.3 1.1-.5 1.6-.5 1 0 1.7.3 2.1.9.5.6.7 1.4.7 2.6v5h-1.2v-5c0-1.6-.7-2.4-2-2.4-.5 0-.9.1-1.3.3-.4.2-.7.5-.9.8-.2.4-.3.7-.3 1.2V30h-1.1zm12.2.2c-1 0-1.7-.3-2.2-.9-.5-.6-.8-1.4-.8-2.5v-5.1h1.2v4.9c0 1.7.7 2.5 2.1 2.5.5 0 .9-.1 1.2-.3.4-.2.7-.5.9-.8.2-.4.3-.8.3-1.2v-5.1h1.2V30h-1.2v-1.4c-.3.5-.6.8-1.2 1.2-.4.2-.9.4-1.5.4zm6.4-.2v-8.4h1.2v1.6c.2-.5.6-.9 1-1.3.5-.4 1-.5 1.6-.5h.5c.2 0 .3.1.4.1l-.3 1.4c-.3-.1-.6-.2-.8-.2-.5 0-.9.1-1.2.4-.4.2-.6.5-.8.9-.2.4-.3.8-.3 1.2V30h-1.3zm8.7.2c-.7 0-1.4-.1-1.9-.4-.6-.3-1-.6-1.3-1.1l.9-.8c.6.8 1.4 1.1 2.5 1.1.5 0 .9-.1 1.2-.3.3-.2.5-.6.5-1 0-.3-.1-.6-.4-.8-.1-.1-.3-.2-.6-.3l-.9-.3c-.6-.2-1.1-.3-1.5-.5-.4-.2-.7-.4-.9-.6-.3-.4-.5-.8-.5-1.4 0-.5.1-.9.4-1.2.3-.4.6-.6 1-.8.4-.2.9-.3 1.5-.3s1.2.1 1.7.4c.6.2 1 .6 1.4 1l-.8.8c-.3-.3-.7-.6-1.1-.8-.4-.2-.8-.3-1.2-.3-.5 0-.9.1-1.3.4-.3.2-.5.5-.5.9 0 .3.1.6.4.8.1.1.4.2.6.3.3.1.6.2 1 .3.5.1.9.3 1.2.4.3.1.6.3.8.5.5.4.8 1 .8 1.7 0 .5-.1.9-.4 1.3-.3.4-.6.7-1.1.9-.4 0-.9.1-1.5.1zm8.3 0c-.8 0-1.5-.2-2.1-.6-.6-.4-1.1-.9-1.4-1.5-.3-.7-.5-1.4-.5-2.3 0-.8.2-1.6.5-2.2.4-.7.8-1.2 1.4-1.6.6-.4 1.3-.6 2-.6.6 0 1.2.1 1.8.4.5.3 1 .6 1.3 1.1v-4.8h1.2V30h-1.2v-1.4c-.3.4-.7.8-1.2 1.1-.6.3-1.1.5-1.8.5zm.2-1.2c.6 0 1.1-.1 1.5-.4s.8-.7 1-1.1c.3-.5.4-1.1.4-1.7 0-.6-.1-1.2-.4-1.7-.2-.5-.6-.9-1-1.2s-.9-.4-1.5-.4-1.1.1-1.5.4-.8.7-1 1.2c-.2.5-.4 1-.4 1.7 0 .6.1 1.2.4 1.7s.6.9 1 1.2.9.3 1.5.3zm9.6 1.2c-.7 0-1.4-.2-2-.6-.6-.4-1-.9-1.4-1.6-.3-.7-.5-1.4-.5-2.2 0-.8.2-1.6.5-2.2.4-.7.8-1.2 1.4-1.6.6-.4 1.3-.6 2-.6s1.3.2 1.8.5.9.7 1.2 1.2v-1.5h1.2V30h-1.2v-1.5c-.3.5-.7.9-1.3 1.2-.4.3-1 .5-1.7.5zm.3-1.2c.6 0 1.1-.1 1.5-.4.4-.3.8-.7 1-1.1.3-.5.4-1 .4-1.7 0-.6-.1-1.2-.4-1.6-.2-.5-.6-.9-1-1.1-.4-.3-.9-.4-1.5-.4s-1.1.1-1.5.4c-.4.3-.8.6-1 1.1-.2.5-.4 1-.4 1.6 0 .6.1 1.2.4 1.7.2.5.6.9 1 1.1.4.3.9.4 1.5.4zm7.6 4.7 1.4-3.5-3.9-8.6h1.4L705 28c0 .1.1.2.1.3 0 .1.1.2.1.3 0-.1.1-.2.1-.3 0-.1.1-.2.1-.3l2.5-6.5h1.4L706 30l-1.4 3.7h-1.4z" class="st1"/><path d="M600 0v-.5h-.5V0h.5zm150 0h.5v-.5h-.5V0zm0 48v.5h.5V48h-.5zm-150 0h-.5v.5h.5V48zm0-47.5h150v-1H600v1zM749.5 0v48h1V0h-1zm.5 47.5H600v1h150v-1zm-149.5.5V0h-1v48h1z" class="st2"/><path d="M802.6 30V18.8h7.1V20h-5.8v3.7h5V25h-5v5h-1.3zm8.9 0v-8.4h1.2v1.6c.2-.5.6-.9 1-1.3.5-.4 1-.5 1.6-.5h.5c.2 0 .3.1.4.1l-.3 1.4c-.3-.1-.6-.2-.8-.2-.5 0-.9.1-1.2.4-.4.2-.6.5-.8.9-.2.4-.3.8-.3 1.2V30h-1.3zm6.8-10.2c-.3 0-.5-.1-.7-.2-.2-.2-.2-.4-.2-.7 0-.3.1-.5.2-.6.2-.2.4-.2.7-.2.3 0 .5.1.7.2.2.1.2.4.2.6 0 .3-.1.5-.2.6-.2.3-.4.3-.7.3zm-.6 10.2v-8.4h1.2V30h-1.2zm7 .2c-.8 0-1.5-.2-2.1-.6-.6-.4-1.1-.9-1.4-1.5-.3-.7-.5-1.4-.5-2.3 0-.8.2-1.6.5-2.2.4-.7.8-1.2 1.4-1.6.6-.4 1.3-.6 2-.6.6 0 1.2.1 1.8.4.5.3 1 .6 1.3 1.1v-4.8h1.2V30h-1.2v-1.4c-.3.4-.7.8-1.2 1.1-.5.3-1.1.5-1.8.5zm.2-1.2c.6 0 1.1-.1 1.5-.4s.8-.7 1-1.1c.3-.5.4-1.1.4-1.7 0-.6-.1-1.2-.4-1.7-.2-.5-.6-.9-1-1.2s-.9-.4-1.5-.4-1.1.1-1.5.4-.8.7-1 1.2c-.2.5-.4 1-.4 1.7 0 .6.1 1.2.4 1.7s.6.9 1 1.2.9.3 1.5.3zm9.7 1.2c-.7 0-1.4-.2-2-.6-.6-.4-1.1-.9-1.4-1.6-.3-.7-.5-1.4-.5-2.2 0-.8.2-1.6.5-2.2.4-.7.8-1.2 1.4-1.6.6-.4 1.3-.6 2-.6s1.3.2 1.8.5.9.7 1.2 1.2v-1.5h1.2V30h-1.2v-1.5c-.3.5-.7.9-1.3 1.2-.5.3-1.1.5-1.7.5zm.2-1.2c.6 0 1.1-.1 1.5-.4.4-.3.8-.7 1-1.1.3-.5.4-1 .4-1.7 0-.6-.1-1.2-.4-1.6-.2-.5-.6-.9-1-1.1-.4-.3-.9-.4-1.5-.4s-1.1.1-1.5.4c-.4.3-.8.6-1 1.1s-.4 1-.4 1.6c0 .6.1 1.2.4 1.7.2.5.6.9 1 1.1.5.3 1 .4 1.5.4zm7.6 4.7 1.4-3.5-3.9-8.6h1.4l2.9 6.4c0 .1.1.2.1.3 0 .1.1.2.1.3 0-.1.1-.2.1-.3 0-.1.1-.2.1-.3l2.5-6.5h1.4l-3.4 8.4-1.4 3.7h-1.3z" class="st1"/><path d="M750 0v-.5h-.5V0h.5zm150 0h.5v-.5h-.5V0zm0 48v.5h.5V48h-.5zm-150 0h-.5v.5h.5V48zm0-47.5h150v-1H750v1zM899.5 0v48h1V0h-1zm.5 47.5H750v1h150v-1zm-149.5.5V0h-1v48h1z" class="st2"/><path d="M944.9 30.2c-1.7 0-3.1-.7-4.1-2.1l.9-1c.5.7 1 1.2 1.5 1.5.5.3 1.1.4 1.8.4.5 0 .9-.1 1.3-.2.4-.2.7-.4.9-.7.2-.3.3-.6.3-1 0-.6-.3-1.1-.8-1.4-.5-.3-1.2-.6-2.1-.8-1.1-.3-1.9-.6-2.5-1.1-.6-.5-.8-1.2-.8-2.1 0-.6.2-1.1.5-1.6s.8-.8 1.3-1.1c.6-.3 1.2-.4 1.9-.4.9 0 1.6.2 2.2.5.6.4 1.1.8 1.5 1.5l-.9.9c-.3-.5-.7-.9-1.2-1.2-.5-.3-1-.4-1.6-.4-.7 0-1.3.2-1.7.5-.4.3-.7.8-.7 1.3s.2.9.6 1.2c.4.3 1.1.5 2 .8 1.1.3 2 .6 2.6 1.1.7.5 1 1.2 1 2 0 .7-.2 1.2-.5 1.7s-.8.9-1.4 1.2c-.5.3-1.2.5-2 .5zm9.3 0c-.7 0-1.4-.2-2-.6-.6-.4-1.1-.9-1.4-1.6-.3-.7-.5-1.4-.5-2.2 0-.8.2-1.6.5-2.2.4-.7.8-1.2 1.4-1.6.6-.4 1.3-.6 2-.6s1.3.2 1.8.5.9.7 1.2 1.2v-1.5h1.2V30h-1.2v-1.5c-.3.5-.7.9-1.3 1.2-.4.3-1.1.5-1.7.5zm.3-1.2c.6 0 1.1-.1 1.5-.4.4-.3.8-.7 1-1.1.3-.5.4-1 .4-1.7 0-.6-.1-1.2-.4-1.6-.2-.5-.6-.9-1-1.1-.4-.3-.9-.4-1.5-.4s-1.1.1-1.5.4c-.4.3-.8.6-1 1.1s-.4 1-.4 1.6c0 .6.1 1.2.4 1.7.2.5.6.9 1 1.1.4.3.9.4 1.5.4zm7.5 1v-7.2h-1.9v-1.2h1.9v-2.2h1.2v2.2h2.1v1.2h-2.1V30H962zm7.8.2c-1 0-1.7-.3-2.2-.9-.5-.6-.8-1.4-.8-2.5v-5.1h1.2v4.9c0 1.7.7 2.5 2.1 2.5.5 0 .9-.1 1.2-.3.4-.2.7-.5.9-.8.2-.4.3-.8.3-1.2v-5.1h1.2V30h-1.2v-1.4c-.3.5-.6.8-1.2 1.2-.4.2-1 .4-1.5.4zm6.3-.2v-8.4h1.2v1.6c.2-.5.6-.9 1-1.3.5-.4 1-.5 1.6-.5h.5c.2 0 .3.1.4.1l-.3 1.4c-.3-.1-.6-.2-.8-.2-.5 0-.9.1-1.2.4-.4.2-.6.5-.8.9-.2.4-.3.8-.3 1.2V30h-1.3zm9.1.2c-.8 0-1.5-.2-2.1-.6-.6-.4-1.1-.9-1.4-1.5-.3-.7-.5-1.4-.5-2.3 0-.8.2-1.6.5-2.2.4-.7.8-1.2 1.4-1.6.6-.4 1.3-.6 2-.6.6 0 1.2.1 1.8.4.5.3 1 .6 1.3 1.1v-4.8h1.2V30h-1.2v-1.4c-.3.4-.7.8-1.2 1.1-.6.3-1.2.5-1.8.5zm.1-1.2c.6 0 1.1-.1 1.5-.4s.8-.7 1-1.1c.3-.5.4-1.1.4-1.7 0-.6-.1-1.2-.4-1.7-.2-.5-.6-.9-1-1.2s-.9-.4-1.5-.4-1.1.1-1.5.4-.8.7-1 1.2c-.2.5-.4 1-.4 1.7 0 .6.1 1.2.4 1.7s.6.9 1 1.2.9.3 1.5.3zm9.7 1.2c-.7 0-1.4-.2-2-.6-.6-.4-1-.9-1.4-1.6-.3-.7-.5-1.4-.5-2.2 0-.8.2-1.6.5-2.2.4-.7.8-1.2 1.4-1.6.6-.4 1.3-.6 2-.6s1.3.2 1.8.5.9.7 1.2 1.2v-1.5h1.2V30H998v-1.5c-.3.5-.7.9-1.3 1.2-.5.3-1.1.5-1.7.5zm.2-1.2c.6 0 1.1-.1 1.5-.4.4-.3.8-.7 1-1.1.3-.5.4-1 .4-1.7 0-.6-.1-1.2-.4-1.6-.2-.5-.6-.9-1-1.1-.4-.3-.9-.4-1.5-.4s-1.1.1-1.5.4c-.4.3-.8.6-1 1.1-.2.5-.4 1-.4 1.6 0 .6.1 1.2.4 1.7.2.5.6.9 1 1.1.5.3 1 .4 1.5.4zm7.6 4.7 1.4-3.5-3.9-8.6h1.4l2.9 6.4c0 .1.1.2.1.3 0 .1.1.2.1.3 0-.1.1-.2.1-.3 0-.1.1-.2.1-.3l2.5-6.5h1.4l-3.4 8.4-1.4 3.7h-1.3z" class="st1"/><path d="M900 0v-.5h-.5V0h.5zm150 0h.5v-.5h-.5V0zm0 48v.5h.5V48h-.5zm-150 0h-.5v.5h.5V48zm0-47.5h150v-1H900v1zm149.5-.5v48h1V0h-1zm.5 47.5H900v1h150v-1zm-149.5.5V0h-1v48h1zM0 48v-.5h-.5v.5H0zm150 0h.5v-.5h-.5v.5zm0 150v.5h.5v-.5h-.5zM0 198h-.5v.5H0v-.5zM0 48.5h150v-1H0v1zm149.5-.5v150h1V48h-1zm.5 149.5H0v1h150v-1zM.5 198V48h-1v150h1z" class="st2"/><path d="M150 48v-.5h-.5v.5h.5zm150 0h.5v-.5h-.5v.5zm0 150v.5h.5v-.5h-.5zm-150 0h-.5v.5h.5v-.5zm0-149.5h150v-1H150v1zm149.5-.5v150h1V48h-1zm.5 149.5H150v1h150v-1zm-149.5.5V48h-1v150h1z" class="st2"/><path d="M300 48v-.5h-.5v.5h.5zm150 0h.5v-.5h-.5v.5zm0 150v.5h.5v-.5h-.5zm-150 0h-.5v.5h.5v-.5zm0-149.5h150v-1H300v1zm149.5-.5v150h1V48h-1zm.5 149.5H300v1h150v-1zm-149.5.5V48h-1v150h1z" class="st2"/><path d="M450 48v-.5h-.5v.5h.5zm150 0h.5v-.5h-.5v.5zm0 150v.5h.5v-.5h-.5zm-150 0h-.5v.5h.5v-.5zm0-149.5h150v-1H450v1zm149.5-.5v150h1V48h-1zm.5 149.5H450v1h150v-1zm-149.5.5V48h-1v150h1z" class="st2"/><path d="M600 48v-.5h-.5v.5h.5zm150 0h.5v-.5h-.5v.5zm0 150v.5h.5v-.5h-.5zm-150 0h-.5v.5h.5v-.5zm0-149.5h150v-1H600v1zm149.5-.5v150h1V48h-1zm.5 149.5H600v1h150v-1zm-149.5.5V48h-1v150h1z" class="st2"/><path d="M750 48v-.5h-.5v.5h.5zm150 0h.5v-.5h-.5v.5zm0 150v.5h.5v-.5h-.5zm-150 0h-.5v.5h.5v-.5zm0-149.5h150v-1H750v1zm149.5-.5v150h1V48h-1zm.5 149.5H750v1h150v-1zm-149.5.5V48h-1v150h1z" class="st2"/><path d="M900 48v-.5h-.5v.5h.5zm150 0h.5v-.5h-.5v.5zm0 150v.5h.5v-.5h-.5zm-150 0h-.5v.5h.5v-.5zm0-149.5h150v-1H900v1zm149.5-.5v150h1V48h-1zm.5 149.5H900v1h150v-1zm-149.5.5V48h-1v150h1zM0 198v-.5h-.5v.5H0zm150 0h.5v-.5h-.5v.5zm0 150v.5h.5v-.5h-.5zM0 348h-.5v.5H0v-.5zm0-149.5h150v-1H0v1zm149.5-.5v150h1V198h-1zm.5 149.5H0v1h150v-1zM.5 348V198h-1v150h1z" class="st2"/><path d="M150 198v-.5h-.5v.5h.5zm150 0h.5v-.5h-.5v.5zm0 150v.5h.5v-.5h-.5zm-150 0h-.5v.5h.5v-.5zm0-149.5h150v-1H150v1zm149.5-.5v150h1V198h-1zm.5 149.5H150v1h150v-1zm-149.5.5V198h-1v150h1z" class="st2"/><path d="M300 198h150v150H300V198z" class="st3"/><path d="M317.1 261.2c-1.2 0-2.1-.2-2.9-.6-.8-.4-1.4-.9-2-1.6l1.7-2c.5.7 1.1 1.2 1.6 1.4.6.2 1.1.4 1.7.4.4 0 .8-.1 1-.2.3-.1.4-.4.4-.7 0-.3-.1-.5-.3-.6-.2-.2-.5-.3-.8-.4-.3-.1-.7-.2-1-.3-1.2-.3-2.2-.7-2.8-1.3-.6-.6-.9-1.3-.9-2.3 0-.7.2-1.3.6-1.8.4-.5.9-.9 1.6-1.2.7-.3 1.3-.4 2.1-.4 1.1 0 2 .2 2.7.5.7.3 1.2.8 1.6 1.4l-1.7 1.7c-.3-.4-.7-.7-1.1-.9-.4-.2-.8-.3-1.3-.3s-.8.1-1.1.2c-.3.1-.4.4-.4.7 0 .2.1.4.3.6.2.1.4.3.7.4.3.1.6.2.9.2.8.1 1.5.4 2 .7.6.3 1.1.7 1.4 1.1.3.5.5 1 .5 1.7 0 .8-.2 1.5-.6 2s-.9 1-1.6 1.2c-.7.2-1.4.4-2.3.4zm6.8-.2v-6.2h-1.5v-2.4h1.5v-2.1h2.7v2.1h1.6v2.4h-1.6v6.2h-2.7zm9.8.2c-.9 0-1.7-.2-2.4-.6-.7-.4-1.2-.9-1.6-1.6-.4-.7-.6-1.4-.6-2.3 0-.9.2-1.6.6-2.3.4-.7 1-1.2 1.6-1.6.7-.4 1.5-.6 2.4-.6s1.7.2 2.4.6c.7.4 1.3.9 1.6 1.6.4.7.6 1.4.6 2.3 0 .9-.2 1.6-.6 2.3-.4.7-.9 1.2-1.6 1.6-.8.4-1.5.6-2.4.6zm0-2.4c.5 0 1-.2 1.3-.6.4-.4.5-.9.5-1.5s-.2-1.1-.5-1.5c-.4-.4-.8-.6-1.3-.6s-1 .2-1.4.6c-.4.4-.5.9-.5 1.5s.2 1.1.5 1.5c.4.4.8.6 1.4.6zm6.2 2.2v-8.5h2.6v1.3c.3-.4.6-.8 1.1-1 .4-.3.9-.4 1.4-.4h.5c.2 0 .3.1.5.1l-.7 3c-.1-.1-.3-.1-.5-.2s-.4-.1-.7-.1c-.4 0-.8.1-1.1.4-.3.3-.4.7-.4 1.2v4.2h-2.7zm11.2.2c-.9 0-1.8-.2-2.5-.6-.7-.4-1.2-.9-1.6-1.6-.4-.7-.6-1.4-.6-2.3 0-.9.2-1.6.6-2.3.4-.7.9-1.2 1.5-1.6.7-.4 1.4-.6 2.2-.6.8 0 1.5.2 2.1.6.6.4 1.1.9 1.4 1.5.3.7.5 1.4.5 2.2v.7H349c.1.5.4.8.8 1.1.4.3.9.4 1.6.4.4 0 .7 0 .9-.1.3-.1.6-.3.9-.5l1.3 1.8c-.5.4-1.1.8-1.6.9-.7.3-1.3.4-1.8.4zm-.3-6.6c-1 0-1.6.4-1.8 1.3h3.3c0-.4-.2-.7-.5-.9-.3-.3-.6-.4-1-.4zM313.4 309v-11.2h7.8v2.5h-4.9v2.1h4.3v2.4h-4.3v4.2h-2.9zm12.5.1c-.7 0-1.3-.2-1.9-.6-.6-.4-1-.9-1.3-1.6-.3-.7-.5-1.4-.5-2.3 0-.9.2-1.6.5-2.3.3-.7.8-1.2 1.3-1.6.6-.4 1.2-.6 2-.6.6 0 1 .1 1.5.3.4.2.8.5 1 .8v-1h2.7v8.5h-2.7v-1c-.3.3-.6.6-1.1.8-.4.5-.9.6-1.5.6zm.8-2.2c.6 0 1-.2 1.3-.6.3-.4.5-.9.5-1.6 0-.7-.2-1.2-.5-1.6-.3-.4-.8-.6-1.3-.6-.6 0-1 .2-1.3.6-.3.4-.5.9-.5 1.6 0 .7.2 1.2.5 1.6.3.4.8.6 1.3.6zm8.3-8.1c-.5 0-.9-.1-1.2-.4-.3-.2-.4-.6-.4-1s.1-.7.4-1c.3-.3.7-.4 1.2-.4s.9.1 1.2.4c.3.2.4.6.4 1s-.1.7-.4 1c-.3.3-.7.4-1.2.4zm-1.4 10.2v-8.5h2.7v8.5h-2.7zm5.2 0v-8.5h2.6v1.3c.3-.4.7-.8 1.1-1 .4-.3.9-.4 1.4-.4h.5c.2 0 .3.1.5.1l-.7 3c-.1-.1-.3-.1-.5-.2s-.4-.1-.7-.1c-.4 0-.8.1-1.1.4-.3.3-.4.7-.4 1.2v4.2h-2.7z" class="st4"/><path d="M367 261.2c-.8 0-1.6-.1-2.3-.4-.7-.3-1.3-.7-1.9-1.2-.5-.5-.9-1.1-1.2-1.8-.3-.7-.4-1.5-.4-2.3s.1-1.6.4-2.3c.3-.7.7-1.3 1.2-1.9.5-.5 1.1-.9 1.9-1.2.7-.3 1.5-.4 2.3-.4.9 0 1.6.1 2.4.4.7.3 1.3.7 1.9 1.2.5.5.9 1.1 1.2 1.9.3.7.4 1.5.4 2.3 0 .8-.1 1.6-.4 2.3-.3.7-.7 1.3-1.2 1.8s-1.1.9-1.9 1.2c-.8.2-1.5.4-2.4.4zm0-2.7c.6 0 1.1-.1 1.5-.4.4-.3.8-.7 1-1.1.3-.5.4-1 .4-1.6 0-.6-.1-1.1-.4-1.6-.3-.5-.6-.8-1-1.1-.4-.3-.9-.4-1.5-.4s-1.1.1-1.5.4c-.4.3-.8.6-1 1.1-.2.5-.4 1-.4 1.6 0 .6.1 1.1.4 1.6.3.5.6.8 1 1.1.4.2.9.4 1.5.4zm7.9 2.5v-11.2h4.9c.7 0 1.4.2 1.9.5.6.3 1 .8 1.3 1.3.3.6.5 1.2.5 1.9s-.2 1.4-.5 2c-.3.6-.8 1-1.3 1.4-.6.3-1.2.5-1.9.5h-2v3.6h-2.9zm2.9-6.2h1.6c.3 0 .6-.1.9-.4.2-.2.4-.6.4-.9 0-.4-.1-.7-.4-.9-.2-.2-.5-.3-.9-.3h-1.6v2.5zm7.8 6.2v-11.2h7.9v2.4h-5.2v1.9h4.5v2.3h-4.5v2.1h5.3v2.4h-8zm10.4 0v-11.2h2.6l5 6.9c-.1-.5-.1-.9-.1-1.3s-.1-.9-.1-1.3v-4.2h2.8V261h-2.6l-5-6.7c.1.5.1.9.1 1.2 0 .3.1.6.1.9v4.6H396z" class="st5"/><linearGradient id="SVGID_1_" x1="377.198" x2="404.577" y1="507.002" y2="462.471" gradientTransform="matrix(1 0 0 -1 0 800)" gradientUnits="userSpaceOnUse"><stop offset="0" style="stop-color:#a92230"/><stop offset="1" style="stop-color:#d52b3d"/></linearGradient><path d="M356.8 309.2c-1.2 0-2.2-.2-3.1-.7-.9-.5-1.6-1.2-2.1-2.1-.5-.9-.8-1.9-.8-3 0-.8.1-1.6.4-2.3.3-.7.7-1.3 1.2-1.8s1.2-.9 1.9-1.2c.7-.3 1.5-.4 2.4-.4.8 0 1.6.2 2.3.5.7.3 1.4.7 1.9 1.3l-1.8 2c-.3-.3-.7-.6-1.1-.8-.4-.2-.8-.3-1.4-.3-.6 0-1.1.1-1.5.4-.4.3-.8.6-1.1 1.1-.3.5-.4 1-.4 1.7 0 .9.3 1.7.9 2.3.6.6 1.4.8 2.4.8.5 0 .9-.1 1.4-.3.4-.2.8-.5 1.1-.8l1.4 2.2c-.3.3-.6.6-1.1.8-.4.2-.9.4-1.5.6-.3-.1-.8 0-1.4 0zm6-.2v-11.2h2.9v8.7h4.9v2.5h-7.8zm14.6.2c-.8 0-1.6-.1-2.3-.4-.7-.3-1.3-.7-1.9-1.2-.5-.5-.9-1.1-1.2-1.8s-.4-1.5-.4-2.3c0-.8.1-1.6.4-2.3.3-.7.7-1.3 1.2-1.9.5-.5 1.1-.9 1.9-1.2.7-.3 1.5-.4 2.3-.4.9 0 1.6.1 2.4.4.7.3 1.3.7 1.9 1.2.5.5.9 1.1 1.2 1.9.3.7.4 1.5.4 2.3 0 .8-.1 1.6-.4 2.3-.3.7-.7 1.3-1.2 1.8s-1.1.9-1.9 1.2c-.8.2-1.6.4-2.4.4zm0-2.7c.6 0 1.1-.1 1.5-.4.4-.3.8-.7 1-1.1s.4-1 .4-1.6c0-.6-.1-1.1-.4-1.6s-.6-.8-1-1.1c-.4-.3-.9-.4-1.5-.4s-1.1.1-1.5.4c-.4.3-.8.6-1 1.1-.2.5-.4 1-.4 1.6 0 .6.1 1.1.4 1.6.3.5.6.8 1 1.1.4.2.9.4 1.5.4zm11.7 2.7c-1.2 0-2.1-.2-2.9-.6-.8-.4-1.4-.9-2-1.6l1.7-2c.5.7 1.1 1.2 1.6 1.4.6.2 1.1.4 1.7.4.4 0 .8-.1 1-.2.3-.1.4-.4.4-.7 0-.3-.1-.5-.3-.6-.2-.2-.5-.3-.8-.4-.3-.1-.7-.2-1-.3-1.2-.3-2.2-.7-2.8-1.3-.6-.6-.9-1.3-.9-2.3 0-.7.2-1.3.6-1.8.4-.5.9-.9 1.6-1.2.6-.3 1.3-.4 2.1-.4 1.1 0 2 .2 2.7.5.7.3 1.2.8 1.6 1.4l-1.7 1.7c-.3-.4-.7-.7-1.1-.9-.4-.2-.8-.3-1.3-.3s-.8.1-1.1.2c-.3.1-.4.4-.4.7 0 .2.1.4.3.6.2.1.4.3.7.4.3.1.6.2.9.2.8.1 1.5.4 2 .7.6.3 1.1.7 1.4 1.1.3.5.5 1 .5 1.7 0 .8-.2 1.5-.6 2s-.9 1-1.6 1.2c-.7.2-1.5.4-2.3.4zm6.4-.2v-11.2h7.9v2.4h-5.2v1.9h4.5v2.3h-4.5v2.1h5.3v2.4h-8zm10.4 0v-11.2h4.8c1.1 0 2.1.2 2.9.7.8.5 1.5 1.1 2 2 .5.8.7 1.8.7 2.9s-.2 2.1-.7 2.9c-.5.8-1.1 1.5-2 2-.8.5-1.8.7-2.9.7h-4.8zm4.6-8.7h-1.8v6.2h1.8c.8 0 1.5-.3 2-.8.5-.6.8-1.3.8-2.2s-.3-1.7-.8-2.2c-.5-.7-1.1-1-2-1z" style="fill:url(#SVGID_1_)"/><path d="M300 198v-.5h-.5v.5h.5zm150 0h.5v-.5h-.5v.5zm0 150v.5h.5v-.5h-.5zm-150 0h-.5v.5h.5v-.5zm0-149.5h150v-1H300v1zm149.5-.5v150h1V198h-1zm.5 149.5H300v1h150v-1zm-149.5.5V198h-1v150h1z" class="st2"/><path d="M450 198v-.5h-.5v.5h.5zm150 0h.5v-.5h-.5v.5zm0 150v.5h.5v-.5h-.5zm-150 0h-.5v.5h.5v-.5zm0-149.5h150v-1H450v1zm149.5-.5v150h1V198h-1zm.5 149.5H450v1h150v-1zm-149.5.5V198h-1v150h1z" class="st2"/><path d="M600 198v-.5h-.5v.5h.5zm150 0h.5v-.5h-.5v.5zm0 150v.5h.5v-.5h-.5zm-150 0h-.5v.5h.5v-.5zm0-149.5h150v-1H600v1zm149.5-.5v150h1V198h-1zm.5 149.5H600v1h150v-1zm-149.5.5V198h-1v150h1z" class="st2"/><path d="M750 198v-.5h-.5v.5h.5zm150 0h.5v-.5h-.5v.5zm0 150v.5h.5v-.5h-.5zm-150 0h-.5v.5h.5v-.5zm0-149.5h150v-1H750v1zm149.5-.5v150h1V198h-1zm.5 149.5H750v1h150v-1zm-149.5.5V198h-1v150h1z" class="st2"/><path d="M900 198h150v150H900V198z" class="st7"/><path d="M900 198v-.5h-.5v.5h.5zm150 0h.5v-.5h-.5v.5zm0 150v.5h.5v-.5h-.5zm-150 0h-.5v.5h.5v-.5zm0-149.5h150v-1H900v1zm149.5-.5v150h1V198h-1zm.5 149.5H900v1h150v-1zm-149.5.5V198h-1v150h1z" class="st2"/><path d="M0 348h150v150H0V348z" class="st7"/><path d="M0 348v-.5h-.5v.5H0zm150 0h.5v-.5h-.5v.5zm0 150v.5h.5v-.5h-.5zM0 498h-.5v.5H0v-.5zm0-149.5h150v-1H0v1zm149.5-.5v150h1V348h-1zm.5 149.5H0v1h150v-1zM.5 498V348h-1v150h1z" class="st2"/><linearGradient id="SVGID_00000075132878293213749010000013304896823920885174_" x1="197.452" x2="201.475" y1="384.238" y2="364.608" gradientTransform="matrix(1 0 0 -1 0 800)" gradientUnits="userSpaceOnUse"><stop offset="0" style="stop-color:#a92230"/><stop offset="1" style="stop-color:#d52b3d"/></linearGradient><path d="M168.6 411.2c-1.2 0-2.2-.2-3.1-.7-.9-.5-1.6-1.2-2.1-2.1-.5-.9-.8-1.9-.8-3 0-.8.1-1.6.4-2.3.3-.7.7-1.3 1.2-1.8s1.2-.9 1.9-1.2c.7-.3 1.5-.4 2.4-.4.8 0 1.6.2 2.3.5.7.3 1.4.7 1.9 1.3l-1.8 2c-.3-.3-.7-.6-1.1-.8-.4-.2-.8-.3-1.4-.3-.6 0-1.1.1-1.5.4-.4.3-.8.6-1.1 1.1-.3.5-.4 1-.4 1.7 0 .9.3 1.7.9 2.3s1.4.8 2.4.8c.5 0 .9-.1 1.4-.3.4-.2.8-.5 1.1-.8l1.4 2.2c-.3.3-.6.6-1.1.8-.4.2-.9.4-1.5.6-.3-.1-.9 0-1.4 0zm5.9-.2v-11.2h2.9v8.7h4.9v2.5h-7.8zm14.6.2c-.8 0-1.6-.1-2.3-.4-.7-.3-1.3-.7-1.9-1.2-.5-.5-.9-1.1-1.2-1.8-.3-.7-.4-1.5-.4-2.3 0-.8.1-1.6.4-2.3.3-.7.7-1.3 1.2-1.9.5-.5 1.1-.9 1.9-1.2.7-.3 1.5-.4 2.3-.4.9 0 1.6.1 2.4.4.7.3 1.3.7 1.9 1.2.5.5.9 1.1 1.2 1.9.3.7.4 1.5.4 2.3 0 .8-.1 1.6-.4 2.3-.3.7-.7 1.3-1.2 1.8s-1.1.9-1.9 1.2c-.7.2-1.5.4-2.4.4zm0-2.7c.6 0 1.1-.1 1.5-.4.4-.3.8-.7 1-1.1s.4-1 .4-1.6c0-.6-.1-1.1-.4-1.6s-.6-.8-1-1.1c-.4-.3-.9-.4-1.5-.4s-1.1.1-1.5.4c-.4.3-.8.6-1 1.1-.2.5-.4 1-.4 1.6 0 .6.1 1.1.4 1.6.3.5.6.8 1 1.1.5.2 1 .4 1.5.4zm11.7 2.7c-1.2 0-2.1-.2-2.9-.6-.8-.4-1.4-.9-2-1.6l1.7-2c.5.7 1.1 1.2 1.6 1.4.6.2 1.1.4 1.7.4.4 0 .8-.1 1-.2.3-.1.4-.4.4-.7 0-.3-.1-.5-.3-.6-.2-.2-.5-.3-.8-.4-.3-.1-.7-.2-1-.3-1.2-.3-2.2-.7-2.8-1.3-.6-.6-.9-1.3-.9-2.3 0-.7.2-1.3.6-1.8.4-.5.9-.9 1.6-1.2.7-.3 1.3-.4 2.1-.4 1.1 0 2 .2 2.7.5.7.3 1.2.8 1.6 1.4l-1.7 1.7c-.3-.4-.7-.7-1.1-.9-.4-.2-.8-.3-1.3-.3s-.8.1-1.1.2c-.3.1-.4.4-.4.7 0 .2.1.4.3.6.2.1.4.3.7.4.3.1.6.2.9.2.8.1 1.5.4 2 .7.6.3 1.1.7 1.4 1.1.3.5.5 1 .5 1.7 0 .8-.2 1.5-.6 2s-.9 1-1.6 1.2c-.7.2-1.4.4-2.3.4zm6.4-.2v-11.2h7.9v2.4H210v1.9h4.5v2.3H210v2.1h5.3v2.4h-8.1zm10.4 0v-11.2h4.8c1.1 0 2.1.2 2.9.7.8.5 1.5 1.1 2 2 .5.8.7 1.8.7 2.9s-.2 2.1-.7 2.9c-.5.8-1.1 1.5-2 2-.8.5-1.8.7-2.9.7h-4.8zm4.7-8.7h-1.8v6.2h1.8c.8 0 1.5-.3 2-.8.5-.6.8-1.3.8-2.2s-.3-1.7-.8-2.2c-.5-.7-1.2-1-2-1z" style="fill:url(#SVGID_00000075132878293213749010000013304896823920885174_)"/><path d="M150 348v-.5h-.5v.5h.5zm150 0h.5v-.5h-.5v.5zm0 150v.5h.5v-.5h-.5zm-150 0h-.5v.5h.5v-.5zm0-149.5h150v-1H150v1zm149.5-.5v150h1V348h-1zm.5 149.5H150v1h150v-1zm-149.5.5V348h-1v150h1z" class="st2"/><path d="M300 348h150v150H300V348z" class="st3"/><path d="M317.1 411.2c-1.2 0-2.1-.2-2.9-.6-.8-.4-1.4-.9-2-1.6l1.7-2c.5.7 1.1 1.2 1.6 1.4.6.2 1.1.4 1.7.4.4 0 .8-.1 1-.2.3-.1.4-.4.4-.7 0-.3-.1-.5-.3-.6-.2-.2-.5-.3-.8-.4-.3-.1-.7-.2-1-.3-1.2-.3-2.2-.7-2.8-1.3-.6-.6-.9-1.3-.9-2.3 0-.7.2-1.3.6-1.8.4-.5.9-.9 1.6-1.2.7-.3 1.3-.4 2.1-.4 1.1 0 2 .2 2.7.5.7.3 1.2.8 1.6 1.4l-1.7 1.7c-.3-.4-.7-.7-1.1-.9-.4-.2-.8-.3-1.3-.3s-.8.1-1.1.2c-.3.1-.4.4-.4.7 0 .2.1.4.3.6.2.1.4.3.7.4.3.1.6.2.9.2.8.1 1.5.4 2 .7.6.3 1.1.7 1.4 1.1.3.5.5 1 .5 1.7 0 .8-.2 1.5-.6 2s-.9 1-1.6 1.2c-.7.2-1.4.4-2.3.4zm6.8-.2v-6.2h-1.5v-2.4h1.5v-2.1h2.7v2.1h1.6v2.4h-1.6v6.2h-2.7zm9.8.2c-.9 0-1.7-.2-2.4-.6-.7-.4-1.2-.9-1.6-1.6-.4-.7-.6-1.4-.6-2.3s.2-1.6.6-2.3c.4-.7 1-1.2 1.6-1.6.7-.4 1.5-.6 2.4-.6s1.7.2 2.4.6c.7.4 1.3.9 1.6 1.6.4.7.6 1.4.6 2.3s-.2 1.6-.6 2.3c-.4.7-.9 1.2-1.6 1.6-.8.4-1.5.6-2.4.6zm0-2.4c.5 0 1-.2 1.3-.6.4-.4.5-.9.5-1.5s-.2-1.1-.5-1.5c-.4-.4-.8-.6-1.3-.6s-1 .2-1.4.6c-.4.4-.5.9-.5 1.5s.2 1.1.5 1.5c.4.4.8.6 1.4.6zm6.2 2.2v-8.5h2.6v1.3c.3-.4.6-.8 1.1-1 .4-.3.9-.4 1.4-.4h.5c.2 0 .3.1.5.1l-.7 3c-.1-.1-.3-.1-.5-.2s-.4-.1-.7-.1c-.4 0-.8.1-1.1.4-.3.3-.4.7-.4 1.2v4.2h-2.7zm11.2.2c-.9 0-1.8-.2-2.5-.6-.7-.4-1.2-.9-1.6-1.6-.4-.7-.6-1.4-.6-2.3 0-.9.2-1.6.6-2.3.4-.7.9-1.2 1.5-1.6.7-.4 1.4-.6 2.2-.6.8 0 1.5.2 2.1.6.6.4 1.1.9 1.4 1.5.3.7.5 1.4.5 2.2v.7H349c.1.5.4.8.8 1.1.4.3.9.4 1.6.4.4 0 .7 0 .9-.1.3-.1.6-.3.9-.5l1.3 1.8c-.5.4-1.1.8-1.6.9-.7.3-1.3.4-1.8.4zm-.3-6.6c-1 0-1.6.4-1.8 1.3h3.3c0-.4-.2-.7-.5-.9-.3-.3-.6-.4-1-.4zM313.4 459v-11.2h7.8v2.5h-4.9v2.1h4.3v2.4h-4.3v4.2h-2.9zm12.5.1c-.7 0-1.3-.2-1.9-.6-.6-.4-1-.9-1.3-1.6-.3-.7-.5-1.4-.5-2.3 0-.9.2-1.6.5-2.3.3-.7.8-1.2 1.3-1.6.6-.4 1.2-.6 2-.6.6 0 1 .1 1.5.3.4.2.8.5 1 .8v-1h2.7v8.5h-2.7v-1c-.3.3-.6.6-1.1.8-.4.5-.9.6-1.5.6zm.8-2.2c.6 0 1-.2 1.3-.6.3-.4.5-.9.5-1.6 0-.7-.2-1.2-.5-1.6-.3-.4-.8-.6-1.3-.6-.6 0-1 .2-1.3.6-.3.4-.5.9-.5 1.6 0 .7.2 1.2.5 1.6.3.4.8.6 1.3.6zm8.3-8.1c-.5 0-.9-.1-1.2-.4-.3-.2-.4-.6-.4-1s.1-.7.4-1c.3-.3.7-.4 1.2-.4s.9.1 1.2.4c.3.2.4.6.4 1s-.1.7-.4 1c-.3.3-.7.4-1.2.4zm-1.4 10.2v-8.5h2.7v8.5h-2.7zm5.2 0v-8.5h2.6v1.3c.3-.4.7-.8 1.1-1 .4-.3.9-.4 1.4-.4h.5c.2 0 .3.1.5.1l-.7 3c-.1-.1-.3-.1-.5-.2s-.4-.1-.7-.1c-.4 0-.8.1-1.1.4-.3.3-.4.7-.4 1.2v4.2h-2.7z" class="st4"/><path d="M367 411.2c-.8 0-1.6-.1-2.3-.4-.7-.3-1.3-.7-1.9-1.2-.5-.5-.9-1.1-1.2-1.8-.3-.7-.4-1.5-.4-2.3 0-.8.1-1.6.4-2.3.3-.7.7-1.3 1.2-1.9.5-.5 1.1-.9 1.9-1.2.7-.3 1.5-.4 2.3-.4.9 0 1.6.1 2.4.4.7.3 1.3.7 1.9 1.2.5.5.9 1.1 1.2 1.9.3.7.4 1.5.4 2.3 0 .8-.1 1.6-.4 2.3-.3.7-.7 1.3-1.2 1.8s-1.1.9-1.9 1.2c-.8.2-1.5.4-2.4.4zm0-2.7c.6 0 1.1-.1 1.5-.4.4-.3.8-.7 1-1.1.3-.5.4-1 .4-1.6 0-.6-.1-1.1-.4-1.6-.3-.5-.6-.8-1-1.1-.4-.3-.9-.4-1.5-.4s-1.1.1-1.5.4c-.4.3-.8.6-1 1.1-.2.5-.4 1-.4 1.6 0 .6.1 1.1.4 1.6.3.5.6.8 1 1.1.4.2.9.4 1.5.4zm7.9 2.5v-11.2h4.9c.7 0 1.4.2 1.9.5s1 .8 1.3 1.3c.3.6.5 1.2.5 1.9s-.2 1.4-.5 2c-.3.6-.8 1-1.3 1.4-.6.3-1.2.5-1.9.5h-2v3.6h-2.9zm2.9-6.2h1.6c.3 0 .6-.1.9-.4.2-.2.4-.6.4-.9s-.1-.7-.4-.9c-.2-.2-.5-.3-.9-.3h-1.6v2.5zm7.8 6.2v-11.2h7.9v2.4h-5.2v1.9h4.5v2.3h-4.5v2.1h5.3v2.4h-8zm10.4 0v-11.2h2.6l5 6.9c-.1-.5-.1-.9-.1-1.3s-.1-.9-.1-1.3v-4.2h2.8V411h-2.6l-5-6.7c.1.5.1.9.1 1.2 0 .3.1.6.1.9v4.6H396z" class="st5"/><linearGradient id="SVGID_00000064327232970573181420000008480497489307185336_" x1="377.198" x2="404.577" y1="357.002" y2="312.471" gradientTransform="matrix(1 0 0 -1 0 800)" gradientUnits="userSpaceOnUse"><stop offset="0" style="stop-color:#a92230"/><stop offset="1" style="stop-color:#d52b3d"/></linearGradient><path d="M356.8 459.2c-1.2 0-2.2-.2-3.1-.7-.9-.5-1.6-1.2-2.1-2.1-.5-.9-.8-1.9-.8-3 0-.8.1-1.6.4-2.3.3-.7.7-1.3 1.2-1.8s1.2-.9 1.9-1.2c.7-.3 1.5-.4 2.4-.4.8 0 1.6.2 2.3.5.7.3 1.4.7 1.9 1.3l-1.8 2c-.3-.3-.7-.6-1.1-.8-.4-.2-.8-.3-1.4-.3-.6 0-1.1.1-1.5.4-.4.3-.8.6-1.1 1.1-.3.5-.4 1-.4 1.7 0 .9.3 1.7.9 2.3.6.6 1.4.8 2.4.8.5 0 .9-.1 1.4-.3.4-.2.8-.5 1.1-.8l1.4 2.2c-.3.3-.6.6-1.1.8-.4.2-.9.4-1.5.6-.3-.1-.8 0-1.4 0zm6-.2v-11.2h2.9v8.7h4.9v2.5h-7.8zm14.6.2c-.8 0-1.6-.1-2.3-.4-.7-.3-1.3-.7-1.9-1.2-.5-.5-.9-1.1-1.2-1.8s-.4-1.5-.4-2.3c0-.8.1-1.6.4-2.3.3-.7.7-1.3 1.2-1.9.5-.5 1.1-.9 1.9-1.2.7-.3 1.5-.4 2.3-.4.9 0 1.6.1 2.4.4.7.3 1.3.7 1.9 1.2.5.5.9 1.1 1.2 1.9.3.7.4 1.5.4 2.3 0 .8-.1 1.6-.4 2.3-.3.7-.7 1.3-1.2 1.8s-1.1.9-1.9 1.2c-.8.2-1.6.4-2.4.4zm0-2.7c.6 0 1.1-.1 1.5-.4.4-.3.8-.7 1-1.1s.4-1 .4-1.6c0-.6-.1-1.1-.4-1.6s-.6-.8-1-1.1c-.4-.3-.9-.4-1.5-.4s-1.1.1-1.5.4c-.4.3-.8.6-1 1.1-.2.5-.4 1-.4 1.6 0 .6.1 1.1.4 1.6.3.5.6.8 1 1.1.4.2.9.4 1.5.4zm11.7 2.7c-1.2 0-2.1-.2-2.9-.6-.8-.4-1.4-.9-2-1.6l1.7-2c.5.7 1.1 1.2 1.6 1.4.6.2 1.1.4 1.7.4.4 0 .8-.1 1-.2.3-.1.4-.4.4-.7 0-.3-.1-.5-.3-.6-.2-.2-.5-.3-.8-.4-.3-.1-.7-.2-1-.3-1.2-.3-2.2-.7-2.8-1.3-.6-.6-.9-1.3-.9-2.3 0-.7.2-1.3.6-1.8.4-.5.9-.9 1.6-1.2.6-.3 1.3-.4 2.1-.4 1.1 0 2 .2 2.7.5.7.3 1.2.8 1.6 1.4l-1.7 1.7c-.3-.4-.7-.7-1.1-.9-.4-.2-.8-.3-1.3-.3s-.8.1-1.1.2c-.3.1-.4.4-.4.7 0 .2.1.4.3.6.2.1.4.3.7.4.3.1.6.2.9.2.8.1 1.5.4 2 .7.6.3 1.1.7 1.4 1.1.3.5.5 1 .5 1.7 0 .8-.2 1.5-.6 2s-.9 1-1.6 1.2c-.7.2-1.5.4-2.3.4zm6.4-.2v-11.2h7.9v2.4h-5.2v1.9h4.5v2.3h-4.5v2.1h5.3v2.4h-8zm10.4 0v-11.2h4.8c1.1 0 2.1.2 2.9.7.8.5 1.5 1.1 2 2 .5.8.7 1.8.7 2.9s-.2 2.1-.7 2.9c-.5.8-1.1 1.5-2 2-.8.5-1.8.7-2.9.7h-4.8zm4.6-8.7h-1.8v6.2h1.8c.8 0 1.5-.3 2-.8.5-.6.8-1.3.8-2.2s-.3-1.7-.8-2.2c-.5-.7-1.1-1-2-1z" style="fill:url(#SVGID_00000064327232970573181420000008480497489307185336_)"/><path d="M300 348v-.5h-.5v.5h.5zm150 0h.5v-.5h-.5v.5zm0 150v.5h.5v-.5h-.5zm-150 0h-.5v.5h.5v-.5zm0-149.5h150v-1H300v1zm149.5-.5v150h1V348h-1zm.5 149.5H300v1h150v-1zm-149.5.5V348h-1v150h1z" class="st2"/><path d="M450 348h150v150H450V348z" class="st10"/><path d="M450 348v-.5h-.5v.5h.5zm150 0h.5v-.5h-.5v.5zm0 150v.5h.5v-.5h-.5zm-150 0h-.5v.5h.5v-.5zm0-149.5h150v-1H450v1zm149.5-.5v150h1V348h-1zm.5 149.5H450v1h150v-1zm-149.5.5V348h-1v150h1z" class="st2"/><path d="M600 348h150v150H600V348z" class="st10"/><path d="M600 348v-.5h-.5v.5h.5zm150 0h.5v-.5h-.5v.5zm0 150v.5h.5v-.5h-.5zm-150 0h-.5v.5h.5v-.5zm0-149.5h150v-1H600v1zm149.5-.5v150h1V348h-1zm.5 149.5H600v1h150v-1zm-149.5.5V348h-1v150h1z" class="st2"/><path d="M750 348h150v150H750V348z" class="st10"/><path d="M750 348v-.5h-.5v.5h.5zm150 0h.5v-.5h-.5v.5zm0 150v.5h.5v-.5h-.5zm-150 0h-.5v.5h.5v-.5zm0-149.5h150v-1H750v1zm149.5-.5v150h1V348h-1zm.5 149.5H750v1h150v-1zm-149.5.5V348h-1v150h1z" class="st2"/><path d="M900 348h150v150H900V348z" class="st7"/><path d="M900 348v-.5h-.5v.5h.5zm150 0h.5v-.5h-.5v.5zm0 150v.5h.5v-.5h-.5zm-150 0h-.5v.5h.5v-.5zm0-149.5h150v-1H900v1zm149.5-.5v150h1V348h-1zm.5 149.5H900v1h150v-1zm-149.5.5V348h-1v150h1z" class="st2"/><path d="M0 498h150v150H0V498z" class="st7"/><path d="M0 498v-.5h-.5v.5H0zm150 0h.5v-.5h-.5v.5zm0 150v.5h.5v-.5h-.5zM0 648h-.5v.5H0v-.5zm0-149.5h150v-1H0v1zm149.5-.5v150h1V498h-1zm.5 149.5H0v1h150v-1zM.5 648V498h-1v150h1z" class="st2"/><linearGradient id="SVGID_00000026866384695031583180000009103352178792897451_" x1="197.452" x2="201.475" y1="234.238" y2="214.608" gradientTransform="matrix(1 0 0 -1 0 800)" gradientUnits="userSpaceOnUse"><stop offset="0" style="stop-color:#a92230"/><stop offset="1" style="stop-color:#d52b3d"/></linearGradient><path d="M168.6 561.2c-1.2 0-2.2-.2-3.1-.7-.9-.5-1.6-1.2-2.1-2.1-.5-.9-.8-1.9-.8-3 0-.8.1-1.6.4-2.3.3-.7.7-1.3 1.2-1.8s1.2-.9 1.9-1.2c.7-.3 1.5-.4 2.4-.4.8 0 1.6.2 2.3.5.7.3 1.4.7 1.9 1.3l-1.8 2c-.3-.3-.7-.6-1.1-.8-.4-.2-.8-.3-1.4-.3-.6 0-1.1.1-1.5.4-.4.3-.8.6-1.1 1.1-.3.5-.4 1-.4 1.7 0 .9.3 1.7.9 2.3s1.4.8 2.4.8c.5 0 .9-.1 1.4-.3.4-.2.8-.5 1.1-.8l1.4 2.2c-.3.3-.6.6-1.1.8-.4.2-.9.4-1.5.6-.3-.1-.9 0-1.4 0zm5.9-.2v-11.2h2.9v8.7h4.9v2.5h-7.8zm14.6.2c-.8 0-1.6-.1-2.3-.4-.7-.3-1.3-.7-1.9-1.2-.5-.5-.9-1.1-1.2-1.8-.3-.7-.4-1.5-.4-2.3s.1-1.6.4-2.3c.3-.7.7-1.3 1.2-1.9.5-.5 1.1-.9 1.9-1.2.7-.3 1.5-.4 2.3-.4.9 0 1.6.1 2.4.4.7.3 1.3.7 1.9 1.2.5.5.9 1.1 1.2 1.9.3.7.4 1.5.4 2.3 0 .8-.1 1.6-.4 2.3-.3.7-.7 1.3-1.2 1.8s-1.1.9-1.9 1.2c-.7.2-1.5.4-2.4.4zm0-2.7c.6 0 1.1-.1 1.5-.4.4-.3.8-.7 1-1.1.3-.5.4-1 .4-1.6 0-.6-.1-1.1-.4-1.6s-.6-.8-1-1.1c-.4-.3-.9-.4-1.5-.4s-1.1.1-1.5.4c-.4.3-.8.6-1 1.1-.2.5-.4 1-.4 1.6 0 .6.1 1.1.4 1.6.3.5.6.8 1 1.1.5.2 1 .4 1.5.4zm11.7 2.7c-1.2 0-2.1-.2-2.9-.6-.8-.4-1.4-.9-2-1.6l1.7-2c.5.7 1.1 1.2 1.6 1.4.6.2 1.1.4 1.7.4.4 0 .8-.1 1-.2s.4-.4.4-.7c0-.3-.1-.5-.3-.6-.2-.2-.5-.3-.8-.4-.3-.1-.7-.2-1-.3-1.2-.3-2.2-.7-2.8-1.3-.6-.6-.9-1.3-.9-2.3 0-.7.2-1.3.6-1.8.4-.5.9-.9 1.6-1.2.7-.3 1.3-.4 2.1-.4 1.1 0 2 .2 2.7.5.7.3 1.2.8 1.6 1.4l-1.7 1.7c-.3-.4-.7-.7-1.1-.9-.4-.2-.8-.3-1.3-.3s-.8.1-1.1.2c-.3.1-.4.4-.4.7 0 .2.1.4.3.6.2.1.4.3.7.4.3.1.6.2.9.2.8.1 1.5.4 2 .7.6.3 1.1.7 1.4 1.1.3.5.5 1 .5 1.7 0 .8-.2 1.5-.6 2-.4.5-.9 1-1.6 1.2-.7.2-1.4.4-2.3.4zm6.4-.2v-11.2h7.9v2.4H210v1.9h4.5v2.3H210v2.1h5.3v2.4h-8.1zm10.4 0v-11.2h4.8c1.1 0 2.1.2 2.9.7.8.5 1.5 1.1 2 2 .5.8.7 1.8.7 2.9s-.2 2.1-.7 2.9c-.5.8-1.1 1.5-2 2-.8.5-1.8.7-2.9.7h-4.8zm4.7-8.7h-1.8v6.2h1.8c.8 0 1.5-.3 2-.8.5-.6.8-1.3.8-2.2 0-.9-.3-1.7-.8-2.2-.5-.7-1.2-1-2-1z" style="fill:url(#SVGID_00000026866384695031583180000009103352178792897451_)"/><path d="M150 498v-.5h-.5v.5h.5zm150 0h.5v-.5h-.5v.5zm0 150v.5h.5v-.5h-.5zm-150 0h-.5v.5h.5v-.5zm0-149.5h150v-1H150v1zm149.5-.5v150h1V498h-1zm.5 149.5H150v1h150v-1zm-149.5.5V498h-1v150h1z" class="st2"/><path d="M300 498h150v150H300V498z" style="fill:#d6b68e"/><path d="M317.1 561.2c-1.2 0-2.1-.2-2.9-.6-.8-.4-1.4-.9-2-1.6l1.7-2c.5.7 1.1 1.2 1.6 1.4.6.2 1.1.4 1.7.4.4 0 .8-.1 1-.2s.4-.4.4-.7c0-.3-.1-.5-.3-.6-.2-.2-.5-.3-.8-.4-.3-.1-.7-.2-1-.3-1.2-.3-2.2-.7-2.8-1.3-.6-.6-.9-1.3-.9-2.3 0-.7.2-1.3.6-1.8.4-.5.9-.9 1.6-1.2.7-.3 1.3-.4 2.1-.4 1.1 0 2 .2 2.7.5.7.3 1.2.8 1.6 1.4l-1.7 1.7c-.3-.4-.7-.7-1.1-.9-.4-.2-.8-.3-1.3-.3s-.8.1-1.1.2c-.3.1-.4.4-.4.7 0 .2.1.4.3.6.2.1.4.3.7.4.3.1.6.2.9.2.8.1 1.5.4 2 .7.6.3 1.1.7 1.4 1.1.3.5.5 1 .5 1.7 0 .8-.2 1.5-.6 2-.4.5-.9 1-1.6 1.2-.7.2-1.4.4-2.3.4zm6.8-.2v-6.2h-1.5v-2.4h1.5v-2.1h2.7v2.1h1.6v2.4h-1.6v6.2h-2.7zm9.8.2c-.9 0-1.7-.2-2.4-.6-.7-.4-1.2-.9-1.6-1.6s-.6-1.4-.6-2.3c0-.9.2-1.6.6-2.3.4-.7 1-1.2 1.6-1.6.7-.4 1.5-.6 2.4-.6s1.7.2 2.4.6c.7.4 1.3.9 1.6 1.6.4.7.6 1.4.6 2.3 0 .9-.2 1.6-.6 2.3-.4.7-.9 1.2-1.6 1.6-.8.4-1.5.6-2.4.6zm0-2.4c.5 0 1-.2 1.3-.6.4-.4.5-.9.5-1.5s-.2-1.1-.5-1.5c-.4-.4-.8-.6-1.3-.6s-1 .2-1.4.6c-.4.4-.5.9-.5 1.5s.2 1.1.5 1.5c.4.4.8.6 1.4.6zm6.2 2.2v-8.5h2.6v1.3c.3-.4.6-.8 1.1-1 .4-.3.9-.4 1.4-.4h.5c.2 0 .3.1.5.1l-.7 3c-.1-.1-.3-.1-.5-.2s-.4-.1-.7-.1c-.4 0-.8.1-1.1.4-.3.3-.4.7-.4 1.2v4.2h-2.7zm11.2.2c-.9 0-1.8-.2-2.5-.6-.7-.4-1.2-.9-1.6-1.6-.4-.7-.6-1.4-.6-2.3 0-.9.2-1.6.6-2.3.4-.7.9-1.2 1.5-1.6.7-.4 1.4-.6 2.2-.6.8 0 1.5.2 2.1.6.6.4 1.1.9 1.4 1.5.3.7.5 1.4.5 2.2v.7H349c.1.5.4.8.8 1.1.4.3.9.4 1.6.4.4 0 .7 0 .9-.1.3-.1.6-.3.9-.5l1.3 1.8c-.5.4-1.1.8-1.6.9-.7.3-1.3.4-1.8.4zm-.3-6.6c-1 0-1.6.4-1.8 1.3h3.3c0-.4-.2-.7-.5-.9-.3-.3-.6-.4-1-.4zM313.4 609v-11.2h7.8v2.5h-4.9v2.1h4.3v2.4h-4.3v4.2h-2.9zm12.5.1c-.7 0-1.3-.2-1.9-.6-.6-.4-1-.9-1.3-1.6-.3-.7-.5-1.4-.5-2.3 0-.9.2-1.6.5-2.3.3-.7.8-1.2 1.3-1.6.6-.4 1.2-.6 2-.6.6 0 1 .1 1.5.3.4.2.8.5 1 .8v-1h2.7v8.5h-2.7v-1c-.3.3-.6.6-1.1.8-.4.5-.9.6-1.5.6zm.8-2.2c.6 0 1-.2 1.3-.6.3-.4.5-.9.5-1.6 0-.7-.2-1.2-.5-1.6-.3-.4-.8-.6-1.3-.6-.6 0-1 .2-1.3.6-.3.4-.5.9-.5 1.6 0 .7.2 1.2.5 1.6.3.4.8.6 1.3.6zm8.3-8.1c-.5 0-.9-.1-1.2-.4-.3-.2-.4-.6-.4-1s.1-.7.4-1c.3-.3.7-.4 1.2-.4s.9.1 1.2.4c.3.2.4.6.4 1s-.1.7-.4 1c-.3.3-.7.4-1.2.4zm-1.4 10.2v-8.5h2.7v8.5h-2.7zm5.2 0v-8.5h2.6v1.3c.3-.4.7-.8 1.1-1 .4-.3.9-.4 1.4-.4h.5c.2 0 .3.1.5.1l-.7 3c-.1-.1-.3-.1-.5-.2s-.4-.1-.7-.1c-.4 0-.8.1-1.1.4-.3.3-.4.7-.4 1.2v4.2h-2.7z" class="st4"/><path d="M367 561.2c-.8 0-1.6-.1-2.3-.4-.7-.3-1.3-.7-1.9-1.2-.5-.5-.9-1.1-1.2-1.8-.3-.7-.4-1.5-.4-2.3s.1-1.6.4-2.3c.3-.7.7-1.3 1.2-1.9.5-.5 1.1-.9 1.9-1.2.7-.3 1.5-.4 2.3-.4.9 0 1.6.1 2.4.4.7.3 1.3.7 1.9 1.2.5.5.9 1.1 1.2 1.9.3.7.4 1.5.4 2.3 0 .8-.1 1.6-.4 2.3-.3.7-.7 1.3-1.2 1.8s-1.1.9-1.9 1.2c-.8.2-1.5.4-2.4.4zm0-2.7c.6 0 1.1-.1 1.5-.4.4-.3.8-.7 1-1.1.3-.5.4-1 .4-1.6 0-.6-.1-1.1-.4-1.6-.3-.5-.6-.8-1-1.1-.4-.3-.9-.4-1.5-.4s-1.1.1-1.5.4c-.4.3-.8.6-1 1.1-.2.5-.4 1-.4 1.6 0 .6.1 1.1.4 1.6.3.5.6.8 1 1.1.4.2.9.4 1.5.4zm7.9 2.5v-11.2h4.9c.7 0 1.4.2 1.9.5.6.3 1 .8 1.3 1.3.3.6.5 1.2.5 1.9s-.2 1.4-.5 2c-.3.6-.8 1-1.3 1.4-.6.3-1.2.5-1.9.5h-2v3.6h-2.9zm2.9-6.2h1.6c.3 0 .6-.1.9-.4.2-.2.4-.6.4-.9 0-.4-.1-.7-.4-.9-.2-.2-.5-.3-.9-.3h-1.6v2.5zm7.8 6.2v-11.2h7.9v2.4h-5.2v1.9h4.5v2.3h-4.5v2.1h5.3v2.4h-8zm10.4 0v-11.2h2.6l5 6.9c-.1-.5-.1-.9-.1-1.3s-.1-.9-.1-1.3v-4.2h2.8V561h-2.6l-5-6.7c.1.5.1.9.1 1.2 0 .3.1.6.1.9v4.6H396z" class="st5"/><linearGradient id="SVGID_00000016034940452726339520000007930800687748062354_" x1="377.198" x2="404.577" y1="207.001" y2="162.47" gradientTransform="matrix(1 0 0 -1 0 800)" gradientUnits="userSpaceOnUse"><stop offset="0" style="stop-color:#a92230"/><stop offset="1" style="stop-color:#d52b3d"/></linearGradient><path d="M356.8 609.2c-1.2 0-2.2-.2-3.1-.7-.9-.5-1.6-1.2-2.1-2.1-.5-.9-.8-1.9-.8-3 0-.8.1-1.6.4-2.3.3-.7.7-1.3 1.2-1.8s1.2-.9 1.9-1.2c.7-.3 1.5-.4 2.4-.4.8 0 1.6.2 2.3.5.7.3 1.4.7 1.9 1.3l-1.8 2c-.3-.3-.7-.6-1.1-.8-.4-.2-.8-.3-1.4-.3-.6 0-1.1.1-1.5.4-.4.3-.8.6-1.1 1.1-.3.5-.4 1-.4 1.7 0 .9.3 1.7.9 2.3.6.6 1.4.8 2.4.8.5 0 .9-.1 1.4-.3.4-.2.8-.5 1.1-.8l1.4 2.2c-.3.3-.6.6-1.1.8-.4.2-.9.4-1.5.6-.3-.1-.8 0-1.4 0zm6-.2v-11.2h2.9v8.7h4.9v2.5h-7.8zm14.6.2c-.8 0-1.6-.1-2.3-.4-.7-.3-1.3-.7-1.9-1.2-.5-.5-.9-1.1-1.2-1.8s-.4-1.5-.4-2.3.1-1.6.4-2.3c.3-.7.7-1.3 1.2-1.9.5-.5 1.1-.9 1.9-1.2.7-.3 1.5-.4 2.3-.4.9 0 1.6.1 2.4.4.7.3 1.3.7 1.9 1.2.5.5.9 1.1 1.2 1.9.3.7.4 1.5.4 2.3 0 .8-.1 1.6-.4 2.3-.3.7-.7 1.3-1.2 1.8s-1.1.9-1.9 1.2c-.8.2-1.6.4-2.4.4zm0-2.7c.6 0 1.1-.1 1.5-.4.4-.3.8-.7 1-1.1.3-.5.4-1 .4-1.6 0-.6-.1-1.1-.4-1.6s-.6-.8-1-1.1c-.4-.3-.9-.4-1.5-.4s-1.1.1-1.5.4c-.4.3-.8.6-1 1.1-.2.5-.4 1-.4 1.6 0 .6.1 1.1.4 1.6.3.5.6.8 1 1.1.4.2.9.4 1.5.4zm11.7 2.7c-1.2 0-2.1-.2-2.9-.6-.8-.4-1.4-.9-2-1.6l1.7-2c.5.7 1.1 1.2 1.6 1.4.6.2 1.1.4 1.7.4.4 0 .8-.1 1-.2.3-.1.4-.4.4-.7 0-.3-.1-.5-.3-.6-.2-.2-.5-.3-.8-.4-.3-.1-.7-.2-1-.3-1.2-.3-2.2-.7-2.8-1.3-.6-.6-.9-1.3-.9-2.3 0-.7.2-1.3.6-1.8.4-.5.9-.9 1.6-1.2.6-.3 1.3-.4 2.1-.4 1.1 0 2 .2 2.7.5.7.3 1.2.8 1.6 1.4l-1.7 1.7c-.3-.4-.7-.7-1.1-.9-.4-.2-.8-.3-1.3-.3s-.8.1-1.1.2c-.3.1-.4.4-.4.7 0 .2.1.4.3.6.2.1.4.3.7.4.3.1.6.2.9.2.8.1 1.5.4 2 .7.6.3 1.1.7 1.4 1.1.3.5.5 1 .5 1.7 0 .8-.2 1.5-.6 2-.4.5-.9 1-1.6 1.2-.7.2-1.5.4-2.3.4zm6.4-.2v-11.2h7.9v2.4h-5.2v1.9h4.5v2.3h-4.5v2.1h5.3v2.4h-8zm10.4 0v-11.2h4.8c1.1 0 2.1.2 2.9.7.8.5 1.5 1.1 2 2 .5.8.7 1.8.7 2.9s-.2 2.1-.7 2.9c-.5.8-1.1 1.5-2 2-.8.5-1.8.7-2.9.7h-4.8zm4.6-8.7h-1.8v6.2h1.8c.8 0 1.5-.3 2-.8.5-.6.8-1.3.8-2.2 0-.9-.3-1.7-.8-2.2-.5-.7-1.1-1-2-1z" style="fill:url(#SVGID_00000016034940452726339520000007930800687748062354_)"/><path d="M300 498v-.5h-.5v.5h.5zm150 0h.5v-.5h-.5v.5zm0 150v.5h.5v-.5h-.5zm-150 0h-.5v.5h.5v-.5zm0-149.5h150v-1H300v1zm149.5-.5v150h1V498h-1zm.5 149.5H300v1h150v-1zm-149.5.5V498h-1v150h1z" class="st2"/><path d="M450 498h150v150H450V498z" class="st14"/><path d="M450 498v-.5h-.5v.5h.5zm150 0h.5v-.5h-.5v.5zm0 150v.5h.5v-.5h-.5zm-150 0h-.5v.5h.5v-.5zm0-149.5h150v-1H450v1zm149.5-.5v150h1V498h-1zm.5 149.5H450v1h150v-1zm-149.5.5V498h-1v150h1z" class="st2"/><path d="M600 498h150v150H600V498z" style="fill:#a2bfc9"/><path d="M600 498v-.5h-.5v.5h.5zm150 0h.5v-.5h-.5v.5zm0 150v.5h.5v-.5h-.5zm-150 0h-.5v.5h.5v-.5zm0-149.5h150v-1H600v1zm149.5-.5v150h1V498h-1zm.5 149.5H600v1h150v-1zm-149.5.5V498h-1v150h1z" class="st2"/><path d="M750 498h150v150H750V498z" class="st14"/><path d="M750 498v-.5h-.5v.5h.5zm150 0h.5v-.5h-.5v.5zm0 150v.5h.5v-.5h-.5zm-150 0h-.5v.5h.5v-.5zm0-149.5h150v-1H750v1zm149.5-.5v150h1V498h-1zm.5 149.5H750v1h150v-1zm-149.5.5V498h-1v150h1z" class="st2"/><path d="M900 498h150v150H900V498z" class="st16"/><path d="M900 498v-.5h-.5v.5h.5zm150 0h.5v-.5h-.5v.5zm0 150v.5h.5v-.5h-.5zm-150 0h-.5v.5h.5v-.5zm0-149.5h150v-1H900v1zm149.5-.5v150h1V498h-1zm.5 149.5H900v1h150v-1zm-149.5.5V498h-1v150h1z" class="st2"/><path d="M0 648h150v150H12c-6.6 0-12-5.4-12-12V648z" class="st7"/><path d="M0 648v-.5h-.5v.5H0zm150 0h.5v-.5h-.5v.5zm0 150v.5h.5v-.5h-.5zM0 648.5h150v-1H0v1zm149.5-.5v150h1V648h-1zm.5 149.5H12v1h138v-1zM.5 786V648h-1v138h1zM12 797.5C5.6 797.5.5 792.4.5 786h-1c0 6.9 5.6 12.5 12.5 12.5v-1z" class="st2"/><linearGradient id="SVGID_00000087373523820517444880000005494206365266080680_" x1="197.452" x2="201.475" y1="84.238" y2="64.608" gradientTransform="matrix(1 0 0 -1 0 800)" gradientUnits="userSpaceOnUse"><stop offset="0" style="stop-color:#a92230"/><stop offset="1" style="stop-color:#d52b3d"/></linearGradient><path d="M168.6 711.2c-1.2 0-2.2-.2-3.1-.7-.9-.5-1.6-1.2-2.1-2.1-.5-.9-.8-1.9-.8-3 0-.8.1-1.6.4-2.3.3-.7.7-1.3 1.2-1.8s1.2-.9 1.9-1.2c.7-.3 1.5-.4 2.4-.4.8 0 1.6.2 2.3.5.7.3 1.4.7 1.9 1.3l-1.8 2c-.3-.3-.7-.6-1.1-.8-.4-.2-.8-.3-1.4-.3-.6 0-1.1.1-1.5.4-.4.3-.8.6-1.1 1.1-.3.5-.4 1-.4 1.7 0 .9.3 1.7.9 2.3s1.4.8 2.4.8c.5 0 .9-.1 1.4-.3.4-.2.8-.5 1.1-.8l1.4 2.2c-.3.3-.6.6-1.1.8-.4.2-.9.4-1.5.6-.3-.1-.9 0-1.4 0zm5.9-.2v-11.2h2.9v8.7h4.9v2.5h-7.8zm14.6.2c-.8 0-1.6-.1-2.3-.4-.7-.3-1.3-.7-1.9-1.2-.5-.5-.9-1.1-1.2-1.8-.3-.7-.4-1.5-.4-2.3s.1-1.6.4-2.3c.3-.7.7-1.3 1.2-1.9.5-.5 1.1-.9 1.9-1.2.7-.3 1.5-.4 2.3-.4.9 0 1.6.1 2.4.4.7.3 1.3.7 1.9 1.2.5.5.9 1.1 1.2 1.9.3.7.4 1.5.4 2.3 0 .8-.1 1.6-.4 2.3-.3.7-.7 1.3-1.2 1.8s-1.1.9-1.9 1.2c-.7.2-1.5.4-2.4.4zm0-2.7c.6 0 1.1-.1 1.5-.4.4-.3.8-.7 1-1.1.3-.5.4-1 .4-1.6 0-.6-.1-1.1-.4-1.6s-.6-.8-1-1.1c-.4-.3-.9-.4-1.5-.4s-1.1.1-1.5.4c-.4.3-.8.6-1 1.1-.2.5-.4 1-.4 1.6 0 .6.1 1.1.4 1.6.3.5.6.8 1 1.1.5.2 1 .4 1.5.4zm11.7 2.7c-1.2 0-2.1-.2-2.9-.6-.8-.4-1.4-.9-2-1.6l1.7-2c.5.7 1.1 1.2 1.6 1.4.6.2 1.1.4 1.7.4.4 0 .8-.1 1-.2s.4-.4.4-.7c0-.3-.1-.5-.3-.6-.2-.2-.5-.3-.8-.4-.3-.1-.7-.2-1-.3-1.2-.3-2.2-.7-2.8-1.3-.6-.6-.9-1.3-.9-2.3 0-.7.2-1.3.6-1.8.4-.5.9-.9 1.6-1.2.7-.3 1.3-.4 2.1-.4 1.1 0 2 .2 2.7.5.7.3 1.2.8 1.6 1.4l-1.7 1.7c-.3-.4-.7-.7-1.1-.9-.4-.2-.8-.3-1.3-.3s-.8.1-1.1.2c-.3.1-.4.4-.4.7 0 .2.1.4.3.6.2.1.4.3.7.4.3.1.6.2.9.2.8.1 1.5.4 2 .7.6.3 1.1.7 1.4 1.1.3.5.5 1 .5 1.7 0 .8-.2 1.5-.6 2-.4.5-.9 1-1.6 1.2-.7.2-1.4.4-2.3.4zm6.4-.2v-11.2h7.9v2.4H210v1.9h4.5v2.3H210v2.1h5.3v2.4h-8.1zm10.4 0v-11.2h4.8c1.1 0 2.1.2 2.9.7.8.5 1.5 1.1 2 2 .5.8.7 1.8.7 2.9s-.2 2.1-.7 2.9c-.5.8-1.1 1.5-2 2-.8.5-1.8.7-2.9.7h-4.8zm4.7-8.7h-1.8v6.2h1.8c.8 0 1.5-.3 2-.8.5-.6.8-1.3.8-2.2 0-.9-.3-1.7-.8-2.2-.5-.7-1.2-1-2-1z" style="fill:url(#SVGID_00000087373523820517444880000005494206365266080680_)"/><path d="M150 648v-.5h-.5v.5h.5zm150 0h.5v-.5h-.5v.5zm0 150v.5h.5v-.5h-.5zm-150 0h-.5v.5h.5v-.5zm0-149.5h150v-1H150v1zm149.5-.5v150h1V648h-1zm.5 149.5H150v1h150v-1zm-149.5.5V648h-1v150h1z" class="st2"/><path d="M300 648h150v150H300V648z" class="st3"/><path d="M317.1 711.2c-1.2 0-2.1-.2-2.9-.6-.8-.4-1.4-.9-2-1.6l1.7-2c.5.7 1.1 1.2 1.6 1.4.6.2 1.1.4 1.7.4.4 0 .8-.1 1-.2s.4-.4.4-.7c0-.3-.1-.5-.3-.6-.2-.2-.5-.3-.8-.4-.3-.1-.7-.2-1-.3-1.2-.3-2.2-.7-2.8-1.3-.6-.6-.9-1.3-.9-2.3 0-.7.2-1.3.6-1.8.4-.5.9-.9 1.6-1.2.7-.3 1.3-.4 2.1-.4 1.1 0 2 .2 2.7.5.7.3 1.2.8 1.6 1.4l-1.7 1.7c-.3-.4-.7-.7-1.1-.9-.4-.2-.8-.3-1.3-.3s-.8.1-1.1.2c-.3.1-.4.4-.4.7 0 .2.1.4.3.6.2.1.4.3.7.4.3.1.6.2.9.2.8.1 1.5.4 2 .7.6.3 1.1.7 1.4 1.1.3.5.5 1 .5 1.7 0 .8-.2 1.5-.6 2-.4.5-.9 1-1.6 1.2-.7.2-1.4.4-2.3.4zm6.8-.2v-6.2h-1.5v-2.4h1.5v-2.1h2.7v2.1h1.6v2.4h-1.6v6.2h-2.7zm9.8.2c-.9 0-1.7-.2-2.4-.6-.7-.4-1.2-.9-1.6-1.6s-.6-1.4-.6-2.3c0-.9.2-1.6.6-2.3.4-.7 1-1.2 1.6-1.6.7-.4 1.5-.6 2.4-.6s1.7.2 2.4.6c.7.4 1.3.9 1.6 1.6.4.7.6 1.4.6 2.3 0 .9-.2 1.6-.6 2.3-.4.7-.9 1.2-1.6 1.6-.8.4-1.5.6-2.4.6zm0-2.4c.5 0 1-.2 1.3-.6.4-.4.5-.9.5-1.5s-.2-1.1-.5-1.5c-.4-.4-.8-.6-1.3-.6s-1 .2-1.4.6c-.4.4-.5.9-.5 1.5s.2 1.1.5 1.5c.4.4.8.6 1.4.6zm6.2 2.2v-8.5h2.6v1.3c.3-.4.6-.8 1.1-1 .4-.3.9-.4 1.4-.4h.5c.2 0 .3.1.5.1l-.7 3c-.1-.1-.3-.1-.5-.2s-.4-.1-.7-.1c-.4 0-.8.1-1.1.4-.3.3-.4.7-.4 1.2v4.2h-2.7zm11.2.2c-.9 0-1.8-.2-2.5-.6-.7-.4-1.2-.9-1.6-1.6-.4-.7-.6-1.4-.6-2.3 0-.9.2-1.6.6-2.3.4-.7.9-1.2 1.5-1.6.7-.4 1.4-.6 2.2-.6.8 0 1.5.2 2.1.6.6.4 1.1.9 1.4 1.5.3.7.5 1.4.5 2.2v.7H349c.1.5.4.8.8 1.1.4.3.9.4 1.6.4.4 0 .7 0 .9-.1.3-.1.6-.3.9-.5l1.3 1.8c-.5.4-1.1.8-1.6.9-.7.3-1.3.4-1.8.4zm-.3-6.6c-1 0-1.6.4-1.8 1.3h3.3c0-.4-.2-.7-.5-.9-.3-.3-.6-.4-1-.4zM313.4 759v-11.2h7.8v2.5h-4.9v2.1h4.3v2.4h-4.3v4.2h-2.9zm12.5.1c-.7 0-1.3-.2-1.9-.6-.6-.4-1-.9-1.3-1.6-.3-.7-.5-1.4-.5-2.3 0-.9.2-1.6.5-2.3.3-.7.8-1.2 1.3-1.6.6-.4 1.2-.6 2-.6.6 0 1 .1 1.5.3.4.2.8.5 1 .8v-1h2.7v8.5h-2.7v-1c-.3.3-.6.6-1.1.8-.4.5-.9.6-1.5.6zm.8-2.2c.6 0 1-.2 1.3-.6.3-.4.5-.9.5-1.6 0-.7-.2-1.2-.5-1.6-.3-.4-.8-.6-1.3-.6-.6 0-1 .2-1.3.6-.3.4-.5.9-.5 1.6 0 .7.2 1.2.5 1.6.3.4.8.6 1.3.6zm8.3-8.1c-.5 0-.9-.1-1.2-.4-.3-.2-.4-.6-.4-1s.1-.7.4-1c.3-.3.7-.4 1.2-.4s.9.1 1.2.4c.3.2.4.6.4 1s-.1.7-.4 1c-.3.3-.7.4-1.2.4zm-1.4 10.2v-8.5h2.7v8.5h-2.7zm5.2 0v-8.5h2.6v1.3c.3-.4.7-.8 1.1-1 .4-.3.9-.4 1.4-.4h.5c.2 0 .3.1.5.1l-.7 3c-.1-.1-.3-.1-.5-.2s-.4-.1-.7-.1c-.4 0-.8.1-1.1.4-.3.3-.4.7-.4 1.2v4.2h-2.7z" class="st4"/><path d="M367 711.2c-.8 0-1.6-.1-2.3-.4-.7-.3-1.3-.7-1.9-1.2-.5-.5-.9-1.1-1.2-1.8-.3-.7-.4-1.5-.4-2.3s.1-1.6.4-2.3c.3-.7.7-1.3 1.2-1.9.5-.5 1.1-.9 1.9-1.2.7-.3 1.5-.4 2.3-.4.9 0 1.6.1 2.4.4.7.3 1.3.7 1.9 1.2.5.5.9 1.1 1.2 1.9.3.7.4 1.5.4 2.3 0 .8-.1 1.6-.4 2.3-.3.7-.7 1.3-1.2 1.8s-1.1.9-1.9 1.2c-.8.2-1.5.4-2.4.4zm0-2.7c.6 0 1.1-.1 1.5-.4.4-.3.8-.7 1-1.1.3-.5.4-1 .4-1.6 0-.6-.1-1.1-.4-1.6-.3-.5-.6-.8-1-1.1-.4-.3-.9-.4-1.5-.4s-1.1.1-1.5.4c-.4.3-.8.6-1 1.1-.2.5-.4 1-.4 1.6 0 .6.1 1.1.4 1.6.3.5.6.8 1 1.1.4.2.9.4 1.5.4zm7.9 2.5v-11.2h4.9c.7 0 1.4.2 1.9.5.6.3 1 .8 1.3 1.3.3.6.5 1.2.5 1.9s-.2 1.4-.5 2c-.3.6-.8 1-1.3 1.4-.6.3-1.2.5-1.9.5h-2v3.6h-2.9zm2.9-6.2h1.6c.3 0 .6-.1.9-.4.2-.2.4-.6.4-.9 0-.4-.1-.7-.4-.9-.2-.2-.5-.3-.9-.3h-1.6v2.5zm7.8 6.2v-11.2h7.9v2.4h-5.2v1.9h4.5v2.3h-4.5v2.1h5.3v2.4h-8zm10.4 0v-11.2h2.6l5 6.9c-.1-.5-.1-.9-.1-1.3s-.1-.9-.1-1.3v-4.2h2.8V711h-2.6l-5-6.7c.1.5.1.9.1 1.2 0 .3.1.6.1.9v4.6H396z" class="st5"/><linearGradient id="SVGID_00000136396244735041712120000012021023292887361440_" x1="377.198" x2="404.577" y1="57.002" y2="12.47" gradientTransform="matrix(1 0 0 -1 0 800)" gradientUnits="userSpaceOnUse"><stop offset="0" style="stop-color:#a92230"/><stop offset="1" style="stop-color:#d52b3d"/></linearGradient><path d="M356.8 759.2c-1.2 0-2.2-.2-3.1-.7-.9-.5-1.6-1.2-2.1-2.1-.5-.9-.8-1.9-.8-3 0-.8.1-1.6.4-2.3.3-.7.7-1.3 1.2-1.8s1.2-.9 1.9-1.2c.7-.3 1.5-.4 2.4-.4.8 0 1.6.2 2.3.5.7.3 1.4.7 1.9 1.3l-1.8 2c-.3-.3-.7-.6-1.1-.8-.4-.2-.8-.3-1.4-.3-.6 0-1.1.1-1.5.4-.4.3-.8.6-1.1 1.1-.3.5-.4 1-.4 1.7 0 .9.3 1.7.9 2.3.6.6 1.4.8 2.4.8.5 0 .9-.1 1.4-.3.4-.2.8-.5 1.1-.8l1.4 2.2c-.3.3-.6.6-1.1.8-.4.2-.9.4-1.5.6-.3-.1-.8 0-1.4 0zm6-.2v-11.2h2.9v8.7h4.9v2.5h-7.8zm14.6.2c-.8 0-1.6-.1-2.3-.4-.7-.3-1.3-.7-1.9-1.2-.5-.5-.9-1.1-1.2-1.8s-.4-1.5-.4-2.3.1-1.6.4-2.3c.3-.7.7-1.3 1.2-1.9.5-.5 1.1-.9 1.9-1.2.7-.3 1.5-.4 2.3-.4.9 0 1.6.1 2.4.4.7.3 1.3.7 1.9 1.2.5.5.9 1.1 1.2 1.9.3.7.4 1.5.4 2.3 0 .8-.1 1.6-.4 2.3-.3.7-.7 1.3-1.2 1.8s-1.1.9-1.9 1.2c-.8.2-1.6.4-2.4.4zm0-2.7c.6 0 1.1-.1 1.5-.4.4-.3.8-.7 1-1.1.3-.5.4-1 .4-1.6 0-.6-.1-1.1-.4-1.6s-.6-.8-1-1.1c-.4-.3-.9-.4-1.5-.4s-1.1.1-1.5.4c-.4.3-.8.6-1 1.1-.2.5-.4 1-.4 1.6 0 .6.1 1.1.4 1.6.3.5.6.8 1 1.1.4.2.9.4 1.5.4zm11.7 2.7c-1.2 0-2.1-.2-2.9-.6-.8-.4-1.4-.9-2-1.6l1.7-2c.5.7 1.1 1.2 1.6 1.4.6.2 1.1.4 1.7.4.4 0 .8-.1 1-.2.3-.1.4-.4.4-.7 0-.3-.1-.5-.3-.6-.2-.2-.5-.3-.8-.4-.3-.1-.7-.2-1-.3-1.2-.3-2.2-.7-2.8-1.3-.6-.6-.9-1.3-.9-2.3 0-.7.2-1.3.6-1.8.4-.5.9-.9 1.6-1.2.6-.3 1.3-.4 2.1-.4 1.1 0 2 .2 2.7.5.7.3 1.2.8 1.6 1.4l-1.7 1.7c-.3-.4-.7-.7-1.1-.9-.4-.2-.8-.3-1.3-.3s-.8.1-1.1.2c-.3.1-.4.4-.4.7 0 .2.1.4.3.6.2.1.4.3.7.4.3.1.6.2.9.2.8.1 1.5.4 2 .7.6.3 1.1.7 1.4 1.1.3.5.5 1 .5 1.7 0 .8-.2 1.5-.6 2-.4.5-.9 1-1.6 1.2-.7.2-1.5.4-2.3.4zm6.4-.2v-11.2h7.9v2.4h-5.2v1.9h4.5v2.3h-4.5v2.1h5.3v2.4h-8zm10.4 0v-11.2h4.8c1.1 0 2.1.2 2.9.7.8.5 1.5 1.1 2 2 .5.8.7 1.8.7 2.9s-.2 2.1-.7 2.9c-.5.8-1.1 1.5-2 2-.8.5-1.8.7-2.9.7h-4.8zm4.6-8.7h-1.8v6.2h1.8c.8 0 1.5-.3 2-.8.5-.6.8-1.3.8-2.2 0-.9-.3-1.7-.8-2.2-.5-.7-1.1-1-2-1z" style="fill:url(#SVGID_00000136396244735041712120000012021023292887361440_)"/><path d="M300 648v-.5h-.5v.5h.5zm150 0h.5v-.5h-.5v.5zm0 150v.5h.5v-.5h-.5zm-150 0h-.5v.5h.5v-.5zm0-149.5h150v-1H300v1zm149.5-.5v150h1V648h-1zm.5 149.5H300v1h150v-1zm-149.5.5V648h-1v150h1z" class="st2"/><path d="M450 648h150v150H450V648z" class="st14"/><path d="M450 648v-.5h-.5v.5h.5zm150 0h.5v-.5h-.5v.5zm0 150v.5h.5v-.5h-.5zm-150 0h-.5v.5h.5v-.5zm0-149.5h150v-1H450v1zm149.5-.5v150h1V648h-1zm.5 149.5H450v1h150v-1zm-149.5.5V648h-1v150h1z" class="st2"/><path d="M600 648h150v150H600V648z" class="st14"/><path d="M600 648v-.5h-.5v.5h.5zm150 0h.5v-.5h-.5v.5zm0 150v.5h.5v-.5h-.5zm-150 0h-.5v.5h.5v-.5zm0-149.5h150v-1H600v1zm149.5-.5v150h1V648h-1zm.5 149.5H600v1h150v-1zm-149.5.5V648h-1v150h1z" class="st2"/><path d="M750 648h150v150H750V648z" class="st10"/><path d="M750 648v-.5h-.5v.5h.5zm150 0h.5v-.5h-.5v.5zm0 150v.5h.5v-.5h-.5zm-150 0h-.5v.5h.5v-.5zm0-149.5h150v-1H750v1zm149.5-.5v150h1V648h-1zm.5 149.5H750v1h150v-1zm-149.5.5V648h-1v150h1z" class="st2"/><path d="M900.5 648.2H1050V786c0 6.6-5.4 12-12 12H900.5V648.2z" class="st16"/><path d="M900 648v-.5h-.5v.5h.5zm150 0h.5v-.5h-.5v.5zM900 798h-.5v.5h.5v-.5zm0-149.5h150v-1H900v1zm149.5-.5v138h1V648h-1zM1038 797.5H900v1h138v-1zm-137.5.5V648h-1v150h1zm149-12c0 6.4-5.2 11.5-11.5 11.5v1c6.9 0 12.5-5.6 12.5-12.5h-1z" class="st2"/><path d="M12 .5h1026c6.4 0 11.5 5.1 11.5 11.5v774c0 6.4-5.1 11.5-11.5 11.5H12C5.6 797.5.5 792.4.5 786V12C.5 5.6 5.6.5 12 .5z" style="fill:none;stroke:#e7e7e7"/><text class="st20 st21" transform="translate(763.17 78.056)">2</text><text class="st20 st21" transform="translate(158.787 223.52)">5</text><text class="st20 st21" transform="translate(13.124 223.52)">4</text><text class="st20 st21" transform="translate(914.39 77.906)">3</text><text class="st20 st21" transform="translate(608.787 77.906)">1</text><text class="st20 st21" transform="translate(606.99 223.82)">8</text><text class="st20 st21" transform="translate(461.049 223.52)">7</text><text class="st20 st21" transform="translate(305.212 223.67)">6</text><text class="st20 st21" transform="translate(764.785 223.97)">9</text><text class="st20 st21" transform="translate(907.771 224.12)">10</text><text class="st20 st21" transform="translate(5.75 370.676)">11</text><text class="st20 st21" transform="translate(159.787 370.826)">12</text><text class="st20 st21" transform="translate(306.212 370.676)">13</text><text class="st20 st21" transform="translate(612.587 370.826)">15</text><text class="st20 st21" transform="translate(462.599 370.676)">14</text><text class="st20 st21" transform="translate(760.286 370.827)">16</text><text class="st20 st21" transform="translate(911.571 375.347)">17</text><text class="st20 st21" transform="translate(5.75 520.907)">18</text><text class="st20 st21" transform="translate(159.787 520.907)">19</text><text class="st20 st21" transform="translate(310.012 520.907)">20</text><text class="st20 st21" transform="translate(462.599 520.907)">21</text><text class="st20 st21" transform="translate(612.587 520.907)">22</text><text class="st20 st21" transform="translate(761.636 520.906)">23</text><text class="st20 st21" transform="translate(914.39 520.907)">24</text><text class="st20 st21" transform="translate(159.787 669.907)">26</text><text class="st20 st21" transform="translate(9.55 669.907)">25</text><text class="st20 st21" transform="translate(306.687 669.907)">27</text><text class="st20 st21" transform="translate(458.341 669.908)">28</text><text class="st20 st21" transform="translate(608.19 669.907)">29</text><path d="M750 648.5h149.5v148.6H750V648.5z" class="st14"/><text class="st22 st20 st21" transform="translate(914.39 669.906)">1</text><text class="st22 st20 st21" transform="translate(459.915 77.906)">31</text><text class="st22 st20 st21" transform="translate(308.26 77.906)">30</text><text class="st22 st20 st21" transform="translate(159.787 77.906)">29</text><text class="st22 st20 st21" transform="translate(13.924 77.905)">28</text><text class="st20 st21" transform="translate(763.086 669.906)">29</text></svg>