<svg xmlns="http://www.w3.org/2000/svg" width="210mm" height="148mm" style="display:block;background:#eee" viewBox="-707 -500 1414 1000"><path fill="none" stroke-width=".4mm" d="M-657.11-90H657.11m0 120H-657.11m187.75-240v480m375.49 0v-600m187.74 0v600m375.49-120v-480m-657.47-20.17v-63.95l-30.07 54.29-30.95-54.59v64.55m73.26-34.31q1.04-4.98 2.75-7.25 1.83-2.45 5.9-3.89 4.63-1.66 10.53-1.66 2.27 0 2.97.21.75.35 2.28 1.01 6.6 2.53 7.91 8.87.39 1.92.39 7.26l.04 20.41q.4 5.81 2.45 9.53m-2.05-6.82q-8.87 7.56-17.7 7.56-6.78 0-11.06-3.19-4.81-3.54-4.81-10.1 0-6.95 5.6-10.75 2.53-1.75 5.68-2.58 2.31-.61 6.99-1.18 10.93-1.31 14.86-2.66m18.79-17.01V-350m.09-39.38q4.46-8.09 10.05-8.09 3.98 0 8.09 2.54M-58.61-366q-1.22 7.83-6.29 12.37-5.16 4.68-13.03 4.68-10.44 0-16-6.99-5.11-6.39-5.11-17.09 0-16.04 10.05-21.59 5.12-2.85 11.1-2.85 15.7 0 18.54 14.69m15.91-31.64v64.55m22.46 0v-30.37q-.35-1.88-.72-3.79-.37-1.9-1.47-3.25-1.83-2.14-3.93-2.8-2.97-.87-5.99-.44-3.32.53-5.85 2.71-1.84 1.62-3.37 4.94-.65 1.45-.83 3.28-.26 3.24-.3 3.54m82.47-29.72 12.06-8.3V-350m20.63-45.8q.83-9.01 6.27-13.77 5.44-4.77 14.54-4.77 8.47 0 14.03 4.59 5.94 4.9 5.94 13.2 0 4.29-2.62 8.7-.88 1.49-5.55 5.86-1.71 1.57-7.91 3.67-10.23 3.45-17.31 10.53-7.96 7.91-8.87 17.79h42.35m8.43-31.6q0-32.74 20.89-32.74 20.9 0 20.9 32.74 0 21.33-9.27 28.93-4.59 3.76-11.63 3.76-20.89 0-20.89-32.69m50.26-14.2q.83-9.01 6.28-13.77 5.44-4.77 14.53-4.77 8.48 0 14.03 4.59 5.94 4.9 5.94 13.2 0 4.29-2.62 8.7-.87 1.49-5.55 5.86-1.71 1.57-7.91 3.67-10.23 3.45-17.31 10.53-7.95 7.91-8.87 17.79h42.35m8.57-16.7q2.57 17.79 20.41 17.79 7.82 0 14.38-5.15 6.9-5.42 6.99-12.81.09-11.32-5.2-15.08-3.89-2.75-14.47-2.75-1.22 0-4.28.04h-4.59 16.52q8.83-3.98 8.83-13.33 0-7.12-5.46-11.84-5.21-4.46-12.42-4.46-12.89 0-17.92 9.92-1.13 2.27-2.01 6.51M-264.95-306v-12.81l-2.41 1.66m184.33 1.99q.16-1.8 1.25-2.75 1.09-.96 2.91-.96 1.69 0 2.8.92 1.19.98 1.19 2.64 0 .86-.52 1.74-.18.3-1.11 1.17-.34.32-1.58.74-2.05.69-3.47 2.1-1.59 1.58-1.77 3.56h8.47m179.5-3.34q.52 3.56 4.08 3.56 1.57 0 2.88-1.03 1.38-1.09 1.4-2.56.02-2.27-1.04-3.02-.78-.55-2.9-.55-.24 0-.85.01h-.92 3.3q1.77-.8 1.77-2.67 0-1.42-1.09-2.37-1.04-.89-2.49-.89-2.57 0-3.58 1.99-.23.45-.4 1.3m194.06 9.65-.01-12.95-7.13 9.75h8.48m179.91-.19q.22 1.71 1.32 2.63 1.08.89 2.83.89 1.83 0 3.14-1.41 1.27-1.36 1.22-3.14-.11-3.7-3.65-3.79-.96-.02-2.3.66-1.27.65-2.15 1.54l1.1-6.72h6.33M-646.38-191.01q.77-1.37 1.91-2.26 1.32-1.04 2.71-1.04 1.7 0 2.77 1.25 1.02 1.18 1.02 2.9 0 1.84-1.08 3.08-1.12 1.3-2.93 1.3-4.45 0-4.45-6.22 0-6.87 4.59-6.87 1.52 0 2.48.85.97.85 1.16 2.34m179.69-2.97h8.29q-.28.96-1.09 2.4-.67 1.14-1.34 2.29-2.18 3.93-2.45 7.96m188.35-6.9q-1.67-.13-2.48-.58-1.15-.64-1.15-2.08 0-1.45 1.12-2.4 1.07-.91 2.56-.91 1.56 0 2.61.89 1.12.93 1.12 2.46 0 2.48-3.78 2.62 2.25.3 2.99.69 1.31.71 1.31 2.55 0 1.76-1.24 2.85-1.19 1.03-2.98 1.03-1.81 0-2.99-1.05-1.23-1.09-1.23-2.88 0-1.83 1.23-2.51.66-.35 2.91-.68m192.05.23q-.4.6-2.13 1.46-1.73.87-2.51.87-1.72 0-2.78-1.26-1.01-1.18-1.01-2.94 0-1.86 1.08-3.07 1.11-1.26 2.95-1.26 2.43 0 3.54 2.01.86 1.57.86 4.19 0 2.87-.87 4.59-1.14 2.3-3.72 2.3-1.51 0-2.46-.84-.95-.85-1.14-2.34m191.02-8.19 2.41-1.66V-186m4.03-6.32q0-6.55 4.18-6.55t4.18 6.55q0 4.27-1.85 5.79-.92.75-2.33.75-4.18 0-4.18-6.54m181.3-4.83 2.42-1.66V-186m8.62 0v-12.81l-2.41 1.66m179.12 0 2.41-1.66V-186m4.13-9.16q.16-1.8 1.25-2.75 1.09-.96 2.91-.96 1.69 0 2.8.92 1.19.98 1.19 2.64 0 .86-.52 1.74-.18.3-1.11 1.17-.34.32-1.58.74-2.05.69-3.47 2.1-1.59 1.58-1.77 3.56h8.47M-640.44-66v-12.81l-2.41 1.66m6.47 7.81q.51 3.56 4.08 3.56 1.57 0 2.88-1.03 1.38-1.09 1.4-2.56.01-2.27-1.04-3.02-.78-.55-2.9-.55-.24 0-.85.01h-.92 3.3q1.77-.8 1.77-2.67 0-1.42-1.1-2.37-1.04-.89-2.48-.89-2.58 0-3.58 1.99-.23.45-.4 1.3m181.12-1.58 2.41-1.66V-66m10.53.08-.01-12.95-7.13 9.75h8.48m173.46-8.03 2.41-1.66V-66m4.04-3.31q.22 1.71 1.32 2.63 1.08.89 2.82.89 1.84 0 3.14-1.41 1.28-1.36 1.23-3.14-.11-3.7-3.66-3.79-.95-.02-2.29.66-1.27.65-2.16 1.54l1.1-6.72h6.34m173.45 1.5 2.42-1.66V-66m4.01-5.01q.77-1.37 1.91-2.26 1.32-1.04 2.71-1.04 1.7 0 2.77 1.25 1.02 1.18 1.02 2.9 0 1.84-1.08 3.08-1.12 1.3-2.93 1.3-4.45 0-4.45-6.22 0-6.87 4.59-6.87 1.52 0 2.48.85.97.85 1.16 2.34m173.14-1.47 2.41-1.66V-66m4.14-12.65h8.29q-.28.96-1.09 2.4-.66 1.14-1.34 2.29-2.17 3.93-2.45 7.96m177.78-11.15 2.42-1.66V-66m8.15-6.9q-1.67-.13-2.48-.58-1.15-.64-1.15-2.08 0-1.45 1.12-2.4 1.07-.91 2.56-.91 1.56 0 2.61.89 1.12.93 1.12 2.46 0 2.48-3.78 2.62 2.25.3 2.99.69 1.31.71 1.31 2.55 0 1.76-1.24 2.85-1.19 1.03-2.98 1.03-1.81 0-2.99-1.05-1.23-1.09-1.23-2.88 0-1.83 1.23-2.51.66-.35 2.91-.68m177.18-4.25 2.41-1.66V-66m12.46-6.67q-.4.6-2.13 1.46-1.73.87-2.51.87-1.72 0-2.78-1.26-1.01-1.18-1.01-2.94 0-1.86 1.08-3.07 1.12-1.26 2.95-1.26 2.43 0 3.54 2.01.86 1.57.86 4.19 0 2.87-.87 4.59-1.14 2.3-3.72 2.3-1.5 0-2.46-.84-.95-.85-1.14-2.34M-646.27 44.84q.17-1.8 1.26-2.75 1.09-.96 2.9-.96 1.7 0 2.81.92 1.19.98 1.19 2.64 0 .86-.53 1.74-.17.3-1.11 1.17-.34.32-1.58.74-2.04.69-3.46 2.1-1.59 1.58-1.77 3.56h8.47m1.68-6.32q0-6.55 4.18-6.55t4.18 6.55q0 4.27-1.85 5.79-.92.75-2.33.75-4.18 0-4.18-6.54m177.89-2.84q.16-1.8 1.25-2.75 1.09-.96 2.91-.96 1.69 0 2.8.92 1.19.98 1.19 2.64 0 .86-.52 1.74-.18.3-1.11 1.17-.34.32-1.58.74-2.05.69-3.47 2.1-1.59 1.58-1.77 3.56h8.47m7.61 0V41.19l-2.41 1.66m174.37 1.99q.17-1.8 1.26-2.75 1.08-.96 2.9-.96 1.7 0 2.81.92 1.19.98 1.19 2.64 0 .86-.53 1.74-.17.3-1.11 1.17-.34.32-1.58.74-2.04.69-3.46 2.1-1.59 1.58-1.78 3.56h8.48m1.78-9.16q.16-1.8 1.25-2.75 1.09-.96 2.91-.96 1.69 0 2.81.92 1.18.98 1.18 2.64 0 .86-.52 1.74-.18.3-1.11 1.17-.34.32-1.58.74-2.05.69-3.46 2.1-1.6 1.58-1.78 3.56h8.47m169.62-9.16q.16-1.8 1.25-2.75 1.09-.96 2.91-.96 1.69 0 2.8.92 1.19.98 1.19 2.64 0 .86-.52 1.74-.18.3-1.11 1.17-.34.32-1.58.74-2.05.69-3.47 2.1-1.59 1.58-1.77 3.56h8.47m1.71-3.34q.52 3.56 4.09 3.56 1.56 0 2.87-1.03 1.38-1.09 1.4-2.56.02-2.27-1.04-3.02-.78-.55-2.89-.55-.25 0-.86.01h-.92 3.31q1.76-.8 1.76-2.67 0-1.42-1.09-2.37-1.04-.89-2.48-.89-2.58 0-3.59 1.99-.22.45-.4 1.3m177.7.41q.17-1.8 1.26-2.75 1.08-.96 2.9-.96 1.7 0 2.81.92 1.19.98 1.19 2.64 0 .86-.53 1.74-.17.3-1.11 1.17-.34.32-1.58.74-2.05.69-3.46 2.1-1.59 1.58-1.78 3.56h8.47m8.2.08-.01-12.95-7.14 9.75h8.48m170.05-6.04q.16-1.8 1.25-2.75 1.09-.96 2.91-.96 1.69 0 2.8.92 1.19.98 1.19 2.64 0 .86-.52 1.74-.18.3-1.11 1.17-.34.32-1.58.74-2.05.69-3.47 2.1-1.59 1.58-1.77 3.56h8.47m1.7-3.31q.21 1.71 1.32 2.63 1.07.89 2.82.89 1.83 0 3.14-1.41 1.27-1.36 1.22-3.14-.1-3.7-3.65-3.79-.96-.02-2.29.66-1.28.65-2.16 1.54l1.1-6.72h6.34m170.03 3.49q.17-1.8 1.26-2.75 1.08-.96 2.9-.96 1.7 0 2.81.92 1.19.98 1.19 2.64 0 .86-.53 1.74-.17.3-1.11 1.17-.34.32-1.58.74-2.05.69-3.46 2.1-1.59 1.58-1.78 3.56h8.47m1.67-5.01q.77-1.37 1.92-2.26 1.32-1.04 2.71-1.04 1.69 0 2.76 1.25 1.02 1.18 1.02 2.9 0 1.84-1.07 3.08-1.13 1.3-2.94 1.3-4.45 0-4.45-6.22 0-6.87 4.6-6.87 1.51 0 2.48.85.96.85 1.16 2.34m-1144.5 120.52q.17-1.8 1.26-2.75 1.09-.96 2.9-.96 1.7 0 2.81.92 1.19.98 1.19 2.64 0 .86-.53 1.74-.17.3-1.11 1.17-.34.32-1.58.74-2.04.69-3.46 2.1-1.59 1.58-1.77 3.56h8.47m1.79-12.65h8.29q-.28.96-1.09 2.4-.66 1.14-1.34 2.29-2.17 3.93-2.45 7.96m174.37-9.16q.16-1.8 1.25-2.75 1.09-.96 2.91-.96 1.69 0 2.8.92 1.19.98 1.19 2.64 0 .86-.52 1.74-.18.3-1.11 1.17-.34.32-1.58.74-2.05.69-3.47 2.1-1.59 1.58-1.77 3.56h8.47m5.81-6.9q-1.67-.13-2.48-.58-1.14-.64-1.14-2.08 0-1.45 1.11-2.4 1.07-.91 2.57-.91 1.55 0 2.6.89 1.12.93 1.12 2.46 0 2.48-3.78 2.62 2.25.3 2.99.69 1.31.71 1.31 2.55 0 1.76-1.24 2.85-1.19 1.03-2.98 1.03-1.81 0-2.99-1.05-1.23-1.09-1.23-2.88 0-1.83 1.23-2.51.66-.35 2.91-.68m173.76-2.26q.17-1.8 1.26-2.75 1.08-.96 2.9-.96 1.7 0 2.81.92 1.19.98 1.19 2.64 0 .86-.53 1.74-.17.3-1.11 1.17-.34.32-1.58.74-2.04.69-3.46 2.1-1.59 1.58-1.78 3.56h8.48m10.11-6.67q-.4.6-2.13 1.46-1.73.87-2.5.87-1.73 0-2.79-1.26-1.01-1.18-1.01-2.94 0-1.86 1.08-3.07 1.12-1.26 2.95-1.26 2.43 0 3.54 2.01.86 1.57.86 4.19 0 2.87-.87 4.59-1.14 2.3-3.72 2.3-1.5 0-2.46-.84-.95-.85-1.14-2.34m177.58-.38q.51 3.56 4.08 3.56 1.56 0 2.87-1.03 1.39-1.09 1.4-2.56.02-2.27-1.04-3.02-.77-.55-2.89-.55-.24 0-.86.01h-.91 3.3q1.77-.8 1.77-2.67 0-1.42-1.1-2.37-1.04-.89-2.48-.89-2.58 0-3.58 1.99-.23.45-.41 1.3m9.78 3.25q0-6.55 4.18-6.55 4.17 0 4.17 6.55 0 4.27-1.85 5.79-.92.75-2.32.75-4.18 0-4.18-6.54m177.81 2.98q.52 3.56 4.08 3.56 1.57 0 2.88-1.03 1.38-1.09 1.4-2.56.02-2.27-1.04-3.02-.78-.55-2.9-.55-.24 0-.85.01h-.92 3.3q1.77-.8 1.77-2.67 0-1.42-1.09-2.37-1.04-.89-2.49-.89-2.57 0-3.58 1.99-.23.45-.4 1.3m13.29-1.58 2.41-1.66V174m516.61 226v30h-20v-10h-10v10h-50v-30h80m-60.9.9v8.2h-10v1.8h10v18.2h-18.2v-8.2h10v-1.8h-10v-18.2h18.2m20 0v8.2h-10v1.8h10v8.2h-10v1.8h10v8.2h-18.2v-28.2h18.2m20 0v18.2h-10v10h-8.2v-28.2h18.2m10 0v10h1.8v-10h8.2v28.2h-8.2v-10h-1.8v10h-8.2v-28.2h8.2m-20 8.2h1.8v1.8h-1.8v-1.8M-281.62 270v-600h938.73v480H-657.11m938.73-480v600h-938.73v-480H657.11" style="stroke:#333"/></svg>