<svg xmlns="http://www.w3.org/2000/svg" version="1.1" id="Layer_1" x="0" y="0" viewBox="0 0 582 300.691" xml:space="preserve" enable-background="new 0 0 582 300.691"><style>.st3,.st4,.st5{fill:none;stroke:url(#New_Pattern_Swatch_5);stroke-miterlimit:10}.st4,.st5{fill:#00850f}.st5{fill:#ad1f32}.st6{fill:#62b5f9}</style><pattern x="-2524.601" y="-4375.514" width="104" height="104" patternUnits="userSpaceOnUse" id="New_Pattern_Swatch_5" viewBox="0 -104 104 104" overflow="visible"><rect y="-104" width="104" height="104" style="fill:none"/><rect y="-104" width="104" height="104" style="fill:#fff"/></pattern><rect x="-.3" y="-.17" width="582.045" height="304.28" style="fill:#12225c"/><line class="st3" x1="48.076" y1="111.278" x2="48.076" y2="154.224"/><rect x="38.922" y="122.587" class="st4" width="18.591" height="16.374"/><line class="st3" x1="76.422" y1="123.213" x2="76.422" y2="161.791"/><rect x="67.267" y="133.372" class="st4" width="18.591" height="13.004"/><line class="st3" x1="103.524" y1="106.344" x2="103.524" y2="149.856"/><rect x="94.37" y="121.437" class="st4" width="18.591" height="13.004"/><line class="st3" x1="180.852" y1="90.182" x2="180.852" y2="142.646"/><rect x="171.698" y="114.226" class="st4" width="18.591" height="13.004"/><line class="st3" x1="239.283" y1="74.02" x2="239.283" y2="114.549"/><rect x="230.129" y="86.13" class="st4" width="18.591" height="13.004"/><line class="st3" x1="326.308" y1="181.434" x2="326.308" y2="230.168"/><rect x="317.152" y="201.747" class="st4" width="18.591" height="27.922"/><line class="st3" x1="353.659" y1="175.218" x2="353.659" y2="202.569"/><rect x="344.504" y="189.316" class="st4" width="18.591" height="13.999"/><line class="st3" x1="468.532" y1="175.218" x2="468.532" y2="202.569"/><rect x="459.377" y="189.316" class="st4" width="18.591" height="13.999"/><line class="st3" x1="158.723" y1="140.159" x2="158.723" y2="169.002"/><rect x="149.568" y="140.582" class="st4" width="18.591" height="13.004"/><line class="st3" x1="130.377" y1="117.284" x2="130.377" y2="160.797"/><rect x="121.223" y="129.716" class="st5" width="18.591" height="15.665"/><line class="st3" x1="210.44" y1="87.182" x2="210.44" y2="127.23"/><rect x="201.286" y="102.614" class="st5" width="18.591" height="12.681"/><line class="st3" x1="302.19" y1="172.731" x2="302.19" y2="206.05"/><rect x="293.035" y="185.164" class="st5" width="18.591" height="12.681"/><line class="st3" x1="381.756" y1="198.59" x2="381.756" y2="238.87"/><rect x="372.6" y="199.087" class="st5" width="18.591" height="25.113"/><line class="st3" x1="496.877" y1="198.59" x2="496.877" y2="238.87"/><rect x="487.721" y="199.087" class="st5" width="18.591" height="25.113"/><rect x="431.777" y="202.319" class="st5" width="18.591" height="25.113"/><line class="st3" x1="270.861" y1="60.826" x2="270.861" y2="100.874"/><rect x="261.694" y="76.25" class="st5" width="18.591" height="118.105"/><line class="st3" x1="411.754" y1="199.336" x2="411.754" y2="239.865"/><rect x="402.6" y="211.446" class="st4" width="18.591" height="13.004"/><line class="st3" x1="533.639" y1="199.336" x2="533.639" y2="239.865"/><rect x="524.485" y="211.446" class="st4" width="18.591" height="13.004"/><path class="st6" d="M316.971 90.528h1.499l1.229 5.417 1.419-5.417h1.56l1.339 5.388 1.239-5.388h1.51l-1.949 6.977h-1.649l-1.309-4.967-1.369 4.967-1.64.01-1.879-6.987zM327.531 90.488c0-.459.359-.819.859-.819.489 0 .859.36.859.819 0 .46-.37.82-.859.82-.499 0-.859-.36-.859-.82zm.15 1.479h1.399v5.537h-1.399v-5.537zM332.64 91.878c.729 0 1.43.34 1.81.859v-2.628h1.419v7.396h-1.419v-.819c-.33.51-.95.909-1.819.909-1.409 0-2.528-1.149-2.528-2.878-.001-1.73 1.118-2.839 2.537-2.839zm.349 1.229c-.749 0-1.459.56-1.459 1.609s.71 1.648 1.459 1.648c.771 0 1.47-.579 1.47-1.629s-.699-1.628-1.47-1.628zM339.66 97.594c-1.609 0-2.778-1.119-2.778-2.858 0-1.749 1.139-2.858 2.778-2.858 1.599 0 2.729 1.09 2.729 2.738 0 .18-.01.36-.04.54h-4.048c.07.819.63 1.279 1.329 1.279.6 0 .93-.3 1.109-.67h1.51c-.3 1.02-1.22 1.829-2.589 1.829zm-1.349-3.378h2.629c-.021-.729-.6-1.189-1.319-1.189-.671 0-1.2.43-1.31 1.189zM343.432 93.347h4.237v1.179h-4.237v-1.179zM350.641 97.504h-1.399v-5.537h1.399v.859c.35-.569.93-.939 1.699-.939v1.47h-.37c-.829 0-1.329.319-1.329 1.389v2.758zM355.45 91.878c.89 0 1.499.42 1.829.88v-.79h1.409v5.537h-1.409v-.81c-.33.479-.96.899-1.839.899-1.399 0-2.519-1.149-2.519-2.878.001-1.729 1.12-2.838 2.529-2.838zm.36 1.229c-.749 0-1.459.56-1.459 1.609s.71 1.648 1.459 1.648c.771 0 1.47-.579 1.47-1.629s-.7-1.628-1.47-1.628zM363.94 94.446c0-.89-.489-1.369-1.229-1.369-.76 0-1.249.479-1.249 1.369v3.059h-1.399v-5.537h1.399v.689c.359-.47.959-.77 1.669-.77 1.289 0 2.209.84 2.209 2.369v3.248h-1.399v-3.058zM368.841 91.878c.869 0 1.499.399 1.829.88v-.79h1.409v5.577c0 1.499-.92 2.688-2.738 2.688-1.56 0-2.648-.779-2.789-2.049h1.39c.14.5.659.829 1.359.829.77 0 1.369-.439 1.369-1.469v-.859c-.33.479-.96.909-1.829.909-1.409 0-2.528-1.149-2.528-2.878s1.119-2.838 2.528-2.838zm.359 1.229c-.749 0-1.459.56-1.459 1.609s.71 1.648 1.459 1.648c.771 0 1.47-.579 1.47-1.629s-.699-1.628-1.47-1.628zM373.303 90.488c0-.459.359-.819.859-.819.489 0 .859.36.859.819 0 .46-.37.82-.859.82-.5 0-.859-.36-.859-.82zm.149 1.479h1.399v5.537h-1.399v-5.537zM380.111 94.446c0-.89-.489-1.369-1.229-1.369-.76 0-1.249.479-1.249 1.369v3.059h-1.399v-5.537h1.399v.689c.359-.47.959-.77 1.669-.77 1.289 0 2.209.84 2.209 2.369v3.248h-1.399v-3.058zM385.012 91.878c.869 0 1.499.399 1.829.88v-.79h1.409v5.577c0 1.499-.92 2.688-2.738 2.688-1.56 0-2.648-.779-2.789-2.049h1.39c.14.5.659.829 1.359.829.77 0 1.369-.439 1.369-1.469v-.859c-.33.479-.96.909-1.829.909-1.409 0-2.528-1.149-2.528-2.878s1.119-2.838 2.528-2.838zm.359 1.229c-.749 0-1.459.56-1.459 1.609s.71 1.648 1.459 1.648c.771 0 1.47-.579 1.47-1.629s-.699-1.628-1.47-1.628zM395.232 91.878c1.419 0 2.528 1.109 2.528 2.839 0 1.729-1.109 2.878-2.528 2.878-.87 0-1.489-.399-1.829-.88v.79h-1.399v-7.396h1.399v2.668c.339-.51.989-.899 1.829-.899zm-.37 1.229c-.749 0-1.459.579-1.459 1.629s.71 1.629 1.459 1.629c.76 0 1.47-.6 1.47-1.648-.001-1.05-.711-1.61-1.47-1.61zM400.952 91.878c.89 0 1.499.42 1.829.88v-.79h1.409v5.537h-1.409v-.81c-.33.479-.96.899-1.839.899-1.399 0-2.519-1.149-2.519-2.878.001-1.729 1.12-2.838 2.529-2.838zm.36 1.229c-.749 0-1.459.56-1.459 1.609s.71 1.648 1.459 1.648c.771 0 1.47-.579 1.47-1.629s-.7-1.628-1.47-1.628zM406.963 97.504h-1.399v-5.537h1.399v.859c.35-.569.93-.939 1.699-.939v1.47h-.37c-.829 0-1.329.319-1.329 1.389v2.758z"/><polygon points="418.3,112.381 306.67,112.381 306.67,98.281 296.315,93.444 306.67,88.813 306.67,75.926 418.275,75.926" style="fill:none;stroke:#fff;stroke-miterlimit:10"/></svg>