<svg xmlns="http://www.w3.org/2000/svg" width="1034" height="500"><g fill="none" font-family="sans-serif" font-size="10" text-anchor="end"><path stroke="currentColor" d="M40 470.5h1034M40 425.5h1034M40 380.5h1034M40 335.5h1034M40 290.5h1034M40 245.5h1034M40 200.5h1034M40 155.5h1034M40 110.5h1034M40 65.5h1034M40 20.5h1034" class="tick"/></g><g fill="#999"><path fill="#4682b4" d="M10 20h60-60Z"/><path d="M156.908 42.5h56.1L195.438 65h-20.96ZM455.075 155h39.6l-13.8 90h-12Z"/><path fill="#4682b4" d="M536.583 56h21.542l12.677 45h-46.896Z"/><path d="M554.178 119h44.336l-14.248 36h-15.84ZM672.513 155h39.6l-13.292 63h-13.017ZM895.7 267.5h28.1l-9.23 58.5h-9.64Z"/></g><g fill="#999" stroke="#fff"><circle cx="184.958" cy="42.5" r="28.05"/><circle cx="474.875" cy="155" r="19.8"/><circle cx="547.354" cy="101" r="23.448"/><circle cx="576.346" cy="119" r="22.168"/><circle cx="692.313" cy="155" r="19.8"/><circle cx="909.75" cy="267.5" r="14.05"/></g><g fill="#4682b4" stroke="#fff"><circle cx="184.958" cy="65" r="10.48"/><circle cx="474.875" cy="245" r="6"/><circle cx="547.354" cy="56" r="10.771"/><circle cx="576.346" cy="155" r="7.92"/><circle cx="692.313" cy="218" r="6.509"/><circle cx="909.75" cy="326" r="4.819"/></g><g fill="#fff" stroke="#fff"><circle cx="40" cy="20" r="1"/><circle cx="184.958" cy="65" r="1"/><circle cx="474.875" cy="245" r="1"/><circle cx="547.354" cy="56" r="1"/><circle cx="576.346" cy="155" r="1"/><circle cx="692.313" cy="218" r="1"/><circle cx="909.75" cy="326" r="1"/></g><g fill="none" font-family="sans-serif" font-size="10" text-anchor="middle"><path stroke="currentColor" d="M40.5 470.5h994" class="domain"/><g class="tick"><path stroke="currentColor" d="M40.5 470v6"/><text y="9" fill="currentColor" dy=".71em" transform="translate(40.5 470)">0</text></g><g class="tick"><path stroke="currentColor" d="M112.98 470v6"/><text y="9" fill="currentColor" dy=".71em" transform="translate(112.98 470)">5</text></g><g class="tick"><path stroke="currentColor" d="M185.458 470v6"/><text y="9" fill="currentColor" dy=".71em" transform="translate(185.458 470)">10</text></g><g class="tick"><path stroke="currentColor" d="M257.938 470v6"/><text y="9" fill="currentColor" dy=".71em" transform="translate(257.938 470)">15</text></g><g class="tick"><path stroke="currentColor" d="M330.417 470v6"/><text y="9" fill="currentColor" dy=".71em" transform="translate(330.417 470)">20</text></g><g class="tick"><path stroke="currentColor" d="M402.896 470v6"/><text y="9" fill="currentColor" dy=".71em" transform="translate(402.896 470)">25</text></g><g class="tick"><path stroke="currentColor" d="M475.375 470v6"/><text y="9" fill="currentColor" dy=".71em" transform="translate(475.375 470)">30</text></g><g class="tick"><path stroke="currentColor" d="M547.854 470v6"/><text y="9" fill="currentColor" dy=".71em" transform="translate(547.854 470)">35</text></g><g class="tick"><path stroke="currentColor" d="M620.333 470v6"/><text y="9" fill="currentColor" dy=".71em" transform="translate(620.333 470)">40</text></g><g class="tick"><path stroke="currentColor" d="M692.813 470v6"/><text y="9" fill="currentColor" dy=".71em" transform="translate(692.813 470)">45</text></g><g class="tick"><path stroke="currentColor" d="M765.292 470v6"/><text y="9" fill="currentColor" dy=".71em" transform="translate(765.292 470)">50</text></g><g class="tick"><path stroke="currentColor" d="M837.77 470v6"/><text y="9" fill="currentColor" dy=".71em" transform="translate(837.77 470)">55</text></g><g class="tick"><path stroke="currentColor" d="M910.25 470v6"/><text y="9" fill="currentColor" dy=".71em" transform="translate(910.25 470)">60</text></g><g class="tick"><path stroke="currentColor" d="M982.73 470v6"/><text y="9" fill="currentColor" dy=".71em" transform="translate(982.73 470)">65</text></g></g><g fill="none" font-family="sans-serif" font-size="10" text-anchor="end"><g class="tick"><path stroke="currentColor" d="M40 470.5h-6"/><text x="-9" fill="currentColor" dy=".32em" transform="translate(40 470.5)">0.0</text></g><g class="tick"><path stroke="currentColor" d="M40 425.5h-6"/><text x="-9" fill="currentColor" dy=".32em" transform="translate(40 425.5)">0.1</text></g><g class="tick"><path stroke="currentColor" d="M40 380.5h-6"/><text x="-9" fill="currentColor" dy=".32em" transform="translate(40 380.5)">0.2</text></g><g class="tick"><path stroke="currentColor" d="M40 335.5h-6"/><text x="-9" fill="currentColor" dy=".32em" transform="translate(40 335.5)">0.3</text></g><g class="tick"><path stroke="currentColor" d="M40 290.5h-6"/><text x="-9" fill="currentColor" dy=".32em" transform="translate(40 290.5)">0.4</text></g><g class="tick"><path stroke="currentColor" d="M40 245.5h-6"/><text x="-9" fill="currentColor" dy=".32em" transform="translate(40 245.5)">0.5</text></g><g class="tick"><path stroke="currentColor" d="M40 200.5h-6"/><text x="-9" fill="currentColor" dy=".32em" transform="translate(40 200.5)">0.6</text></g><g class="tick"><path stroke="currentColor" d="M40 155.5h-6"/><text x="-9" fill="currentColor" dy=".32em" transform="translate(40 155.5)">0.7</text></g><g class="tick"><path stroke="currentColor" d="M40 110.5h-6"/><text x="-9" fill="currentColor" dy=".32em" transform="translate(40 110.5)">0.8</text></g><g class="tick"><path stroke="currentColor" d="M40 65.5h-6"/><text x="-9" fill="currentColor" dy=".32em" transform="translate(40 65.5)">0.9</text></g><g class="tick"><path stroke="currentColor" d="M40 20.5h-6"/><text x="-9" fill="currentColor" dy=".32em" transform="translate(40 20.5)">1.0</text></g></g></svg>