<svg xmlns="http://www.w3.org/2000/svg" width="520" height="500" tabindex="2"><g><path class="cheat" transform="translate(40 20)" d="M0,460L101.19507209019616,444.6366847581796L134.73130213371212,323.48387082955776L165.95452874152687,199.69703624423778L111.06016220639714,172.04139405772042L123.97851243651434,140.60786433721063L129.6938995184604,194.7494475054956L156.51975656510172,150.35827391147131L164.85330489977957,105.54223415139978L203.58921671018936,82.1325307936213L223.68625619373518,78.20727211151075L305.20115977936524,0L365.22231108625317,25.787750165767648L400.6419519886499,27.120989053174867L394.4082369223143,31.037623203693215L364.8542646973764,61.91631192567576L289.9297413711547,186.34098523951099L292.52495591874043,297.3034635177855L262.5200933243464,382.8183492605713L192.86935175281502,402.78726164847717L189.3672531613725,368.5829235585973L162.86385694316778,364.748807898263L170.52538953091505,417.91856146202775L160.5899312805917,381.0758083452548L178.05511481736005,351.8423918147379L192.06245945477366,319.59423563953817L235.55795854733387,265.3244045084581L254.462293897156,312.5930302685896L284.8270752479693,285.21723467706573L315.0440582813653,246.65316909416774L399.6288148236684,224.62280713595703L443.3831297606297,203.9264756586474L460,205.8446164636787" style="display: inline;"></path><g class="axis1" transform="translate(40 480)"><g class="tick" transform="translate(34.62361451499989,0)" style="opacity: 1;"><line y2="6" x2="0"></line><text y="9" x="0" dy=".71em" style="text-anchor: middle;">150</text></g><g class="tick" transform="translate(100.68581444585718,0)" style="opacity: 1;"><line y2="6" x2="0"></line><text y="9" x="0" dy=".71em" style="text-anchor: middle;">160</text></g><g class="tick" transform="translate(166.74801437671448,0)" style="opacity: 1;"><line y2="6" x2="0"></line><text y="9" x="0" dy=".71em" style="text-anchor: middle;">170</text></g><g class="tick" transform="translate(232.81021430757178,0)" style="opacity: 1;"><line y2="6" x2="0"></line><text y="9" x="0" dy=".71em" style="text-anchor: middle;">180</text></g><g class="tick" transform="translate(298.87241423842903,0)" style="opacity: 1;"><line y2="6" x2="0"></line><text y="9" x="0" dy=".71em" style="text-anchor: middle;">190</text></g><g class="tick" transform="translate(364.9346141692863,0)" style="opacity: 1;"><line y2="6" x2="0"></line><text y="9" x="0" dy=".71em" style="text-anchor: middle;">200</text></g><g class="tick" transform="translate(430.99681410014364,0)" style="opacity: 1;"><line y2="6" x2="0"></line><text y="9" x="0" dy=".71em" style="text-anchor: middle;">210</text></g><path class="domain" d="M0,6V0H460V6"></path></g><g class="axislabel" transform="translate(500 475)"><text class="axis1" x="0" y="0" text-anchor="end"></text></g><g class="axis2" transform="translate(40 20)"><g class="tick" transform="translate(0,431.7962404512362)" style="opacity: 1;"><line x2="-6" y2="0"></line><text x="-9" y="0" dy=".32em" style="text-anchor: end;">200</text></g><g class="tick" transform="translate(0,387.17428477979666)" style="opacity: 1;"><line x2="-6" y2="0"></line><text x="-9" y="0" dy=".32em" style="text-anchor: end;">205</text></g><g class="tick" transform="translate(0,342.5523291083572)" style="opacity: 1;"><line x2="-6" y2="0"></line><text x="-9" y="0" dy=".32em" style="text-anchor: end;">210</text></g><g class="tick" transform="translate(0,297.93037343691765)" style="opacity: 1;"><line x2="-6" y2="0"></line><text x="-9" y="0" dy=".32em" style="text-anchor: end;">215</text></g><g class="tick" transform="translate(0,253.3084177654781)" style="opacity: 1;"><line x2="-6" y2="0"></line><text x="-9" y="0" dy=".32em" style="text-anchor: end;">220</text></g><g class="tick" transform="translate(0,208.68646209403857)" style="opacity: 1;"><line x2="-6" y2="0"></line><text x="-9" y="0" dy=".32em" style="text-anchor: end;">225</text></g><g class="tick" transform="translate(0,164.0645064225991)" style="opacity: 1;"><line x2="-6" y2="0"></line><text x="-9" y="0" dy=".32em" style="text-anchor: end;">230</text></g><g class="tick" transform="translate(0,119.4425507511595)" style="opacity: 1;"><line x2="-6" y2="0"></line><text x="-9" y="0" dy=".32em" style="text-anchor: end;">235</text></g><g class="tick" transform="translate(0,74.82059507972002)" style="opacity: 1;"><line x2="-6" y2="0"></line><text x="-9" y="0" dy=".32em" style="text-anchor: end;">240</text></g><g class="tick" transform="translate(0,30.198639408280485)" style="opacity: 1;"><line x2="-6" y2="0"></line><text x="-9" y="0" dy=".32em" style="text-anchor: end;">245</text></g><path class="domain" d="M-6,0H0V460H-6"></path></g><g class="axislabel" transform="translate(56 20) rotate(-90)"><text class="axis2" x="0" y="0" text-anchor="end"></text></g></g><g transform="translate(40 20)"><defs><marker id="arrow" viewBox="0,0,10,6" refX="10" refY="3" markerUnits="strokeWidth" markerWidth="12" markerHeight="8" orient="auto" stroke="white" stroke-width="0.5" fill="purple"><polygon points="0,0 10,3 0,6"></polygon></marker></defs><rect width="460" height="460"></rect><path d="M0,460L101.19507209019616,444.6366847581796L134.73130213371212,323.48387082955776L165.95452874152687,199.69703624423778L111.06016220639714,172.04139405772042L123.97851243651434,140.60786433721063L129.6938995184604,194.7494475054956L156.51975656510172,150.35827391147131L164.85330489977957,105.54223415139978L203.58921671018936,82.1325307936213L223.68625619373518,78.20727211151075L305.20115977936524,0L365.22231108625317,25.787750165767648L400.6419519886499,27.120989053174867L394.4082369223143,31.037623203693215L364.8542646973764,61.91631192567576L289.9297413711547,186.34098523951099L292.52495591874043,297.3034635177855L262.5200933243464,382.8183492605713L192.86935175281502,402.78726164847717L189.3672531613725,368.5829235585973L162.86385694316778,364.748807898263L170.52538953091505,417.91856146202775L160.5899312805917,381.0758083452548L178.05511481736005,351.8423918147379L192.06245945477366,319.59423563953817L235.55795854733387,265.3244045084581L254.462293897156,312.5930302685896L284.8270752479693,285.21723467706573L315.0440582813653,246.65316909416774L399.6288148236684,224.62280713595703L443.3831297606297,203.9264756586474L460,205.8446164636787" class="line"></path><circle r="3" fill-opacity="1" stroke-opacity="1" cx="0" cy="460"></circle><circle r="3" fill-opacity="1" stroke-opacity="1" cx="101.19507209019616" cy="444.6366847581796"></circle><circle r="3" fill-opacity="1" stroke-opacity="1" cx="134.73130213371212" cy="323.48387082955776"></circle><circle r="3" fill-opacity="1" stroke-opacity="1" cx="165.95452874152687" cy="199.69703624423778"></circle><circle r="3" fill-opacity="1" stroke-opacity="1" cx="111.06016220639714" cy="172.04139405772042"></circle><circle r="3" fill-opacity="1" stroke-opacity="1" cx="123.97851243651434" cy="140.60786433721063"></circle><circle r="3" fill-opacity="1" stroke-opacity="1" cx="129.6938995184604" cy="194.7494475054956"></circle><circle r="3" fill-opacity="1" stroke-opacity="1" cx="156.51975656510172" cy="150.35827391147131"></circle><circle r="3" fill-opacity="1" stroke-opacity="1" cx="164.85330489977957" cy="105.54223415139978"></circle><circle r="3" fill-opacity="1" stroke-opacity="1" cx="203.58921671018936" cy="82.1325307936213"></circle><circle r="3" fill-opacity="1" stroke-opacity="1" cx="223.68625619373518" cy="78.20727211151075"></circle><circle r="3" fill-opacity="1" stroke-opacity="1" cx="305.20115977936524" cy="0"></circle><circle r="3" fill-opacity="1" stroke-opacity="1" cx="365.22231108625317" cy="25.787750165767648"></circle><circle r="3" fill-opacity="1" stroke-opacity="1" cx="400.6419519886499" cy="27.120989053174867"></circle><circle r="3" fill-opacity="1" stroke-opacity="1" cx="394.4082369223143" cy="31.037623203693215"></circle><circle r="3" fill-opacity="1" stroke-opacity="1" cx="364.8542646973764" cy="61.91631192567576"></circle><circle r="3" fill-opacity="1" stroke-opacity="1" cx="289.9297413711547" cy="186.34098523951099"></circle><circle r="3" fill-opacity="1" stroke-opacity="1" cx="292.52495591874043" cy="297.3034635177855"></circle><circle r="3" fill-opacity="1" stroke-opacity="1" cx="262.5200933243464" cy="382.8183492605713"></circle><circle r="3" fill-opacity="1" stroke-opacity="1" cx="192.86935175281502" cy="402.78726164847717"></circle><circle r="3" fill-opacity="1" stroke-opacity="1" cx="189.3672531613725" cy="368.5829235585973"></circle><circle r="3" fill-opacity="1" stroke-opacity="1" cx="162.86385694316778" cy="364.748807898263"></circle><circle r="3" fill-opacity="1" stroke-opacity="1" cx="170.52538953091505" cy="417.91856146202775"></circle><circle r="3" fill-opacity="1" stroke-opacity="1" cx="160.5899312805917" cy="381.0758083452548"></circle><circle r="3" fill-opacity="1" stroke-opacity="1" cx="178.05511481736005" cy="351.8423918147379"></circle><circle r="3" fill-opacity="1" stroke-opacity="1" cx="192.06245945477366" cy="319.59423563953817"></circle><circle r="3" fill-opacity="1" stroke-opacity="1" cx="235.55795854733387" cy="265.3244045084581"></circle><circle r="3" fill-opacity="1" stroke-opacity="1" cx="254.462293897156" cy="312.5930302685896"></circle><circle r="3" fill-opacity="1" stroke-opacity="1" cx="284.8270752479693" cy="285.21723467706573"></circle><circle r="3" fill-opacity="1" stroke-opacity="1" cx="315.0440582813653" cy="246.65316909416774"></circle><circle r="3" fill-opacity="1" stroke-opacity="1" cx="399.6288148236684" cy="224.62280713595703"></circle><circle r="3" fill-opacity="1" stroke-opacity="1" cx="443.3831297606297" cy="203.9264756586474"></circle><circle r="3" fill-opacity="1" stroke-opacity="1" cx="460" cy="205.8446164636787"></circle><text x="0" y="472"></text><text x="101.19507209019616" y="456.6366847581796">1875</text><text x="134.73130213371212" y="335.48387082955776"></text><text x="165.95452874152687" y="211.69703624423778"></text><text x="111.06016220639714" y="184.04139405772042"></text><text x="123.97851243651434" y="152.60786433721063"></text><text x="129.6938995184604" y="206.7494475054956">1880</text><text x="156.51975656510172" y="162.35827391147131"></text><text x="164.85330489977957" y="117.54223415139978"></text><text x="203.58921671018936" y="94.1325307936213"></text><text x="223.68625619373518" y="90.20727211151075"></text><text x="305.20115977936524" y="12">1885</text><text x="365.22231108625317" y="37.78775016576765"></text><text x="400.6419519886499" y="39.12098905317487"></text><text x="394.4082369223143" y="43.037623203693215"></text><text x="364.8542646973764" y="73.91631192567576"></text><text x="289.9297413711547" y="198.34098523951099">1890</text><text x="292.52495591874043" y="309.3034635177855"></text><text x="262.5200933243464" y="394.8183492605713"></text><text x="192.86935175281502" y="414.78726164847717"></text><text x="189.3672531613725" y="380.5829235585973"></text><text x="162.86385694316778" y="376.748807898263">1895</text><text x="170.52538953091505" y="429.91856146202775"></text><text x="160.5899312805917" y="393.0758083452548"></text><text x="178.05511481736005" y="363.8423918147379"></text><text x="192.06245945477366" y="331.59423563953817"></text><text x="235.55795854733387" y="277.3244045084581">1900</text><text x="254.462293897156" y="324.5930302685896"></text><text x="284.8270752479693" y="297.21723467706573"></text><text x="315.0440582813653" y="258.65316909416777"></text><text x="399.6288148236684" y="236.62280713595703"></text><text x="443.3831297606297" y="215.9264756586474">1905</text><text x="460" y="217.8446164636787"></text></g></svg>