<svg viewBox="0,0,1152,271" xmlns="http://www.w3.org/2000/svg" xmlns:xlink="http://www.w3.org/1999/xlink"><g><g fill="#fee08b"><rect x="601" y="76" width="0" height="30"><title>ALD
NaN% MR50-25</title></rect><rect x="601" y="172" width="0" height="30"><title>DSM
NaN% MR50-25</title></rect><rect x="601" y="140" width="0" height="30"><title>FEP
NaN% MR50-25</title></rect><rect x="601" y="204" width="0" height="30"><title>ETCH
NaN% MR50-25</title></rect><rect x="570" y="108" width="31" height="30"><title>CMP
6% MR50-25</title></rect><rect x="497" y="44" width="104" height="30"><title>SRP
20% MR50-25</title></rect><rect x="601" y="236" width="0" height="30"><title>MDP
NaN% MR50-25</title></rect></g><g fill="#fdae61"><rect x="601" y="76" width="0" height="30"><title>ALD
NaN% MR70-50</title></rect><rect x="601" y="172" width="0" height="30"><title>DSM
NaN% MR70-50</title></rect><rect x="601" y="140" width="0" height="30"><title>FEP
NaN% MR70-50</title></rect><rect x="601" y="204" width="0" height="30"><title>ETCH
NaN% MR70-50</title></rect><rect x="601" y="108" width="0" height="30"><title>CMP
NaN% MR70-50</title></rect><rect x="184" y="44" width="313" height="30"><title>SRP
60% MR70-50</title></rect><rect x="601" y="236" width="0" height="30"><title>MDP
NaN% MR70-50</title></rect></g><g fill="#f46d43"><rect x="379" y="76" width="222" height="30"><title>ALD
43% MR90-70</title></rect><rect x="562" y="172" width="39" height="30"><title>DSM
8% MR90-70</title></rect><rect x="529" y="140" width="72" height="30"><title>FEP
14% MR90-70</title></rect><rect x="562" y="204" width="39" height="30"><title>ETCH
7% MR90-70</title></rect><rect x="417" y="108" width="153" height="30"><title>CMP
29% MR90-70</title></rect><rect x="149" y="44" width="35" height="30"><title>SRP
7% MR90-70</title></rect><rect x="601" y="236" width="0" height="30"><title>MDP
NaN% MR90-70</title></rect></g><g fill="#d53e4f"><rect x="298" y="76" width="81" height="30"><title>ALD
16% MR&gt;90</title></rect><rect x="601" y="172" width="0" height="30"><title>DSM
NaN% MR&gt;90</title></rect><rect x="514" y="140" width="15" height="30"><title>FEP
3% MR&gt;90</title></rect><rect x="601" y="204" width="0" height="30"><title>ETCH
NaN% MR&gt;90</title></rect><rect x="601" y="108" width="0" height="30"><title>CMP
NaN% MR&gt;90</title></rect><rect x="80" y="44" width="69" height="30"><title>SRP
13% MR&gt;90</title></rect><rect x="601" y="236" width="0" height="30"><title>MDP
NaN% MR&gt;90</title></rect></g><g fill="#e6f598"><rect x="601" y="76" width="109" height="30"><title>ALD
21% BC&gt;90</title></rect><rect x="601" y="172" width="52" height="30"><title>DSM
10% BC&gt;90</title></rect><rect x="601" y="140" width="174" height="30"><title>FEP
33% BC&gt;90</title></rect><rect x="601" y="204" width="77" height="30"><title>ETCH
15% BC&gt;90</title></rect><rect x="601" y="108" width="123" height="30"><title>CMP
24% BC&gt;90</title></rect><rect x="601" y="44" width="0" height="30"><title>SRP
NaN% BC&gt;90</title></rect><rect x="601" y="236" width="47" height="30"><title>MDP
9% BC&gt;90</title></rect></g><g fill="#abdda4"><rect x="710" y="76" width="61" height="30"><title>ALD
12% BC90-70</title></rect><rect x="653" y="172" width="195" height="30"><title>DSM
38% BC90-70</title></rect><rect x="775" y="140" width="72" height="30"><title>FEP
14% BC90-70</title></rect><rect x="678" y="204" width="135" height="30"><title>ETCH
26% BC90-70</title></rect><rect x="724" y="108" width="61" height="30"><title>CMP
12% BC90-70</title></rect><rect x="601" y="44" width="0" height="30"><title>SRP
NaN% BC90-70</title></rect><rect x="648" y="236" width="142" height="30"><title>MDP
27% BC90-70</title></rect></g><g fill="#66c2a5"><rect x="771" y="76" width="28" height="30"><title>ALD
5% BC70-50</title></rect><rect x="848" y="172" width="170" height="30"><title>DSM
33% BC70-50</title></rect><rect x="847" y="140" width="130" height="30"><title>FEP
25% BC70-50</title></rect><rect x="813" y="204" width="135" height="30"><title>ETCH
26% BC70-50</title></rect><rect x="785" y="108" width="153" height="30"><title>CMP
29% BC70-50</title></rect><rect x="601" y="44" width="0" height="30"><title>SRP
NaN% BC70-50</title></rect><rect x="790" y="236" width="190" height="30"><title>MDP
36% BC70-50</title></rect></g><g fill="#3288bd"><rect x="799" y="76" width="20" height="30"><title>ALD
4% BC50-25</title></rect><rect x="1018" y="172" width="65" height="30"><title>DSM
13% BC50-25</title></rect><rect x="977" y="140" width="58" height="30"><title>FEP
11% BC50-25</title></rect><rect x="948" y="204" width="135" height="30"><title>ETCH
26% BC50-25</title></rect><rect x="601" y="108" width="0" height="30"><title>CMP
NaN% BC50-25</title></rect><rect x="601" y="44" width="0" height="30"><title>SRP
NaN% BC50-25</title></rect><rect x="980" y="236" width="142" height="30"><title>MDP
27% BC50-25</title></rect></g></g><g transform="translate(0,40)" fill="none" font-size="10" font-family="sans-serif" text-anchor="middle"><g class="tick" opacity="1" transform="translate(80.5,0)"><line stroke="currentColor" y2="-6"/><text fill="currentColor" y="-9" dy="0em">100%</text></g><g class="tick" opacity="1" transform="translate(132.5,0)"><line stroke="currentColor" y2="-6"/><text fill="currentColor" y="-9" dy="0em">90%</text></g><g class="tick" opacity="1" transform="translate(184.5,0)"><line stroke="currentColor" y2="-6"/><text fill="currentColor" y="-9" dy="0em">80%</text></g><g class="tick" opacity="1" transform="translate(236.5,0)"><line stroke="currentColor" y2="-6"/><text fill="currentColor" y="-9" dy="0em">70%</text></g><g class="tick" opacity="1" transform="translate(288.5,0)"><line stroke="currentColor" y2="-6"/><text fill="currentColor" y="-9" dy="0em">60%</text></g><g class="tick" opacity="1" transform="translate(341.5,0)"><line stroke="currentColor" y2="-6"/><text fill="currentColor" y="-9" dy="0em">50%</text></g><g class="tick" opacity="1" transform="translate(393.5,0)"><line stroke="currentColor" y2="-6"/><text fill="currentColor" y="-9" dy="0em">40%</text></g><g class="tick" opacity="1" transform="translate(445.5,0)"><line stroke="currentColor" y2="-6"/><text fill="currentColor" y="-9" dy="0em">30%</text></g><g class="tick" opacity="1" transform="translate(497.5,0)"><line stroke="currentColor" y2="-6"/><text fill="currentColor" y="-9" dy="0em">20%</text></g><g class="tick" opacity="1" transform="translate(549.5,0)"><line stroke="currentColor" y2="-6"/><text fill="currentColor" y="-9" dy="0em">10%</text></g><g class="tick" opacity="1" transform="translate(601.5,0)"><line stroke="currentColor" y2="-6"/><text fill="currentColor" y="-9" dy="0em">0%</text></g><g class="tick" opacity="1" transform="translate(653.5,0)"><line stroke="currentColor" y2="-6"/><text fill="currentColor" y="-9" dy="0em">10%</text></g><g class="tick" opacity="1" transform="translate(705.5,0)"><line stroke="currentColor" y2="-6"/><text fill="currentColor" y="-9" dy="0em">20%</text></g><g class="tick" opacity="1" transform="translate(757.5,0)"><line stroke="currentColor" y2="-6"/><text fill="currentColor" y="-9" dy="0em">30%</text></g><g class="tick" opacity="1" transform="translate(809.5,0)"><line stroke="currentColor" y2="-6"/><text fill="currentColor" y="-9" dy="0em">40%</text></g><g class="tick" opacity="1" transform="translate(862.5,0)"><line stroke="currentColor" y2="-6"/><text fill="currentColor" y="-9" dy="0em">50%</text></g><g class="tick" opacity="1" transform="translate(914.5,0)"><line stroke="currentColor" y2="-6"/><text fill="currentColor" y="-9" dy="0em">60%</text></g><g class="tick" opacity="1" transform="translate(966.5,0)"><line stroke="currentColor" y2="-6"/><text fill="currentColor" y="-9" dy="0em">70%</text></g><g class="tick" opacity="1" transform="translate(1018.5,0)"><line stroke="currentColor" y2="-6"/><text fill="currentColor" y="-9" dy="0em">80%</text></g><g class="tick" opacity="1" transform="translate(1070.5,0)"><line stroke="currentColor" y2="-6"/><text fill="currentColor" y="-9" dy="0em">90%</text></g><g class="tick" opacity="1" transform="translate(1122.5,0)"><line stroke="currentColor" y2="-6"/><text fill="currentColor" y="-9" dy="0em">100%</text></g><text x="621" y="-24" fill="currentColor" text-anchor="start">Build Completion% →</text><text x="581" y="-24" fill="currentColor" text-anchor="end">← Material Risk%</text></g><g fill="none" font-size="10" font-family="sans-serif" text-anchor="end"><path class="domain" stroke="currentColor" d="M0.5,40.5V271.5" transform="translate(601,0)"/><g class="tick" opacity="1" transform="translate(80,59)"><line stroke="currentColor" x2="-6"/><text fill="currentColor" x="-9" dy="0.32em">SRP</text></g><g class="tick" opacity="1" transform="translate(298,91)"><line stroke="currentColor" x2="-6"/><text fill="currentColor" x="-9" dy="0.32em">ALD</text></g><g class="tick" opacity="1" transform="translate(417,123)"><line stroke="currentColor" x2="-6"/><text fill="currentColor" x="-9" dy="0.32em">CMP</text></g><g class="tick" opacity="1" transform="translate(514,155)"><line stroke="currentColor" x2="-6"/><text fill="currentColor" x="-9" dy="0.32em">FEP</text></g><g class="tick" opacity="1" transform="translate(562,187)"><line stroke="currentColor" x2="-6"/><text fill="currentColor" x="-9" dy="0.32em">DSM</text></g><g class="tick" opacity="1" transform="translate(562,219)"><line stroke="currentColor" x2="-6"/><text fill="currentColor" x="-9" dy="0.32em">ETCH</text></g><g class="tick" opacity="1" transform="translate(601,251)"><line stroke="currentColor" x2="-6"/><text fill="currentColor" x="-9" dy="0.32em">MDP</text></g></g></svg>