<svg xmlns="http://www.w3.org/2000/svg" width="600" height="400" class="main-svg" style="background:#fff"><g stroke-linejoin="round" class="pielayer"><g class="trace" style="opacity:1"><g class="slice"><path d="M204.292 246.528a41.684 41.684 0 0 0-20.081-78.212v-62.527a104.21 104.21 0 0 1 50.203 195.531Z" class="surface" style="pointer-events:all;stroke-width:0;fill:#1f77b4;fill-opacity:1;stroke:#444;stroke-opacity:1"/><g class="slicetext"><text class="slicetext" data-math="N" data-notex="1" data-unformatted="42%" style="font-family:&quot;Open Sans&quot;,verdana,arial,sans-serif;font-size:12px;fill:#fff;fill-opacity:1;white-space:pre" text-anchor="middle" transform="translate(254.866 195.859)">42%</text></g></g><g class="slice"><path d="M184.21 168.316a41.684 41.684 0 0 0-35.195 19.348l-52.792-33.503a104.21 104.21 0 0 1 87.988-48.372Z" class="surface" style="pointer-events:all;stroke-width:0;fill:#ff7f0e;fill-opacity:1;stroke:#444;stroke-opacity:1"/><g class="slicetext"><text class="slicetext" data-math="N" data-notex="1" data-unformatted="16%" style="font-family:&quot;Open Sans&quot;,verdana,arial,sans-serif;font-size:12px;fill:#444;fill-opacity:1;white-space:pre" text-anchor="middle" transform="translate(149.068 150.076)">16%</text></g></g><g class="slice"><path d="M149.015 187.664a41.684 41.684 0 0 0-3.561 37.681l-58.136 23.017a104.21 104.21 0 0 1 8.905-94.2Z" class="surface" style="pointer-events:all;stroke-width:0;fill:#2ca02c;fill-opacity:1;stroke:#444;stroke-opacity:1"/><g class="slicetext"><text class="slicetext" data-math="N" data-notex="1" data-unformatted="15%" style="font-family:&quot;Open Sans&quot;,verdana,arial,sans-serif;font-size:12px;fill:#fff;fill-opacity:1;white-space:pre" text-anchor="middle" transform="translate(111.587 207.135)">15%</text></g></g><g class="slice"><path d="M145.454 225.345a41.684 41.684 0 0 0 21.008 22.372l-26.622 56.576a104.21 104.21 0 0 1-52.522-55.93Z" class="surface" style="pointer-events:all;stroke-width:0;fill:#d62728;fill-opacity:1;stroke:#444;stroke-opacity:1"/><g class="slicetext"><text class="slicetext" data-math="N" data-notex="1" data-unformatted="12%" style="font-family:&quot;Open Sans&quot;,verdana,arial,sans-serif;font-size:12px;fill:#fff;fill-opacity:1;white-space:pre" text-anchor="middle" transform="translate(128.685 266.142)">12%</text></g></g><g class="slice"><path d="M166.462 247.717a41.684 41.684 0 0 0 15.131 3.885l-3.926 62.403a104.21 104.21 0 0 1-37.827-9.712Z" class="surface" style="pointer-events:all;stroke-width:0;fill:#9467bd;fill-opacity:1;stroke:#444;stroke-opacity:1"/><g class="slicetext"><text class="slicetext" data-math="N" data-notex="1" data-unformatted="6%" style="font-family:&quot;Open Sans&quot;,verdana,arial,sans-serif;font-size:12px;fill:#fff;fill-opacity:1;white-space:pre" text-anchor="middle" transform="translate(162.384 299.008)">6%</text></g></g><g class="slice"><path d="M181.593 251.602a41.684 41.684 0 0 0 12.984-1.227l15.55 60.562a104.21 104.21 0 0 1-32.46 3.068Z" class="surface" style="pointer-events:all;stroke-width:0;fill:#8c564b;fill-opacity:1;stroke:#444;stroke-opacity:1"/><g class="slicetext"><text class="slicetext" data-math="N" data-notex="1" data-unformatted="5%" style="font-family:&quot;Open Sans&quot;,verdana,arial,sans-serif;font-size:12px;fill:#fff;fill-opacity:1;white-space:pre" text-anchor="middle" transform="translate(192.691 303.714)">5%</text></g></g><g class="slice"><path d="M194.577 250.375a41.684 41.684 0 0 0 9.715-3.847l30.122 54.792a104.21 104.21 0 0 1-24.287 9.617Z" class="surface" style="pointer-events:all;stroke-width:0;fill:#e377c2;fill-opacity:1;stroke:#444;stroke-opacity:1"/><g class="slicetext"><text class="slicetext" data-math="N" data-notex="1" data-unformatted="4%" style="font-family:&quot;Open Sans&quot;,verdana,arial,sans-serif;font-size:12px;fill:#444;fill-opacity:1;white-space:pre" text-anchor="middle" transform="translate(218.3 300.101)">4%</text></g></g></g><g class="trace" style="opacity:1"><g class="slice"><path d="M457.145 215.224a41.684 41.684 0 0 0-41.356-46.908v-62.527a104.21 104.21 0 0 1 103.39 117.272Z" class="surface" style="pointer-events:all;stroke-width:0;fill:#ff7f0e;fill-opacity:1;stroke:#444;stroke-opacity:1"/><g class="slicetext"><text class="slicetext" data-math="N" data-notex="1" data-unformatted="27%" style="font-family:&quot;Open Sans&quot;,verdana,arial,sans-serif;font-size:12px;fill:#444;fill-opacity:1;white-space:pre" text-anchor="middle" transform="translate(470.508 165.759)">27%</text></g></g><g class="slice"><path d="M415.79 168.316A41.684 41.684 0 0 0 374.104 210H311.58a104.21 104.21 0 0 1 104.21-104.21Z" class="surface" style="pointer-events:all;stroke-width:0;fill:#d62728;fill-opacity:1;stroke:#444;stroke-opacity:1"/><g class="slicetext"><text class="slicetext" data-math="N" data-notex="1" data-unformatted="25%" style="font-family:&quot;Open Sans&quot;,verdana,arial,sans-serif;font-size:12px;fill:#fff;fill-opacity:1;white-space:pre" text-anchor="middle" transform="translate(364.208 162.418)">25%</text></g></g><g class="slice"><path d="M374.105 210a41.684 41.684 0 0 0 41.684 41.684v62.527A104.21 104.21 0 0 1 311.58 210Z" class="surface" style="pointer-events:all;stroke-width:0;fill:#1f77b4;fill-opacity:1;stroke:#444;stroke-opacity:1"/><g class="slicetext"><text class="slicetext" data-math="N" data-notex="1" data-unformatted="25%" style="font-family:&quot;Open Sans&quot;,verdana,arial,sans-serif;font-size:12px;fill:#fff;fill-opacity:1;white-space:pre" text-anchor="middle" transform="translate(364.208 265.582)">25%</text></g></g><g class="slice"><path d="M415.79 251.684a41.684 41.684 0 0 0 26.57-9.566l39.856 48.178a104.21 104.21 0 0 1-66.427 23.915Z" class="surface" style="pointer-events:all;stroke-width:0;fill:#2ca02c;fill-opacity:1;stroke:#444;stroke-opacity:1"/><g class="slicetext"><text class="slicetext" data-math="N" data-notex="1" data-unformatted="11%" style="font-family:&quot;Open Sans&quot;,verdana,arial,sans-serif;font-size:12px;fill:#fff;fill-opacity:1;white-space:pre" text-anchor="middle" transform="translate(442.158 287.24)">11%</text></g></g><g class="slice"><path d="M442.36 242.118a41.684 41.684 0 0 0 12.186-16.773l58.136 23.017a104.21 104.21 0 0 1-30.466 41.934Z" class="surface" style="pointer-events:all;stroke-width:0;fill:#9467bd;fill-opacity:1;stroke:#444;stroke-opacity:1"/><g class="slicetext"><text class="slicetext" data-math="N" data-notex="1" data-unformatted="8%" style="font-family:&quot;Open Sans&quot;,verdana,arial,sans-serif;font-size:12px;fill:#fff;fill-opacity:1;white-space:pre" text-anchor="middle" transform="translate(483.307 263.054)">8%</text></g></g><g class="slice"><path d="M454.546 225.345a41.684 41.684 0 0 0 2.19-7.534l61.418 11.716a104.21 104.21 0 0 1-5.472 18.835Z" class="surface" style="pointer-events:all;stroke-width:0;fill:#e377c2;fill-opacity:1;stroke:#444;stroke-opacity:1"/><g class="slicetext"><text class="slicetext" data-math="N" data-notex="1" data-unformatted="3%" style="font-family:&quot;Open Sans&quot;,verdana,arial,sans-serif;font-size:12px;fill:#444;fill-opacity:1;white-space:pre" text-anchor="middle" transform="rotate(16.2 -590.95 1894.152)">3%</text></g></g><g class="slice"><path d="M456.735 217.81a41.684 41.684 0 0 0 .41-2.586l62.033 7.837a104.21 104.21 0 0 1-1.024 6.466Z" class="surface" style="pointer-events:all;stroke-width:0;fill:#8c564b;fill-opacity:1;stroke:#444;stroke-opacity:1"/><g class="slicetext"><text class="slicetext" data-math="N" data-notex="1" data-unformatted="1%" style="font-family:&quot;Open Sans&quot;,verdana,arial,sans-serif;font-size:12px;fill:#fff;fill-opacity:1;white-space:pre" text-anchor="middle" transform="rotate(9.002 -1186.742 3383.658) scale(.40889)">1%</text></g></g></g></g></svg>