<svg width="718" height="308" viewBox="0 0 718 308" fill="none" xmlns="http://www.w3.org/2000/svg">
<path d="M34.3645 206.084C33.6085 206.084 32.9318 205.883 32.3345 205.482C31.7465 205.081 31.2845 204.507 30.9485 203.76C30.6218 203.004 30.4585 202.117 30.4585 201.1C30.4585 200.083 30.6218 199.201 30.9485 198.454C31.2845 197.698 31.7465 197.119 32.3345 196.718C32.9318 196.317 33.6085 196.116 34.3645 196.116C35.1205 196.116 35.7925 196.317 36.3805 196.718C36.9778 197.119 37.4445 197.698 37.7805 198.454C38.1165 199.201 38.2845 200.083 38.2845 201.1C38.2845 202.117 38.1165 203.004 37.7805 203.76C37.4445 204.507 36.9778 205.081 36.3805 205.482C35.7925 205.883 35.1205 206.084 34.3645 206.084ZM34.3645 205.16C34.9338 205.16 35.4331 205.001 35.8625 204.684C36.3011 204.367 36.6418 203.905 36.8845 203.298C37.1271 202.691 37.2485 201.959 37.2485 201.1C37.2485 200.241 37.1271 199.509 36.8845 198.902C36.6418 198.295 36.3011 197.833 35.8625 197.516C35.4331 197.199 34.9338 197.04 34.3645 197.04C33.7951 197.04 33.2911 197.199 32.8525 197.516C32.4231 197.833 32.0871 198.295 31.8445 198.902C31.6018 199.509 31.4805 200.241 31.4805 201.1C31.4805 201.959 31.6018 202.691 31.8445 203.298C32.0871 203.905 32.4231 204.367 32.8525 204.684C33.2911 205.001 33.7951 205.16 34.3645 205.16Z" fill="#38BA9B"/>
<path d="M28.1159 108.2V118H27.1079V109.096H24.7979V108.2H28.1159ZM34.3645 118.084C33.6085 118.084 32.9318 117.883 32.3345 117.482C31.7465 117.081 31.2845 116.507 30.9485 115.76C30.6218 115.004 30.4585 114.117 30.4585 113.1C30.4585 112.083 30.6218 111.201 30.9485 110.454C31.2845 109.698 31.7465 109.119 32.3345 108.718C32.9318 108.317 33.6085 108.116 34.3645 108.116C35.1205 108.116 35.7925 108.317 36.3805 108.718C36.9778 109.119 37.4445 109.698 37.7805 110.454C38.1165 111.201 38.2845 112.083 38.2845 113.1C38.2845 114.117 38.1165 115.004 37.7805 115.76C37.4445 116.507 36.9778 117.081 36.3805 117.482C35.7925 117.883 35.1205 118.084 34.3645 118.084ZM34.3645 117.16C34.9338 117.16 35.4331 117.001 35.8625 116.684C36.3011 116.367 36.6418 115.905 36.8845 115.298C37.1271 114.691 37.2485 113.959 37.2485 113.1C37.2485 112.241 37.1271 111.509 36.8845 110.902C36.6418 110.295 36.3011 109.833 35.8625 109.516C35.4331 109.199 34.9338 109.04 34.3645 109.04C33.7951 109.04 33.2911 109.199 32.8525 109.516C32.4231 109.833 32.0871 110.295 31.8445 110.902C31.6018 111.509 31.4805 112.241 31.4805 113.1C31.4805 113.959 31.6018 114.691 31.8445 115.298C32.0871 115.905 32.4231 116.367 32.8525 116.684C33.2911 117.001 33.7951 117.16 34.3645 117.16Z" fill="#38BA9B"/>
<path d="M29.2481 27.104V28H22.3741V27.286L26.4481 23.296C26.9615 22.792 27.3068 22.358 27.4841 21.994C27.6708 21.6207 27.7641 21.2473 27.7641 20.874C27.7641 20.2953 27.5635 19.8473 27.1621 19.53C26.7701 19.2033 26.2055 19.04 25.4681 19.04C24.3201 19.04 23.4288 19.404 22.7941 20.132L22.0801 19.516C22.4628 19.068 22.9481 18.7227 23.5361 18.48C24.1335 18.2373 24.8055 18.116 25.5521 18.116C26.5508 18.116 27.3395 18.354 27.9181 18.83C28.5061 19.2967 28.8001 19.9407 28.8001 20.762C28.8001 21.266 28.6881 21.7513 28.4641 22.218C28.2401 22.6847 27.8155 23.2213 27.1901 23.828L23.8581 27.104H29.2481ZM34.3645 28.084C33.6085 28.084 32.9318 27.8833 32.3345 27.482C31.7465 27.0807 31.2845 26.5067 30.9485 25.76C30.6218 25.004 30.4585 24.1173 30.4585 23.1C30.4585 22.0827 30.6218 21.2007 30.9485 20.454C31.2845 19.698 31.7465 19.1193 32.3345 18.718C32.9318 18.3167 33.6085 18.116 34.3645 18.116C35.1205 18.116 35.7925 18.3167 36.3805 18.718C36.9778 19.1193 37.4445 19.698 37.7805 20.454C38.1165 21.2007 38.2845 22.0827 38.2845 23.1C38.2845 24.1173 38.1165 25.004 37.7805 25.76C37.4445 26.5067 36.9778 27.0807 36.3805 27.482C35.7925 27.8833 35.1205 28.084 34.3645 28.084ZM34.3645 27.16C34.9338 27.16 35.4331 27.0013 35.8625 26.684C36.3011 26.3667 36.6418 25.9047 36.8845 25.298C37.1271 24.6913 37.2485 23.9587 37.2485 23.1C37.2485 22.2413 37.1271 21.5087 36.8845 20.902C36.6418 20.2953 36.3011 19.8333 35.8625 19.516C35.4331 19.1987 34.9338 19.04 34.3645 19.04C33.7951 19.04 33.2911 19.1987 32.8525 19.516C32.4231 19.8333 32.0871 20.2953 31.8445 20.902C31.6018 21.5087 31.4805 22.2413 31.4805 23.1C31.4805 23.9587 31.6018 24.6913 31.8445 25.298C32.0871 25.9047 32.4231 26.3667 32.8525 26.684C33.2911 27.0013 33.7951 27.16 34.3645 27.16Z" fill="#38BA9B"/>
<path d="M19.9573 249.68C19.3173 249.68 18.724 249.533 18.1773 249.24C17.644 248.933 17.2173 248.52 16.8973 248C16.5907 247.467 16.4373 246.887 16.4373 246.26C16.4373 245.633 16.5907 245.06 16.8973 244.54C17.2173 244.007 17.644 243.587 18.1773 243.28C18.724 242.973 19.3173 242.82 19.9573 242.82C20.5973 242.82 21.184 242.973 21.7173 243.28C22.2507 243.587 22.6707 244.007 22.9773 244.54C23.2973 245.06 23.4573 245.633 23.4573 246.26C23.4573 246.887 23.2973 247.467 22.9773 248C22.6707 248.52 22.2507 248.933 21.7173 249.24C21.184 249.533 20.5973 249.68 19.9573 249.68ZM19.9573 248.14C20.4907 248.14 20.9307 247.96 21.2773 247.6C21.6373 247.24 21.8173 246.793 21.8173 246.26C21.8173 245.727 21.6373 245.28 21.2773 244.92C20.9307 244.56 20.4907 244.38 19.9573 244.38C19.424 244.38 18.9773 244.56 18.6173 244.92C18.2707 245.28 18.0973 245.727 18.0973 246.26C18.0973 246.793 18.2707 247.24 18.6173 247.6C18.9773 247.96 19.424 248.14 19.9573 248.14ZM32.692 257.24C31.2654 257.24 29.972 256.933 28.812 256.32C27.6654 255.693 26.7587 254.833 26.092 253.74C25.4387 252.633 25.112 251.387 25.112 250C25.112 248.613 25.4387 247.373 26.092 246.28C26.7587 245.173 27.6654 244.313 28.812 243.7C29.972 243.073 31.272 242.76 32.712 242.76C33.9254 242.76 35.0187 242.973 35.992 243.4C36.9787 243.827 37.8054 244.44 38.472 245.24L36.392 247.16C35.4454 246.067 34.272 245.52 32.872 245.52C32.0054 245.52 31.232 245.713 30.552 246.1C29.872 246.473 29.3387 247 28.952 247.68C28.5787 248.36 28.392 249.133 28.392 250C28.392 250.867 28.5787 251.64 28.952 252.32C29.3387 253 29.872 253.533 30.552 253.92C31.232 254.293 32.0054 254.48 32.872 254.48C34.272 254.48 35.4454 253.927 36.392 252.82L38.472 254.74C37.8054 255.553 36.9787 256.173 35.992 256.6C35.0054 257.027 33.9054 257.24 32.692 257.24Z" fill="#2D2B2C"/>
<path d="M64.622 303.12C64.1486 303.12 63.712 303.033 63.312 302.86C62.9186 302.68 62.5953 302.427 62.342 302.1L63.242 301.02C63.622 301.533 64.0553 301.79 64.542 301.79C65.202 301.79 65.532 301.403 65.532 300.63V297.3H63.072V296H67.142V300.54C67.142 301.4 66.9286 302.047 66.502 302.48C66.0753 302.907 65.4486 303.12 64.622 303.12ZM74.2056 301.5H70.9556L70.3356 303H68.6756L71.7956 296H73.3956L76.5256 303H74.8256L74.2056 301.5ZM73.6956 300.27L72.5856 297.59L71.4756 300.27H73.6956ZM84.6719 296V303H83.3419L79.8519 298.75V303H78.2519V296H79.5919L83.0719 300.25V296H84.6719Z" fill="#2D2B2C"/>
<path d="M344.436 303.12C343.963 303.12 343.526 303.033 343.126 302.86C342.733 302.68 342.41 302.427 342.156 302.1L343.056 301.02C343.436 301.533 343.87 301.79 344.356 301.79C345.016 301.79 345.346 301.403 345.346 300.63V297.3H342.886V296H346.956V300.54C346.956 301.4 346.743 302.047 346.316 302.48C345.89 302.907 345.263 303.12 344.436 303.12ZM352.667 303.12C351.667 303.12 350.887 302.843 350.327 302.29C349.773 301.737 349.497 300.947 349.497 299.92V296H351.117V299.86C351.117 301.113 351.637 301.74 352.677 301.74C353.183 301.74 353.57 301.59 353.837 301.29C354.103 300.983 354.237 300.507 354.237 299.86V296H355.837V299.92C355.837 300.947 355.557 301.737 354.997 302.29C354.443 302.843 353.667 303.12 352.667 303.12ZM364.857 296V303H363.527L360.037 298.75V303H358.437V296H359.777L363.257 300.25V296H364.857Z" fill="#2D2B2C"/>
<path d="M179.92 303L179.91 298.8L177.85 302.26H177.12L175.07 298.89V303H173.55V296H174.89L177.51 300.35L180.09 296H181.42L181.44 303H179.92ZM188.711 301.5H185.461L184.841 303H183.181L186.301 296H187.901L191.031 303H189.331L188.711 301.5ZM188.201 300.27L187.091 297.59L185.981 300.27H188.201ZM197.217 303L195.867 301.05H195.787H194.377V303H192.757V296H195.787C196.407 296 196.943 296.103 197.397 296.31C197.857 296.517 198.21 296.81 198.457 297.19C198.703 297.57 198.827 298.02 198.827 298.54C198.827 299.06 198.7 299.51 198.447 299.89C198.2 300.263 197.847 300.55 197.387 300.75L198.957 303H197.217ZM197.187 298.54C197.187 298.147 197.06 297.847 196.807 297.64C196.553 297.427 196.183 297.32 195.697 297.32H194.377V299.76H195.697C196.183 299.76 196.553 299.653 196.807 299.44C197.06 299.227 197.187 298.927 197.187 298.54Z" fill="#2D2B2C"/>
<path d="M513.925 303.12C513.372 303.12 512.835 303.047 512.315 302.9C511.802 302.747 511.388 302.55 511.075 302.31L511.625 301.09C511.925 301.31 512.282 301.487 512.695 301.62C513.108 301.753 513.522 301.82 513.935 301.82C514.395 301.82 514.735 301.753 514.955 301.62C515.175 301.48 515.285 301.297 515.285 301.07C515.285 300.903 515.218 300.767 515.085 300.66C514.958 300.547 514.792 300.457 514.585 300.39C514.385 300.323 514.112 300.25 513.765 300.17C513.232 300.043 512.795 299.917 512.455 299.79C512.115 299.663 511.822 299.46 511.575 299.18C511.335 298.9 511.215 298.527 511.215 298.06C511.215 297.653 511.325 297.287 511.545 296.96C511.765 296.627 512.095 296.363 512.535 296.17C512.982 295.977 513.525 295.88 514.165 295.88C514.612 295.88 515.048 295.933 515.475 296.04C515.902 296.147 516.275 296.3 516.595 296.5L516.095 297.73C515.448 297.363 514.802 297.18 514.155 297.18C513.702 297.18 513.365 297.253 513.145 297.4C512.932 297.547 512.825 297.74 512.825 297.98C512.825 298.22 512.948 298.4 513.195 298.52C513.448 298.633 513.832 298.747 514.345 298.86C514.878 298.987 515.315 299.113 515.655 299.24C515.995 299.367 516.285 299.567 516.525 299.84C516.772 300.113 516.895 300.483 516.895 300.95C516.895 301.35 516.782 301.717 516.555 302.05C516.335 302.377 516.002 302.637 515.555 302.83C515.108 303.023 514.565 303.12 513.925 303.12ZM524.422 301.7V303H519.002V296H524.292V297.3H520.612V298.82H523.862V300.08H520.612V301.7H524.422ZM529.741 296C530.361 296 530.898 296.103 531.351 296.31C531.811 296.517 532.164 296.81 532.411 297.19C532.658 297.57 532.781 298.02 532.781 298.54C532.781 299.053 532.658 299.503 532.411 299.89C532.164 300.27 531.811 300.563 531.351 300.77C530.898 300.97 530.361 301.07 529.741 301.07H528.331V303H526.711V296H529.741ZM529.651 299.75C530.138 299.75 530.508 299.647 530.761 299.44C531.014 299.227 531.141 298.927 531.141 298.54C531.141 298.147 531.014 297.847 530.761 297.64C530.508 297.427 530.138 297.32 529.651 297.32H528.331V299.75H529.651Z" fill="#2D2B2C"/>
<path d="M401.457 303.12C400.984 303.12 400.547 303.033 400.147 302.86C399.754 302.68 399.43 302.427 399.177 302.1L400.077 301.02C400.457 301.533 400.89 301.79 401.377 301.79C402.037 301.79 402.367 301.403 402.367 300.63V297.3H399.907V296H403.977V300.54C403.977 301.4 403.764 302.047 403.337 302.48C402.91 302.907 402.284 303.12 401.457 303.12ZM409.687 303.12C408.687 303.12 407.907 302.843 407.347 302.29C406.794 301.737 406.517 300.947 406.517 299.92V296H408.137V299.86C408.137 301.113 408.657 301.74 409.697 301.74C410.204 301.74 410.59 301.59 410.857 301.29C411.124 300.983 411.257 300.507 411.257 299.86V296H412.857V299.92C412.857 300.947 412.577 301.737 412.017 302.29C411.464 302.843 410.687 303.12 409.687 303.12ZM415.458 296H417.078V301.68H420.588V303H415.458V296Z" fill="#2D2B2C"/>
<path d="M235.322 301.5H232.072L231.452 303H229.792L232.912 296H234.512L237.642 303H235.942L235.322 301.5ZM234.812 300.27L233.702 297.59L232.592 300.27H234.812ZM242.398 296C243.018 296 243.555 296.103 244.008 296.31C244.468 296.517 244.821 296.81 245.068 297.19C245.315 297.57 245.438 298.02 245.438 298.54C245.438 299.053 245.315 299.503 245.068 299.89C244.821 300.27 244.468 300.563 244.008 300.77C243.555 300.97 243.018 301.07 242.398 301.07H240.988V303H239.368V296H242.398ZM242.308 299.75C242.795 299.75 243.165 299.647 243.418 299.44C243.671 299.227 243.798 298.927 243.798 298.54C243.798 298.147 243.671 297.847 243.418 297.64C243.165 297.427 242.795 297.32 242.308 297.32H240.988V299.75H242.308ZM252.055 303L250.705 301.05H250.625H249.215V303H247.595V296H250.625C251.245 296 251.781 296.103 252.235 296.31C252.695 296.517 253.048 296.81 253.295 297.19C253.541 297.57 253.665 298.02 253.665 298.54C253.665 299.06 253.538 299.51 253.285 299.89C253.038 300.263 252.685 300.55 252.225 300.75L253.795 303H252.055ZM252.025 298.54C252.025 298.147 251.898 297.847 251.645 297.64C251.391 297.427 251.021 297.32 250.535 297.32H249.215V299.76H250.535C251.021 299.76 251.391 299.653 251.645 299.44C251.898 299.227 252.025 298.927 252.025 298.54Z" fill="#2D2B2C"/>
<path d="M570.278 303.12C569.551 303.12 568.894 302.963 568.308 302.65C567.728 302.337 567.271 301.907 566.938 301.36C566.611 300.807 566.448 300.187 566.448 299.5C566.448 298.813 566.611 298.197 566.938 297.65C567.271 297.097 567.728 296.663 568.308 296.35C568.894 296.037 569.551 295.88 570.278 295.88C571.004 295.88 571.658 296.037 572.238 296.35C572.818 296.663 573.274 297.097 573.608 297.65C573.941 298.197 574.108 298.813 574.108 299.5C574.108 300.187 573.941 300.807 573.608 301.36C573.274 301.907 572.818 302.337 572.238 302.65C571.658 302.963 571.004 303.12 570.278 303.12ZM570.278 301.74C570.691 301.74 571.064 301.647 571.398 301.46C571.731 301.267 571.991 301 572.178 300.66C572.371 300.32 572.468 299.933 572.468 299.5C572.468 299.067 572.371 298.68 572.178 298.34C571.991 298 571.731 297.737 571.398 297.55C571.064 297.357 570.691 297.26 570.278 297.26C569.864 297.26 569.491 297.357 569.158 297.55C568.824 297.737 568.561 298 568.368 298.34C568.181 298.68 568.088 299.067 568.088 299.5C568.088 299.933 568.181 300.32 568.368 300.66C568.561 301 568.824 301.267 569.158 301.46C569.491 301.647 569.864 301.74 570.278 301.74ZM579.675 303.12C578.962 303.12 578.315 302.967 577.735 302.66C577.162 302.347 576.708 301.917 576.375 301.37C576.048 300.817 575.885 300.193 575.885 299.5C575.885 298.807 576.048 298.187 576.375 297.64C576.708 297.087 577.162 296.657 577.735 296.35C578.315 296.037 578.965 295.88 579.685 295.88C580.292 295.88 580.838 295.987 581.325 296.2C581.818 296.413 582.232 296.72 582.565 297.12L581.525 298.08C581.052 297.533 580.465 297.26 579.765 297.26C579.332 297.26 578.945 297.357 578.605 297.55C578.265 297.737 577.998 298 577.805 298.34C577.618 298.68 577.525 299.067 577.525 299.5C577.525 299.933 577.618 300.32 577.805 300.66C577.998 301 578.265 301.267 578.605 301.46C578.945 301.647 579.332 301.74 579.765 301.74C580.465 301.74 581.052 301.463 581.525 300.91L582.565 301.87C582.232 302.277 581.818 302.587 581.325 302.8C580.832 303.013 580.282 303.12 579.675 303.12ZM586.041 297.32H583.801V296H589.901V297.32H587.661V303H586.041V297.32Z" fill="#2D2B2C"/>
<path d="M121.079 297.3V299.15H124.319V300.45H121.079V303H119.459V296H124.749V297.3H121.079ZM132.266 301.7V303H126.846V296H132.136V297.3H128.456V298.82H131.706V300.08H128.456V301.7H132.266ZM139.695 299.36C140.095 299.487 140.408 299.7 140.635 300C140.861 300.293 140.975 300.657 140.975 301.09C140.975 301.703 140.735 302.177 140.255 302.51C139.781 302.837 139.088 303 138.175 303H134.555V296H137.975C138.828 296 139.481 296.163 139.935 296.49C140.395 296.817 140.625 297.26 140.625 297.82C140.625 298.16 140.541 298.463 140.375 298.73C140.215 298.997 139.988 299.207 139.695 299.36ZM136.165 297.22V298.87H137.775C138.175 298.87 138.478 298.8 138.685 298.66C138.891 298.52 138.995 298.313 138.995 298.04C138.995 297.767 138.891 297.563 138.685 297.43C138.478 297.29 138.175 297.22 137.775 297.22H136.165ZM138.055 301.78C138.481 301.78 138.801 301.71 139.015 301.57C139.235 301.43 139.345 301.213 139.345 300.92C139.345 300.34 138.915 300.05 138.055 300.05H136.165V301.78H138.055Z" fill="#2D2B2C"/>
<path d="M458.887 301.5H455.637L455.017 303H453.357L456.477 296H458.077L461.207 303H459.507L458.887 301.5ZM458.377 300.27L457.267 297.59L456.157 300.27H458.377ZM465.897 303.12C464.897 303.12 464.117 302.843 463.557 302.29C463.004 301.737 462.727 300.947 462.727 299.92V296H464.347V299.86C464.347 301.113 464.867 301.74 465.907 301.74C466.414 301.74 466.8 301.59 467.067 301.29C467.334 300.983 467.467 300.507 467.467 299.86V296H469.067V299.92C469.067 300.947 468.787 301.737 468.227 302.29C467.674 302.843 466.897 303.12 465.897 303.12ZM476.398 299.39H477.878V302.23C477.498 302.517 477.058 302.737 476.558 302.89C476.058 303.043 475.555 303.12 475.048 303.12C474.321 303.12 473.668 302.967 473.088 302.66C472.508 302.347 472.051 301.917 471.718 301.37C471.391 300.817 471.228 300.193 471.228 299.5C471.228 298.807 471.391 298.187 471.718 297.64C472.051 297.087 472.511 296.657 473.098 296.35C473.685 296.037 474.345 295.88 475.078 295.88C475.691 295.88 476.248 295.983 476.748 296.19C477.248 296.397 477.668 296.697 478.008 297.09L476.968 298.05C476.468 297.523 475.865 297.26 475.158 297.26C474.711 297.26 474.315 297.353 473.968 297.54C473.621 297.727 473.351 297.99 473.158 298.33C472.965 298.67 472.868 299.06 472.868 299.5C472.868 299.933 472.965 300.32 473.158 300.66C473.351 301 473.618 301.267 473.958 301.46C474.305 301.647 474.698 301.74 475.138 301.74C475.605 301.74 476.025 301.64 476.398 301.44V299.39Z" fill="#2D2B2C"/>
<path d="M292.432 303L292.422 298.8L290.362 302.26H289.632L287.582 298.89V303H286.062V296H287.402L290.022 300.35L292.602 296H293.932L293.952 303H292.432ZM301.223 301.5H297.973L297.353 303H295.693L298.813 296H300.413L303.543 303H301.843L301.223 301.5ZM300.713 300.27L299.603 297.59L298.493 300.27H300.713ZM308.2 300.52V303H306.58V300.5L303.87 296H305.59L307.46 299.11L309.33 296H310.92L308.2 300.52Z" fill="#2D2B2C"/>
<path d="M628.38 296V303H627.05L623.56 298.75V303H621.96V296H623.3L626.78 300.25V296H628.38ZM634.426 303.12C633.699 303.12 633.043 302.963 632.456 302.65C631.876 302.337 631.419 301.907 631.086 301.36C630.759 300.807 630.596 300.187 630.596 299.5C630.596 298.813 630.759 298.197 631.086 297.65C631.419 297.097 631.876 296.663 632.456 296.35C633.043 296.037 633.699 295.88 634.426 295.88C635.153 295.88 635.806 296.037 636.386 296.35C636.966 296.663 637.423 297.097 637.756 297.65C638.089 298.197 638.256 298.813 638.256 299.5C638.256 300.187 638.089 300.807 637.756 301.36C637.423 301.907 636.966 302.337 636.386 302.65C635.806 302.963 635.153 303.12 634.426 303.12ZM634.426 301.74C634.839 301.74 635.213 301.647 635.546 301.46C635.879 301.267 636.139 301 636.326 300.66C636.519 300.32 636.616 299.933 636.616 299.5C636.616 299.067 636.519 298.68 636.326 298.34C636.139 298 635.879 297.737 635.546 297.55C635.213 297.357 634.839 297.26 634.426 297.26C634.013 297.26 633.639 297.357 633.306 297.55C632.973 297.737 632.709 298 632.516 298.34C632.329 298.68 632.236 299.067 632.236 299.5C632.236 299.933 632.329 300.32 632.516 300.66C632.709 301 632.973 301.267 633.306 301.46C633.639 301.647 634.013 301.74 634.426 301.74ZM646.969 296L643.939 303H642.339L639.319 296H641.069L643.199 301L645.359 296H646.969Z" fill="#2D2B2C"/>
<path d="M678.687 296H681.867C682.627 296 683.297 296.147 683.877 296.44C684.464 296.727 684.917 297.133 685.237 297.66C685.564 298.187 685.727 298.8 685.727 299.5C685.727 300.2 685.564 300.813 685.237 301.34C684.917 301.867 684.464 302.277 683.877 302.57C683.297 302.857 682.627 303 681.867 303H678.687V296ZM681.787 301.67C682.487 301.67 683.044 301.477 683.457 301.09C683.877 300.697 684.087 300.167 684.087 299.5C684.087 298.833 683.877 298.307 683.457 297.92C683.044 297.527 682.487 297.33 681.787 297.33H680.307V301.67H681.787ZM693.369 301.7V303H687.949V296H693.239V297.3H689.559V298.82H692.809V300.08H689.559V301.7H693.369ZM698.989 303.12C698.275 303.12 697.629 302.967 697.049 302.66C696.475 302.347 696.022 301.917 695.689 301.37C695.362 300.817 695.199 300.193 695.199 299.5C695.199 298.807 695.362 298.187 695.689 297.64C696.022 297.087 696.475 296.657 697.049 296.35C697.629 296.037 698.279 295.88 698.999 295.88C699.605 295.88 700.152 295.987 700.639 296.2C701.132 296.413 701.545 296.72 701.879 297.12L700.839 298.08C700.365 297.533 699.779 297.26 699.079 297.26C698.645 297.26 698.259 297.357 697.919 297.55C697.579 297.737 697.312 298 697.119 298.34C696.932 298.68 696.839 299.067 696.839 299.5C696.839 299.933 696.932 300.32 697.119 300.66C697.312 301 697.579 301.267 697.919 301.46C698.259 301.647 698.645 301.74 699.079 301.74C699.779 301.74 700.365 301.463 700.839 300.91L701.879 301.87C701.545 302.277 701.132 302.587 700.639 302.8C700.145 303.013 699.595 303.12 698.989 303.12Z" fill="#2D2B2C"/>
<path d="M73.9915 255.2C72.8715 255.2 71.8715 254.92 70.9915 254.36C70.1115 253.787 69.4182 252.96 68.9115 251.88C68.4048 250.787 68.1515 249.493 68.1515 248C68.1515 246.507 68.4048 245.22 68.9115 244.14C69.4182 243.047 70.1115 242.22 70.9915 241.66C71.8715 241.087 72.8715 240.8 73.9915 240.8C75.1115 240.8 76.1115 241.087 76.9915 241.66C77.8848 242.22 78.5848 243.047 79.0915 244.14C79.5982 245.22 79.8515 246.507 79.8515 248C79.8515 249.493 79.5982 250.787 79.0915 251.88C78.5848 252.96 77.8848 253.787 76.9915 254.36C76.1115 254.92 75.1115 255.2 73.9915 255.2ZM73.9915 252.94C74.9915 252.94 75.7782 252.527 76.3515 251.7C76.9382 250.873 77.2315 249.64 77.2315 248C77.2315 246.36 76.9382 245.127 76.3515 244.3C75.7782 243.473 74.9915 243.06 73.9915 243.06C73.0048 243.06 72.2182 243.473 71.6315 244.3C71.0582 245.127 70.7715 246.36 70.7715 248C70.7715 249.64 71.0582 250.873 71.6315 251.7C72.2182 252.527 73.0048 252.94 73.9915 252.94Z" fill="#38BA9B"/>
<path d="M408.879 252.8V255H398.559V253.26L404.119 247.98C404.746 247.38 405.166 246.86 405.379 246.42C405.606 245.967 405.719 245.52 405.719 245.08C405.719 244.427 405.499 243.927 405.059 243.58C404.619 243.233 403.973 243.06 403.119 243.06C401.693 243.06 400.599 243.547 399.839 244.52L398.019 243.12C398.566 242.387 399.299 241.82 400.219 241.42C401.153 241.007 402.193 240.8 403.339 240.8C404.859 240.8 406.073 241.16 406.979 241.88C407.886 242.6 408.339 243.58 408.339 244.82C408.339 245.58 408.179 246.293 407.859 246.96C407.539 247.627 406.926 248.387 406.019 249.24L402.279 252.8H408.879ZM421.52 252.8V255H411.2V253.26L416.76 247.98C417.387 247.38 417.807 246.86 418.02 246.42C418.247 245.967 418.36 245.52 418.36 245.08C418.36 244.427 418.14 243.927 417.7 243.58C417.26 243.233 416.613 243.06 415.76 243.06C414.333 243.06 413.24 243.547 412.48 244.52L410.66 243.12C411.207 242.387 411.94 241.82 412.86 241.42C413.793 241.007 414.833 240.8 415.98 240.8C417.5 240.8 418.713 241.16 419.62 241.88C420.527 242.6 420.98 243.58 420.98 244.82C420.98 245.58 420.82 246.293 420.5 246.96C420.18 247.627 419.567 248.387 418.66 249.24L414.92 252.8H421.52Z" fill="#38BA9B"/>
<path d="M237.591 241V255H234.991V243.18H232.031V241H237.591ZM247.328 246.78C248.622 246.94 249.608 247.38 250.288 248.1C250.968 248.82 251.308 249.72 251.308 250.8C251.308 251.613 251.102 252.353 250.688 253.02C250.275 253.687 249.648 254.22 248.808 254.62C247.982 255.007 246.968 255.2 245.768 255.2C244.768 255.2 243.802 255.06 242.868 254.78C241.948 254.487 241.162 254.087 240.508 253.58L241.628 251.56C242.135 251.987 242.748 252.327 243.468 252.58C244.202 252.82 244.955 252.94 245.728 252.94C246.648 252.94 247.368 252.753 247.888 252.38C248.422 251.993 248.688 251.473 248.688 250.82C248.688 250.167 248.435 249.66 247.928 249.3C247.435 248.927 246.675 248.74 245.648 248.74H244.368V246.96L247.548 243.18H241.188V241H250.728V242.74L247.328 246.78Z" fill="#38BA9B"/>
<path d="M575.603 241V255H573.003V243.18H570.043V241H575.603ZM584.22 241V255H581.62V243.18H578.66V241H584.22Z" fill="#38BA9B"/>
<path d="M135.2 252.8V255H124.88V253.26L130.44 247.98C131.066 247.38 131.486 246.86 131.7 246.42C131.926 245.967 132.04 245.52 132.04 245.08C132.04 244.427 131.82 243.927 131.38 243.58C130.94 243.233 130.293 243.06 129.44 243.06C128.013 243.06 126.92 243.547 126.16 244.52L124.34 243.12C124.886 242.387 125.62 241.82 126.54 241.42C127.473 241.007 128.513 240.8 129.66 240.8C131.18 240.8 132.393 241.16 133.3 241.88C134.206 242.6 134.66 243.58 134.66 244.82C134.66 245.58 134.5 246.293 134.18 246.96C133.86 247.627 133.246 248.387 132.34 249.24L128.6 252.8H135.2Z" fill="#38BA9B"/>
<path d="M464.879 252.8V255H454.559V253.26L460.119 247.98C460.746 247.38 461.166 246.86 461.379 246.42C461.606 245.967 461.719 245.52 461.719 245.08C461.719 244.427 461.499 243.927 461.059 243.58C460.619 243.233 459.973 243.06 459.119 243.06C457.693 243.06 456.599 243.547 455.839 244.52L454.019 243.12C454.566 242.387 455.299 241.82 456.219 241.42C457.153 241.007 458.193 240.8 459.339 240.8C460.859 240.8 462.073 241.16 462.979 241.88C463.886 242.6 464.339 243.58 464.339 244.82C464.339 245.58 464.179 246.293 463.859 246.96C463.539 247.627 462.926 248.387 462.019 249.24L458.279 252.8H464.879ZM477.52 252.8V255H467.2V253.26L472.76 247.98C473.387 247.38 473.807 246.86 474.02 246.42C474.247 245.967 474.36 245.52 474.36 245.08C474.36 244.427 474.14 243.927 473.7 243.58C473.26 243.233 472.613 243.06 471.76 243.06C470.333 243.06 469.24 243.547 468.48 244.52L466.66 243.12C467.207 242.387 467.94 241.82 468.86 241.42C469.793 241.007 470.833 240.8 471.98 240.8C473.5 240.8 474.713 241.16 475.62 241.88C476.527 242.6 476.98 243.58 476.98 244.82C476.98 245.58 476.82 246.293 476.5 246.96C476.18 247.627 475.567 248.387 474.66 249.24L470.92 252.8H477.52Z" fill="#38BA9B"/>
<path d="M293.142 241V255H290.542V243.18H287.582V241H293.142ZM303.279 246.36C304.199 246.36 305.026 246.54 305.759 246.9C306.492 247.247 307.066 247.747 307.479 248.4C307.892 249.053 308.099 249.807 308.099 250.66C308.099 251.567 307.872 252.367 307.419 253.06C306.966 253.74 306.352 254.267 305.579 254.64C304.806 255.013 303.939 255.2 302.979 255.2C301.059 255.2 299.566 254.6 298.499 253.4C297.446 252.2 296.919 250.48 296.919 248.24C296.919 246.667 297.206 245.327 297.779 244.22C298.352 243.1 299.152 242.253 300.179 241.68C301.219 241.093 302.419 240.8 303.779 240.8C304.499 240.8 305.172 240.88 305.799 241.04C306.439 241.187 306.992 241.407 307.459 241.7L306.499 243.66C305.806 243.207 304.919 242.98 303.839 242.98C302.492 242.98 301.439 243.393 300.679 244.22C299.919 245.047 299.539 246.24 299.539 247.8V247.82C299.952 247.34 300.479 246.98 301.119 246.74C301.759 246.487 302.479 246.36 303.279 246.36ZM302.839 253.16C303.652 253.16 304.312 252.947 304.819 252.52C305.326 252.08 305.579 251.5 305.579 250.78C305.579 250.047 305.326 249.467 304.819 249.04C304.312 248.613 303.632 248.4 302.779 248.4C301.939 248.4 301.252 248.627 300.719 249.08C300.199 249.533 299.939 250.107 299.939 250.8C299.939 251.48 300.192 252.047 300.699 252.5C301.219 252.94 301.932 253.16 302.839 253.16Z" fill="#38BA9B"/>
<path d="M639.356 241V242.74L633.916 255H631.136L636.396 243.2H630.896V245.58H628.476V241H639.356Z" fill="#38BA9B"/>
<path d="M191.356 241V242.74L185.916 255H183.136L188.396 243.2H182.896V245.58H180.476V241H191.356Z" fill="#38BA9B"/>
<path d="M517.327 241V255H514.727V243.18H511.767V241H517.327ZM531.665 241V242.74L526.225 255H523.445L528.705 243.2H523.205V245.58H520.785V241H531.665Z" fill="#38BA9B"/>
<path d="M354.891 252.8V255H344.571V253.26L350.131 247.98C350.758 247.38 351.178 246.86 351.391 246.42C351.618 245.967 351.731 245.52 351.731 245.08C351.731 244.427 351.511 243.927 351.071 243.58C350.631 243.233 349.984 243.06 349.131 243.06C347.704 243.06 346.611 243.547 345.851 244.52L344.031 243.12C344.578 242.387 345.311 241.82 346.231 241.42C347.164 241.007 348.204 240.8 349.351 240.8C350.871 240.8 352.084 241.16 352.991 241.88C353.898 242.6 354.351 243.58 354.351 244.82C354.351 245.58 354.191 246.293 353.871 246.96C353.551 247.627 352.938 248.387 352.031 249.24L348.291 252.8H354.891ZM362.232 241V255H359.632V243.18H356.672V241H362.232Z" fill="#38BA9B"/>
<path d="M691.911 241V255H689.311V243.18H686.351V241H691.911Z" fill="#38BA9B"/>
<path fill-rule="evenodd" clip-rule="evenodd" d="M56 21H718V20.5H56V21ZM715 111H53V110.5H715V111ZM715 201H53V200.5H715V201Z" fill="#38BA9B"/>
<path fill-rule="evenodd" clip-rule="evenodd" d="M411.5 7C413.433 7 415 5.433 415 3.5C415 1.567 413.433 0 411.5 0C409.567 0 408 1.567 408 3.5C408 5.433 409.567 7 411.5 7ZM355.5 16C357.433 16 359 14.433 359 12.5C359 10.567 357.433 9 355.5 9C353.567 9 352 10.567 352 12.5C352 14.433 353.567 16 355.5 16ZM359 21.5C359 23.433 357.433 25 355.5 25C353.567 25 352 23.433 352 21.5C352 19.567 353.567 18 355.5 18C357.433 18 359 19.567 359 21.5ZM359 30.5C359 32.433 357.433 34 355.5 34C353.567 34 352 32.433 352 30.5C352 28.567 353.567 27 355.5 27C357.433 27 359 28.567 359 30.5ZM359 39.5C359 41.433 357.433 43 355.5 43C353.567 43 352 41.433 352 39.5C352 37.567 353.567 36 355.5 36C357.433 36 359 37.567 359 39.5ZM359 48.5C359 50.433 357.433 52 355.5 52C353.567 52 352 50.433 352 48.5C352 46.567 353.567 45 355.5 45C357.433 45 359 46.567 359 48.5ZM303 57.5C303 59.433 301.433 61 299.5 61C297.567 61 296 59.433 296 57.5C296 55.567 297.567 54 299.5 54C301.433 54 303 55.567 303 57.5ZM303 66.5C303 68.433 301.433 70 299.5 70C297.567 70 296 68.433 296 66.5C296 64.567 297.567 63 299.5 63C301.433 63 303 64.567 303 66.5ZM303 75.5C303 77.433 301.433 79 299.5 79C297.567 79 296 77.433 296 75.5C296 73.567 297.567 72 299.5 72C301.433 72 303 73.567 303 75.5ZM243.5 88C245.433 88 247 86.433 247 84.5C247 82.567 245.433 81 243.5 81C241.567 81 240 82.567 240 84.5C240 86.433 241.567 88 243.5 88ZM243.5 97C245.433 97 247 95.433 247 93.5C247 91.567 245.433 90 243.5 90C241.567 90 240 91.567 240 93.5C240 95.433 241.567 97 243.5 97ZM243.5 106C245.433 106 247 104.433 247 102.5C247 100.567 245.433 99 243.5 99C241.567 99 240 100.567 240 102.5C240 104.433 241.567 106 243.5 106ZM243.5 115C245.433 115 247 113.433 247 111.5C247 109.567 245.433 108 243.5 108C241.567 108 240 109.567 240 111.5C240 113.433 241.567 115 243.5 115ZM187.5 142C189.433 142 191 140.433 191 138.5C191 136.567 189.433 135 187.5 135C185.567 135 184 136.567 184 138.5C184 140.433 185.567 142 187.5 142ZM191 147.5C191 149.433 189.433 151 187.5 151C185.567 151 184 149.433 184 147.5C184 145.567 185.567 144 187.5 144C189.433 144 191 145.567 191 147.5ZM187.5 160C189.433 160 191 158.433 191 156.5C191 154.567 189.433 153 187.5 153C185.567 153 184 154.567 184 156.5C184 158.433 185.567 160 187.5 160ZM191 165.5C191 167.433 189.433 169 187.5 169C185.567 169 184 167.433 184 165.5C184 163.567 185.567 162 187.5 162C189.433 162 191 163.567 191 165.5ZM187.5 178C189.433 178 191 176.433 191 174.5C191 172.567 189.433 171 187.5 171C185.567 171 184 172.567 184 174.5C184 176.433 185.567 178 187.5 178ZM135 183.5C135 185.433 133.433 187 131.5 187C129.567 187 128 185.433 128 183.5C128 181.567 129.567 180 131.5 180C133.433 180 135 181.567 135 183.5ZM131.5 196C133.433 196 135 194.433 135 192.5C135 190.567 133.433 189 131.5 189C129.567 189 128 190.567 128 192.5C128 194.433 129.567 196 131.5 196ZM79 201.5C79 203.433 77.433 205 75.5 205C73.567 205 72 203.433 72 201.5C72 199.567 73.567 198 75.5 198C77.433 198 79 199.567 79 201.5ZM79 210.5C79 212.433 77.433 214 75.5 214C73.567 214 72 212.433 72 210.5C72 208.567 73.567 207 75.5 207C77.433 207 79 208.567 79 210.5ZM131.5 214C133.433 214 135 212.433 135 210.5C135 208.567 133.433 207 131.5 207C129.567 207 128 208.567 128 210.5C128 212.433 129.567 214 131.5 214ZM135 201.5C135 203.433 133.433 205 131.5 205C129.567 205 128 203.433 128 201.5C128 199.567 129.567 198 131.5 198C133.433 198 135 199.567 135 201.5ZM187.5 214C189.433 214 191 212.433 191 210.5C191 208.567 189.433 207 187.5 207C185.567 207 184 208.567 184 210.5C184 212.433 185.567 214 187.5 214ZM191 201.5C191 203.433 189.433 205 187.5 205C185.567 205 184 203.433 184 201.5C184 199.567 185.567 198 187.5 198C189.433 198 191 199.567 191 201.5ZM187.5 196C189.433 196 191 194.433 191 192.5C191 190.567 189.433 189 187.5 189C185.567 189 184 190.567 184 192.5C184 194.433 185.567 196 187.5 196ZM191 183.5C191 185.433 189.433 187 187.5 187C185.567 187 184 185.433 184 183.5C184 181.567 185.567 180 187.5 180C189.433 180 191 181.567 191 183.5ZM247 210.5C247 212.433 245.433 214 243.5 214C241.567 214 240 212.433 240 210.5C240 208.567 241.567 207 243.5 207C245.433 207 247 208.567 247 210.5ZM247 201.5C247 203.433 245.433 205 243.5 205C241.567 205 240 203.433 240 201.5C240 199.567 241.567 198 243.5 198C245.433 198 247 199.567 247 201.5ZM247 192.5C247 194.433 245.433 196 243.5 196C241.567 196 240 194.433 240 192.5C240 190.567 241.567 189 243.5 189C245.433 189 247 190.567 247 192.5ZM247 183.5C247 185.433 245.433 187 243.5 187C241.567 187 240 185.433 240 183.5C240 181.567 241.567 180 243.5 180C245.433 180 247 181.567 247 183.5ZM247 174.5C247 176.433 245.433 178 243.5 178C241.567 178 240 176.433 240 174.5C240 172.567 241.567 171 243.5 171C245.433 171 247 172.567 247 174.5ZM243.5 169C245.433 169 247 167.433 247 165.5C247 163.567 245.433 162 243.5 162C241.567 162 240 163.567 240 165.5C240 167.433 241.567 169 243.5 169ZM247 156.5C247 158.433 245.433 160 243.5 160C241.567 160 240 158.433 240 156.5C240 154.567 241.567 153 243.5 153C245.433 153 247 154.567 247 156.5ZM243.5 151C245.433 151 247 149.433 247 147.5C247 145.567 245.433 144 243.5 144C241.567 144 240 145.567 240 147.5C240 149.433 241.567 151 243.5 151ZM247 138.5C247 140.433 245.433 142 243.5 142C241.567 142 240 140.433 240 138.5C240 136.567 241.567 135 243.5 135C245.433 135 247 136.567 247 138.5ZM243.5 133C245.433 133 247 131.433 247 129.5C247 127.567 245.433 126 243.5 126C241.567 126 240 127.567 240 129.5C240 131.433 241.567 133 243.5 133ZM247 120.5C247 122.433 245.433 124 243.5 124C241.567 124 240 122.433 240 120.5C240 118.567 241.567 117 243.5 117C245.433 117 247 118.567 247 120.5ZM299.5 214C301.433 214 303 212.433 303 210.5C303 208.567 301.433 207 299.5 207C297.567 207 296 208.567 296 210.5C296 212.433 297.567 214 299.5 214ZM303 111.5C303 113.433 301.433 115 299.5 115C297.567 115 296 113.433 296 111.5C296 109.567 297.567 108 299.5 108C301.433 108 303 109.567 303 111.5ZM299.5 205C301.433 205 303 203.433 303 201.5C303 199.567 301.433 198 299.5 198C297.567 198 296 199.567 296 201.5C296 203.433 297.567 205 299.5 205ZM303 102.5C303 104.433 301.433 106 299.5 106C297.567 106 296 104.433 296 102.5C296 100.567 297.567 99 299.5 99C301.433 99 303 100.567 303 102.5ZM299.5 196C301.433 196 303 194.433 303 192.5C303 190.567 301.433 189 299.5 189C297.567 189 296 190.567 296 192.5C296 194.433 297.567 196 299.5 196ZM303 93.5C303 95.433 301.433 97 299.5 97C297.567 97 296 95.433 296 93.5C296 91.567 297.567 90 299.5 90C301.433 90 303 91.567 303 93.5ZM299.5 187C301.433 187 303 185.433 303 183.5C303 181.567 301.433 180 299.5 180C297.567 180 296 181.567 296 183.5C296 185.433 297.567 187 299.5 187ZM303 84.5C303 86.433 301.433 88 299.5 88C297.567 88 296 86.433 296 84.5C296 82.567 297.567 81 299.5 81C301.433 81 303 82.567 303 84.5ZM299.5 178C301.433 178 303 176.433 303 174.5C303 172.567 301.433 171 299.5 171C297.567 171 296 172.567 296 174.5C296 176.433 297.567 178 299.5 178ZM299.5 169C301.433 169 303 167.433 303 165.5C303 163.567 301.433 162 299.5 162C297.567 162 296 163.567 296 165.5C296 167.433 297.567 169 299.5 169ZM299.5 160C301.433 160 303 158.433 303 156.5C303 154.567 301.433 153 299.5 153C297.567 153 296 154.567 296 156.5C296 158.433 297.567 160 299.5 160ZM299.5 151C301.433 151 303 149.433 303 147.5C303 145.567 301.433 144 299.5 144C297.567 144 296 145.567 296 147.5C296 149.433 297.567 151 299.5 151ZM303 138.5C303 140.433 301.433 142 299.5 142C297.567 142 296 140.433 296 138.5C296 136.567 297.567 135 299.5 135C301.433 135 303 136.567 303 138.5ZM299.5 133C301.433 133 303 131.433 303 129.5C303 127.567 301.433 126 299.5 126C297.567 126 296 127.567 296 129.5C296 131.433 297.567 133 299.5 133ZM303 120.5C303 122.433 301.433 124 299.5 124C297.567 124 296 122.433 296 120.5C296 118.567 297.567 117 299.5 117C301.433 117 303 118.567 303 120.5ZM355.5 214C357.433 214 359 212.433 359 210.5C359 208.567 357.433 207 355.5 207C353.567 207 352 208.567 352 210.5C352 212.433 353.567 214 355.5 214ZM359 111.5C359 113.433 357.433 115 355.5 115C353.567 115 352 113.433 352 111.5C352 109.567 353.567 108 355.5 108C357.433 108 359 109.567 359 111.5ZM355.5 205C357.433 205 359 203.433 359 201.5C359 199.567 357.433 198 355.5 198C353.567 198 352 199.567 352 201.5C352 203.433 353.567 205 355.5 205ZM359 102.5C359 104.433 357.433 106 355.5 106C353.567 106 352 104.433 352 102.5C352 100.567 353.567 99 355.5 99C357.433 99 359 100.567 359 102.5ZM355.5 196C357.433 196 359 194.433 359 192.5C359 190.567 357.433 189 355.5 189C353.567 189 352 190.567 352 192.5C352 194.433 353.567 196 355.5 196ZM359 93.5C359 95.433 357.433 97 355.5 97C353.567 97 352 95.433 352 93.5C352 91.567 353.567 90 355.5 90C357.433 90 359 91.567 359 93.5ZM355.5 187C357.433 187 359 185.433 359 183.5C359 181.567 357.433 180 355.5 180C353.567 180 352 181.567 352 183.5C352 185.433 353.567 187 355.5 187ZM359 84.5C359 86.433 357.433 88 355.5 88C353.567 88 352 86.433 352 84.5C352 82.567 353.567 81 355.5 81C357.433 81 359 82.567 359 84.5ZM355.5 178C357.433 178 359 176.433 359 174.5C359 172.567 357.433 171 355.5 171C353.567 171 352 172.567 352 174.5C352 176.433 353.567 178 355.5 178ZM359 75.5C359 77.433 357.433 79 355.5 79C353.567 79 352 77.433 352 75.5C352 73.567 353.567 72 355.5 72C357.433 72 359 73.567 359 75.5ZM355.5 169C357.433 169 359 167.433 359 165.5C359 163.567 357.433 162 355.5 162C353.567 162 352 163.567 352 165.5C352 167.433 353.567 169 355.5 169ZM359 66.5C359 68.433 357.433 70 355.5 70C353.567 70 352 68.433 352 66.5C352 64.567 353.567 63 355.5 63C357.433 63 359 64.567 359 66.5ZM355.5 160C357.433 160 359 158.433 359 156.5C359 154.567 357.433 153 355.5 153C353.567 153 352 154.567 352 156.5C352 158.433 353.567 160 355.5 160ZM359 57.5C359 59.433 357.433 61 355.5 61C353.567 61 352 59.433 352 57.5C352 55.567 353.567 54 355.5 54C357.433 54 359 55.567 359 57.5ZM355.5 151C357.433 151 359 149.433 359 147.5C359 145.567 357.433 144 355.5 144C353.567 144 352 145.567 352 147.5C352 149.433 353.567 151 355.5 151ZM355.5 142C357.433 142 359 140.433 359 138.5C359 136.567 357.433 135 355.5 135C353.567 135 352 136.567 352 138.5C352 140.433 353.567 142 355.5 142ZM355.5 133C357.433 133 359 131.433 359 129.5C359 127.567 357.433 126 355.5 126C353.567 126 352 127.567 352 129.5C352 131.433 353.567 133 355.5 133ZM355.5 124C357.433 124 359 122.433 359 120.5C359 118.567 357.433 117 355.5 117C353.567 117 352 118.567 352 120.5C352 122.433 353.567 124 355.5 124ZM415 210.5C415 212.433 413.433 214 411.5 214C409.567 214 408 212.433 408 210.5C408 208.567 409.567 207 411.5 207C413.433 207 415 208.567 415 210.5ZM411.5 115C413.433 115 415 113.433 415 111.5C415 109.567 413.433 108 411.5 108C409.567 108 408 109.567 408 111.5C408 113.433 409.567 115 411.5 115ZM415 201.5C415 203.433 413.433 205 411.5 205C409.567 205 408 203.433 408 201.5C408 199.567 409.567 198 411.5 198C413.433 198 415 199.567 415 201.5ZM411.5 106C413.433 106 415 104.433 415 102.5C415 100.567 413.433 99 411.5 99C409.567 99 408 100.567 408 102.5C408 104.433 409.567 106 411.5 106ZM415 192.5C415 194.433 413.433 196 411.5 196C409.567 196 408 194.433 408 192.5C408 190.567 409.567 189 411.5 189C413.433 189 415 190.567 415 192.5ZM411.5 97C413.433 97 415 95.433 415 93.5C415 91.567 413.433 90 411.5 90C409.567 90 408 91.567 408 93.5C408 95.433 409.567 97 411.5 97ZM415 183.5C415 185.433 413.433 187 411.5 187C409.567 187 408 185.433 408 183.5C408 181.567 409.567 180 411.5 180C413.433 180 415 181.567 415 183.5ZM411.5 88C413.433 88 415 86.433 415 84.5C415 82.567 413.433 81 411.5 81C409.567 81 408 82.567 408 84.5C408 86.433 409.567 88 411.5 88ZM415 174.5C415 176.433 413.433 178 411.5 178C409.567 178 408 176.433 408 174.5C408 172.567 409.567 171 411.5 171C413.433 171 415 172.567 415 174.5ZM411.5 79C413.433 79 415 77.433 415 75.5C415 73.567 413.433 72 411.5 72C409.567 72 408 73.567 408 75.5C408 77.433 409.567 79 411.5 79ZM415 165.5C415 167.433 413.433 169 411.5 169C409.567 169 408 167.433 408 165.5C408 163.567 409.567 162 411.5 162C413.433 162 415 163.567 415 165.5ZM411.5 70C413.433 70 415 68.433 415 66.5C415 64.567 413.433 63 411.5 63C409.567 63 408 64.567 408 66.5C408 68.433 409.567 70 411.5 70ZM415 156.5C415 158.433 413.433 160 411.5 160C409.567 160 408 158.433 408 156.5C408 154.567 409.567 153 411.5 153C413.433 153 415 154.567 415 156.5ZM411.5 61C413.433 61 415 59.433 415 57.5C415 55.567 413.433 54 411.5 54C409.567 54 408 55.567 408 57.5C408 59.433 409.567 61 411.5 61ZM415 147.5C415 149.433 413.433 151 411.5 151C409.567 151 408 149.433 408 147.5C408 145.567 409.567 144 411.5 144C413.433 144 415 145.567 415 147.5ZM411.5 52C413.433 52 415 50.433 415 48.5C415 46.567 413.433 45 411.5 45C409.567 45 408 46.567 408 48.5C408 50.433 409.567 52 411.5 52ZM415 138.5C415 140.433 413.433 142 411.5 142C409.567 142 408 140.433 408 138.5C408 136.567 409.567 135 411.5 135C413.433 135 415 136.567 415 138.5ZM411.5 43C413.433 43 415 41.433 415 39.5C415 37.567 413.433 36 411.5 36C409.567 36 408 37.567 408 39.5C408 41.433 409.567 43 411.5 43ZM415 129.5C415 131.433 413.433 133 411.5 133C409.567 133 408 131.433 408 129.5C408 127.567 409.567 126 411.5 126C413.433 126 415 127.567 415 129.5ZM411.5 34C413.433 34 415 32.433 415 30.5C415 28.567 413.433 27 411.5 27C409.567 27 408 28.567 408 30.5C408 32.433 409.567 34 411.5 34ZM415 120.5C415 122.433 413.433 124 411.5 124C409.567 124 408 122.433 408 120.5C408 118.567 409.567 117 411.5 117C413.433 117 415 118.567 415 120.5ZM411.5 25C413.433 25 415 23.433 415 21.5C415 19.567 413.433 18 411.5 18C409.567 18 408 19.567 408 21.5C408 23.433 409.567 25 411.5 25ZM415 12.5C415 14.433 413.433 16 411.5 16C409.567 16 408 14.433 408 12.5C408 10.567 409.567 9 411.5 9C413.433 9 415 10.567 415 12.5ZM471 210.5C471 212.433 469.433 214 467.5 214C465.567 214 464 212.433 464 210.5C464 208.567 465.567 207 467.5 207C469.433 207 471 208.567 471 210.5ZM467.5 115C469.433 115 471 113.433 471 111.5C471 109.567 469.433 108 467.5 108C465.567 108 464 109.567 464 111.5C464 113.433 465.567 115 467.5 115ZM471 201.5C471 203.433 469.433 205 467.5 205C465.567 205 464 203.433 464 201.5C464 199.567 465.567 198 467.5 198C469.433 198 471 199.567 471 201.5ZM467.5 106C469.433 106 471 104.433 471 102.5C471 100.567 469.433 99 467.5 99C465.567 99 464 100.567 464 102.5C464 104.433 465.567 106 467.5 106ZM471 192.5C471 194.433 469.433 196 467.5 196C465.567 196 464 194.433 464 192.5C464 190.567 465.567 189 467.5 189C469.433 189 471 190.567 471 192.5ZM467.5 97C469.433 97 471 95.433 471 93.5C471 91.567 469.433 90 467.5 90C465.567 90 464 91.567 464 93.5C464 95.433 465.567 97 467.5 97ZM471 183.5C471 185.433 469.433 187 467.5 187C465.567 187 464 185.433 464 183.5C464 181.567 465.567 180 467.5 180C469.433 180 471 181.567 471 183.5ZM467.5 88C469.433 88 471 86.433 471 84.5C471 82.567 469.433 81 467.5 81C465.567 81 464 82.567 464 84.5C464 86.433 465.567 88 467.5 88ZM471 174.5C471 176.433 469.433 178 467.5 178C465.567 178 464 176.433 464 174.5C464 172.567 465.567 171 467.5 171C469.433 171 471 172.567 471 174.5ZM467.5 79C469.433 79 471 77.433 471 75.5C471 73.567 469.433 72 467.5 72C465.567 72 464 73.567 464 75.5C464 77.433 465.567 79 467.5 79ZM471 165.5C471 167.433 469.433 169 467.5 169C465.567 169 464 167.433 464 165.5C464 163.567 465.567 162 467.5 162C469.433 162 471 163.567 471 165.5ZM467.5 70C469.433 70 471 68.433 471 66.5C471 64.567 469.433 63 467.5 63C465.567 63 464 64.567 464 66.5C464 68.433 465.567 70 467.5 70ZM471 156.5C471 158.433 469.433 160 467.5 160C465.567 160 464 158.433 464 156.5C464 154.567 465.567 153 467.5 153C469.433 153 471 154.567 471 156.5ZM467.5 61C469.433 61 471 59.433 471 57.5C471 55.567 469.433 54 467.5 54C465.567 54 464 55.567 464 57.5C464 59.433 465.567 61 467.5 61ZM471 147.5C471 149.433 469.433 151 467.5 151C465.567 151 464 149.433 464 147.5C464 145.567 465.567 144 467.5 144C469.433 144 471 145.567 471 147.5ZM467.5 52C469.433 52 471 50.433 471 48.5C471 46.567 469.433 45 467.5 45C465.567 45 464 46.567 464 48.5C464 50.433 465.567 52 467.5 52ZM471 138.5C471 140.433 469.433 142 467.5 142C465.567 142 464 140.433 464 138.5C464 136.567 465.567 135 467.5 135C469.433 135 471 136.567 471 138.5ZM467.5 43C469.433 43 471 41.433 471 39.5C471 37.567 469.433 36 467.5 36C465.567 36 464 37.567 464 39.5C464 41.433 465.567 43 467.5 43ZM471 129.5C471 131.433 469.433 133 467.5 133C465.567 133 464 131.433 464 129.5C464 127.567 465.567 126 467.5 126C469.433 126 471 127.567 471 129.5ZM467.5 34C469.433 34 471 32.433 471 30.5C471 28.567 469.433 27 467.5 27C465.567 27 464 28.567 464 30.5C464 32.433 465.567 34 467.5 34ZM471 120.5C471 122.433 469.433 124 467.5 124C465.567 124 464 122.433 464 120.5C464 118.567 465.567 117 467.5 117C469.433 117 471 118.567 471 120.5ZM467.5 25C469.433 25 471 23.433 471 21.5C471 19.567 469.433 18 467.5 18C465.567 18 464 19.567 464 21.5C464 23.433 465.567 25 467.5 25ZM471 12.5C471 14.433 469.433 16 467.5 16C465.567 16 464 14.433 464 12.5C464 10.567 465.567 9 467.5 9C469.433 9 471 10.567 471 12.5ZM467.5 7C469.433 7 471 5.433 471 3.5C471 1.567 469.433 0 467.5 0C465.567 0 464 1.567 464 3.5C464 5.433 465.567 7 467.5 7ZM527 210.5C527 212.433 525.433 214 523.5 214C521.567 214 520 212.433 520 210.5C520 208.567 521.567 207 523.5 207C525.433 207 527 208.567 527 210.5ZM523.5 115C525.433 115 527 113.433 527 111.5C527 109.567 525.433 108 523.5 108C521.567 108 520 109.567 520 111.5C520 113.433 521.567 115 523.5 115ZM527 201.5C527 203.433 525.433 205 523.5 205C521.567 205 520 203.433 520 201.5C520 199.567 521.567 198 523.5 198C525.433 198 527 199.567 527 201.5ZM523.5 106C525.433 106 527 104.433 527 102.5C527 100.567 525.433 99 523.5 99C521.567 99 520 100.567 520 102.5C520 104.433 521.567 106 523.5 106ZM527 192.5C527 194.433 525.433 196 523.5 196C521.567 196 520 194.433 520 192.5C520 190.567 521.567 189 523.5 189C525.433 189 527 190.567 527 192.5ZM523.5 97C525.433 97 527 95.433 527 93.5C527 91.567 525.433 90 523.5 90C521.567 90 520 91.567 520 93.5C520 95.433 521.567 97 523.5 97ZM527 183.5C527 185.433 525.433 187 523.5 187C521.567 187 520 185.433 520 183.5C520 181.567 521.567 180 523.5 180C525.433 180 527 181.567 527 183.5ZM523.5 88C525.433 88 527 86.433 527 84.5C527 82.567 525.433 81 523.5 81C521.567 81 520 82.567 520 84.5C520 86.433 521.567 88 523.5 88ZM527 174.5C527 176.433 525.433 178 523.5 178C521.567 178 520 176.433 520 174.5C520 172.567 521.567 171 523.5 171C525.433 171 527 172.567 527 174.5ZM523.5 79C525.433 79 527 77.433 527 75.5C527 73.567 525.433 72 523.5 72C521.567 72 520 73.567 520 75.5C520 77.433 521.567 79 523.5 79ZM527 165.5C527 167.433 525.433 169 523.5 169C521.567 169 520 167.433 520 165.5C520 163.567 521.567 162 523.5 162C525.433 162 527 163.567 527 165.5ZM523.5 70C525.433 70 527 68.433 527 66.5C527 64.567 525.433 63 523.5 63C521.567 63 520 64.567 520 66.5C520 68.433 521.567 70 523.5 70ZM527 156.5C527 158.433 525.433 160 523.5 160C521.567 160 520 158.433 520 156.5C520 154.567 521.567 153 523.5 153C525.433 153 527 154.567 527 156.5ZM523.5 61C525.433 61 527 59.433 527 57.5C527 55.567 525.433 54 523.5 54C521.567 54 520 55.567 520 57.5C520 59.433 521.567 61 523.5 61ZM527 147.5C527 149.433 525.433 151 523.5 151C521.567 151 520 149.433 520 147.5C520 145.567 521.567 144 523.5 144C525.433 144 527 145.567 527 147.5ZM523.5 52C525.433 52 527 50.433 527 48.5C527 46.567 525.433 45 523.5 45C521.567 45 520 46.567 520 48.5C520 50.433 521.567 52 523.5 52ZM527 138.5C527 140.433 525.433 142 523.5 142C521.567 142 520 140.433 520 138.5C520 136.567 521.567 135 523.5 135C525.433 135 527 136.567 527 138.5ZM523.5 133C525.433 133 527 131.433 527 129.5C527 127.567 525.433 126 523.5 126C521.567 126 520 127.567 520 129.5C520 131.433 521.567 133 523.5 133ZM527 120.5C527 122.433 525.433 124 523.5 124C521.567 124 520 122.433 520 120.5C520 118.567 521.567 117 523.5 117C525.433 117 527 118.567 527 120.5ZM579.5 214C581.433 214 583 212.433 583 210.5C583 208.567 581.433 207 579.5 207C577.567 207 576 208.567 576 210.5C576 212.433 577.567 214 579.5 214ZM583 111.5C583 113.433 581.433 115 579.5 115C577.567 115 576 113.433 576 111.5C576 109.567 577.567 108 579.5 108C581.433 108 583 109.567 583 111.5ZM579.5 205C581.433 205 583 203.433 583 201.5C583 199.567 581.433 198 579.5 198C577.567 198 576 199.567 576 201.5C576 203.433 577.567 205 579.5 205ZM583 102.5C583 104.433 581.433 106 579.5 106C577.567 106 576 104.433 576 102.5C576 100.567 577.567 99 579.5 99C581.433 99 583 100.567 583 102.5ZM579.5 196C581.433 196 583 194.433 583 192.5C583 190.567 581.433 189 579.5 189C577.567 189 576 190.567 576 192.5C576 194.433 577.567 196 579.5 196ZM583 183.5C583 185.433 581.433 187 579.5 187C577.567 187 576 185.433 576 183.5C576 181.567 577.567 180 579.5 180C581.433 180 583 181.567 583 183.5ZM579.5 178C581.433 178 583 176.433 583 174.5C583 172.567 581.433 171 579.5 171C577.567 171 576 172.567 576 174.5C576 176.433 577.567 178 579.5 178ZM583 165.5C583 167.433 581.433 169 579.5 169C577.567 169 576 167.433 576 165.5C576 163.567 577.567 162 579.5 162C581.433 162 583 163.567 583 165.5ZM579.5 160C581.433 160 583 158.433 583 156.5C583 154.567 581.433 153 579.5 153C577.567 153 576 154.567 576 156.5C576 158.433 577.567 160 579.5 160ZM583 147.5C583 149.433 581.433 151 579.5 151C577.567 151 576 149.433 576 147.5C576 145.567 577.567 144 579.5 144C581.433 144 583 145.567 583 147.5ZM579.5 142C581.433 142 583 140.433 583 138.5C583 136.567 581.433 135 579.5 135C577.567 135 576 136.567 576 138.5C576 140.433 577.567 142 579.5 142ZM583 129.5C583 131.433 581.433 133 579.5 133C577.567 133 576 131.433 576 129.5C576 127.567 577.567 126 579.5 126C581.433 126 583 127.567 583 129.5ZM579.5 124C581.433 124 583 122.433 583 120.5C583 118.567 581.433 117 579.5 117C577.567 117 576 118.567 576 120.5C576 122.433 577.567 124 579.5 124ZM639 210.5C639 212.433 637.433 214 635.5 214C633.567 214 632 212.433 632 210.5C632 208.567 633.567 207 635.5 207C637.433 207 639 208.567 639 210.5ZM635.5 205C637.433 205 639 203.433 639 201.5C639 199.567 637.433 198 635.5 198C633.567 198 632 199.567 632 201.5C632 203.433 633.567 205 635.5 205ZM639 192.5C639 194.433 637.433 196 635.5 196C633.567 196 632 194.433 632 192.5C632 190.567 633.567 189 635.5 189C637.433 189 639 190.567 639 192.5ZM635.5 187C637.433 187 639 185.433 639 183.5C639 181.567 637.433 180 635.5 180C633.567 180 632 181.567 632 183.5C632 185.433 633.567 187 635.5 187ZM639 174.5C639 176.433 637.433 178 635.5 178C633.567 178 632 176.433 632 174.5C632 172.567 633.567 171 635.5 171C637.433 171 639 172.567 639 174.5ZM635.5 169C637.433 169 639 167.433 639 165.5C639 163.567 637.433 162 635.5 162C633.567 162 632 163.567 632 165.5C632 167.433 633.567 169 635.5 169ZM639 156.5C639 158.433 637.433 160 635.5 160C633.567 160 632 158.433 632 156.5C632 154.567 633.567 153 635.5 153C637.433 153 639 154.567 639 156.5ZM635.5 151C637.433 151 639 149.433 639 147.5C639 145.567 637.433 144 635.5 144C633.567 144 632 145.567 632 147.5C632 149.433 633.567 151 635.5 151ZM639 138.5C639 140.433 637.433 142 635.5 142C633.567 142 632 140.433 632 138.5C632 136.567 633.567 135 635.5 135C637.433 135 639 136.567 639 138.5ZM691.5 214C693.433 214 695 212.433 695 210.5C695 208.567 693.433 207 691.5 207C689.567 207 688 208.567 688 210.5C688 212.433 689.567 214 691.5 214ZM695 201.5C695 203.433 693.433 205 691.5 205C689.567 205 688 203.433 688 201.5C688 199.567 689.567 198 691.5 198C693.433 198 695 199.567 695 201.5ZM691.5 196C693.433 196 695 194.433 695 192.5C695 190.567 693.433 189 691.5 189C689.567 189 688 190.567 688 192.5C688 194.433 689.567 196 691.5 196Z" fill="#38BA9B"/>
<path fill-rule="evenodd" clip-rule="evenodd" d="M79 3.5C79 5.433 77.433 7 75.5 7C73.567 7 72 5.433 72 3.5C72 1.567 73.567 0 75.5 0C77.433 0 79 1.567 79 3.5ZM75.5 16C77.433 16 79 14.433 79 12.5C79 10.567 77.433 9 75.5 9C73.567 9 72 10.567 72 12.5C72 14.433 73.567 16 75.5 16ZM79 21.5C79 23.433 77.433 25 75.5 25C73.567 25 72 23.433 72 21.5C72 19.567 73.567 18 75.5 18C77.433 18 79 19.567 79 21.5ZM79 30.5C79 32.433 77.433 34 75.5 34C73.567 34 72 32.433 72 30.5C72 28.567 73.567 27 75.5 27C77.433 27 79 28.567 79 30.5ZM79 39.5C79 41.433 77.433 43 75.5 43C73.567 43 72 41.433 72 39.5C72 37.567 73.567 36 75.5 36C77.433 36 79 37.567 79 39.5ZM79 48.5C79 50.433 77.433 52 75.5 52C73.567 52 72 50.433 72 48.5C72 46.567 73.567 45 75.5 45C77.433 45 79 46.567 79 48.5ZM79 57.5C79 59.433 77.433 61 75.5 61C73.567 61 72 59.433 72 57.5C72 55.567 73.567 54 75.5 54C77.433 54 79 55.567 79 57.5ZM79 66.5C79 68.433 77.433 70 75.5 70C73.567 70 72 68.433 72 66.5C72 64.567 73.567 63 75.5 63C77.433 63 79 64.567 79 66.5ZM79 75.5C79 77.433 77.433 79 75.5 79C73.567 79 72 77.433 72 75.5C72 73.567 73.567 72 75.5 72C77.433 72 79 73.567 79 75.5ZM79 84.5C79 86.433 77.433 88 75.5 88C73.567 88 72 86.433 72 84.5C72 82.567 73.567 81 75.5 81C77.433 81 79 82.567 79 84.5ZM79 93.5C79 95.433 77.433 97 75.5 97C73.567 97 72 95.433 72 93.5C72 91.567 73.567 90 75.5 90C77.433 90 79 91.567 79 93.5ZM79 102.5C79 104.433 77.433 106 75.5 106C73.567 106 72 104.433 72 102.5C72 100.567 73.567 99 75.5 99C77.433 99 79 100.567 79 102.5ZM75.5 115C77.433 115 79 113.433 79 111.5C79 109.567 77.433 108 75.5 108C73.567 108 72 109.567 72 111.5C72 113.433 73.567 115 75.5 115ZM75.5 214C77.433 214 79 212.433 79 210.5C79 208.567 77.433 207 75.5 207C73.567 207 72 208.567 72 210.5C72 212.433 73.567 214 75.5 214ZM75.5 196C77.433 196 79 194.433 79 192.5C79 190.567 77.433 189 75.5 189C73.567 189 72 190.567 72 192.5C72 194.433 73.567 196 75.5 196ZM75.5 187C77.433 187 79 185.433 79 183.5C79 181.567 77.433 180 75.5 180C73.567 180 72 181.567 72 183.5C72 185.433 73.567 187 75.5 187ZM75.5 178C77.433 178 79 176.433 79 174.5C79 172.567 77.433 171 75.5 171C73.567 171 72 172.567 72 174.5C72 176.433 73.567 178 75.5 178ZM75.5 169C77.433 169 79 167.433 79 165.5C79 163.567 77.433 162 75.5 162C73.567 162 72 163.567 72 165.5C72 167.433 73.567 169 75.5 169ZM75.5 160C77.433 160 79 158.433 79 156.5C79 154.567 77.433 153 75.5 153C73.567 153 72 154.567 72 156.5C72 158.433 73.567 160 75.5 160ZM75.5 151C77.433 151 79 149.433 79 147.5C79 145.567 77.433 144 75.5 144C73.567 144 72 145.567 72 147.5C72 149.433 73.567 151 75.5 151ZM75.5 142C77.433 142 79 140.433 79 138.5C79 136.567 77.433 135 75.5 135C73.567 135 72 136.567 72 138.5C72 140.433 73.567 142 75.5 142ZM75.5 133C77.433 133 79 131.433 79 129.5C79 127.567 77.433 126 75.5 126C73.567 126 72 127.567 72 129.5C72 131.433 73.567 133 75.5 133ZM75.5 124C77.433 124 79 122.433 79 120.5C79 118.567 77.433 117 75.5 117C73.567 117 72 118.567 72 120.5C72 122.433 73.567 124 75.5 124ZM131.5 115C133.433 115 135 113.433 135 111.5C135 109.567 133.433 108 131.5 108C129.567 108 128 109.567 128 111.5C128 113.433 129.567 115 131.5 115ZM135 102.5C135 104.433 133.433 106 131.5 106C129.567 106 128 104.433 128 102.5C128 100.567 129.567 99 131.5 99C133.433 99 135 100.567 135 102.5ZM131.5 97C133.433 97 135 95.433 135 93.5C135 91.567 133.433 90 131.5 90C129.567 90 128 91.567 128 93.5C128 95.433 129.567 97 131.5 97ZM135 84.5C135 86.433 133.433 88 131.5 88C129.567 88 128 86.433 128 84.5C128 82.567 129.567 81 131.5 81C133.433 81 135 82.567 135 84.5ZM131.5 178C133.433 178 135 176.433 135 174.5C135 172.567 133.433 171 131.5 171C129.567 171 128 172.567 128 174.5C128 176.433 129.567 178 131.5 178ZM135 75.5C135 77.433 133.433 79 131.5 79C129.567 79 128 77.433 128 75.5C128 73.567 129.567 72 131.5 72C133.433 72 135 73.567 135 75.5ZM131.5 169C133.433 169 135 167.433 135 165.5C135 163.567 133.433 162 131.5 162C129.567 162 128 163.567 128 165.5C128 167.433 129.567 169 131.5 169ZM135 66.5C135 68.433 133.433 70 131.5 70C129.567 70 128 68.433 128 66.5C128 64.567 129.567 63 131.5 63C133.433 63 135 64.567 135 66.5ZM131.5 160C133.433 160 135 158.433 135 156.5C135 154.567 133.433 153 131.5 153C129.567 153 128 154.567 128 156.5C128 158.433 129.567 160 131.5 160ZM135 57.5C135 59.433 133.433 61 131.5 61C129.567 61 128 59.433 128 57.5C128 55.567 129.567 54 131.5 54C133.433 54 135 55.567 135 57.5ZM131.5 151C133.433 151 135 149.433 135 147.5C135 145.567 133.433 144 131.5 144C129.567 144 128 145.567 128 147.5C128 149.433 129.567 151 131.5 151ZM135 48.5C135 50.433 133.433 52 131.5 52C129.567 52 128 50.433 128 48.5C128 46.567 129.567 45 131.5 45C133.433 45 135 46.567 135 48.5ZM131.5 142C133.433 142 135 140.433 135 138.5C135 136.567 133.433 135 131.5 135C129.567 135 128 136.567 128 138.5C128 140.433 129.567 142 131.5 142ZM135 39.5C135 41.433 133.433 43 131.5 43C129.567 43 128 41.433 128 39.5C128 37.567 129.567 36 131.5 36C133.433 36 135 37.567 135 39.5ZM131.5 133C133.433 133 135 131.433 135 129.5C135 127.567 133.433 126 131.5 126C129.567 126 128 127.567 128 129.5C128 131.433 129.567 133 131.5 133ZM135 30.5C135 32.433 133.433 34 131.5 34C129.567 34 128 32.433 128 30.5C128 28.567 129.567 27 131.5 27C133.433 27 135 28.567 135 30.5ZM131.5 124C133.433 124 135 122.433 135 120.5C135 118.567 133.433 117 131.5 117C129.567 117 128 118.567 128 120.5C128 122.433 129.567 124 131.5 124ZM135 21.5C135 23.433 133.433 25 131.5 25C129.567 25 128 23.433 128 21.5C128 19.567 129.567 18 131.5 18C133.433 18 135 19.567 135 21.5ZM131.5 16C133.433 16 135 14.433 135 12.5C135 10.567 133.433 9 131.5 9C129.567 9 128 10.567 128 12.5C128 14.433 129.567 16 131.5 16ZM135 3.5C135 5.433 133.433 7 131.5 7C129.567 7 128 5.433 128 3.5C128 1.567 129.567 0 131.5 0C133.433 0 135 1.567 135 3.5ZM187.5 115C189.433 115 191 113.433 191 111.5C191 109.567 189.433 108 187.5 108C185.567 108 184 109.567 184 111.5C184 113.433 185.567 115 187.5 115ZM191 102.5C191 104.433 189.433 106 187.5 106C185.567 106 184 104.433 184 102.5C184 100.567 185.567 99 187.5 99C189.433 99 191 100.567 191 102.5ZM187.5 97C189.433 97 191 95.433 191 93.5C191 91.567 189.433 90 187.5 90C185.567 90 184 91.567 184 93.5C184 95.433 185.567 97 187.5 97ZM191 84.5C191 86.433 189.433 88 187.5 88C185.567 88 184 86.433 184 84.5C184 82.567 185.567 81 187.5 81C189.433 81 191 82.567 191 84.5ZM187.5 79C189.433 79 191 77.433 191 75.5C191 73.567 189.433 72 187.5 72C185.567 72 184 73.567 184 75.5C184 77.433 185.567 79 187.5 79ZM191 66.5C191 68.433 189.433 70 187.5 70C185.567 70 184 68.433 184 66.5C184 64.567 185.567 63 187.5 63C189.433 63 191 64.567 191 66.5ZM187.5 61C189.433 61 191 59.433 191 57.5C191 55.567 189.433 54 187.5 54C185.567 54 184 55.567 184 57.5C184 59.433 185.567 61 187.5 61ZM191 48.5C191 50.433 189.433 52 187.5 52C185.567 52 184 50.433 184 48.5C184 46.567 185.567 45 187.5 45C189.433 45 191 46.567 191 48.5ZM187.5 43C189.433 43 191 41.433 191 39.5C191 37.567 189.433 36 187.5 36C185.567 36 184 37.567 184 39.5C184 41.433 185.567 43 187.5 43ZM191 129.5C191 131.433 189.433 133 187.5 133C185.567 133 184 131.433 184 129.5C184 127.567 185.567 126 187.5 126C189.433 126 191 127.567 191 129.5ZM187.5 34C189.433 34 191 32.433 191 30.5C191 28.567 189.433 27 187.5 27C185.567 27 184 28.567 184 30.5C184 32.433 185.567 34 187.5 34ZM191 120.5C191 122.433 189.433 124 187.5 124C185.567 124 184 122.433 184 120.5C184 118.567 185.567 117 187.5 117C189.433 117 191 118.567 191 120.5ZM187.5 25C189.433 25 191 23.433 191 21.5C191 19.567 189.433 18 187.5 18C185.567 18 184 19.567 184 21.5C184 23.433 185.567 25 187.5 25ZM191 12.5C191 14.433 189.433 16 187.5 16C185.567 16 184 14.433 184 12.5C184 10.567 185.567 9 187.5 9C189.433 9 191 10.567 191 12.5ZM187.5 7C189.433 7 191 5.433 191 3.5C191 1.567 189.433 0 187.5 0C185.567 0 184 1.567 184 3.5C184 5.433 185.567 7 187.5 7ZM247 75.5C247 77.433 245.433 79 243.5 79C241.567 79 240 77.433 240 75.5C240 73.567 241.567 72 243.5 72C245.433 72 247 73.567 247 75.5ZM243.5 70C245.433 70 247 68.433 247 66.5C247 64.567 245.433 63 243.5 63C241.567 63 240 64.567 240 66.5C240 68.433 241.567 70 243.5 70ZM247 57.5C247 59.433 245.433 61 243.5 61C241.567 61 240 59.433 240 57.5C240 55.567 241.567 54 243.5 54C245.433 54 247 55.567 247 57.5ZM243.5 52C245.433 52 247 50.433 247 48.5C247 46.567 245.433 45 243.5 45C241.567 45 240 46.567 240 48.5C240 50.433 241.567 52 243.5 52ZM247 39.5C247 41.433 245.433 43 243.5 43C241.567 43 240 41.433 240 39.5C240 37.567 241.567 36 243.5 36C245.433 36 247 37.567 247 39.5ZM243.5 34C245.433 34 247 32.433 247 30.5C247 28.567 245.433 27 243.5 27C241.567 27 240 28.567 240 30.5C240 32.433 241.567 34 243.5 34ZM247 21.5C247 23.433 245.433 25 243.5 25C241.567 25 240 23.433 240 21.5C240 19.567 241.567 18 243.5 18C245.433 18 247 19.567 247 21.5ZM243.5 16C245.433 16 247 14.433 247 12.5C247 10.567 245.433 9 243.5 9C241.567 9 240 10.567 240 12.5C240 14.433 241.567 16 243.5 16ZM247 3.5C247 5.433 245.433 7 243.5 7C241.567 7 240 5.433 240 3.5C240 1.567 241.567 0 243.5 0C245.433 0 247 1.567 247 3.5ZM299.5 52C301.433 52 303 50.433 303 48.5C303 46.567 301.433 45 299.5 45C297.567 45 296 46.567 296 48.5C296 50.433 297.567 52 299.5 52ZM303 39.5C303 41.433 301.433 43 299.5 43C297.567 43 296 41.433 296 39.5C296 37.567 297.567 36 299.5 36C301.433 36 303 37.567 303 39.5ZM299.5 34C301.433 34 303 32.433 303 30.5C303 28.567 301.433 27 299.5 27C297.567 27 296 28.567 296 30.5C296 32.433 297.567 34 299.5 34ZM303 21.5C303 23.433 301.433 25 299.5 25C297.567 25 296 23.433 296 21.5C296 19.567 297.567 18 299.5 18C301.433 18 303 19.567 303 21.5ZM299.5 16C301.433 16 303 14.433 303 12.5C303 10.567 301.433 9 299.5 9C297.567 9 296 10.567 296 12.5C296 14.433 297.567 16 299.5 16ZM303 3.5C303 5.433 301.433 7 299.5 7C297.567 7 296 5.433 296 3.5C296 1.567 297.567 0 299.5 0C301.433 0 303 1.567 303 3.5ZM355.5 7C357.433 7 359 5.433 359 3.5C359 1.567 357.433 0 355.5 0C353.567 0 352 1.567 352 3.5C352 5.433 353.567 7 355.5 7ZM527 39.5C527 41.433 525.433 43 523.5 43C521.567 43 520 41.433 520 39.5C520 37.567 521.567 36 523.5 36C525.433 36 527 37.567 527 39.5ZM523.5 34C525.433 34 527 32.433 527 30.5C527 28.567 525.433 27 523.5 27C521.567 27 520 28.567 520 30.5C520 32.433 521.567 34 523.5 34ZM527 21.5C527 23.433 525.433 25 523.5 25C521.567 25 520 23.433 520 21.5C520 19.567 521.567 18 523.5 18C525.433 18 527 19.567 527 21.5ZM523.5 16C525.433 16 527 14.433 527 12.5C527 10.567 525.433 9 523.5 9C521.567 9 520 10.567 520 12.5C520 14.433 521.567 16 523.5 16ZM527 3.5C527 5.433 525.433 7 523.5 7C521.567 7 520 5.433 520 3.5C520 1.567 521.567 0 523.5 0C525.433 0 527 1.567 527 3.5ZM579.5 97C581.433 97 583 95.433 583 93.5C583 91.567 581.433 90 579.5 90C577.567 90 576 91.567 576 93.5C576 95.433 577.567 97 579.5 97ZM583 84.5C583 86.433 581.433 88 579.5 88C577.567 88 576 86.433 576 84.5C576 82.567 577.567 81 579.5 81C581.433 81 583 82.567 583 84.5ZM579.5 79C581.433 79 583 77.433 583 75.5C583 73.567 581.433 72 579.5 72C577.567 72 576 73.567 576 75.5C576 77.433 577.567 79 579.5 79ZM583 66.5C583 68.433 581.433 70 579.5 70C577.567 70 576 68.433 576 66.5C576 64.567 577.567 63 579.5 63C581.433 63 583 64.567 583 66.5ZM579.5 61C581.433 61 583 59.433 583 57.5C583 55.567 581.433 54 579.5 54C577.567 54 576 55.567 576 57.5C576 59.433 577.567 61 579.5 61ZM583 48.5C583 50.433 581.433 52 579.5 52C577.567 52 576 50.433 576 48.5C576 46.567 577.567 45 579.5 45C581.433 45 583 46.567 583 48.5ZM579.5 43C581.433 43 583 41.433 583 39.5C583 37.567 581.433 36 579.5 36C577.567 36 576 37.567 576 39.5C576 41.433 577.567 43 579.5 43ZM583 30.5C583 32.433 581.433 34 579.5 34C577.567 34 576 32.433 576 30.5C576 28.567 577.567 27 579.5 27C581.433 27 583 28.567 583 30.5ZM579.5 25C581.433 25 583 23.433 583 21.5C583 19.567 581.433 18 579.5 18C577.567 18 576 19.567 576 21.5C576 23.433 577.567 25 579.5 25ZM583 12.5C583 14.433 581.433 16 579.5 16C577.567 16 576 14.433 576 12.5C576 10.567 577.567 9 579.5 9C581.433 9 583 10.567 583 12.5ZM579.5 7C581.433 7 583 5.433 583 3.5C583 1.567 581.433 0 579.5 0C577.567 0 576 1.567 576 3.5C576 5.433 577.567 7 579.5 7ZM639 111.5C639 113.433 637.433 115 635.5 115C633.567 115 632 113.433 632 111.5C632 109.567 633.567 108 635.5 108C637.433 108 639 109.567 639 111.5ZM635.5 106C637.433 106 639 104.433 639 102.5C639 100.567 637.433 99 635.5 99C633.567 99 632 100.567 632 102.5C632 104.433 633.567 106 635.5 106ZM639 93.5C639 95.433 637.433 97 635.5 97C633.567 97 632 95.433 632 93.5C632 91.567 633.567 90 635.5 90C637.433 90 639 91.567 639 93.5ZM635.5 88C637.433 88 639 86.433 639 84.5C639 82.567 637.433 81 635.5 81C633.567 81 632 82.567 632 84.5C632 86.433 633.567 88 635.5 88ZM639 75.5C639 77.433 637.433 79 635.5 79C633.567 79 632 77.433 632 75.5C632 73.567 633.567 72 635.5 72C637.433 72 639 73.567 639 75.5ZM635.5 70C637.433 70 639 68.433 639 66.5C639 64.567 637.433 63 635.5 63C633.567 63 632 64.567 632 66.5C632 68.433 633.567 70 635.5 70ZM639 57.5C639 59.433 637.433 61 635.5 61C633.567 61 632 59.433 632 57.5C632 55.567 633.567 54 635.5 54C637.433 54 639 55.567 639 57.5ZM635.5 52C637.433 52 639 50.433 639 48.5C639 46.567 637.433 45 635.5 45C633.567 45 632 46.567 632 48.5C632 50.433 633.567 52 635.5 52ZM639 39.5C639 41.433 637.433 43 635.5 43C633.567 43 632 41.433 632 39.5C632 37.567 633.567 36 635.5 36C637.433 36 639 37.567 639 39.5ZM635.5 133C637.433 133 639 131.433 639 129.5C639 127.567 637.433 126 635.5 126C633.567 126 632 127.567 632 129.5C632 131.433 633.567 133 635.5 133ZM639 30.5C639 32.433 637.433 34 635.5 34C633.567 34 632 32.433 632 30.5C632 28.567 633.567 27 635.5 27C637.433 27 639 28.567 639 30.5ZM635.5 124C637.433 124 639 122.433 639 120.5C639 118.567 637.433 117 635.5 117C633.567 117 632 118.567 632 120.5C632 122.433 633.567 124 635.5 124ZM639 21.5C639 23.433 637.433 25 635.5 25C633.567 25 632 23.433 632 21.5C632 19.567 633.567 18 635.5 18C637.433 18 639 19.567 639 21.5ZM635.5 16C637.433 16 639 14.433 639 12.5C639 10.567 637.433 9 635.5 9C633.567 9 632 10.567 632 12.5C632 14.433 633.567 16 635.5 16ZM639 3.5C639 5.433 637.433 7 635.5 7C633.567 7 632 5.433 632 3.5C632 1.567 633.567 0 635.5 0C637.433 0 639 1.567 639 3.5ZM691.5 115C693.433 115 695 113.433 695 111.5C695 109.567 693.433 108 691.5 108C689.567 108 688 109.567 688 111.5C688 113.433 689.567 115 691.5 115ZM695 102.5C695 104.433 693.433 106 691.5 106C689.567 106 688 104.433 688 102.5C688 100.567 689.567 99 691.5 99C693.433 99 695 100.567 695 102.5ZM691.5 97C693.433 97 695 95.433 695 93.5C695 91.567 693.433 90 691.5 90C689.567 90 688 91.567 688 93.5C688 95.433 689.567 97 691.5 97ZM695 183.5C695 185.433 693.433 187 691.5 187C689.567 187 688 185.433 688 183.5C688 181.567 689.567 180 691.5 180C693.433 180 695 181.567 695 183.5ZM691.5 88C693.433 88 695 86.433 695 84.5C695 82.567 693.433 81 691.5 81C689.567 81 688 82.567 688 84.5C688 86.433 689.567 88 691.5 88ZM695 174.5C695 176.433 693.433 178 691.5 178C689.567 178 688 176.433 688 174.5C688 172.567 689.567 171 691.5 171C693.433 171 695 172.567 695 174.5ZM691.5 79C693.433 79 695 77.433 695 75.5C695 73.567 693.433 72 691.5 72C689.567 72 688 73.567 688 75.5C688 77.433 689.567 79 691.5 79ZM695 165.5C695 167.433 693.433 169 691.5 169C689.567 169 688 167.433 688 165.5C688 163.567 689.567 162 691.5 162C693.433 162 695 163.567 695 165.5ZM691.5 70C693.433 70 695 68.433 695 66.5C695 64.567 693.433 63 691.5 63C689.567 63 688 64.567 688 66.5C688 68.433 689.567 70 691.5 70ZM695 156.5C695 158.433 693.433 160 691.5 160C689.567 160 688 158.433 688 156.5C688 154.567 689.567 153 691.5 153C693.433 153 695 154.567 695 156.5ZM691.5 61C693.433 61 695 59.433 695 57.5C695 55.567 693.433 54 691.5 54C689.567 54 688 55.567 688 57.5C688 59.433 689.567 61 691.5 61ZM695 147.5C695 149.433 693.433 151 691.5 151C689.567 151 688 149.433 688 147.5C688 145.567 689.567 144 691.5 144C693.433 144 695 145.567 695 147.5ZM691.5 52C693.433 52 695 50.433 695 48.5C695 46.567 693.433 45 691.5 45C689.567 45 688 46.567 688 48.5C688 50.433 689.567 52 691.5 52ZM695 138.5C695 140.433 693.433 142 691.5 142C689.567 142 688 140.433 688 138.5C688 136.567 689.567 135 691.5 135C693.433 135 695 136.567 695 138.5ZM691.5 43C693.433 43 695 41.433 695 39.5C695 37.567 693.433 36 691.5 36C689.567 36 688 37.567 688 39.5C688 41.433 689.567 43 691.5 43ZM695 129.5C695 131.433 693.433 133 691.5 133C689.567 133 688 131.433 688 129.5C688 127.567 689.567 126 691.5 126C693.433 126 695 127.567 695 129.5ZM691.5 34C693.433 34 695 32.433 695 30.5C695 28.567 693.433 27 691.5 27C689.567 27 688 28.567 688 30.5C688 32.433 689.567 34 691.5 34ZM695 120.5C695 122.433 693.433 124 691.5 124C689.567 124 688 122.433 688 120.5C688 118.567 689.567 117 691.5 117C693.433 117 695 118.567 695 120.5ZM691.5 25C693.433 25 695 23.433 695 21.5C695 19.567 693.433 18 691.5 18C689.567 18 688 19.567 688 21.5C688 23.433 689.567 25 691.5 25ZM695 12.5C695 14.433 693.433 16 691.5 16C689.567 16 688 14.433 688 12.5C688 10.567 689.567 9 691.5 9C693.433 9 695 10.567 695 12.5ZM691.5 7C693.433 7 695 5.433 695 3.5C695 1.567 693.433 0 691.5 0C689.567 0 688 1.567 688 3.5C688 5.433 689.567 7 691.5 7Z" fill="#38BA9B" fill-opacity="0.1"/>
<path d="M27.2014 275.568C26.7907 275.568 26.4127 275.47 26.0674 275.274C25.7314 275.078 25.4654 274.812 25.2694 274.476C25.0734 274.131 24.9754 273.753 24.9754 273.342C24.9754 272.941 25.0734 272.572 25.2694 272.236C25.4654 271.891 25.7314 271.62 26.0674 271.424C26.4127 271.228 26.7907 271.13 27.2014 271.13C27.6121 271.13 27.9901 271.228 28.3354 271.424C28.6807 271.62 28.9514 271.891 29.1474 272.236C29.3434 272.572 29.4414 272.941 29.4414 273.342C29.4414 273.753 29.3434 274.131 29.1474 274.476C28.9514 274.812 28.6807 275.078 28.3354 275.274C27.9901 275.47 27.6121 275.568 27.2014 275.568ZM27.2014 274.98C27.6587 274.98 28.0414 274.826 28.3494 274.518C28.6667 274.201 28.8254 273.809 28.8254 273.342C28.8254 272.885 28.6667 272.502 28.3494 272.194C28.0414 271.877 27.6587 271.718 27.2014 271.718C26.7441 271.718 26.3614 271.877 26.0534 272.194C25.7454 272.502 25.5914 272.885 25.5914 273.342C25.5914 273.809 25.7454 274.201 26.0534 274.518C26.3614 274.826 26.7441 274.98 27.2014 274.98ZM32.7726 272.096V275.946H37.8406V276.842H32.7726V281H31.7366V271.2H38.4566V272.096H32.7726Z" fill="#2D2B2C"/>
<path d="M68.9741 275.4C70.0007 275.456 70.7801 275.736 71.3121 276.24C71.8534 276.735 72.1241 277.383 72.1241 278.186C72.1241 278.746 71.9887 279.245 71.7181 279.684C71.4474 280.113 71.0461 280.454 70.5141 280.706C69.9821 280.958 69.3334 281.084 68.5681 281.084C67.8587 281.084 67.1867 280.972 66.5521 280.748C65.9267 280.515 65.4227 280.207 65.0401 279.824L65.5301 279.026C65.8567 279.362 66.2907 279.637 66.8321 279.852C67.3734 280.057 67.9521 280.16 68.5681 280.16C69.3707 280.16 69.9914 279.987 70.4301 279.642C70.8687 279.287 71.0881 278.802 71.0881 278.186C71.0881 277.579 70.8687 277.103 70.4301 276.758C69.9914 276.413 69.3287 276.24 68.4421 276.24H67.7421V275.498L70.4581 272.096H65.4461V271.2H71.7461V271.914L68.9741 275.4ZM78.4504 281.084C77.6944 281.084 77.0177 280.883 76.4204 280.482C75.8324 280.081 75.3704 279.507 75.0344 278.76C74.7077 278.004 74.5444 277.117 74.5444 276.1C74.5444 275.083 74.7077 274.201 75.0344 273.454C75.3704 272.698 75.8324 272.119 76.4204 271.718C77.0177 271.317 77.6944 271.116 78.4504 271.116C79.2064 271.116 79.8784 271.317 80.4664 271.718C81.0637 272.119 81.5304 272.698 81.8664 273.454C82.2024 274.201 82.3704 275.083 82.3704 276.1C82.3704 277.117 82.2024 278.004 81.8664 278.76C81.5304 279.507 81.0637 280.081 80.4664 280.482C79.8784 280.883 79.2064 281.084 78.4504 281.084ZM78.4504 280.16C79.0197 280.16 79.5191 280.001 79.9484 279.684C80.3871 279.367 80.7277 278.905 80.9704 278.298C81.2131 277.691 81.3344 276.959 81.3344 276.1C81.3344 275.241 81.2131 274.509 80.9704 273.902C80.7277 273.295 80.3871 272.833 79.9484 272.516C79.5191 272.199 79.0197 272.04 78.4504 272.04C77.8811 272.04 77.3771 272.199 76.9384 272.516C76.5091 272.833 76.1731 273.295 75.9304 273.902C75.6877 274.509 75.5664 275.241 75.5664 276.1C75.5664 276.959 75.6877 277.691 75.9304 278.298C76.1731 278.905 76.5091 279.367 76.9384 279.684C77.3771 280.001 77.8811 280.16 78.4504 280.16Z" fill="#38BA9B"/>
<path d="M408.524 271.2V271.914L404.422 281H403.33L407.362 272.096H402.322V273.93H401.328V271.2H408.524ZM414.485 281.084C413.729 281.084 413.052 280.883 412.455 280.482C411.867 280.081 411.405 279.507 411.069 278.76C410.742 278.004 410.579 277.117 410.579 276.1C410.579 275.083 410.742 274.201 411.069 273.454C411.405 272.698 411.867 272.119 412.455 271.718C413.052 271.317 413.729 271.116 414.485 271.116C415.241 271.116 415.913 271.317 416.501 271.718C417.098 272.119 417.565 272.698 417.901 273.454C418.237 274.201 418.405 275.083 418.405 276.1C418.405 277.117 418.237 278.004 417.901 278.76C417.565 279.507 417.098 280.081 416.501 280.482C415.913 280.883 415.241 281.084 414.485 281.084ZM414.485 280.16C415.054 280.16 415.553 280.001 415.983 279.684C416.421 279.367 416.762 278.905 417.005 278.298C417.247 277.691 417.369 276.959 417.369 276.1C417.369 275.241 417.247 274.509 417.005 273.902C416.762 273.295 416.421 272.833 415.983 272.516C415.553 272.199 415.054 272.04 414.485 272.04C413.915 272.04 413.411 272.199 412.973 272.516C412.543 272.833 412.207 273.295 411.965 273.902C411.722 274.509 411.601 275.241 411.601 276.1C411.601 276.959 411.722 277.691 411.965 278.298C412.207 278.905 412.543 279.367 412.973 279.684C413.411 280.001 413.915 280.16 414.485 280.16Z" fill="#38BA9B"/>
<path d="M236.204 275.218C237.623 275.218 238.654 275.475 239.298 275.988C239.952 276.492 240.278 277.201 240.278 278.116C240.278 278.685 240.143 279.194 239.872 279.642C239.611 280.09 239.214 280.445 238.682 280.706C238.15 280.958 237.497 281.084 236.722 281.084C236.022 281.084 235.355 280.972 234.72 280.748C234.095 280.515 233.591 280.207 233.208 279.824L233.698 279.026C234.025 279.362 234.454 279.637 234.986 279.852C235.518 280.057 236.092 280.16 236.708 280.16C237.52 280.16 238.146 279.978 238.584 279.614C239.032 279.25 239.256 278.765 239.256 278.158C239.256 277.486 239.004 276.977 238.5 276.632C238.006 276.287 237.166 276.114 235.98 276.114H233.894L234.398 271.2H239.76V272.096H235.28L234.944 275.218H236.204ZM246.464 281.084C245.708 281.084 245.031 280.883 244.434 280.482C243.846 280.081 243.384 279.507 243.048 278.76C242.721 278.004 242.558 277.117 242.558 276.1C242.558 275.083 242.721 274.201 243.048 273.454C243.384 272.698 243.846 272.119 244.434 271.718C245.031 271.317 245.708 271.116 246.464 271.116C247.22 271.116 247.892 271.317 248.48 271.718C249.077 272.119 249.544 272.698 249.88 273.454C250.216 274.201 250.384 275.083 250.384 276.1C250.384 277.117 250.216 278.004 249.88 278.76C249.544 279.507 249.077 280.081 248.48 280.482C247.892 280.883 247.22 281.084 246.464 281.084ZM246.464 280.16C247.033 280.16 247.533 280.001 247.962 279.684C248.401 279.367 248.741 278.905 248.984 278.298C249.227 277.691 249.348 276.959 249.348 276.1C249.348 275.241 249.227 274.509 248.984 273.902C248.741 273.295 248.401 272.833 247.962 272.516C247.533 272.199 247.033 272.04 246.464 272.04C245.895 272.04 245.391 272.199 244.952 272.516C244.523 272.833 244.187 273.295 243.944 273.902C243.701 274.509 243.58 275.241 243.58 276.1C243.58 276.959 243.701 277.691 243.944 278.298C244.187 278.905 244.523 279.367 244.952 279.684C245.391 280.001 245.895 280.16 246.464 280.16Z" fill="#38BA9B"/>
<path d="M572.895 275.218C574.313 275.218 575.345 275.475 575.989 275.988C576.642 276.492 576.969 277.201 576.969 278.116C576.969 278.685 576.833 279.194 576.563 279.642C576.301 280.09 575.905 280.445 575.373 280.706C574.841 280.958 574.187 281.084 573.413 281.084C572.713 281.084 572.045 280.972 571.411 280.748C570.785 280.515 570.281 280.207 569.899 279.824L570.389 279.026C570.715 279.362 571.145 279.637 571.677 279.852C572.209 280.057 572.783 280.16 573.399 280.16C574.211 280.16 574.836 279.978 575.275 279.614C575.723 279.25 575.947 278.765 575.947 278.158C575.947 277.486 575.695 276.977 575.191 276.632C574.696 276.287 573.856 276.114 572.671 276.114H570.585L571.089 271.2H576.451V272.096H571.971L571.635 275.218H572.895ZM585.872 280.104V281H578.998V280.286L583.072 276.296C583.585 275.792 583.931 275.358 584.108 274.994C584.295 274.621 584.388 274.247 584.388 273.874C584.388 273.295 584.187 272.847 583.786 272.53C583.394 272.203 582.829 272.04 582.092 272.04C580.944 272.04 580.053 272.404 579.418 273.132L578.704 272.516C579.087 272.068 579.572 271.723 580.16 271.48C580.757 271.237 581.429 271.116 582.176 271.116C583.175 271.116 583.963 271.354 584.542 271.83C585.13 272.297 585.424 272.941 585.424 273.762C585.424 274.266 585.312 274.751 585.088 275.218C584.864 275.685 584.439 276.221 583.814 276.828L580.482 280.104H585.872Z" fill="#38BA9B"/>
<path d="M124.981 275.4C126.008 275.456 126.787 275.736 127.319 276.24C127.86 276.735 128.131 277.383 128.131 278.186C128.131 278.746 127.996 279.245 127.725 279.684C127.454 280.113 127.053 280.454 126.521 280.706C125.989 280.958 125.34 281.084 124.575 281.084C123.866 281.084 123.194 280.972 122.559 280.748C121.934 280.515 121.43 280.207 121.047 279.824L121.537 279.026C121.864 279.362 122.298 279.637 122.839 279.852C123.38 280.057 123.959 280.16 124.575 280.16C125.378 280.16 125.998 279.987 126.437 279.642C126.876 279.287 127.095 278.802 127.095 278.186C127.095 277.579 126.876 277.103 126.437 276.758C125.998 276.413 125.336 276.24 124.449 276.24H123.749V275.498L126.465 272.096H121.453V271.2H127.753V271.914L124.981 275.4ZM138.881 278.424H136.921V281H135.913V278.424H130.383V277.696L135.577 271.2H136.697L131.685 277.528H135.941V275.26H136.921V277.528H138.881V278.424Z" fill="#38BA9B"/>
<path d="M461.559 275.134C462.203 275.134 462.772 275.255 463.267 275.498C463.771 275.741 464.163 276.086 464.443 276.534C464.723 276.973 464.863 277.486 464.863 278.074C464.863 278.671 464.718 279.199 464.429 279.656C464.139 280.113 463.738 280.468 463.225 280.72C462.721 280.963 462.151 281.084 461.517 281.084C460.219 281.084 459.225 280.659 458.535 279.81C457.844 278.951 457.499 277.743 457.499 276.184C457.499 275.092 457.685 274.168 458.059 273.412C458.432 272.656 458.955 272.087 459.627 271.704C460.299 271.312 461.083 271.116 461.979 271.116C462.949 271.116 463.724 271.293 464.303 271.648L463.897 272.46C463.43 272.152 462.795 271.998 461.993 271.998C460.91 271.998 460.061 272.343 459.445 273.034C458.829 273.715 458.521 274.709 458.521 276.016C458.521 276.249 458.535 276.515 458.563 276.814C458.805 276.282 459.193 275.871 459.725 275.582C460.257 275.283 460.868 275.134 461.559 275.134ZM461.475 280.23C462.184 280.23 462.758 280.039 463.197 279.656C463.645 279.264 463.869 278.746 463.869 278.102C463.869 277.458 463.645 276.945 463.197 276.562C462.758 276.179 462.161 275.988 461.405 275.988C460.91 275.988 460.471 276.081 460.089 276.268C459.715 276.455 459.421 276.711 459.207 277.038C458.992 277.365 458.885 277.729 458.885 278.13C458.885 278.503 458.983 278.849 459.179 279.166C459.384 279.483 459.683 279.74 460.075 279.936C460.467 280.132 460.933 280.23 461.475 280.23ZM472.644 275.862C473.26 276.067 473.731 276.375 474.058 276.786C474.394 277.197 474.562 277.691 474.562 278.27C474.562 278.839 474.408 279.339 474.1 279.768C473.792 280.188 473.348 280.515 472.77 280.748C472.2 280.972 471.528 281.084 470.754 281.084C469.578 281.084 468.654 280.832 467.982 280.328C467.31 279.824 466.974 279.138 466.974 278.27C466.974 277.682 467.132 277.187 467.45 276.786C467.776 276.375 468.248 276.067 468.864 275.862C468.36 275.666 467.977 275.386 467.716 275.022C467.454 274.649 467.324 274.21 467.324 273.706C467.324 272.913 467.632 272.283 468.248 271.816C468.873 271.349 469.708 271.116 470.754 271.116C471.444 271.116 472.046 271.223 472.56 271.438C473.082 271.643 473.488 271.942 473.778 272.334C474.067 272.726 474.212 273.183 474.212 273.706C474.212 274.21 474.076 274.649 473.806 275.022C473.535 275.386 473.148 275.666 472.644 275.862ZM468.332 273.734C468.332 274.275 468.546 274.705 468.976 275.022C469.405 275.339 469.998 275.498 470.754 275.498C471.51 275.498 472.102 275.339 472.532 275.022C472.97 274.705 473.19 274.28 473.19 273.748C473.19 273.197 472.966 272.763 472.518 272.446C472.079 272.129 471.491 271.97 470.754 271.97C470.007 271.97 469.414 272.129 468.976 272.446C468.546 272.763 468.332 273.193 468.332 273.734ZM470.754 280.23C471.622 280.23 472.298 280.053 472.784 279.698C473.278 279.343 473.526 278.863 473.526 278.256C473.526 277.649 473.278 277.173 472.784 276.828C472.298 276.473 471.622 276.296 470.754 276.296C469.895 276.296 469.218 276.473 468.724 276.828C468.238 277.173 467.996 277.649 467.996 278.256C467.996 278.872 468.238 279.357 468.724 279.712C469.209 280.057 469.886 280.23 470.754 280.23Z" fill="#38BA9B"/>
<path d="M295.493 275.134C296.137 275.134 296.706 275.255 297.201 275.498C297.705 275.741 298.097 276.086 298.377 276.534C298.657 276.973 298.797 277.486 298.797 278.074C298.797 278.671 298.652 279.199 298.363 279.656C298.074 280.113 297.672 280.468 297.159 280.72C296.655 280.963 296.086 281.084 295.451 281.084C294.154 281.084 293.16 280.659 292.469 279.81C291.778 278.951 291.433 277.743 291.433 276.184C291.433 275.092 291.62 274.168 291.993 273.412C292.366 272.656 292.889 272.087 293.561 271.704C294.233 271.312 295.017 271.116 295.913 271.116C296.884 271.116 297.658 271.293 298.237 271.648L297.831 272.46C297.364 272.152 296.73 271.998 295.927 271.998C294.844 271.998 293.995 272.343 293.379 273.034C292.763 273.715 292.455 274.709 292.455 276.016C292.455 276.249 292.469 276.515 292.497 276.814C292.74 276.282 293.127 275.871 293.659 275.582C294.191 275.283 294.802 275.134 295.493 275.134ZM295.409 280.23C296.118 280.23 296.692 280.039 297.131 279.656C297.579 279.264 297.803 278.746 297.803 278.102C297.803 277.458 297.579 276.945 297.131 276.562C296.692 276.179 296.095 275.988 295.339 275.988C294.844 275.988 294.406 276.081 294.023 276.268C293.65 276.455 293.356 276.711 293.141 277.038C292.926 277.365 292.819 277.729 292.819 278.13C292.819 278.503 292.917 278.849 293.113 279.166C293.318 279.483 293.617 279.74 294.009 279.936C294.401 280.132 294.868 280.23 295.409 280.23ZM303.68 271.2V281H302.672V272.096H300.362V271.2H303.68Z" fill="#38BA9B"/>
<path d="M629.343 275.4C630.37 275.456 631.149 275.736 631.681 276.24C632.223 276.735 632.493 277.383 632.493 278.186C632.493 278.746 632.358 279.245 632.087 279.684C631.817 280.113 631.415 280.454 630.883 280.706C630.351 280.958 629.703 281.084 628.937 281.084C628.228 281.084 627.556 280.972 626.921 280.748C626.296 280.515 625.792 280.207 625.409 279.824L625.899 279.026C626.226 279.362 626.66 279.637 627.201 279.852C627.743 280.057 628.321 280.16 628.937 280.16C629.74 280.16 630.361 279.987 630.799 279.642C631.238 279.287 631.457 278.802 631.457 278.186C631.457 277.579 631.238 277.103 630.799 276.758C630.361 276.413 629.698 276.24 628.811 276.24H628.111V275.498L630.827 272.096H625.815V271.2H632.115V271.914L629.343 275.4ZM637.966 271.116C639.263 271.116 640.257 271.545 640.948 272.404C641.638 273.253 641.984 274.457 641.984 276.016C641.984 277.108 641.797 278.032 641.424 278.788C641.05 279.544 640.528 280.118 639.856 280.51C639.184 280.893 638.4 281.084 637.504 281.084C636.533 281.084 635.758 280.907 635.18 280.552L635.586 279.74C636.052 280.048 636.687 280.202 637.49 280.202C638.572 280.202 639.422 279.861 640.038 279.18C640.654 278.489 640.962 277.491 640.962 276.184C640.962 275.941 640.948 275.675 640.92 275.386C640.677 275.918 640.29 276.333 639.758 276.632C639.226 276.921 638.614 277.066 637.924 277.066C637.28 277.066 636.706 276.945 636.202 276.702C635.707 276.459 635.32 276.119 635.04 275.68C634.76 275.232 634.62 274.714 634.62 274.126C634.62 273.529 634.764 273.001 635.054 272.544C635.343 272.087 635.74 271.737 636.244 271.494C636.757 271.242 637.331 271.116 637.966 271.116ZM638.078 276.212C638.572 276.212 639.006 276.119 639.38 275.932C639.762 275.745 640.061 275.489 640.276 275.162C640.49 274.835 640.598 274.471 640.598 274.07C640.598 273.697 640.495 273.351 640.29 273.034C640.094 272.717 639.8 272.46 639.408 272.264C639.016 272.068 638.549 271.97 638.008 271.97C637.298 271.97 636.72 272.166 636.272 272.558C635.833 272.941 635.614 273.454 635.614 274.098C635.614 274.742 635.833 275.255 636.272 275.638C636.72 276.021 637.322 276.212 638.078 276.212Z" fill="#38BA9B"/>
<path d="M186.081 278.424H184.121V281H183.113V278.424H177.583V277.696L182.777 271.2H183.897L178.885 277.528H183.141V275.26H184.121V277.528H186.081V278.424ZM191.134 275.4C192.161 275.456 192.94 275.736 193.472 276.24C194.014 276.735 194.284 277.383 194.284 278.186C194.284 278.746 194.149 279.245 193.878 279.684C193.608 280.113 193.206 280.454 192.674 280.706C192.142 280.958 191.494 281.084 190.728 281.084C190.019 281.084 189.347 280.972 188.712 280.748C188.087 280.515 187.583 280.207 187.2 279.824L187.69 279.026C188.017 279.362 188.451 279.637 188.992 279.852C189.534 280.057 190.112 280.16 190.728 280.16C191.531 280.16 192.152 279.987 192.59 279.642C193.029 279.287 193.248 278.802 193.248 278.186C193.248 277.579 193.029 277.103 192.59 276.758C192.152 276.413 191.489 276.24 190.602 276.24H189.902V275.498L192.618 272.096H187.606V271.2H193.906V271.914L191.134 275.4Z" fill="#38BA9B"/>
<path d="M518.071 275.134C518.715 275.134 519.285 275.255 519.779 275.498C520.283 275.741 520.675 276.086 520.955 276.534C521.235 276.973 521.375 277.486 521.375 278.074C521.375 278.671 521.231 279.199 520.941 279.656C520.652 280.113 520.251 280.468 519.737 280.72C519.233 280.963 518.664 281.084 518.029 281.084C516.732 281.084 515.738 280.659 515.047 279.81C514.357 278.951 514.011 277.743 514.011 276.184C514.011 275.092 514.198 274.168 514.571 273.412C514.945 272.656 515.467 272.087 516.139 271.704C516.811 271.312 517.595 271.116 518.491 271.116C519.462 271.116 520.237 271.293 520.815 271.648L520.409 272.46C519.943 272.152 519.308 271.998 518.505 271.998C517.423 271.998 516.573 272.343 515.957 273.034C515.341 273.715 515.033 274.709 515.033 276.016C515.033 276.249 515.047 276.515 515.075 276.814C515.318 276.282 515.705 275.871 516.237 275.582C516.769 275.283 517.381 275.134 518.071 275.134ZM517.987 280.23C518.697 280.23 519.271 280.039 519.709 279.656C520.157 279.264 520.381 278.746 520.381 278.102C520.381 277.458 520.157 276.945 519.709 276.562C519.271 276.179 518.673 275.988 517.917 275.988C517.423 275.988 516.984 276.081 516.601 276.268C516.228 276.455 515.934 276.711 515.719 277.038C515.505 277.365 515.397 277.729 515.397 278.13C515.397 278.503 515.495 278.849 515.691 279.166C515.897 279.483 516.195 279.74 516.587 279.936C516.979 280.132 517.446 280.23 517.987 280.23ZM526.874 275.4C527.901 275.456 528.68 275.736 529.212 276.24C529.754 276.735 530.024 277.383 530.024 278.186C530.024 278.746 529.889 279.245 529.618 279.684C529.348 280.113 528.946 280.454 528.414 280.706C527.882 280.958 527.234 281.084 526.468 281.084C525.759 281.084 525.087 280.972 524.452 280.748C523.827 280.515 523.323 280.207 522.94 279.824L523.43 279.026C523.757 279.362 524.191 279.637 524.732 279.852C525.274 280.057 525.852 280.16 526.468 280.16C527.271 280.16 527.892 279.987 528.33 279.642C528.769 279.287 528.988 278.802 528.988 278.186C528.988 277.579 528.769 277.103 528.33 276.758C527.892 276.413 527.229 276.24 526.342 276.24H525.642V275.498L528.358 272.096H523.346V271.2H529.646V271.914L526.874 275.4Z" fill="#38BA9B"/>
<path d="M349.757 275.134C350.401 275.134 350.97 275.255 351.465 275.498C351.969 275.741 352.361 276.086 352.641 276.534C352.921 276.973 353.061 277.486 353.061 278.074C353.061 278.671 352.916 279.199 352.627 279.656C352.337 280.113 351.936 280.468 351.423 280.72C350.919 280.963 350.349 281.084 349.715 281.084C348.417 281.084 347.423 280.659 346.733 279.81C346.042 278.951 345.697 277.743 345.697 276.184C345.697 275.092 345.883 274.168 346.257 273.412C346.63 272.656 347.153 272.087 347.825 271.704C348.497 271.312 349.281 271.116 350.177 271.116C351.147 271.116 351.922 271.293 352.501 271.648L352.095 272.46C351.628 272.152 350.993 271.998 350.191 271.998C349.108 271.998 348.259 272.343 347.643 273.034C347.027 273.715 346.719 274.709 346.719 276.016C346.719 276.249 346.733 276.515 346.761 276.814C347.003 276.282 347.391 275.871 347.923 275.582C348.455 275.283 349.066 275.134 349.757 275.134ZM349.673 280.23C350.382 280.23 350.956 280.039 351.395 279.656C351.843 279.264 352.067 278.746 352.067 278.102C352.067 277.458 351.843 276.945 351.395 276.562C350.956 276.179 350.359 275.988 349.603 275.988C349.108 275.988 348.669 276.081 348.287 276.268C347.913 276.455 347.619 276.711 347.405 277.038C347.19 277.365 347.083 277.729 347.083 278.13C347.083 278.503 347.181 278.849 347.377 279.166C347.582 279.483 347.881 279.74 348.273 279.936C348.665 280.132 349.131 280.23 349.673 280.23ZM359.288 275.134C359.932 275.134 360.501 275.255 360.996 275.498C361.5 275.741 361.892 276.086 362.172 276.534C362.452 276.973 362.592 277.486 362.592 278.074C362.592 278.671 362.447 279.199 362.158 279.656C361.869 280.113 361.467 280.468 360.954 280.72C360.45 280.963 359.881 281.084 359.246 281.084C357.949 281.084 356.955 280.659 356.264 279.81C355.573 278.951 355.228 277.743 355.228 276.184C355.228 275.092 355.415 274.168 355.788 273.412C356.161 272.656 356.684 272.087 357.356 271.704C358.028 271.312 358.812 271.116 359.708 271.116C360.679 271.116 361.453 271.293 362.032 271.648L361.626 272.46C361.159 272.152 360.525 271.998 359.722 271.998C358.639 271.998 357.79 272.343 357.174 273.034C356.558 273.715 356.25 274.709 356.25 276.016C356.25 276.249 356.264 276.515 356.292 276.814C356.535 276.282 356.922 275.871 357.454 275.582C357.986 275.283 358.597 275.134 359.288 275.134ZM359.204 280.23C359.913 280.23 360.487 280.039 360.926 279.656C361.374 279.264 361.598 278.746 361.598 278.102C361.598 277.458 361.374 276.945 360.926 276.562C360.487 276.179 359.89 275.988 359.134 275.988C358.639 275.988 358.201 276.081 357.818 276.268C357.445 276.455 357.151 276.711 356.936 277.038C356.721 277.365 356.614 277.729 356.614 278.13C356.614 278.503 356.712 278.849 356.908 279.166C357.113 279.483 357.412 279.74 357.804 279.936C358.196 280.132 358.663 280.23 359.204 280.23Z" fill="#38BA9B"/>
<path d="M684.981 275.4C686.008 275.456 686.787 275.736 687.319 276.24C687.86 276.735 688.131 277.383 688.131 278.186C688.131 278.746 687.996 279.245 687.725 279.684C687.454 280.113 687.053 280.454 686.521 280.706C685.989 280.958 685.34 281.084 684.575 281.084C683.866 281.084 683.194 280.972 682.559 280.748C681.934 280.515 681.43 280.207 681.047 279.824L681.537 279.026C681.864 279.362 682.298 279.637 682.839 279.852C683.38 280.057 683.959 280.16 684.575 280.16C685.378 280.16 685.998 279.987 686.437 279.642C686.876 279.287 687.095 278.802 687.095 278.186C687.095 277.579 686.876 277.103 686.437 276.758C685.998 276.413 685.336 276.24 684.449 276.24H683.749V275.498L686.465 272.096H681.453V271.2H687.753V271.914L684.981 275.4ZM698.881 278.424H696.921V281H695.913V278.424H690.383V277.696L695.577 271.2H696.697L691.685 277.528H695.941V275.26H696.921V277.528H698.881V278.424Z" fill="#38BA9B"/>
</svg>
