<svg xmlns="http://www.w3.org/2000/svg" font-family="tahoma, geneva, sans-serif" font-size="12" style="user-select:none" text-rendering="geometricPrecision"><defs><linearGradient id="c" x1="0" x2="0" y1="0" y2="1"><stop offset="0%" stop-color="#FFF" stop-opacity=".706"/><stop offset=".04%" stop-color="#FFF" stop-opacity=".706"/><stop offset=".04%" stop-color="#F7F7F7" stop-opacity=".412"/><stop offset="35%" stop-color="#F7F7F7" stop-opacity=".118"/><stop offset="60%" stop-color="#FBFBFB" stop-opacity=".029"/><stop offset="100%" stop-color="#F7F7F7" stop-opacity=".324"/></linearGradient><linearGradient id="a" x1="0" x2="0" y1="0" y2="1"><stop offset="0" stop-color="#222"/><stop offset="0" stop-color="#fff"/><stop offset=".85" stop-color="#fff"/><stop offset="1" stop-color="#222"/></linearGradient><clipPath id="b"><path fill="none" d="M-.654-1.44h386v245h-386Z"/></clipPath><clipPath id="d"><path d="M0 0h123.65v232.658H0z"/></clipPath><mask id="e"><path fill="url(#a)" d="M0 0h123.65v232.658H0Z"/></mask></defs><path fill="#FFF" d="M3 8V3h412v294H3v-5Z"/><path fill="none" d="m31 8 5-5h120v28H31v-5Z"/><text fill="#323232" font-size="14" transform="translate(36.154 8.5)"><tspan x="0" y="13.383" style="white-space:pre">Point Marker Types</tspan></text><g clip-path="url(#b)" transform="translate(30.654 31.44)"><rect width="384" height="243" x=".346" y="-.44" fill="rgba(0,0,0,0)" rx="0" ry="0"/><path fill="url(#c)" fill-rule="evenodd" d="M.346 243.06h384v-30h-384ZM.346 182.06h384v-30h-384ZM.346 121.06h384v-30h-384ZM.346 61.06h384v-31h-384Z"/><path fill="none" stroke="#DFDFDF" stroke-dasharray="3,1" stroke-linejoin="round" stroke-opacity=".59" d="M15.846-.44v243"/><path fill="none" stroke="#E6E6E6" stroke-linejoin="round" d="M54.846-.44v243"/><path fill="none" stroke="#DFDFDF" stroke-dasharray="3,1" stroke-linejoin="round" stroke-opacity=".59" d="M93.846-.44v243M132.846-.44v243M172.846-.44v243M211.846-.44v243M250.846-.44v243M289.846-.44v243M329.846-.44v243M368.846-.44v243"/><path fill="none" stroke="#E6E6E6" stroke-linejoin="round" d="M.346 243.06h384M.346 213.06h384M.346 182.06h384M.346 152.06h384M.346 121.06h384M.346 91.06h384M.346 61.06h384M.346 30.06h384M.346.06h384"/><g fill-rule="evenodd" stroke-linejoin="round" stroke-opacity=".7"><path fill="rgba(66,133,244,0.7)" stroke="#3B78DD" d="M54.907 186.706a20 20 0 1 1-1.02.026Z" display="block"/><path fill="rgba(254,76,20,0.7)" stroke="#E84512" d="M94.126 136.153a20 20 0 1 1-1.02.026Z" display="block"/><path fill="rgba(219,203,24,0.7)" stroke="#CCBD16" d="M133.345 93.743a20 20 0 1 1-1.02.026Z" display="block"/><path fill="rgba(21,172,32,0.7)" stroke="#139D1D" d="M251.002 66.036a20 20 0 1 1-1.02.026Z" display="block"/><path fill="rgba(209,80,177,0.7)" stroke="#BD48A0" d="M290.22 48.051a20 20 0 1 1-1.019.026Z" display="block"/><path fill="rgba(255,154,0,0.7)" stroke="#ED8F00" d="M329.44 9.165a20 20 0 1 1-1.02.026Z" display="block"/></g></g><path fill="none" d="M30 30h386v245H30Z"/><path fill="transparent" d="M13 269v-5h13v21H13v-5Z"/><text fill="#5f5f5f" cursor="default" transform="translate(16.102 267.22)"><tspan x="0" y="11.471" style="white-space:pre">0</tspan></text><path fill="transparent" d="M7 239v-5h19v20H7v-5Z"/><text fill="#5f5f5f" cursor="default" transform="translate(9.551 236.84)"><tspan x="0" y="11.471" style="white-space:pre">25</tspan></text><path fill="transparent" d="M7 208v-5h19v21H7v-5Z"/><text fill="#5f5f5f" cursor="default" transform="translate(9.551 206.46)"><tspan x="0" y="11.471" style="white-space:pre">50</tspan></text><path fill="transparent" d="M7 178v-5h19v21H7v-5Z"/><text fill="#5f5f5f" cursor="default" transform="translate(9.551 176.08)"><tspan x="0" y="11.471" style="white-space:pre">75</tspan></text><path fill="transparent" d="M0 148v-5h26v20H0v-5Z"/><text fill="#5f5f5f" cursor="default" transform="translate(3 145.7)"><tspan x="0" y="11.471" style="white-space:pre">100</tspan></text><path fill="transparent" d="M0 117v-5h26v21H0v-5Z"/><text fill="#5f5f5f" cursor="default" transform="translate(3 115.32)"><tspan x="0" y="11.471" style="white-space:pre">125</tspan></text><path fill="transparent" d="M0 87v-5h26v20H0v-5Z"/><text fill="#5f5f5f" cursor="default" transform="translate(3 84.94)"><tspan x="0" y="11.471" style="white-space:pre">150</tspan></text><path fill="transparent" d="M0 57v-5h26v20H0v-5Z"/><text fill="#5f5f5f" cursor="default" transform="translate(3 54.56)"><tspan x="0" y="11.471" style="white-space:pre">175</tspan></text><path fill="transparent" d="M0 26v-5h26v21H0v-5Z"/><text fill="#5f5f5f" cursor="default" transform="translate(3 24.18)"><tspan x="0" y="11.471" style="white-space:pre">200</tspan></text><path fill="none" d="M31 274V31"/><path fill="none" stroke="#E2E2E2" stroke-linejoin="round" d="M25.5 274.5h5M25.5 244.5h5M25.5 213.5h5M25.5 183.5h5M25.5 152.5h5M25.5 122.5h5M25.5 92.5h5M25.5 61.5h5M25.5 31.5h5"/><path fill="transparent" d="M37 283v-5h19v21H37v-5Z"/><text fill="#7b7b7b" cursor="default" transform="translate(39.79 281.48)"><tspan x="0" y="11.471" style="white-space:pre">31</tspan></text><path fill="transparent" d="M74 284v-5h24v21H74v-5Z"/><text fill="#5f5f5f" cursor="default" transform="translate(76.566 282.48)"><tspan x="0" y="11.471" style="white-space:pre">Jan</tspan></text><path fill="transparent" d="M119 283v-5h12v21h-12v-5Z"/><text fill="#7b7b7b" cursor="default" transform="translate(121.504 281.48)"><tspan x="0" y="11.471" style="white-space:pre">2</tspan></text><path fill="transparent" d="M158 283v-5h12v21h-12v-5Z"/><text fill="#7b7b7b" cursor="default" transform="translate(160.723 281.48)"><tspan x="0" y="11.471" style="white-space:pre">3</tspan></text><path fill="transparent" d="M197 283v-5h12v21h-12v-5Z"/><text fill="#7b7b7b" cursor="default" transform="translate(199.942 281.48)"><tspan x="0" y="11.471" style="white-space:pre">4</tspan></text><path fill="transparent" d="M236 283v-5h13v21h-13v-5Z"/><text fill="#7b7b7b" cursor="default" transform="translate(239.16 281.48)"><tspan x="0" y="11.471" style="white-space:pre">5</tspan></text><path fill="transparent" d="M275 283v-5h13v21h-13v-5Z"/><text fill="#7b7b7b" cursor="default" transform="translate(278.38 281.48)"><tspan x="0" y="11.471" style="white-space:pre">6</tspan></text><path fill="transparent" d="M315 283v-5h12v21h-12v-5Z"/><text fill="#7b7b7b" cursor="default" transform="translate(317.599 281.48)"><tspan x="0" y="11.471" style="white-space:pre">7</tspan></text><path fill="transparent" d="M354 283v-5h12v21h-12v-5Z"/><text fill="#7b7b7b" cursor="default" transform="translate(356.818 281.48)"><tspan x="0" y="11.471" style="white-space:pre">8</tspan></text><path fill="transparent" d="M393 283v-5h13v21h-13v-5Z"/><text fill="#7b7b7b" cursor="default" transform="translate(396.037 281.48)"><tspan x="0" y="11.471" style="white-space:pre">9</tspan></text><path fill="none" d="M31 274h384"/><path fill="none" stroke="#E2E2E2" stroke-linejoin="round" d="M46.5 278.5v-4M85.5 279.5v-5M124.5 278.5v-4M163.5 278.5v-4M203.5 278.5v-4M242.5 278.5v-4M281.5 278.5v-4M320.5 278.5v-4M360.5 278.5v-4M399.5 278.5v-4"/><path fill="none" d="M36 41v-5h125v21H36v-5Z"/><g cursor="pointer" style="user-select:none"><path fill="rgba(255,255,255,1)" stroke="#7B7B7B" stroke-linejoin="round" d="M.846 2.06a2 2 0 0 1 1.998-2h120.002a2 2 0 0 1 2 1.998V18.06a2 2 0 0 1-1.998 2H2.846a2 2 0 0 1-2-1.998Z" style="user-select:none" transform="translate(35.654 36.44)"/><text fill="#323232" font-size="13" transform="translate(43.24 39.026)"><tspan x="0" y="12.427" style="white-space:pre">circle</tspan></text><path fill="rgba(165,165,165,1)" fill-rule="evenodd" d="M152.35 41.675 147 47.024l-5.35-5.35-1.65 1.651 7 7 7-7Z"/></g></svg>