<svg xmlns="http://www.w3.org/2000/svg" font-family="tahoma, geneva, sans-serif" font-size="12" style="user-select:none" text-rendering="geometricPrecision"><path fill="#FFF" d="M3 8V3h658v394H3v-5Z"/><path fill="none" d="m250 8 5-5h228v28H250v-5Z"/><text fill="#323232" font-size="14" transform="translate(255.66 8.5)"><tspan x="0" y="13.383" style="white-space:pre">Average Wage by Industry in the US</tspan></text><g clip-path="url(#a)" transform="translate(250.16 31.44)"><rect width="395" height="343" x="-.16" y="-.44" fill="rgba(0,0,0,0)" rx="0" ry="0"/><g fill="none" stroke="#ECEFF1" stroke-linejoin="round"><path stroke-width="2" d="M-.16-.44h395m-395 17h395M-.16 16.56h395m-395 16h395M-.16 32.56h395m-395 16h395M-.16 48.56h395m-395 17h395M-.16 65.56h395m-395 16h395M-.16 81.56h395m-395 16h395M-.16 97.56h395m-395 17h395M-.16 114.56h395m-395 16h395M-.16 130.56h395m-395 16h395M-.16 146.56h395m-395 17h395M-.16 163.56h395m-395 16h395M-.16 179.56h395m-395 16h395M-.16 195.56h395m-395 17h395M-.16 212.56h395m-395 16h395M-.16 228.56h395m-395 16h395M-.16 244.56h395m-395 17h395M-.16 261.56h395m-395 16h395M-.16 277.56h395m-395 16h395M-.16 293.56h395m-395 17h395M-.16 310.56h395m-395 16h395M-.16 326.56h395m-395 16h395"/><path stroke-opacity=".4" d="M.34-.44v343M56.34-.44v343M112.34-.44v343M169.34-.44v343M225.34-.44v343M282.34-.44v343M338.34-.44v343M394.34-.44v343"/></g><path fill="none" stroke="#CFD8DC" stroke-linejoin="round" stroke-opacity=".8" stroke-width="4" d="M155.84-.44v343"/><g pointer-events="none" transform="rotate(90.1 -8.743 189.619)"><rect x="4.98" y="4.868" fill="transparent" rx="0" ry="0"/><text transform="translate(5 5)"><tspan x="0" y="11.471" style="white-space:pre">Avg wage in US: $55,390</tspan></text></g><g fill-rule="evenodd"><path fill="rgba(33,150,243,0.9)" d="M338.032 2.168a6 6 0 1 1-.306.007ZM299.104 18.503a6 6 0 1 1-.306.008ZM288.333 34.838a6 6 0 1 1-.306.008ZM287.916 51.173a6 6 0 1 1-.306.008ZM271.198 67.509a6 6 0 1 1-.306.007ZM263.74 83.844a6 6 0 1 1-.306.008ZM214.016 100.179a6 6 0 1 1-.306.008ZM188.628 116.514a6 6 0 1 1-.306.008ZM178.308 132.85a6 6 0 1 1-.306.007ZM170.627 149.185a6 6 0 1 1-.306.008ZM160.28 165.52a6 6 0 1 1-.307.008ZM157.541 181.855a6 6 0 1 1-.305.008Z" display="block"/><path fill="rgba(244,67,54,0.9)" d="M149.954 198.19a6 6 0 1 1-.306.008ZM141.467 214.526a6 6 0 1 1-.306.008ZM139.343 230.861a6 6 0 1 1-.305.008ZM111.934 247.196a6 6 0 1 1-.306.008ZM105.412 263.531a6 6 0 1 1-.306.008ZM104.262 279.867a6 6 0 1 1-.306.007ZM97.458 296.202a6 6 0 1 1-.306.008ZM88.029 312.537a6 6 0 1 1-.306.008ZM58.716 328.872a6 6 0 1 1-.306.008Z" display="block"/></g></g><path fill="none" d="M249 30h397v345H249ZM250 31v343"/><path fill="transparent" d="M9 34v-5h236v21H9v-5Z"/><text fill="#5f5f5f" cursor="default" transform="translate(11.955 32.348)"><tspan x="0" y="11.471" style="white-space:pre">Management of Companies and Enterprises</tspan></text><path fill="transparent" d="M119 51v-5h126v20H119v-5Z"/><text fill="#5f5f5f" cursor="default" transform="translate(122.312 48.683)"><tspan x="0" y="11.471" style="white-space:pre">Finance and Insurance</tspan></text><path fill="transparent" d="M177 67v-5h68v21h-68v-5Z"/><text fill="#5f5f5f" cursor="default" transform="translate(180.105 65.018)"><tspan x="0" y="11.471" style="white-space:pre">Information</tspan></text><path fill="transparent" d="M204 83v-5h41v21h-41v-5Z"/><text fill="#5f5f5f" cursor="default" transform="translate(207.409 81.353)"><tspan x="0" y="11.471" style="white-space:pre">Mining</tspan></text><path fill="transparent" d="M201 100v-5h44v20h-44v-5Z"/><text fill="#5f5f5f" cursor="default" transform="translate(203.616 97.689)"><tspan x="0" y="11.471" style="white-space:pre">Utilities</tspan></text><path fill="transparent" d="M66 116v-5h179v21H66v-5Z"/><text fill="#5f5f5f" cursor="default" transform="translate(69.09 114.024)"><tspan x="0" y="11.471" style="white-space:pre">Professional, Scientific, Technical</tspan></text><path fill="transparent" d="M152 132v-5h93v21h-93v-5Z"/><text fill="#5f5f5f" cursor="default" transform="translate(155.342 130.359)"><tspan x="0" y="11.471" style="white-space:pre">Wholesale Trade</tspan></text><path fill="transparent" d="M164 149v-5h81v20h-81v-5Z"/><text fill="#5f5f5f" cursor="default" transform="translate(166.616 146.694)"><tspan x="0" y="11.471" style="white-space:pre">Manufacturing</tspan></text><path fill="transparent" d="M129 165v-5h116v21H129v-5Z"/><text fill="#5f5f5f" cursor="default" transform="translate(131.606 163.03)"><tspan x="0" y="11.471" style="white-space:pre">Public Administration</tspan></text><path fill="transparent" d="M173 181v-5h72v21h-72v-5Z"/><text fill="#5f5f5f" cursor="default" transform="translate(175.854 179.365)"><tspan x="0" y="11.471" style="white-space:pre">Construction</tspan></text><path fill="transparent" d="M53 198v-5h192v20H53v-5Z"/><text fill="#5f5f5f" cursor="default" transform="translate(55.536 195.7)"><tspan x="0" y="11.471" style="white-space:pre">Real Estate and Rental and Leasing</tspan></text><path fill="transparent" d="M177 214v-5h68v21h-68v-5Z"/><text fill="#5f5f5f" cursor="default" transform="translate(180.495 212.035)"><tspan x="0" y="11.471" style="white-space:pre">Unallocated</tspan></text><path fill="transparent" d="M79 230v-5h166v21H79v-5Z"/><text fill="#5f5f5f" cursor="default" transform="translate(81.821 228.37)"><tspan x="0" y="11.471" style="white-space:pre">Transportation &amp; Warehousing</tspan></text><path fill="transparent" d="M72 247v-5h173v20H72v-5Z"/><text fill="#5f5f5f" cursor="default" transform="translate(75.433 244.706)"><tspan x="0" y="11.471" style="white-space:pre">Health Care and Social Services</tspan></text><path fill="transparent" d="M131 263v-5h114v21H131v-5Z"/><text fill="#5f5f5f" cursor="default" transform="translate(134.246 261.041)"><tspan x="0" y="11.471" style="white-space:pre">Educational Services</tspan></text><path fill="transparent" d="M117 279v-5h128v21H117v-5Z"/><text fill="#5f5f5f" cursor="default" transform="translate(120.19 277.376)"><tspan x="0" y="11.471" style="white-space:pre">Admin, Support, Waste</tspan></text><path fill="transparent" d="M0 296v-5h245v20H0v-5Z"/><text fill="#5f5f5f" cursor="default" transform="translate(3 293.711)"><tspan x="0" y="11.471" style="white-space:pre">Other Services (Except Public Administration)</tspan></text><path fill="transparent" d="M49 312v-5h196v21H49v-5Z"/><text fill="#5f5f5f" cursor="default" transform="translate(52.206 310.047)"><tspan x="0" y="11.471" style="white-space:pre">Arts, Entertainment, and Recreation</tspan></text><path fill="transparent" d="M20 328v-5h225v21H20v-5Z"/><text fill="#5f5f5f" cursor="default" transform="translate(22.607 326.382)"><tspan x="0" y="11.471" style="white-space:pre">Agriculture, Forestry, Fishing and Hunting</tspan></text><path fill="transparent" d="M177 345v-5h68v20h-68v-5Z"/><text fill="#5f5f5f" cursor="default" transform="translate(179.801 342.717)"><tspan x="0" y="11.471" style="white-space:pre">Retail Trade</tspan></text><path fill="transparent" d="M55 361v-5h190v21H55v-5Z"/><text fill="#5f5f5f" cursor="default" transform="translate(58.022 359.052)"><tspan x="0" y="11.471" style="white-space:pre">Accommodation and Food Services</tspan></text><path fill="none" d="M250 31h-5m5 17h-5M250 48h-5m5 16h-5M250 64h-5m5 16h-5M250 80h-5m5 17h-5M250 97h-5m5 16h-5M250 113h-5m5 16h-5M250 129h-5m5 17h-5M250 146h-5m5 16h-5M250 162h-5m5 16h-5M250 178h-5m5 17h-5M250 195h-5m5 16h-5M250 211h-5m5 16h-5M250 227h-5m5 17h-5M250 244h-5m5 16h-5M250 260h-5m5 16h-5M250 276h-5m5 17h-5M250 293h-5m5 16h-5M250 309h-5m5 16h-5M250 325h-5m5 17h-5M250 342h-5m5 16h-5M250 358h-5m5 16h-5"/><path fill="transparent" d="M241 384v-5h19v21h-19v-5Z"/><text fill="#5f5f5f" cursor="default" transform="translate(243.609 382.48)"><tspan x="0" y="11.471" style="white-space:pre">$0</tspan></text><path fill="transparent" d="M291 384v-5h31v21h-31v-5Z"/><text fill="#5f5f5f" cursor="default" transform="translate(293.737 382.48)"><tspan x="0" y="11.471" style="white-space:pre">$20k</tspan></text><path fill="transparent" d="M347 384v-5h32v21h-32v-5Z"/><text fill="#5f5f5f" cursor="default" transform="translate(350.13 382.48)"><tspan x="0" y="11.471" style="white-space:pre">$40k</tspan></text><path fill="transparent" d="M404 384v-5h31v21h-31v-5Z"/><text fill="#5f5f5f" cursor="default" transform="translate(406.522 382.48)"><tspan x="0" y="11.471" style="white-space:pre">$60k</tspan></text><path fill="transparent" d="M460 384v-5h32v21h-32v-5Z"/><text fill="#5f5f5f" cursor="default" transform="translate(462.915 382.48)"><tspan x="0" y="11.471" style="white-space:pre">$80k</tspan></text><path fill="transparent" d="M513 384v-5h38v21h-38v-5Z"/><text fill="#5f5f5f" cursor="default" transform="translate(516.032 382.48)"><tspan x="0" y="11.471" style="white-space:pre">$100k</tspan></text><path fill="transparent" d="M569 384v-5h39v21h-39v-5Z"/><text fill="#5f5f5f" cursor="default" transform="translate(572.425 382.48)"><tspan x="0" y="11.471" style="white-space:pre">$120k</tspan></text><path fill="transparent" d="M626 384v-5h38v21h-38v-5Z"/><text fill="#5f5f5f" cursor="default" transform="translate(628.817 382.48)"><tspan x="0" y="11.471" style="white-space:pre">$140k</tspan></text><path fill="none" d="M250 374h395M250 379v-5M307 379v-5M363 379v-5M419 379v-5M476 379v-5M532 379v-5M589 379v-5M645 379v-5"/><defs><clipPath id="a"><path fill="none" d="M-1.16-1.44h397v345h-397Z"/></clipPath><clipPath id="b" clip-rule="evenodd"><path fill="none" d="M0 0h430.749v343.04H0Zm368.86 2.168a6 6 0 1 1-.306.007Z"/></clipPath><clipPath id="c" clip-rule="evenodd"><path fill="none" d="M0 0h430.749v343.04H0Zm368.86 2.168a6 6 0 1 1-.306.007Z"/></clipPath><linearGradient id="d" x1="0" x2="0" y1="0" y2="1"><stop offset="0%" stop-color="#F0F0F0"/><stop offset="0%" stop-color="#F0F0F0"/><stop offset="13%" stop-color="#F0F2FD"/><stop offset="13%" stop-color="#FFF"/><stop offset="87%" stop-color="#FFF"/><stop offset="87%" stop-color="#E6E9FD"/><stop offset="100%" stop-color="#F0F0F0"/><stop offset="100%" stop-color="#F0F0F0"/></linearGradient></defs></svg>