<svg xmlns="http://www.w3.org/2000/svg" font-family="tahoma, geneva, sans-serif" font-size="12" style="user-select:none" text-rendering="geometricPrecision"><defs><clipPath id="a"><path fill="none" d="M-1-1.00393h392v347H-1Z"/></clipPath><clipPath id="f" clip-rule="evenodd"><path fill="none" d="M0 0h390v344.53607H0Zm260 234.99607a4 4 0 0 1 3.996-4H384a4 4 0 0 1 4 3.996v15.004a4 4 0 0 1-3.996 4H264a4 4 0 0 1-4-3.996Z"/></clipPath><clipPath id="g" clip-rule="evenodd"><path fill="none" d="M0 0h390v344.53607H0Zm260 234.99607a4 4 0 0 1 3.996-4H384a4 4 0 0 1 4 3.996v15.004a4 4 0 0 1-3.996 4H264a4 4 0 0 1-4-3.996Z"/></clipPath><pattern id="c" width="5" height="5" patternTransform="rotate(-45)" patternUnits="userSpaceOnUse"><path fill="rgba(218,28,28,0.9)" d="M0 0h5v5H0z"/><path stroke="#FFC7C8" d="M0 0v5"/></pattern><pattern id="d" width="5" height="5" patternTransform="rotate(-45)" patternUnits="userSpaceOnUse"><path fill="rgba(104,218,28,0.9)" d="M0 0h5v5H0z"/><path stroke="#001D00" d="M0 0v5"/></pattern><pattern id="e" width="5" height="5" patternTransform="rotate(-45)" patternUnits="userSpaceOnUse"><path fill="rgba(241,232,8,0.9)" d="M0 0h5v5H0z"/><path stroke="#120B00" d="M0 0v5"/></pattern><linearGradient id="b" x1="0" x2="0" y1="0" y2="1"><stop offset="0%" stop-color="#F5CE00" stop-opacity=".24928"/><stop offset="20%" stop-color="gold" stop-opacity=".21427"/><stop offset="80%" stop-color="gold" stop-opacity=".21427"/><stop offset="100%" stop-color="#F5CE00" stop-opacity=".24928"/></linearGradient><linearGradient id="h" x1="0" x2="0" y1="0" y2="1"><stop offset="0%" stop-color="#FFF"/><stop offset="40%" stop-color="#FFF"/><stop offset="100%" stop-color="#FFF"/></linearGradient></defs><path fill="#FFF" d="M3 8V3h658v394H3v-5Z"/><g clip-path="url(#a)" transform="translate(271 30.00393)"><rect width="390" height="345" y="-.00393" fill="rgba(0,0,0,0)" rx="0" ry="0"/><g fill="none" stroke-linejoin="round"><path stroke="#E6E6E6" d="M0 2.49607h390m-390 28h390M0 30.49607h390m-390 29h390M0 59.49607h390m-390 28h390M0 87.49607h390m-390 28h390M0 115.49607h390m-390 28h390M0 143.49607h390m-390 29h390M0 172.49607h390m-390 28h390M0 200.49607h390m-390 28h390M0 228.49607h390m-390 29h390M0 257.49607h390m-390 28h390M0 285.49607h390m-390 28h390M0 313.49607h390m-390 28h390M1.5-.00393v345"/><path stroke="#DFDFDF" stroke-dasharray="3,1" stroke-opacity=".59" d="M59.5-.00393v345M111.5-.00393v345M168.5-.00393v345M224.5-.00393v345M282.5-.00393v345M337.5-.00393v345"/></g><path fill="none" stroke="red" stroke-linejoin="round" stroke-opacity=".8" d="M204.5-.00393v345"/><path fill="url(#b)" fill-rule="evenodd" d="M245-.00393v345h37v-345Z"/><g pointer-events="none" transform="rotate(90.1 114.48196 114.2784)"><rect x="5.04" y="5" fill="transparent" rx="0" ry="0"/><text transform="translate(5 5)"><tspan x="0" y="11.4957" style="white-space:pre">Now</tspan></text></g><g pointer-events="none" transform="rotate(90.1 138.115 137.87415)"><rect x="4.77" y="4.99607" fill="transparent" rx="0" ry="0"/><text transform="translate(5 5)"><tspan x="0" y="11.4957" style="white-space:pre">Vacation</tspan></text></g><g fill-rule="evenodd" stroke-linejoin="round" stroke-opacity=".9"><path fill="url(#c)" stroke="#A71515" stroke-width="2" d="M2 8.99607a4 4 0 0 1 3.996-4H133a4 4 0 0 1 4 3.996v15.004a4 4 0 0 1-3.996 4H6a4 4 0 0 1-4-3.996Z" display="block"/><path fill="rgba(218,28,28,0.9)" stroke="#DC2B2B" d="M1.5 37.49607a4 4 0 0 1 3.996-4H42.5a4 4 0 0 1 4 3.996v15.004a4 4 0 0 1-3.996 4H5.5a4 4 0 0 1-4-3.996ZM46.5 65.49607a4 4 0 0 1 3.996-4H81.5a4 4 0 0 1 4 3.996v15.004a4 4 0 0 1-3.996 4H50.5a4 4 0 0 1-4-3.996ZM85.5 94.49607a4 4 0 0 1 3.996-4H133.5a4 4 0 0 1 4 3.996v15.004a4 4 0 0 1-3.996 4H89.5a4 4 0 0 1-4-3.996Z" display="block"/><path fill="url(#d)" stroke="#50A715" stroke-width="2" d="M137 121.99607a4 4 0 0 1 3.996-4H256a4 4 0 0 1 4 3.996v15.004a4 4 0 0 1-3.996 4H141a4 4 0 0 1-4-3.996Z" display="block"/><path fill="rgba(104,218,28,0.9)" stroke="#60CA1A" d="M137.5 150.49607a4 4 0 0 1 3.996-4H185.5a4 4 0 0 1 4 3.996v15.004a4 4 0 0 1-3.996 4H141.5a4 4 0 0 1-4-3.996ZM189.5 178.49607a4 4 0 0 1 3.996-4H233.5a4 4 0 0 1 4 3.996v15.004a4 4 0 0 1-3.996 4H193.5a4 4 0 0 1-4-3.996ZM237.5 207.49607a4 4 0 0 1 3.996-4H255.5a4 4 0 0 1 4 3.996v15.004a4 4 0 0 1-3.996 4H241.5a4 4 0 0 1-4-3.996Z" display="block"/><path fill="url(#e)" stroke="#BEB706" stroke-width="2" d="M260 234.99607a4 4 0 0 1 3.996-4H384a4 4 0 0 1 4 3.996v15.004a4 4 0 0 1-3.996 4H264a4 4 0 0 1-4-3.996Z" display="block"/><path fill="rgba(241,232,8,0.9)" stroke="#E2DA07" d="M259.5 263.49607a4 4 0 0 1 3.996-4H294.5a4 4 0 0 1 4 3.996v15.004a4 4 0 0 1-3.996 4H263.5a4 4 0 0 1-4-3.996ZM298.5 291.49607a3 3 0 0 1 2.997-3h4.003a3 3 0 0 1 3 2.997v17.003a3 3 0 0 1-2.997 3H301.5a3 3 0 0 1-3-2.997ZM308.5 320.49607a4 4 0 0 1 3.996-4H384.5a4 4 0 0 1 4 3.996v15.004a4 4 0 0 1-3.996 4H312.5a4 4 0 0 1-4-3.996Z" display="block"/></g></g><path fill="none" d="M270 29h392v347H270ZM271 30v345"/><path fill="transparent" d="M0 41v-5h266v21H0v-5Z"/><g fill="#5f5f5f" cursor="default"><text transform="translate(3 39.4865)"><tspan x="0" y="11.4957" font-weight="bold" style="white-space:pre">Initiate Project</tspan></text><text transform="translate(123 39.4865)"><tspan x="0" y="11.4957" font-weight="bold" style="white-space:pre">1/1/2017</tspan></text><text transform="translate(198 39.4865)"><tspan x="0" y="11.4957" font-weight="bold" style="white-space:pre">3/15/2017</tspan></text></g><path fill="transparent" d="M0 70v-5h266v20H0v-5Z"/><g fill="#5f5f5f" cursor="default"><text transform="translate(3 67.76931)"><tspan x="0" y="11.4957" style="white-space:pre">Project Assignments</tspan></text><text transform="translate(123 67.76931)"><tspan x="0" y="11.4957" style="white-space:pre">1/1/2017</tspan></text><text transform="translate(198 67.76931)"><tspan x="0" y="11.4957" style="white-space:pre">1/25/2017</tspan></text></g><path fill="transparent" d="M0 98v-5h266v21H0v-5Z"/><g fill="#5f5f5f" cursor="default"><text transform="translate(3 96.05213)"><tspan x="0" y="11.4957" style="white-space:pre">Outlines/Scope</tspan></text><text transform="translate(123 96.05213)"><tspan x="0" y="11.4957" style="white-space:pre">1/25/2017</tspan></text><text transform="translate(198 96.05213)"><tspan x="0" y="11.4957" style="white-space:pre">2/15/2017</tspan></text></g><path fill="transparent" d="M0 126v-5h266v21H0v-5Z"/><g fill="#5f5f5f" cursor="default"><text transform="translate(3 124.33494)"><tspan x="0" y="11.4957" style="white-space:pre">Business Alignment</tspan></text><text transform="translate(123 124.33494)"><tspan x="0" y="11.4957" style="white-space:pre">2/15/2017</tspan></text><text transform="translate(198 124.33494)"><tspan x="0" y="11.4957" style="white-space:pre">3/15/2017</tspan></text></g><path fill="transparent" d="M0 155v-5h266v20H0v-5Z"/><g fill="#5f5f5f" cursor="default"><text transform="translate(3 152.61775)"><tspan x="0" y="11.4957" font-weight="bold" style="white-space:pre">Plan Project</tspan></text><text transform="translate(123 152.61775)"><tspan x="0" y="11.4957" font-weight="bold" style="white-space:pre">3/15/2017</tspan></text><text transform="translate(198 152.61775)"><tspan x="0" y="11.4957" font-weight="bold" style="white-space:pre">5/20/2017</tspan></text></g><path fill="transparent" d="M0 183v-5h266v20H0v-5Z"/><g fill="#5f5f5f" cursor="default"><text transform="translate(3 180.90056)"><tspan x="0" y="11.4957" style="white-space:pre">Determine Process</tspan></text><text transform="translate(123 180.90056)"><tspan x="0" y="11.4957" style="white-space:pre">3/15/2017</tspan></text><text transform="translate(198 180.90056)"><tspan x="0" y="11.4957" style="white-space:pre">4/12/2017</tspan></text></g><path fill="transparent" d="M0 211v-5h266v21H0v-5Z"/><g fill="#5f5f5f" cursor="default"><text transform="translate(3 209.18337)"><tspan x="0" y="11.4957" style="white-space:pre">Design Layouts</tspan></text><text transform="translate(123 209.18337)"><tspan x="0" y="11.4957" style="white-space:pre">4/12/2017</tspan></text><text transform="translate(198 209.18337)"><tspan x="0" y="11.4957" style="white-space:pre">5/8/2017</tspan></text></g><path fill="transparent" d="M0 239v-5h266v21H0v-5Z"/><g fill="#5f5f5f" cursor="default"><text transform="translate(3 237.46618)"><tspan x="0" y="11.4957" style="white-space:pre">Design Structure</tspan></text><text transform="translate(123 237.46618)"><tspan x="0" y="11.4957" style="white-space:pre">5/8/2017</tspan></text><text transform="translate(198 237.46618)"><tspan x="0" y="11.4957" style="white-space:pre">5/20/2017</tspan></text></g><path fill="transparent" d="M0 268v-5h266v20H0v-5Z"/><g fill="#5f5f5f" cursor="default"><text transform="translate(3 265.749)"><tspan x="0" y="11.4957" font-weight="bold" style="white-space:pre">Implement Project</tspan></text><text transform="translate(123 265.749)"><tspan x="0" y="11.4957" font-weight="bold" style="white-space:pre">5/20/2017</tspan></text><text transform="translate(198 265.749)"><tspan x="0" y="11.4957" font-weight="bold" style="white-space:pre">7/28/2017</tspan></text></g><path fill="transparent" d="M0 296v-5h266v20H0v-5Z"/><g fill="#5f5f5f" cursor="default"><text transform="translate(3 294.0318)"><tspan x="0" y="11.4957" style="white-space:pre">Designs</tspan></text><text transform="translate(123 294.0318)"><tspan x="0" y="11.4957" style="white-space:pre">5/20/2017</tspan></text><text transform="translate(198 294.0318)"><tspan x="0" y="11.4957" style="white-space:pre">6/10/2017</tspan></text></g><path fill="transparent" d="M0 324v-5h266v21H0v-5Z"/><g fill="#5f5f5f" cursor="default"><text transform="translate(3 322.31462)"><tspan x="0" y="11.4957" style="white-space:pre">Structures</tspan></text><text transform="translate(123 322.31462)"><tspan x="0" y="11.4957" style="white-space:pre">6/10/2017</tspan></text><text transform="translate(198 322.31462)"><tspan x="0" y="11.4957" style="white-space:pre">6/15/2017</tspan></text></g><path fill="transparent" d="M0 353v-5h266v20H0v-5Z"/><g fill="#5f5f5f" cursor="default"><text transform="translate(3 350.59743)"><tspan x="0" y="11.4957" style="white-space:pre">D&amp;S Integration</tspan></text><text transform="translate(123 350.59743)"><tspan x="0" y="11.4957" style="white-space:pre">6/15/2017</tspan></text><text transform="translate(198 350.59743)"><tspan x="0" y="11.4957" style="white-space:pre">7/28/2017</tspan></text></g><path fill="none" stroke="#E2E2E2" stroke-linejoin="round" d="M271.5 32.5h-5m5 28h-5M271.5 60.5h-5m5 29h-5M271.5 89.5h-5m5 28h-5M271.5 117.5h-5m5 28h-5M271.5 145.5h-5m5 28h-5M271.5 173.5h-5m5 29h-5M271.5 202.5h-5m5 28h-5M271.5 230.5h-5m5 28h-5M271.5 258.5h-5m5 29h-5M271.5 287.5h-5m5 28h-5M271.5 315.5h-5m5 28h-5M271.5 343.5h-5m5 28h-5"/><path fill="transparent" d="M257 385v-5h32v20h-32v-5Z"/><text fill="#5f5f5f" cursor="default" transform="translate(259.75501 382.54)"><tspan x="0" y="11.4957" style="white-space:pre">2017</tspan></text><path fill="transparent" d="M318 384v-5h25v20h-25v-5Z"/><text fill="#7b7b7b" cursor="default" transform="translate(320.97349 381.54)"><tspan x="0" y="11.4957" style="white-space:pre">Feb</tspan></text><path fill="transparent" d="M370 384v-5h25v20h-25v-5Z"/><text fill="#7b7b7b" cursor="default" transform="translate(372.51412 381.54)"><tspan x="0" y="11.4957" style="white-space:pre">Mar</tspan></text><path fill="transparent" d="M428 384v-5h24v20h-24v-5Z"/><text fill="#7b7b7b" cursor="default" transform="translate(430.87833 381.54)"><tspan x="0" y="11.4957" style="white-space:pre">Apr</tspan></text><path fill="transparent" d="M482 384v-5h27v20h-27v-5Z"/><text fill="#7b7b7b" cursor="default" transform="translate(484.96023 381.54)"><tspan x="0" y="11.4957" style="white-space:pre">May</tspan></text><path fill="transparent" d="M541 384v-5h24v20h-24v-5Z"/><text fill="#7b7b7b" cursor="default" transform="translate(544.07309 381.54)"><tspan x="0" y="11.4957" style="white-space:pre">Jun</tspan></text><path fill="transparent" d="M599 384v-5h20v20h-20v-5Z"/><text fill="#7b7b7b" cursor="default" transform="translate(601.7728 381.54)"><tspan x="0" y="11.4957" style="white-space:pre">Jul</tspan></text><path fill="none" d="M271 375h390"/><path fill="none" stroke="#E2E2E2" stroke-linejoin="round" d="M272.5 379.5v-5M330.5 378.5v-4M382.5 378.5v-4M439.5 378.5v-4M495.5 378.5v-4M553.5 378.5v-4M608.5 378.5v-4"/><path fill="url(#h)" d="M0 4.66393a5 5 0 0 1 4.995-5H123a5 5 0 0 1 5 4.995v90.005a5 5 0 0 1-4.995 5H5a5 5 0 0 1-5-4.995Z" transform="translate(278 268.33607)"/><path fill="#DA1C1C" fill-rule="evenodd" stroke="rgba(220,43,43,1)" d="M284.5 278.5a2 2 0 0 1 1.998-2H302.5a2 2 0 0 1 2 1.998v6.002a2 2 0 0 1-1.998 2H286.5a2 2 0 0 1-2-1.998Z" display="block"/><text fill="#323232" font-size="11" transform="translate(309.46447 274.80053)"><tspan x="0" y="10.53773" style="white-space:pre">Initiate Project</tspan></text><path fill="#68DA1C" fill-rule="evenodd" stroke="rgba(96,202,26,1)" d="M284.5 296.5a2 2 0 0 1 1.998-2H302.5a2 2 0 0 1 2 1.998v6.002a2 2 0 0 1-1.998 2H286.5a2 2 0 0 1-2-1.998Z" display="block"/><text fill="#323232" font-size="11" transform="translate(309.46447 293.05553)"><tspan x="0" y="10.53773" style="white-space:pre">Plan Project</tspan></text><path fill="#F1E808" fill-rule="evenodd" stroke="rgba(226,218,7,1)" d="M284.5 314.5a2 2 0 0 1 1.998-2H302.5a2 2 0 0 1 2 1.998v6.002a2 2 0 0 1-1.998 2H286.5a2 2 0 0 1-2-1.998Z" display="block"/><text fill="#323232" font-size="11" transform="translate(309.46447 311.31053)"><tspan x="0" y="10.53773" style="white-space:pre">Implement Project</tspan></text><path fill="rgba(255,215,0,0.48)" fill-rule="evenodd" stroke="#EFC900" stroke-linejoin="round" stroke-opacity=".48" d="M284.5 339.5h20v-6h-20v6Z"/><text fill="#3a3e4b" font-size="11" transform="translate(309.46447 329.56553)"><tspan x="0" y="10.53773" style="white-space:pre">Vacation</tspan></text><path fill="none" stroke="#E70000" stroke-linejoin="round" d="M284.5 354.5h20"/><text fill="#3a3e4b" font-size="11" transform="translate(309.46447 347.82053)"><tspan x="0" y="10.53773" style="white-space:pre">Now</tspan></text><path fill="none" d="M3 10a5 5 0 0 1 4.995-5H267a5 5 0 0 1 5 4.995V27a5 5 0 0 1-4.995 5H8a5 5 0 0 1-5-4.995Z"/><g fill="#323232" font-size="15"><text transform="translate(7.46447 9.46447)"><tspan x="0" y="14.36963" style="white-space:pre">Task</tspan></text><text transform="translate(127.46447 9.46447)"><tspan x="0" y="14.36963" style="white-space:pre">Start</tspan></text><text transform="translate(202.46447 9.46447)"><tspan x="0" y="14.36963" style="white-space:pre">End</tspan></text></g><path fill="none" d="M380 8a5 5 0 0 1 4.995-5H656a5 5 0 0 1 5 4.995V25a5 5 0 0 1-4.995 5H385a5 5 0 0 1-5-4.995Z"/><text fill="#323232" font-size="15" transform="translate(384.3324 7.46447)"><tspan x="0" y="14.36963" style="white-space:pre">Project Beta from 1/1/2017 to 7/28/2017</tspan></text><g fill="rgba(255,255,255,0)"><path d="M282.46447 272.80053h100.22156v17.255H282.46447zM282.46447 291.05553h86.51625v17.255h-86.51625zM282.46447 309.31053h118.60188v17.255H282.46447z" cursor="pointer"/><path d="M282.46447 345.82053h50.47922v17.255h-50.47922zM282.46447 327.56553h69.98531v17.255h-69.98531z" cursor="default"/></g></svg>