<svg xmlns="http://www.w3.org/2000/svg" width="700" height="450" class="main-svg" style="background:#fff"><defs><clipPath id="a" class="plotclip"><path d="M0 0h513v270H0z"/></clipPath></defs><g class="draglayer cursor-crosshair"><g class="xy"><path d="M80 100h513v270H80z" class="nsewdrag drag" data-subplot="xy" style="fill:transparent;stroke-width:0;pointer-events:all"/><path d="M60 80h20v20H60z" class="nwdrag drag cursor-nw-resize" data-subplot="xy" style="fill:transparent;stroke-width:0;pointer-events:all"/><path d="M593 80h20v20h-20z" class="nedrag drag cursor-ne-resize" data-subplot="xy" style="fill:transparent;stroke-width:0;pointer-events:all"/><path d="M60 370h20v20H60z" class="swdrag drag cursor-sw-resize" data-subplot="xy" style="fill:transparent;stroke-width:0;pointer-events:all"/><path d="M593 370h20v20h-20z" class="sedrag drag cursor-se-resize" data-subplot="xy" style="fill:transparent;stroke-width:0;pointer-events:all"/><path d="M131.3 370.5h410.4v20H131.3z" class="ewdrag drag cursor-ew-resize" data-subplot="xy" style="fill:transparent;stroke-width:0;pointer-events:all"/><path d="M80 370.5h51.3v20H80z" class="wdrag drag cursor-w-resize" data-subplot="xy" style="fill:transparent;stroke-width:0;pointer-events:all"/><path d="M541.7 370.5H593v20h-51.3z" class="edrag drag cursor-e-resize" data-subplot="xy" style="fill:transparent;stroke-width:0;pointer-events:all"/><path d="M59.5 127h20v216h-20z" class="nsdrag drag cursor-ns-resize" data-subplot="xy" style="fill:transparent;stroke-width:0;pointer-events:all"/><path d="M59.5 343h20v27h-20z" class="sdrag drag cursor-s-resize" data-subplot="xy" style="fill:transparent;stroke-width:0;pointer-events:all"/><path d="M59.5 100h20v27h-20z" class="ndrag drag cursor-n-resize" data-subplot="xy" style="fill:transparent;stroke-width:0;pointer-events:all"/></g></g><g class="cartesianlayer"><g class="subplot xy"><g class="gridlayer"><g class="y"><path d="M80 0h513" class="ygrid crisp" style="stroke:#eee;stroke-opacity:1;stroke-width:1px" transform="translate(0 320.67)"/><path d="M80 0h513" class="ygrid crisp" style="stroke:#eee;stroke-opacity:1;stroke-width:1px" transform="translate(0 271.35)"/><path d="M80 0h513" class="ygrid crisp" style="stroke:#eee;stroke-opacity:1;stroke-width:1px" transform="translate(0 222.02)"/><path d="M80 0h513" class="ygrid crisp" style="stroke:#eee;stroke-opacity:1;stroke-width:1px" transform="translate(0 172.69)"/><path d="M80 0h513" class="ygrid crisp" style="stroke:#eee;stroke-opacity:1;stroke-width:1px" transform="translate(0 123.37)"/></g></g><g class="zerolinelayer"><path d="M80 0h513" class="yzl zl crisp" style="stroke:#444;stroke-opacity:1;stroke-width:1px" transform="translate(0 370)"/></g><g class="plot" clip-path="url(#a)" transform="translate(80 100)"><g class="barlayer mlayer" shape-rendering="crispEdges"><g class="trace bars" style="opacity:1"><g class="points"><path d="M17.1 270v-98.65h136.8V270ZM188.1 270v-69.06h136.8V270ZM359.1 270V156.55h136.8V270Z" class="point" style="vector-effect:non-scaling-stroke;opacity:1;stroke-width:0;fill:#1f77b4;fill-opacity:1"/></g></g><g class="trace bars" style="opacity:1"><g class="points"><path d="M17.1 171.35v-59.2h136.8v59.2ZM188.1 200.94v-88.79h136.8v88.79ZM359.1 156.55V13.5h136.8v143.05Z" class="point" style="vector-effect:non-scaling-stroke;opacity:1;stroke-width:0;fill:#ff7f0e;fill-opacity:1"/></g></g></g></g><g class="xaxislayer-above"><text y="383" class="xtick" data-math="N" data-unformatted="giraffes" style="font-family:&quot;Open Sans&quot;,verdana,arial,sans-serif;font-size:12px;fill:#444;fill-opacity:1;white-space:pre;opacity:1" text-anchor="middle" transform="translate(165.5)">giraffes</text><text y="383" class="xtick" data-math="N" data-unformatted="orangutans" style="font-family:&quot;Open Sans&quot;,verdana,arial,sans-serif;font-size:12px;fill:#444;fill-opacity:1;white-space:pre;opacity:1" text-anchor="middle" transform="translate(336.5)">orangutans</text><text y="383" class="xtick" data-math="N" data-unformatted="monkeys" style="font-family:&quot;Open Sans&quot;,verdana,arial,sans-serif;font-size:12px;fill:#444;fill-opacity:1;white-space:pre;opacity:1" text-anchor="middle" transform="translate(507.5)">monkeys</text></g><g class="yaxislayer-above"><text x="79" y="4.2" class="ytick" data-math="N" data-unformatted="0" style="font-family:&quot;Open Sans&quot;,verdana,arial,sans-serif;font-size:12px;fill:#444;fill-opacity:1;white-space:pre;opacity:1" text-anchor="end" transform="translate(0 370)">0</text><text x="79" y="4.2" class="ytick" data-math="N" data-unformatted="10" style="font-family:&quot;Open Sans&quot;,verdana,arial,sans-serif;font-size:12px;fill:#444;fill-opacity:1;white-space:pre;opacity:1" text-anchor="end" transform="translate(0 320.67)">10</text><text x="79" y="4.2" class="ytick" data-math="N" data-unformatted="20" style="font-family:&quot;Open Sans&quot;,verdana,arial,sans-serif;font-size:12px;fill:#444;fill-opacity:1;white-space:pre;opacity:1" text-anchor="end" transform="translate(0 271.35)">20</text><text x="79" y="4.2" class="ytick" data-math="N" data-unformatted="30" style="font-family:&quot;Open Sans&quot;,verdana,arial,sans-serif;font-size:12px;fill:#444;fill-opacity:1;white-space:pre;opacity:1" text-anchor="end" transform="translate(0 222.02)">30</text><text x="79" y="4.2" class="ytick" data-math="N" data-unformatted="40" style="font-family:&quot;Open Sans&quot;,verdana,arial,sans-serif;font-size:12px;fill:#444;fill-opacity:1;white-space:pre;opacity:1" text-anchor="end" transform="translate(0 172.69)">40</text><text x="79" y="4.2" class="ytick" data-math="N" data-unformatted="50" style="font-family:&quot;Open Sans&quot;,verdana,arial,sans-serif;font-size:12px;fill:#444;fill-opacity:1;white-space:pre;opacity:1" text-anchor="end" transform="translate(0 123.37)">50</text></g></g></g></svg>