<svg class="kagiChartClass" viewBox="0 0 800 500" fill="#ffffff" width="690" height="493" style="background: rgb(0, 0, 0);" xmlns="http://www.w3.org/2000/svg"><g transform="translate(50,75)"><path class="line" d="M82.3529411764706,190.63420763893967L82.3529411764706,212.01496779446842L123.52941176470588,212.01496779446842L123.52941176470588,190.63420763893967" style="stroke-width: 3; stroke: rgb(255, 255, 255);"></path><path class="line" d="M123.52941176470588,190.63420763893967L123.52941176470588,39.11266750909329L164.7058823529412,39.11266750909329L164.7058823529412,107.99193293362887L205.88235294117646,107.99193293362887L205.88235294117646,41.35320205306276L247.05882352941177,41.35320205306276L247.05882352941177,107.99193293362887" style="stroke-width: 8; stroke: rgb(255, 255, 255);"></path><path class="line" d="M247.05882352941177,107.99193293362887L247.05882352941177,121.8829961706721L288.2352941176471,121.8829961706721L288.2352941176471,45.065941001975524L329.4117647058824,45.065941001975524L329.4117647058824,230.38700409818756L370.5882352941176,230.38700409818756L370.5882352941176,105.87945234592759L411.7647058823529,105.87945234592759L411.7647058823529,292.48078614528396L452.94117647058823,292.48078614528396L452.94117647058823,172.90230668679277L494.11764705882354,172.90230668679277L494.11764705882354,312.19716494020435L535.2941176470588,312.19716494020435L535.2941176470588,172.90230668679277" style="stroke-width: 3; stroke: rgb(255, 255, 255);"></path><path class="line" d="M535.2941176470588,172.90230668679277L535.2941176470588,133.5335760750861L576.4705882352941,133.5335760750861L576.4705882352941,213.80735830142228L617.6470588235294,213.80735830142228L617.6470588235294,12.802835059795651" style="stroke-width: 8; stroke: rgb(255, 255, 255);"></path><circle class="break_points" cx="82.3529411764706" cy="190.63420763893967" r="2" style="fill: rgb(0, 0, 0);"></circle><circle class="break_points" cx="123.52941176470588" cy="190.63420763893967" r="2" style="fill: rgb(0, 0, 0);"></circle><circle class="break_points" cx="123.52941176470588" cy="190.63420763893967" r="2" style="fill: rgb(0, 0, 0);"></circle><circle class="break_points" cx="247.05882352941177" cy="107.99193293362887" r="2" style="fill: rgb(0, 0, 0);"></circle><circle class="break_points" cx="247.05882352941177" cy="107.99193293362887" r="2" style="fill: rgb(0, 0, 0);"></circle><circle class="break_points" cx="535.2941176470588" cy="172.90230668679277" r="2" style="fill: rgb(0, 0, 0);"></circle><circle class="break_points" cx="535.2941176470588" cy="172.90230668679277" r="2" style="fill: rgb(0, 0, 0);"></circle><circle class="break_points" cx="617.6470588235294" cy="12.802835059795651" r="2" style="fill: rgb(0, 0, 0);"></circle><text x="350" y="-20" text-anchor="middle" style="font-size: 12px;"></text><text x="350" text-anchor="middle" y="-40" style="font-size: 16px;">Monochromatic This Time</text><g class="x axis" transform="translate(0,325)" shape-rendering="geometricPrecision"><path class="domain" d="M0,6V0H700V6"></path></g><g class="y axis" shape-rendering="geometricPrecision"><g class="tick" transform="translate(0,314.3736212946995)" style="opacity: 1;"><line x2="-6" y2="0"></line><text dy=".32em" x="-9" y="0" style="text-anchor: end;">90</text></g><g class="tick" transform="translate(0,282.3665336452104)" style="opacity: 1;"><line x2="-6" y2="0"></line><text dy=".32em" x="-9" y="0" style="text-anchor: end;">95</text></g><g class="tick" transform="translate(0,250.35944599572133)" style="opacity: 1;"><line x2="-6" y2="0"></line><text dy=".32em" x="-9" y="0" style="text-anchor: end;">100</text></g><g class="tick" transform="translate(0,218.35235834623222)" style="opacity: 1;"><line x2="-6" y2="0"></line><text dy=".32em" x="-9" y="0" style="text-anchor: end;">105</text></g><g class="tick" transform="translate(0,186.3452706967431)" style="opacity: 1;"><line x2="-6" y2="0"></line><text dy=".32em" x="-9" y="0" style="text-anchor: end;">110</text></g><g class="tick" transform="translate(0,154.338183047254)" style="opacity: 1;"><line x2="-6" y2="0"></line><text dy=".32em" x="-9" y="0" style="text-anchor: end;">115</text></g><g class="tick" transform="translate(0,122.33109539776493)" style="opacity: 1;"><line x2="-6" y2="0"></line><text dy=".32em" x="-9" y="0" style="text-anchor: end;">120</text></g><g class="tick" transform="translate(0,90.32400774827582)" style="opacity: 1;"><line x2="-6" y2="0"></line><text dy=".32em" x="-9" y="0" style="text-anchor: end;">125</text></g><g class="tick" transform="translate(0,58.31692009878675)" style="opacity: 1;"><line x2="-6" y2="0"></line><text dy=".32em" x="-9" y="0" style="text-anchor: end;">130</text></g><g class="tick" transform="translate(0,26.309832449297645)" style="opacity: 1;"><line x2="-6" y2="0"></line><text dy=".32em" x="-9" y="0" style="text-anchor: end;">135</text></g><path class="domain" d="M-6,0H0V325H-6"></path></g></g></svg>