<svg class="kagiChartClass" viewBox="0 0 800 500" fill="#000000" width="690" height="493" style="background: rgb(255, 255, 255);" xmlns="http://www.w3.org/2000/svg"><g transform="translate(50,75)"><path class="line" d="M107.6923076923077,190.63420763893967L107.6923076923077,212.01496779446842L161.53846153846155,212.01496779446842L161.53846153846155,190.63420763893967" style="stroke-width: 1; stroke: rgb(158, 30, 16);"></path><path class="line" d="M161.53846153846155,190.63420763893967L161.53846153846155,39.11266750909329L215.3846153846154,39.11266750909329L215.3846153846154,212.01496779446842" style="stroke-width: 1; stroke: rgb(49, 106, 11);"></path><path class="line" d="M215.3846153846154,212.01496779446842L215.3846153846154,230.38700409818756L269.2307692307692,230.38700409818756L269.2307692307692,105.87945234592759L323.0769230769231,105.87945234592759L323.0769230769231,292.48078614528396L376.9230769230769,292.48078614528396L376.9230769230769,172.90230668679277L430.7692307692308,172.90230668679277L430.7692307692308,312.19716494020435L484.6153846153846,312.19716494020435L484.6153846153846,172.90230668679277" style="stroke-width: 1; stroke: rgb(158, 30, 16);"></path><path class="line" d="M484.6153846153846,172.90230668679277L484.6153846153846,133.5335760750861L538.4615384615385,133.5335760750861L538.4615384615385,213.80735830142228L592.3076923076923,213.80735830142228L592.3076923076923,12.802835059795651" style="stroke-width: 1; stroke: rgb(49, 106, 11);"></path><text transform="translate(107.6923076923077,340) rotate(-45)" text-anchor="end" dy="3" dx="5">01-01-15</text><text transform="translate(161.53846153846155,340) rotate(-45)" text-anchor="end" dy="3" dx="5">22-02-15</text><text transform="translate(161.53846153846155,340) rotate(-45)" text-anchor="end" dy="3" dx="5">22-02-15</text><text transform="translate(215.3846153846154,340) rotate(-45)" text-anchor="end" dy="3" dx="5">23-08-15</text><text transform="translate(215.3846153846154,340) rotate(-45)" text-anchor="end" dy="3" dx="5">23-08-15</text><text transform="translate(484.6153846153846,340) rotate(-45)" text-anchor="end" dy="3" dx="5">24-10-16</text><text transform="translate(484.6153846153846,340) rotate(-45)" text-anchor="end" dy="3" dx="5">24-10-16</text><text transform="translate(592.3076923076923,340) rotate(-45)" text-anchor="end" dy="3" dx="5">21-02-17</text><circle class="break_points" cx="107.6923076923077" cy="190.63420763893967" r="2" style="fill: rgb(255, 255, 255);"></circle><circle class="break_points" cx="161.53846153846155" cy="190.63420763893967" r="2" style="fill: rgb(255, 255, 255);"></circle><circle class="break_points" cx="161.53846153846155" cy="190.63420763893967" r="2" style="fill: rgb(255, 255, 255);"></circle><circle class="break_points" cx="215.3846153846154" cy="212.01496779446842" r="2" style="fill: rgb(255, 255, 255);"></circle><circle class="break_points" cx="215.3846153846154" cy="212.01496779446842" r="2" style="fill: rgb(255, 255, 255);"></circle><circle class="break_points" cx="484.6153846153846" cy="172.90230668679277" r="2" style="fill: rgb(255, 255, 255);"></circle><circle class="break_points" cx="484.6153846153846" cy="172.90230668679277" r="2" style="fill: rgb(255, 255, 255);"></circle><circle class="break_points" cx="592.3076923076923" cy="12.802835059795651" r="2" style="fill: rgb(255, 255, 255);"></circle><text x="350" y="-20" text-anchor="middle" style="font-size: 12px;"></text><text x="350" text-anchor="middle" y="-40" style="font-size: 16px;">This is Another Title!</text><g class="x axis" transform="translate(0,325)" shape-rendering="geometricPrecision"><path class="domain" d="M0,6V0H700V6"></path></g><g class="y axis" shape-rendering="geometricPrecision"><g class="tick" transform="translate(0,314.3736212946995)" style="opacity: 1;"><line x2="-6" y2="0"></line><text dy=".32em" x="-9" y="0" style="text-anchor: end;">90</text></g><g class="tick" transform="translate(0,282.3665336452104)" style="opacity: 1;"><line x2="-6" y2="0"></line><text dy=".32em" x="-9" y="0" style="text-anchor: end;">95</text></g><g class="tick" transform="translate(0,250.35944599572133)" style="opacity: 1;"><line x2="-6" y2="0"></line><text dy=".32em" x="-9" y="0" style="text-anchor: end;">100</text></g><g class="tick" transform="translate(0,218.35235834623222)" style="opacity: 1;"><line x2="-6" y2="0"></line><text dy=".32em" x="-9" y="0" style="text-anchor: end;">105</text></g><g class="tick" transform="translate(0,186.3452706967431)" style="opacity: 1;"><line x2="-6" y2="0"></line><text dy=".32em" x="-9" y="0" style="text-anchor: end;">110</text></g><g class="tick" transform="translate(0,154.338183047254)" style="opacity: 1;"><line x2="-6" y2="0"></line><text dy=".32em" x="-9" y="0" style="text-anchor: end;">115</text></g><g class="tick" transform="translate(0,122.33109539776493)" style="opacity: 1;"><line x2="-6" y2="0"></line><text dy=".32em" x="-9" y="0" style="text-anchor: end;">120</text></g><g class="tick" transform="translate(0,90.32400774827582)" style="opacity: 1;"><line x2="-6" y2="0"></line><text dy=".32em" x="-9" y="0" style="text-anchor: end;">125</text></g><g class="tick" transform="translate(0,58.31692009878675)" style="opacity: 1;"><line x2="-6" y2="0"></line><text dy=".32em" x="-9" y="0" style="text-anchor: end;">130</text></g><g class="tick" transform="translate(0,26.309832449297645)" style="opacity: 1;"><line x2="-6" y2="0"></line><text dy=".32em" x="-9" y="0" style="text-anchor: end;">135</text></g><path class="domain" d="M-6,0H0V325H-6"></path></g></g></svg>