<svg width="844px" height="547px" viewBox="0 0 844 547" preserveAspectRatio="xMidYMid" xmlns="http://www.w3.org/2000/svg"><g class="data-groups"><g class="data-group" transform="translate( 0 10 )"><rect class="data" opacity="1" width="336.82073941256834" height="157.2828709288299" y="0" fill="#f4502a" stroke="#ffffff" stroke-width="2" ry="0" rx="0" x="77.703125"></rect><rect class="data" opacity="1" width="99.87527037795991" height="157.2828709288299" y="0" fill="#f1c227" stroke="#ffffff" stroke-width="2" ry="0" rx="0" x="414.52386441256834"></rect><rect class="data" opacity="1" width="319.60086520947175" height="157.2828709288299" y="0" fill="#008a6d" stroke="#ffffff" stroke-width="2" ry="0" rx="0" x="514.3991347905283"></rect></g><g class="data-group" transform="translate(0,167.28286743164062)"><rect class="data" opacity="1" width="384.6843364197531" height="116.02834740651387" y="0" fill="#f4502a" stroke="#ffffff" stroke-width="2" ry="0" rx="0" x="77.703125"></rect><rect class="data" opacity="1" width="347.3363425925926" height="116.02834740651387" y="0" fill="#f1c227" stroke="#ffffff" stroke-width="2" ry="0" rx="0" x="462.3874614197531"></rect><rect class="data" opacity="1" width="24.27619598765432" height="116.02834740651387" y="0" fill="#008a6d" stroke="#ffffff" stroke-width="2" ry="0" rx="0" x="809.7238040123457"></rect></g><g class="data-group" transform="translate(0,283.31121826171875)"><rect class="data" opacity="1" width="84.80534811580884" height="77.92521109770809" y="0" fill="#f4502a" stroke="#ffffff" stroke-width="2" ry="0" rx="0" x="77.703125"></rect><rect class="data" opacity="1" width="323.92862477022055" height="77.92521109770809" y="0" fill="#f1c227" stroke="#ffffff" stroke-width="2" ry="0" rx="0" x="162.50847311580884"></rect><rect class="data" opacity="1" width="347.5629021139706" height="77.92521109770809" y="0" fill="#008a6d" stroke="#ffffff" stroke-width="2" ry="0" rx="0" x="486.4370978860294"></rect></g><g class="data-group" transform="translate(0,361.2364196777344)"><rect class="data" opacity="1" width="401.1958591986456" height="63.45747889022919" y="0" fill="#f4502a" stroke="#ffffff" stroke-width="2" ry="0" rx="0" x="77.703125"></rect><rect class="data" opacity="1" width="11.950514954853247" height="63.45747889022919" y="0" fill="#f1c227" stroke="#ffffff" stroke-width="2" ry="0" rx="0" x="478.8989841986456"></rect><rect class="data" opacity="1" width="343.15050084650113" height="63.45747889022919" y="0" fill="#008a6d" stroke="#ffffff" stroke-width="2" ry="0" rx="0" x="490.84949915349887"></rect></g><g class="data-group" transform="translate(0,424.69390869140625)"><rect class="data" opacity="1" width="295.08693099710985" height="49.5627261761158" y="0" fill="#f4502a" stroke="#ffffff" stroke-width="2" ry="0" rx="0" x="77.703125"></rect><rect class="data" opacity="1" width="170.4946712427746" height="49.5627261761158" y="0" fill="#f1c227" stroke="#ffffff" stroke-width="2" ry="0" rx="0" x="372.79005599710985"></rect><rect class="data" opacity="1" width="290.71527276011557" height="49.5627261761158" y="0" fill="#008a6d" stroke="#ffffff" stroke-width="2" ry="0" rx="0" x="543.2847272398844"></rect></g><g class="data-group" transform="translate(0,474.2566223144531)"><rect class="data" opacity="1" width="322.68666666666667" height="10.743365500603137" y="0" fill="#f4502a" stroke="#ffffff" stroke-width="2" ry="0" rx="0" x="77.703125"></rect><rect class="data" opacity="1" width="121.0075" height="10.743365500603137" y="0" fill="#f1c227" stroke="#ffffff" stroke-width="2" ry="0" rx="0" x="400.38979166666667"></rect><rect class="data" opacity="1" width="312.60270833333334" height="10.743365500603137" y="0" fill="#008a6d" stroke="#ffffff" stroke-width="2" ry="0" rx="0" x="521.3972916666667"></rect></g></g><g class="axis horizontal" transform="translate( 0 485 )" display="block"><g class="tick" transform="translate(77.703125,0)" style="opacity: 1;"><line y2="4" x2="0" stroke="#000000" fill="none"></line><text dy="0.71em" y="8" x="0" font-size="13" style="text-anchor: start;" fill="#000000">0</text></g><g class="tick" transform="translate(228.9625,0)" style="opacity: 1;"><line y2="4" x2="0" stroke="#000000" fill="none"></line><text dy="0.71em" y="8" x="0" font-size="13" style="text-anchor: middle;" fill="#000000">20</text></g><g class="tick" transform="translate(380.221875,0)" style="opacity: 1;"><line y2="4" x2="0" stroke="#000000" fill="none"></line><text dy="0.71em" y="8" x="0" font-size="13" style="text-anchor: middle;" fill="#000000">40</text></g><g class="tick" transform="translate(531.4812499999999,0)" style="opacity: 1;"><line y2="4" x2="0" stroke="#000000" fill="none"></line><text dy="0.71em" y="8" x="0" font-size="13" style="text-anchor: middle;" fill="#000000">60</text></g><g class="tick" transform="translate(682.740625,0)" style="opacity: 1;"><line y2="4" x2="0" stroke="#000000" fill="none"></line><text dy="0.71em" y="8" x="0" font-size="13" style="text-anchor: middle;" fill="#000000">80</text></g><g class="tick" transform="translate(834,0)" style="opacity: 1;"><line y2="4" x2="0" stroke="#000000" fill="none"></line><text dy="0.71em" y="8" x="0" font-size="13" style="text-anchor: end;" fill="#000000">100</text></g><path class="domain" d="M77.703125,0V0H834V0" stroke="#000000" fill="none" display="block"></path></g><g class="axis vertical" transform="translate( 77.703125 0 )" display="block"><g class="tick" transform="translate(0,88.64143546441495)" style="opacity: 1;"><line x2="0" y2="0" stroke="#000000" fill="none"></line><text dy=".32em" x="-6" y="0" font-size="13" style="text-anchor: end;" fill="#000000">Cindy</text></g><g class="tick" transform="translate(0,225.29704463208685)" style="opacity: 1;"><line x2="0" y2="0" stroke="#000000" fill="none"></line><text dy=".32em" x="-6" y="0" font-size="13" style="text-anchor: end;" fill="#000000">Doraemon</text></g><g class="tick" transform="translate(0,322.27382388419784)" style="opacity: 1;"><line x2="0" y2="0" stroke="#000000" fill="none"></line><text dy=".32em" x="-6" y="0" font-size="13" style="text-anchor: end;" fill="#000000">Yale</text></g><g class="tick" transform="translate(0,392.9651688781665)" style="opacity: 1;"><line x2="0" y2="0" stroke="#000000" fill="none"></line><text dy=".32em" x="-6" y="0" font-size="13" style="text-anchor: end;" fill="#000000">Amelie</text></g><g class="tick" transform="translate(0,449.47527141133895)" style="opacity: 1;"><line x2="0" y2="0" stroke="#000000" fill="none"></line><text dy=".32em" x="-6" y="0" font-size="13" style="text-anchor: end;" fill="#000000">Joe</text></g><g class="tick" transform="translate(0,479.62831724969845)" style="opacity: 1;"><line x2="0" y2="0" stroke="#000000" fill="none"></line><text dy=".32em" x="-6" y="0" font-size="13" style="text-anchor: end;" fill="#000000">James</text></g></g><g class="legend-group" transform="translate( 332.0546875 522 )" display="block"><g class="legend" transform="translate(0 0)"><path class="marker" d="M6 0 A6 6 0 0 0 6 12A6 6 0 0 0 6 0" fill="#f4502a"></path><text font-size="13" text-anchor="start" dy="0.76em" dx="15" fill="#000000">Asia</text></g><g class="legend" transform="translate(50.2890625 0)"><path class="marker" d="M6 0 A6 6 0 0 0 6 12A6 6 0 0 0 6 0" fill="#f1c227"></path><text font-size="13" text-anchor="start" dy="0.76em" dx="15" fill="#000000">Europe</text></g><g class="legend" transform="translate(117.2109375 0)"><path class="marker" d="M6 0 A6 6 0 0 0 6 12A6 6 0 0 0 6 0" fill="#008a6d"></path><text font-size="13" text-anchor="start" dy="0.76em" dx="15" fill="#000000">America</text></g></g></svg>