<svg xmlns="http://www.w3.org/2000/svg" font-family="tahoma, geneva, sans-serif" font-size="12" style="user-select:none" text-rendering="geometricPrecision"><defs><clipPath id="a"><path fill="none" d="M-1.31875-1.37h402v320h-402Z"/></clipPath><clipPath id="c" clip-rule="evenodd"><path fill="none" d="M0 0h475.7739v317.505H0Zm427.18125 17.13h49v154h-49Z"/></clipPath><clipPath id="d" clip-rule="evenodd"><path fill="none" d="M0 0h475.7739v317.505H0Zm427.18125 17.13h49v154h-49Z"/></clipPath><linearGradient id="b" x1="0" x2="0" y1="0" y2="1"><stop offset="0%" stop-color="#FFF" stop-opacity=".70588"/><stop offset=".04%" stop-color="#FFF" stop-opacity=".70588"/><stop offset=".04%" stop-color="#F7F7F7" stop-opacity=".41176"/><stop offset="35%" stop-color="#F7F7F7" stop-opacity=".11765"/><stop offset="60%" stop-color="#FBFBFB" stop-opacity=".02941"/><stop offset="100%" stop-color="#F7F7F7" stop-opacity=".32353"/></linearGradient><linearGradient id="e" x1="0" x2="0" y1="0" y2="1"><stop offset="0%" stop-color="#69BFDE"/><stop offset="0%" stop-color="#69BFDE"/><stop offset="8%" stop-color="#F0F2FD"/><stop offset="8%" stop-color="#FFF"/><stop offset="92%" stop-color="#FFF"/><stop offset="92%" stop-color="#E6E9FD"/><stop offset="100%" stop-color="#69BFDE"/><stop offset="100%" stop-color="#69BFDE"/></linearGradient></defs><path fill="#FFF" d="M3 8V3h658v394H3v-5Z"/><path fill="none" d="m56 8 5-5h255v28H56v-5Z"/><text fill="#323232" font-size="14" transform="translate(61.81875 8.5)"><tspan x="0" y="13.41165" style="white-space:pre">New passenger cars in 2017 by fuel type</tspan></text><g clip-path="url(#a)" transform="translate(56.31875 31.37)"><rect width="400" height="318" x="-.31875" y="-.37" fill="rgba(0,0,0,0)" rx="0" ry="0"/><path fill="url(#b)" fill-rule="evenodd" d="M-.31875 317.13h400v-63h-400ZM-.31875 190.13h400v-63h-400ZM-.31875 63.13h400v-63h-400Z"/><path fill="none" d="M-.31875-.37v318m73-318v318M72.68125-.37v318m143-318v318M215.68125-.37v318m98-318v318M313.68125-.37v318m45-318v318M358.68125-.37v318m41-318v318"/><path fill="none" stroke="#E6E6E6" stroke-linejoin="round" d="M-.31875 317.13h400M-.31875 254.13h400M-.31875 190.13h400M-.31875 127.13h400M-.31875 63.13h400M-.31875.13h400"/><g fill-rule="evenodd" stroke-linejoin="round" stroke-opacity=".9"><path fill="rgba(89,84,65,0.9)" stroke="#645F4D" d="M.18125.13h72v1h-72ZM72.18125.13h144v1h-144Z" display="block"/><path fill="rgba(89,84,65,0.9)" stroke="#645F4D" d="M216.18125.63a.5.5 0 0 1 .4995-.5h96.0005a.5.5 0 0 1 .5.4995V1.13h-97ZM313.18125 5.13a5 5 0 0 1 4.995-5h36.005a5 5 0 0 1 5 4.995V26.13h-46ZM359.18125.13h41v1h-41Z" display="block"/><path fill="rgba(185,176,157,0.9)" stroke="#ABA391" d="M.18125.13h72v11h-72ZM72.18125 1.13h144v5h-144Z" display="block"/><path fill="rgba(185,176,157,0.9)" stroke="#ABA391" d="M216.18125.13h97v9h-97ZM313.18125 26.13h46v10h-46ZM359.18125 1.13h41v14h-41Z" display="block"/><path fill="rgba(221,232,235,0.9)" stroke="#D0DADD" d="M.18125 11.13h72v5h-72ZM72.18125 6.13h144v5h-144Z" display="block"/><path fill="rgba(221,232,235,0.9)" stroke="#D0DADD" d="M216.18125 9.13h97v6h-97ZM313.18125 36.13h46v1h-46ZM359.18125 15.13h41v2h-41Z" display="block"/><path fill="rgba(105,191,222,0.9)" stroke="#61B1CE" d="M.18125 16.13h72v150h-72ZM72.18125 11.13h144v123h-144Z" display="block"/><path fill="rgba(105,191,222,0.9)" stroke="#61B1CE" d="M216.18125 15.13h97v133h-97ZM313.18125 37.13h46v179h-46ZM359.18125 17.13h41v154h-41Z" display="block"/><path fill="rgba(74,135,151,0.9)" stroke="#427988" d="M.18125 166.13h72v146a5 5 0 0 1-4.995 5h-62.005a5 5 0 0 1-5-4.995Z" display="block"/><path fill="rgba(74,135,151,0.9)" stroke="#427988" d="M72.18125 134.13h144v178a5 5 0 0 1-4.995 5h-134.005a5 5 0 0 1-5-4.995Z" display="block"/><path fill="rgba(74,135,151,0.9)" stroke="#427988" d="M216.18125 148.13h97v164a5 5 0 0 1-4.995 5h-87.005a5 5 0 0 1-5-4.995Z" display="block"/><path fill="rgba(74,135,151,0.9)" stroke="#427988" d="M313.18125 216.13h46v96a5 5 0 0 1-4.995 5h-36.005a5 5 0 0 1-5-4.995Z" display="block"/><path fill="rgba(74,135,151,0.9)" stroke="#427988" d="M359.18125 171.13h41v141a5 5 0 0 1-4.995 5h-31.005a5 5 0 0 1-5-4.995Z" display="block"/></g></g><path fill="none" d="M55 30h402v320H55Z"/><g fill="#474747" font-size="13" transform="rotate(-89.9 176.09672 168.05796)"><rect x="153.92" y="-.29" fill="transparent" rx="0" ry="0"/><text transform="translate(111.01094)"><tspan x="0" y="12.45368" style="white-space:pre">Passenger cars</tspan></text></g><path fill="transparent" d="M39 344v-5h12v20H39v-5Z"/><text fill="#5f5f5f" cursor="default" transform="translate(41.7675 341.645)"><tspan x="0" y="11.4957" style="white-space:pre">0</tspan></text><path fill="transparent" d="M32 280v-5h19v21H32v-5Z"/><text fill="#5f5f5f" cursor="default" transform="translate(35.21625 278.144)"><tspan x="0" y="11.4957" style="white-space:pre">20</tspan></text><path fill="transparent" d="M32 217v-5h19v20H32v-5Z"/><text fill="#5f5f5f" cursor="default" transform="translate(35.21625 214.643)"><tspan x="0" y="11.4957" style="white-space:pre">40</tspan></text><path fill="transparent" d="M32 153v-5h19v21H32v-5Z"/><text fill="#5f5f5f" cursor="default" transform="translate(35.21625 151.142)"><tspan x="0" y="11.4957" style="white-space:pre">60</tspan></text><path fill="transparent" d="M32 90v-5h19v20H32v-5Z"/><text fill="#5f5f5f" cursor="default" transform="translate(35.21625 87.641)"><tspan x="0" y="11.4957" style="white-space:pre">80</tspan></text><path fill="transparent" d="M26 26v-5h25v21H26v-5Z"/><text fill="#5f5f5f" cursor="default" transform="translate(28.665 24.14)"><tspan x="0" y="11.4957" style="white-space:pre">100</tspan></text><path fill="none" d="M56 349V31"/><path fill="none" stroke="#E2E2E2" stroke-linejoin="round" d="M51.5 348.5h5M51.5 285.5h5M51.5 221.5h5M51.5 158.5h5M51.5 94.5h5M51.5 31.5h5"/><path fill="none" d="M56 349h400"/><path fill="transparent" d="M72 359v-5h41v20H72v-5Z"/><text fill="#5f5f5f" cursor="default" transform="translate(74.88447 356.875)"><tspan x="0" y="11.4957" style="white-space:pre">France</tspan></text><path fill="transparent" d="M174 359v-5h53v20h-53v-5Z"/><text fill="#5f5f5f" cursor="default" transform="translate(176.6225 356.875)"><tspan x="0" y="11.4957" style="white-space:pre">Germany</tspan></text><path fill="transparent" d="M310 359v-5h21v20h-21v-5Z"/><text fill="#5f5f5f" cursor="default" transform="translate(313.46157 356.875)"><tspan x="0" y="11.4957" style="white-space:pre">UK</tspan></text><path fill="transparent" d="M378 359v-5h29v20h-29v-5Z"/><text fill="#5f5f5f" cursor="default" transform="translate(380.6327 356.875)"><tspan x="0" y="11.4957" style="white-space:pre">Italy</tspan></text><path fill="transparent" d="M418 359v-5h35v20h-35v-5Z"/><text fill="#5f5f5f" cursor="default" transform="translate(421.06582 356.875)"><tspan x="0" y="11.4957" style="white-space:pre">Spain</tspan></text><path fill="none" stroke="#E2E2E2" stroke-linejoin="round" d="M56.5 348.5v5m72-5v5M128.5 348.5v5m144-5v5M272.5 348.5v5m97-5v5M369.5 348.5v5m46-5v5M415.5 348.5v5m41-5v5"/><g fill="#474747" font-size="13" transform="translate(61.31875 376.335)"><rect x="194.68125" y="-.335" fill="transparent" rx="0" ry="0"/><text transform="translate(167.87742)"><tspan x="0" y="12.45368" style="white-space:pre">Countries</tspan></text></g><path fill="transparent" d="m456 36 5-5h200v118l-5 5H456v-5Z"/><g font-size="13" transform="translate(525.14242 36.87)"><rect x="33.85758" y=".13" fill="transparent" rx="0" ry="0"/><text><tspan x="0" y="12.45368" font-weight="bold" style="white-space:pre">Fuel types</tspan></text></g><text fill="#323232" font-size="11" transform="translate(472.9289 60.535)"><tspan x="0" y="10.53773" style="white-space:pre">178,051</tspan></text><path fill="rgba(89,84,65,0.9)" fill-rule="evenodd" stroke="#645F4D" stroke-linejoin="round" stroke-opacity=".9" d="M517.5 64.5a2 2 0 0 1 1.998-2H535.5a2 2 0 0 1 2 1.998V70.5a2 2 0 0 1-1.998 2H519.5a2 2 0 0 1-2-1.998Z" display="block"/><text fill="#323232" font-size="11" transform="translate(542.29172 60.535)"><tspan x="0" y="10.53773" style="white-space:pre">APV other than electric</tspan></text><text fill="#323232" font-size="11" transform="translate(472.9289 78.79)"><tspan x="0" y="10.53773" style="white-space:pre">311,936</tspan></text><path fill="rgba(185,176,157,0.9)" fill-rule="evenodd" stroke="#ABA391" stroke-linejoin="round" stroke-opacity=".9" d="M517.5 82.5a2 2 0 0 1 1.998-2H535.5a2 2 0 0 1 2 1.998V88.5a2 2 0 0 1-1.998 2H519.5a2 2 0 0 1-2-1.998Z" display="block"/><text fill="#323232" font-size="11" transform="translate(542.29172 78.79)"><tspan x="0" y="10.53773" style="white-space:pre">Hybrid</tspan></text><text fill="#323232" font-size="11" transform="translate(472.9289 97.045)"><tspan x="0" y="10.53773" style="white-space:pre">150,562</tspan></text><path fill="rgba(221,232,235,0.9)" fill-rule="evenodd" stroke="#D0DADD" stroke-linejoin="round" stroke-opacity=".9" d="M517.5 100.5a2 2 0 0 1 1.998-2H535.5a2 2 0 0 1 2 1.998v6.002a2 2 0 0 1-1.998 2H519.5a2 2 0 0 1-2-1.998Z" display="block"/><text fill="#323232" font-size="11" transform="translate(542.29172 97.045)"><tspan x="0" y="10.53773" style="white-space:pre">Electrically-chargeable</tspan></text><text fill="#323232" font-size="11" transform="translate(463.59266 115.3)"><tspan x="0" y="10.53773" style="white-space:pre">5,104,305</tspan></text><path fill="rgba(105,191,222,0.9)" fill-rule="evenodd" stroke="#61B1CE" stroke-linejoin="round" stroke-opacity=".9" d="M517.5 118.5a2 2 0 0 1 1.998-2H535.5a2 2 0 0 1 2 1.998v6.002a2 2 0 0 1-1.998 2H519.5a2 2 0 0 1-2-1.998Z" display="block"/><text fill="#323232" font-size="11" transform="translate(542.29172 115.3)"><tspan x="0" y="10.53773" style="white-space:pre">Diesel</tspan></text><text fill="#323232" font-size="11" transform="translate(463.59266 133.555)"><tspan x="0" y="10.53773" style="white-space:pre">5,551,216</tspan></text><path fill="rgba(74,135,151,0.9)" fill-rule="evenodd" stroke="#427988" stroke-linejoin="round" stroke-opacity=".9" d="M517.5 137.5a2 2 0 0 1 1.998-2H535.5a2 2 0 0 1 2 1.998v6.002a2 2 0 0 1-1.998 2H519.5a2 2 0 0 1-2-1.998Z" display="block"/><text fill="#323232" font-size="11" transform="translate(542.29172 133.555)"><tspan x="0" y="10.53773" style="white-space:pre">Petrol</tspan></text><g fill="rgba(255,255,255,0)" cursor="pointer"><path d="M470.92891 58.535H655.5V75.79H470.92891zM470.92891 76.79H575.8411v17.255H470.92891zM470.92891 95.045h181.15078V112.3H470.92891zM461.59266 113.3h111.68063v17.255H461.59266zM461.59266 131.555h110.37781v17.255H461.59266z"/></g></svg>