<svg xmlns="http://www.w3.org/2000/svg" xmlns:xlink="http://www.w3.org/1999/xlink" width="576" height="384" viewBox="0 0 432 288"><defs><style>*{stroke-linecap:butt;stroke-linejoin:round;white-space:pre}</style></defs><g id="figure_1"><path id="patch_1" d="M0 288h432V0H0z" style="fill:#fff"/><g id="axes_1"><path id="patch_2" d="M77.76 236.16h336.96V5.76H77.76z" style="fill:#fff"/><g id="matplotlib.axis_1"><g id="xtick_1"><path id="line2d_1" d="M93.076 236.16V5.76" clip-path="url(#pced33251e6)" style="fill:none;stroke:#b0b0b0;stroke-linecap:square;stroke-width:.8"/><g id="line2d_2"><defs><path id="m1a3a3cb08e" d="M0 0v3.5" style="stroke:#000;stroke-width:.8"/></defs><use xlink:href="#m1a3a3cb08e" x="93.076" y="236.16" style="stroke:#000;stroke-width:.8"/></g><g id="text_1"><defs><path id="DejaVuSans-71" d="M59.516 10.406v19.578h-16.11v8.11h25.875V6.78Q63.578 2.734 56.687.656 49.813-1.422 42-1.422q-17.094 0-26.75 9.985-9.64 10-9.64 27.812 0 17.875 9.64 27.86 9.656 9.984 26.75 9.984 7.125 0 13.547-1.766 6.422-1.75 11.844-5.172v-10.5q-5.47 4.64-11.625 6.985-6.157 2.343-12.938 2.343-13.39 0-20.11-7.468-6.702-7.47-6.702-22.266 0-14.75 6.703-22.219 6.718-7.469 20.11-7.469 5.218 0 9.312.907 4.109.906 7.375 2.812z"/><path id="DejaVuSans-68" d="M19.672 64.797V8.109h11.922q15.093 0 22.093 6.829 7 6.843 7 21.593 0 14.64-7 21.453-7 6.813-22.093 6.813zm-9.86 8.11h20.266q21.188 0 31.094-8.813 9.922-8.813 9.922-27.563 0-18.86-9.969-27.703Q51.172 0 30.078 0H9.813z"/><path id="DejaVuSans-80" d="M19.672 64.797v-27.39h12.406q6.89 0 10.64 3.562 3.766 3.562 3.766 10.156 0 6.547-3.765 10.11-3.75 3.562-10.64 3.562zm-9.86 8.11h22.266q12.266 0 18.531-5.548 6.282-5.546 6.282-16.234 0-10.797-6.282-16.313-6.265-5.515-18.53-5.515H19.671V0h-9.86z"/></defs><g transform="matrix(.1 0 0 -.1 82.337 250.758)"><use xlink:href="#DejaVuSans-71"/><use xlink:href="#DejaVuSans-68" x="77.49"/><use xlink:href="#DejaVuSans-80" x="154.492"/></g></g></g><g id="xtick_2"><path id="line2d_3" d="M195.185 236.16V5.76" clip-path="url(#pced33251e6)" style="fill:none;stroke:#b0b0b0;stroke-linecap:square;stroke-width:.8"/><use xlink:href="#m1a3a3cb08e" id="line2d_4" x="195.185" y="236.16" style="stroke:#000;stroke-width:.8"/><g id="text_2"><defs><path id="DejaVuSans-76" d="M9.813 72.906h9.859V8.296h35.5V0H9.812z"/><path id="DejaVuSans-105" d="M9.422 54.688h8.984V0H9.422zm0 21.296h8.984v-11.39H9.422z"/><path id="DejaVuSans-102" d="M37.11 75.984V68.5h-8.594q-4.828 0-6.72-1.953-1.874-1.953-1.874-7.031v-4.828h14.797v-6.985H19.922V0H10.89v47.703H2.297v6.984h8.594V58.5q0 9.125 4.25 13.297 4.25 4.187 13.468 4.187z"/><path id="DejaVuSans-101" d="M56.203 29.594v-4.39H14.891q.593-9.282 5.593-14.142 5-4.859 13.938-4.859 5.172 0 10.031 1.266 4.86 1.265 9.656 3.812v-8.5Q49.266.734 44.187-.344 39.11-1.422 33.892-1.422q-13.094 0-20.735 7.61-7.64 7.625-7.64 20.625 0 13.421 7.25 21.296Q20.016 56 32.328 56q11.031 0 17.453-7.11 6.422-7.093 6.422-19.296zm-8.984 2.64q-.094 7.36-4.125 11.75-4.032 4.407-10.672 4.407-7.516 0-12.031-4.25-4.516-4.25-5.203-11.97z"/><path id="DejaVuSans-95" d="M50.984-16.61v-6.968H-.984v6.969z"/><path id="DejaVuSans-109" d="M52 44.188q3.375 6.062 8.063 8.937Q64.75 56 71.093 56q8.548 0 13.188-5.984 4.64-5.97 4.64-17V0h-9.03v32.719q0 7.86-2.797 11.656-2.781 3.813-8.485 3.813-6.984 0-11.046-4.641-4.047-4.625-4.047-12.64V0h-9.032v32.719q0 7.906-2.78 11.687-2.782 3.782-8.595 3.782-6.89 0-10.953-4.657-4.047-4.656-4.047-12.625V0H9.08v54.688h9.03v-8.5q3.078 5.03 7.375 7.421Q29.781 56 35.687 56q5.97 0 10.141-3.031Q50 49.953 52 44.187z"/><path id="DejaVuSans-97" d="M34.281 27.484q-10.89 0-15.093-2.484-4.204-2.484-4.204-8.5 0-4.781 3.157-7.594 3.156-2.797 8.562-2.797 7.485 0 12 5.297 4.516 5.297 4.516 14.078v2zm17.922 3.72V0H43.22v8.297Q40.14 3.328 35.547.953q-4.594-2.375-11.234-2.375-8.391 0-13.36 4.719Q6 8.016 6 15.922q0 9.219 6.172 13.906 6.187 4.688 18.437 4.688h12.61v.89q0 6.203-4.078 9.594-4.078 3.39-11.453 3.39-4.688 0-9.141-1.124-4.438-1.125-8.531-3.375v8.312q4.921 1.906 9.562 2.844 4.64.953 9.031.953 11.875 0 17.735-6.156 5.86-6.14 5.86-18.64z"/><path id="DejaVuSans-108" d="M9.422 75.984h8.984V0H9.422z"/></defs><g transform="matrix(.1 0 0 -.1 166.437 250.758)"><use xlink:href="#DejaVuSans-76"/><use xlink:href="#DejaVuSans-105" x="55.713"/><use xlink:href="#DejaVuSans-102" x="83.496"/><use xlink:href="#DejaVuSans-101" x="118.701"/><use xlink:href="#DejaVuSans-95" x="180.225"/><use xlink:href="#DejaVuSans-102" x="230.225"/><use xlink:href="#DejaVuSans-101" x="265.43"/><use xlink:href="#DejaVuSans-109" x="326.953"/><use xlink:href="#DejaVuSans-97" x="424.365"/><use xlink:href="#DejaVuSans-108" x="485.645"/><use xlink:href="#DejaVuSans-101" x="513.428"/></g></g></g><g id="xtick_3"><path id="line2d_5" d="M297.295 236.16V5.76" clip-path="url(#pced33251e6)" style="fill:none;stroke:#b0b0b0;stroke-linecap:square;stroke-width:.8"/><use xlink:href="#m1a3a3cb08e" id="line2d_6" x="297.295" y="236.16" style="stroke:#000;stroke-width:.8"/><g id="text_3" transform="matrix(.1 0 0 -.1 273.383 250.758)"><use xlink:href="#DejaVuSans-76"/><use xlink:href="#DejaVuSans-105" x="55.713"/><use xlink:href="#DejaVuSans-102" x="83.496"/><use xlink:href="#DejaVuSans-101" x="118.701"/><use xlink:href="#DejaVuSans-95" x="180.225"/><use xlink:href="#DejaVuSans-109" x="230.225"/><use xlink:href="#DejaVuSans-97" x="327.637"/><use xlink:href="#DejaVuSans-108" x="388.916"/><use xlink:href="#DejaVuSans-101" x="416.699"/></g></g><g id="xtick_4"><path id="line2d_7" d="M399.404 236.16V5.76" clip-path="url(#pced33251e6)" style="fill:none;stroke:#b0b0b0;stroke-linecap:square;stroke-width:.8"/><use xlink:href="#m1a3a3cb08e" id="line2d_8" x="399.404" y="236.16" style="stroke:#000;stroke-width:.8"/><g id="text_4"><defs><path id="DejaVuSans-111" d="M30.61 48.39q-7.22 0-11.422-5.64-4.204-5.64-4.204-15.453 0-9.813 4.172-15.453 4.188-5.64 11.453-5.64 7.188 0 11.375 5.655 4.203 5.672 4.203 15.438 0 9.719-4.203 15.406-4.187 5.688-11.375 5.688zm0 7.61q11.718 0 18.406-7.625 6.703-7.61 6.703-21.078 0-13.422-6.703-21.078-6.688-7.64-18.407-7.64-11.765 0-18.437 7.64-6.656 7.656-6.656 21.078 0 13.469 6.656 21.078Q18.844 56 30.609 56z"/><path id="DejaVuSans-112" d="M18.11 8.203v-29H9.077v75.484h9.031v-8.296q2.844 4.875 7.157 7.234Q29.594 56 35.594 56q9.968 0 16.187-7.906 6.235-7.907 6.235-20.797T51.78 6.484q-6.218-7.906-16.187-7.906-6 0-10.328 2.375-4.313 2.375-7.157 7.25zm30.578 19.094q0 9.906-4.079 15.547-4.078 5.64-11.203 5.64-7.14 0-11.218-5.64-4.079-5.64-4.079-15.547 0-9.906 4.078-15.547 4.079-5.64 11.22-5.64 7.124 0 11.202 5.64t4.078 15.547z"/><path id="DejaVuSans-117" d="M8.5 21.578v33.11h8.984V21.922q0-7.766 3.016-11.656 3.031-3.875 9.094-3.875 7.265 0 11.484 4.64 4.234 4.64 4.234 12.656v31h8.985V0h-8.984v8.406Q42.047 3.422 37.718 1q-4.313-2.422-10.032-2.422-9.421 0-14.312 5.86Q8.5 10.296 8.5 21.578zM31.11 56z"/><path id="DejaVuSans-116" d="M18.313 70.219V54.688h18.5v-6.985h-18.5V18.016q0-6.688 1.828-8.594 1.828-1.906 7.453-1.906h9.218V0h-9.218q-10.407 0-14.36 3.875-3.953 3.89-3.953 14.14v29.688H2.687v6.984h6.594V70.22z"/><path id="DejaVuSans-110" d="M54.89 33.016V0h-8.984v32.719q0 7.765-3.031 11.61-3.031 3.858-9.078 3.858-7.281 0-11.484-4.64-4.204-4.625-4.204-12.64V0H9.08v54.688h9.03v-8.5q3.235 4.937 7.594 7.374Q30.078 56 35.797 56q9.422 0 14.25-5.828 4.844-5.828 4.844-17.156z"/></defs><g transform="matrix(.1 0 0 -.1 372.958 250.758)"><use xlink:href="#DejaVuSans-80"/><use xlink:href="#DejaVuSans-111" x="60.256"/><use xlink:href="#DejaVuSans-112" x="121.438"/><use xlink:href="#DejaVuSans-117" x="184.914"/><use xlink:href="#DejaVuSans-108" x="248.293"/><use xlink:href="#DejaVuSans-97" x="276.076"/><use xlink:href="#DejaVuSans-116" x="337.355"/><use xlink:href="#DejaVuSans-105" x="376.564"/><use xlink:href="#DejaVuSans-111" x="404.348"/><use xlink:href="#DejaVuSans-110" x="465.529"/></g></g></g></g><g id="matplotlib.axis_2"><g id="ytick_1"><g id="line2d_9"><defs><path id="mf91a4e9f11" d="M0 0h-3.5" style="stroke:#000;stroke-width:.8"/></defs><use xlink:href="#mf91a4e9f11" x="77.76" y="232.935" style="stroke:#000;stroke-width:.8"/></g><g id="text_5"><defs><path id="DejaVuSans-8722" d="M10.594 35.5h62.593v-8.297H10.594z"/><path id="DejaVuSans-50" d="M19.188 8.297h34.421V0H7.33v8.297q5.609 5.812 15.296 15.594 9.703 9.797 12.188 12.64 4.734 5.313 6.609 9 1.89 3.688 1.89 7.25 0 5.813-4.078 9.469-4.078 3.672-10.625 3.672-4.64 0-9.797-1.61-5.14-1.609-11-4.89v9.969Q13.767 71.78 18.938 73q5.188 1.219 9.485 1.219 11.328 0 18.062-5.672 6.735-5.656 6.735-15.125 0-4.5-1.688-8.531-1.672-4.016-6.125-9.485-1.218-1.422-7.765-8.187-6.532-6.766-18.453-18.922z"/><path id="DejaVuSans-46" d="M10.688 12.406H21V0H10.687z"/><path id="DejaVuSans-53" d="M10.797 72.906h38.719v-8.312H19.828v-17.86q2.14.735 4.281 1.094 2.157.36 4.313.36 12.203 0 19.328-6.688 7.14-6.688 7.14-18.11 0-11.765-7.328-18.296-7.328-6.516-20.656-6.516-4.593 0-9.36.781-4.75.782-9.827 2.344v9.922q4.39-2.39 9.078-3.563 4.687-1.171 9.906-1.171 8.453 0 13.375 4.437 4.938 4.438 4.938 12.063 0 7.609-4.938 12.047-4.922 4.453-13.375 4.453-3.953 0-7.89-.875-3.922-.875-8.016-2.735z"/></defs><g transform="matrix(.1 0 0 -.1 46.477 236.734)"><use xlink:href="#DejaVuSans-8722"/><use xlink:href="#DejaVuSans-50" x="83.789"/><use xlink:href="#DejaVuSans-46" x="147.412"/><use xlink:href="#DejaVuSans-53" x="179.199"/></g></g></g><g id="ytick_2"><use xlink:href="#mf91a4e9f11" id="line2d_10" x="77.76" y="205.232" style="stroke:#000;stroke-width:.8"/><g id="text_6"><defs><path id="DejaVuSans-48" d="M31.781 66.406q-7.61 0-11.453-7.5Q16.5 51.422 16.5 36.375q0-14.984 3.828-22.484 3.844-7.5 11.453-7.5 7.672 0 11.5 7.5 3.844 7.5 3.844 22.484 0 15.047-3.844 22.531-3.828 7.5-11.5 7.5zm0 7.813q12.266 0 18.735-9.703 6.468-9.688 6.468-28.141 0-18.406-6.468-28.11-6.47-9.687-18.735-9.687-12.25 0-18.718 9.688-6.47 9.703-6.47 28.109 0 18.453 6.47 28.14Q19.53 74.22 31.78 74.22z"/></defs><g transform="matrix(.1 0 0 -.1 46.477 209.03)"><use xlink:href="#DejaVuSans-8722"/><use xlink:href="#DejaVuSans-50" x="83.789"/><use xlink:href="#DejaVuSans-46" x="147.412"/><use xlink:href="#DejaVuSans-48" x="179.199"/></g></g></g><g id="ytick_3"><use xlink:href="#mf91a4e9f11" id="line2d_11" x="77.76" y="177.528" style="stroke:#000;stroke-width:.8"/><g id="text_7"><defs><path id="DejaVuSans-49" d="M12.406 8.297h16.11v55.625l-17.532-3.516v8.985l17.438 3.515h9.86V8.296H54.39V0H12.406z"/></defs><g transform="matrix(.1 0 0 -.1 46.477 181.327)"><use xlink:href="#DejaVuSans-8722"/><use xlink:href="#DejaVuSans-49" x="83.789"/><use xlink:href="#DejaVuSans-46" x="147.412"/><use xlink:href="#DejaVuSans-53" x="179.199"/></g></g></g><g id="ytick_4"><use xlink:href="#mf91a4e9f11" id="line2d_12" x="77.76" y="149.825" style="stroke:#000;stroke-width:.8"/><g id="text_8" transform="matrix(.1 0 0 -.1 46.477 153.624)"><use xlink:href="#DejaVuSans-8722"/><use xlink:href="#DejaVuSans-49" x="83.789"/><use xlink:href="#DejaVuSans-46" x="147.412"/><use xlink:href="#DejaVuSans-48" x="179.199"/></g></g><g id="ytick_5"><use xlink:href="#mf91a4e9f11" id="line2d_13" x="77.76" y="122.121" style="stroke:#000;stroke-width:.8"/><g id="text_9" transform="matrix(.1 0 0 -.1 46.477 125.92)"><use xlink:href="#DejaVuSans-8722"/><use xlink:href="#DejaVuSans-48" x="83.789"/><use xlink:href="#DejaVuSans-46" x="147.412"/><use xlink:href="#DejaVuSans-53" x="179.199"/></g></g><g id="ytick_6"><use xlink:href="#mf91a4e9f11" id="line2d_14" x="77.76" y="94.418" style="stroke:#000;stroke-width:.8"/><g id="text_10" transform="matrix(.1 0 0 -.1 54.857 98.217)"><use xlink:href="#DejaVuSans-48"/><use xlink:href="#DejaVuSans-46" x="63.623"/><use xlink:href="#DejaVuSans-48" x="95.41"/></g></g><g id="ytick_7"><use xlink:href="#mf91a4e9f11" id="line2d_15" x="77.76" y="66.714" style="stroke:#000;stroke-width:.8"/><g id="text_11" transform="matrix(.1 0 0 -.1 54.857 70.513)"><use xlink:href="#DejaVuSans-48"/><use xlink:href="#DejaVuSans-46" x="63.623"/><use xlink:href="#DejaVuSans-53" x="95.41"/></g></g><g id="ytick_8"><use xlink:href="#mf91a4e9f11" id="line2d_16" x="77.76" y="39.011" style="stroke:#000;stroke-width:.8"/><g id="text_12" transform="matrix(.1 0 0 -.1 54.857 42.81)"><use xlink:href="#DejaVuSans-49"/><use xlink:href="#DejaVuSans-46" x="63.623"/><use xlink:href="#DejaVuSans-48" x="95.41"/></g></g><g id="ytick_9"><use xlink:href="#mf91a4e9f11" id="line2d_17" x="77.76" y="11.307" style="stroke:#000;stroke-width:.8"/><g id="text_13" transform="matrix(.1 0 0 -.1 54.857 15.106)"><use xlink:href="#DejaVuSans-49"/><use xlink:href="#DejaVuSans-46" x="63.623"/><use xlink:href="#DejaVuSans-53" x="95.41"/></g></g><g id="text_14"><defs><path id="DejaVuSans-90" d="M5.61 72.906h57.28v-7.531L16.798 8.297h47.219V0H4.5v7.516l46.094 57.078H5.609z"/><path id="DejaVuSans-45" d="M4.89 31.39h26.313v-8H4.891z"/><path id="DejaVuSans-115" d="M44.281 53.078v-8.5q-3.797 1.953-7.906 2.922-4.094.984-8.5.984-6.688 0-10.031-2.047-3.344-2.046-3.344-6.156 0-3.125 2.39-4.906 2.391-1.781 9.626-3.39l3.078-.688q9.562-2.047 13.593-5.781 4.032-3.735 4.032-10.422 0-7.625-6.032-12.078-6.03-4.438-16.578-4.438-4.39 0-9.156.86Q10.688.296 5.422 2v9.281q4.984-2.594 9.812-3.89 4.829-1.282 9.579-1.282 6.343 0 9.75 2.172 3.421 2.172 3.421 6.125 0 3.656-2.468 5.61-2.453 1.953-10.813 3.765l-3.125.735q-8.344 1.75-12.062 5.39-3.704 3.64-3.704 9.985 0 7.718 5.47 11.906Q16.75 56 26.811 56q4.97 0 9.36-.734 4.406-.72 8.11-2.188z"/><path id="DejaVuSans-99" d="M48.781 52.594v-8.407q-3.812 2.11-7.64 3.157-3.828 1.047-7.735 1.047-8.75 0-13.593-5.547-4.829-5.532-4.829-15.547 0-10.016 4.829-15.563 4.843-5.53 13.593-5.53 3.907 0 7.735 1.046 3.828 1.047 7.64 3.156V2.094Q45.016.344 40.984-.531q-4.015-.89-8.562-.89-12.36 0-19.64 7.765-7.266 7.765-7.266 20.953 0 13.375 7.343 21.031Q20.22 56 33.016 56q4.14 0 8.093-.86 3.953-.843 7.672-2.546z"/><path id="DejaVuSans-114" d="M41.11 46.297q-1.516.875-3.297 1.281Q36.03 48 33.89 48q-7.625 0-11.703-4.953-4.079-4.953-4.079-14.234V0H9.08v54.688h9.03v-8.5q2.844 4.984 7.375 7.39Q30.031 56 36.531 56q.922 0 2.047-.125 1.125-.11 2.484-.36z"/></defs><g transform="matrix(0 -.15 -.15 0 39.358 149.118)"><use xlink:href="#DejaVuSans-90"/><use xlink:href="#DejaVuSans-45" x="68.49"/><use xlink:href="#DejaVuSans-115" x="104.574"/><use xlink:href="#DejaVuSans-99" x="156.674"/><use xlink:href="#DejaVuSans-111" x="211.654"/><use xlink:href="#DejaVuSans-114" x="272.836"/><use xlink:href="#DejaVuSans-101" x="313.918"/></g></g></g><path id="line2d_18" d="m93.076 141.28 102.11 33.662 102.109-1.023 102.109-56.874" clip-path="url(#pced33251e6)" style="fill:none;stroke:#f77189;stroke-linecap:square;stroke-width:1.5"/><path id="line2d_19" d="m93.076 81.62 102.11 23.224 102.109 9.587 102.109 100.135" clip-path="url(#pced33251e6)" style="fill:none;stroke:#dc8932;stroke-linecap:square;stroke-width:1.5"/><path id="line2d_20" d="m93.076 140.063 102.11-1.21 102.109-2.57 102.109 89.404" clip-path="url(#pced33251e6)" style="fill:none;stroke:#ae9d31;stroke-linecap:square;stroke-width:1.5"/><path id="line2d_21" d="m93.076 123.774 102.11 9.223 102.109 11.427 102.109-80.89" clip-path="url(#pced33251e6)" style="fill:none;stroke:#77ab31;stroke-linecap:square;stroke-width:1.5"/><path id="line2d_22" d="m93.076 214.433 102.11-49.735 102.109 8.629 102.109-68.416" clip-path="url(#pced33251e6)" style="fill:none;stroke:#33b07a;stroke-linecap:square;stroke-width:1.5"/><path id="line2d_23" d="m93.076 38.227 102.11-21.994 102.109 2.609 102.109 66.684" clip-path="url(#pced33251e6)" style="fill:none;stroke:#36ada4;stroke-linecap:square;stroke-width:1.5"/><path id="line2d_24" d="m93.076 52.808 102.11 44.525 102.109 5.387L399.404 65.6" clip-path="url(#pced33251e6)" style="fill:none;stroke:#38a9c5;stroke-linecap:square;stroke-width:1.5"/><path id="line2d_25" d="m93.076 216.464 102.11-103.08 102.109-5.316 102.109-48.363" clip-path="url(#pced33251e6)" style="fill:none;stroke:#6e9bf4;stroke-linecap:square;stroke-width:1.5"/><path id="line2d_26" d="m93.076 115.927 102.11 90.95 102.109-8.246L399.404 86.345" clip-path="url(#pced33251e6)" style="fill:none;stroke:#cc7af4;stroke-linecap:square;stroke-width:1.5"/><path id="line2d_27" d="m93.076 134.331 102.11-24.61 102.109-5.042 102.109-49.521" clip-path="url(#pced33251e6)" style="fill:none;stroke:#f565cc;stroke-linecap:square;stroke-width:1.5"/><path id="patch_3" d="M77.76 236.16V5.76" style="fill:none;stroke:#000;stroke-linecap:square;stroke-linejoin:miter;stroke-width:.8"/><path id="patch_4" d="M414.72 236.16V5.76" style="fill:none;stroke:#000;stroke-linecap:square;stroke-linejoin:miter;stroke-width:.8"/><path id="patch_5" d="M77.76 236.16h336.96" style="fill:none;stroke:#000;stroke-linecap:square;stroke-linejoin:miter;stroke-width:.8"/><path id="patch_6" d="M77.76 5.76h336.96" style="fill:none;stroke:#000;stroke-linecap:square;stroke-linejoin:miter;stroke-width:.8"/></g></g><defs><clipPath id="pced33251e6"><path d="M77.76 5.76h336.96v230.4H77.76z"/></clipPath></defs></svg>