<svg xmlns="http://www.w3.org/2000/svg" xmlns:xlink="http://www.w3.org/1999/xlink" width="560" height="420"><path fill="none" d="M0 0h560v420H0z"/><defs><path id="d" stroke="currentColor" stroke-width=".267" d="M-1-1h2v2h-2z"/><path id="b" stroke="currentColor" stroke-width=".267" d="m0-1.33-1.33 2h2.66z"/><path id="f" stroke="currentColor" stroke-width=".267" d="M0 1.33 1.265.411.782-1.067l-1.564-.009-.483 1.487z"/><use xlink:href="#b" id="c" stroke="currentColor" transform="rotate(180)"/><use xlink:href="#d" id="e" stroke="currentColor" transform="rotate(45)"/><circle id="a" cx="0" cy="0" r="1" stroke="currentColor" stroke-width=".267"/></defs><path fill="#FFF" stroke="none" d="M145.1 373.8h289.3V31.7H145.1z" color="#000" shape-rendering="crispEdges"/><g fill="none" stroke="currentColor" stroke-width=".5" color="#000"><path stroke="#000" d="M145.1 373.8v-5.6"/><text fill="#262626" stroke="none" font-family="Helvetica" font-size="10" text-anchor="middle" transform="translate(145.1 392.1)"><tspan>f</tspan><tspan dy="3" font-size="8">1</tspan></text></g><g fill="none" stroke="currentColor" stroke-width=".5" color="#000"><path stroke="#000" d="M289.8 373.8v-5.6"/><text fill="#262626" stroke="none" font-family="Helvetica" font-size="10" text-anchor="middle" transform="translate(289.8 392.1)"><tspan>f</tspan><tspan dy="3" font-size="8">2</tspan></text></g><g fill="none" stroke="currentColor" stroke-width=".5" color="#000"><path stroke="#000" d="M434.4 373.8v-5.6"/><text fill="#262626" stroke="none" font-family="Helvetica" font-size="10" text-anchor="middle" transform="translate(434.4 392.1)"><tspan>f</tspan><tspan dy="3" font-size="8">3</tspan></text></g><path fill="none" stroke="#0071BC" stroke-width=".5" d="M145.1 215.7 289.8 41.6l144.6 98.8m-289.3 40.3L289.8 46.5l144.6 64.2m-289.3 92.6L289.8 42.6l144.6 2.3m-289.3 3.9 144.7-6 144.6 167.1m-289.3 15.5L289.8 45.6l144.6 119.8M145.1 110l144.7-66.7L434.4 199M145.1 58.6l144.7-16.9 144.6 72M145.1 42.4l144.7.1 144.6 55.9m-289.3 58.9L289.8 41.5l144.6 86.2m-289.3-50 144.7-36 144.6 1M145.1 176.2l144.7-132 144.6 87.6M145.1 82.2l144.7-36.4L434.4 100m-289.3 61L289.8 44.7l144.6 14.9M145.1 175.7 289.8 42.5l144.6 101.3m-289.3 1.9L289.8 42.9 434.4 103m-289.3 64.2L289.8 42.4l144.6 31.3m-289.3 5.8 144.7-37.4 144.6 81.4m-289.3 15 144.7-91.1 144.6 109.7m-289.3-24.2 144.7-84.2 144.6 40m-289.3-14 144.7-31.6L434.4 192M145.1 45.1l144.7-3.2 144.6 22.4M145.1 102l144.7-57 144.6 108.4m-289.3-4.3L289.8 45.3l144.6 42.8m-289.3 20.6L289.8 49l144.6 146.7M145.1 57.9l144.7-13.7 144.6 105.3m-289.3 5L289.8 42.4 434.4 113m-289.3 87.7 144.7-152 144.6-.5m-289.3-1.6L289.8 43l144.6 87.3m-289.3 90.3 144.7-179 144.6 73.7m-289.3 22.2 144.7-94.9 144.6 40m-289.3 20 144.7-61.3 144.6 82.8m-289.3-24 144.7-58.5 144.6 154.5M145.1 96.3l144.7-52.2 144.6 66.4m-289.3 10.2 144.7-75.1 144.6 21.9m-289.3 9.8 144.7-28.2 144.6 17.5m-289.3 56.2 144.7-76.3 144.6 35.7M145.1 203.8 289.8 45.7l144.6 120.1m-289.3 38.9L289.8 41.9l144.6 99.7m-289.3 65.2L289.8 42.5l144.6 60.6M145.1 114l144.7-71.8 144.6 136.6m-289.3-72 144.7-63.4 144.6 89.1M145.1 97.3l144.7-54.9 144.6 147.7m-289.3-10.5L289.8 48.8l144.6 62.8M145.1 60.3 289.8 44l144.6 56.5m-289.3 29.2 144.7-86.1 144.6 58.1m-289.3 84.6L289.8 43.4l144.6 19.4M145.1 191.2 289.8 42l144.6 135.9m-289.3-18.5L289.8 43.6l144.6 43.3m-289.3 34.2 144.7-78.8 144.6 68.9m-289.3 8.3 144.7-72.2 144.6 89.8m-289.3 79.1L289.8 361l144.6-133.5m-289.3 38.9 144.7 93.3 144.6-176.9M145.1 299l144.7 64.8 144.6-27.9m-289.3 26.9 144.7-1.2 144.6-6.7m-289.3-178 144.7 183.6 144.6-210.1m-289.3-1.2 144.7 207.5 144.6-56m-289.3 2 144.7 59.1 144.6-110.5m-289.3-39.9 144.7 147.3 144.6-137.3m-289.3 142 144.7-.5L434.4 245m-289.3-91.7 144.7 210.2L434.4 306M145.1 162.4l144.7 197.7 144.6-135.6m-289.3-34.9 144.7 166.9 144.6-179.4m-289.3-47.8 144.7 231.2 144.6-143.1m-289.3 75 144.7 69.5 144.6-31.1M145.1 136.7l144.7 225 144.6-114.4m-289.3 20 144.7 94.2L434.4 264m-289.3 21.7 144.7 76.4 144.6-186M145.1 327.6l144.7 34.1 144.6-192M145.1 323.9l144.7 38.4 144.6-201.1M145.1 232l144.7 127.4 144.6-146.3m-289.3-40 144.7 187.4 144.6-134.6m-289.3 93.5 144.7 43.5 144.6-129.5m-289.3 86.4L289.8 360l144.6-212M145.1 314.2 289.8 363l144.6-1.7m-289.3-83.2 144.7 84.1 144.6-122.8m-289.3-93.7 144.7 215.1 144.6-2m-289.3-5.9 144.7 10.7 144.6-125.8m-289.3 67.9 144.7 52.4 144.6-167.4m-289.3-54.8 144.7 222.6 144.6-166.4m-289.3 37.3 144.7 133.3 144.6-78.8m-289.3 32.7 144.7 46.7 144.6-194.1m-289.3 69.3 144.7 125.4 144.6-77.4M145.1 159.7l144.7 203.8 144.6-176m-289.3-11.6 144.7 188.2 144.6-54M145.1 131.6l144.7 229.6 144.6-181.5M145.1 244l144.7 119.5 144.6-227.8m-289.3 53.9 144.7 173 144.6-101.9M145.1 284l144.7 79.1 144.6-190.8m-289.3 94.2 144.7 95.8 144.6-49.4m-289.3 45.4 144.7 1.8 144.6-121.7m-289.3 125 144.7-1.2 144.6-228.3M145.1 294.1l144.7 69.3 144.6-84.2m-289.3-43.5 144.7 126.4 144.6-169.8M145.1 314.8l144.7 46 144.6-49.9m-289.3-11.4 144.7 61.9 144.6-177.5m-289.3 26.5 144.7 150.9 144.6-196.9m-289.3 1.4L289.8 362l144.6-170.6M145.1 193l144.7 166.6L434.4 201m-289.3-64.6 144.7 221 144.6-106m-289.3-130 144.7 236.9L434.4 305" color="#000"/><path fill="none" stroke="#000" d="M145.1 373.8V31.6m0 285h-4.3m4.3-47.5h-4.3m4.3-47.6h-4.3m4.3-47.5h-4.3m4.3-47.6h-4.3m4.3-47.6h-4.3m149 295V31.6m0 332.5h-4.4m4.4-322.8h-4.4m4.4 322.8h-4.4m149 9.7V31.6m0 289.1h4.3m-4.3-46.6h4.3m-4.3-46.6h4.3m-4.3-46.6h4.3m-4.3-46.5h4.3m-4.3-46.6h4.3" color="#000"/><g fill="#000" stroke="none" color="#000" font-family="Helvetica" font-size="10" text-anchor="end"><text transform="translate(139.3 319.9)"><tspan>70</tspan></text><text transform="translate(139.3 272.4)"><tspan>75</tspan></text><text transform="translate(139.3 224.8)"><tspan>80</tspan></text><text transform="translate(139.3 177.3)"><tspan>85</tspan></text><text transform="translate(139.3 129.7)"><tspan>90</tspan></text><text transform="translate(139.3 82.1)"><tspan>95</tspan></text><text transform="translate(284 367.4)"><tspan>false</tspan></text><text transform="translate(284 44.6)"><tspan>true</tspan></text></g><g fill="#000" stroke="none" color="#000" font-family="Helvetica" font-size="10"><text transform="translate(440.2 324)"><tspan>110</tspan></text><text transform="translate(440.2 277.4)"><tspan>115</tspan></text><text transform="translate(440.2 230.8)"><tspan>120</tspan></text><text transform="translate(440.2 184.2)"><tspan>125</tspan></text><text transform="translate(440.2 137.7)"><tspan>130</tspan></text><text transform="translate(440.2 91.1)"><tspan>135</tspan></text></g></svg>