<svg xmlns="http://www.w3.org/2000/svg" style="width:100%;height:100%;overflow:visible"><defs><clipPath id="a"><path d="M0 0h864v500H0z"/></clipPath><clipPath id="b"><path d="M0-219a219 219 0 0 1 0 438 219 219 0 0 1 0-438"/></clipPath><clipPath id="c"><path d="M0-219a219 219 0 0 1 0 438 219 219 0 0 1 0-438"/></clipPath><clipPath id="d"><path d="M0-219a219 219 0 0 1 0 438 219 219 0 0 1 0-438"/></clipPath><clipPath id="e"><path d="M0-219a219 219 0 0 1 0 438 219 219 0 0 1 0-438"/></clipPath><clipPath id="f"><path d="M0-219a219 219 0 0 1 0 438 219 219 0 0 1 0-438"/></clipPath><filter id="g" width="200%" height="200%" x="-50%" y="-50%" filterUnits="objectBoundingBox"><feGaussianBlur in="SourceGraphic" result="blurOut" stdDeviation="1.5"/><feOffset dx="1" dy="1" result="offsetBlur"/><feFlood flood-color="#000" flood-opacity=".5"/><feComposite in2="offsetBlur" operator="in"/><feMerge><feMergeNode/><feMergeNode in="SourceGraphic"/></feMerge></filter><filter id="h" width="120%" height="120%" x="-10%" y="-10%" filterUnits="objectBoundingBox"><feColorMatrix type="saturate" values="0"/></filter><filter id="j" width="200%" height="200%" x="-50%" y="-50%" filterUnits="objectBoundingBox"><feGaussianBlur in="SourceGraphic" result="blurOut" stdDeviation="1.5"/><feOffset dx="1" dy="1" result="offsetBlur"/><feFlood flood-color="#000" flood-opacity=".5"/><feComposite in2="offsetBlur" operator="in"/><feMerge><feMergeNode/><feMergeNode in="SourceGraphic"/></feMerge></filter><filter id="k" width="200%" height="200%" x="-50%" y="-50%" filterUnits="objectBoundingBox"><feGaussianBlur in="SourceGraphic" result="blurOut" stdDeviation="1.5"/><feOffset dx="1" dy="1" result="offsetBlur"/><feFlood flood-color="#000" flood-opacity=".5"/><feComposite in2="offsetBlur" operator="in"/><feMerge><feMergeNode/><feMergeNode in="SourceGraphic"/></feMerge><feGaussianBlur in="SourceGraphic" result="blurOut" stdDeviation="1.5"/><feOffset dx="1" dy="1" result="offsetBlur"/><feFlood flood-color="#000" flood-opacity=".5"/><feComposite in2="offsetBlur" operator="in"/><feMerge><feMergeNode/><feMergeNode in="SourceGraphic"/></feMerge></filter><filter id="l" width="200%" height="200%" x="-50%" y="-50%" filterUnits="objectBoundingBox"><feGaussianBlur in="SourceGraphic" result="blurOut" stdDeviation="1.5"/><feOffset dx="1" dy="1" result="offsetBlur"/><feFlood flood-color="#000" flood-opacity=".5"/><feComposite in2="offsetBlur" operator="in"/><feMerge><feMergeNode/><feMergeNode in="SourceGraphic"/></feMerge><feGaussianBlur in="SourceGraphic" result="blurOut" stdDeviation="1.5"/><feOffset dx="1" dy="1" result="offsetBlur"/><feFlood flood-color="#000" flood-opacity=".5"/><feComposite in2="offsetBlur" operator="in"/><feMerge><feMergeNode/><feMergeNode in="SourceGraphic"/></feMerge></filter><filter id="m" width="200%" height="200%" x="-50%" y="-50%" filterUnits="objectBoundingBox"><feGaussianBlur in="SourceGraphic" result="blurOut" stdDeviation="1.5"/><feOffset dx="1" dy="1" result="offsetBlur"/><feFlood flood-color="#000" flood-opacity=".5"/><feComposite in2="offsetBlur" operator="in"/><feMerge><feMergeNode/><feMergeNode in="SourceGraphic"/></feMerge><feGaussianBlur in="SourceGraphic" result="blurOut" stdDeviation="1.5"/><feOffset dx="1" dy="1" result="offsetBlur"/><feFlood flood-color="#000" flood-opacity=".5"/><feComposite in2="offsetBlur" operator="in"/><feMerge><feMergeNode/><feMergeNode in="SourceGraphic"/></feMerge></filter><linearGradient id="i" x1="1%" x2="99%" y1="59%" y2="41%"><stop offset="0" stop-color="#474758"/><stop offset=".75" stop-color="#474758"/><stop offset=".755" stop-color="#3cabff"/></linearGradient></defs><path fill="none" fill-opacity="0" d="M0 0h864v500H0z"/><g aria-label="Chart" clip-path="url(&quot;#a&quot;)"><g style="touch-action:none;user-select:none;-webkit-user-drag:none"><path fill="none" fill-opacity="0" d="M15 47h802v438H15z"/><g stroke="#fff" stroke-opacity="0"><g aria-label="Series 1"><g clip-path="url(&quot;#b&quot;)" transform="translate(416 266)"><g fill="#67b7dc" stroke-opacity=".2"><path d="M0 0v-21.9a21.9 21.9 0 0 1 12.873 4.183L0 0"/><path d="m0 0 6.466-8.9a11 11 0 0 1 3.996 5.5L0 0M0 0l41.656-13.535a43.8 43.8 0 0 1 0 27.07L0 0M0 0l5.23 1.7a5.5 5.5 0 0 1-1.997 2.75L0 0"/><path d="m0 0 28.978 39.885A49.3 49.3 0 0 1 0 49.3V0M0 0v32.9a32.9 32.9 0 0 1-19.338-6.283L0 0M0 0l-9.64 13.268a16.4 16.4 0 0 1-5.957-8.2L0 0"/><path d="m0 0-5.23 1.7a5.5 5.5 0 0 1 0-3.4L0 0"/><path d="m0 0-10.462-3.4a11 11 0 0 1 3.996-5.5L0 0"/><path d="m0 0-32.21-44.334A54.8 54.8 0 0 1 0-54.8V0"/></g></g></g><g aria-label="Series 2"><g clip-path="url(&quot;#c&quot;)" transform="translate(416 266)"><g fill="#6794dc" stroke-opacity=".2"><path d="M0-21.9v-21.9a43.8 43.8 0 0 1 25.745 8.365L12.872-17.717A21.9 21.9 0 0 0 0-21.9M6.466-8.9l6.407-8.818a21.9 21.9 0 0 1 7.955 10.95L10.462-3.399a11 11 0 0 0-3.996-5.5M41.656-13.535 83.313-27.07a87.6 87.6 0 0 1 0 54.14L41.656 13.535a43.8 43.8 0 0 0 0-27.07M5.23 1.7l5.232 1.7a11 11 0 0 1-3.996 5.5L3.233 4.45A5.5 5.5 0 0 0 5.23 1.7M28.978 39.885l28.978 39.884A98.6 98.6 0 0 1 0 98.6V49.3a49.3 49.3 0 0 0 28.978-9.415M0 32.9v32.8a65.7 65.7 0 0 1-38.617-12.548l19.279-26.535A32.9 32.9 0 0 0 0 32.9"/><path d="m-9.64 13.268-9.698 13.349a32.9 32.9 0 0 1-11.952-16.45l15.693-5.1a16.4 16.4 0 0 0 5.957 8.2M-5.23 1.7l-5.232 1.7a11 11 0 0 1 0-6.8l5.231 1.7a5.5 5.5 0 0 0 0 3.4"/><path d="m-10.462-3.4-10.366-3.368a21.9 21.9 0 0 1 7.955-10.95l6.407 8.819a11 11 0 0 0-3.996 5.5M-32.21-44.334l-32.152-44.253A109.5 109.5 0 0 1 0-109.5v54.7a54.8 54.8 0 0 0-32.21 10.466"/></g></g></g><g aria-label="Series 3"><g clip-path="url(&quot;#d&quot;)" transform="translate(416 266)"><g fill="#6771dc" stroke-opacity=".2"><path d="M0-43.8v-49.3a93.1 93.1 0 0 1 54.723 17.78L25.745-35.434A43.8 43.8 0 0 0 0-43.8M12.873-17.718l9.64-13.267a38.3 38.3 0 0 1 13.912 19.15L20.828-6.767a21.9 21.9 0 0 0-7.955-10.95M83.313-27.07 130.2-42.304a136.9 136.9 0 0 1 0 84.609L83.313 27.07a87.6 87.6 0 0 0 0-54.14M10.462 3.4l31.194 10.135a43.8 43.8 0 0 1-15.911 21.9L6.465 8.899a11 11 0 0 0 3.997-5.5M57.956 79.77l6.406 8.817A109.5 109.5 0 0 1 0 109.5V98.6a98.6 98.6 0 0 0 57.956-18.83M0 65.7v21.9a87.6 87.6 0 0 1-51.49-16.73l12.873-17.718A65.7 65.7 0 0 0 0 65.7M-19.338 26.617l-28.92 39.803a82.1 82.1 0 0 1-29.824-41.05l46.792-15.203a32.9 32.9 0 0 0 11.952 16.45M-10.462 3.4l-25.963 8.435a38.3 38.3 0 0 1 0-23.67L-10.462-3.4a11 11 0 0 0 0 6.798M-20.828-6.768l-46.887-15.234a71.2 71.2 0 0 1 25.865-35.6l28.977 39.884a21.9 21.9 0 0 0-7.955 10.95M-64.362-88.587l-28.978-39.885A158.8 158.8 0 0 1 0-158.8v49.3a109.5 109.5 0 0 0-64.362 20.913"/></g></g></g><g aria-label="Series 4"><g clip-path="url(&quot;#e&quot;)" transform="translate(416 266)"><g fill="#8067dc" stroke-opacity=".2"><path d="M0-93.1V-104a104 104 0 0 1 61.13 19.862l-6.407 8.819A93.1 93.1 0 0 0 0-93.1M22.512-30.985 41.85-57.602a71.2 71.2 0 0 1 25.865 35.6l-31.29 10.167a38.3 38.3 0 0 0-13.913-19.15M130.2-42.304l52.022-16.904a191.6 191.6 0 0 1 0 118.416L130.2 42.304a136.9 136.9 0 0 0 0-84.609M41.656 13.535l26.06 8.467a71.2 71.2 0 0 1-25.866 35.6L25.745 35.435a43.8 43.8 0 0 0 15.911-21.9M64.362 88.587l16.106 22.167A136.9 136.9 0 0 1 0 136.9v-27.4a109.5 109.5 0 0 0 64.362-20.913M0 87.6v49.3a136.9 136.9 0 0 1-80.468-26.146L-51.49 70.87A87.6 87.6 0 0 0 0 87.6"/><path d="m-48.257 66.42-22.571 31.067a120.5 120.5 0 0 1-43.774-60.25l36.52-11.867a82.1 82.1 0 0 0 29.825 41.05M-36.425 11.835a38.3 38.3 0 0 1 0-23.67 38.3 38.3 0 0 0 0 23.67M-67.715-22.002-98.91-32.138a104 104 0 0 1 37.78-52l19.28 26.536a71.2 71.2 0 0 0-25.865 35.6M-93.34-128.472l-22.513-30.985A197.1 197.1 0 0 1 0-197.1v38.3a158.8 158.8 0 0 0-93.34 30.328"/></g></g></g></g><g aria-hidden="true"><path fill="none" stroke="none" stroke-opacity="0" d="M0-219a219 219 0 0 1 0 438 219 219 0 0 1 0-438" style="pointer-events:none" transform="translate(415.5 265.5)"/></g><g aria-hidden="true"><text y="18" dy="-4.86" style="user-select:none" transform="translate(426 257)"><tspan>0</tspan></text><text y="18" dy="-4.86" style="user-select:none" transform="translate(426 202.2)"><tspan>10</tspan></text><text y="18" dy="-4.86" style="user-select:none" transform="translate(426 147.5)"><tspan>20</tspan></text><text y="18" dy="-4.86" style="user-select:none" transform="translate(426 92.7)"><tspan>30</tspan></text><text y="18" dy="-4.86" style="user-select:none" transform="translate(426 38)"><tspan>40</tspan></text><path fill="none" stroke="none" stroke-opacity="0" d="M0 0v-219" style="pointer-events:none" transform="translate(415.5 265.5)"/></g></g><g aria-controls="id-22" aria-labelledby="id-360-title" aria-orientation="vertical" aria-valuemax="100" aria-valuemin="0" aria-valuenow="0" aria-valuetext="From 0 to 40" transform="translate(827 47)"><path fill="#f3f3f3" fill-opacity=".5" d="M6 0a6 6 0 0 1 6 6v426a6 6 0 0 1-6 6 6 6 0 0 1-6-6V6a6 6 0 0 1 6-6Z"/><g aria-describedby="id-374-description" aria-labelledby="id-374-title" aria-live="polite" aria-valuemax="100" aria-valuemin="0" aria-valuenow="0" aria-valuetext="From 0 to 40" style="touch-action:none;user-select:none;-webkit-user-drag:none;cursor:-webkit-grab" tabindex="0" transform="translate(6)"><path fill="#d9d9d9" stroke="#fff" d="M0 0a6 6 0 0 1 6 6v426a6 6 0 0 1-6 6 6 6 0 0 1-6-6V6a6 6 0 0 1 6-6Z"/></g><g aria-describedby="id-362-description" aria-labelledby="id-362-title" aria-valuemax="100" aria-valuemin="0" aria-valuenow="0" aria-valuetext="To 40" style="touch-action:none;user-select:none;-webkit-user-drag:none;cursor:ns-resize" tabindex="0" transform="translate(6 438)"><path fill="#d9d9d9" stroke="#fff" d="M0-14A14 14 0 0 1 14 0 14 14 0 0 1 0 14 14 14 0 0 1-14 0 14 14 0 0 1 0-14Z"/><path stroke="#fff" stroke-opacity=".7" d="M-2-6V6M2-6V6" style="pointer-events:none" transform="rotate(-90 0 .5)"/></g><g aria-describedby="id-368-description" aria-labelledby="id-368-title" aria-valuemax="100" aria-valuemin="0" aria-valuenow="100" aria-valuetext="From 0" style="touch-action:none;user-select:none;-webkit-user-drag:none;cursor:ns-resize" tabindex="0" transform="translate(6)"><path fill="#d9d9d9" stroke="#fff" d="M0-14A14 14 0 0 1 14 0 14 14 0 0 1 0 14 14 14 0 0 1-14 0 14 14 0 0 1 0-14Z"/><path stroke="#fff" stroke-opacity=".7" d="M-2-6V6M2-6V6" style="pointer-events:none" transform="rotate(-90 0 .5)"/></g></g><g aria-controls="id-22" aria-labelledby="id-339-title" aria-orientation="horizontal" aria-valuemax="100" aria-valuemin="0" aria-valuenow="0" aria-valuetext="From 0 to 9" transform="translate(15 25)"><path fill="#f3f3f3" fill-opacity=".5" d="M6 0h790a6 6 0 0 1 6 6 6 6 0 0 1-6 6H6a6 6 0 0 1-6-6 6 6 0 0 1 6-6Z"/><g aria-describedby="id-353-description" aria-labelledby="id-353-title" aria-live="polite" aria-valuemax="100" aria-valuemin="0" aria-valuenow="0" aria-valuetext="From 0 to 9" style="touch-action:none;user-select:none;-webkit-user-drag:none;cursor:-webkit-grab" tabindex="0" transform="translate(0 6)"><path fill="#d9d9d9" stroke="#fff" d="M6-6h790a6 6 0 0 1 6 6 6 6 0 0 1-6 6H6a6 6 0 0 1-6-6 6 6 0 0 1 6-6Z"/></g><g aria-describedby="id-341-description" aria-labelledby="id-341-title" aria-valuemax="100" aria-valuemin="0" aria-valuenow="0" aria-valuetext="From 0" style="touch-action:none;user-select:none;-webkit-user-drag:none;cursor:ew-resize" tabindex="0" transform="translate(0 6)"><path fill="#d9d9d9" stroke="#fff" d="M0-14A14 14 0 0 1 14 0 14 14 0 0 1 0 14 14 14 0 0 1-14 0 14 14 0 0 1 0-14Z"/><path stroke="#fff" stroke-opacity=".7" d="M-2-6V6M2-6V6" style="pointer-events:none" transform="translate(-.5 -.5)"/></g><g aria-describedby="id-347-description" aria-labelledby="id-347-title" aria-valuemax="100" aria-valuemin="0" aria-valuenow="100" aria-valuetext="To 9" style="touch-action:none;user-select:none;-webkit-user-drag:none;cursor:ew-resize" tabindex="0" transform="translate(802 6)"><path fill="#d9d9d9" stroke="#fff" d="M0-14A14 14 0 0 1 14 0 14 14 0 0 1 0 14 14 14 0 0 1-14 0 14 14 0 0 1 0-14Z"/><path stroke="#fff" stroke-opacity=".7" d="M-2-6V6M2-6V6" style="pointer-events:none" transform="translate(-.5 -.5)"/></g></g></g><g aria-labelledby="id-68-title" filter="url(&quot;#h&quot;)" opacity=".3" style="cursor:pointer" transform="translate(0 479)"><g fill="none" stroke-width="1.8"><path stroke="#3cabff" d="M15 15h12c4.2 0 6.3-9 9-9s2.7 4.5 4.5 4.5c1.8 0 1.8-4.5 4.5-4.5s6 9 9 9h6"/><path stroke="url(&quot;#i&quot;)" d="M6 15h9c5.25 0 5.775-11.4 12-11.4S33.9 15 39.9 15H60"/></g></g></svg>