<svg width="891" height="390" viewBox="0 0 891 390" fill="none" xmlns="http://www.w3.org/2000/svg">
<path d="M6.99999 199.381C6.99999 300.297 88.7725 382.105 189.644 382.105C290.515 382.105 372.288 300.297 372.288 199.381C372.288 98.4651 290.515 16.6566 189.644 16.6566" stroke="#162750" stroke-width="14"/>
<path d="M53.1788 199.381C53.1788 274.584 114.116 335.548 189.286 335.548C264.456 335.548 325.393 274.584 325.393 199.381C325.393 124.178 264.456 63.2141 189.286 63.2141" stroke="#162750" stroke-width="14"/>
<path d="M107.387 199.381C107.387 244.633 144.055 281.317 189.286 281.317C234.518 281.317 271.186 244.633 271.186 199.381C271.186 154.13 234.518 117.446 189.286 117.446" stroke="#162750" stroke-width="14"/>
<path d="M189.286 382.105C290.158 382.105 371.93 300.297 371.93 199.381C371.93 98.4651 290.158 16.6566 189.286 16.6566" stroke="#3EFFE8" stroke-width="14"/>
<path d="M189.286 63.2141C264.456 63.2141 325.393 124.178 325.393 199.381C325.393 274.584 264.456 335.548 189.286 335.548C153.872 335.548 121.617 322.017 97.4043 299.84" stroke="#42CAEB" stroke-width="14"/>
<path d="M189.286 117.446C234.518 117.446 271.186 154.13 271.186 199.381C271.186 244.633 234.518 281.317 189.286 281.317C158.628 281.317 131.904 264.464 117.866 239.513" stroke="#4D96BE" stroke-width="14"/>
<path d="M126.836 1.6H116.32V4.504H123.624C120.698 8.024 118.806 12.446 118.454 17H121.798C121.842 12.886 123.602 7.1 126.836 4.284V1.6ZM139.346 1.6H130.744L129.226 10.114H132.042C132.658 9.278 133.274 8.882 134.396 8.882C136.068 8.882 137.058 10.158 137.058 11.764C137.058 13.304 136.024 14.734 134.396 14.734C133.032 14.734 132.02 13.788 131.866 12.424H128.742C128.786 15.658 131.47 17.308 134.462 17.308C137.564 17.374 140.182 14.932 140.182 11.764C140.182 8.882 138.466 6.528 135.43 6.528C134.22 6.528 133.252 6.858 132.416 7.716L132.372 7.672L132.988 4.174H139.346V1.6ZM141.693 9.234C141.693 15.372 144.289 17.308 147.325 17.308C150.405 17.308 153.001 15.372 153.001 9.234C153.001 3.228 150.405 1.292 147.325 1.292C144.289 1.292 141.693 3.228 141.693 9.234ZM144.817 9.234C144.817 7.628 144.817 3.866 147.325 3.866C149.877 3.866 149.877 7.628 149.877 9.234C149.877 10.972 149.877 14.734 147.325 14.734C144.817 14.734 144.817 10.972 144.817 9.234ZM154.577 9.234C154.577 15.372 157.173 17.308 160.209 17.308C163.289 17.308 165.885 15.372 165.885 9.234C165.885 3.228 163.289 1.292 160.209 1.292C157.173 1.292 154.577 3.228 154.577 9.234ZM157.701 9.234C157.701 7.628 157.701 3.866 160.209 3.866C162.761 3.866 162.761 7.628 162.761 9.234C162.761 10.972 162.761 14.734 160.209 14.734C157.701 14.734 157.701 10.972 157.701 9.234Z" fill="#162750"/>
<path d="M118.894 58.336C118.894 56.752 120.104 55.894 121.622 55.894C123.074 55.894 124.262 56.884 124.262 58.358C124.262 59.898 123.118 60.954 121.622 60.954C120.126 60.954 118.894 59.92 118.894 58.336ZM116.408 51.494C116.408 53.012 117.178 54.244 118.674 54.662V54.706C116.87 55.146 115.77 56.532 115.77 58.49C115.77 61.812 118.652 63.308 121.622 63.308C124.482 63.308 127.386 61.702 127.386 58.468C127.386 56.532 126.33 55.124 124.504 54.706V54.662C125.956 54.178 126.748 52.946 126.748 51.428C126.748 49.932 125.428 47.292 121.6 47.292C119.092 47.292 116.408 48.722 116.408 51.494ZM119.246 51.78C119.246 50.416 120.346 49.646 121.6 49.646C123.536 49.646 123.91 50.988 123.91 51.78C123.91 53.1 122.876 53.804 121.6 53.804C120.346 53.804 119.246 53.122 119.246 51.78ZM128.808 55.234C128.808 61.372 131.404 63.308 134.44 63.308C137.52 63.308 140.116 61.372 140.116 55.234C140.116 49.228 137.52 47.292 134.44 47.292C131.404 47.292 128.808 49.228 128.808 55.234ZM131.932 55.234C131.932 53.628 131.932 49.866 134.44 49.866C136.992 49.866 136.992 53.628 136.992 55.234C136.992 56.972 136.992 60.734 134.44 60.734C131.932 60.734 131.932 56.972 131.932 55.234ZM141.693 55.234C141.693 61.372 144.289 63.308 147.325 63.308C150.405 63.308 153.001 61.372 153.001 55.234C153.001 49.228 150.405 47.292 147.325 47.292C144.289 47.292 141.693 49.228 141.693 55.234ZM144.817 55.234C144.817 53.628 144.817 49.866 147.325 49.866C149.877 49.866 149.877 53.628 149.877 55.234C149.877 56.972 149.877 60.734 147.325 60.734C144.817 60.734 144.817 56.972 144.817 55.234ZM154.577 55.234C154.577 61.372 157.173 63.308 160.209 63.308C163.289 63.308 165.885 61.372 165.885 55.234C165.885 49.228 163.289 47.292 160.209 47.292C157.173 47.292 154.577 49.228 154.577 55.234ZM157.701 55.234C157.701 53.628 157.701 49.866 160.209 49.866C162.761 49.866 162.761 53.628 162.761 55.234C162.761 56.972 162.761 60.734 160.209 60.734C157.701 60.734 157.701 56.972 157.701 55.234Z" fill="#162750"/>
<path d="M116.188 114.04C116.54 116.746 118.52 118.308 121.182 118.308C125.56 118.308 127.232 114.018 127.232 110.256C127.232 106.362 125.978 102.292 121.314 102.292C118.102 102.292 115.924 104.778 115.924 107.924C115.924 109.134 116.298 110.41 117.112 111.356C117.992 112.324 119.334 112.94 120.654 112.94C122.15 112.94 123.272 112.434 124.13 111.224L124.174 111.268C124.086 112.984 123.492 115.954 121.226 115.954C120.148 115.954 119.356 115.074 119.158 114.04H116.188ZM121.402 110.586C119.796 110.586 119.048 109.134 119.048 107.682C119.048 106.296 119.906 104.866 121.402 104.866C122.964 104.866 123.888 106.296 123.888 107.726C123.888 109.244 123.074 110.586 121.402 110.586ZM128.808 110.234C128.808 116.372 131.404 118.308 134.44 118.308C137.52 118.308 140.116 116.372 140.116 110.234C140.116 104.228 137.52 102.292 134.44 102.292C131.404 102.292 128.808 104.228 128.808 110.234ZM131.932 110.234C131.932 108.628 131.932 104.866 134.44 104.866C136.992 104.866 136.992 108.628 136.992 110.234C136.992 111.972 136.992 115.734 134.44 115.734C131.932 115.734 131.932 111.972 131.932 110.234ZM141.693 110.234C141.693 116.372 144.289 118.308 147.325 118.308C150.405 118.308 153.001 116.372 153.001 110.234C153.001 104.228 150.405 102.292 147.325 102.292C144.289 102.292 141.693 104.228 141.693 110.234ZM144.817 110.234C144.817 108.628 144.817 104.866 147.325 104.866C149.877 104.866 149.877 108.628 149.877 110.234C149.877 111.972 149.877 115.734 147.325 115.734C144.817 115.734 144.817 111.972 144.817 110.234ZM154.577 110.234C154.577 116.372 157.173 118.308 160.209 118.308C163.289 118.308 165.885 116.372 165.885 110.234C165.885 104.228 163.289 102.292 160.209 102.292C157.173 102.292 154.577 104.228 154.577 110.234ZM157.701 110.234C157.701 108.628 157.701 104.866 160.209 104.866C162.761 104.866 162.761 108.628 162.761 110.234C162.761 111.972 162.761 115.734 160.209 115.734C157.701 115.734 157.701 111.972 157.701 110.234Z" fill="#162750"/>
<path d="M518.705 199.381C518.705 300.297 600.477 382.105 701.349 382.105C802.22 382.105 883.992 300.297 883.992 199.381C883.992 98.4651 802.22 16.6566 701.349 16.6566" stroke="#162750" stroke-width="14"/>
<path d="M565.241 199.381C565.241 274.584 626.178 335.548 701.348 335.548C776.518 335.548 837.456 274.584 837.456 199.381C837.456 124.178 776.518 63.2141 701.348 63.2141" stroke="#162750" stroke-width="14"/>
<path d="M619.449 199.381C619.449 244.633 656.117 281.317 701.349 281.317C746.58 281.317 783.248 244.633 783.248 199.381C783.248 154.13 746.58 117.446 701.349 117.446" stroke="#162750" stroke-width="14"/>
<path d="M883.993 199.381C883.993 98.4651 802.22 16.6566 701.349 16.6566" stroke="#4D96BE" stroke-width="14"/>
<path d="M837.456 199.381C837.456 124.178 776.518 63.2141 701.348 63.2141" stroke="#4D96BE" stroke-width="14"/>
<path d="M783.248 199.381C783.248 154.13 746.58 117.446 701.349 117.446" stroke="#4D96BE" stroke-width="14"/>
<path d="M626.437 17H628.637V8.508H622.037V11.082H625.513C625.315 13.26 624.017 14.47 621.773 14.47C618.671 14.47 617.505 11.83 617.505 9.212C617.505 6.462 618.671 3.822 621.773 3.822C623.401 3.822 624.699 4.724 625.095 6.462H628.395C628.021 2.898 624.985 0.918 621.773 0.918C616.911 0.918 614.051 4.548 614.051 9.212C614.051 13.744 616.911 17.374 621.773 17.374C623.291 17.374 624.875 16.78 626.085 15.218L626.437 17ZM635.541 10.004H639.303C640.777 10.004 641.789 10.642 641.789 12.248C641.789 13.876 640.601 14.316 639.237 14.316H635.541V10.004ZM632.087 17H639.699C642.537 17 645.243 15.636 645.243 12.446C645.243 10.488 644.275 9.014 642.361 8.464C643.725 7.804 644.495 6.726 644.495 5.186C644.495 2.26 642.471 1.292 639.479 1.292H632.087V17ZM635.541 3.976H638.775C640.007 3.976 641.151 4.284 641.151 5.78C641.151 7.1 640.249 7.65 639.039 7.65H635.541V3.976ZM648.237 17H651.691V11.368H655.321C659.237 11.368 660.755 8.882 660.755 6.33C660.755 3.778 659.237 1.292 655.321 1.292H648.237V17ZM651.691 3.976H654.375C655.981 3.976 657.411 4.328 657.411 6.33C657.411 8.332 655.981 8.684 654.375 8.684H651.691V3.976ZM662.581 11.786C662.537 15.658 665.793 17.374 669.269 17.374C673.537 17.374 675.803 15.218 675.803 12.336C675.803 8.772 672.283 8.046 671.139 7.76C667.201 6.748 666.453 6.594 666.453 5.384C666.453 4.064 667.729 3.602 668.829 3.602C670.479 3.602 671.821 4.086 671.931 5.978H675.275C675.275 2.348 672.261 0.918 668.983 0.918C666.145 0.918 663.109 2.458 663.109 5.67C663.109 8.618 665.463 9.52 667.795 10.136C670.105 10.752 672.459 11.038 672.459 12.732C672.459 14.338 670.611 14.69 669.401 14.69C667.553 14.69 665.925 13.876 665.925 11.786H662.581Z" fill="#162750"/>
<path d="M611.468 63H614.702V51.978H614.746L618.596 63H621.258L625.108 51.868H625.152V63H628.386V47.292H623.524L620.048 58.094H620.004L616.33 47.292H611.468V63ZM635.541 56.004H639.303C640.777 56.004 641.789 56.642 641.789 58.248C641.789 59.876 640.601 60.316 639.237 60.316H635.541V56.004ZM632.087 63H639.699C642.537 63 645.243 61.636 645.243 58.446C645.243 56.488 644.275 55.014 642.361 54.464C643.725 53.804 644.495 52.726 644.495 51.186C644.495 48.26 642.471 47.292 639.479 47.292H632.087V63ZM635.541 49.976H638.775C640.007 49.976 641.151 50.284 641.151 51.78C641.151 53.1 640.249 53.65 639.039 53.65H635.541V49.976ZM648.237 63H651.691V57.368H655.321C659.237 57.368 660.755 54.882 660.755 52.33C660.755 49.778 659.237 47.292 655.321 47.292H648.237V63ZM651.691 49.976H654.375C655.981 49.976 657.411 50.328 657.411 52.33C657.411 54.332 655.981 54.684 654.375 54.684H651.691V49.976ZM662.581 57.786C662.537 61.658 665.793 63.374 669.269 63.374C673.537 63.374 675.803 61.218 675.803 58.336C675.803 54.772 672.283 54.046 671.139 53.76C667.201 52.748 666.453 52.594 666.453 51.384C666.453 50.064 667.729 49.602 668.829 49.602C670.479 49.602 671.821 50.086 671.931 51.978H675.275C675.275 48.348 672.261 46.918 668.983 46.918C666.145 46.918 663.109 48.458 663.109 51.67C663.109 54.618 665.463 55.52 667.795 56.136C670.105 56.752 672.459 57.038 672.459 58.732C672.459 60.338 670.611 60.69 669.401 60.69C667.553 60.69 665.925 59.876 665.925 57.786H662.581Z" fill="#162750"/>
<path d="M615.55 118H619.004V112.94L620.984 110.938L625.714 118H630.048L623.316 108.496L629.454 102.292H625.142L619.004 108.804V102.292H615.55V118ZM635.541 111.004H639.303C640.777 111.004 641.789 111.642 641.789 113.248C641.789 114.876 640.601 115.316 639.237 115.316H635.541V111.004ZM632.087 118H639.699C642.537 118 645.243 116.636 645.243 113.446C645.243 111.488 644.275 110.014 642.361 109.464C643.725 108.804 644.495 107.726 644.495 106.186C644.495 103.26 642.471 102.292 639.479 102.292H632.087V118ZM635.541 104.976H638.775C640.007 104.976 641.151 105.284 641.151 106.78C641.151 108.1 640.249 108.65 639.039 108.65H635.541V104.976ZM648.237 118H651.691V112.368H655.321C659.237 112.368 660.755 109.882 660.755 107.33C660.755 104.778 659.237 102.292 655.321 102.292H648.237V118ZM651.691 104.976H654.375C655.981 104.976 657.411 105.328 657.411 107.33C657.411 109.332 655.981 109.684 654.375 109.684H651.691V104.976ZM662.581 112.786C662.537 116.658 665.793 118.374 669.269 118.374C673.537 118.374 675.803 116.218 675.803 113.336C675.803 109.772 672.283 109.046 671.139 108.76C667.201 107.748 666.453 107.594 666.453 106.384C666.453 105.064 667.729 104.602 668.829 104.602C670.479 104.602 671.821 105.086 671.931 106.978H675.275C675.275 103.348 672.261 101.918 668.983 101.918C666.145 101.918 663.109 103.458 663.109 106.67C663.109 109.618 665.463 110.52 667.795 111.136C670.105 111.752 672.459 112.038 672.459 113.732C672.459 115.338 670.611 115.69 669.401 115.69C667.553 115.69 665.925 114.876 665.925 112.786H662.581Z" fill="#162750"/>
</svg>
