<svg xmlns="http://www.w3.org/2000/svg" border="0" data-ac-wrapper-id="5" width="1098" height="589" class="anychart-ui-support" ac-id="ac_stage_35b06e41_0" role="presentation" style="display: block;"><defs><clipPath clip-rule="nonzero" id="ac_clip_35b06e41_1d"><path data-ac-wrapper-id="56" id="ac_rect_35b06e41_1e" fill="none" stroke="black" d="M 48 39 L 1079 39 1079 545 48 545 48 39 Z"/></clipPath><clipPath clip-rule="nonzero" id="ac_clip_35b06e41_1j"><path data-ac-wrapper-id="60" id="ac_rect_35b06e41_1k" fill="none" stroke="black" d="M 47 39 L 1078 39 1078 545 47 545 47 39 Z"/></clipPath></defs><g data-ac-wrapper-id="6" id="ac_layer_35b06e41_1"><g data-ac-wrapper-id="9" role="article" aria-label="area chart  entitled Weather in New York in 2010 (°F), with 1 range-spline-area series, . Y-scale minimum value is 0 , maximum value is 120. X-scale with 12 categories: Jan, Feb, Mar, Apr, May, June, July, Aug, Sep, Oct, Nov, Dec, . " id="ac_chart_35b06e41_2"><g data-ac-wrapper-id="10" id="ac_layer_35b06e41_4"><path data-ac-wrapper-id="11" id="ac_path_35b06e41_3" fill="#ffffff" stroke="none" d="M 0 0 L 1098 0 1098 0 1098 589 1098 589 0 589 0 589 0 0 0 0 Z"/></g><path data-ac-wrapper-id="59" clip-path="url(&quot;#ac_clip_35b06e41_1j&quot;)" clipPathUnits="userSpaceOnUse" id="ac_path_35b06e41_1l" fill="none" stroke="none" d="M 0,0"/><g data-ac-wrapper-id="52" clip-path="url(&quot;#ac_clip_35b06e41_1d&quot;)" clipPathUnits="userSpaceOnUse" id="ac_layer_35b06e41_1f"><path data-ac-wrapper-id="55" id="ac_path_35b06e41_1b" fill="#64b5f6" fill-opacity="0.65" stroke="none" d="M 1035.0416666666665 410.06666666666666 C 990.2465480365667 388.97194421357784 961.6076591476779 374.9163886580223 949.125 367.9 936.642340852322 360.88361134197766 922.3922638484249 351.61793375630464 906.3747689883086 340.10296724298104 890.3572741281922 328.58800072965744 875.9684622432004 319.5814560931082 863.2083333333333 313.08333333333337 850.4482044234661 306.5852105735585 836.1005932094978 301.0171513203768 820.1654996914281 296.37915557378807 804.2304061733583 291.74115982719934 789.9391284984379 286.06477463593666 777.2916666666666 279.34999999999997 764.6442048348954 272.6352253640633 750.4630407582985 262.50488580260765 734.7481744368758 248.9589813156331 719.0333081154532 235.41307682865857 704.5755833031614 225.86563861233643 691.375 220.31666666666666 678.1744166968386 214.7676947209969 664.134687537715 210.56934062346832 649.255812522629 207.72160437408098 634.376937507543 204.87386812469364 619.7777777777777 203.45 605.4583333333333 203.45 591.1388888888888 203.45 576.3897012693188 209.47991962619616 561.2107704746231 221.5397588785885 546.0318396799275 233.5995981309808 532.1421384106087 243.03078961589577 519.5416666666667 249.83333333333331 506.9411949227247 256.6358770507709 492.62175047828026 264.36643260632644 476.58333333333337 273.025 460.5449161883865 281.6835673936735 446.225471743942 289.4141229492291 433.625 296.2166666666667 421.024528256058 303.01921038410427 406.5486848464702 310.4874825384136 390.19746977123674 318.62148312959465 373.84625469600326 326.7554837207757 359.68320921670215 334.7483226775775 347.70833333333337 342.6 335.7334574499646 350.45167732242254 321.5271244670088 361.88055571952066 305.0893343844659 376.88663519129443 288.65154430192297 391.8927146630682 274.2189883959899 402.95272515485897 261.79166666666663 410.06666666666666 249.36434493734336 417.18060817847436 235.51793117167924 424.5813157786485 220.2524253696742 432.2687894671891 204.98691956766916 439.9562631557297 190.19444444444443 443.8 175.875 443.8 161.55555555555557 443.8 132.91666666666669 442.39444444444445 89.95833333333333 439.5833333333333 L 89.95833333333333 401.6333333333333 C 134.1181561107308 404.56380264972887 162.7570449996197 403.1582470941733 175.875 397.41666666666663 188.9929550003803 391.67508623915995 203.79037455500028 378.41279591428264 220.26725866385993 357.6297956920348 236.74414277271958 336.8467954697869 250.5856121069885 321.9979746835531 261.79166666666663 313.08333333333337 272.99772122634477 304.16869198311366 287.0326101739337 294.6181925256027 303.8963335094333 284.43183496080053 320.76005684493293 274.2454773959983 335.364056786233 265.52375463128703 347.70833333333337 258.26666666666665 360.05260988043375 251.00957870204627 374.27562513085604 243.10399181775168 390.37737908460014 234.54990601378285 406.47913303834423 225.995820209814 420.89500667681085 218.44029598299753 433.625 211.88333333333333 446.35499332318915 205.32637068366913 460.7666374740397 198.46641062297826 476.8599324525518 191.30345315126073 492.9532274310638 184.14049567954316 507.18047216910213 176.94490018467846 519.5416666666667 169.71666666666664 531.9028611642314 162.48843314865482 545.7327431219559 150.84248588026298 561.0313125398402 134.77882486149113 576.3298819577245 118.71516384271926 591.1388888888888 110.68333333333334 605.4583333333333 110.68333333333334 619.7777777777777 110.68333333333334 634.7250302166796 117.79440420501693 650.3000906500388 132.0165459483841 665.875151083398 146.2386876917513 679.5667875333851 157.39983904228993 691.375 165.5 703.1832124666149 173.60016095771007 717.4670228558299 184.19477989978998 734.2264311676448 197.2838568262397 750.9858394794597 210.37293375268945 765.3409179791337 220.86164814394286 777.2916666666666 228.75 789.2424153541996 236.63835185605714 803.4648963360371 245.22709045188932 819.9591096121793 254.51621578749658 836.4533228883215 263.80534112310386 850.8697307953728 272.0832691939383 863.2083333333333 279.34999999999997 875.5469358712937 286.6167308060617 889.9943595970716 294.8484554634656 906.550604510667 304.0451739722117 923.1068494242622 313.24189248095786 937.2983145873733 321.87683449022063 949.125 329.95000000000005 960.9516854126267 338.02316550977946 989.5905743015156 360.51205439866834 1035.0416666666665 397.41666666666663"/><path data-ac-wrapper-id="53" id="ac_path_35b06e41_19" fill="none" stroke="#64b5f6" stroke-width="1.5" d="M 89.95833333333333 401.6333333333333 C 134.1181561107308 404.56380264972887 162.7570449996197 403.1582470941733 175.875 397.41666666666663 188.9929550003803 391.67508623915995 203.79037455500028 378.41279591428264 220.26725866385993 357.6297956920348 236.74414277271958 336.8467954697869 250.5856121069885 321.9979746835531 261.79166666666663 313.08333333333337 272.99772122634477 304.16869198311366 287.0326101739337 294.6181925256027 303.8963335094333 284.43183496080053 320.76005684493293 274.2454773959983 335.364056786233 265.52375463128703 347.70833333333337 258.26666666666665 360.05260988043375 251.00957870204627 374.27562513085604 243.10399181775168 390.37737908460014 234.54990601378285 406.47913303834423 225.995820209814 420.89500667681085 218.44029598299753 433.625 211.88333333333333 446.35499332318915 205.32637068366913 460.7666374740397 198.46641062297826 476.8599324525518 191.30345315126073 492.9532274310638 184.14049567954316 507.18047216910213 176.94490018467846 519.5416666666667 169.71666666666664 531.9028611642314 162.48843314865482 545.7327431219559 150.84248588026298 561.0313125398402 134.77882486149113 576.3298819577245 118.71516384271926 591.1388888888888 110.68333333333334 605.4583333333333 110.68333333333334 619.7777777777777 110.68333333333334 634.7250302166796 117.79440420501693 650.3000906500388 132.0165459483841 665.875151083398 146.2386876917513 679.5667875333851 157.39983904228993 691.375 165.5 703.1832124666149 173.60016095771007 717.4670228558299 184.19477989978998 734.2264311676448 197.2838568262397 750.9858394794597 210.37293375268945 765.3409179791337 220.86164814394286 777.2916666666666 228.75 789.2424153541996 236.63835185605714 803.4648963360371 245.22709045188932 819.9591096121793 254.51621578749658 836.4533228883215 263.80534112310386 850.8697307953728 272.0832691939383 863.2083333333333 279.34999999999997 875.5469358712937 286.6167308060617 889.9943595970716 294.8484554634656 906.550604510667 304.0451739722117 923.1068494242622 313.24189248095786 937.2983145873733 321.87683449022063 949.125 329.95000000000005 960.9516854126267 338.02316550977946 989.5905743015156 360.51205439866834 1035.0416666666665 397.41666666666663"/><path data-ac-wrapper-id="54" id="ac_path_35b06e41_1a" fill="none" stroke="#64b5f6" stroke-width="1.5" d="M 1035.0416666666665 410.06666666666666 C 990.2465480365667 388.97194421357784 961.6076591476779 374.9163886580223 949.125 367.9 936.642340852322 360.88361134197766 922.3922638484249 351.61793375630464 906.3747689883086 340.10296724298104 890.3572741281922 328.58800072965744 875.9684622432004 319.5814560931082 863.2083333333333 313.08333333333337 850.4482044234661 306.5852105735585 836.1005932094978 301.0171513203768 820.1654996914281 296.37915557378807 804.2304061733583 291.74115982719934 789.9391284984379 286.06477463593666 777.2916666666666 279.34999999999997 764.6442048348954 272.6352253640633 750.4630407582985 262.50488580260765 734.7481744368758 248.9589813156331 719.0333081154532 235.41307682865857 704.5755833031614 225.86563861233643 691.375 220.31666666666666 678.1744166968386 214.7676947209969 664.134687537715 210.56934062346832 649.255812522629 207.72160437408098 634.376937507543 204.87386812469364 619.7777777777777 203.45 605.4583333333333 203.45 591.1388888888888 203.45 576.3897012693188 209.47991962619616 561.2107704746231 221.5397588785885 546.0318396799275 233.5995981309808 532.1421384106087 243.03078961589577 519.5416666666667 249.83333333333331 506.9411949227247 256.6358770507709 492.62175047828026 264.36643260632644 476.58333333333337 273.025 460.5449161883865 281.6835673936735 446.225471743942 289.4141229492291 433.625 296.2166666666667 421.024528256058 303.01921038410427 406.5486848464702 310.4874825384136 390.19746977123674 318.62148312959465 373.84625469600326 326.7554837207757 359.68320921670215 334.7483226775775 347.70833333333337 342.6 335.7334574499646 350.45167732242254 321.5271244670088 361.88055571952066 305.0893343844659 376.88663519129443 288.65154430192297 391.8927146630682 274.2189883959899 402.95272515485897 261.79166666666663 410.06666666666666 249.36434493734336 417.18060817847436 235.51793117167924 424.5813157786485 220.2524253696742 432.2687894671891 204.98691956766916 439.9562631557297 190.19444444444443 443.8 175.875 443.8 161.55555555555557 443.8 132.91666666666669 442.39444444444445 89.95833333333333 439.5833333333333"/></g><g data-ac-wrapper-id="57" clip-path="url(&quot;#ac_clip_35b06e41_1d&quot;)" clipPathUnits="userSpaceOnUse" id="ac_layer_35b06e41_1g"/><g data-ac-wrapper-id="58" clip-path="url(&quot;#ac_clip_35b06e41_1d&quot;)" clipPathUnits="userSpaceOnUse" id="ac_layer_35b06e41_1h"><path data-ac-wrapper-id="64" id="ac_path_35b06e41_1m" fill="#333" stroke="#212121" d="M 525.5416666666667 169.71666666666664 A 6 6 0 0 1 513.5416666666667 169.71666666666664 A 6 6 0 0 1 525.5416666666667 169.71666666666664" fill-opacity="0.85" stroke-width="1.5"/><path data-ac-wrapper-id="75" id="ac_path_35b06e41_1x" fill="#64b5f6" stroke="#467fac" d="M 783.2916666666666 228.75 A 6 6 0 0 1 771.2916666666666 228.75 A 6 6 0 0 1 783.2916666666666 228.75" fill-opacity="1" stroke-opacity="1"/></g><path data-ac-wrapper-id="14" id="ac_path_35b06e41_7" fill="none" stroke="#CECECE" d="M 47 545.5 L 1079 545.5"/><path data-ac-wrapper-id="15" id="ac_path_35b06e41_8" fill="none" stroke="#CECECE" d="M 47.5 546 L 47.5 552 M 132.5 546 L 132.5 552 M 218.5 546 L 218.5 552 M 304.5 546 L 304.5 552 M 390.5 546 L 390.5 552 M 476.5 546 L 476.5 552 M 562.5 546 L 562.5 552 M 648.5 546 L 648.5 552 M 734.5 546 L 734.5 552 M 820.5 546 L 820.5 552 M 906.5 546 L 906.5 552 M 992.5 546 L 992.5 552 M 1078.5 546 L 1078.5 552"/><g data-ac-wrapper-id="16" id="ac_layer_35b06e41_x"><g data-ac-wrapper-id="17" id="ac_layer_35b06e41_a"><g data-ac-wrapper-id="18" id="ac_unmanageable-layer_35b06e41_9"><text aria-hidden="true" font-style="normal" font-variant="normal" font-family="Verdana, Helvetica, Arial, sans-serif" font-size="12" font-weight="normal" letter-spacing="normal" text-decoration="none" fill="#7c868e" opacity="1" x="78.8671875" y="568">Jan</text></g></g><g data-ac-wrapper-id="19" id="ac_layer_35b06e41_c"><g data-ac-wrapper-id="20" id="ac_unmanageable-layer_35b06e41_b"><text aria-hidden="true" font-style="normal" font-variant="normal" font-family="Verdana, Helvetica, Arial, sans-serif" font-size="12" font-weight="normal" letter-spacing="normal" text-decoration="none" fill="#7c868e" opacity="1" x="164.6240234375" y="568">Feb</text></g></g><g data-ac-wrapper-id="21" id="ac_layer_35b06e41_e"><g data-ac-wrapper-id="22" id="ac_unmanageable-layer_35b06e41_d"><text aria-hidden="true" font-style="normal" font-variant="normal" font-family="Verdana, Helvetica, Arial, sans-serif" font-size="12" font-weight="normal" letter-spacing="normal" text-decoration="none" fill="#7c868e" opacity="1" x="249.83984375" y="568">Mar</text></g></g><g data-ac-wrapper-id="23" id="ac_layer_35b06e41_g"><g data-ac-wrapper-id="24" id="ac_unmanageable-layer_35b06e41_f"><text aria-hidden="true" font-style="normal" font-variant="normal" font-family="Verdana, Helvetica, Arial, sans-serif" font-size="12" font-weight="normal" letter-spacing="normal" text-decoration="none" fill="#7c868e" opacity="1" x="336.16015625" y="568">Apr</text></g></g><g data-ac-wrapper-id="25" id="ac_layer_35b06e41_i"><g data-ac-wrapper-id="26" id="ac_unmanageable-layer_35b06e41_h"><text aria-hidden="true" font-style="normal" font-variant="normal" font-family="Verdana, Helvetica, Arial, sans-serif" font-size="12" font-weight="normal" letter-spacing="normal" text-decoration="none" fill="#7c868e" opacity="1" x="420.88671875" y="568">May</text></g></g><g data-ac-wrapper-id="27" id="ac_layer_35b06e41_k"><g data-ac-wrapper-id="28" id="ac_unmanageable-layer_35b06e41_j"><text aria-hidden="true" font-style="normal" font-variant="normal" font-family="Verdana, Helvetica, Arial, sans-serif" font-size="12" font-weight="normal" letter-spacing="normal" text-decoration="none" fill="#7c868e" opacity="1" x="505.1015625" y="568">June</text></g></g><g data-ac-wrapper-id="29" id="ac_layer_35b06e41_m"><g data-ac-wrapper-id="30" id="ac_unmanageable-layer_35b06e41_l"><text aria-hidden="true" font-style="normal" font-variant="normal" font-family="Verdana, Helvetica, Arial, sans-serif" font-size="12" font-weight="normal" letter-spacing="normal" text-decoration="none" fill="#7c868e" opacity="1" x="591.8291015625" y="568">July</text></g></g><g data-ac-wrapper-id="31" id="ac_layer_35b06e41_o"><g data-ac-wrapper-id="32" id="ac_unmanageable-layer_35b06e41_n"><text aria-hidden="true" font-style="normal" font-variant="normal" font-family="Verdana, Helvetica, Arial, sans-serif" font-size="12" font-weight="normal" letter-spacing="normal" text-decoration="none" fill="#7c868e" opacity="1" x="678.390625" y="568">Aug</text></g></g><g data-ac-wrapper-id="33" id="ac_layer_35b06e41_q"><g data-ac-wrapper-id="34" id="ac_unmanageable-layer_35b06e41_p"><text aria-hidden="true" font-style="normal" font-variant="normal" font-family="Verdana, Helvetica, Arial, sans-serif" font-size="12" font-weight="normal" letter-spacing="normal" text-decoration="none" fill="#7c868e" opacity="1" x="764.82421875" y="568">Sep</text></g></g><g data-ac-wrapper-id="35" id="ac_layer_35b06e41_s"><g data-ac-wrapper-id="36" id="ac_unmanageable-layer_35b06e41_r"><text aria-hidden="true" font-style="normal" font-variant="normal" font-family="Verdana, Helvetica, Arial, sans-serif" font-size="12" font-weight="normal" letter-spacing="normal" text-decoration="none" fill="#7c868e" opacity="1" x="852.1513671875" y="568">Oct</text></g></g><g data-ac-wrapper-id="37" id="ac_layer_35b06e41_u"><g data-ac-wrapper-id="38" id="ac_unmanageable-layer_35b06e41_t"><text aria-hidden="true" font-style="normal" font-variant="normal" font-family="Verdana, Helvetica, Arial, sans-serif" font-size="12" font-weight="normal" letter-spacing="normal" text-decoration="none" fill="#7c868e" opacity="1" x="936.4140625" y="568">Nov</text></g></g><g data-ac-wrapper-id="39" id="ac_layer_35b06e41_w"><g data-ac-wrapper-id="40" id="ac_unmanageable-layer_35b06e41_v"><text aria-hidden="true" font-style="normal" font-variant="normal" font-family="Verdana, Helvetica, Arial, sans-serif" font-size="12" font-weight="normal" letter-spacing="normal" text-decoration="none" fill="#7c868e" opacity="1" x="1022.802734375" y="568">Dec</text></g></g></g><path data-ac-wrapper-id="41" id="ac_path_35b06e41_y" fill="none" stroke="#CECECE" d="M 47.5 39 L 47.5 546"/><path data-ac-wrapper-id="42" id="ac_path_35b06e41_z" fill="none" stroke="#CECECE" d="M 47 545.5 L 41 545.5 M 47 376.5 L 41 376.5 M 47 207.5 L 41 207.5 M 47 39.5 L 41 39.5"/><g data-ac-wrapper-id="43" id="ac_layer_35b06e41_18"><g data-ac-wrapper-id="44" id="ac_layer_35b06e41_11"><g data-ac-wrapper-id="45" id="ac_unmanageable-layer_35b06e41_10"><text aria-hidden="true" font-style="normal" font-variant="normal" font-family="Verdana, Helvetica, Arial, sans-serif" font-size="12" font-weight="normal" letter-spacing="normal" text-decoration="none" fill="#7c868e" opacity="1" x="29" y="549">0</text></g></g><g data-ac-wrapper-id="46" id="ac_layer_35b06e41_13"><g data-ac-wrapper-id="47" id="ac_unmanageable-layer_35b06e41_12"><text aria-hidden="true" font-style="normal" font-variant="normal" font-family="Verdana, Helvetica, Arial, sans-serif" font-size="12" font-weight="normal" letter-spacing="normal" text-decoration="none" fill="#7c868e" opacity="1" x="21.37109375" y="380">40</text></g></g><g data-ac-wrapper-id="48" id="ac_layer_35b06e41_15"><g data-ac-wrapper-id="49" id="ac_unmanageable-layer_35b06e41_14"><text aria-hidden="true" font-style="normal" font-variant="normal" font-family="Verdana, Helvetica, Arial, sans-serif" font-size="12" font-weight="normal" letter-spacing="normal" text-decoration="none" fill="#7c868e" opacity="1" x="21.37109375" y="212">80</text></g></g><g data-ac-wrapper-id="50" id="ac_layer_35b06e41_17"><g data-ac-wrapper-id="51" id="ac_unmanageable-layer_35b06e41_16"><text aria-hidden="true" font-style="normal" font-variant="normal" font-family="Verdana, Helvetica, Arial, sans-serif" font-size="12" font-weight="normal" letter-spacing="normal" text-decoration="none" fill="#7c868e" opacity="1" x="13.7421875" y="43">120</text></g></g></g><g data-ac-wrapper-id="12" transform="matrix(1,0,0,1,407.8671875,10)" id="ac_layer_35b06e41_6"><text data-ac-wrapper-id="13" font-style="normal" font-variant="normal" font-family="Verdana, Helvetica, Arial, sans-serif" font-size="16" font-weight="normal" fill="#7c868e" letter-spacing="normal" text-decoration="none" direction="ltr" text-anchor="middle" x="136.1328125" y="16" aria-hidden="true" id="ac_text_35b06e41_5" style="user-select: none; font-family: Verdana, Helvetica, Arial, sans-serif; opacity: 1;"><tspan x="136.1328125" dy="0">Weather in New York in 2010 (°F)</tspan></text></g></g></g></svg>