<svg class="main-svg" xmlns="http://www.w3.org/2000/svg" xmlns:xlink="http://www.w3.org/1999/xlink" width="700" height="450" style="background: rgb(255, 255, 255);">
<g class="legend" pointer-events="all" transform="translate(621.62,100)"><rect class="bg" shape-rendering="crispEdges" width="66" height="58" x="0" y="0" style="stroke: rgb(68, 68, 68); stroke-opacity: 1; fill: rgb(255, 255, 255); fill-opacity: 1; stroke-width: 0px;"></rect><g class="scrollbox" transform="" clip-path="url('https://garrettvercoe.static.observableusercontent.com/next/worker-3c3dbf3d.html#legend0ac39c')"><g class="groups" transform=""><g class="traces" transform="translate(0,14.5)" style="opacity: 1;"><text class="legendtext" text-anchor="start" x="40" y="4.680000000000001" data-unformatted="Yes" data-math="N" style="font-family: &quot;Open Sans&quot;, verdana, arial, sans-serif; font-size: 12px; fill: rgb(68, 68, 68); fill-opacity: 1; white-space: pre;">Yes</text><g class="layers" style="opacity: 1;"><g class="legendfill"></g><g class="legendlines"></g><g class="legendsymbols"><g class="legendpoints"><path class="legendbox" d="M6,6H-6V-6H6Z" transform="translate(20,0)" style="stroke-width: 2px; fill: rgb(194, 187, 187); fill-opacity: 0.5; stroke: rgb(194, 187, 187); stroke-opacity: 1;"></path></g></g></g><rect class="legendtoggle" pointer-events="all" x="0" y="-9.5" width="60.01736259460449" height="19" style="cursor: pointer; fill: rgb(0, 0, 0); fill-opacity: 0;"></rect></g></g><g class="groups" transform="translate(0,10)"><g class="traces" transform="translate(0,33.5)" style="opacity: 1;"><text class="legendtext" text-anchor="start" x="40" y="4.680000000000001" data-unformatted="No" data-math="N" style="font-family: &quot;Open Sans&quot;, verdana, arial, sans-serif; font-size: 12px; fill: rgb(68, 68, 68); fill-opacity: 1; white-space: pre;">No</text><g class="layers" style="opacity: 1;"><g class="legendfill"></g><g class="legendlines"></g><g class="legendsymbols"><g class="legendpoints"><path class="legendbox" d="M6,6H-6V-6H6Z" transform="translate(20,0)" style="stroke-width: 2px; fill: rgb(132, 132, 132); fill-opacity: 0.5; stroke: rgb(132, 132, 132); stroke-opacity: 1;"></path></g></g></g><rect class="legendtoggle" pointer-events="all" x="0" y="-9.5" width="60.01736259460449" height="19" style="cursor: pointer; fill: rgb(0, 0, 0); fill-opacity: 0;"></rect></g></g></g><rect class="scrollbar" rx="20" ry="3" width="0" height="0" x="0" y="0" style="fill: rgb(128, 139, 164); fill-opacity: 1;"></rect></g>

<defs id="defs-0ac39c"><g class="clips"><clipPath id="clip0ac39cxyplot" class="plotclip"><rect width="531" height="270"></rect></clipPath><clipPath class="axesclip" id="clip0ac39cx"><rect x="80" y="0" width="531" height="450"></rect></clipPath><clipPath class="axesclip" id="clip0ac39cy"><rect x="0" y="100" width="700" height="270"></rect></clipPath><clipPath class="axesclip" id="clip0ac39cxy"><rect x="80" y="100" width="531" height="270"></rect></clipPath></g><g class="gradients"></g></defs><g class="bglayer"></g><g class="draglayer cursor-crosshair"><g class="xy"><rect class="nsewdrag drag cursor-pointer" data-subplot="xy" x="80" y="100" width="531" height="270" style="fill: transparent; stroke-width: 0; pointer-events: all;"></rect><rect class="nwdrag drag cursor-pointer" data-subplot="xy" x="60" y="80" width="20" height="20" style="fill: transparent; stroke-width: 0; pointer-events: none;"></rect><rect class="nedrag drag cursor-pointer" data-subplot="xy" x="611" y="80" width="20" height="20" style="fill: transparent; stroke-width: 0; pointer-events: none;"></rect><rect class="swdrag drag cursor-pointer" data-subplot="xy" x="60" y="370" width="20" height="20" style="fill: transparent; stroke-width: 0; pointer-events: none;"></rect><rect class="sedrag drag cursor-pointer" data-subplot="xy" x="611" y="370" width="20" height="20" style="fill: transparent; stroke-width: 0; pointer-events: none;"></rect><rect class="ewdrag drag cursor-pointer" data-subplot="xy" x="133.1" y="370.5" width="424.8" height="20" style="fill: transparent; stroke-width: 0; pointer-events: none;"></rect><rect class="wdrag drag cursor-pointer" data-subplot="xy" x="80" y="370.5" width="53.1" height="20" style="fill: transparent; stroke-width: 0; pointer-events: none;"></rect><rect class="edrag drag cursor-pointer" data-subplot="xy" x="557.9000000000001" y="370.5" width="53.1" height="20" style="fill: transparent; stroke-width: 0; pointer-events: none;"></rect><rect class="nsdrag drag cursor-pointer" data-subplot="xy" x="59.5" y="127" width="20" height="216" style="fill: transparent; stroke-width: 0; pointer-events: none;"></rect><rect class="sdrag drag cursor-pointer" data-subplot="xy" x="59.5" y="343" width="20" height="27" style="fill: transparent; stroke-width: 0; pointer-events: none;"></rect><rect class="ndrag drag cursor-pointer" data-subplot="xy" x="59.5" y="100" width="20" height="27" style="fill: transparent; stroke-width: 0; pointer-events: none;"></rect></g></g><g class="layer-below"><g class="imagelayer"></g><g class="shapelayer"></g></g><g class="cartesianlayer"><g class="subplot xy"><g class="layer-subplot"><g class="shapelayer"></g><g class="imagelayer"></g></g><g class="gridlayer"><g class="x"></g><g class="y"><path class="ygrid crisp" transform="translate(0,340.53999999999996)" d="M80,0h531" style="stroke: rgb(238, 238, 238); stroke-opacity: 1; stroke-width: 1px;"></path><path class="ygrid crisp" transform="translate(0,301.36)" d="M80,0h531" style="stroke: rgb(238, 238, 238); stroke-opacity: 1; stroke-width: 1px;"></path><path class="ygrid crisp" transform="translate(0,262.19)" d="M80,0h531" style="stroke: rgb(238, 238, 238); stroke-opacity: 1; stroke-width: 1px;"></path><path class="ygrid crisp" transform="translate(0,223.01)" d="M80,0h531" style="stroke: rgb(238, 238, 238); stroke-opacity: 1; stroke-width: 1px;"></path><path class="ygrid crisp" transform="translate(0,183.84)" d="M80,0h531" style="stroke: rgb(238, 238, 238); stroke-opacity: 1; stroke-width: 1px;"></path><path class="ygrid crisp" transform="translate(0,144.66)" d="M80,0h531" style="stroke: rgb(238, 238, 238); stroke-opacity: 1; stroke-width: 1px;"></path><path class="ygrid crisp" transform="translate(0,105.49)" d="M80,0h531" style="stroke: rgb(238, 238, 238); stroke-opacity: 1; stroke-width: 1px;"></path></g></g><g class="zerolinelayer"></g><path class="xlines-below"></path><path class="ylines-below"></path><g class="overlines-below"></g><g class="xaxislayer-below"></g><g class="yaxislayer-below"></g><g class="overaxes-below"></g><g class="plot" transform="translate(80,100)" clip-path="url('https://garrettvercoe.static.observableusercontent.com/next/worker-3c3dbf3d.html#clip0ac39cxyplot')"><g class="violinlayer mlayer"><g class="trace violins" style="opacity: 1;"><path class="violin" d="M37.93,24.15L37.65,24.15Q37.5,27.21 37.39,28.74C37.28,30.27 37.15,31.8 37,33.33C36.85,34.86 36.66,36.39 36.47,37.92C36.28,39.45 36.05,40.98 35.84,42.51C35.63,44.04 35.4,45.57 35.19,47.1C34.99,48.63 34.78,50.16 34.61,51.69C34.44,53.22 34.29,54.74 34.17,56.27C34.05,57.8 33.97,59.33 33.88,60.86C33.79,62.39 33.74,63.92 33.65,65.45C33.56,66.98 33.49,68.51 33.36,70.04C33.22,71.57 33.07,73.1 32.84,74.63C32.6,76.16 32.32,77.7 31.95,79.22C31.57,80.76 31.12,82.29 30.58,83.8C30.03,85.34 29.39,86.88 28.69,88.39C27.97,89.94 27.15,91.46 26.31,92.98C25.46,94.52 24.52,96.04 23.6,97.57C22.68,99.1 21.71,100.62 20.8,102.16C19.9,103.68 19,105.21 18.19,106.75C17.4,108.27 16.65,109.8 15.99,111.34C15.34,112.85 14.78,114.39 14.23,115.92C13.68,117.44 13.23,118.98 12.7,120.51C12.17,122.04 11.67,123.58 11.05,125.1C10.41,126.64 9.72,128.18 8.91,129.69C8.07,131.24 7.1,132.77 6.08,134.28C5.02,135.83 3.83,137.35 2.65,138.87C1.45,140.41 0.16,141.92 -1.09,143.45C-2.34,144.98 -3.61,146.5 -4.84,148.04C-6.05,149.56 -7.25,151.09 -8.41,152.63C-9.55,154.15 -10.68,155.68 -11.75,157.22C-12.8,158.74 -13.86,160.26 -14.79,161.81C-15.7,163.32 -16.62,164.84 -17.29,166.4C-17.93,167.9 -18.53,169.44 -18.77,170.99C-19.01,172.5 -19.05,174.07 -18.77,175.57C-18.48,177.13 -17.83,178.69 -17.01,180.16C-16.13,181.75 -14.86,183.27 -13.55,184.75C-12.14,186.34 -10.46,187.84 -8.77,189.34C-7,190.91 -5.07,192.42 -3.14,193.93C-1.17,195.48 0.9,197 2.94,198.52C5,200.05 7.11,201.57 9.17,203.1C11.22,204.62 13.29,206.14 15.29,207.69C17.25,209.2 19.2,210.72 21.03,212.28C22.79,213.78 24.53,215.3 26.09,216.87C27.57,218.36 28.98,219.89 30.2,221.46C31.36,222.95 32.4,224.48 33.27,226.05C34.1,227.55 34.78,229.09 35.34,230.64C35.89,232.15 36.28,233.68 36.61,235.22Q36.94,236.74 37.31,239.81L37.93,239.81" style="vector-effect: non-scaling-stroke; stroke-width: 2px; stroke: rgb(194, 187, 187); stroke-opacity: 1; fill: rgb(194, 187, 187); fill-opacity: 0.5;"></path><path class="violin" d="M189.64,13.5L189.35,13.5Q189.19,16.55 189.07,18.08C188.95,19.61 188.8,21.14 188.62,22.67C188.44,24.2 188.21,25.72 187.97,27.25C187.73,28.78 187.44,30.31 187.16,31.84C186.87,33.37 186.55,34.89 186.26,36.42C185.97,37.95 185.66,39.48 185.41,41.01C185.16,42.53 184.92,44.06 184.75,45.59C184.58,47.12 184.45,48.65 184.37,50.18C184.29,51.71 184.29,53.23 184.29,54.76C184.29,56.29 184.35,57.82 184.4,59.35C184.44,60.88 184.53,62.4 184.56,63.93C184.59,65.46 184.62,66.99 184.59,68.52C184.56,70.05 184.5,71.57 184.39,73.1C184.28,74.63 184.11,76.16 183.94,77.69C183.77,79.22 183.55,80.74 183.35,82.27C183.15,83.8 182.94,85.33 182.74,86.86C182.55,88.39 182.36,89.91 182.18,91.44C182,92.97 181.84,94.5 181.64,96.03C181.44,97.56 181.25,99.09 180.97,100.61C180.69,102.14 180.37,103.68 179.94,105.2C179.5,106.74 178.97,108.27 178.34,109.78C177.69,111.33 176.93,112.86 176.1,114.37C175.25,115.92 174.27,117.44 173.28,118.95C172.27,120.49 171.17,122.02 170.07,123.54C168.96,125.08 167.81,126.6 166.67,128.12C165.52,129.65 164.36,131.18 163.19,132.71C162.01,134.24 160.85,135.77 159.63,137.29C158.39,138.83 157.14,140.37 155.81,141.88C154.46,143.43 153.05,144.95 151.58,146.46C150.07,148.01 148.47,149.53 146.86,151.05C145.22,152.59 143.5,154.1 141.84,155.63C140.19,157.15 138.48,158.66 136.93,160.22C135.44,161.72 133.94,163.22 132.69,164.8C131.52,166.28 130.39,167.81 129.62,169.39C128.9,170.87 128.32,172.42 128.11,173.97C127.9,175.48 127.98,177.06 128.33,178.56C128.7,180.12 129.44,181.67 130.34,183.14C131.32,184.74 132.66,186.26 134.1,187.73C135.67,189.33 137.53,190.83 139.45,192.31C141.51,193.89 143.79,195.4 146.09,196.9C148.48,198.46 151.03,199.96 153.52,201.48C156.03,203.01 158.63,204.52 161.1,206.07C163.51,207.58 165.93,209.08 168.16,210.65C170.28,212.14 172.34,213.66 174.19,215.24C175.91,216.72 177.53,218.24 178.94,219.82C180.25,221.3 181.41,222.84 182.41,224.41C183.36,225.9 184.14,227.44 184.82,228.99C185.48,230.5 186,232.04 186.46,233.58C186.91,235.1 187.26,236.63 187.57,238.16C187.88,239.68 188.12,241.22 188.33,242.75C188.54,244.27 188.7,245.8 188.85,247.33C188.99,248.86 189.11,250.39 189.2,251.92Q189.29,253.45 189.41,256.5L189.64,256.5" style="vector-effect: non-scaling-stroke; stroke-width: 2px; stroke: rgb(194, 187, 187); stroke-opacity: 1; fill: rgb(194, 187, 187); fill-opacity: 0.5;"></path><path class="violin" d="M341.36,50.53L340.89,50.53Q340.65,52.87 340.47,54.03C340.29,55.2 340.07,56.36 339.82,57.52C339.57,58.69 339.26,59.86 338.95,61.02C338.64,62.19 338.27,63.35 337.94,64.51C337.61,65.67 337.24,66.83 336.95,68C336.66,69.16 336.38,70.33 336.19,71.5C336,72.66 335.86,73.82 335.8,74.99C335.74,76.15 335.78,77.33 335.84,78.49C335.9,79.66 336.05,80.82 336.17,81.98C336.29,83.15 336.46,84.31 336.54,85.48C336.62,86.64 336.68,87.81 336.64,88.97C336.6,90.13 336.48,91.3 336.27,92.46C336.06,93.63 335.73,94.8 335.38,95.96C335.03,97.13 334.57,98.29 334.16,99.45C333.74,100.62 333.28,101.78 332.89,102.95C332.5,104.11 332.13,105.27 331.82,106.44C331.52,107.6 331.28,108.77 331.06,109.94C330.85,111.1 330.7,112.27 330.53,113.43C330.36,114.59 330.22,115.76 330.02,116.92C329.82,118.09 329.61,119.26 329.34,120.42C329.07,121.59 328.75,122.75 328.41,123.91C328.07,125.08 327.69,126.25 327.3,127.41C326.91,128.58 326.5,129.74 326.09,130.9C325.68,132.07 325.28,133.24 324.83,134.4C324.38,135.57 323.94,136.74 323.41,137.89C322.87,139.07 322.31,140.25 321.61,141.39C320.88,142.58 320.07,143.75 319.11,144.88C318.08,146.09 316.91,147.25 315.61,148.37C314.2,149.59 312.61,150.75 310.93,151.87C309.11,153.08 307.11,154.23 305.06,155.36C302.89,156.56 300.56,157.71 298.25,158.86C295.89,160.04 293.41,161.18 291.03,162.35C288.68,163.51 286.28,164.65 284.04,165.85C281.91,166.99 279.81,168.13 277.9,169.34C276.13,170.46 274.44,171.61 272.96,172.83C271.6,173.95 270.35,175.11 269.3,176.33C268.34,177.45 267.48,178.61 266.84,179.82C266.24,180.95 265.74,182.13 265.52,183.32C265.31,184.47 265.25,185.67 265.5,186.81C265.76,188.01 266.34,189.21 267.11,190.31C267.99,191.56 269.29,192.71 270.68,193.8C272.28,195.06 274.26,196.18 276.29,197.29C278.55,198.52 281.1,199.66 283.68,200.79C286.43,202 289.4,203.13 292.33,204.28C295.35,205.46 298.48,206.61 301.54,207.78C304.58,208.94 307.67,210.08 310.62,211.27C313.47,212.41 316.3,213.56 318.95,214.77C321.43,215.9 323.85,217.04 326.04,218.26C328.04,219.38 329.96,220.53 331.62,221.76C333.11,222.87 334.49,224.02 335.63,225.25C336.67,226.36 337.56,227.53 338.27,228.74Q338.94,229.87 339.83,232.24L341.36,232.24" style="vector-effect: non-scaling-stroke; stroke-width: 2px; stroke: rgb(194, 187, 187); stroke-opacity: 1; fill: rgb(194, 187, 187); fill-opacity: 0.5;"></path><path class="violin" d="M493.07,48.84L492.28,48.84Q491.89,52.62 491.63,54.5C491.37,56.39 491.04,58.27 490.7,60.15C490.36,62.04 489.95,63.92 489.57,65.8C489.19,67.68 488.77,69.56 488.42,71.45C488.07,73.33 487.72,75.22 487.48,77.11C487.24,78.99 487.06,80.87 486.96,82.76C486.86,84.64 486.86,86.53 486.85,88.41C486.84,90.3 486.94,92.18 486.93,94.07C486.92,95.95 486.95,97.84 486.81,99.72C486.67,101.61 486.45,103.5 486.07,105.37C485.68,107.27 485.14,109.16 484.47,111.02C483.79,112.93 482.92,114.81 482,116.68C481.07,118.59 479.98,120.46 478.91,122.33C477.82,124.22 476.65,126.1 475.51,127.98C474.37,129.86 473.21,131.74 472.07,133.63C470.93,135.51 469.82,137.41 468.68,139.29C467.54,141.18 466.43,143.07 465.23,144.94C464.02,146.84 462.81,148.73 461.46,150.59C460.07,152.5 458.61,154.39 457,156.24C455.32,158.17 453.48,160.05 451.56,161.9C449.55,163.83 447.34,165.68 445.18,167.55C442.99,169.45 440.61,171.28 438.48,173.2C436.43,175.05 434.24,176.87 432.61,178.85C431.13,180.65 429.6,182.54 428.97,184.51C428.39,186.32 428.23,188.35 428.7,190.16C429.21,192.13 430.68,194.04 432.23,195.81C434.02,197.85 436.57,199.66 439.07,201.47C441.8,203.45 444.99,205.26 448.06,207.12C451.22,209.03 454.6,210.87 457.79,212.77C460.92,214.64 464.1,216.48 467.03,218.42C469.81,220.26 472.52,222.12 474.95,224.08C477.21,225.9 479.34,227.77 481.19,229.73C482.91,231.55 484.45,233.44 485.75,235.38C486.98,237.21 488.01,239.11 488.86,241.03C489.68,242.88 490.3,244.79 490.82,246.69Q491.33,248.56 491.96,252.34L493.07,252.34" style="vector-effect: non-scaling-stroke; stroke-width: 2px; stroke: rgb(194, 187, 187); stroke-opacity: 1; fill: rgb(194, 187, 187); fill-opacity: 0.5;"></path><path class="box" d="M26.45,163.64H35.93M26.45,182.03H35.93V140.11H26.45ZM35.93,182.03V212.13M35.93,140.11V81.68" style="vector-effect: non-scaling-stroke; stroke-width: 2px; stroke: rgb(194, 187, 187); stroke-opacity: 1; fill: rgb(194, 187, 187); fill-opacity: 0.5;"></path><path class="box" d="M178.16,169.08H187.64M178.16,186.25H187.64V142.7H178.16ZM187.64,186.25V228.51M187.64,142.7V86.11" style="vector-effect: non-scaling-stroke; stroke-width: 2px; stroke: rgb(194, 187, 187); stroke-opacity: 1; fill: rgb(194, 187, 187); fill-opacity: 0.5;"></path><path class="box" d="M329.88,177.07H339.36M329.88,191.84H339.36V161.13H329.88ZM339.36,191.84V211.12M339.36,161.13V123.8" style="vector-effect: non-scaling-stroke; stroke-width: 2px; stroke: rgb(194, 187, 187); stroke-opacity: 1; fill: rgb(194, 187, 187); fill-opacity: 0.5;"></path><path class="box" d="M481.59,180.29H491.07M481.59,193.28H491.07V153.88H481.59ZM491.07,193.28V218.01M491.07,153.88V127.05" style="vector-effect: non-scaling-stroke; stroke-width: 2px; stroke: rgb(194, 187, 187); stroke-opacity: 1; fill: rgb(194, 187, 187); fill-opacity: 0.5;"></path><path class="mean" d="M26.45,156.66H35.93" style="fill: none; vector-effect: non-scaling-stroke; stroke-width: 2px; stroke-dasharray: 4px, 2px; stroke: rgb(194, 187, 187); stroke-opacity: 1;"></path><path class="mean" d="M178.16,160.46H187.64" style="fill: none; vector-effect: non-scaling-stroke; stroke-width: 2px; stroke-dasharray: 4px, 2px; stroke: rgb(194, 187, 187); stroke-opacity: 1;"></path><path class="mean" d="M329.88,171.26H339.36" style="fill: none; vector-effect: non-scaling-stroke; stroke-width: 2px; stroke-dasharray: 4px, 2px; stroke: rgb(194, 187, 187); stroke-opacity: 1;"></path><path class="mean" d="M481.59,173.35H491.07" style="fill: none; vector-effect: non-scaling-stroke; stroke-width: 2px; stroke-dasharray: 4px, 2px; stroke: rgb(194, 187, 187); stroke-opacity: 1;"></path><g class="points"><path class="point" transform="translate(37.93,62.88)" d="M3,0A3,3 0 1,1 0,-3A3,3 0 0,1 3,0Z" style="opacity: 1; stroke-width: 0px; fill: rgb(194, 187, 187); fill-opacity: 1;"></path><path class="point" transform="translate(37.93,51.83)" d="M3,0A3,3 0 1,1 0,-3A3,3 0 0,1 3,0Z" style="opacity: 1; stroke-width: 0px; fill: rgb(194, 187, 187); fill-opacity: 1;"></path></g><g class="points"><path class="point" transform="translate(189.64,66.99)" d="M3,0A3,3 0 1,1 0,-3A3,3 0 0,1 3,0Z" style="opacity: 1; stroke-width: 0px; fill: rgb(194, 187, 187); fill-opacity: 1;"></path><path class="point" transform="translate(189.64,51.44)" d="M3,0A3,3 0 1,1 0,-3A3,3 0 0,1 3,0Z" style="opacity: 1; stroke-width: 0px; fill: rgb(194, 187, 187); fill-opacity: 1;"></path><path class="point" transform="translate(189.64,51.21)" d="M3,0A3,3 0 1,1 0,-3A3,3 0 0,1 3,0Z" style="opacity: 1; stroke-width: 0px; fill: rgb(194, 187, 187); fill-opacity: 1;"></path><path class="point" transform="translate(189.64,41.49)" d="M3,0A3,3 0 1,1 0,-3A3,3 0 0,1 3,0Z" style="opacity: 1; stroke-width: 0px; fill: rgb(194, 187, 187); fill-opacity: 1;"></path></g><g class="points"><path class="point" transform="translate(341.36,112.51)" d="M3,0A3,3 0 1,1 0,-3A3,3 0 0,1 3,0Z" style="opacity: 1; stroke-width: 0px; fill: rgb(194, 187, 187); fill-opacity: 1;"></path><path class="point" transform="translate(341.36,106.17)" d="M3,0A3,3 0 1,1 0,-3A3,3 0 0,1 3,0Z" style="opacity: 1; stroke-width: 0px; fill: rgb(194, 187, 187); fill-opacity: 1;"></path><path class="point" transform="translate(341.36,104.09)" d="M3,0A3,3 0 1,1 0,-3A3,3 0 0,1 3,0Z" style="opacity: 1; stroke-width: 0px; fill: rgb(194, 187, 187); fill-opacity: 1;"></path><path class="point" transform="translate(341.36,79.18)" d="M3,0A3,3 0 1,1 0,-3A3,3 0 0,1 3,0Z" style="opacity: 1; stroke-width: 0px; fill: rgb(194, 187, 187); fill-opacity: 1;"></path><path class="point" transform="translate(341.36,71.66)" d="M3,0A3,3 0 1,1 0,-3A3,3 0 0,1 3,0Z" style="opacity: 1; stroke-width: 0px; fill: rgb(194, 187, 187); fill-opacity: 1;"></path></g><g class="points"><path class="point" transform="translate(493.07,83.17)" d="M3,0A3,3 0 1,1 0,-3A3,3 0 0,1 3,0Z" style="opacity: 1; stroke-width: 0px; fill: rgb(194, 187, 187); fill-opacity: 1;"></path></g></g><g class="trace violins" style="opacity: 1;"><path class="violin" d="M37.93,239.81L38.54,239.81Q38.92,236.74 39.25,235.22C39.58,233.68 39.97,232.15 40.52,230.64C41.08,229.09 41.76,227.55 42.59,226.05C43.46,224.48 44.49,222.95 45.65,221.46C46.87,219.88 48.29,218.36 49.77,216.87C51.33,215.3 53.06,213.78 54.82,212.28C56.65,210.72 58.61,209.21 60.57,207.69C62.57,206.14 64.64,204.62 66.69,203.1C68.75,201.57 70.85,200.05 72.91,198.52C74.95,197 77.02,195.48 78.99,193.93C80.92,192.42 82.86,190.91 84.63,189.34C86.32,187.84 88,186.34 89.41,184.75C90.72,183.27 91.99,181.75 92.87,180.16C93.69,178.69 94.34,177.13 94.63,175.57C94.91,174.07 94.87,172.5 94.63,170.99C94.38,169.44 93.78,167.9 93.14,166.4C92.47,164.84 91.56,163.32 90.65,161.81C89.72,160.26 88.67,158.74 87.61,157.22C86.54,155.68 85.41,154.15 84.26,152.63C83.1,151.09 81.91,149.56 80.7,148.04C79.48,146.5 78.2,144.98 76.95,143.45C75.7,141.92 74.42,140.41 73.21,138.87C72.02,137.35 70.83,135.83 69.77,134.28C68.75,132.77 67.79,131.24 66.95,129.69C66.14,128.18 65.44,126.65 64.8,125.1C64.18,123.58 63.69,122.04 63.16,120.51C62.63,118.98 62.18,117.44 61.63,115.92C61.08,114.39 60.52,112.85 59.87,111.34C59.21,109.8 58.46,108.27 57.67,106.75C56.86,105.21 55.96,103.68 55.06,102.16C54.15,100.62 53.18,99.1 52.26,97.57C51.34,96.04 50.4,94.52 49.55,92.98C48.71,91.46 47.89,89.94 47.17,88.39C46.47,86.88 45.83,85.34 45.28,83.8C44.74,82.29 44.28,80.76 43.9,79.22C43.52,77.7 43.24,76.16 43.01,74.63C42.78,73.1 42.63,71.57 42.5,70.04C42.37,68.51 42.3,66.98 42.21,65.45C42.12,63.92 42.07,62.39 41.98,60.86C41.89,59.33 41.81,57.8 41.69,56.27C41.57,54.74 41.42,53.22 41.25,51.69C41.08,50.16 40.87,48.63 40.67,47.1C40.46,45.57 40.23,44.04 40.02,42.51C39.81,40.98 39.58,39.45 39.39,37.92C39.2,36.39 39.01,34.86 38.86,33.33C38.71,31.8 38.58,30.27 38.47,28.74Q38.36,27.21 38.21,24.15L37.93,24.15" style="vector-effect: non-scaling-stroke; stroke-width: 2px; stroke: rgb(132, 132, 132); stroke-opacity: 1; fill: rgb(132, 132, 132); fill-opacity: 0.5;"></path><path class="violin" d="M189.64,256.5L189.87,256.5Q190,253.45 190.09,251.92C190.18,250.39 190.29,248.86 190.43,247.33C190.57,245.8 190.74,244.27 190.95,242.75C191.16,241.22 191.4,239.68 191.71,238.16C192.02,236.63 192.37,235.1 192.82,233.58C193.28,232.04 193.8,230.5 194.46,228.99C195.14,227.44 195.93,225.9 196.88,224.41C197.88,222.84 199.04,221.3 200.35,219.82C201.75,218.24 203.37,216.72 205.09,215.24C206.94,213.65 209,212.14 211.12,210.65C213.35,209.08 215.77,207.58 218.18,206.07C220.65,204.52 223.25,203.01 225.76,201.48C228.25,199.96 230.8,198.46 233.19,196.9C235.49,195.4 237.77,193.89 239.83,192.31C241.75,190.83 243.62,189.33 245.19,187.73C246.63,186.26 247.96,184.74 248.94,183.14C249.84,181.67 250.58,180.12 250.95,178.56C251.3,177.06 251.39,175.48 251.18,173.97C250.97,172.42 250.38,170.87 249.66,169.39C248.89,167.81 247.77,166.28 246.6,164.8C245.35,163.22 243.84,161.72 242.35,160.22C240.8,158.66 239.1,157.15 237.45,155.63C235.79,154.1 234.07,152.59 232.43,151.05C230.82,149.53 229.22,148.01 227.71,146.46C226.24,144.95 224.83,143.43 223.47,141.88C222.14,140.37 220.9,138.83 219.66,137.29C218.44,135.77 217.27,134.24 216.09,132.71C214.92,131.19 213.77,129.65 212.62,128.12C211.48,126.59 210.32,125.08 209.21,123.54C208.11,122.02 207.01,120.49 206,118.95C205.01,117.44 204.04,115.92 203.19,114.37C202.36,112.86 201.6,111.33 200.95,109.78C200.32,108.27 199.79,106.74 199.35,105.2C198.91,103.68 198.6,102.14 198.31,100.61C198.03,99.09 197.84,97.56 197.64,96.03C197.44,94.5 197.29,92.97 197.11,91.44C196.93,89.91 196.75,88.39 196.55,86.86C196.35,85.33 196.13,83.8 195.93,82.27C195.73,80.74 195.51,79.22 195.34,77.69C195.17,76.16 195.01,74.63 194.9,73.1C194.79,71.57 194.73,70.05 194.7,68.52C194.67,66.99 194.7,65.46 194.73,63.93C194.76,62.4 194.84,60.88 194.88,59.35C194.93,57.82 194.99,56.29 195,54.76C195.01,53.23 195,51.71 194.92,50.18C194.84,48.65 194.71,47.12 194.54,45.59C194.37,44.06 194.13,42.53 193.88,41.01C193.63,39.48 193.32,37.95 193.03,36.42C192.74,34.89 192.42,33.37 192.13,31.84C191.84,30.31 191.55,28.78 191.31,27.25C191.07,25.72 190.85,24.2 190.67,22.67C190.49,21.14 190.34,19.61 190.22,18.08Q190.1,16.55 189.94,13.5L189.64,13.5" style="vector-effect: non-scaling-stroke; stroke-width: 2px; stroke: rgb(132, 132, 132); stroke-opacity: 1; fill: rgb(132, 132, 132); fill-opacity: 0.5;"></path><path class="violin" d="M341.36,232.24L342.88,232.24Q343.78,229.87 344.45,228.74C345.16,227.53 346.04,226.36 347.08,225.25C348.22,224.02 349.6,222.87 351.1,221.76C352.76,220.53 354.67,219.38 356.67,218.26C358.86,217.04 361.28,215.9 363.76,214.77C366.41,213.56 369.24,212.41 372.09,211.27C375.04,210.08 378.14,208.94 381.18,207.78C384.24,206.61 387.38,205.46 390.39,204.28C393.32,203.13 396.28,202 399.03,200.79C401.61,199.66 404.17,198.52 406.43,197.29C408.46,196.18 410.44,195.06 412.04,193.8C413.43,192.71 414.72,191.56 415.6,190.31C416.37,189.21 416.95,188.01 417.21,186.81C417.46,185.67 417.4,184.47 417.19,183.32C416.97,182.13 416.47,180.95 415.87,179.82C415.23,178.61 414.37,177.45 413.41,176.33C412.36,175.11 411.11,173.95 409.76,172.83C408.28,171.61 406.59,170.46 404.82,169.34C402.91,168.13 400.8,166.99 398.67,165.85C396.43,164.65 394.04,163.51 391.69,162.35C389.31,161.18 386.83,160.04 384.46,158.86C382.15,157.71 379.83,156.56 377.66,155.36C375.61,154.23 373.6,153.08 371.78,151.87C370.1,150.75 368.51,149.59 367.1,148.37C365.81,147.25 364.63,146.09 363.61,144.88C362.66,143.75 361.84,142.58 361.11,141.39C360.41,140.25 359.84,139.07 359.3,137.89C358.77,136.74 358.34,135.57 357.89,134.4C357.45,133.24 357.04,132.07 356.63,130.9C356.22,129.74 355.81,128.58 355.42,127.41C355.03,126.25 354.64,125.08 354.3,123.91C353.96,122.75 353.64,121.59 353.37,120.42C353.1,119.26 352.89,118.09 352.69,116.92C352.49,115.76 352.36,114.59 352.19,113.43C352.02,112.27 351.87,111.1 351.66,109.94C351.44,108.77 351.2,107.6 350.9,106.44C350.59,105.27 350.22,104.11 349.83,102.95C349.44,101.78 348.97,100.62 348.55,99.45C348.13,98.29 347.68,97.13 347.33,95.96C346.98,94.8 346.66,93.63 346.45,92.46C346.24,91.3 346.12,90.13 346.07,88.97C346.02,87.81 346.09,86.64 346.17,85.48C346.25,84.31 346.42,83.15 346.54,81.98C346.66,80.82 346.81,79.66 346.87,78.49C346.93,77.33 346.97,76.15 346.91,74.99C346.85,73.82 346.72,72.66 346.53,71.5C346.34,70.33 346.05,69.16 345.76,68C345.47,66.83 345.11,65.67 344.78,64.51C344.45,63.35 344.08,62.19 343.77,61.02C343.46,59.86 343.15,58.69 342.9,57.52C342.65,56.36 342.43,55.2 342.25,54.03Q342.07,52.87 341.82,50.53L341.36,50.53" style="vector-effect: non-scaling-stroke; stroke-width: 2px; stroke: rgb(132, 132, 132); stroke-opacity: 1; fill: rgb(132, 132, 132); fill-opacity: 0.5;"></path><path class="violin" d="M493.07,252.34L494.18,252.34Q494.81,248.56 495.32,246.69C495.84,244.79 496.46,242.88 497.28,241.03C498.13,239.11 499.16,237.21 500.39,235.38C501.69,233.44 503.23,231.55 504.95,229.73C506.8,227.77 508.94,225.9 511.2,224.08C513.63,222.12 516.34,220.26 519.11,218.42C522.04,216.48 525.22,214.64 528.35,212.77C531.54,210.87 534.92,209.03 538.08,207.12C541.15,205.26 544.34,203.45 547.08,201.47C549.58,199.66 552.14,197.85 553.92,195.81C555.47,194.04 556.93,192.13 557.44,190.16C557.91,188.35 557.75,186.32 557.17,184.51C556.54,182.54 555.01,180.65 553.53,178.85C551.9,176.87 549.71,175.05 547.66,173.2C545.53,171.28 543.15,169.45 540.96,167.55C538.8,165.68 536.59,163.82 534.59,161.9C532.66,160.05 530.82,158.17 529.14,156.24C527.53,154.39 526.07,152.5 524.68,150.59C523.33,148.73 522.12,146.84 520.91,144.94C519.72,143.07 518.61,141.18 517.47,139.29C516.33,137.41 515.22,135.51 514.08,133.63C512.94,131.74 511.77,129.87 510.63,127.98C509.49,126.1 508.32,124.22 507.23,122.33C506.16,120.46 505.07,118.59 504.14,116.68C503.22,114.81 502.35,112.93 501.67,111.02C501,109.16 500.46,107.27 500.07,105.37C499.69,103.5 499.47,101.61 499.33,99.72C499.19,97.84 499.22,95.95 499.21,94.07C499.2,92.18 499.3,90.3 499.29,88.41C499.28,86.53 499.28,84.64 499.18,82.76C499.08,80.87 498.9,78.99 498.66,77.11C498.42,75.22 498.08,73.33 497.73,71.45C497.38,69.56 496.96,67.68 496.58,65.8C496.2,63.92 495.79,62.04 495.45,60.15C495.11,58.27 494.79,56.39 494.52,54.5Q494.26,52.62 493.86,48.84L493.07,48.84" style="vector-effect: non-scaling-stroke; stroke-width: 2px; stroke: rgb(132, 132, 132); stroke-opacity: 1; fill: rgb(132, 132, 132); fill-opacity: 0.5;"></path><path class="box" d="M39.93,163.64H49.41M39.93,182.03H49.41V140.11H39.93ZM39.93,182.03V212.13M39.93,140.11V81.68" style="vector-effect: non-scaling-stroke; stroke-width: 2px; stroke: rgb(132, 132, 132); stroke-opacity: 1; fill: rgb(132, 132, 132); fill-opacity: 0.5;"></path><path class="box" d="M191.64,169.08H201.13M191.64,186.25H201.13V142.7H191.64ZM191.64,186.25V228.51M191.64,142.7V86.11" style="vector-effect: non-scaling-stroke; stroke-width: 2px; stroke: rgb(132, 132, 132); stroke-opacity: 1; fill: rgb(132, 132, 132); fill-opacity: 0.5;"></path><path class="box" d="M343.36,177.07H352.84M343.36,191.84H352.84V161.13H343.36ZM343.36,191.84V211.12M343.36,161.13V123.8" style="vector-effect: non-scaling-stroke; stroke-width: 2px; stroke: rgb(132, 132, 132); stroke-opacity: 1; fill: rgb(132, 132, 132); fill-opacity: 0.5;"></path><path class="box" d="M495.07,180.29H504.55M495.07,193.28H504.55V153.88H495.07ZM495.07,193.28V218.01M495.07,153.88V127.05" style="vector-effect: non-scaling-stroke; stroke-width: 2px; stroke: rgb(132, 132, 132); stroke-opacity: 1; fill: rgb(132, 132, 132); fill-opacity: 0.5;"></path><path class="mean" d="M39.93,156.66H49.41" style="fill: none; vector-effect: non-scaling-stroke; stroke-width: 2px; stroke-dasharray: 4px, 2px; stroke: rgb(132, 132, 132); stroke-opacity: 1;"></path><path class="mean" d="M191.64,160.46H201.13" style="fill: none; vector-effect: non-scaling-stroke; stroke-width: 2px; stroke-dasharray: 4px, 2px; stroke: rgb(132, 132, 132); stroke-opacity: 1;"></path><path class="mean" d="M343.36,171.26H352.84" style="fill: none; vector-effect: non-scaling-stroke; stroke-width: 2px; stroke-dasharray: 4px, 2px; stroke: rgb(132, 132, 132); stroke-opacity: 1;"></path><path class="mean" d="M495.07,173.35H504.55" style="fill: none; vector-effect: non-scaling-stroke; stroke-width: 2px; stroke-dasharray: 4px, 2px; stroke: rgb(132, 132, 132); stroke-opacity: 1;"></path><g class="points"><path class="point" transform="translate(37.93,62.88)" d="M3,0A3,3 0 1,1 0,-3A3,3 0 0,1 3,0Z" style="opacity: 1; stroke-width: 0px; fill: rgb(132, 132, 132); fill-opacity: 1;"></path><path class="point" transform="translate(37.93,51.83)" d="M3,0A3,3 0 1,1 0,-3A3,3 0 0,1 3,0Z" style="opacity: 1; stroke-width: 0px; fill: rgb(132, 132, 132); fill-opacity: 1;"></path></g><g class="points"><path class="point" transform="translate(189.64,66.99)" d="M3,0A3,3 0 1,1 0,-3A3,3 0 0,1 3,0Z" style="opacity: 1; stroke-width: 0px; fill: rgb(132, 132, 132); fill-opacity: 1;"></path><path class="point" transform="translate(189.64,51.44)" d="M3,0A3,3 0 1,1 0,-3A3,3 0 0,1 3,0Z" style="opacity: 1; stroke-width: 0px; fill: rgb(132, 132, 132); fill-opacity: 1;"></path><path class="point" transform="translate(189.64,51.21)" d="M3,0A3,3 0 1,1 0,-3A3,3 0 0,1 3,0Z" style="opacity: 1; stroke-width: 0px; fill: rgb(132, 132, 132); fill-opacity: 1;"></path><path class="point" transform="translate(189.64,41.49)" d="M3,0A3,3 0 1,1 0,-3A3,3 0 0,1 3,0Z" style="opacity: 1; stroke-width: 0px; fill: rgb(132, 132, 132); fill-opacity: 1;"></path></g><g class="points"><path class="point" transform="translate(341.36,112.51)" d="M3,0A3,3 0 1,1 0,-3A3,3 0 0,1 3,0Z" style="opacity: 1; stroke-width: 0px; fill: rgb(132, 132, 132); fill-opacity: 1;"></path><path class="point" transform="translate(341.36,106.17)" d="M3,0A3,3 0 1,1 0,-3A3,3 0 0,1 3,0Z" style="opacity: 1; stroke-width: 0px; fill: rgb(132, 132, 132); fill-opacity: 1;"></path><path class="point" transform="translate(341.36,104.09)" d="M3,0A3,3 0 1,1 0,-3A3,3 0 0,1 3,0Z" style="opacity: 1; stroke-width: 0px; fill: rgb(132, 132, 132); fill-opacity: 1;"></path><path class="point" transform="translate(341.36,79.18)" d="M3,0A3,3 0 1,1 0,-3A3,3 0 0,1 3,0Z" style="opacity: 1; stroke-width: 0px; fill: rgb(132, 132, 132); fill-opacity: 1;"></path><path class="point" transform="translate(341.36,71.66)" d="M3,0A3,3 0 1,1 0,-3A3,3 0 0,1 3,0Z" style="opacity: 1; stroke-width: 0px; fill: rgb(132, 132, 132); fill-opacity: 1;"></path></g><g class="points"><path class="point" transform="translate(493.07,83.17)" d="M3,0A3,3 0 1,1 0,-3A3,3 0 0,1 3,0Z" style="opacity: 1; stroke-width: 0px; fill: rgb(132, 132, 132); fill-opacity: 1;"></path></g></g></g></g><g class="overplot"></g><path class="xlines-above crisp" d="M0,0" style="fill: none;"></path><path class="ylines-above crisp" d="M0,0" style="fill: none;"></path><g class="overlines-above"></g><g class="xaxislayer-above"><g class="xtick"><text text-anchor="middle" x="0" y="383" data-unformatted="Sun" data-math="N" transform="translate(117.93,0)" style="font-family: &quot;Open Sans&quot;, verdana, arial, sans-serif; font-size: 12px; fill: rgb(68, 68, 68); fill-opacity: 1; white-space: pre;">Sun</text></g><g class="xtick"><text text-anchor="middle" x="0" y="383" data-unformatted="Sat" data-math="N" transform="translate(269.64,0)" style="font-family: &quot;Open Sans&quot;, verdana, arial, sans-serif; font-size: 12px; fill: rgb(68, 68, 68); fill-opacity: 1; white-space: pre;">Sat</text></g><g class="xtick"><text text-anchor="middle" x="0" y="383" data-unformatted="Thur" data-math="N" transform="translate(421.36,0)" style="font-family: &quot;Open Sans&quot;, verdana, arial, sans-serif; font-size: 12px; fill: rgb(68, 68, 68); fill-opacity: 1; white-space: pre;">Thur</text></g><g class="xtick"><text text-anchor="middle" x="0" y="383" data-unformatted="Fri" data-math="N" transform="translate(573.0699999999999,0)" style="font-family: &quot;Open Sans&quot;, verdana, arial, sans-serif; font-size: 12px; fill: rgb(68, 68, 68); fill-opacity: 1; white-space: pre;">Fri</text></g></g><g class="yaxislayer-above"><g class="ytick"><text text-anchor="end" x="79" y="4.199999999999999" data-unformatted="0" data-math="N" transform="translate(0,340.53999999999996)" style="font-family: &quot;Open Sans&quot;, verdana, arial, sans-serif; font-size: 12px; fill: rgb(68, 68, 68); fill-opacity: 1; white-space: pre;">0</text></g><g class="ytick"><text text-anchor="end" x="79" y="4.199999999999999" data-unformatted="10" data-math="N" transform="translate(0,301.36)" style="font-family: &quot;Open Sans&quot;, verdana, arial, sans-serif; font-size: 12px; fill: rgb(68, 68, 68); fill-opacity: 1; white-space: pre;">10</text></g><g class="ytick"><text text-anchor="end" x="79" y="4.199999999999999" data-unformatted="20" data-math="N" transform="translate(0,262.19)" style="font-family: &quot;Open Sans&quot;, verdana, arial, sans-serif; font-size: 12px; fill: rgb(68, 68, 68); fill-opacity: 1; white-space: pre;">20</text></g><g class="ytick"><text text-anchor="end" x="79" y="4.199999999999999" data-unformatted="30" data-math="N" transform="translate(0,223.01)" style="font-family: &quot;Open Sans&quot;, verdana, arial, sans-serif; font-size: 12px; fill: rgb(68, 68, 68); fill-opacity: 1; white-space: pre;">30</text></g><g class="ytick"><text text-anchor="end" x="79" y="4.199999999999999" data-unformatted="40" data-math="N" transform="translate(0,183.84)" style="font-family: &quot;Open Sans&quot;, verdana, arial, sans-serif; font-size: 12px; fill: rgb(68, 68, 68); fill-opacity: 1; white-space: pre;">40</text></g><g class="ytick"><text text-anchor="end" x="79" y="4.199999999999999" data-unformatted="50" data-math="N" transform="translate(0,144.66)" style="font-family: &quot;Open Sans&quot;, verdana, arial, sans-serif; font-size: 12px; fill: rgb(68, 68, 68); fill-opacity: 1; white-space: pre;">50</text></g><g class="ytick"><text text-anchor="end" x="79" y="4.199999999999999" data-unformatted="60" data-math="N" transform="translate(0,105.49)" style="font-family: &quot;Open Sans&quot;, verdana, arial, sans-serif; font-size: 12px; fill: rgb(68, 68, 68); fill-opacity: 1; white-space: pre;">60</text></g></g><g class="overaxes-above"></g></g></g><g class="polarlayer"></g><g class="ternarylayer"></g><g class="geolayer"></g><g class="funnelarealayer"></g><g class="pielayer"></g><g class="treemaplayer"></g><g class="sunburstlayer"></g><g class="glimages"></g></svg>