<svg xmlns="http://www.w3.org/2000/svg" width="493.891" height="445"><path fill="#fff" d="M0 0h493.891v445H0z"/><path fill="#e8c1a0" d="M136.779 412.333h22.667V435h-22.667zM160.446 412.333h22.667V435h-22.667zM184.112 412.333h22.667V435h-22.667zM207.779 412.333h22.667V435h-22.667zM231.446 412.333h22.667V435h-22.667zM255.112 412.333h22.667V435h-22.667zM278.779 412.333h22.667V435h-22.667zM302.446 412.333h22.667V435h-22.667zM326.112 412.333h22.667V435h-22.667zM349.779 412.333h22.667V435h-22.667zM373.446 412.333h22.667V435h-22.667zM397.112 412.333h22.667V435h-22.667zM420.779 412.333h22.667V435h-22.667zM444.446 412.333h22.667V435h-22.667zM136.779 388.667h22.667v22.667h-22.667zM160.446 388.667h22.667v22.667h-22.667zM184.112 388.667h22.667v22.667h-22.667zM207.779 388.667h22.667v22.667h-22.667zM231.446 388.667h22.667v22.667h-22.667zM255.112 388.667h22.667v22.667h-22.667zM278.779 388.667h22.667v22.667h-22.667zM302.446 388.667h22.667v22.667h-22.667zM326.112 388.667h22.667v22.667h-22.667zM349.779 388.667h22.667v22.667h-22.667zM373.446 388.667h22.667v22.667h-22.667zM397.112 388.667h22.667v22.667h-22.667zM420.779 388.667h22.667v22.667h-22.667zM444.446 388.667h22.667v22.667h-22.667zM136.779 365h22.667v22.667h-22.667zM160.446 365h22.667v22.667h-22.667zM184.112 365h22.667v22.667h-22.667zM207.779 365h22.667v22.667h-22.667zM231.446 365h22.667v22.667h-22.667zM255.112 365h22.667v22.667h-22.667zM278.779 365h22.667v22.667h-22.667zM302.446 365h22.667v22.667h-22.667zM326.112 365h22.667v22.667h-22.667zM349.779 365h22.667v22.667h-22.667zM373.446 365h22.667v22.667h-22.667zM397.112 365h22.667v22.667h-22.667zM420.779 365h22.667v22.667h-22.667zM444.446 365h22.667v22.667h-22.667zM136.779 341.333h22.667V364h-22.667zM160.446 341.333h22.667V364h-22.667zM184.112 341.333h22.667V364h-22.667zM207.779 341.333h22.667V364h-22.667zM231.446 341.333h22.667V364h-22.667z"/><path fill="#f47560" d="M255.112 341.333h22.667V364h-22.667zM278.779 341.333h22.667V364h-22.667zM302.446 341.333h22.667V364h-22.667zM326.112 341.333h22.667V364h-22.667zM349.779 341.333h22.667V364h-22.667zM373.446 341.333h22.667V364h-22.667zM397.112 341.333h22.667V364h-22.667zM420.779 341.333h22.667V364h-22.667zM444.446 341.333h22.667V364h-22.667zM136.779 317.667h22.667v22.667h-22.667zM160.446 317.667h22.667v22.667h-22.667zM184.112 317.667h22.667v22.667h-22.667zM207.779 317.667h22.667v22.667h-22.667zM231.446 317.667h22.667v22.667h-22.667zM255.112 317.667h22.667v22.667h-22.667zM278.779 317.667h22.667v22.667h-22.667zM302.446 317.667h22.667v22.667h-22.667zM326.112 317.667h22.667v22.667h-22.667zM349.779 317.667h22.667v22.667h-22.667zM373.446 317.667h22.667v22.667h-22.667zM397.112 317.667h22.667v22.667h-22.667zM420.779 317.667h22.667v22.667h-22.667z"/><path fill="#f1e15b" d="M444.446 317.667h22.667v22.667h-22.667zM136.779 294h22.667v22.667h-22.667zM160.446 294h22.667v22.667h-22.667zM184.112 294h22.667v22.667h-22.667zM207.779 294h22.667v22.667h-22.667zM231.446 294h22.667v22.667h-22.667zM255.112 294h22.667v22.667h-22.667zM278.779 294h22.667v22.667h-22.667zM302.446 294h22.667v22.667h-22.667zM326.112 294h22.667v22.667h-22.667zM349.779 294h22.667v22.667h-22.667zM373.446 294h22.667v22.667h-22.667zM397.112 294h22.667v22.667h-22.667zM420.779 294h22.667v22.667h-22.667zM444.446 294h22.667v22.667h-22.667zM136.779 270.333h22.667V293h-22.667zM160.446 270.333h22.667V293h-22.667zM184.112 270.333h22.667V293h-22.667zM207.779 270.333h22.667V293h-22.667z"/><path fill="#ccc" d="M231.446 270.333h22.667V293h-22.667zM255.112 270.333h22.667V293h-22.667zM278.779 270.333h22.667V293h-22.667zM302.446 270.333h22.667V293h-22.667zM326.112 270.333h22.667V293h-22.667zM349.779 270.333h22.667V293h-22.667zM373.446 270.333h22.667V293h-22.667zM397.112 270.333h22.667V293h-22.667zM420.779 270.333h22.667V293h-22.667zM444.446 270.333h22.667V293h-22.667zM136.779 246.667h22.667v22.667h-22.667zM160.446 246.667h22.667v22.667h-22.667zM184.112 246.667h22.667v22.667h-22.667zM207.779 246.667h22.667v22.667h-22.667zM231.446 246.667h22.667v22.667h-22.667zM255.112 246.667h22.667v22.667h-22.667zM278.779 246.667h22.667v22.667h-22.667zM302.446 246.667h22.667v22.667h-22.667zM326.112 246.667h22.667v22.667h-22.667zM349.779 246.667h22.667v22.667h-22.667zM373.446 246.667h22.667v22.667h-22.667zM397.112 246.667h22.667v22.667h-22.667zM420.779 246.667h22.667v22.667h-22.667zM444.446 246.667h22.667v22.667h-22.667zM136.779 223h22.667v22.667h-22.667zM160.446 223h22.667v22.667h-22.667zM184.112 223h22.667v22.667h-22.667zM207.779 223h22.667v22.667h-22.667zM231.446 223h22.667v22.667h-22.667zM255.112 223h22.667v22.667h-22.667zM278.779 223h22.667v22.667h-22.667zM302.446 223h22.667v22.667h-22.667zM326.112 223h22.667v22.667h-22.667zM349.779 223h22.667v22.667h-22.667zM373.446 223h22.667v22.667h-22.667zM397.112 223h22.667v22.667h-22.667zM420.779 223h22.667v22.667h-22.667zM444.446 223h22.667v22.667h-22.667zM136.779 199.333h22.667V222h-22.667zM160.446 199.333h22.667V222h-22.667zM184.112 199.333h22.667V222h-22.667zM207.779 199.333h22.667V222h-22.667zM231.446 199.333h22.667V222h-22.667zM255.112 199.333h22.667V222h-22.667zM278.779 199.333h22.667V222h-22.667zM302.446 199.333h22.667V222h-22.667zM326.112 199.333h22.667V222h-22.667zM349.779 199.333h22.667V222h-22.667zM373.446 199.333h22.667V222h-22.667zM397.112 199.333h22.667V222h-22.667zM420.779 199.333h22.667V222h-22.667zM444.446 199.333h22.667V222h-22.667zM136.779 175.667h22.667v22.667h-22.667zM160.446 175.667h22.667v22.667h-22.667zM184.112 175.667h22.667v22.667h-22.667zM207.779 175.667h22.667v22.667h-22.667zM231.446 175.667h22.667v22.667h-22.667zM255.112 175.667h22.667v22.667h-22.667zM278.779 175.667h22.667v22.667h-22.667zM302.446 175.667h22.667v22.667h-22.667zM326.112 175.667h22.667v22.667h-22.667zM349.779 175.667h22.667v22.667h-22.667zM373.446 175.667h22.667v22.667h-22.667zM397.112 175.667h22.667v22.667h-22.667zM420.779 175.667h22.667v22.667h-22.667zM444.446 175.667h22.667v22.667h-22.667zM136.779 152h22.667v22.667h-22.667zM160.446 152h22.667v22.667h-22.667zM184.112 152h22.667v22.667h-22.667zM207.779 152h22.667v22.667h-22.667zM231.446 152h22.667v22.667h-22.667zM255.112 152h22.667v22.667h-22.667zM278.779 152h22.667v22.667h-22.667zM302.446 152h22.667v22.667h-22.667zM326.112 152h22.667v22.667h-22.667zM349.779 152h22.667v22.667h-22.667zM373.446 152h22.667v22.667h-22.667zM397.112 152h22.667v22.667h-22.667zM420.779 152h22.667v22.667h-22.667zM444.446 152h22.667v22.667h-22.667zM136.779 128.333h22.667V151h-22.667zM160.446 128.333h22.667V151h-22.667zM184.112 128.333h22.667V151h-22.667zM207.779 128.333h22.667V151h-22.667zM231.446 128.333h22.667V151h-22.667zM255.112 128.333h22.667V151h-22.667zM278.779 128.333h22.667V151h-22.667zM302.446 128.333h22.667V151h-22.667zM326.112 128.333h22.667V151h-22.667zM349.779 128.333h22.667V151h-22.667zM373.446 128.333h22.667V151h-22.667zM397.112 128.333h22.667V151h-22.667zM420.779 128.333h22.667V151h-22.667zM444.446 128.333h22.667V151h-22.667zM136.779 104.667h22.667v22.667h-22.667zM160.446 104.667h22.667v22.667h-22.667zM184.112 104.667h22.667v22.667h-22.667zM207.779 104.667h22.667v22.667h-22.667zM231.446 104.667h22.667v22.667h-22.667zM255.112 104.667h22.667v22.667h-22.667zM278.779 104.667h22.667v22.667h-22.667zM302.446 104.667h22.667v22.667h-22.667zM326.112 104.667h22.667v22.667h-22.667zM349.779 104.667h22.667v22.667h-22.667zM373.446 104.667h22.667v22.667h-22.667zM397.112 104.667h22.667v22.667h-22.667zM420.779 104.667h22.667v22.667h-22.667zM444.446 104.667h22.667v22.667h-22.667zM136.779 81h22.667v22.667h-22.667zM160.446 81h22.667v22.667h-22.667zM184.112 81h22.667v22.667h-22.667zM207.779 81h22.667v22.667h-22.667zM231.446 81h22.667v22.667h-22.667zM255.112 81h22.667v22.667h-22.667zM278.779 81h22.667v22.667h-22.667zM302.446 81h22.667v22.667h-22.667zM326.112 81h22.667v22.667h-22.667zM349.779 81h22.667v22.667h-22.667zM373.446 81h22.667v22.667h-22.667zM397.112 81h22.667v22.667h-22.667zM420.779 81h22.667v22.667h-22.667zM444.446 81h22.667v22.667h-22.667zM136.779 57.333h22.667V80h-22.667zM160.446 57.333h22.667V80h-22.667zM184.112 57.333h22.667V80h-22.667zM207.779 57.333h22.667V80h-22.667zM231.446 57.333h22.667V80h-22.667zM255.112 57.333h22.667V80h-22.667zM278.779 57.333h22.667V80h-22.667zM302.446 57.333h22.667V80h-22.667zM326.112 57.333h22.667V80h-22.667zM349.779 57.333h22.667V80h-22.667zM373.446 57.333h22.667V80h-22.667zM397.112 57.333h22.667V80h-22.667zM420.779 57.333h22.667V80h-22.667zM444.446 57.333h22.667V80h-22.667zM136.779 33.667h22.667v22.667h-22.667zM160.446 33.667h22.667v22.667h-22.667zM184.112 33.667h22.667v22.667h-22.667zM207.779 33.667h22.667v22.667h-22.667zM231.446 33.667h22.667v22.667h-22.667zM255.112 33.667h22.667v22.667h-22.667zM278.779 33.667h22.667v22.667h-22.667zM302.446 33.667h22.667v22.667h-22.667zM326.112 33.667h22.667v22.667h-22.667zM349.779 33.667h22.667v22.667h-22.667zM373.446 33.667h22.667v22.667h-22.667zM397.112 33.667h22.667v22.667h-22.667zM420.779 33.667h22.667v22.667h-22.667zM444.446 33.667h22.667v22.667h-22.667zM136.779 10h22.667v22.667h-22.667zM160.446 10h22.667v22.667h-22.667zM184.112 10h22.667v22.667h-22.667zM207.779 10h22.667v22.667h-22.667zM231.446 10h22.667v22.667h-22.667zM255.112 10h22.667v22.667h-22.667zM278.779 10h22.667v22.667h-22.667zM302.446 10h22.667v22.667h-22.667zM326.112 10h22.667v22.667h-22.667zM349.779 10h22.667v22.667h-22.667zM373.446 10h22.667v22.667h-22.667zM397.112 10h22.667v22.667h-22.667zM420.779 10h22.667v22.667h-22.667zM444.446 10h22.667v22.667h-22.667z"/><g style="opacity:1"><path fill="transparent" d="M0 0h100v20H0z" style="cursor:pointer" transform="translate(20 10)"/><path fill="#e8c1a0" d="M0 0h20v20H0z" opacity="1" style="pointer-events:none" transform="translate(20 10)"/><text x="28" y="10" style="font-size:12px;font-family:sans-serif;fill:#777;dominant-baseline:central;pointer-events:none;user-select:none" transform="translate(20 10)">men</text></g><g style="opacity:1"><path fill="transparent" d="M0 0h100v20H0z" style="cursor:pointer" transform="translate(20 34)"/><path fill="#f47560" d="M0 0h20v20H0z" opacity="1" style="pointer-events:none" transform="translate(20 34)"/><text x="28" y="10" style="font-size:12px;font-family:sans-serif;fill:#777;dominant-baseline:central;pointer-events:none;user-select:none" transform="translate(20 34)">women</text></g><g style="opacity:1"><path fill="transparent" d="M0 0h100v20H0z" style="cursor:pointer" transform="translate(20 58)"/><path fill="#f1e15b" d="M0 0h20v20H0z" opacity="1" style="pointer-events:none" transform="translate(20 58)"/><text x="28" y="10" style="font-size:12px;font-family:sans-serif;fill:#777;dominant-baseline:central;pointer-events:none;user-select:none" transform="translate(20 58)">children</text></g></svg>