<svg version="1.1" xmlns="http://www.w3.org/2000/svg" xmlns:xlink="http://www.w3.org/1999/xlink" width="2900" height="2450"><defs/><g fill="none" fill-rule="nonzero" stroke="none" stroke-width="none" stroke-linecap="butt" stroke-linejoin="miter" stroke-miterlimit="10" stroke-dasharray="" stroke-dashoffset="0" font-family="sans-serif" font-weight="normal" font-size="11px" text-anchor="start" style="mix-blend-mode: normal"><g fill="#ffffff" stroke="none" stroke-width="1"/><g><rect x="0" y="0" width="2900" height="2450" fill="#ffffff" stroke="none" stroke-width="1"/><g><rect x="334" y="44" width="36" height="36" fill="#0064dc" stroke="#bbbbbb" stroke-width="0"/><rect x="371" y="44" width="36" height="36" fill="#0064dc" stroke="#bbbbbb" stroke-width="0"/><rect x="408" y="44" width="36" height="36" fill="#0064dc" stroke="#bbbbbb" stroke-width="0"/><rect x="445" y="44" width="36" height="36" fill="#0064dc" stroke="#bbbbbb" stroke-width="0"/><rect x="482" y="44" width="36" height="36" fill="#0064dc" stroke="#bbbbbb" stroke-width="0"/><rect x="519" y="44" width="36" height="36" fill="#0064dc" stroke="#bbbbbb" stroke-width="0"/><rect x="556" y="44" width="36" height="36" fill="#0064dc" stroke="#bbbbbb" stroke-width="0"/><rect x="593" y="44" width="36" height="36" fill="#0064dc" stroke="#bbbbbb" stroke-width="0"/><rect x="630" y="44" width="36" height="36" fill="#0064dc" stroke="#bbbbbb" stroke-width="0"/><rect x="667" y="44" width="36" height="36" fill="#0064dc" stroke="#bbbbbb" stroke-width="0"/><rect x="334" y="81" width="36" height="36" fill="#0064dc" stroke="#bbbbbb" stroke-width="0"/><rect x="371" y="81" width="36" height="36" fill="#0064dc" stroke="#bbbbbb" stroke-width="0"/><rect x="408" y="81" width="36" height="36" fill="#0064dc" stroke="#bbbbbb" stroke-width="0"/><rect x="445" y="81" width="36" height="36" fill="#0064dc" stroke="#bbbbbb" stroke-width="0"/><rect x="482" y="81" width="36" height="36" fill="#0064dc" stroke="#bbbbbb" stroke-width="0"/><rect x="519" y="81" width="36" height="36" fill="#0064dc" stroke="#bbbbbb" stroke-width="0"/><rect x="556" y="81" width="36" height="36" fill="#0064dc" stroke="#bbbbbb" stroke-width="0"/><rect x="593" y="81" width="36" height="36" fill="#0064dc" stroke="#bbbbbb" stroke-width="0"/><rect x="630" y="81" width="36" height="36" fill="#0064dc" stroke="#bbbbbb" stroke-width="0"/><rect x="667" y="81" width="36" height="36" fill="#0064dc" stroke="#bbbbbb" stroke-width="0"/><rect x="334" y="118" width="36" height="36" fill="#0064dc" stroke="#bbbbbb" stroke-width="0"/><rect x="371" y="118" width="36" height="36" fill="#0064dc" stroke="#bbbbbb" stroke-width="0"/><rect x="408" y="118" width="36" height="36" fill="#0064dc" stroke="#bbbbbb" stroke-width="0"/><rect x="445" y="118" width="36" height="36" fill="#0064dc" stroke="#bbbbbb" stroke-width="0"/><rect x="482" y="118" width="36" height="36" fill="#0064dc" stroke="#bbbbbb" stroke-width="0"/><rect x="519" y="118" width="36" height="36" fill="#5a50c8" stroke="#bbbbbb" stroke-width="0"/><rect x="556" y="118" width="36" height="36" fill="#5a50c8" stroke="#bbbbbb" stroke-width="0"/><rect x="593" y="118" width="36" height="36" fill="#5a50c8" stroke="#bbbbbb" stroke-width="0"/><rect x="630" y="118" width="36" height="36" fill="#5a50c8" stroke="#bbbbbb" stroke-width="0"/><rect x="667" y="118" width="36" height="36" fill="#5a50c8" stroke="#bbbbbb" stroke-width="0"/><rect x="334" y="155" width="36" height="36" fill="#5a50c8" stroke="#bbbbbb" stroke-width="0"/><rect x="371" y="155" width="36" height="36" fill="#5a50c8" stroke="#bbbbbb" stroke-width="0"/><rect x="408" y="155" width="36" height="36" fill="#5a50c8" stroke="#bbbbbb" stroke-width="0"/><rect x="445" y="155" width="36" height="36" fill="#5a50c8" stroke="#bbbbbb" stroke-width="0"/><rect x="482" y="155" width="36" height="36" fill="#823c96" stroke="#bbbbbb" stroke-width="0"/><rect x="519" y="155" width="36" height="36" fill="#823c96" stroke="#bbbbbb" stroke-width="0"/><rect x="556" y="155" width="36" height="36" fill="#823c96" stroke="#bbbbbb" stroke-width="0"/><rect x="593" y="155" width="36" height="36" fill="#823c96" stroke="#bbbbbb" stroke-width="0"/><rect x="630" y="155" width="36" height="36" fill="#823c96" stroke="#bbbbbb" stroke-width="0"/><rect x="667" y="155" width="36" height="36" fill="#823c96" stroke="#bbbbbb" stroke-width="0"/><rect x="334" y="192" width="36" height="36" fill="#823c96" stroke="#bbbbbb" stroke-width="0"/><rect x="371" y="192" width="36" height="36" fill="#823c96" stroke="#bbbbbb" stroke-width="0"/><rect x="408" y="192" width="36" height="36" fill="#823c96" stroke="#bbbbbb" stroke-width="0"/><rect x="445" y="192" width="36" height="36" fill="#823c96" stroke="#bbbbbb" stroke-width="0"/><rect x="482" y="192" width="36" height="36" fill="#823c96" stroke="#bbbbbb" stroke-width="0"/><rect x="519" y="192" width="36" height="36" fill="#823c96" stroke="#bbbbbb" stroke-width="0"/><rect x="556" y="192" width="36" height="36" fill="#be1e5a" stroke="#bbbbbb" stroke-width="0"/><rect x="593" y="192" width="36" height="36" fill="#be1e5a" stroke="#bbbbbb" stroke-width="0"/><rect x="630" y="192" width="36" height="36" fill="#be1e5a" stroke="#bbbbbb" stroke-width="0"/><rect x="667" y="192" width="36" height="36" fill="#be1e5a" stroke="#bbbbbb" stroke-width="0"/><rect x="334" y="229" width="36" height="36" fill="#be1e5a" stroke="#bbbbbb" stroke-width="0"/><rect x="371" y="229" width="36" height="36" fill="#be1e5a" stroke="#bbbbbb" stroke-width="0"/><rect x="408" y="229" width="36" height="36" fill="#be1e5a" stroke="#bbbbbb" stroke-width="0"/><rect x="445" y="229" width="36" height="36" fill="#be1e5a" stroke="#bbbbbb" stroke-width="0"/><rect x="482" y="229" width="36" height="36" fill="#be1e5a" stroke="#bbbbbb" stroke-width="0"/><rect x="519" y="229" width="36" height="36" fill="#be1e5a" stroke="#bbbbbb" stroke-width="0"/><rect x="556" y="229" width="36" height="36" fill="#be1e5a" stroke="#bbbbbb" stroke-width="0"/><rect x="593" y="229" width="36" height="36" fill="#be1e5a" stroke="#bbbbbb" stroke-width="0"/><rect x="630" y="229" width="36" height="36" fill="#be1e5a" stroke="#bbbbbb" stroke-width="0"/><rect x="667" y="229" width="36" height="36" fill="#be1e5a" stroke="#bbbbbb" stroke-width="0"/><rect x="334" y="266" width="36" height="36" fill="#be1e5a" stroke="#bbbbbb" stroke-width="0"/><rect x="371" y="266" width="36" height="36" fill="#be1e5a" stroke="#bbbbbb" stroke-width="0"/><rect x="408" y="266" width="36" height="36" fill="#be1e5a" stroke="#bbbbbb" stroke-width="0"/><rect x="445" y="266" width="36" height="36" fill="#be1e5a" stroke="#bbbbbb" stroke-width="0"/><rect x="482" y="266" width="36" height="36" fill="#be1e5a" stroke="#bbbbbb" stroke-width="0"/><rect x="519" y="266" width="36" height="36" fill="#be1e5a" stroke="#bbbbbb" stroke-width="0"/><rect x="556" y="266" width="36" height="36" fill="#be1e5a" stroke="#bbbbbb" stroke-width="0"/><rect x="593" y="266" width="36" height="36" fill="#be1e5a" stroke="#bbbbbb" stroke-width="0"/><rect x="630" y="266" width="36" height="36" fill="#be1e5a" stroke="#bbbbbb" stroke-width="0"/><rect x="667" y="266" width="36" height="36" fill="#be1e5a" stroke="#bbbbbb" stroke-width="0"/><rect x="334" y="303" width="36" height="36" fill="#be1e5a" stroke="#bbbbbb" stroke-width="0"/><rect x="371" y="303" width="36" height="36" fill="#be1e5a" stroke="#bbbbbb" stroke-width="0"/><rect x="408" y="303" width="36" height="36" fill="#c81e03" stroke="#bbbbbb" stroke-width="0"/><rect x="445" y="303" width="36" height="36" fill="#c81e03" stroke="#bbbbbb" stroke-width="0"/><rect x="482" y="303" width="36" height="36" fill="#c81e03" stroke="#bbbbbb" stroke-width="0"/><rect x="519" y="303" width="36" height="36" fill="#c81e03" stroke="#bbbbbb" stroke-width="0"/><rect x="556" y="303" width="36" height="36" fill="#c81e03" stroke="#bbbbbb" stroke-width="0"/><rect x="593" y="303" width="36" height="36" fill="#c81e03" stroke="#bbbbbb" stroke-width="0"/><rect x="630" y="303" width="36" height="36" fill="#c81e03" stroke="#bbbbbb" stroke-width="0"/><rect x="667" y="303" width="36" height="36" fill="#c81e03" stroke="#bbbbbb" stroke-width="0"/><rect x="334" y="340" width="36" height="36" fill="#c81e03" stroke="#bbbbbb" stroke-width="0"/><rect x="371" y="340" width="36" height="36" fill="#c81e03" stroke="#bbbbbb" stroke-width="0"/><rect x="408" y="340" width="36" height="36" fill="#c81e03" stroke="#bbbbbb" stroke-width="0"/><rect x="445" y="340" width="36" height="36" fill="#c81e03" stroke="#bbbbbb" stroke-width="0"/><rect x="482" y="340" width="36" height="36" fill="#c81e03" stroke="#bbbbbb" stroke-width="0"/><rect x="519" y="340" width="36" height="36" fill="#505050" stroke="#bbbbbb" stroke-width="0"/><rect x="556" y="340" width="36" height="36" fill="#505050" stroke="#bbbbbb" stroke-width="0"/><rect x="593" y="340" width="36" height="36" fill="#505050" stroke="#bbbbbb" stroke-width="0"/><rect x="630" y="340" width="36" height="36" fill="#505050" stroke="#bbbbbb" stroke-width="0"/><rect x="667" y="340" width="36" height="36" fill="#505050" stroke="#bbbbbb" stroke-width="0"/><rect x="334" y="377" width="36" height="36" fill="#505050" stroke="#bbbbbb" stroke-width="0"/><rect x="371" y="377" width="36" height="36" fill="#505050" stroke="#bbbbbb" stroke-width="0"/><rect x="408" y="377" width="36" height="36" fill="#505050" stroke="#bbbbbb" stroke-width="0"/><rect x="445" y="377" width="36" height="36" fill="#505050" stroke="#bbbbbb" stroke-width="0"/><rect x="482" y="377" width="36" height="36" fill="#505050" stroke="#bbbbbb" stroke-width="0"/><rect x="519" y="377" width="36" height="36" fill="#505050" stroke="#bbbbbb" stroke-width="0"/><rect x="556" y="377" width="36" height="36" fill="#505050" stroke="#bbbbbb" stroke-width="0"/><rect x="593" y="377" width="36" height="36" fill="#505050" stroke="#bbbbbb" stroke-width="0"/><rect x="630" y="377" width="36" height="36" fill="#505050" stroke="#bbbbbb" stroke-width="0"/><rect x="667" y="377" width="36" height="36" fill="#505050" stroke="#bbbbbb" stroke-width="0"/></g><g><rect x="824" y="45" width="111.53846" height="15" fill="#0064dc" stroke="#bbbbbb" stroke-width="0"/><rect x="824" y="62" width="40.15385" height="15" fill="#5a50c8" stroke="#bbbbbb" stroke-width="0"/><rect x="824" y="79" width="53.53846" height="15" fill="#823c96" stroke="#bbbbbb" stroke-width="0"/><rect x="824" y="96" width="116" height="15" fill="#be1e5a" stroke="#bbbbbb" stroke-width="0"/><rect x="824" y="113" width="58" height="15" fill="#c81e03" stroke="#bbbbbb" stroke-width="0"/><rect x="824" y="130" width="66.92308" height="15" fill="#505050" stroke="#bbbbbb" stroke-width="0"/></g></g><g transform="translate(1425,897)"><g class="color-scale-palette" transform="translate(0,0)"><rect height="14" width="14" fill="#0064dc" style="stroke-width: 1px; stroke: rgb(231, 231, 231);"/><text dy="0.3em" x="18" y="7" title="Children 0-18" fill="#444" style="font-size: 10px;">Children 0...</text></g><g class="color-scale-palette" transform="translate(0,26)"><rect height="14" width="14" fill="#5a50c8" style="stroke-width: 1px; stroke: rgb(231, 231, 231);"/><text dy="0.3em" x="18" y="7" title="Adults 19-25" fill="#444" style="font-size: 10px;">Adults 19-...</text></g><g class="color-scale-palette" transform="translate(0,52)"><rect height="14" width="14" fill="#823c96" style="stroke-width: 1px; stroke: rgb(231, 231, 231);"/><text dy="0.3em" x="18" y="7" title="Adults 26-34" fill="#444" style="font-size: 10px;">Adults 26-...</text></g><g class="color-scale-palette" transform="translate(0,78)"><rect height="14" width="14" fill="#be1e5a" style="stroke-width: 1px; stroke: rgb(231, 231, 231);"/><text dy="0.3em" x="18" y="7" title="Adults 35-54" fill="#444" style="font-size: 10px;">Adults 35-...</text></g><g class="color-scale-palette" transform="translate(0,104)"><rect height="14" width="14" fill="#c81e03" style="stroke-width: 1px; stroke: rgb(231, 231, 231);"/><text dy="0.3em" x="18" y="7" title="Adults 55-64" fill="#444" style="font-size: 10px;">Adults 55-...</text></g><g class="color-scale-palette" transform="translate(80,0)"><rect height="14" width="14" fill="#505050" style="stroke-width: 1px; stroke: rgb(231, 231, 231);"/><text dy="0.3em" x="18" y="7" title="65+" fill="#444" style="font-size: 10px;">65+</text></g><text class="color-scale-label" y="-14" dy="0.3em" fill="#444" style="font-size: 10px;">Age Bin</text></g><g class="domain" transform="translate(824,167)" fill="none" font-size="10" font-family="sans-serif" text-anchor="middle" style="pointer-events: none;"><path class="domain" stroke="#444" d="M0.5,6V0.5H116.5V6"/><g class="tick" opacity="1" transform="translate(0,0)"><line stroke="#444" y2="6" x1="0.5" x2="0.5"/><text fill="#444" y="9" x="0.5" dy="0.71em">0</text></g><g class="tick" opacity="1" transform="translate(22.30769230769231,0)"><line stroke="#444" y2="6" x1="0.5" x2="0.5"/><text fill="#444" y="9" x="0.5" dy="0.71em">5</text></g><g class="tick" opacity="1" transform="translate(44.61538461538462,0)"><line stroke="#444" y2="6" x1="0.5" x2="0.5"/><text fill="#444" y="9" x="0.5" dy="0.71em">10</text></g><g class="tick" opacity="1" transform="translate(66.92307692307692,0)"><line stroke="#444" y2="6" x1="0.5" x2="0.5"/><text fill="#444" y="9" x="0.5" dy="0.71em">15</text></g><g class="tick" opacity="1" transform="translate(89.23076923076924,0)"><line stroke="#444" y2="6" x1="0.5" x2="0.5"/><text fill="#444" y="9" x="0.5" dy="0.71em">20</text></g><g class="tick" opacity="1" transform="translate(111.53846153846155,0)"><line stroke="#444" y2="6" x1="0.5" x2="0.5"/><text fill="#444" y="9" x="0.5" dy="0.71em">25</text></g><g class="axis-label" transform="translate(2,5)"><text class="attribute" dy="0.3em" style="text-anchor: start;" fill="#444">id</text></g></g></g></svg>