<svg xmlns="http://www.w3.org/2000/svg" overflow="hidden" style="width:100%;height:100%" viewBox="0 0 858 400"><defs><clipPath id="a"><path fill="none" stroke="#000" d="M57.5 50.5h795v308h-795z"/></clipPath></defs><path fill="#FFF" d="M0 0h858v400H0z"/><path fill="none" d="M57 50h795v308H57z"/><path fill="none" stroke="rgba(0, 0, 0, 0.08)" d="M137.5 50.5v308m79-308v308m80-308v308m79-308v308m80-308v308m79-308v308m80-308v308m79-308v308m80-308v308m79-308v308M57.5 324.5h795m-795-34h795m-795-35h795m-795-34h795m-795-34h795m-795-34h795m-795-35h795m-795-34h795m-795-34h795M57.5 358.5h795m-795 0v4m80-4v4m79-4v4m80-4v4m79-4v4m80-4v4m79-4v4m80-4v4m79-4v4m80-4v4m79-4v4"/><g clip-path="url(#a)"><path fill="green" stroke="#060" d="M70.5 187.5h53v171h-53zm80-58h53v58h-53zm79-48h53v48h-53z"/><path fill="red" stroke="#c00" d="M309.5 81.5h53v41h-53z"/><path fill="gray" stroke="#666" d="M388.5 122.5h53v236h-53z"/><path fill="red" stroke="#c00" d="M468.5 122.5h53v75h-53zm79 75h53v62h-53z"/><path fill="green" stroke="#060" d="M627.5 225.5h53v34h-53z"/><path fill="gray" stroke="#666" d="M706.5 122.5h53v103h-53z"/><path fill="#555" stroke="#444" d="M786.5 225.5h53v133h-53z"/><path fill="none" stroke="rgba(0, 0, 0, 0.08)" d="M70.5 187.5h133m-53-58h132m-53-48h133m-53 41h132m-53 0h133m-53 75h132m-53 62h133m-53-34h132m-53 0h133"/></g><g fill="#656565"><text x="70.25" y="378" style="font:11.998px RobotoRegular,Helvetica,Arial,sans-serif;white-space:pre">Beginning</text><text x="75.25" y="392" style="font:11.998px RobotoRegular,Helvetica,Arial,sans-serif;white-space:pre">Balance</text></g><text x="166.75" y="378" fill="#656565" style="font:11.998px RobotoRegular,Helvetica,Arial,sans-serif;white-space:pre">Jan</text><text x="245.25" y="378" fill="#656565" style="font:11.998px RobotoRegular,Helvetica,Arial,sans-serif;white-space:pre">Feb</text><text x="324.75" y="378" fill="#656565" style="font:11.998px RobotoRegular,Helvetica,Arial,sans-serif;white-space:pre">Mar</text><text x="406.75" y="378" fill="#656565" style="font:11.998px RobotoRegular,Helvetica,Arial,sans-serif;white-space:pre">Q1</text><text x="484.75" y="378" fill="#656565" style="font:11.998px RobotoRegular,Helvetica,Arial,sans-serif;white-space:pre">Apr</text><text x="562.25" y="378" fill="#656565" style="font:11.998px RobotoRegular,Helvetica,Arial,sans-serif;white-space:pre">May</text><text x="643.75" y="378" fill="#656565" style="font:11.998px RobotoRegular,Helvetica,Arial,sans-serif;white-space:pre">Jun</text><text x="724.75" y="378" fill="#656565" style="font:11.998px RobotoRegular,Helvetica,Arial,sans-serif;white-space:pre">Q2</text><g fill="#656565"><text x="793.75" y="378" style="font:11.998px RobotoRegular,Helvetica,Arial,sans-serif;white-space:pre">Ending</text><text x="790.75" y="392" style="font:11.998px RobotoRegular,Helvetica,Arial,sans-serif;white-space:pre">Balance</text></g><path fill="none" stroke="rgba(0, 0, 0, 0.08)" d="M57.5 50.5v308m-4 0h4m-4-34h4m-4-34h4m-4-35h4m-4-34h4m-4-34h4m-4-34h4m-4-35h4m-4-34h4m-4-34h4"/><text x="35" y="362" fill="#656565" style="font:11.998px RobotoRegular,Helvetica,Arial,sans-serif;white-space:pre">$0</text><text x="5" y="327.778" fill="#656565" style="font:11.998px RobotoRegular,Helvetica,Arial,sans-serif;white-space:pre">$10,000</text><text x="5" y="293.556" fill="#656565" style="font:11.998px RobotoRegular,Helvetica,Arial,sans-serif;white-space:pre">$20,000</text><text x="5" y="259.333" fill="#656565" style="font:11.998px RobotoRegular,Helvetica,Arial,sans-serif;white-space:pre">$30,000</text><text x="5" y="225.111" fill="#656565" style="font:11.998px RobotoRegular,Helvetica,Arial,sans-serif;white-space:pre">$40,000</text><text x="5" y="190.889" fill="#656565" style="font:11.998px RobotoRegular,Helvetica,Arial,sans-serif;white-space:pre">$50,000</text><text x="5" y="156.667" fill="#656565" style="font:11.998px RobotoRegular,Helvetica,Arial,sans-serif;white-space:pre">$60,000</text><text x="5" y="122.444" fill="#656565" style="font:11.998px RobotoRegular,Helvetica,Arial,sans-serif;white-space:pre">$70,000</text><text x="5" y="88.222" fill="#656565" style="font:11.998px RobotoRegular,Helvetica,Arial,sans-serif;white-space:pre">$80,000</text><text x="5" y="54" fill="#656565" style="font:11.998px RobotoRegular,Helvetica,Arial,sans-serif;white-space:pre">$90,000</text><path fill="#FFF" fill-opacity=".8" d="M70.25 190.889h53v22h-53z"/><text x="75.25" y="205.889" fill="#656565" style="font:11.998px RobotoRegular,Helvetica,Arial,sans-serif;white-space:pre">$50,000</text><path fill="#FFF" fill-opacity=".8" d="M149.75 132.711h53v22h-53z"/><text x="154.75" y="147.711" fill="#656565" style="font:11.998px RobotoRegular,Helvetica,Arial,sans-serif;white-space:pre">$17,000</text><path fill="#FFF" fill-opacity=".8" d="M229.25 84.8h53v22h-53z"/><text x="234.25" y="99.8" fill="#656565" style="font:11.998px RobotoRegular,Helvetica,Arial,sans-serif;white-space:pre">$14,000</text><path fill="#FFF" fill-opacity=".8" d="M308.75 95.867h53v22h-53z"/><text x="311.75" y="110.867" fill="#656565" style="font:11.998px RobotoRegular,Helvetica,Arial,sans-serif;white-space:pre">-$12,000</text><path fill="#FFF" fill-opacity=".8" d="M388.25 125.867h53v22h-53z"/><text x="393.25" y="140.867" fill="#656565" style="font:11.998px RobotoRegular,Helvetica,Arial,sans-serif;white-space:pre">$69,000</text><path fill="#FFF" fill-opacity=".8" d="M467.75 171.156h53v22h-53z"/><text x="470.75" y="186.156" fill="#656565" style="font:11.998px RobotoRegular,Helvetica,Arial,sans-serif;white-space:pre">-$22,000</text><path fill="#FFF" fill-opacity=".8" d="M547.25 232.756h53v22h-53z"/><text x="550.25" y="247.756" fill="#656565" style="font:11.998px RobotoRegular,Helvetica,Arial,sans-serif;white-space:pre">-$18,000</text><path fill="#FFF" fill-opacity=".8" d="M626.75 228.533h53v22h-53z"/><text x="631.75" y="243.533" fill="#656565" style="font:11.998px RobotoRegular,Helvetica,Arial,sans-serif;white-space:pre">$10,000</text><path fill="#FFF" fill-opacity=".8" d="M706.25 198.533h53v22h-53z"/><text x="709.25" y="213.533" fill="#656565" style="font:11.998px RobotoRegular,Helvetica,Arial,sans-serif;white-space:pre">-$30,000</text><path fill="#FFF" fill-opacity=".8" d="M785.75 228.533h53v22h-53z"/><text x="790.75" y="243.533" fill="#656565" style="font:11.998px RobotoRegular,Helvetica,Arial,sans-serif;white-space:pre">$39,000</text><text x="394" y="29" fill="#656565" style="font:16.002px RobotoRegular,Helvetica,Arial,sans-serif;white-space:pre">Cash flow</text></svg>