<svg xmlns="http://www.w3.org/2000/svg" style="display:block;background:#fff"><path d="M100 450h809M100 417.105h809M100 384.211h809M100 351.316h809M100 318.421h809M100 285.526h809M100 252.632h809M100 219.737h809M100 186.842h809M100 153.947h809" style="fill:none;stroke:#ddd;stroke-width:1;stroke-dasharray:none"/><g dominant-baseline="middle" text-anchor="end"><text x="90" y="450" alignment-baseline="middle" style="fill:#555;font-size:12px;font-family:Arial,sans-serif;font-weight:400">0.0</text><text x="90" y="417.105" alignment-baseline="middle" style="fill:#555;font-size:12px;font-family:Arial,sans-serif;font-weight:400">500</text><text x="90" y="384.211" alignment-baseline="middle" style="fill:#555;font-size:12px;font-family:Arial,sans-serif;font-weight:400">1.0k</text><text x="90" y="351.316" alignment-baseline="middle" style="fill:#555;font-size:12px;font-family:Arial,sans-serif;font-weight:400">1.5k</text><text x="90" y="318.421" alignment-baseline="middle" style="fill:#555;font-size:12px;font-family:Arial,sans-serif;font-weight:400">2.0k</text><text x="90" y="285.526" alignment-baseline="middle" style="fill:#555;font-size:12px;font-family:Arial,sans-serif;font-weight:400">2.5k</text><text x="90" y="252.632" alignment-baseline="middle" style="fill:#555;font-size:12px;font-family:Arial,sans-serif;font-weight:400">3.0k</text><text x="90" y="219.737" alignment-baseline="middle" style="fill:#555;font-size:12px;font-family:Arial,sans-serif;font-weight:400">3.5k</text><text x="90" y="186.842" alignment-baseline="middle" style="fill:#555;font-size:12px;font-family:Arial,sans-serif;font-weight:400">4.0k</text><text x="90" y="153.947" alignment-baseline="middle" style="fill:#555;font-size:12px;font-family:Arial,sans-serif;font-weight:400">4.5k</text></g><text x="54.5" y="300" alignment-baseline="middle" dominant-baseline="middle" style="fill:#555;font-weight:700;font-size:12px;font-family:Arial,sans-serif" text-anchor="middle" transform="rotate(-90 54.5 300)">Current</text><g class="axis4"><path d="M127.5 450v5M185.5 450v5M243.5 450v5M301.5 450v5M359.5 450v5M417.5 450v5M475.5 450v5M533.5 450v5M591.5 450v5M649.5 450v5M707.5 450v5M765.5 450v5M823.5 450v5M881.5 450v5" style="shape-rendering:crispedges;stroke:#555;stroke-width:1;stroke-dasharray:none"/><g dominant-baseline="text-before-edge" text-anchor="middle"><text x="127.5" y="465" alignment-baseline="text-before-edge" style="fill:#555;font-size:12px;font-family:Arial,sans-serif;font-weight:400">2011</text><text x="185.5" y="465" alignment-baseline="text-before-edge" style="fill:#555;font-size:12px;font-family:Arial,sans-serif;font-weight:400">Jan</text><text x="243.5" y="465" alignment-baseline="text-before-edge" style="fill:#555;font-size:12px;font-family:Arial,sans-serif;font-weight:400">Feb</text><text x="301.5" y="465" alignment-baseline="text-before-edge" style="fill:#555;font-size:12px;font-family:Arial,sans-serif;font-weight:400">Mar</text><text x="359.5" y="465" alignment-baseline="text-before-edge" style="fill:#555;font-size:12px;font-family:Arial,sans-serif;font-weight:400">Apr</text><text x="417.5" y="465" alignment-baseline="text-before-edge" style="fill:#555;font-size:12px;font-family:Arial,sans-serif;font-weight:400">May</text><text x="475.5" y="465" alignment-baseline="text-before-edge" style="fill:#555;font-size:12px;font-family:Arial,sans-serif;font-weight:400">Jun</text><text x="533.5" y="465" alignment-baseline="text-before-edge" style="fill:#555;font-size:12px;font-family:Arial,sans-serif;font-weight:400">Jul</text><text x="591.5" y="465" alignment-baseline="text-before-edge" style="fill:#555;font-size:12px;font-family:Arial,sans-serif;font-weight:400">Aug</text><text x="649.5" y="465" alignment-baseline="text-before-edge" style="fill:#555;font-size:12px;font-family:Arial,sans-serif;font-weight:400">Sep</text><text x="707.5" y="465" alignment-baseline="text-before-edge" style="fill:#555;font-size:12px;font-family:Arial,sans-serif;font-weight:400">Oct</text><text x="765.5" y="465" alignment-baseline="text-before-edge" style="fill:#555;font-size:12px;font-family:Arial,sans-serif;font-weight:400">Nov</text><text x="823.5" y="465" alignment-baseline="text-before-edge" style="fill:#555;font-size:12px;font-family:Arial,sans-serif;font-weight:400">Dec</text><text x="881.5" y="465" alignment-baseline="text-before-edge" style="fill:#555;font-size:12px;font-family:Arial,sans-serif;font-weight:400">2012</text></g><path d="M100 450h809" style="shape-rendering:crispedges;stroke:#555;stroke-width:1;stroke-dasharray:none"/></g><g class="collection6"><path d="M100 371.053h55V450h-55z" class="rect34" style="fill:#00acec;stroke-width:0;stroke:#ccc;stroke-dasharray:none"/><path d="M158 318.421h55v52.632h-55zM216 285.526h55v32.895h-55zM274 246.053h55v39.474h-55zM332 180.263h55v65.789h-55z" class="rect34" style="fill:#2e944f;stroke-width:0;stroke:#ccc;stroke-dasharray:none"/><path d="M390 180.263h55v72.368h-55zM448 252.632h55v26.316h-55z" class="rect34" style="fill:#cc1a59;stroke-width:0;stroke:#ccc;stroke-dasharray:none"/><path d="M506 262.5h55v16.447h-55zM564 223.026h55V262.5h-55z" class="rect34" style="fill:#2e944f;stroke-width:0;stroke:#ccc;stroke-dasharray:none"/><path d="M622 223.026h55v46.053h-55zM680 269.079h55v29.605h-55z" class="rect34" style="fill:#cc1a59;stroke-width:0;stroke:#ccc;stroke-dasharray:none"/><path d="M738 239.474h55v59.211h-55zM796 150h55v89.474h-55z" class="rect34" style="fill:#2e944f;stroke-width:0;stroke:#ccc;stroke-dasharray:none"/><path d="M854 150h55v300h-55z" class="rect34" style="fill:#00acec;stroke-width:0;stroke:#ccc;stroke-dasharray:none"/></g><g class="collection7" dominant-baseline="middle" text-anchor="middle"><text x="127.5" y="410.526" alignment-baseline="middle" class="pointText34" style="fill:#fff;font-size:12px;font-family:Arial,sans-serif;font-weight:400">1200</text><text x="185.5" y="344.737" alignment-baseline="middle" class="pointText34" style="fill:#fff;font-size:12px;font-family:Arial,sans-serif;font-weight:400">800</text><text x="243.5" y="301.974" alignment-baseline="middle" class="pointText34" style="fill:#fff;font-size:12px;font-family:Arial,sans-serif;font-weight:400">500</text><text x="301.5" y="265.789" alignment-baseline="middle" class="pointText34" style="fill:#fff;font-size:12px;font-family:Arial,sans-serif;font-weight:400">600</text><text x="359.5" y="213.158" alignment-baseline="middle" class="pointText34" style="fill:#fff;font-size:12px;font-family:Arial,sans-serif;font-weight:400">1000</text><text x="417.5" y="216.447" alignment-baseline="middle" class="pointText34" style="fill:#fff;font-size:12px;font-family:Arial,sans-serif;font-weight:400">-1100</text><text x="475.5" y="265.789" alignment-baseline="middle" class="pointText34" style="fill:#fff;font-size:12px;font-family:Arial,sans-serif;font-weight:400">-400</text><text x="533.5" y="270.724" alignment-baseline="middle" class="pointText34" style="fill:#fff;font-size:12px;font-family:Arial,sans-serif;font-weight:400">250</text><text x="591.5" y="242.763" alignment-baseline="middle" class="pointText34" style="fill:#fff;font-size:12px;font-family:Arial,sans-serif;font-weight:400">600</text><text x="649.5" y="246.053" alignment-baseline="middle" class="pointText34" style="fill:#fff;font-size:12px;font-family:Arial,sans-serif;font-weight:400">-700</text><text x="707.5" y="283.882" alignment-baseline="middle" class="pointText34" style="fill:#fff;font-size:12px;font-family:Arial,sans-serif;font-weight:400">-450</text><text x="765.5" y="269.079" alignment-baseline="middle" class="pointText34" style="fill:#fff;font-size:12px;font-family:Arial,sans-serif;font-weight:400">900</text><text x="823.5" y="194.737" alignment-baseline="middle" class="pointText34" style="fill:#fff;font-size:12px;font-family:Arial,sans-serif;font-weight:400">1360</text><text x="881.5" y="300" alignment-baseline="middle" class="pointText34" style="fill:#fff;font-size:12px;font-family:Arial,sans-serif;font-weight:400">4560</text></g><text x="960" y="100" alignment-baseline="text-before-edge" dominant-baseline="text-before-edge" style="fill:#555;font-size:12px;font-family:Arial,sans-serif;font-weight:400">Category</text><g class="collection8"><g class="glyph6"><path d="M960 119h10v10h-10z" class="rect48" style="fill:#00acec;stroke-width:0;opacity:1;stroke:#ccc;stroke-dasharray:none"/><text x="980" y="117" alignment-baseline="text-before-edge" class="pointText48" dominant-baseline="text-before-edge" style="fill:#555;font-size:12px;font-family:Arial,sans-serif;font-weight:400">Total</text></g><g class="glyph6"><path d="M960 138h10v10h-10z" class="rect48" style="fill:#2e944f;stroke-width:0;opacity:1;stroke:#ccc;stroke-dasharray:none"/><text x="980" y="136" alignment-baseline="text-before-edge" class="pointText48" dominant-baseline="text-before-edge" style="fill:#555;font-size:12px;font-family:Arial,sans-serif;font-weight:400">Up</text></g><g class="glyph6"><path d="M960 157h10v10h-10z" class="rect48" style="fill:#cc1a59;stroke-width:0;opacity:1;stroke:#ccc;stroke-dasharray:none"/><text x="980" y="155" alignment-baseline="text-before-edge" class="pointText48" dominant-baseline="text-before-edge" style="fill:#555;font-size:12px;font-family:Arial,sans-serif;font-weight:400">Down</text></g></g></svg>